<svg xmlns="http://www.w3.org/2000/svg" xmlns:xlink="http://www.w3.org/1999/xlink" width="136" height="136" viewBox="0 0 136 136">
  <defs>
    <filter id="Ellipse_12618" x="0" y="0" width="136" height="136" filterUnits="userSpaceOnUse">
      <feOffset dy="3" input="SourceAlpha"/>
      <feGaussianBlur stdDeviation="3" result="blur"/>
      <feFlood flood-opacity="0.161"/>
      <feComposite operator="in" in2="blur"/>
      <feComposite in="SourceGraphic"/>
    </filter>
  </defs>
  <g id="Group_1112242" data-name="Group 1112242" transform="translate(-738.675 -5034.532)">
    <g id="Group_1113122" data-name="Group 1113122">
      <g transform="matrix(1, 0, 0, 1, 738.68, 5034.53)" filter="url(#Ellipse_12618)">
        <circle id="Ellipse_12618-2" data-name="Ellipse 12618" cx="59" cy="59" r="59" transform="translate(9 6)" fill="#fff"/>
      </g>
      <g id="Artboard21" transform="translate(782.675 5060.106)">
        <g id="Group_1111752" data-name="Group 1111752" transform="translate(0 0)">
          <g id="Group_1111751" data-name="Group 1111751" transform="translate(1.175 1.125)">
            <g id="Group_1111748" data-name="Group 1111748" transform="translate(0 13.156)">
              <g id="Group_1111744" data-name="Group 1111744">
                <g id="CorelEMF">
                  <path id="Path_904183" data-name="Path 904183" d="M61.921,104.23H96.162a1.262,1.262,0,0,1,.923.382l6.213,6.213a1.262,1.262,0,0,1,.382.923v46.993a1.3,1.3,0,0,1-1.3,1.3H61.921a1.305,1.305,0,0,1-1.305-1.3V105.535a1.308,1.308,0,0,1,1.305-1.305Z" transform="translate(-60.616 -104.23)" fill="#eceff1" fill-rule="evenodd"/>
                  <path id="Path_904184" data-name="Path 904184" d="M306.3,104.993v6.213a.654.654,0,0,0,.653.653h6.213a1.309,1.309,0,0,0-.27-.382l-6.213-6.213A1.371,1.371,0,0,0,306.3,104.993Z" transform="translate(-270.218 -104.881)" fill="#a79ba7" fill-rule="evenodd"/>
                  <path id="Path_904185" data-name="Path 904185" d="M61.921,104.23h1.3v55.814h-1.3a1.305,1.305,0,0,1-1.305-1.3V105.535a1.308,1.308,0,0,1,1.305-1.305Z" transform="translate(-60.616 -104.23)" fill="#d1d1d6" fill-rule="evenodd"/>
                </g>
              </g>
              <g id="Group_1111745" data-name="Group 1111745" transform="translate(7.751 14.287)">
                <path id="Path_904186" data-name="Path 904186" d="M114.339,201.5h7.286a.953.953,0,0,1,.95.951v7.285a.953.953,0,0,1-.95.951h-7.286a.953.953,0,0,1-.951-.951v-7.286a.953.953,0,0,1,.951-.951Z" transform="translate(-113.388 -201.5)" fill="#8ac9fe" fill-rule="evenodd"/>
                <path id="Path_904187" data-name="Path 904187" d="M161.462,201.5h1.175a.953.953,0,0,1,.95.951v7.285a.953.953,0,0,1-.95.951h-1.175a.953.953,0,0,0,.95-.951v-7.286a.953.953,0,0,0-.95-.951Z" transform="translate(-154.401 -201.5)" fill="#60b7ff" fill-rule="evenodd"/>
              </g>
              <g id="Group_1111746" data-name="Group 1111746" transform="translate(7.751 27.4)">
                <path id="Path_904188" data-name="Path 904188" d="M114.339,290.779h7.286a.953.953,0,0,1,.95.951v7.285a.953.953,0,0,1-.95.95h-7.286a.953.953,0,0,1-.951-.95V291.73A.953.953,0,0,1,114.339,290.779Z" transform="translate(-113.388 -290.779)" fill="#6cf5c2" fill-rule="evenodd"/>
                <path id="Path_904189" data-name="Path 904189" d="M161.462,290.779h1.175a.953.953,0,0,1,.95.951v7.285a.953.953,0,0,1-.95.95h-1.175a.953.953,0,0,0,.95-.95V291.73A.953.953,0,0,0,161.462,290.779Z" transform="translate(-154.401 -290.779)" fill="#00e499" fill-rule="evenodd"/>
              </g>
              <g id="Group_1111747" data-name="Group 1111747" transform="translate(7.751 40.513)">
                <path id="Path_904190" data-name="Path 904190" d="M114.339,380.058h7.286a.956.956,0,0,1,.95.954V388.3a.953.953,0,0,1-.95.951h-7.286a.953.953,0,0,1-.951-.951v-7.285A.956.956,0,0,1,114.339,380.058Z" transform="translate(-113.388 -380.058)" fill="#ffe177" fill-rule="evenodd"/>
                <path id="Path_904191" data-name="Path 904191" d="M161.462,380.058h1.175a.956.956,0,0,1,.95.954V388.3a.953.953,0,0,1-.95.951h-1.175a.953.953,0,0,0,.95-.951v-7.285A.956.956,0,0,0,161.462,380.058Z" transform="translate(-154.401 -380.058)" fill="#ffd064" fill-rule="evenodd"/>
              </g>
            </g>
            <g id="Group_1111749" data-name="Group 1111749" transform="translate(25.533 39.067)">
              <path id="Path_904192" data-name="Path 904192" d="M248.674,330.19a14.217,14.217,0,1,0-14.218-14.217A14.245,14.245,0,0,0,248.674,330.19Z" transform="translate(-234.456 -298.655)" fill="#fe646f" fill-rule="evenodd"/>
              <path id="Path_904193" data-name="Path 904193" d="M325.654,301.757a14.217,14.217,0,1,1,0,28.433c-.324,0-.645-.011-.964-.033a14.217,14.217,0,0,0,0-28.368C325.009,301.768,325.33,301.757,325.654,301.757Z" transform="translate(-311.436 -298.655)" fill="#fd4755" fill-rule="evenodd"/>
              <path id="Path_904194" data-name="Path 904194" d="M278.187,354.623a9.135,9.135,0,1,0-9.136-9.136A9.154,9.154,0,0,0,278.187,354.623Z" transform="translate(-263.97 -328.169)" fill="#eceff1" fill-rule="evenodd"/>
              <path id="Path_904195" data-name="Path 904195" d="M278.187,336.352c.217,0,.43.007.643.022a9.136,9.136,0,0,0,0,18.227c-.213.015-.427.022-.643.022a9.135,9.135,0,1,1,0-18.271Z" transform="translate(-263.97 -328.169)" fill="#d1d1d6" fill-rule="evenodd"/>
              <path id="Path_904196" data-name="Path 904196" d="M307.7,379.054A4.054,4.054,0,1,0,303.645,375,4.063,4.063,0,0,0,307.7,379.054Z" transform="translate(-293.483 -357.682)" fill="#fe646f" fill-rule="evenodd"/>
              <path id="Path_904197" data-name="Path 904197" d="M307.7,370.946a4.054,4.054,0,1,0,0,8.108,3.942,3.942,0,0,0,.643-.051,4.054,4.054,0,0,1,0-8.006A3.942,3.942,0,0,0,307.7,370.946Z" transform="translate(-293.483 -357.682)" fill="#fd4755" fill-rule="evenodd"/>
              <path id="Path_904198" data-name="Path 904198" d="M387.724,286.06l-4.988,4.99a.628.628,0,0,1-.591.173l-4.039-.871-.871-4.039a.625.625,0,0,1,.175-.591l4.988-4.988a.322.322,0,0,1,.541.16l.82,3.8,3.8.82a.32.32,0,0,1,.16.541Z" transform="translate(-356.251 -280.64)" fill="#e3a76f" fill-rule="evenodd"/>
              <path id="Path_904199" data-name="Path 904199" d="M391.551,313.571l-4.988,4.99a.628.628,0,0,1-.591.173l-4.039-.871-.228-1.057,3.862.833a.63.63,0,0,0,.59-.175l4.575-4.576.658.142a.32.32,0,0,1,.16.541Z" transform="translate(-360.078 -308.151)" fill="#c48958" fill-rule="evenodd"/>
            </g>
            <g id="Group_1111750" data-name="Group 1111750" transform="translate(6.433)">
              <path id="Path_904200" data-name="Path 904200" d="M118.879,16.659a10.285,10.285,0,0,1,3.016,1.25l1.96-.869,2.309,2.309-.869,1.96a10.285,10.285,0,0,1,1.25,3.016l2,.77V28.36l-2,.77a10.293,10.293,0,0,1-1.25,3.014l.869,1.96-2.309,2.31-1.96-.871a10.289,10.289,0,0,1-3.016,1.251l-.77,2h-3.266l-.77-2a10.294,10.294,0,0,1-3.014-1.25l-1.96.871-2.31-2.31.871-1.958a10.321,10.321,0,0,1-1.251-3.016l-2-.77V25.094l2-.77a10.288,10.288,0,0,1,1.251-3.016l-.871-1.96,2.31-2.309,1.958.869a10.319,10.319,0,0,1,3.016-1.25l.77-2h3.266Z" transform="translate(-104.411 -14.66)" fill="#ffe177" fill-rule="evenodd"/>
              <path id="Path_904201" data-name="Path 904201" d="M148.732,17.332l.658-.292,2.309,2.309-.869,1.96a10.286,10.286,0,0,1,1.25,3.016l2,.77V28.36l-2,.77a10.294,10.294,0,0,1-1.25,3.014l.869,1.96-2.309,2.31-.658-.292,2.018-2.018-.871-1.96a10.293,10.293,0,0,0,1.25-3.014l2-.77V25.094l-2-.77a10.285,10.285,0,0,0-1.25-3.016l.871-1.96Zm-14.388,0,.292-.292,1.958.869c-.138.077-.275.157-.409.241Zm10.072-.673a10.285,10.285,0,0,1,3.016,1.25l-.54.241a13.458,13.458,0,0,0-3.426-1.491l-.77-2h.951ZM136.6,35.543l-1.96.871-.292-.292,1.841-.818Q136.386,35.427,136.6,35.543Zm10.835,0a10.288,10.288,0,0,1-3.016,1.251l-.77,2H142.7l.77-2a13.49,13.49,0,0,0,3.428-1.491Z" transform="translate(-129.947 -14.66)" fill="#ffd064" fill-rule="evenodd"/>
              <path id="Path_904202" data-name="Path 904202" d="M152.209,56.544a5.914,5.914,0,1,1-5.914,5.915A5.915,5.915,0,0,1,152.209,56.544Z" transform="translate(-140.143 -50.392)" fill="#eceff1" fill-rule="evenodd"/>
              <path id="Path_904203" data-name="Path 904203" d="M152.209,56.544c.135,0,.268,0,.4.014a5.914,5.914,0,0,0,0,11.8c-.133.008-.267.013-.4.013a5.914,5.914,0,0,1,0-11.828Z" transform="translate(-140.143 -50.392)" fill="#d1d1d6" fill-rule="evenodd"/>
            </g>
          </g>
          <path id="Path_904204" data-name="Path 904204" d="M86.682,78.286H53.749a1.136,1.136,0,0,1-1.136-1.136V21.335A1.136,1.136,0,0,1,53.749,20.2H59V18.612a1.175,1.175,0,0,1,.753-1.1L61.2,16.96a11.509,11.509,0,0,1,.915-2.206l-.628-1.413a1.175,1.175,0,0,1,.243-1.308l2.309-2.308a1.175,1.175,0,0,1,1.308-.243l1.413.628a11.441,11.441,0,0,1,2.2-.913l.558-1.445A1.175,1.175,0,0,1,70.615,7H73.88a1.175,1.175,0,0,1,1.1.754L75.532,9.2a11.44,11.44,0,0,1,2.2.913l1.413-.628a1.175,1.175,0,0,1,1.308.243l2.308,2.308a1.175,1.175,0,0,1,.244,1.307l-.626,1.413a11.42,11.42,0,0,1,.914,2.208l1.44.554a1.175,1.175,0,0,1,.753,1.1V20.2h4.346a1.136,1.136,0,0,1,.8.333l6.979,6.979a1.136,1.136,0,0,1,.333.8V50.059a15.145,15.145,0,0,1,2.208.89l4.628-4.631a1.175,1.175,0,0,1,1.98.583l.482,2.235a1.175,1.175,0,0,1,1.654,1.654l2.235.482a1.175,1.175,0,0,1,.583,1.979l-4.641,4.641a15.235,15.235,0,0,1-20.4,20.393ZM59.164,22.471H54.885V76.014h28.42a15.317,15.317,0,0,1-4.353-6.547h-2.46a1.136,1.136,0,0,1,0-2.273h1.884q-.127-.738-.182-1.5h-1.7a1.136,1.136,0,1,1,0-2.272H78.2a15.138,15.138,0,0,1,2.4-7.074h-4.1a1.136,1.136,0,1,1,0-2.272h5.9a15.4,15.4,0,0,1,1.658-1.5H76.492a1.136,1.136,0,0,1,0-2.273H88.127a15.247,15.247,0,0,1,7.551-.772V29.45H89.835A1.136,1.136,0,0,1,88.7,28.314V22.471H85.328a1.173,1.173,0,0,1-.592.5l-1.441.555a11.538,11.538,0,0,1-.914,2.2l.627,1.414a1.175,1.175,0,0,1-.244,1.307l-2.308,2.308A1.175,1.175,0,0,1,79.149,31l-1.413-.626a11.413,11.413,0,0,1-2.2.913l-.555,1.441a1.175,1.175,0,0,1-1.1.753H70.615a1.175,1.175,0,0,1-1.1-.753l-.554-1.441a11.518,11.518,0,0,1-2.206-.914L65.343,31a1.175,1.175,0,0,1-1.307-.243l-2.308-2.308a1.175,1.175,0,0,1-.243-1.308l.628-1.412a11.5,11.5,0,0,1-.914-2.2l-1.442-.555a1.173,1.173,0,0,1-.592-.5Zm34.907,4.707-3.1-3.1v3.1Zm4.793,25.755a12.9,12.9,0,1,0,6.224,6.239l-.039-.008-3.544-.764a10.232,10.232,0,1,1-1.868-1.875l-.762-3.532C98.871,52.974,98.867,52.953,98.864,52.933Zm6.405-1.824-.345-1.6-3.616,3.618.345,1.6Zm-1.954,5.278,1.6.346,3.616-3.616-1.6-.346Zm-5.232,1.908a7.879,7.879,0,1,0,1.657,1.666l-1.924,1.923a5.187,5.187,0,1,1-1.654-1.669ZM94.42,61.959a2.835,2.835,0,1,0,1.647,1.676l-1.82,1.82a1.175,1.175,0,0,1-1.662-1.662ZM73.553,10.6l-.48-1.249H71.421L70.939,10.6a1.175,1.175,0,0,1-.825.72,9.1,9.1,0,0,0-2.671,1.107,1.175,1.175,0,0,1-1.094.073l-1.222-.544L63.96,13.124l.543,1.222a1.175,1.175,0,0,1-.073,1.094,9.176,9.176,0,0,0-1.111,2.676,1.175,1.175,0,0,1-.72.822l-1.246.48v1.652l1.246.48a1.175,1.175,0,0,1,.72.821,9.152,9.152,0,0,0,1.11,2.672,1.175,1.175,0,0,1,.074,1.1l-.543,1.222,1.168,1.168,1.223-.542a1.175,1.175,0,0,1,1.09.072,9.165,9.165,0,0,0,2.676,1.108,1.176,1.176,0,0,1,.826.721l.48,1.246h1.652l.48-1.246a1.175,1.175,0,0,1,.825-.721,9.051,9.051,0,0,0,2.669-1.106,1.175,1.175,0,0,1,1.094-.075l1.223.542,1.169-1.169-.542-1.223a1.175,1.175,0,0,1,.072-1.09,9.185,9.185,0,0,0,1.108-2.673,1.175,1.175,0,0,1,.721-.825l1.246-.48V19.419l-1.246-.48a1.174,1.174,0,0,1-.721-.826,9.08,9.08,0,0,0-1.107-2.673,1.175,1.175,0,0,1-.074-1.092l.542-1.223-1.168-1.168-1.222.544a1.175,1.175,0,0,1-1.094-.073,9.094,9.094,0,0,0-2.671-1.107,1.175,1.175,0,0,1-.825-.722Zm-1.307,2.774a6.872,6.872,0,1,1-6.87,6.87,6.871,6.871,0,0,1,6.87-6.87Zm0,2.35a4.522,4.522,0,1,0,4.524,4.52,4.519,4.519,0,0,0-4.524-4.52Zm-9.8,18.763h7.285a2.092,2.092,0,0,1,2.087,2.087v7.286a2.092,2.092,0,0,1-2.087,2.087H62.451a2.092,2.092,0,0,1-2.087-2.087V36.573A2.092,2.092,0,0,1,62.451,34.486Zm.186,2.272v6.914h6.914V36.758Zm.715,4.073a1.136,1.136,0,0,1,1.605-1.608l.705.7,1.484-1.836a1.136,1.136,0,0,1,1.767,1.429l-2.278,2.817a1.136,1.136,0,0,1-1.686.09Zm-.9,19.881h7.285a2.1,2.1,0,0,1,2.087,2.09v7.285a2.092,2.092,0,0,1-2.087,2.087H62.451a2.092,2.092,0,0,1-2.087-2.087V62.8A2.1,2.1,0,0,1,62.451,60.712Zm.186,2.273V69.9h6.914V62.985Zm.715,4.076a1.136,1.136,0,1,1,1.605-1.608l.705.7,1.484-1.836a1.136,1.136,0,0,1,1.767,1.429l-2.278,2.817a1.136,1.136,0,0,1-1.686.09ZM76.492,43.237a1.136,1.136,0,1,1,0-2.272h7.764a1.136,1.136,0,1,1,0,2.272ZM62.451,47.6h7.285a2.092,2.092,0,0,1,2.087,2.087v7.286a2.092,2.092,0,0,1-2.087,2.087H62.451a2.092,2.092,0,0,1-2.087-2.087V49.686A2.092,2.092,0,0,1,62.451,47.6Zm.186,2.273v6.914h6.914V49.871Zm.714,4.072a1.136,1.136,0,0,1,1.607-1.607l.705.705,1.483-1.835a1.136,1.136,0,0,1,1.767,1.429l-2.278,2.817a1.136,1.136,0,0,1-1.687.089ZM76.492,39.466a1.136,1.136,0,0,1,0-2.273H88.419a1.136,1.136,0,0,1,0,2.273Z" transform="translate(-52.613 -7)" fill-rule="evenodd"/>
        </g>
      </g>
    </g>
  </g>
</svg>
