<svg xmlns="http://www.w3.org/2000/svg" xmlns:xlink="http://www.w3.org/1999/xlink" width="136" height="136" viewBox="0 0 136 136">
  <defs>
    <filter id="Ellipse_12620" x="0" y="0" width="136" height="136" filterUnits="userSpaceOnUse">
      <feOffset dy="3" input="SourceAlpha"/>
      <feGaussianBlur stdDeviation="3" result="blur"/>
      <feFlood flood-opacity="0.161"/>
      <feComposite operator="in" in2="blur"/>
      <feComposite in="SourceGraphic"/>
    </filter>
  </defs>
  <g id="Group_1112240" data-name="Group 1112240" transform="translate(4842.582 6533.257)">
    <g id="Group_1113123" data-name="Group 1113123">
      <g transform="matrix(1, 0, 0, 1, -4842.58, -6533.26)" filter="url(#Ellipse_12620)">
        <circle id="Ellipse_12620-2" data-name="Ellipse 12620" cx="59" cy="59" r="59" transform="translate(9 6)" fill="#fff"/>
      </g>
      <g id="monitoreo-ambiental" transform="translate(-4805.061 -6495.319)">
        <g id="Group_1111780" data-name="Group 1111780" transform="translate(0.957 0.957)">
          <g id="Group_1111775" data-name="Group 1111775">
            <path id="Path_904258" data-name="Path 904258" d="M141.149,331.852l-18.441.236-4.1,7.03a.43.43,0,0,0,.372.647h26.028a.43.43,0,0,0,.372-.647Z" transform="translate(-105.456 -294.41)" fill="#003748" fill-rule="evenodd"/>
            <path id="Path_904259" data-name="Path 904259" d="M291.909,331.852l-2.133.027,4.219,7.239a.43.43,0,0,1-.372.647h2.149a.43.43,0,0,0,.372-.647Z" transform="translate(-256.216 -294.41)" fill="#00242f" fill-rule="evenodd"/>
            <path id="Path_904260" data-name="Path 904260" d="M59.311,18.595a2.779,2.779,0,0,1,2.771,2.771V53.651a2.779,2.779,0,0,1-2.771,2.771H11.77A2.779,2.779,0,0,1,9,53.651V21.366a2.779,2.779,0,0,1,2.771-2.771Z" transform="translate(-8.999 -18.595)" fill="#e5f7ff" fill-rule="evenodd"/>
            <path id="Path_904261" data-name="Path 904261" d="M406.186,18.595a2.779,2.779,0,0,1,2.771,2.771V53.651a2.78,2.78,0,0,1-2.771,2.771h-3.224a2.78,2.78,0,0,0,2.771-2.771V21.366a2.779,2.779,0,0,0-2.771-2.771Z" transform="translate(-355.874 -18.595)" fill="#cff0ff" fill-rule="evenodd"/>
            <path id="Path_904262" data-name="Path 904262" d="M62.082,305.248H9v1.869a2.779,2.779,0,0,0,2.771,2.771H59.311a2.779,2.779,0,0,0,2.771-2.771Z" transform="translate(-8.999 -270.986)" fill="#004960" fill-rule="evenodd"/>
            <path id="Path_904263" data-name="Path 904263" d="M408.957,305.248h-3.224v1.869a2.779,2.779,0,0,1-2.771,2.771h3.224a2.779,2.779,0,0,0,2.771-2.771Z" transform="translate(-355.874 -270.986)" fill="#003748" fill-rule="evenodd"/>
          </g>
          <g id="Group_1111776" data-name="Group 1111776" transform="translate(3.357 3.063)">
            <path id="Path_904264" data-name="Path 904264" d="M46.343,72.554H37.8a.719.719,0,0,1-.717-.717V68.768a.719.719,0,0,1,.717-.717h8.542a.719.719,0,0,1,.717.717v3.069A.719.719,0,0,1,46.343,72.554ZM72.555,44.222H81.1a.719.719,0,0,1,.717.717v3.069a.719.719,0,0,1-.717.717H72.555a.719.719,0,0,1-.717-.717V44.939A.719.719,0,0,1,72.555,44.222Z" transform="translate(-37.083 -44.222)" fill="#fb685b" fill-rule="evenodd"/>
            <path id="Path_904265" data-name="Path 904265" d="M46.343,72.554H37.8a.719.719,0,0,1-.717-.717v-.478h8.064a.719.719,0,0,0,.717-.717V68.051h.478a.719.719,0,0,1,.717.717v3.069A.719.719,0,0,1,46.343,72.554ZM80.62,44.222H81.1a.719.719,0,0,1,.717.717v3.069a.719.719,0,0,1-.717.717H72.555a.719.719,0,0,1-.717-.717V47.53H79.9a.719.719,0,0,0,.717-.717Z" transform="translate(-37.083 -44.222)" fill="#f25244" fill-rule="evenodd"/>
          </g>
          <g id="Group_1111777" data-name="Group 1111777" transform="translate(10.135 6.464)">
            <path id="Path_904266" data-name="Path 904266" d="M93.791,72.678c10.346.857,14.21,6.863,10.773,10.431C94.964,87.765,97.417,75.261,93.791,72.678Zm27.467,6.081c-10.378-.269-14.87,5.283-11.84,9.2C118.457,93.63,117.374,80.934,121.258,78.759Z" transform="translate(-93.791 -72.678)" fill="#72d461" fill-rule="evenodd"/>
            <path id="Path_904267" data-name="Path 904267" d="M93.791,72.678q.533.044,1.042.107c2.176,3.994,1.242,13.292,9.731,9.176a4.2,4.2,0,0,0,1.181-2.3,4.023,4.023,0,0,1-1.181,3.448C94.964,87.765,97.417,75.261,93.791,72.678Zm27.467,6.081c-.4-.01-.794-.011-1.178,0-2.59,3.741-2.675,13.066-10.661,8.059a4.309,4.309,0,0,1-.885-2,4.064,4.064,0,0,0,.885,3.144C118.457,93.63,117.374,80.934,121.258,78.759Z" transform="translate(-93.791 -72.678)" fill="#57c95a" fill-rule="evenodd"/>
          </g>
          <g id="Group_1111778" data-name="Group 1111778" transform="translate(32.077 20.241)">
            <path id="Path_904268" data-name="Path 904268" d="M409.382,359.62l2.334-1.453-2.684-4.649-2.429,1.288Z" transform="translate(-391.157 -333.728)" fill="#b3d1d6" fill-rule="evenodd"/>
            <path id="Path_904269" data-name="Path 904269" d="M409.382,364.93l2.334-1.453-.014-.025-1.306.813-2.723-4.716-1.07.567Z" transform="translate(-391.157 -339.038)" fill="#9ab8c2" fill-rule="evenodd"/>
            <circle id="Ellipse_12623" data-name="Ellipse 12623" cx="11.506" cy="11.506" r="11.506" fill="#64b4f5"/>
            <path id="Path_904270" data-name="Path 904270" d="M319.554,206.755a11.506,11.506,0,1,1-15.1,17.257,11.506,11.506,0,0,0,15.1-17.257Z" transform="translate(-301.215 -204.506)" fill="#42a4f4" fill-rule="evenodd"/>
            <ellipse id="Ellipse_12624" data-name="Ellipse 12624" cx="8.48" cy="8.48" rx="8.48" ry="8.48" transform="matrix(0.16, -0.987, 0.987, 0.16, 1.769, 18.516)" fill="#e5f7ff"/>
            <path id="Path_904271" data-name="Path 904271" d="M311.171,213.26a8.461,8.461,0,0,1,6.513,3.05,8.479,8.479,0,0,0-11.943,11.943,8.479,8.479,0,0,1,5.43-14.992Z" transform="translate(-299.665 -210.234)" fill="#cff0ff" fill-rule="evenodd"/>
            <path id="Path_904272" data-name="Path 904272" d="M421.9,380.845l-3.824,2.208a.222.222,0,0,0-.081.3l5.6,9.7a2.43,2.43,0,0,0,4.208-2.43l-5.6-9.7A.222.222,0,0,0,421.9,380.845Z" transform="translate(-401.159 -357.762)" fill="#8c9ba7" fill-rule="evenodd"/>
            <path id="Path_904273" data-name="Path 904273" d="M419.15,394.34l-1.075.621a.222.222,0,0,0-.081.3l5.6,9.7a2.437,2.437,0,0,0,3.319.889,2.411,2.411,0,0,0,.5-.381,2.439,2.439,0,0,1-2.741-1.13l-5.6-9.7A.222.222,0,0,1,419.15,394.34Z" transform="translate(-401.159 -369.67)" fill="#7a8b97" fill-rule="evenodd"/>
            <path id="Path_904274" data-name="Path 904274" d="M418.074,383.053a.222.222,0,0,0-.081.3l1.454,2.518,4.208-2.43-1.454-2.518a.222.222,0,0,0-.3-.081Z" transform="translate(-401.159 -357.762)" fill="#7a8b97" fill-rule="evenodd"/>
            <path id="Path_904275" data-name="Path 904275" d="M418.074,394.961a.222.222,0,0,0-.081.3l1.454,2.518,1.075-.621-1.454-2.518a.223.223,0,0,1,.081-.3Z" transform="translate(-401.159 -369.67)" fill="#596c76" fill-rule="evenodd"/>
          </g>
          <g id="Group_1111779" data-name="Group 1111779" transform="translate(38.863 27.027)">
            <path id="Path_904276" data-name="Path 904276" d="M347.34,250.136a4.716,4.716,0,1,1-4.412,3.042,1.884,1.884,0,0,0,2.614-2.687,4.7,4.7,0,0,1,1.8-.355Z" transform="translate(-341.608 -249.489)" fill="#cff0ff" fill-rule="evenodd"/>
            <path id="Path_904277" data-name="Path 904277" d="M338.868,244.721a4.716,4.716,0,1,1-4.412,3.042,1.884,1.884,0,0,0,2.614-2.687A4.706,4.706,0,0,1,338.868,244.721Z" transform="translate(-334.149 -244.721)" fill="#64b4f5" fill-rule="evenodd"/>
            <path id="Path_904278" data-name="Path 904278" d="M347.732,251.737a4.72,4.72,0,1,1-6.567,6.566,4.72,4.72,0,0,0,6.567-6.566Z" transform="translate(-340.326 -250.898)" fill="#42a4f4" fill-rule="evenodd"/>
          </g>
        </g>
        <path id="Path_904279" data-name="Path 904279" d="M45.534,47.056a3.769,3.769,0,0,1-3.763-3.764c0-.121.006-.242.017-.361a2.8,2.8,0,0,0,.5.046,2.843,2.843,0,0,0,2.84-2.841,2.934,2.934,0,0,0-.059-.579,4.008,4.008,0,0,1,.464-.027,3.763,3.763,0,1,1,0,7.526Zm0-9.439a5.646,5.646,0,0,0-2.163.427.956.956,0,0,0-.369,1.5.909.909,0,0,1,.215.594.93.93,0,0,1-.928.929.919.919,0,0,1-.575-.2.956.956,0,0,0-1.486.411,5.676,5.676,0,1,0,5.306-3.659ZM6.264,39.393h8.065v2.591H6.264Zm-.238,4.5h8.542a1.675,1.675,0,0,0,1.673-1.673v-.579h3.184a.954.954,0,0,0,.911-.666l1.947-6.109a.956.956,0,1,0-1.822-.581l-1.734,5.443H16.241v-.578a1.675,1.675,0,0,0-1.673-1.673H6.026a1.676,1.676,0,0,0-1.674,1.673v3.069A1.676,1.676,0,0,0,6.026,43.9ZM41.02,15.565h8.065v2.591H41.02ZM32.2,22.853a.944.944,0,0,0,.5.145.954.954,0,0,0,.813-.452l2.942-4.73h2.654V18.4a1.675,1.675,0,0,0,1.673,1.673h8.542A1.675,1.675,0,0,0,51,18.4V15.326a1.675,1.675,0,0,0-1.673-1.673H40.781a1.675,1.675,0,0,0-1.673,1.673V15.9H35.922a.958.958,0,0,0-.812.451l-3.222,5.181A.957.957,0,0,0,32.2,22.853ZM22.9,24.4a3,3,0,0,1-.105,2.516,10.531,10.531,0,0,0-3.9-3.668.956.956,0,0,0-.852,1.712,8.718,8.718,0,0,1,3.232,3.12,4.278,4.278,0,0,1-3.212.2c-1.519-.7-2.135-3.105-2.729-5.427a21.518,21.518,0,0,0-1.147-3.62c5.291.9,7.995,3.253,8.717,5.167Zm5.2,4.871c.924-1.823,3.867-3.869,9.225-4.191A21.407,21.407,0,0,0,35.8,28.556c-.844,2.244-1.715,4.564-3.3,5.1a4.316,4.316,0,0,1-3.214-.571,9.827,9.827,0,0,1,3.593-2.729.956.956,0,0,0-.661-1.794,11.688,11.688,0,0,0-4.287,3.2,3,3,0,0,1,.178-2.487ZM11.531,18.789a.956.956,0,0,1,.635-1.732c7.619.631,11.467,3.859,12.527,6.669a4.939,4.939,0,0,1-.83,5.02,24.518,24.518,0,0,1,2,5.729c.24-.375.49-.742.751-1.1a4.926,4.926,0,0,1-.21-4.97c1.357-2.678,5.535-5.473,13.175-5.272a.955.955,0,0,1,.444,1.789c-1.03.577-1.743,2.472-2.431,4.3-.953,2.536-2.033,5.412-4.479,6.239a4.431,4.431,0,0,1-1.419.227,7.753,7.753,0,0,1-3.626-1.089,19.293,19.293,0,0,0-1.75,2.961.975.975,0,0,1-.128.277,14.308,14.308,0,0,0-.895,2.548.956.956,0,0,1-.929.733.942.942,0,0,1-.223-.026.956.956,0,0,1-.707-1.153,16.07,16.07,0,0,1,.971-2.792,24.771,24.771,0,0,0-2.174-7.391,8.317,8.317,0,0,1-3.027.666,4.565,4.565,0,0,1-1.945-.41c-2.343-1.087-3.106-4.063-3.778-6.689-.487-1.9-.988-3.856-1.951-4.54Zm34,32.028a7.524,7.524,0,1,0-7.524-7.524A7.532,7.532,0,0,0,45.534,50.816Zm0-16.96a9.436,9.436,0,1,0,9.436,9.436,9.446,9.446,0,0,0-9.436-9.436ZM59.3,67.144a1.473,1.473,0,0,1-2.012-.539l-3.67-6.357,2.554-1.474,3.669,6.358A1.475,1.475,0,0,1,59.3,67.144Zm-4.7-11.08.609,1.054-2.552,1.474-.609-1.054Zm-2.488-2.2.618,1.07-.723.417L51.4,54.285Q51.767,54.088,52.122,53.867ZM34.986,43.292A10.55,10.55,0,1,0,45.534,32.743,10.56,10.56,0,0,0,34.986,43.292Zm5.607,12.653h-24.2L19.041,51.4H36.081a12.545,12.545,0,0,0,3.525,2.848ZM2.909,47.676v-.913H33.565a12.356,12.356,0,0,0,1.161,2.728h-30a1.817,1.817,0,0,1-1.814-1.814ZM4.723,12.5a1.817,1.817,0,0,0-1.814,1.816V44.851H33.17A12.458,12.458,0,0,1,54.08,34.229V14.317A1.818,1.818,0,0,0,52.264,12.5ZM61.5,64.175l-5.614-9.716a1.155,1.155,0,0,0-1.488-.475l-.73-1.26A12.441,12.441,0,0,0,55.99,36.52v-22.2a3.733,3.733,0,0,0-3.727-3.728H4.723A3.731,3.731,0,0,0,1,14.317V47.676A3.731,3.731,0,0,0,4.723,51.4h12.1l-2.546,4.368a1.366,1.366,0,0,0-.008,1.384,1.4,1.4,0,0,0,1.206.7H41.506a1.4,1.4,0,0,0,1.207-.7,1.368,1.368,0,0,0-.008-1.384l-.233-.4a12.493,12.493,0,0,0,7.166-.314l.724,1.255a1.164,1.164,0,0,0-.336,1.53l5.609,9.717A3.387,3.387,0,0,0,61.5,64.175Z" transform="translate(-0.996 -10.589)" fill-rule="evenodd"/>
      </g>
    </g>
  </g>
</svg>
