<svg xmlns="http://www.w3.org/2000/svg" xmlns:xlink="http://www.w3.org/1999/xlink" width="136" height="136" viewBox="0 0 136 136">
  <defs>
    <filter id="Ellipse_12622" x="0" y="0" width="136" height="136" filterUnits="userSpaceOnUse">
      <feOffset dy="3" input="SourceAlpha"/>
      <feGaussianBlur stdDeviation="3" result="blur"/>
      <feFlood flood-opacity="0.161"/>
      <feComposite operator="in" in2="blur"/>
      <feComposite in="SourceGraphic"/>
    </filter>
  </defs>
  <g id="Group_1112238" data-name="Group 1112238" transform="translate(4166.082 6533.324)">
    <g id="Group_1113125" data-name="Group 1113125">
      <g transform="matrix(1, 0, 0, 1, -4166.08, -6533.32)" filter="url(#Ellipse_12622)">
        <circle id="Ellipse_12622-2" data-name="Ellipse 12622" cx="59" cy="59" r="59" transform="translate(9 6)" fill="#fff"/>
      </g>
      <g id="camion-de-reparto" transform="translate(-4129.752 -6499.995)">
        <g id="Group_1111753" data-name="Group 1111753" transform="translate(0.928 50.166)">
          <path id="Path_904231" data-name="Path 904231" d="M7.5,405.5v5.117a1.237,1.237,0,0,0,1.237,1.237H45.569V405.5Z" transform="translate(-7.5 -405.501)" fill="#9bb9c3"/>
        </g>
        <g id="Group_1111754" data-name="Group 1111754" transform="translate(0.928 50.166)">
          <path id="Path_904232" data-name="Path 904232" d="M11.732,410.619V405.5H7.5v5.117a1.237,1.237,0,0,0,1.237,1.237h4.232A1.237,1.237,0,0,1,11.732,410.619Z" transform="translate(-7.5 -405.502)" fill="#87a0af"/>
        </g>
        <g id="Group_1111755" data-name="Group 1111755" transform="translate(0.928 18.15)">
          <path id="Path_904233" data-name="Path 904233" d="M7.5,180.585H45.569l3.157-16.247-3.157-9.561v-6.832a1.237,1.237,0,0,0-1.237-1.237H8.737A1.237,1.237,0,0,0,7.5,147.945Z" transform="translate(-7.5 -146.708)" fill="#e2ae83"/>
        </g>
        <g id="Group_1111756" data-name="Group 1111756" transform="translate(27.976 18.15)">
          <path id="Path_904234" data-name="Path 904234" d="M235.917,146.708h-9.784v4.206a3.71,3.71,0,0,0,6.158,2.791l2.8-2.459a.364.364,0,0,1,.24-.091h1.819v-3.209A1.237,1.237,0,0,0,235.917,146.708Z" transform="translate(-226.133 -146.708)" fill="#d39c72"/>
        </g>
        <g id="Group_1111757" data-name="Group 1111757" transform="translate(0.928 18.15)">
          <path id="Path_904235" data-name="Path 904235" d="M12.969,146.708H8.737A1.237,1.237,0,0,0,7.5,147.945v32.64h4.232v-32.64A1.237,1.237,0,0,1,12.969,146.708Z" transform="translate(-7.5 -146.708)" fill="#d39c72"/>
        </g>
        <g id="Group_1111758" data-name="Group 1111758" transform="translate(38.997 50.166)">
          <path id="Path_904236" data-name="Path 904236" d="M315.22,405.5v6.354H337.4a1.237,1.237,0,0,0,1.237-1.237V405.5Z" transform="translate(-315.22 -405.501)" fill="#9bb9c3"/>
        </g>
        <g id="Group_1111759" data-name="Group 1111759" transform="translate(38.997 50.166)">
          <path id="Path_904237" data-name="Path 904237" d="M315.22,405.5H319v6.354H315.22Z" transform="translate(-315.22 -405.501)" fill="#87a0af"/>
        </g>
        <g id="Group_1111760" data-name="Group 1111760" transform="translate(38.997 26.219)">
          <path id="Path_904238" data-name="Path 904238" d="M338.332,224.332l-10.438-11.975a1.237,1.237,0,0,0-.933-.424h-10.5a1.237,1.237,0,0,0-1.237,1.237v24.571h23.417v-12.6A1.237,1.237,0,0,0,338.332,224.332Z" transform="translate(-315.22 -211.933)" fill="#dc4955"/>
        </g>
        <g id="Group_1111761" data-name="Group 1111761" transform="translate(38.997 26.219)">
          <path id="Path_904239" data-name="Path 904239" d="M320.24,211.933h-3.783a1.237,1.237,0,0,0-1.237,1.237v24.571H319V213.17A1.237,1.237,0,0,1,320.24,211.933Z" transform="translate(-315.22 -211.933)" fill="#c42430"/>
        </g>
        <g id="Group_1111762" data-name="Group 1111762" transform="translate(42.78 30.55)">
          <path id="Path_904240" data-name="Path 904240" d="M345.8,256.782v-9.223a.619.619,0,0,1,.619-.619h5.371a.618.618,0,0,1,.466.212l7.285,8.358a.618.618,0,0,1,.152.406v.865a.619.619,0,0,1-.619.619H346.415A.619.619,0,0,1,345.8,256.782Z" transform="translate(-345.796 -246.94)" fill="#7398d4"/>
        </g>
        <g id="Group_1111763" data-name="Group 1111763" transform="translate(44.451 50.627)">
          <path id="Path_904241" data-name="Path 904241" d="M365.2,421.011a5.893,5.893,0,1,1,5.893-5.893A5.893,5.893,0,0,1,365.2,421.011Z" transform="translate(-359.306 -409.224)" fill="#495959"/>
        </g>
        <g id="Group_1111764" data-name="Group 1111764" transform="translate(48.073 54.248)">
          <path id="Path_904242" data-name="Path 904242" d="M390.854,438.5a2.272,2.272,0,1,0,2.272,2.272A2.272,2.272,0,0,0,390.854,438.5Z" transform="translate(-388.582 -438.5)" fill="#f1f6f7"/>
        </g>
        <g id="Group_1111765" data-name="Group 1111765" transform="translate(56.672 44.722)">
          <path id="Path_904243" data-name="Path 904243" d="M458.713,365.093h5.122V361.5h-5.122a.619.619,0,0,0-.619.619v2.355A.619.619,0,0,0,458.713,365.093Z" transform="translate(-458.094 -361.5)" fill="#ffe17d"/>
        </g>
        <g id="Group_1111766" data-name="Group 1111766" transform="translate(16.509 18.15)">
          <path id="Path_904244" data-name="Path 904244" d="M139.349,155.733l-1.966-1.542a.619.619,0,0,0-.747-.012l-2.21,1.619a.619.619,0,0,1-.984-.5v-8.589h6.908v8.538A.619.619,0,0,1,139.349,155.733Z" transform="translate(-133.442 -146.708)" fill="#dc4955"/>
        </g>
        <g id="Group_1111767" data-name="Group 1111767" transform="translate(31.069 0.928)">
          <path id="Path_904245" data-name="Path 904245" d="M269.839,26.075h-12.6a3.457,3.457,0,0,0-2.279.858l-2.8,2.459a.619.619,0,0,1-1.026-.465V10.977A3.471,3.471,0,0,1,254.6,7.5h15.242a3.471,3.471,0,0,1,3.464,3.477V22.6A3.471,3.471,0,0,1,269.839,26.075Z" transform="translate(-251.133 -7.5)" fill="#ffe17d"/>
        </g>
        <g id="Group_1111768" data-name="Group 1111768" transform="translate(31.069 0.928)">
          <path id="Path_904246" data-name="Path 904246" d="M254.174,10.977A3.471,3.471,0,0,1,257.638,7.5H254.6a3.471,3.471,0,0,0-3.464,3.477V28.928a.619.619,0,0,0,1.026.465l2.015-1.766Z" transform="translate(-251.133 -7.5)" fill="#ffd164"/>
        </g>
        <g id="Group_1111769" data-name="Group 1111769" transform="translate(37.04 5.414)">
          <path id="Path_904247" data-name="Path 904247" d="M304.341,52.124l-2.586,1.359a.371.371,0,0,1-.539-.391l.494-2.879a.371.371,0,0,0-.107-.328l-2.092-2.039a.371.371,0,0,1,.206-.633l2.891-.42a.371.371,0,0,0,.279-.2l1.293-2.62a.371.371,0,0,1,.666,0l1.293,2.62a.371.371,0,0,0,.279.2l2.891.42a.371.371,0,0,1,.206.633l-2.092,2.039a.371.371,0,0,0-.107.328l.494,2.879a.371.371,0,0,1-.539.391l-2.586-1.359a.372.372,0,0,0-.346,0Z" transform="translate(-299.4 -43.764)" fill="#f1f6f7"/>
        </g>
        <g id="Group_1111770" data-name="Group 1111770" transform="translate(7.613 35.906)">
          <path id="Path_904248" data-name="Path 904248" d="M82.609,299.9H74.563a.619.619,0,0,1-.619-.619v-5.952a3.093,3.093,0,0,0-3.093-3.093H69.069a.619.619,0,0,0-.619.619v6.593a3.956,3.956,0,0,1-.2,1.255l-.026.077a3.959,3.959,0,0,1-3.755,2.7H62.16a.619.619,0,0,0-.619.619v13.589a.619.619,0,0,0,.619.619H80.219a2.051,2.051,0,0,0,0-4.1h.72a2.1,2.1,0,0,0,2.1-2.091,2.051,2.051,0,0,0-2.051-2.012h.775a2.1,2.1,0,0,0,2.1-2.091A2.051,2.051,0,0,0,81.821,304h.788a2.051,2.051,0,0,0,0-4.1Z" transform="translate(-61.541 -290.239)" fill="#ffcebf"/>
        </g>
        <g id="Group_1111771" data-name="Group 1111771" transform="translate(7.613 35.906)">
          <path id="Path_904249" data-name="Path 904249" d="M65.512,315.695V302.105a.619.619,0,0,1,.619-.619H67.2a3.959,3.959,0,0,0,3.755-2.7l.026-.077a3.96,3.96,0,0,0,.2-1.255v-6.593a.616.616,0,0,1,.333-.546,3.1,3.1,0,0,0-.666-.073H69.068a.619.619,0,0,0-.619.619v6.593a3.956,3.956,0,0,1-.2,1.255l-.026.077a3.959,3.959,0,0,1-3.755,2.7H62.159a.619.619,0,0,0-.619.619v13.589a.619.619,0,0,0,.619.619H66.13A.619.619,0,0,1,65.512,315.695Z" transform="translate(-61.54 -290.239)" fill="#ffb09e"/>
        </g>
        <g id="Group_1111772" data-name="Group 1111772" transform="translate(0.928 44.337)">
          <path id="Path_904250" data-name="Path 904250" d="M15.624,359.619v16.407H8.119a.619.619,0,0,1-.619-.619V359a.619.619,0,0,1,.619-.619h6.268A1.237,1.237,0,0,1,15.624,359.619Z" transform="translate(-7.5 -358.382)" fill="#7398d4"/>
        </g>
        <g id="Group_1111773" data-name="Group 1111773" transform="translate(0.928 44.337)">
          <path id="Path_904251" data-name="Path 904251" d="M10.433,375.407V359a.619.619,0,0,1,.619-.619H8.119A.619.619,0,0,0,7.5,359v16.407a.619.619,0,0,0,.619.619h2.933A.619.619,0,0,1,10.433,375.407Z" transform="translate(-7.5 -358.382)" fill="#4377c4"/>
        </g>
        <g id="Group_1111774" data-name="Group 1111774" transform="translate(0 0)">
          <path id="Path_904252" data-name="Path 904252" d="M.928,163.516a.928.928,0,0,0,.928-.928V141.372a.31.31,0,0,1,.309-.309H15.581V148.7a1.545,1.545,0,0,0,2.48,1.233l1.9-1.441,1.9,1.441a1.546,1.546,0,0,0,2.48-1.233v-7.637h2.672a.928.928,0,1,0,0-1.856H2.165A2.168,2.168,0,0,0,0,141.372v21.216A.928.928,0,0,0,.928,163.516Zm21.561-15.439L20.9,146.871a1.552,1.552,0,0,0-1.867,0l-1.592,1.206v-7.014h5.052Z" transform="translate(0 -121.985)"/>
          <path id="Path_904253" data-name="Path 904253" d="M62.808,38.009h0L52.371,26.034a2.164,2.164,0,0,0-1.632-.743H39.925v-4.86h9.85a4.4,4.4,0,0,0,4.392-4.4v-5.7a.928.928,0,1,0-1.856,0v5.7a2.546,2.546,0,0,1-2.536,2.549h-12.6a4.383,4.383,0,0,0-2.891,1.088L32,21.673V4.4a2.546,2.546,0,0,1,2.536-2.549H49.775A2.546,2.546,0,0,1,52.311,4.4V5.933a.928.928,0,1,0,1.856,0V4.4A4.4,4.4,0,0,0,49.775,0H34.533a4.4,4.4,0,0,0-4.392,4.4V22.356a1.53,1.53,0,0,0,.908,1.408,1.556,1.556,0,0,0,.644.141,1.534,1.534,0,0,0,1.014-.386l2.8-2.459a2.528,2.528,0,0,1,1.667-.628h.891V51.1H34.556a.928.928,0,1,0,0,1.856h3.513v2.637H30.034a2.95,2.95,0,0,0-.491-1.412,3.05,3.05,0,0,0,.477-.4,2.932,2.932,0,0,0,.349-3.71,2.978,2.978,0,0,0-1.688-5.433H20.945V39a4.025,4.025,0,0,0-4.021-4.021H15.141a1.548,1.548,0,0,0-1.546,1.546v6.593a3.024,3.024,0,0,1-.156.961l-.026.077a3.028,3.028,0,0,1-2.875,2.07H9.979v-.653a2.168,2.168,0,0,0-2.165-2.165H1.546A1.548,1.548,0,0,0,0,44.956V61.362a1.548,1.548,0,0,0,1.546,1.546H26.291a2.978,2.978,0,0,0,2.464-4.653,3.043,3.043,0,0,0,.795-.808H43.588a6.82,6.82,0,0,0,13.513,0h4.075a2.168,2.168,0,0,0,2.165-2.165V39.431a2.165,2.165,0,0,0-.533-1.422ZM8.124,61.053H1.856V45.265H7.815a.31.31,0,0,1,.309.309ZM28.682,48.744H22.466a.928.928,0,0,0,0,1.856h5.428a1.129,1.129,0,0,1,1.123,1.1,1.085,1.085,0,0,1-.321.783,1.208,1.208,0,0,1-.856.363H22.466a.928.928,0,1,0,0,1.856h4.6a1.129,1.129,0,0,1,1.123,1.1,1.086,1.086,0,0,1-.321.783,1.208,1.208,0,0,1-.856.363H22.466a.928.928,0,1,0,0,1.856h3.824a1.124,1.124,0,1,1,0,2.247H9.979V48.082h.559a4.881,4.881,0,0,0,4.635-3.338l.026-.077a4.874,4.874,0,0,0,.252-1.549V36.834h1.474A2.168,2.168,0,0,1,19.089,39v5.952A1.548,1.548,0,0,0,20.636,46.5h8.046a1.124,1.124,0,1,1,0,2.247Zm14.906,6.848H39.925V52.955h4.607a6.774,6.774,0,0,0-.944,2.637Zm6.756,5.894A4.966,4.966,0,1,1,55.31,56.52,4.971,4.971,0,0,1,50.344,61.486Zm11.141-6.2a.31.31,0,0,1-.309.309H57.1a6.773,6.773,0,0,0-.944-2.637h5.328Zm0-7.9H57.6V45.65h3.885Zm0-3.593H57.291a1.548,1.548,0,0,0-1.546,1.546V47.7a1.548,1.548,0,0,0,1.546,1.546h4.195V51.1H54.478a6.8,6.8,0,0,0-8.268,0H39.925V27.456a.31.31,0,0,1,.309-.309h10.5a.309.309,0,0,1,.233.106L61.41,39.228a.309.309,0,0,1,.076.2Z" transform="translate(0 0)"/>
          <path id="Path_904254" data-name="Path 904254" d="M339.841,251.755H352.5a1.548,1.548,0,0,0,1.546-1.546v-.865a1.547,1.547,0,0,0-.381-1.016l-7.285-8.358a1.546,1.546,0,0,0-1.166-.53H339.84a1.548,1.548,0,0,0-1.546,1.546v9.223A1.548,1.548,0,0,0,339.841,251.755Zm.309-10.46h4.921l7.116,8.164v.44H340.15Z" transform="translate(-296.442 -209.817)"/>
          <path id="Path_904255" data-name="Path 904255" d="M339.223,356.856h2a.928.928,0,0,0,0-1.856h-2a.928.928,0,0,0,0,1.856Z" transform="translate(-296.443 -311.082)"/>
          <path id="Path_904256" data-name="Path 904256" d="M384.281,431a3.2,3.2,0,1,0,3.2,3.2A3.2,3.2,0,0,0,384.281,431Zm0,4.543a1.344,1.344,0,1,1,1.344-1.344A1.345,1.345,0,0,1,384.281,435.543Z" transform="translate(-333.937 -377.68)"/>
          <path id="Path_904257" data-name="Path 904257" d="M303.914,40.606a1.291,1.291,0,0,0-1.049-.884l-2.6-.378L299.1,36.987a1.3,1.3,0,0,0-2.33,0l-1.163,2.357-2.6.378a1.3,1.3,0,0,0-.719,2.216l1.882,1.835-.444,2.591a1.3,1.3,0,0,0,1.885,1.37l2.327-1.223,2.326,1.223a1.3,1.3,0,0,0,1.885-1.37l-.444-2.591,1.882-1.835A1.291,1.291,0,0,0,303.914,40.606ZM300.2,42.648a1.3,1.3,0,0,0-.374,1.15l.3,1.767-1.587-.835a1.3,1.3,0,0,0-1.208,0h0l-1.587.834.3-1.768a1.3,1.3,0,0,0-.374-1.15L294.39,41.4l1.775-.258a1.3,1.3,0,0,0,.977-.711l.794-1.608.793,1.607a1.3,1.3,0,0,0,.978.711l1.774.258Z" transform="translate(-255.783 -31.777)"/>
        </g>
      </g>
    </g>
  </g>
</svg>
