<svg id="ambiental_1_" data-name="ambiental (1)" xmlns="http://www.w3.org/2000/svg" width="101.056" height="103.667" viewBox="0 0 101.056 103.667">
  <g id="Group_1112257" data-name="Group 1112257" transform="translate(1.619 1.62)">
    <path id="Path_908857" data-name="Path 908857" d="M171.309,66.216a26.713,26.713,0,0,0,6.664-2.764,1.6,1.6,0,0,1,1.571-.045l3.884,1.978a1.618,1.618,0,0,0,1.905-.306l3.938-3.932a1.626,1.626,0,0,0,.3-1.911l-1.978-3.877a1.61,1.61,0,0,1,.045-1.577,26.321,26.321,0,0,0,2.764-6.664,1.606,1.606,0,0,1,1.081-1.142l4.139-1.348a1.615,1.615,0,0,0,1.136-1.559V37.5a1.618,1.618,0,0,0-1.136-1.559L191.484,34.6a1.607,1.607,0,0,1-1.081-1.148,26.488,26.488,0,0,0-2.764-6.664,1.6,1.6,0,0,1-.045-1.571l1.978-3.884a1.614,1.614,0,0,0-.3-1.905l-3.938-3.938a1.617,1.617,0,0,0-1.905-.3l-3.884,1.978a1.6,1.6,0,0,1-1.571-.045,26.413,26.413,0,0,0-6.664-2.764,1.614,1.614,0,0,1-1.148-1.081l-1.342-4.139A1.618,1.618,0,0,0,167.259,8h-5.57a1.613,1.613,0,0,0-1.559,1.136l-1.348,4.139a1.61,1.61,0,0,1-1.142,1.081,26.278,26.278,0,0,0-6.664,2.764,1.61,1.61,0,0,1-1.577.045l-3.877-1.978a1.623,1.623,0,0,0-1.911.3l-3.932,3.938a1.615,1.615,0,0,0-.306,1.905l1.978,3.884a1.6,1.6,0,0,1-.045,1.571,26.789,26.789,0,0,0-2.764,6.664A1.6,1.6,0,0,1,137.46,34.6l-4.139,1.342A1.622,1.622,0,0,0,132.19,37.5v5.57a1.614,1.614,0,0,0,1.132,1.559l4.139,1.348a1.6,1.6,0,0,1,1.081,1.142,26.651,26.651,0,0,0,2.764,6.664,1.61,1.61,0,0,1,.045,1.577l-1.978,3.877a1.627,1.627,0,0,0,.306,1.911l3.932,3.932a1.624,1.624,0,0,0,1.911.306l3.877-1.978a1.61,1.61,0,0,1,1.577.045,26.694,26.694,0,0,0,6.664,2.764,1.587,1.587,0,0,1,1.142,1.081l1.348,4.139a1.619,1.619,0,0,0,1.559,1.132h5.57a1.62,1.62,0,0,0,1.559-1.132l1.342-4.139A1.6,1.6,0,0,1,171.309,66.216Z" transform="translate(-108.35 -8)" fill="#2f5274" fill-rule="evenodd"/>
    <path id="Path_908858" data-name="Path 908858" d="M209.326,64.24a20.9,20.9,0,1,1-20.9,20.9,20.9,20.9,0,0,1,20.9-20.9Z" transform="translate(-153.203 -52.853)" fill="#daeafa" fill-rule="evenodd"/>
    <path id="Path_908859" data-name="Path 908859" d="M306.866,176.7c-.636,3.639-2.63,6.6-5.7,7.832s-6.562.484-9.533-1.7c.63-3.632,2.63-6.591,5.7-7.828S303.892,174.516,306.866,176.7Z" transform="translate(-235.507 -140.713)" fill="#70da40" fill-rule="evenodd"/>
    <path id="Path_908860" data-name="Path 908860" d="M216.38,176.7c.636,3.639,2.63,6.6,5.7,7.832s6.562.484,9.537-1.7c-.636-3.632-2.63-6.591-5.7-7.828S219.356,174.516,216.38,176.7Z" transform="translate(-175.494 -140.713)" fill="#70da40" fill-rule="evenodd"/>
    <path id="Path_908861" data-name="Path 908861" d="M90.79,346.658l29.426-16.016a5.056,5.056,0,1,0-4.835-8.881l-15.2,8.267a5.07,5.07,0,0,0-3.464-4.189q-8.7-2.8-17.4-5.6A16.612,16.612,0,0,0,65.842,321.5L48,331.209l10.262,18.847,6.657-3.62a12.026,12.026,0,0,1,9.755-.913l6.362,2.049A12.028,12.028,0,0,0,90.79,346.658Z" transform="translate(-41.207 -256.319)" fill="#fbbd80" fill-rule="evenodd"/>
    <path id="Path_908862" data-name="Path 908862" d="M55.04,358.94,48,362.773,58.262,381.62,64.919,378c.283-.156.569-.3.852-.429Z" transform="translate(-41.207 -287.883)" fill="#e2aa73" fill-rule="evenodd"/>
    <path id="Path_908863" data-name="Path 908863" d="M14.625,351.375,29.4,377.019a1.327,1.327,0,0,0,1.8.49l6.568-3.782a1.332,1.332,0,0,0,.484-1.8l-14.773-25.65a1.325,1.325,0,0,0-1.8-.484l-6.562,3.782A1.325,1.325,0,0,0,14.625,351.375Z" transform="translate(-14.451 -277.254)" fill="#0593fc" fill-rule="evenodd"/>
    <path id="Path_908864" data-name="Path 908864" d="M398.74,134.74a11.13,11.13,0,1,0-11.13-11.13A11.151,11.151,0,0,0,398.74,134.74Z" transform="translate(-312.054 -91.325)" fill="#70da40" fill-rule="evenodd"/>
    <path id="Path_908865" data-name="Path 908865" d="M271.4,87.05c3.13,1.94,5.131,4.9,5.131,8.212s-2,6.267-5.131,8.212c-3.136-1.944-5.137-4.9-5.137-8.212S268.26,88.988,271.4,87.05Z" transform="translate(-215.274 -71.044)" fill="#70da40" fill-rule="evenodd"/>
    <path id="Path_908866" data-name="Path 908866" d="M192.54,85.128a20.9,20.9,0,0,1,18.841-20.8c-.68-.061-1.365-.1-2.055-.1a20.9,20.9,0,0,0-1.62,41.731v-.735a20.9,20.9,0,0,1-15.166-20.1Z" transform="translate(-153.203 -52.845)" fill="#c4d3e1" fill-rule="evenodd"/>
    <path id="Path_908867" data-name="Path 908867" d="M223.706,184.53c-3.076-1.237-5.07-4.2-5.7-7.832a11.345,11.345,0,0,1,5.615-2.252,10.647,10.647,0,0,0-7.237,2.252c.636,3.639,2.63,6.6,5.7,7.832a8.366,8.366,0,0,0,3.922.557A8.418,8.418,0,0,1,223.706,184.53Z" transform="translate(-175.494 -140.714)" fill="#65c43a" fill-rule="evenodd"/>
    <path id="Path_908868" data-name="Path 908868" d="M303.718,175.006a8.6,8.6,0,0,0-4.078,3.487v4.341c.636-3.632,2.63-6.6,5.7-7.828a8.067,8.067,0,0,1,2.3-.557A8.34,8.34,0,0,0,303.718,175.006Z" transform="translate(-241.896 -140.716)" fill="#65c43a" fill-rule="evenodd"/>
    <path id="Path_908869" data-name="Path 908869" d="M305.255,218.266a11.386,11.386,0,0,1-5.615-2.256v1.02A10.048,10.048,0,0,0,305.255,218.266Z" transform="translate(-241.896 -173.893)" fill="#65c43a" fill-rule="evenodd"/>
    <path id="Path_908870" data-name="Path 908870" d="M269.777,100.642a8.746,8.746,0,0,1-1.934-5.382,9.582,9.582,0,0,1,4.345-7.682c-.257-.184-.518-.362-.792-.528-3.136,1.94-5.137,4.9-5.137,8.212a9.281,9.281,0,0,0,3.515,7.03,13.709,13.709,0,0,0,1.622,1.18c.273-.172.535-.346.792-.535A11.858,11.858,0,0,1,269.777,100.642Z" transform="translate(-215.274 -71.044)" fill="#65c43a" fill-rule="evenodd"/>
    <path id="Path_908871" data-name="Path 908871" d="M390.147,123.592A11.141,11.141,0,0,1,400,112.533a10.529,10.529,0,0,0-1.27-.073,11.05,11.05,0,0,0-5.544,1.476,11.123,11.123,0,0,0,0,19.308,11.044,11.044,0,0,0,5.544,1.476,10.531,10.531,0,0,0,1.27-.073,11.128,11.128,0,0,1-9.855-11.055Z" transform="translate(-312.046 -91.309)" fill="#65c43a" fill-rule="evenodd"/>
  </g>
  <path id="Path_908872" data-name="Path 908872" d="M86.55,65.107a6.628,6.628,0,0,0-5.084.533L67.995,72.973A6.668,6.668,0,0,0,64.077,69.6l-8.7-2.8q-4.349-1.4-8.7-2.8a18.108,18.108,0,0,0-14.746,1.381L19.755,72.007,18.5,69.828a2.957,2.957,0,0,0-4.015-1.077L7.908,72.54a2.95,2.95,0,0,0-1.065,4.007L21.613,102.2a2.954,2.954,0,0,0,4.015,1.075L32.2,99.489a2.959,2.959,0,0,0,1.065-4.011l-1.189-2.063.47-.255a10.434,10.434,0,0,1,8.484-.8l6.36,2.049a14.285,14.285,0,0,0,4.406.719,13.693,13.693,0,0,0,6.621-1.749L87.844,77.367a6.672,6.672,0,0,0-1.294-12.26ZM24.27,100.328,9.8,75.19l6.05-3.485,1.865,3.24.006.012a.2.2,0,0,0,.022.034L30.322,96.841ZM87.951,72.473a3.424,3.424,0,0,1-1.65,2.051L56.879,90.538a10.44,10.44,0,0,1-8.488.794l-6.362-2.049A13.567,13.567,0,0,0,31,90.319l-.537.292-9.1-15.8,12.112-6.589a14.99,14.99,0,0,1,12.205-1.142l8.7,2.8,8.7,2.8a3.44,3.44,0,1,1-2.106,6.55q-3.693-1.188-7.382-2.379T46.21,74.475a1.619,1.619,0,0,0-.992,3.082q3.693,1.188,7.382,2.379t7.386,2.379A6.674,6.674,0,0,0,68.7,76.277l14.315-7.793a3.433,3.433,0,0,1,4.936,3.989Zm6.8-51.316a12.677,12.677,0,0,0-4.714.907c-.385-.836-.812-1.662-1.28-2.47a.06.06,0,0,1-.008-.016s0-.006,0-.01l1.97-3.869a3.242,3.242,0,0,0-.591-3.794L86.2,7.965a3.265,3.265,0,0,0-3.792-.6L78.532,9.342a.035.035,0,0,1-.014.006s-.008,0-.012-.006a28.38,28.38,0,0,0-7.077-2.936h0s0-.008,0-.012L70.072,2.258A3.25,3.25,0,0,0,66.974,0H61.406a3.253,3.253,0,0,0-3.1,2.256L56.962,6.4s0,0,0,.006l-.02.006A28.366,28.366,0,0,0,49.877,9.34l-.014.008-.01,0-3.882-1.98a3.253,3.253,0,0,0-3.784.6l-3.93,3.93a3.246,3.246,0,0,0-.609,3.79l1.976,3.881a.1.1,0,0,0,.006.014s0,0,0,.006a28.264,28.264,0,0,0-2.93,7.081.083.083,0,0,1-.018.008l-4.139,1.342a3.253,3.253,0,0,0-2.256,3.1v5.568a3.257,3.257,0,0,0,2.256,3.106l4.137,1.342a.029.029,0,0,0,.012,0l0,.012a28.371,28.371,0,0,0,2.928,7.056l.01.018s0,.01-.008.02l-1.974,3.879a3.242,3.242,0,0,0,.6,3.784l3.938,3.938a3.255,3.255,0,0,0,3.786.6l3.873-1.978a.035.035,0,0,1,.014-.006l.01.006A28.1,28.1,0,0,0,56.934,61.4c.01,0,.018.006.022.006a.1.1,0,0,1,.006.014L58.3,65.558a3.251,3.251,0,0,0,3.1,2.25h5.568a3.249,3.249,0,0,0,3.1-2.248l1.351-4.143a.1.1,0,0,1,.006-.014s0,0,.008,0a28.152,28.152,0,0,0,7.073-2.93s.006,0,.008,0,.006,0,.01,0l3.888,1.984A3.262,3.262,0,0,0,86.2,59.85l3.938-3.938a3.239,3.239,0,0,0,.6-3.784l-1.976-3.881-.006-.012a.12.12,0,0,1,.008-.016c.466-.8.889-1.626,1.276-2.47a12.749,12.749,0,1,0,4.716-24.591ZM85.872,49.716,87.846,53.6s0,.024,0,.026L83.908,57.56c-.008.008-.014.012-.012.012a.06.06,0,0,1-.018-.006l-3.886-1.982a3.21,3.21,0,0,0-3.12.093,24.9,24.9,0,0,1-6.265,2.594,3.211,3.211,0,0,0-2.262,2.146L67,64.566a.09.09,0,0,1-.024,0H61.406c-.016,0-.024,0-.022-.012l-1.342-4.137a3.22,3.22,0,0,0-2.278-2.152,24.844,24.844,0,0,1-6.255-2.592,3.206,3.206,0,0,0-3.126-.091L44.5,57.57a.05.05,0,0,1-.016-.012l-3.95-3.944a.049.049,0,0,1,.008-.02l1.974-3.877a3.23,3.23,0,0,0-.085-3.132,25.054,25.054,0,0,1-2.6-6.25,3.2,3.2,0,0,0-2.146-2.278l-4.137-1.342c-.008,0-.014-.006-.016-.006a.211.211,0,0,1,0-.022l0-5.58a.14.14,0,0,1,.02-.01l4.141-1.344a3.2,3.2,0,0,0,2.142-2.272,25.16,25.16,0,0,1,2.6-6.265,3.205,3.205,0,0,0,.083-3.12l-1.974-3.879c0-.006,0-.01-.006-.012a.122.122,0,0,1,.012-.014l3.938-3.938c.01-.01.016-.012.024-.006L48.4,12.226a3.216,3.216,0,0,0,3.12-.093,25.054,25.054,0,0,1,6.25-2.6A3.194,3.194,0,0,0,60.05,7.39l1.342-4.139c0-.016.01-.02.022-.018l5.58,0a.123.123,0,0,1,.01.022l1.346,4.135a3.188,3.188,0,0,0,2.268,2.146,25.1,25.1,0,0,1,6.271,2.606A3.225,3.225,0,0,0,80,12.226l3.873-1.976c.014-.008.022-.008.022-.01a.043.043,0,0,1,.016.012l3.948,3.94-1.984,3.9a3.183,3.183,0,0,0,.087,3.12,26.1,26.1,0,0,1,1.239,2.428,12.811,12.811,0,0,0-2.09,1.938,22.516,22.516,0,1,0,0,16.644,12.823,12.823,0,0,0,2.09,1.94,25.786,25.786,0,0,1-1.233,2.416,3.2,3.2,0,0,0-.1,3.138ZM64.19,32.091a7.93,7.93,0,0,1-3.519-6.257,7.914,7.914,0,0,1,3.519-6.253,7.92,7.92,0,0,1,3.519,6.253A7.941,7.941,0,0,1,64.19,32.091ZM65.808,46.56a11.588,11.588,0,0,0,4.8,1.093,9.888,9.888,0,0,0,3.711-.715c3.493-1.4,5.935-4.7,6.7-9.051a1.616,1.616,0,0,0-.638-1.585c-3.556-2.61-7.6-3.3-11.1-1.9A9.954,9.954,0,0,0,65.8,36.776V34.915a11.186,11.186,0,0,0,5.137-9.081c0-3.768-2.152-7.261-5.9-9.583a1.617,1.617,0,0,0-1.7,0c-3.752,2.322-5.9,5.815-5.9,9.583a11.189,11.189,0,0,0,5.137,9.081V36.77A10,10,0,0,0,59.088,34.4C55.593,33,51.55,33.692,47.994,36.3a1.617,1.617,0,0,0-.638,1.581c.755,4.349,3.2,7.648,6.688,9.053a9.878,9.878,0,0,0,3.715.717,11.617,11.617,0,0,0,4.8-1.091v6.556A19.277,19.277,0,1,1,82.887,29.24a12.7,12.7,0,0,0,0,9.332A19.405,19.405,0,0,1,65.8,53.114V46.56Zm.2-3.553a7.324,7.324,0,0,1,11.608-4.669,7.323,7.323,0,0,1-11.608,4.669Zm-3.63,0a7.912,7.912,0,0,1-7.115.927,7.919,7.919,0,0,1-4.489-5.6,7.932,7.932,0,0,1,7.113-.929A7.932,7.932,0,0,1,62.376,43.006Zm32.376.413a9.513,9.513,0,1,1,9.516-9.516A9.524,9.524,0,0,1,94.752,43.419Zm6.8-11.93-7.123,7.123a1.616,1.616,0,0,1-2.288,0l-4.181-4.183a1.618,1.618,0,0,1,2.29-2.286l3.033,3.037L99.259,29.2a1.619,1.619,0,0,1,2.292,2.288Z" transform="translate(-6.452 0)"/>
</svg>
