<svg id="cascada" xmlns="http://www.w3.org/2000/svg" width="103.664" height="103.725" viewBox="0 0 103.664 103.725">
  <path id="Path_908873" data-name="Path 908873" d="M92.542,28.518a4.577,4.577,0,0,1,.5.028,5.367,5.367,0,0,1,7.5-7.082c0-.082-.006-.164-.006-.247a5.366,5.366,0,1,1,10.334,2.03,5.367,5.367,0,0,1,3.435,10.02,5.366,5.366,0,0,1-7.509,7.655,5.368,5.368,0,0,1-6.621-1.334A5.366,5.366,0,0,1,90.746,37.2a4.528,4.528,0,0,1,1.8-8.684Zm-51.949,0a4.577,4.577,0,0,0-.5.028,5.367,5.367,0,0,0-7.5-7.082c0-.082.006-.164.006-.247a5.366,5.366,0,1,0-10.334,2.03,5.367,5.367,0,0,0-3.435,10.02,5.366,5.366,0,0,0,7.509,7.655,5.368,5.368,0,0,0,6.621-1.334A5.366,5.366,0,0,0,42.388,37.2a4.528,4.528,0,0,0-1.8-8.684Z" transform="translate(-14.736 -14.588)" fill="#9fd3ba" fill-rule="evenodd"/>
  <path id="Path_908874" data-name="Path 908874" d="M16,108.828v76.484H56.662l-4.214-67c-.486-7.736-15.283-10.442-35.39-10.533A1.054,1.054,0,0,0,16,108.828Z" transform="translate(-14.736 -87.143)" fill="#9facba" fill-rule="evenodd"/>
  <path id="Path_908875" data-name="Path 908875" d="M343.674,108.828v76.484H303.012l4.214-67c.486-7.736,15.283-10.442,35.39-10.533a1.054,1.054,0,0,1,1.058,1.053Z" transform="translate(-241.275 -87.143)" fill="#9facba" fill-rule="evenodd"/>
  <path id="Path_908876" data-name="Path 908876" d="M117.134,398.154v14.18a2.111,2.111,0,0,1-2.107,2.107H18.107A2.111,2.111,0,0,1,16,412.334v-14.18c13.037-4.407,30.881-7.126,50.567-7.126S104.1,393.746,117.134,398.154Z" transform="translate(-14.736 -310.716)" fill="#6bd9e7" fill-rule="evenodd"/>
  <path id="Path_908877" data-name="Path 908877" d="M188.988,157.764h28.238v59.518H188.988Z" transform="translate(-151.276 -126.6)" fill="#a6e7f0" fill-rule="evenodd"/>
  <path id="Path_908878" data-name="Path 908878" d="M189.288,419.252a5.528,5.528,0,0,1,4.187,1.911,4.025,4.025,0,1,1,.628,6.374,5.541,5.541,0,0,1-9.055.822,5.543,5.543,0,0,1-10.223,0,5.541,5.541,0,0,1-9.055-.822,4.026,4.026,0,1,1,.628-6.374,5.542,5.542,0,0,1,9.3,1.489,5.54,5.54,0,0,1,8.481,0A5.543,5.543,0,0,1,189.288,419.252Z" transform="translate(-128.104 -332.993)" fill="#d4f2f6" fill-rule="evenodd"/>
  <path id="Path_908879" data-name="Path 908879" d="M101.457,40.94a1.269,1.269,0,0,1-2.537,0V39.154a1.269,1.269,0,0,1,2.537,0Zm0,5.829v11.45a1.269,1.269,0,0,1-2.537,0V46.769a1.269,1.269,0,0,1,2.537,0ZM17.843,78.843V67.393a1.264,1.264,0,1,1,2.527,0v11.45a1.264,1.264,0,1,1-2.527,0Zm0,5.83a1.264,1.264,0,1,1,2.527,0v1.785a1.264,1.264,0,1,1-2.527,0Zm12.171,28.191a1.247,1.247,0,0,1-1.1.651,1.228,1.228,0,0,1-.615-.161c-4.292-2.383-9.4-6.424-9.356-12.144a1.264,1.264,0,1,1,2.527.016c-.03,4.718,5.035,8.238,8.058,9.92A1.266,1.266,0,0,1,30.014,112.864Zm20.368-.348a1.271,1.271,0,0,1-1.506.971c-10.338-2.222-16.76-6.9-16.76-12.214a7.053,7.053,0,0,1,.932-3.468,1.263,1.263,0,0,1,2.21,1.224,4.656,4.656,0,0,0-.614,2.244c0,3.988,5.8,7.813,14.768,9.741a1.27,1.27,0,0,1,.971,1.5ZM90.614,97.806a7.053,7.053,0,0,1,.932,3.468c0,5.311-6.423,9.992-16.76,12.214a1.3,1.3,0,0,1-.268.028,1.264,1.264,0,0,1-.268-2.5c8.97-1.928,14.768-5.753,14.768-9.741A4.656,4.656,0,0,0,88.4,99.03a1.263,1.263,0,0,1,2.21-1.224Zm14.1,3.405c.04,5.72-5.065,9.761-9.356,12.144a1.228,1.228,0,0,1-.615.161,1.265,1.265,0,0,1-.615-2.368c3.023-1.682,8.088-5.2,8.058-9.92a1.264,1.264,0,1,1,2.528-.016ZM70.345,58.3v1.786a1.269,1.269,0,0,1-2.537,0V58.3a1.269,1.269,0,0,1,2.537,0Zm-16.6,18.75v1.786a1.264,1.264,0,1,1-2.527,0V77.046a1.264,1.264,0,1,1,2.527,0ZM63.1,63.439V82.328a1.269,1.269,0,0,1-2.537,0V63.439a1.269,1.269,0,0,1,2.537,0ZM87.809,25.046a3.068,3.068,0,0,1,.357.021,1.263,1.263,0,0,0,1.269-1.837,3.989,3.989,0,0,1-.456-1.879,4.1,4.1,0,0,1,6.185-3.534,1.264,1.264,0,0,0,1.9-1.146v-.189a4.1,4.1,0,1,1,7.9,1.551,1.251,1.251,0,0,0,.178,1.269,1.266,1.266,0,0,0,1.2.457,4.1,4.1,0,0,1,2.627,7.66,1.249,1.249,0,0,0-.644.913,1.214,1.214,0,0,0,.208.92c-9.1.158-16.413.885-21.815,2.171a1.23,1.23,0,0,0-.208-.116,3.263,3.263,0,0,1,1.3-6.26ZM80.871,100.97a2.765,2.765,0,0,0-2.765-2.76,2.736,2.736,0,0,0-1.873.737,1.264,1.264,0,0,1-.932.338,1.291,1.291,0,0,1-.892-.434A4.276,4.276,0,0,0,67.232,100a1.259,1.259,0,0,1-.971.76,1.273,1.273,0,0,1-1.16-.435,4.269,4.269,0,0,0-6.542,0,1.273,1.273,0,0,1-1.16.435,1.29,1.29,0,0,1-.981-.76,4.276,4.276,0,0,0-7.176-1.15,1.25,1.25,0,0,1-.882.434,1.272,1.272,0,0,1-.932-.338A2.76,2.76,0,1,0,47,103.322a1.255,1.255,0,0,1,1.754.449,4.284,4.284,0,0,0,7,.634,1.249,1.249,0,0,1,.961-.451,1.214,1.214,0,0,1,.188.015,1.273,1.273,0,0,1,.981.761,4.277,4.277,0,0,0,7.89,0,1.273,1.273,0,0,1,.981-.761,1.255,1.255,0,0,1,1.15.436,4.284,4.284,0,0,0,7-.634,1.255,1.255,0,0,1,1.754-.449,2.762,2.762,0,0,0,4.212-2.351Zm-8.425-6a6.808,6.808,0,0,1,2.24.853V42.281H70.345V52.466a1.269,1.269,0,0,1-2.537,0V42.281H55.844V57.535a1.264,1.264,0,1,1-2.527,0V42.281H48.976v53.54a6.725,6.725,0,0,1,2.24-.853V84.662a1.264,1.264,0,1,1,2.527,0V94.968a6.8,6.8,0,0,1,4.153,2.56,6.792,6.792,0,0,1,7.87,0,6.8,6.8,0,0,1,4.153-2.56v-2.7a1.264,1.264,0,1,1,2.527,0v2.7ZM15.336,28.332a1.248,1.248,0,0,0-.644-.913,4.1,4.1,0,0,1,2.627-7.66,1.266,1.266,0,0,0,1.2-.457,1.251,1.251,0,0,0,.178-1.269,4.1,4.1,0,1,1,7.9-1.551v.189a1.26,1.26,0,0,0,1.9,1.146,4.1,4.1,0,0,1,6.185,3.534,3.989,3.989,0,0,1-.456,1.879A1.263,1.263,0,0,0,35.5,25.067a3.068,3.068,0,0,1,.357-.021,3.263,3.263,0,0,1,1.3,6.26,1.254,1.254,0,0,0-.208.116c-5.4-1.285-12.726-2.013-21.815-2.171a1.214,1.214,0,0,0,.208-.92Zm98.322,2.15a1.262,1.262,0,0,0-1.259-1.264l-.823,0c-.069-.135-.139-.267-.218-.4a6.631,6.631,0,0,0-3.6-11.611c.02-.242.04-.486.04-.73a6.635,6.635,0,0,0-13.083-1.556,6.63,6.63,0,0,0-8.266,6.425,6.336,6.336,0,0,0,.129,1.3A5.785,5.785,0,0,0,83.606,32.3c-5.253,1.732-8.207,4.231-8.8,7.457H48.856c-.595-3.226-3.548-5.726-8.8-7.457a5.785,5.785,0,0,0-2.973-9.646,6.352,6.352,0,0,0,.129-1.3,6.637,6.637,0,0,0-6.631-6.63,6.562,6.562,0,0,0-1.635.205,6.635,6.635,0,0,0-13.083,1.556c0,.245.02.489.04.73a6.637,6.637,0,0,0-3.608,11.611c-.069.129-.149.261-.208.4l-.823,0a1.264,1.264,0,0,0,0,2.528c22.687,0,35.186,3.293,35.186,9.27V89.464c-4.153.31-8.2.741-12.092,1.292V63.167a9.5,9.5,0,0,0-8.217-9.4V39.086a1.264,1.264,0,1,0-2.527,0V54.951a1.262,1.262,0,0,0,1.259,1.264,6.964,6.964,0,0,1,6.958,6.953V91.132a127.862,127.862,0,0,0-20.973,4.962,1.265,1.265,0,0,0,.406,2.463,1.292,1.292,0,0,0,.406-.067c9.654-3.264,21.657-5.5,34.779-6.49V95.76a5.289,5.289,0,1,0,.783,10.228,6.809,6.809,0,0,0,9.188,1.215,6.8,6.8,0,0,0,10.823,0,6.809,6.809,0,0,0,9.188-1.215,5.292,5.292,0,1,0,.783-10.228V92c13.123.988,25.126,3.226,34.779,6.49a1.246,1.246,0,0,0,.406.067,1.265,1.265,0,0,0,.406-2.463,116.233,116.233,0,0,0-13.123-3.529V88.042a9.5,9.5,0,0,0-8.217-9.4V63.96a1.264,1.264,0,1,0-2.527,0V79.825A1.262,1.262,0,0,0,90.2,81.089a6.964,6.964,0,0,1,6.958,6.953v4.012a175.628,175.628,0,0,0-19.942-2.59V41.017c0-5.978,12.5-9.27,35.186-9.27a1.262,1.262,0,0,0,1.258-1.265Z" transform="translate(-9.999 -9.853)" fill-rule="evenodd"/>
</svg>
