<svg xmlns="http://www.w3.org/2000/svg" width="46.271" height="60.052" viewBox="0 0 46.271 60.052">
  <g id="lista-de-verificacion" transform="translate(-18.2 -4.557)">
    <path id="Path_903873" data-name="Path 903873" d="M61.059,6.375h-10.9V5.441a.883.883,0,0,0-.884-.884H33.4a.884.884,0,0,0-.884.884v.934H21.61a3.415,3.415,0,0,0-3.41,3.41V61.2a3.415,3.415,0,0,0,3.411,3.411H61.06A3.415,3.415,0,0,0,64.471,61.2V9.785a3.415,3.415,0,0,0-3.412-3.41Zm-3.886,7.3V57.313H25.5V13.671ZM34.281,6.325H48.387V11.9H34.281ZM62.7,61.2a1.645,1.645,0,0,1-1.643,1.643H21.609A1.645,1.645,0,0,1,19.966,61.2V9.785a1.644,1.644,0,0,1,1.643-1.642h10.9V11.9h-7.9a.883.883,0,0,0-.884.884V58.2a.883.883,0,0,0,.884.884H58.057a.883.883,0,0,0,.884-.884V12.787a.883.883,0,0,0-.884-.884h-7.9V8.143h10.9A1.644,1.644,0,0,1,62.7,9.785Z" fill="#7d9ffb"/>
    <path id="Path_903874" data-name="Path 903874" d="M54.944,13.6h8.273a.884.884,0,1,0,0-1.768H54.944a.884.884,0,0,0,0,1.768Z" transform="translate(-17.747 -3.598)" fill="#7d9ffb"/>
    <path id="Path_903875" data-name="Path 903875" d="M63.839,99.613h5.366a.884.884,0,0,0,0-1.768H63.839a.884.884,0,0,0,0,1.768Z" transform="translate(-22.149 -46.167)" fill="#7d9ffb"/>
    <path id="Path_903876" data-name="Path 903876" d="M63.839,91.024H74.571a.884.884,0,1,0,0-1.768H63.839a.884.884,0,0,0,0,1.768Z" transform="translate(-22.149 -41.916)" fill="#7d9ffb"/>
    <path id="Path_903877" data-name="Path 903877" d="M42.884,95.1a.883.883,0,0,0,1.25,0l4.338-4.338a.884.884,0,0,0-1.25-1.25l-3.713,3.713-1.7-1.7a.884.884,0,1,0-1.25,1.25Z" transform="translate(-10.936 -41.916)" fill="#7d9ffb"/>
    <path id="Path_903878" data-name="Path 903878" d="M63.839,40.611h5.366a.884.884,0,0,0,0-1.768H63.839a.884.884,0,1,0,0,1.768Z" transform="translate(-22.149 -16.968)" fill="#7d9ffb"/>
    <path id="Path_903879" data-name="Path 903879" d="M63.839,32.022H74.571a.884.884,0,1,0,0-1.768H63.839a.884.884,0,1,0,0,1.768Z" transform="translate(-22.149 -12.717)" fill="#7d9ffb"/>
    <path id="Path_903880" data-name="Path 903880" d="M42.884,36.1a.883.883,0,0,0,1.25,0l4.338-4.338a.884.884,0,0,0-1.25-1.25l-3.713,3.713-1.7-1.7a.884.884,0,1,0-1.25,1.25Z" transform="translate(-10.936 -12.717)" fill="#7d9ffb"/>
    <path id="Path_903881" data-name="Path 903881" d="M63.839,60.278h5.366a.884.884,0,0,0,0-1.768H63.839a.884.884,0,1,0,0,1.768Z" transform="translate(-22.149 -26.7)" fill="#7d9ffb"/>
    <path id="Path_903882" data-name="Path 903882" d="M63.839,51.69H74.571a.884.884,0,1,0,0-1.768H63.839a.884.884,0,1,0,0,1.768Z" transform="translate(-22.149 -22.45)" fill="#7d9ffb"/>
    <path id="Path_903883" data-name="Path 903883" d="M42.884,55.772a.883.883,0,0,0,1.25,0l4.338-4.338a.884.884,0,0,0-1.25-1.25L43.509,53.9l-1.7-1.7a.884.884,0,1,0-1.25,1.25Z" transform="translate(-10.936 -22.452)" fill="#7d9ffb"/>
    <path id="Path_903884" data-name="Path 903884" d="M63.839,79.946h5.366a.884.884,0,0,0,0-1.768H63.839a.884.884,0,1,0,0,1.768Z" transform="translate(-22.149 -36.434)" fill="#7d9ffb"/>
    <path id="Path_903885" data-name="Path 903885" d="M63.839,71.357H74.571a.884.884,0,1,0,0-1.768H63.839a.884.884,0,0,0,0,1.768Z" transform="translate(-22.149 -32.183)" fill="#7d9ffb"/>
    <path id="Path_903886" data-name="Path 903886" d="M42.884,75.436a.883.883,0,0,0,1.25,0L48.472,71.1a.884.884,0,1,0-1.25-1.251L43.509,73.56l-1.7-1.7a.884.884,0,1,0-1.25,1.25Z" transform="translate(-10.936 -32.183)" fill="#7d9ffb"/>
  </g>
</svg>
