<svg xmlns="http://www.w3.org/2000/svg" width="56.869" height="73.807" viewBox="0 0 56.869 73.807">
  <g id="lista-de-verificacion_2_" data-name="lista-de-verificacion (2)" transform="translate(-18.2 -4.557)">
    <path id="Path_908833" data-name="Path 908833" d="M70.876,6.791h-13.4V5.643a1.086,1.086,0,0,0-1.086-1.086H36.879a1.086,1.086,0,0,0-1.086,1.086V6.791h-13.4A4.2,4.2,0,0,0,18.2,10.982V74.172a4.2,4.2,0,0,0,4.192,4.192H70.878a4.2,4.2,0,0,0,4.192-4.192V10.982a4.2,4.2,0,0,0-4.194-4.191ZM66.1,15.758V69.4H27.167V15.758ZM37.965,6.73H55.3v6.856H37.965ZM72.894,74.172a2.021,2.021,0,0,1-2.019,2.019H22.389a2.021,2.021,0,0,1-2.019-2.019V10.982a2.021,2.021,0,0,1,2.019-2.018h13.4v4.621H26.081a1.086,1.086,0,0,0-1.086,1.086V70.484a1.086,1.086,0,0,0,1.086,1.086H67.186a1.086,1.086,0,0,0,1.086-1.086V14.672a1.086,1.086,0,0,0-1.086-1.086H57.475V8.964h13.4a2.021,2.021,0,0,1,2.019,2.018Z" fill="#93ad5f"/>
    <path id="Path_908834" data-name="Path 908834" d="M55.146,14H65.315a1.086,1.086,0,1,0,0-2.173H55.146a1.086,1.086,0,1,0,0,2.173Z" transform="translate(-13.597 -2.757)" fill="#93ad5f"/>
    <path id="Path_908835" data-name="Path 908835" d="M64.041,100.018h6.6a1.086,1.086,0,1,0,0-2.173h-6.6a1.086,1.086,0,1,0,0,2.173Z" transform="translate(-16.97 -35.373)" fill="#93ad5f"/>
    <path id="Path_908836" data-name="Path 908836" d="M64.041,91.429H77.232a1.086,1.086,0,1,0,0-2.173H64.041a1.086,1.086,0,0,0,0,2.173Z" transform="translate(-16.97 -32.116)" fill="#93ad5f"/>
    <path id="Path_908837" data-name="Path 908837" d="M43.476,96.443a1.086,1.086,0,0,0,1.537,0l5.332-5.332a1.086,1.086,0,0,0-1.536-1.536l-4.564,4.564-2.093-2.093a1.086,1.086,0,1,0-1.537,1.537Z" transform="translate(-8.379 -32.117)" fill="#93ad5f"/>
    <path id="Path_908838" data-name="Path 908838" d="M64.041,41.016h6.6a1.086,1.086,0,0,0,0-2.173h-6.6a1.086,1.086,0,1,0,0,2.173Z" transform="translate(-16.97 -13.001)" fill="#93ad5f"/>
    <path id="Path_908839" data-name="Path 908839" d="M64.041,32.427H77.232a1.086,1.086,0,0,0,0-2.173H64.041a1.086,1.086,0,1,0,0,2.173Z" transform="translate(-16.97 -9.744)" fill="#93ad5f"/>
    <path id="Path_908840" data-name="Path 908840" d="M43.476,37.441a1.086,1.086,0,0,0,1.537,0l5.332-5.332a1.086,1.086,0,0,0-1.536-1.536l-4.564,4.564-2.093-2.093a1.086,1.086,0,0,0-1.537,1.537Z" transform="translate(-8.379 -9.744)" fill="#93ad5f"/>
    <path id="Path_908841" data-name="Path 908841" d="M64.041,60.683h6.6a1.086,1.086,0,0,0,0-2.173h-6.6a1.086,1.086,0,1,0,0,2.173Z" transform="translate(-16.97 -20.458)" fill="#93ad5f"/>
    <path id="Path_908842" data-name="Path 908842" d="M64.041,52.095H77.232a1.086,1.086,0,1,0,0-2.173H64.041a1.086,1.086,0,1,0,0,2.173Z" transform="translate(-16.97 -17.202)" fill="#93ad5f"/>
    <path id="Path_908843" data-name="Path 908843" d="M43.476,57.111a1.086,1.086,0,0,0,1.537,0l5.332-5.332a1.086,1.086,0,0,0-1.536-1.536l-4.564,4.563-2.093-2.093a1.086,1.086,0,1,0-1.537,1.537Z" transform="translate(-8.379 -17.203)" fill="#93ad5f"/>
    <path id="Path_908844" data-name="Path 908844" d="M64.041,80.351h6.6a1.086,1.086,0,0,0,0-2.173h-6.6a1.086,1.086,0,0,0,0,2.173Z" transform="translate(-16.97 -27.916)" fill="#93ad5f"/>
    <path id="Path_908845" data-name="Path 908845" d="M64.041,71.762H77.232a1.086,1.086,0,1,0,0-2.173H64.041a1.086,1.086,0,1,0,0,2.173Z" transform="translate(-16.97 -24.659)" fill="#93ad5f"/>
    <path id="Path_908846" data-name="Path 908846" d="M43.476,76.775a1.086,1.086,0,0,0,1.537,0l5.332-5.332a1.086,1.086,0,1,0-1.536-1.537l-4.564,4.564-2.093-2.093a1.086,1.086,0,1,0-1.537,1.537Z" transform="translate(-8.379 -24.659)" fill="#93ad5f"/>
  </g>
</svg>
