<svg id="promocion" xmlns="http://www.w3.org/2000/svg" width="84.338" height="79.807" viewBox="0 0 84.338 79.807">
  <path id="Path_904330" data-name="Path 904330" d="M124.435,292.649a1.647,1.647,0,1,0-2.25-.6A1.648,1.648,0,0,0,124.435,292.649Zm0,0" transform="translate(-101.874 -241.875)" fill="#93ad5f"/>
  <path id="Path_904331" data-name="Path 904331" d="M15.811,80.815l8.3,14.369A6.589,6.589,0,1,0,35.518,88.6l-4.942-8.56,4.28-2.471a1.648,1.648,0,0,0,.6-2.25L33.317,71.6l31.551-6.189a4.941,4.941,0,0,0,4.005-7.4L63.4,48.53l3.5-5.3a1.648,1.648,0,0,0,.052-1.732l-3.294-5.706a1.651,1.651,0,0,0-1.526-.82l-6.337.38L49.715,24.826a4.9,4.9,0,0,0-4.218-2.47h-.063a4.9,4.9,0,0,0-4.161,2.278L19.755,52.046,5.766,60.123A11.531,11.531,0,0,0,15.811,80.815Zm16.855,9.428a3.295,3.295,0,0,1-5.707,3.294L18.723,79.27l5.706-3.294,8.237,14.268ZM28.929,77.182l-1.647-2.853,2.853-1.647,1.647,2.853Zm32.381-38.86,2.277,3.943-2.03,3.074-3.924-6.8ZM44.028,26.44a1.647,1.647,0,0,1,2.832.033L66.02,59.659a1.647,1.647,0,0,1-1.386,2.47,6.048,6.048,0,0,0-.9.153l-20.267-35.1c.425-.547.48-.6.564-.738Zm-2.757,3.531L60.313,62.952,31.576,68.589,22.838,53.454ZM4.4,74.226A8.231,8.231,0,0,1,7.413,62.976l12.839-7.413,8.236,14.265L15.649,77.242A8.246,8.246,0,0,1,4.4,74.226Zm0,0" transform="translate(0 -18.673)" fill="#93ad5f"/>
  <path id="Path_904332" data-name="Path 904332" d="M53.109,310.4a1.647,1.647,0,0,0-2.25-.6l-2.853,1.647a1.649,1.649,0,0,1-2.25-.6,1.647,1.647,0,0,0-2.853,1.647,4.948,4.948,0,0,0,6.75,1.809l2.853-1.647a1.647,1.647,0,0,0,.6-2.25Zm0,0" transform="translate(-35.651 -258.579)" fill="#93ad5f"/>
  <path id="Path_904333" data-name="Path 904333" d="M446.3,42.689,437.122,47.8a1.647,1.647,0,1,0,1.6,2.879l9.178-5.108a1.647,1.647,0,0,0-1.6-2.879Zm0,0" transform="translate(-364.411 -35.483)" fill="#93ad5f"/>
  <path id="Path_904334" data-name="Path 904334" d="M448.5,138.383l-6.364-1.705a1.647,1.647,0,1,0-.853,3.182l6.365,1.705a1.647,1.647,0,1,0,.852-3.182Zm0,0" transform="translate(-367.575 -114.116)" fill="#93ad5f"/>
  <path id="Path_904335" data-name="Path 904335" d="M385.256,1.222l-1.707,6.365a1.647,1.647,0,1,0,3.182.853l1.706-6.365a1.647,1.647,0,1,0-3.182-.853Zm0,0" transform="translate(-320.323 0)" fill="#93ad5f"/>
</svg>
