<svg xmlns="http://www.w3.org/2000/svg" xmlns:xlink="http://www.w3.org/1999/xlink" width="136" height="136" viewBox="0 0 136 136">
  <defs>
    <filter id="Ellipse_11661" x="0" y="0" width="136" height="136" filterUnits="userSpaceOnUse">
      <feOffset dy="3" input="SourceAlpha"/>
      <feGaussianBlur stdDeviation="3" result="blur"/>
      <feFlood flood-opacity="0.161"/>
      <feComposite operator="in" in2="blur"/>
      <feComposite in="SourceGraphic"/>
    </filter>
  </defs>
  <g id="Group_1113114" data-name="Group 1113114" transform="translate(-361 -3456.364)">
    <g transform="matrix(1, 0, 0, 1, 361, 3456.36)" filter="url(#Ellipse_11661)">
      <circle id="Ellipse_11661-2" data-name="Ellipse 11661" cx="59" cy="59" r="59" transform="translate(9 6)" fill="#fff"/>
    </g>
    <g id="campesino_1_" data-name="campesino (1)" transform="translate(403.322 3479.104)">
      <g id="Group_1112064" data-name="Group 1112064" transform="translate(1.176 1.176)">
        <g id="Group_1112060" data-name="Group 1112060" transform="translate(18.822 10.974)">
          <path id="Path_908143" data-name="Path 908143" d="M241,77.533h20.373V89.652H241Z" transform="translate(-241.003 -77.533)" fill="#fde31d"/>
        </g>
        <g id="Group_1112061" data-name="Group 1112061" transform="translate(18.822 10.974)">
          <path id="Path_908144" data-name="Path 908144" d="M241,77.533h3.918V89.652H241Z" transform="translate(-241.003 -77.533)" fill="#e9ca1c"/>
        </g>
        <g id="Group_1112062" data-name="Group 1112062" transform="translate(6.008 19.601)">
          <path id="Path_908145" data-name="Path 908145" d="M195.54,143.917v15.728a4.673,4.673,0,0,1-2.417,4.029H174.092v-9.679H159.236v-6.383H169v-3.7a12.352,12.352,0,0,1,8.03-11.337l10.483,0a13.334,13.334,0,0,1,4.143,2.612A11.875,11.875,0,0,1,195.54,143.917Z" transform="translate(-159.236 -132.58)" fill="#fff"/>
        </g>
        <path id="Path_908146" data-name="Path 908146" d="M126.8,413.37c-3.259,0-5.9-5.433-5.9-8.463v-5.933a2.445,2.445,0,0,1,2.529-2.351h6.743a2.445,2.445,0,0,1,2.529,2.351v5.933C132.7,407.937,130.056,413.37,126.8,413.37Z" transform="translate(-120.897 -335.644)" fill="#cdd9dd"/>
        <path id="Path_908147" data-name="Path 908147" d="M125.111,404.908v-5.933a2.445,2.445,0,0,1,2.529-2.351h-4.214a2.445,2.445,0,0,0-2.529,2.351v5.933c0,3.029,2.642,8.463,5.9,8.463a3.614,3.614,0,0,0,2.107-.756C126.687,411.016,125.111,407.246,125.111,404.908Z" transform="translate(-120.897 -335.644)" fill="#acbfc7"/>
        <path id="Path_908148" data-name="Path 908148" d="M144.94,377.772c-2.393,0-2.529-10.148-2.529-10.148h5.057S147.332,377.772,144.94,377.772Z" transform="translate(-139.039 -311.188)" fill="#cdd9dd"/>
        <path id="Path_908149" data-name="Path 908149" d="M256.656,222.186v-4.768c0-3.028-3.134-12.672-3.134-12.672v-9.761a2.351,2.351,0,0,0-2.351-2.351H239.521a2.351,2.351,0,0,0-2.351,2.351v9.761s-3.134,8.642-3.134,12.672v4.768Z" transform="translate(-216.306 -163.622)" fill="#ff6a47"/>
        <path id="Path_908150" data-name="Path 908150" d="M252.035,434.572v-7.409H235.683v7.409l-3.411,3.454v1.247h23.17v-1.247Z" transform="translate(-214.818 -361.397)" fill="#fde31d"/>
        <path id="Path_908151" data-name="Path 908151" d="M254.036,381.206h16.352v7.2H254.036Z" transform="translate(-233.171 -322.642)" fill="#ffceb7"/>
        <path id="Path_908152" data-name="Path 908152" d="M254.036,381.206h4.7v7.2h-4.7Z" transform="translate(-233.171 -322.642)" fill="#ffaa81"/>
        <path id="Path_908153" data-name="Path 908153" d="M241.087,204.746V192.634H239.52a2.351,2.351,0,0,0-2.351,2.351v9.761s-3.134,8.641-3.134,12.672v4.768h3.918v-4.768c0-4.03,3.134-12.672,3.134-12.672Z" transform="translate(-216.305 -163.622)" fill="#fd3501"/>
        <g id="Group_1112063" data-name="Group 1112063" transform="translate(6.008 19.602)">
          <path id="Path_908154" data-name="Path 908154" d="M159.234,228.505h3.918v6.382h-3.918Z" transform="translate(-159.234 -213.473)" fill="#e3e9ee"/>
          <path id="Path_908155" data-name="Path 908155" d="M225.433,143.922a12.353,12.353,0,0,1,8.03-11.336h-3.916a12.353,12.353,0,0,0-8.031,11.337v4.792h3.918Z" transform="translate(-211.755 -132.585)" fill="#e3e9ee"/>
        </g>
        <path id="Path_908156" data-name="Path 908156" d="M145.821,238.32h-2.451a1.3,1.3,0,0,1-1.349-1.254v-2.307a1.3,1.3,0,0,1,1.349-1.254h2.451a2.414,2.414,0,1,1,0,4.815Z" transform="translate(-138.711 -198.088)" fill="#ffceb7"/>
        <path id="Path_908157" data-name="Path 908157" d="M145,237.066v-2.307a1.284,1.284,0,0,1,1.123-1.235,2.7,2.7,0,0,0-.3-.019h-2.451a1.3,1.3,0,0,0-1.349,1.254v2.307a1.3,1.3,0,0,0,1.349,1.254h2.451a2.691,2.691,0,0,0,.3-.019A1.284,1.284,0,0,1,145,237.066Z" transform="translate(-138.711 -198.088)" fill="#ffaa81"/>
        <path id="Path_908158" data-name="Path 908158" d="M240.367,434.572v-7.409h-4.684v7.409l-3.411,3.454v1.247h4.684v-1.247Z" transform="translate(-214.818 -361.397)" fill="#e9ca1c"/>
        <path id="Path_908159" data-name="Path 908159" d="M231.391,18.478h20.224a1.91,1.91,0,0,0,1.91-1.91l-5.293-2.783L247.167,9.31A2.351,2.351,0,0,0,244.88,7.5h-6.755a2.351,2.351,0,0,0-2.287,1.806l-1.065,4.475-5.293,2.783A1.911,1.911,0,0,0,231.391,18.478Z" transform="translate(-212.464 -7.504)" fill="#e6cc9f"/>
        <path id="Path_908160" data-name="Path 908160" d="M238.617,14.561l.747-7.056h-1.238a2.351,2.351,0,0,0-2.287,1.806l-1.065,4.475-5.293,2.783a1.91,1.91,0,0,0,1.911,1.91h2.524Z" transform="translate(-212.464 -7.505)" fill="#dfba7f"/>
        <path id="Path_908161" data-name="Path 908161" d="M271.207,77.533l.017,5.142a5.483,5.483,0,0,0,10.936,0l.017-5.142Z" transform="translate(-247.651 -66.559)" fill="#ffceb7"/>
        <path id="Path_908162" data-name="Path 908162" d="M275.142,82.675l-.017-5.142h-3.918l.017,5.142a5.483,5.483,0,0,0,7.427,4.712A5.488,5.488,0,0,1,275.142,82.675Z" transform="translate(-247.651 -66.559)" fill="#ffaa81"/>
      </g>
      <g id="Group_1112065" data-name="Group 1112065" transform="translate(26.385 35.031)">
        <path id="Path_908163" data-name="Path 908163" d="M281.758,223.536h2.351v2.351h-2.351Z" transform="translate(-281.758 -223.536)" fill="#fff"/>
        <path id="Path_908164" data-name="Path 908164" d="M311.758,223.536h2.351v2.351h-2.351Z" transform="translate(-307.057 -223.536)" fill="#fff"/>
      </g>
      <path id="Path_908165" data-name="Path 908165" d="M158.058,36.906c.005-5.122.48-8.928-3.118-13.174V13.073a3.09,3.09,0,0,0,1.867-2.834V9.53l-5.449-2.865-.941-3.955A3.516,3.516,0,0,0,146.987,0h-3.633V2.351h3.633a1.173,1.173,0,0,1,1.145.9l.72,3.028H138.368l.721-3.027a1.172,1.172,0,0,1,1.143-.9H141V0h-.771a3.514,3.514,0,0,0-3.43,2.71l-.942,3.955-5.45,2.865v.71a3.085,3.085,0,0,0,1.806,2.805V23.8a12.953,12.953,0,0,0-3.054,8.314v2.52h-7.517V16.22H119.3V34.691a2.673,2.673,0,0,0-2.59,2.808v3a2.673,2.673,0,0,0,2.59,2.808V56.436h-2.544c.035,1.618-.025,1.644.194,4.548a3.614,3.614,0,0,0-3.55,3.522v5.933c0,3.385,2.918,9.638,7.075,9.638s7.076-6.253,7.076-9.638V64.506A3.613,3.613,0,0,0,124,60.984c.219-2.905.159-2.928.194-4.548h-2.545V43.367h12.175c-.906,2.692-2.7,8.41-2.7,11.605v5.944h3.134V73.868l-3.411,3.454v2.9H156.37v-2.9l-3.408-3.454V60.915H156.1V54.972a14.7,14.7,0,0,0-.322-2.568,5.742,5.742,0,0,0,2.283-4.562V39.257h-2.351v8.585a3.3,3.3,0,0,1-.554,1.823c-.8-3.194-1.88-6.585-2.191-7.55V32.539a3.532,3.532,0,0,0-2.529-3.381V22.9a10.976,10.976,0,0,1,5.274,9.217v4.792ZM123.73,63.331a1.3,1.3,0,0,1,1.466,1.175V70.44c0,2.612-2.382,7.287-4.725,7.287s-4.725-4.675-4.725-7.287V64.506a1.3,1.3,0,0,1,1.466-1.175c.392,2.709,1.148,5.6,3.259,5.6S123.338,66.04,123.73,63.331Zm-2.191-1.38c-.334,2.931-.818,4.06-1.068,4.466-.249-.4-.731-1.531-1.065-4.449-.137-1.2-.21-2.357-.248-3.181h2.627C121.746,59.607,121.674,60.759,121.538,61.951ZM137.169,8.632H150.05l4.138,2.175a.732.732,0,0,1-.466.167H133.5a.735.735,0,0,1-.467-.166Zm1.97,20.381V21.8a6.656,6.656,0,0,0,8.944,0v7.212h-8.944Zm-2.186-15.688.013,3.971,0,.083a6.58,6.58,0,0,0,.665,2.433,14.666,14.666,0,0,0-3.066,1.761V13.325ZM147.9,17.245a4.31,4.31,0,0,1-8.586,0l-.013-3.919h8.611ZM131.514,36.985V32.114a10.945,10.945,0,0,1,5.274-9.218v6.261a3.532,3.532,0,0,0-2.529,3.382v8.477h-9.253a4.9,4.9,0,0,0,0-4.031h6.507ZM119.057,40.5v-3a.581.581,0,0,1,.173-.457h2.451c.767,0,1.414.9,1.414,1.959s-.648,1.959-1.414,1.959l-2.438,0A.542.542,0,0,1,119.057,40.5Zm23.379,20.413v4.852h-5.825V60.915Zm-5.825,13.918V68.118h5.825v9.759h-8.831Zm17,3.044h-8.828V68.118h5.825v6.716Zm-3-12.11h-5.825V60.915h5.825Zm.057-23.1c.856,2.633,3.077,9.978,3.077,12.309v3.593h-20.27V54.972c0-3.777,3.033-12.187,3.064-12.271l.07-.194V32.539a1.177,1.177,0,0,1,1.175-1.175h11.651a1.177,1.177,0,0,1,1.175,1.175v9.947Zm-1.085-22.85a6.579,6.579,0,0,0,.665-2.434l.016-4.054h2.325v8.206a14.494,14.494,0,0,0-3.005-1.718Z" transform="translate(-113.395 0)"/>
    </g>
  </g>
</svg>
