<svg xmlns="http://www.w3.org/2000/svg" xmlns:xlink="http://www.w3.org/1999/xlink" width="136" height="136" viewBox="0 0 136 136">
  <defs>
    <filter id="Ellipse_12671" x="0" y="0" width="136" height="136" filterUnits="userSpaceOnUse">
      <feOffset dy="3" input="SourceAlpha"/>
      <feGaussianBlur stdDeviation="3" result="blur"/>
      <feFlood flood-opacity="0.161"/>
      <feComposite operator="in" in2="blur"/>
      <feComposite in="SourceGraphic"/>
    </filter>
  </defs>
  <g id="Group_1113115" data-name="Group 1113115" transform="translate(-676 -3456.364)">
    <g transform="matrix(1, 0, 0, 1, 676, 3456.36)" filter="url(#Ellipse_12671)">
      <circle id="Ellipse_12671-2" data-name="Ellipse 12671" cx="59" cy="59" r="59" transform="translate(9 6)" fill="#fff"/>
    </g>
    <g id="cosecha" transform="translate(713 3489.87)">
      <g id="Group_1112067" data-name="Group 1112067" transform="translate(0.925 0.925)">
        <path id="Path_908166" data-name="Path 908166" d="M113.217,40.889l-1.169,12.583c-.378,2.863,4.576,10.343,4.576,10.343l-1.674,7.094,8.53.76,1.279-6.595,3.6.475a6.163,6.163,0,0,0,6.917-5.3l2.164-16.387Z" transform="translate(-99.133 -36.857)" fill="#ffb09e"/>
        <g id="Group_1112066" data-name="Group 1112066" transform="translate(21.192 6.57)">
          <path id="Path_908167" data-name="Path 908167" d="M180.4,235.446l-1.114,5.745,3.156.281,1.279-6.595-2.143-.28A1.06,1.06,0,0,0,180.4,235.446Z" transform="translate(-179.282 -213.229)" fill="#ffa78f"/>
          <path id="Path_908168" data-name="Path 908168" d="M224.372,61.457l-1.837,16.821c-.446,3.374-3.932,5.273-7.307,4.827l3.6.475a6.163,6.163,0,0,0,6.917-5.3l2.164-16.387Z" transform="translate(-210.793 -61.457)" fill="#ffa78f"/>
        </g>
        <path id="Path_908169" data-name="Path 908169" d="M77.538,304.337l-10.686,6.514H47.958l2.9-21.135a6.962,6.962,0,0,1,7.515-5.989l8.945.8,3.6,2.867a16.407,16.407,0,0,1,6.123,11.374Z" transform="translate(-42.967 -249.712)" fill="#99e6fc"/>
        <path id="Path_908170" data-name="Path 908170" d="M137.37,304.337l-3.152,1.921-.556-7.493a16.4,16.4,0,0,0-6.124-11.373l-3.6-2.867-7.727-.688a6.9,6.9,0,0,1,1.991-.109l8.945.8,3.6,2.867a16.4,16.4,0,0,1,6.124,11.373Z" transform="translate(-102.799 -249.712)" fill="#62dbfb"/>
        <path id="Path_908171" data-name="Path 908171" d="M109.238,27.388l-3.768,7.775-3.488-3.853c-2.1-2.437-3.031-4.431-2.559-7.611l.924-9.548a3.88,3.88,0,0,1,4.169-3.3A3.743,3.743,0,0,1,108.1,8.2h17.284a6.717,6.717,0,0,1,6.717,6.717,3.561,3.561,0,0,1-3.7,3.558l-2.533-.1a3.71,3.71,0,0,1-4.449,1.114c-1.88,3.186-5.918,2.105-5.918,2.105v6.554l2.228,4.307c1.741-2.437,6.721-3.34,6.721-3.34l-.576,8.212a3.148,3.148,0,0,1-3.455,2.912l-4.225-.425a2.922,2.922,0,0,1-2.588-3.4l-1.58-7.994Z" transform="translate(-87.978 -8.205)" fill="#b98080"/>
        <path id="Path_908172" data-name="Path 908172" d="M258.412,178.744a18.62,18.62,0,0,1,3.278-.976l-.575,8.213a3.149,3.149,0,0,1-3.456,2.913l-1.8-.181a3.146,3.146,0,0,0,2.044-2.731Z" transform="translate(-225.22 -156.849)" fill="#ae6c6c"/>
        <path id="Path_908173" data-name="Path 908173" d="M294.577,14.925a3.56,3.56,0,0,1-3.558,3.56l-.139,0L288.6,18.4a3.56,3.56,0,0,0,2.77-3.472,6.718,6.718,0,0,0-6.717-6.717h3.21a6.718,6.718,0,0,1,6.717,6.717Z" transform="translate(-250.459 -8.208)" fill="#ae6c6c"/>
        <path id="Path_908174" data-name="Path 908174" d="M314.458,90.728c-.1.023-.2.042-.308.056.02-.021.038-.043.058-.065Z" transform="translate(-276.319 -80.539)" fill="#b98080"/>
        <path id="Path_908175" data-name="Path 908175" d="M170.872,126.472h-1.227a3.213,3.213,0,1,1,0-6.425h1.227Z" transform="translate(-146.825 -106.249)" fill="#ffb09e"/>
        <path id="Path_908176" data-name="Path 908176" d="M144.2,331.654a6.041,6.041,0,0,1,7.8,2.422l7.069,12.129,12.822-12.743,5.11,5.007a1.208,1.208,0,0,1,.071,1.65l-10.525,12.266h-18.36L141.467,340a6.041,6.041,0,0,1,2.733-8.343Z" transform="translate(-124.298 -291.244)" fill="#99e6fc"/>
        <path id="Path_908177" data-name="Path 908177" d="M183.516,334.073l7.069,12.129h-1.832a2.4,2.4,0,0,1-2.072-1.191l-6.375-10.939a6.027,6.027,0,0,0-3.616-2.782A6.044,6.044,0,0,1,183.516,334.073Z" transform="translate(-155.817 -291.242)" fill="#62dbfb"/>
        <path id="Path_908178" data-name="Path 908178" d="M337.656,357.064,327.13,369.33h-3.21l10.526-12.266a1.209,1.209,0,0,0-.072-1.649l-3.494-3.422,1.594-1.584,5.11,5.006A1.208,1.208,0,0,1,337.656,357.064Z" transform="translate(-284.884 -308.191)" fill="#62dbfb"/>
        <path id="Path_908179" data-name="Path 908179" d="M393.255,280.489l1.189-4.819a2.013,2.013,0,0,1,.987-1.283l1.567-.859,1,.825,4.35-3.7h1.841v6.861a4.552,4.552,0,0,1-1.306,3.192l-4.62,4.7Z" transform="translate(-345.665 -238.272)" fill="#ffb09e"/>
        <path id="Path_908180" data-name="Path 908180" d="M428.191,270.648v6.86a4.555,4.555,0,0,1-1.306,3.192l-4.62,4.7-1.635-1.6,3.045-3.1a4.555,4.555,0,0,0,1.306-3.192v-5.695l1.369-1.166Z" transform="translate(-369.663 -238.271)" fill="#ffa78f"/>
        <path id="Path_908181" data-name="Path 908181" d="M18.574,249.523H7.5v31.368h8.185a2.457,2.457,0,0,0,2.444-2.2l2.438-23.069v-4.107A1.993,1.993,0,0,0,18.574,249.523Z" transform="translate(-7.5 -219.752)" fill="#fcd18a"/>
        <path id="Path_908182" data-name="Path 908182" d="M46.826,249.523H42.613a1.993,1.993,0,0,1,1.993,1.993v4.107l-2.438,23.069a2.457,2.457,0,0,1-2.441,2.2h4.209a2.457,2.457,0,0,0,2.444-2.2l2.438-23.069v-4.107A1.993,1.993,0,0,0,46.826,249.523Z" transform="translate(-35.751 -219.752)" fill="#fbc56d"/>
        <path id="Path_908183" data-name="Path 908183" d="M113.419,274.142H122.6a6.541,6.541,0,0,1,3.62,1.093l4.318,2.868-2.713-3.773a8.849,8.849,0,0,0-7.184-3.682h-7.218v3.494Z" transform="translate(-100.352 -238.271)" fill="#6c7fd8"/>
        <path id="Path_908184" data-name="Path 908184" d="M153.088,274.33l.123.171a6.541,6.541,0,0,1,1.483.734l4.318,2.868L156.3,274.33a8.849,8.849,0,0,0-7.184-3.682H145.9A8.848,8.848,0,0,1,153.088,274.33Z" transform="translate(-128.829 -238.271)" fill="#4f66d0"/>
        <path id="Path_908185" data-name="Path 908185" d="M406.862,421.213h10.425a1.618,1.618,0,0,0,1.618-1.618v-10a6.018,6.018,0,0,0-5.3,4.8S406.711,414.812,406.862,421.213Z" transform="translate(-357.591 -360.074)" fill="#bbec6c"/>
      </g>
      <g id="Group_1112068" data-name="Group 1112068" transform="translate(0 0)">
        <path id="Path_908186" data-name="Path 908186" d="M354.924,259.678,359,255.533a5.446,5.446,0,0,0,1.572-3.84v-6.861a.924.924,0,0,0-.425-.778l.9-1.438a.925.925,0,0,0-1.568-.983l-.716,1.141-.716-1.141a.925.925,0,0,0-1.568.983l.881,1.4a.913.913,0,0,0-.157.107l-3.761,3.2L353.04,247a.926.926,0,0,0-1.032-.1l-1.567.858A2.945,2.945,0,0,0,349,249.631l-1.189,4.819a.931.931,0,0,0,.251.883l5.111,5.007a.283.283,0,0,1,.017.386l-10.525,12.266a.925.925,0,1,0,1.4,1.205l10.525-12.266A2.139,2.139,0,0,0,354.924,259.678Zm-4.128-9.6a1.091,1.091,0,0,1,.533-.693l1.018-.558.521.428a.925.925,0,0,0,1.187-.01l4.091-3.484h.575v5.936a3.605,3.605,0,0,1-1.041,2.543l-3.972,4.039-3.975-3.894Z" transform="translate(-300.195 -211.53)"/>
        <path id="Path_908187" data-name="Path 908187" d="M46.122,46.228a.925.925,0,0,0-1.308,0L36.286,54.7l-.366-4.1a17.221,17.221,0,0,0-4.067-9.686l-2.708-3.765a9.755,9.755,0,0,0-2.587-2.47l.288-1.483a3.84,3.84,0,0,0,2.2.973l4.226.426a4.135,4.135,0,0,0,4.471-3.769l.535-7.641.139.26a.925.925,0,0,0,1.633-.87l-1.382-2.594.953-7.215,1.69.064a4.485,4.485,0,0,0,4.658-4.482A7.644,7.644,0,0,0,38.326.708H21.043a4.64,4.64,0,0,0-4.208,2.643,4.837,4.837,0,0,0-4.456,4.091c0,.016,0,.031-.006.047l-.921,9.525c-.532,3.628.668,5.877,2.776,8.326l.015.017,3.161,3.492-1,4.234H14.9A2.922,2.922,0,0,0,12,30.479H.925a.925.925,0,1,0,0,1.851H12A1.069,1.069,0,0,1,13.067,33.4v3.182H.925a.925.925,0,1,0,0,1.851H12.964l-2.33,22.047A1.529,1.529,0,0,1,9.11,61.847H.925a.925.925,0,1,0,0,1.851H9.11a3.376,3.376,0,0,0,3.364-3.027l2.351-22.241H23.17a5.6,5.6,0,0,1,3.108.938l4.2,2.791a15.382,15.382,0,0,1,3.6,8.61l.128,1.435L29.423,44a6.966,6.966,0,0,0-8.99-2.793.925.925,0,1,0,.789,1.674,5.088,5.088,0,0,1,6.6,2.051L34.69,56.709c.009.016.017.031.027.046l.177.3a.926.926,0,0,0,.679.452.943.943,0,0,0,.12.008.926.926,0,0,0,.652-.269l9.773-9.713a.925.925,0,0,0,0-1.308ZM21.458,18.643a2.368,2.368,0,0,1,2.589-2.287v4.575a2.371,2.371,0,0,1-2.589-2.288Zm-8.171-1.38c0-.016,0-.031.006-.047l.92-9.523a2.972,2.972,0,0,1,2.917-2.5c.082,0,.167,0,.252.011a.926.926,0,0,0,.966-.651,2.8,2.8,0,0,1,2.7-1.994H38.327a5.793,5.793,0,0,1,5.792,5.792,2.635,2.635,0,0,1-2.737,2.633l-2.533-.1a.941.941,0,0,0-.735.319,2.762,2.762,0,0,1-3.328.9.925.925,0,0,0-1.218.354c-1.493,2.529-4.747,1.716-4.882,1.681a.925.925,0,1,0-.479,1.788,7.878,7.878,0,0,0,2.588.169,5.559,5.559,0,0,0,3.929-2.058,4.624,4.624,0,0,0,2.889-.209l-1.051,7.958A14.831,14.831,0,0,0,30.9,24.317l-1.53-2.957V19.42a.925.925,0,0,0-1.851,0v2.166a.924.924,0,0,0,.1.425l2.228,4.307a.925.925,0,0,0,1.575.113c.963-1.347,3.336-2.246,4.956-2.692l-.214,3.053a3.462,3.462,0,0,1-1.166-.629.925.925,0,0,0-1.273,1.343,5.357,5.357,0,0,0,2.306,1.172L35.9,30.7a2.268,2.268,0,0,1-2.44,2.057l-4.226-.426a1.987,1.987,0,0,1-1.8-1.982,3.322,3.322,0,0,0,.023-.693l-1.56-7.89V15.43a.925.925,0,0,0-.925-.925H23.746A4.136,4.136,0,0,0,20.8,21.548l-2.619,5.4-2.559-2.827c-1.857-2.158-2.779-3.893-2.338-6.862ZM19.295,28.9l3.079-6.355a5.332,5.332,0,0,0,1.838.235l1.4,7.07-.764,3.938a9.758,9.758,0,0,0-3.636-.7h-2.9ZM27.3,37.826a7.444,7.444,0,0,0-4.132-1.247H14.917V34.935H21.21a7.945,7.945,0,0,1,6.153,2.932Z" transform="translate(0 -0.708)"/>
        <path id="Path_908188" data-name="Path 908188" d="M140.906,396.375a.925.925,0,0,0-1.627.882L146,409.643a.925.925,0,0,0,1.627-.882Z" transform="translate(-121.999 -347.138)"/>
        <path id="Path_908189" data-name="Path 908189" d="M413.252,402.95a.926.926,0,0,0-.99-.856,6.913,6.913,0,0,0-5.98,4.886,10.376,10.376,0,0,0-3.116,1.031,6.9,6.9,0,0,0-3.805,6.649.925.925,0,0,0,.924.9h.022a.925.925,0,0,0,.9-.947,5.088,5.088,0,0,1,2.775-4.945,8.525,8.525,0,0,1,3.1-.929.925.925,0,0,0,.851-.741,5.069,5.069,0,0,1,4.466-4.062A.925.925,0,0,0,413.252,402.95Z" transform="translate(-350.09 -352.575)"/>
        <path id="Path_908190" data-name="Path 908190" d="M449.489,477.056a.925.925,0,0,0-1.275.292l-.716,1.141-.716-1.141a.925.925,0,1,0-1.568.983l1.5,2.39a.925.925,0,0,0,1.568,0l1.5-2.39A.925.925,0,0,0,449.489,477.056Z" transform="translate(-390.166 -418.166)"/>
      </g>
    </g>
  </g>
</svg>
