<svg xmlns="http://www.w3.org/2000/svg" width="85.5" height="113" viewBox="0 0 85.5 113">
  <g id="Group_1112319" data-name="Group 1112319" transform="translate(-180 -622.449)">
    <path id="Path_903846" data-name="Path 903846" d="M0,1C4.721,1,4.721,8.589,9.442,8.589S14.164,1,18.886,1s4.722,7.589,9.443,7.589S33.051,1,37.773,1s4.721,7.589,9.442,7.589S51.938,1,56.661,1,61.381,8.589,66.1,8.589,70.827,1,75.552,1,80.276,8.589,85,8.589" transform="translate(180.5 622.449)" fill="none" stroke="#f59f7c" stroke-miterlimit="10" stroke-width="2"/>
    <path id="Path_903847" data-name="Path 903847" d="M0,13.79c4.721,0,4.721,7.589,9.442,7.589s4.722-7.589,9.443-7.589,4.722,7.589,9.443,7.589,4.722-7.589,9.444-7.589,4.721,7.589,9.442,7.589,4.723-7.589,9.446-7.589,4.721,7.589,9.442,7.589,4.724-7.589,9.449-7.589S80.276,21.379,85,21.379" transform="translate(180 629.117)" fill="none" stroke="#f59f7c" stroke-miterlimit="10" stroke-width="2"/>
    <path id="Path_903848" data-name="Path 903848" d="M0,26.58c4.721,0,4.721,7.589,9.442,7.589s4.722-7.589,9.443-7.589,4.722,7.589,9.443,7.589,4.722-7.589,9.444-7.589,4.721,7.589,9.442,7.589,4.723-7.589,9.446-7.589,4.721,7.589,9.442,7.589,4.724-7.589,9.449-7.589S80.276,34.169,85,34.169" transform="translate(180 635.551)" fill="none" stroke="#f59f7c" stroke-miterlimit="10" stroke-width="2"/>
    <path id="Path_903849" data-name="Path 903849" d="M0,1C4.721,1,4.721,8.589,9.442,8.589S14.164,1,18.886,1s4.722,7.589,9.443,7.589S33.051,1,37.773,1s4.721,7.589,9.442,7.589S51.938,1,56.661,1,61.381,8.589,66.1,8.589,70.827,1,75.552,1,80.276,8.589,85,8.589" transform="translate(180 682.769)" fill="none" stroke="#f59f7c" stroke-miterlimit="10" stroke-width="2"/>
    <path id="Path_903850" data-name="Path 903850" d="M0,13.79c4.721,0,4.721,7.589,9.442,7.589s4.722-7.589,9.443-7.589,4.722,7.589,9.443,7.589,4.722-7.589,9.444-7.589,4.721,7.589,9.442,7.589,4.723-7.589,9.446-7.589,4.721,7.589,9.442,7.589,4.724-7.589,9.449-7.589S80.276,21.379,85,21.379" transform="translate(180.5 691.432)" fill="none" stroke="#f59f7c" stroke-miterlimit="10" stroke-width="2"/>
    <path id="Path_903851" data-name="Path 903851" d="M0,26.58c4.721,0,4.721,7.589,9.442,7.589s4.722-7.589,9.443-7.589,4.722,7.589,9.443,7.589,4.722-7.589,9.444-7.589,4.721,7.589,9.442,7.589,4.723-7.589,9.446-7.589,4.721,7.589,9.442,7.589,4.724-7.589,9.449-7.589S80.276,34.169,85,34.169" transform="translate(180.5 700.28)" fill="none" stroke="#f59f7c" stroke-miterlimit="10" stroke-width="2"/>
  </g>
</svg>
