<svg xmlns="http://www.w3.org/2000/svg" xmlns:xlink="http://www.w3.org/1999/xlink" width="136" height="136" viewBox="0 0 136 136">
  <defs>
    <filter id="Ellipse_11661" x="0" y="0" width="136" height="136" filterUnits="userSpaceOnUse">
      <feOffset dy="3" input="SourceAlpha"/>
      <feGaussianBlur stdDeviation="3" result="blur"/>
      <feFlood flood-opacity="0.161"/>
      <feComposite operator="in" in2="blur"/>
      <feComposite in="SourceGraphic"/>
    </filter>
  </defs>
  <g id="Group_1112316" data-name="Group 1112316" transform="translate(-473 -5575.733)">
    <g transform="matrix(1, 0, 0, 1, 473, 5575.73)" filter="url(#Ellipse_11661)">
      <circle id="Ellipse_11661-2" data-name="Ellipse 11661" cx="59" cy="59" r="59" transform="translate(9 6)" fill="#fff"/>
    </g>
    <g id="gotas" transform="translate(482.756 5606.4)">
      <path id="Path_908256" data-name="Path 908256" d="M53.671,48.47a1.672,1.672,0,0,1,2.444,0c4.516,4.84,20,22.551,20,37.818a21.223,21.223,0,1,1-42.446,0C33.67,71.021,49.155,53.31,53.671,48.47Z" transform="translate(-6.968 -41.677)" fill="#93e6ff"/>
      <g id="Group_1112089" data-name="Group 1112089" transform="translate(26.702 6.263)">
        <path id="Path_908257" data-name="Path 908257" d="M66.063,101.932A21.223,21.223,0,0,1,44.84,80.709c0-10.485,7.3-22.117,13.341-29.947-.814-.928-1.517-1.7-2.06-2.28a1.675,1.675,0,0,0-2.449-.006c-4.516,4.84-20,22.551-20,37.817a21.205,21.205,0,0,0,35.877,15.328A21.262,21.262,0,0,1,66.063,101.932Z" transform="translate(-33.67 -47.947)" fill="#59d8ff"/>
        <path id="Path_908258" data-name="Path 908258" d="M232.234,137.537c0-10.8-7.751-22.823-13.885-30.648-2.863,5.044-5.1,10.708-5.1,16.127a19,19,0,0,0,18.515,18.965A21.286,21.286,0,0,0,232.234,137.537Z" transform="translate(-189.788 -99.19)" fill="#59d8ff"/>
      </g>
      <path id="Path_908259" data-name="Path 908259" d="M253.3,14.495a1.669,1.669,0,0,1,2.473,0c3.7,4.075,14.4,16.823,14.4,27.719a15.638,15.638,0,1,1-31.276,0C238.9,31.318,249.6,18.57,253.3,14.495Z" transform="translate(-185.388 -12.125)" fill="#d4f5ff"/>
      <path id="Path_908260" data-name="Path 908260" d="M264.588,52.266A15.638,15.638,0,0,1,248.95,36.628c0-6.924,4.323-14.592,8.423-20.311-.614-.719-1.157-1.332-1.6-1.822a1.667,1.667,0,0,0-2.474,0c-3.7,4.076-14.4,16.823-14.4,27.718a15.636,15.636,0,0,0,27.737,9.9A15.706,15.706,0,0,1,264.588,52.266Z" transform="translate(-185.387 -12.124)" fill="#baefff"/>
      <path id="Path_908261" data-name="Path 908261" d="M85.833,30.089c0-5.679-2.694-12.428-8.007-20.058A81.61,81.61,0,0,0,69.894.312a1.047,1.047,0,0,0-1.492,0,81.623,81.623,0,0,0-7.932,9.719q-1.756,2.522-3.129,4.913A108.179,108.179,0,0,0,48.666,4.775a1.047,1.047,0,0,0-1.481,0A110.2,110.2,0,0,0,36.457,17.758c-7.168,10.186-10.8,19.22-10.8,26.852a22.27,22.27,0,0,0,44.438,2.137A16.706,16.706,0,0,0,85.833,30.089Zm-37.908,34.7A20.2,20.2,0,0,1,27.749,44.61c0-8.949,5.656-18.871,10.4-25.619A111.1,111.1,0,0,1,47.925,7.023a111.267,111.267,0,0,1,8.311,9.941C53.729,21.8,52.463,26.2,52.463,30.089A16.707,16.707,0,0,0,67.99,46.734,20.16,20.16,0,0,1,47.925,64.786ZM69.148,44.68A14.607,14.607,0,0,1,54.557,30.089c0-10.959,11.516-24.182,14.591-27.516C72.223,5.908,83.739,19.13,83.739,30.089A14.607,14.607,0,0,1,69.148,44.68Z"/>
      <path id="Path_908262" data-name="Path 908262" d="M227.625,376.31a1.047,1.047,0,0,0-1.337.637A15.8,15.8,0,0,1,214.619,387.1a1.047,1.047,0,1,0,.418,2.052,17.906,17.906,0,0,0,13.224-11.509A1.047,1.047,0,0,0,227.625,376.31Z" transform="translate(-163.552 -327.102)"/>
      <path id="Path_908263" data-name="Path 908263" d="M165.822,459.486a15.743,15.743,0,0,1-2.094-.281,1.047,1.047,0,1,0-.418,2.052,17.827,17.827,0,0,0,2.374.319l.07,0a1.047,1.047,0,0,0,.068-2.092Z" transform="translate(-118.944 -399.203)"/>
      <path id="Path_908264" data-name="Path 908264" d="M362.813,222.33a1.047,1.047,0,0,0-1.047,1.047A10.134,10.134,0,0,1,351.643,233.5a1.047,1.047,0,1,0,0,2.094,12.231,12.231,0,0,0,12.217-12.217A1.047,1.047,0,0,0,362.813,222.33Z" transform="translate(-282.495 -193.288)"/>
    </g>
  </g>
</svg>
