<svg xmlns="http://www.w3.org/2000/svg" xmlns:xlink="http://www.w3.org/1999/xlink" width="136" height="136" viewBox="0 0 136 136">
  <defs>
    <filter id="Ellipse_12618" x="0" y="0" width="136" height="136" filterUnits="userSpaceOnUse">
      <feOffset dy="3" input="SourceAlpha"/>
      <feGaussianBlur stdDeviation="3" result="blur"/>
      <feFlood flood-opacity="0.161"/>
      <feComposite operator="in" in2="blur"/>
      <feComposite in="SourceGraphic"/>
    </filter>
  </defs>
  <g id="Group_1112318" data-name="Group 1112318" transform="translate(-1045.576 -5571)">
    <g transform="matrix(1, 0, 0, 1, 1045.58, 5571)" filter="url(#Ellipse_12618)">
      <circle id="Ellipse_12618-2" data-name="Ellipse 12618" cx="59" cy="59" r="59" transform="translate(9 6)" fill="#fff"/>
    </g>
    <g id="FILLED_OUTLINE" data-name="FILLED OUTLINE" transform="translate(1085.074 5603.28)">
      <path id="Path_908265" data-name="Path 908265" d="M257.226,62.65l-12.756,4.906-12.453,4.31a2.274,2.274,0,0,1-2.054-.621l-1.414-1.414-3.412,1.137L224,66.418l3.412-1.137.778-3.47a2.272,2.272,0,0,1,1.439-1.439l3.382-1.127,9.186-3.062,11.489-3.83a2.276,2.276,0,0,1,2.877,1.439l2.006,6.016A2.276,2.276,0,0,1,257.226,62.65Z" transform="translate(-196.491 -46.798)" fill="#004699"/>
      <path id="Path_908266" data-name="Path 908266" d="M295.8,85.261l-4.811,1.8a2.274,2.274,0,0,1-3.005-1.578l-.607-2.425L296.566,80l.645,2.58A2.274,2.274,0,0,1,295.8,85.261Z" transform="translate(-250.861 -70.615)" fill="#00a4ff"/>
      <path id="Path_908267" data-name="Path 908267" d="M229.6,178.8l-3.275,1-9.259,2.837a13.632,13.632,0,0,0-6.178-8.574l-3.84-2.347,14.971-3.422c.038-.009.075-.017.112-.027a2.274,2.274,0,0,0,1.635-2.673L221.2,153.626a2.273,2.273,0,0,1,1.207-2.51l.627-.314a2.274,2.274,0,0,1,3.174,1.315.974.974,0,0,0,1.232.616l2.488-.829,4.29,18.874A6.824,6.824,0,0,1,229.6,178.8Z" transform="translate(-181.95 -131.145)" fill="#f9b7b7"/>
      <path id="Path_908268" data-name="Path 908268" d="M108.763,264.519,94.823,256l-.162.162A22.745,22.745,0,0,0,88,272.245v17.873h27.294V276.164a13.647,13.647,0,0,0-6.531-11.645Z" transform="translate(-79.824 -221.595)" fill="#68a341"/>
      <path id="Path_908269" data-name="Path 908269" d="M136,432h11.373v9.1H136Z" transform="translate(-121 -372.575)" fill="#f9b7b7"/>
      <path id="Path_908270" data-name="Path 908270" d="M128,360h13.647v10.235H128Z" transform="translate(-114.138 -310.81)" fill="#7ab753"/>
      <path id="Path_908271" data-name="Path 908271" d="M47.342,27.206a11.373,11.373,0,0,0-8.608,13.433l.228,1.081a17.059,17.059,0,0,0,11.3,12.669l1.806.6-3.127-9.382.559-.186a3.406,3.406,0,0,0-1.077-6.637H47.8l-.054-.272a5.686,5.686,0,0,1,4.3-6.656l4.115-.95a6.824,6.824,0,0,0,5.289-6.649V24Z" transform="translate(-37.351 -22.575)" fill="#9e694c"/>
      <path id="Path_908272" data-name="Path 908272" d="M123.471,64.324l-3.412,1.137,1.6,5.59a2.274,2.274,0,0,1-1.74,2.855l-2.172.435a1.136,1.136,0,0,0-.9,1.318l2.1,11.555-11.357-6.942-3.454-11.4.559-.186a3.406,3.406,0,0,0-1.076-6.637H103l-.054-.272a5.685,5.685,0,0,1,4.3-6.656l4.114-.95a6.82,6.82,0,0,0,4.263-3.052l2.164,8.655,5.686,3.412Z" transform="translate(-92.55 -45.84)" fill="#f9b7b7"/>
      <g id="Group_1112090" data-name="Group 1112090" transform="translate(46.843 24.17)">
        <path id="Path_908273" data-name="Path 908273" d="M420.549,188.549V188.1a2.275,2.275,0,0,0-.382-1.262L418.275,184l-1.893,2.839A2.274,2.274,0,0,0,416,188.1v.449a2.275,2.275,0,0,0,4.549,0Z" transform="translate(-408.039 -184)" fill="#36c6ff"/>
        <path id="Path_908274" data-name="Path 908274" d="M436.167,322.839,434.275,320l-1.892,2.839A2.275,2.275,0,0,0,432,324.1v.449a2.275,2.275,0,0,0,4.549,0V324.1a2.275,2.275,0,0,0-.382-1.262Z" transform="translate(-421.765 -300.666)" fill="#36c6ff"/>
        <path id="Path_908275" data-name="Path 908275" d="M362.275,424l-1.892,2.839A2.274,2.274,0,0,0,360,428.1v.449a2.275,2.275,0,1,0,4.549,0V428.1a2.275,2.275,0,0,0-.382-1.262Z" transform="translate(-360 -389.882)" fill="#36c6ff"/>
      </g>
      <path id="Path_908276" data-name="Path 908276" d="M0,0H2.543V2.275H0Z" transform="translate(19.027 14.053) rotate(-26.565)" fill="#575757"/>
      <path id="Path_908277" data-name="Path 908277" d="M226.327,286.692l-9.259,2.837a13.632,13.632,0,0,0-6.178-8.574l-3.84-2.347,14.971-3.422c.038-.009.075-.017.112-.027Z" transform="translate(-181.95 -238.031)" fill="#7ab753"/>
      <path id="Path_908278" data-name="Path 908278" d="M0,0H2.543V2.275H0Z" transform="translate(19.027 14.053) rotate(-26.565)"/>
      <path id="Path_908279" data-name="Path 908279" d="M133.647,369.1H122.275V360H120v11.373h1.137v7.961h2.275v-7.961h9.1v7.961h2.275v-7.961h1.137V360h-2.275Z" transform="translate(-107.275 -310.81)"/>
      <path id="Path_908280" data-name="Path 908280" d="M427.412,305.578l-2.839,4.258a3.4,3.4,0,0,0-.573,1.892v.449a3.412,3.412,0,1,0,6.824,0v-.449a3.4,3.4,0,0,0-.573-1.892Zm1.137,6.6a1.137,1.137,0,0,1-2.275,0v-.449a1.135,1.135,0,0,1,.191-.631l.946-1.419.946,1.419a1.134,1.134,0,0,1,.191.631Z" transform="translate(-368.059 -264.125)"/>
      <path id="Path_908281" data-name="Path 908281" d="M355.412,409.578l-2.839,4.258a3.4,3.4,0,0,0-.573,1.892v.449a3.412,3.412,0,1,0,6.824,0v-.449a3.4,3.4,0,0,0-.573-1.892Zm1.137,6.6a1.137,1.137,0,1,1-2.274,0v-.449a1.134,1.134,0,0,1,.191-.631l.946-1.419.946,1.419a1.134,1.134,0,0,1,.191.631Z" transform="translate(-306.294 -353.341)"/>
      <path id="Path_908282" data-name="Path 908282" d="M414.824,176.177v-.449a3.4,3.4,0,0,0-.573-1.892l-2.839-4.258-2.839,4.258a3.4,3.4,0,0,0-.573,1.892v.449a3.412,3.412,0,0,0,6.824,0Zm-4.549,0v-.449a1.134,1.134,0,0,1,.191-.631l.946-1.419.946,1.419a1.134,1.134,0,0,1,.191.631v.449a1.137,1.137,0,0,1-2.275,0Z" transform="translate(-354.334 -147.458)"/>
      <path id="Path_908283" data-name="Path 908283" d="M79.794,35.445l11.837-4.553a3.406,3.406,0,0,0,2.012-4.263l-2.005-6.016a3.412,3.412,0,0,0-4.316-2.158L63.264,26.474a3.428,3.428,0,0,0-2.158,2.158l-.329.988L56.71,27.18l-1.935-7.739a7.97,7.97,0,0,0,.946-3.779V13.978L40.226,17.5a12.51,12.51,0,0,0-9.469,14.776l.228,1.081A18.261,18.261,0,0,0,43.037,46.87l.9.3.269.9a23.718,23.718,0,0,0-6.678,16.563V82.5H39.8V64.629a21.456,21.456,0,0,1,5.866-14.8l13.167,8.047a12.587,12.587,0,0,1,5.987,10.674V82.5h2.275V68.547a14.55,14.55,0,0,0-.172-2.215l11.554-3.611a7.961,7.961,0,0,0,5.388-9.363ZM75.387,24.831l.347,1.389a1.137,1.137,0,0,1-.7,1.341l-4.811,1.8a1.137,1.137,0,0,1-1.5-.789l-.351-1.4ZM62.545,33.282V31.509l.719-2.158a1.143,1.143,0,0,1,.719-.719l2.218-.739.309,1.234a3.413,3.413,0,0,0,4.508,2.367l4.811-1.8a3.41,3.41,0,0,0,2.112-4.022l-.39-1.559,10.49-3.5a1.138,1.138,0,0,1,1.438.719l2.005,6.016a1.135,1.135,0,0,1-.671,1.421l-12.733,4.9-2.311.77a3.412,3.412,0,0,0-4.707-1.819l-.627.314a3.411,3.411,0,0,0-1.81,3.766l.137.639-2.973.595a1.136,1.136,0,0,1-1.027-.311L62.852,35.71l-2.8.934-.66-2.311ZM43.131,44.489a15.982,15.982,0,0,1-9.92-11.6l-.228-1.081a10.235,10.235,0,0,1,7.747-12.089l12.592-2.862A5.657,5.657,0,0,1,49.039,21.2l-4.115.95a6.791,6.791,0,0,0-5.157,7.987L40,31.325h1.552a2.269,2.269,0,0,1,.717,4.421l-1.606.535ZM53.665,44l1.646,9.055L46.45,47.64l-2.978-9.927a4.543,4.543,0,0,0-1.557-8.649,4.524,4.524,0,0,1,3.52-4.7l4.115-.95a7.971,7.971,0,0,0,3.439-1.744l1.743,6.972,5.188,3.113L56.6,32.865,58.5,39.5a1.137,1.137,0,0,1-.871,1.428l-2.172.434A2.285,2.285,0,0,0,53.665,44Zm2.238-.407,2.172-.434a3.412,3.412,0,0,0,2.611-4.283l-.012-.043,1.564-.521.917.917a3.407,3.407,0,0,0,3.082.933l3-.6,1.952,9.111a1.139,1.139,0,0,1-.874,1.35L57.569,52.755ZM66.4,64.112a14.871,14.871,0,0,0-6.383-8.18l-1.667-1.019L69.94,52.43l3.454,9.5ZM77.8,60.55l-2.232.7L72.084,51.67A3.406,3.406,0,0,0,73.416,48.2L70.85,36.221a1.137,1.137,0,0,1,.6-1.255l.627-.314a1.137,1.137,0,0,1,1.588.658,2.114,2.114,0,0,0,2.67,1.335l1.3-.433,4.012,17.651A5.716,5.716,0,0,1,77.8,60.55Z" transform="translate(-30.487 -13.978)"/>
    </g>
  </g>
</svg>
