<svg xmlns="http://www.w3.org/2000/svg" xmlns:xlink="http://www.w3.org/1999/xlink" width="136" height="136" viewBox="0 0 136 136">
  <defs>
    <filter id="Ellipse_12618" x="0" y="0" width="136" height="136" filterUnits="userSpaceOnUse">
      <feOffset dy="3" input="SourceAlpha"/>
      <feGaussianBlur stdDeviation="3" result="blur"/>
      <feFlood flood-opacity="0.161"/>
      <feComposite operator="in" in2="blur"/>
      <feComposite in="SourceGraphic"/>
    </filter>
  </defs>
  <g id="Group_1112324" data-name="Group 1112324" transform="translate(-690.963 -5972.595)">
    <g transform="matrix(1, 0, 0, 1, 690.96, 5972.59)" filter="url(#Ellipse_12618)">
      <circle id="Ellipse_12618-2" data-name="Ellipse 12618" cx="59" cy="59" r="59" transform="translate(9 6)" fill="#fff"/>
    </g>
    <g id="tanque" transform="translate(728.092 6005)">
      <path id="Path_908314" data-name="Path 908314" d="M65.483,49.779V93.33H40.421V49.779a1.393,1.393,0,0,1,.952-1.321l7.4-2.467V41.813a1.392,1.392,0,0,1,1.392-1.392h5.569a1.392,1.392,0,0,1,1.392,1.392V45.99l7.4,2.467A1.392,1.392,0,0,1,65.483,49.779Z" transform="translate(-35.2 -35.2)" fill="#5d7eac"/>
      <path id="Path_908315" data-name="Path 908315" d="M206.282,107.491v43.552H202.1V105.1l3.225,1.075A1.392,1.392,0,0,1,206.282,107.491Z" transform="translate(-175.998 -91.52)" fill="#344966"/>
      <path id="Path_908316" data-name="Path 908316" d="M259.5,164.1v32.488H234.442V164.1a1.392,1.392,0,0,1,.952-1.321l11.139-3.713a1.394,1.394,0,0,1,.881,0l11.139,3.713A1.392,1.392,0,0,1,259.5,164.1Z" transform="translate(-204.158 -138.453)" fill="#bfbfbf"/>
      <path id="Path_908317" data-name="Path 908317" d="M72.8,135.006H64.451v-6.962a1.392,1.392,0,0,1,1.392-1.392h5.569a1.392,1.392,0,0,1,1.392,1.392Zm13.924,33.416H81.159V135.935a1.393,1.393,0,0,0-.952-1.321l-3.225-1.075v34.884H31.034a1.392,1.392,0,0,0-1.392,1.392v5.569H88.121v-5.57A1.392,1.392,0,0,0,86.728,168.423Z" transform="translate(-25.813 -110.292)" fill="#999"/>
      <path id="Path_908318" data-name="Path 908318" d="M65.483,78.447v1.781H52.952V122H45.99V80.229H40.421V78.448a1.393,1.393,0,0,1,.952-1.321l11.139-3.713a1.394,1.394,0,0,1,.881,0l11.139,3.713A1.392,1.392,0,0,1,65.483,78.447Z" transform="translate(-35.2 -63.868)" fill="#809ded"/>
      <path id="Path_908319" data-name="Path 908319" d="M259.5,164.095v1.856H246.972v30.632H240.01V165.951h-5.569v-1.856a1.393,1.393,0,0,1,.952-1.321l11.139-3.713a1.393,1.393,0,0,1,.881,0l11.139,3.713A1.392,1.392,0,0,1,259.5,164.095Z" transform="translate(-204.158 -138.452)" fill="#e2e2e2"/>
      <path id="Path_908320" data-name="Path 908320" d="M65.092,64.048h-1.74V59.523a2.44,2.44,0,0,0-1.392-2.2V24.714a1.044,1.044,0,0,0-2.088,0v1.8a1.042,1.042,0,0,0-.348-.059H56.39v-.812a2.434,2.434,0,0,0-1.666-2.312L48.036,21.1V17.753A2.439,2.439,0,0,0,45.6,15.316h-1.74V3.829A3.833,3.833,0,0,0,40.03,0H20.537a3.833,3.833,0,0,0-3.829,3.829v.348h-1.74a2.439,2.439,0,0,0-2.437,2.437v3.424L5.843,12.267a2.434,2.434,0,0,0-1.666,2.312V57.322a2.44,2.44,0,0,0-1.392,2.2v4.525H1.044a1.044,1.044,0,1,0,0,2.088H9.4a1.044,1.044,0,1,0,0-2.088H4.873V59.523a.349.349,0,0,1,.348-.348H46.992a1.044,1.044,0,0,0,0-2.088H36.9V35.853a1.044,1.044,0,1,0-2.088,0V57.086H31.328V35.853a1.044,1.044,0,0,0-2.088,0V57.086h-17.4V24.714a1.044,1.044,0,0,0-2.088,0V57.086H6.266V14.579a.348.348,0,0,1,.238-.33l7.38-2.46.045-.015,3.715-1.238a.351.351,0,0,1,.22,0l3.714,1.238.045.015L29,14.249a.348.348,0,0,1,.238.33v.737H9.4a1.044,1.044,0,1,0,0,2.088H29.239V31.676a1.044,1.044,0,1,0,2.088,0V25.642a.348.348,0,0,1,.238-.33L42.7,21.6a.35.35,0,0,1,.22,0l11.139,3.713a.348.348,0,0,1,.238.33v.812H34.461a1.044,1.044,0,0,0,0,2.088H54.3V57.086H51.169a1.044,1.044,0,1,0,0,2.088h9.747a.349.349,0,0,1,.348.348v4.525H13.575a1.044,1.044,0,0,0,0,2.088H65.092a1.044,1.044,0,1,0,0-2.088ZM20.885,9.342l-2.362-.787a2.451,2.451,0,0,0-1.541,0l-2.362.787V6.614a.349.349,0,0,1,.348-.348h5.569a.349.349,0,0,1,.348.348V9.342Zm16.708,8.411V21.1L31.328,23.19V14.579a2.434,2.434,0,0,0-1.666-2.312l-6.688-2.229V6.614a2.439,2.439,0,0,0-2.437-2.437H18.8V3.829a1.742,1.742,0,0,1,1.74-1.74H40.03a1.742,1.742,0,0,1,1.74,1.74V15.316H40.03A2.439,2.439,0,0,0,37.594,17.753Zm8.354,2.653-2.362-.787a2.453,2.453,0,0,0-1.541,0l-2.362.787V17.753a.349.349,0,0,1,.348-.348H45.6a.349.349,0,0,1,.348.348v2.653ZM59.871,57.086H56.39V50.821h3.133a1.043,1.043,0,0,0,.348-.059Zm0-8.295a1.045,1.045,0,0,0-.348-.059H56.39V45.251h3.481v3.54Zm0-5.629H56.39V39.682h3.481Zm0-5.569H56.39V34.113h3.481Zm0-5.569H56.39V28.543h3.133a1.042,1.042,0,0,0,.348-.059Z"/>
    </g>
  </g>
</svg>
