<svg xmlns="http://www.w3.org/2000/svg" xmlns:xlink="http://www.w3.org/1999/xlink" width="136" height="136" viewBox="0 0 136 136">
  <defs>
    <filter id="Ellipse_12618" x="0" y="0" width="136" height="136" filterUnits="userSpaceOnUse">
      <feOffset dy="3" input="SourceAlpha"/>
      <feGaussianBlur stdDeviation="3" result="blur"/>
      <feFlood flood-opacity="0.161"/>
      <feComposite operator="in" in2="blur"/>
      <feComposite in="SourceGraphic"/>
    </filter>
  </defs>
  <g id="Group_1112327" data-name="Group 1112327" transform="translate(-1005.963 -5971.932)">
    <g transform="matrix(1, 0, 0, 1, 1005.96, 5971.93)" filter="url(#Ellipse_12618)">
      <circle id="Ellipse_12618-2" data-name="Ellipse 12618" cx="59" cy="59" r="59" transform="translate(9 6)" fill="#fff"/>
    </g>
    <g id="agua_1_" data-name="agua (1)" transform="translate(1020.463 6006.323)">
      <path id="Path_908321" data-name="Path 908321" d="M386.163,394.587h-8.37L376,380h11.957Z" transform="translate(-308.152 -334.565)" fill="#fff"/>
      <path id="Path_908322" data-name="Path 908322" d="M215.565,54.783h-7.174A2.391,2.391,0,0,1,206,52.391V50h7.174a2.391,2.391,0,0,1,2.391,2.391Z" transform="translate(-158.478 -44.022)" fill="#cbf4fb"/>
      <path id="Path_908323" data-name="Path 908323" d="M255.565,94.783h-7.174A2.391,2.391,0,0,1,246,92.391V90h7.174a2.391,2.391,0,0,1,2.391,2.391Z" transform="translate(-193.696 -79.239)" fill="#fff"/>
      <path id="Path_908324" data-name="Path 908324" d="M295.565,134.783h-7.174A2.391,2.391,0,0,1,286,132.391V130h7.174a2.391,2.391,0,0,1,2.391,2.391Z" transform="translate(-228.913 -114.457)" fill="#cbf4fb"/>
      <path id="Path_908325" data-name="Path 908325" d="M335.565,174.783h-7.174A2.391,2.391,0,0,1,326,172.391V170h7.174a2.391,2.391,0,0,1,2.391,2.391Z" transform="translate(-264.13 -149.674)" fill="#fff"/>
      <path id="Path_908326" data-name="Path 908326" d="M366,210v2.391a2.391,2.391,0,0,0,2.391,2.391h2.391v4.783h4.783v-7.174A2.391,2.391,0,0,0,373.174,210Z" transform="translate(-299.348 -184.891)" fill="#cbf4fb"/>
      <path id="Path_908327" data-name="Path 908327" d="M46.761,14.783V37.739L36,42.88V68.826H62.3V42.88L51.543,37.739V14.783h9.565V12.391A2.391,2.391,0,0,0,58.717,10H51.543A4.783,4.783,0,0,0,46.761,14.783Z" transform="translate(-8.804 -8.804)" fill="#fff"/>
      <g id="Group_1112092" data-name="Group 1112092" transform="translate(33.174 19.37)">
        <path id="Path_908328" data-name="Path 908328" d="M392.195,425.32l-1.128,9.168H382.7l-1.128-9.168a7.275,7.275,0,0,1,1.964.739,6.7,6.7,0,0,0,6.7,0A7.275,7.275,0,0,1,392.195,425.32Z" transform="translate(-346.23 -393.836)" fill="#cbf4fb"/>
        <path id="Path_908329" data-name="Path 908329" d="M86,162h4.783v4.783H86Z" transform="translate(-86 -162)" fill="#cbf4fb"/>
        <path id="Path_908330" data-name="Path 908330" d="M166,162h4.783v4.783H166Z" transform="translate(-156.435 -162)" fill="#cbf4fb"/>
        <path id="Path_908331" data-name="Path 908331" d="M256,422h4.783v4.783H256Z" transform="translate(-235.674 -390.913)" fill="#cbf4fb"/>
      </g>
      <path id="Path_908332" data-name="Path 908332" d="M62.3,381.789v12.8H36v-12.8a7.3,7.3,0,0,0,3.109-.892,6.7,6.7,0,0,1,6.7,0,6.7,6.7,0,0,0,6.7,0,6.7,6.7,0,0,1,6.7,0A7.3,7.3,0,0,0,62.3,381.789Z" transform="translate(-8.804 -334.565)" fill="#98eaf9"/>
      <path id="Path_908333" data-name="Path 908333" d="M410.783,333.587a2.391,2.391,0,1,1-4.783,0c0-1.321,2.391-3.587,2.391-3.587S410.783,332.266,410.783,333.587Z" transform="translate(-334.565 -290.543)" fill="#98eaf9"/>
      <g id="Group_1112093" data-name="Group 1112093" transform="translate(26 0)">
        <path id="Path_908334" data-name="Path 908334" d="M380.048,326.382a1.2,1.2,0,0,0-.9-.4h-2.6a3.571,3.571,0,0,0,.206-1.2c0-1.7-2.116-3.84-2.764-4.455a1.2,1.2,0,0,0-1.645,0c-.649.615-2.764,2.752-2.764,4.455a3.571,3.571,0,0,0,.206,1.2h-2.6a1.2,1.2,0,0,0-1.187,1.342l1.793,14.587a1.2,1.2,0,0,0,1.187,1.05h8.37a1.2,1.2,0,0,0,1.187-1.05l1.793-14.587A1.2,1.2,0,0,0,380.048,326.382Zm-6.873-3.454a5.133,5.133,0,0,1,1.2,1.857,1.2,1.2,0,0,1-2.391,0A5.147,5.147,0,0,1,373.175,322.928Zm3.126,17.638h-6.254l-.758-6.164a7.892,7.892,0,0,0,7.77,0Zm1.1-8.911a7.9,7.9,0,0,0-1.489.651,5.5,5.5,0,0,1-5.468,0,7.912,7.912,0,0,0-1.488-.651l-.4-3.285H377.8Z" transform="translate(-325.348 -281.74)"/>
        <path id="Path_908335" data-name="Path 908335" d="M70.239,31.087v3.587a1.2,1.2,0,0,0,1.2,1.2h4.783a1.2,1.2,0,0,0,1.2-1.2V27.5a3.591,3.591,0,0,0-3.587-3.587h-1.2v-1.2a3.591,3.591,0,0,0-3.587-3.587h-1.2v-1.2a3.591,3.591,0,0,0-3.587-3.587h-1.2v-1.2a3.591,3.591,0,0,0-3.587-3.587h-1.2V8.37A3.591,3.591,0,0,0,54.7,4.783H53.5v-1.2A3.588,3.588,0,0,0,49.913,0H42.739a5.974,5.974,0,0,0-5.978,5.978v12.2H33.174a1.2,1.2,0,0,0-1.2,1.2v4.783a1.2,1.2,0,0,0,1.2,1.2h3.587V28.18L26.68,33A1.2,1.2,0,0,0,26,34.076V60.022a1.2,1.2,0,0,0,1.2,1.2H53.5a1.2,1.2,0,0,0,1.2-1.2V56.435h3.587a1.2,1.2,0,0,0,1.2-1.2V50.457a1.2,1.2,0,0,0-1.2-1.2H54.7V44.806a1.2,1.2,0,1,0-2.391,0v1.019a6.126,6.126,0,0,1-1.3-.52,8.5,8.5,0,0,0-2.253-.864,4.046,4.046,0,0,0,.085-.8A4.538,4.538,0,0,0,48,41.134a2.209,2.209,0,0,1-.361-1.08,2.8,2.8,0,0,1,.406-1.263,1.2,1.2,0,0,0-2.007-1.3,5.2,5.2,0,0,0-.79,2.563,4.538,4.538,0,0,0,.834,2.507,2.209,2.209,0,0,1,.361,1.08,2.058,2.058,0,0,1-.119.635A8.6,8.6,0,0,0,43.086,45.3a5.823,5.823,0,0,1-.957.415c.007-.093.012-.188.012-.283a4.538,4.538,0,0,0-.834-2.507,2.209,2.209,0,0,1-.361-1.08,2.8,2.8,0,0,1,.406-1.263,1.2,1.2,0,0,0-2.007-1.3,5.2,5.2,0,0,0-.79,2.563,4.538,4.538,0,0,0,.834,2.507,2.209,2.209,0,0,1,.361,1.08,1.95,1.95,0,0,1-.091.548,6.266,6.266,0,0,1-2.045-.677,8.5,8.5,0,0,0-2.253-.864,4.046,4.046,0,0,0,.085-.8,4.538,4.538,0,0,0-.834-2.507,2.208,2.208,0,0,1-.361-1.08,2.8,2.8,0,0,1,.406-1.263,1.2,1.2,0,0,0-2.007-1.3,5.2,5.2,0,0,0-.79,2.563,4.538,4.538,0,0,0,.834,2.507,2.209,2.209,0,0,1,.361,1.08,2.058,2.058,0,0,1-.119.635,8.6,8.6,0,0,0-3.245,1.029,6.082,6.082,0,0,1-1.3.52v-11l8.37-4v2.887a1.2,1.2,0,0,0,2.391,0V5.978a3.6,3.6,0,0,1,3.587-3.587h7.174a1.2,1.2,0,0,1,1.2,1.2v1.2h-8.37a1.2,1.2,0,0,0-1.2,1.2V33.717a1.2,1.2,0,0,0,2.391,0V30.831l9.022,4.311a1.185,1.185,0,0,0,.514.117,1.2,1.2,0,0,0,.517-2.274,0,0,0,0,0,0,0l-10.052-4.8V25.348h3.587a1.2,1.2,0,0,0,1.2-1.2V19.37a1.2,1.2,0,0,0-1.2-1.2H43.935v-11h2.391v1.2a3.591,3.591,0,0,0,3.587,3.587h1.2v1.2A3.591,3.591,0,0,0,54.7,16.739h1.2v1.2a3.591,3.591,0,0,0,3.587,3.587h1.2v1.2A3.591,3.591,0,0,0,64.261,26.3h1.2v1.2a3.591,3.591,0,0,0,3.587,3.587ZM54.7,51.652h2.391v2.391H54.7ZM30.914,47.36a5.5,5.5,0,0,1,5.473,0,7.892,7.892,0,0,0,7.919,0,5.5,5.5,0,0,1,5.473,0,8.581,8.581,0,0,0,2.527.922V58.826H28.391V48.28A8.572,8.572,0,0,0,30.914,47.36Zm5.847-24.4H34.37V20.565h2.391Zm9.565-2.391v2.391H43.935V20.565Zm3.587-11a1.2,1.2,0,0,1-1.2-1.2v-1.2H54.7a1.2,1.2,0,0,1,1.2,1.2v1.2ZM54.7,14.348a1.2,1.2,0,0,1-1.2-1.2v-1.2h5.978a1.2,1.2,0,0,1,1.2,1.2v1.2Zm4.783,4.783a1.2,1.2,0,0,1-1.2-1.2v-1.2h5.978a1.2,1.2,0,0,1,1.2,1.2v1.2Zm4.783,4.783a1.2,1.2,0,0,1-1.2-1.2v-1.2h5.978a1.2,1.2,0,0,1,1.2,1.2v1.2ZM67.848,27.5V26.3h5.978a1.2,1.2,0,0,1,1.2,1.2v5.978H72.63V29.891a1.2,1.2,0,0,0-1.2-1.2H69.043A1.2,1.2,0,0,1,67.848,27.5Z" transform="translate(-26 0)"/>
        <path id="Path_908336" data-name="Path 908336" d="M247.2,319.75a1.2,1.2,0,1,0,1.2,1.194A1.2,1.2,0,0,0,247.2,319.75Z" transform="translate(-219.696 -281.519)"/>
      </g>
    </g>
  </g>
</svg>
