<svg xmlns="http://www.w3.org/2000/svg" width="133.426" height="132.191" viewBox="0 0 133.426 132.191">
  <g id="plantando" transform="translate(0.001 -0.5)">
    <path id="Path_909380" data-name="Path 909380" d="M291.9,33.252c-6.626,3.09-30.857,7.846-33.947,1.221s16.131-22.126,22.755-25.216a13.238,13.238,0,1,1,11.191,24Zm0,0" transform="translate(-190.489 -5.555)" fill="#50e199"/>
    <path id="Path_909381" data-name="Path 909381" d="M296.95,34.32a13.123,13.123,0,0,1-5.045,4.12c-6.625,3.087-30.856,7.846-33.945,1.22a3.882,3.882,0,0,1-.323-1.916c8.1,1.916,24.328-1.569,29.563-4.008a13.235,13.235,0,0,0,6.4-17.59c-.18-.385-.376-.757-.589-1.118A13.24,13.24,0,0,1,296.95,34.32Zm0,0" transform="translate(-190.491 -10.742)" fill="#3ad391"/>
    <path id="Path_909382" data-name="Path 909382" d="M186.169,193.179c2.5,1.167,11.651,2.963,12.817.461s-6.09-8.354-8.592-9.52a5,5,0,1,0-4.226,9.059Zm0,0" transform="translate(-135.52 -135.422)" fill="#50e199"/>
    <path id="Path_909383" data-name="Path 909383" d="M198.987,202.589c-1.168,2.5-10.317.706-12.818-.461a4.993,4.993,0,0,1-2.534-6.374,5.116,5.116,0,0,0,.628,1.129,4.955,4.955,0,0,0,1.906,1.552c2.17,1.014,9.339,2.5,11.966,1.241.8,1.128,1.2,2.168.852,2.913Zm0,0" transform="translate(-135.52 -144.371)" fill="#3ad391"/>
    <path id="Path_909384" data-name="Path 909384" d="M103.24,385.821a37.361,37.361,0,0,0-8.364.95A46.567,46.567,0,0,0,35.132,395.1a24.6,24.6,0,0,0-27.22,11.5,2.914,2.914,0,0,0,2.525,4.372H134.108a2.916,2.916,0,0,0,2.623-4.189,37.223,37.223,0,0,0-33.492-20.966Zm0,0" transform="translate(-5.557 -280.239)" fill="#c87c5b"/>
    <path id="Path_909385" data-name="Path 909385" d="M134.11,410.976H133.7a37.235,37.235,0,0,0-37.733-15.115,2.883,2.883,0,0,1-2.049-.356,46.563,46.563,0,0,0-57.689,7.725,2.911,2.911,0,0,1-2.626.863,24.6,24.6,0,0,0-21.9,6.882H10.436A2.914,2.914,0,0,1,7.913,406.6a24.6,24.6,0,0,1,27.22-11.5,46.562,46.562,0,0,1,59.743-8.328,37.246,37.246,0,0,1,41.856,20.014,2.916,2.916,0,0,1-2.622,4.19Zm0,0" transform="translate(-5.558 -280.24)" fill="#a46243"/>
    <path id="Path_909386" data-name="Path 909386" d="M162.2,260.242v-3.176a6.723,6.723,0,0,1,6.723-6.723h14.729v9.9Zm0,0" transform="translate(-119.928 -184.735)" fill="#eea97b"/>
    <path id="Path_909387" data-name="Path 909387" d="M288.952,260.242v-3.176a6.723,6.723,0,0,0-6.724-6.723H267.5v9.9Zm0,0" transform="translate(-197.791 -184.735)" fill="#f4bb91"/>
    <path id="Path_909388" data-name="Path 909388" d="M249.545,119.023h-7.033V32.665a3.517,3.517,0,1,1,7.033,0Zm0,0" transform="translate(-179.314 -21.182)" fill="#a46243"/>
    <path id="Path_909389" data-name="Path 909389" d="M74.578,283.883H36.036v22.7h38.44Zm0,0" transform="translate(-26.646 -209.534)" fill="#eea97b"/>
    <path id="Path_909390" data-name="Path 909390" d="M178.947,286.53a5.121,5.121,0,0,1-1.713,9.947h-.012a5.122,5.122,0,0,1-1.816,9.911h-.013a5.122,5.122,0,0,1,3.3,4.933,5.191,5.191,0,0,1-5.226,4.977H161.14a12.625,12.625,0,0,1-12.625-12.625V283.8a7.476,7.476,0,0,1,7.476-7.475h22.34a5.122,5.122,0,0,1,.616,10.206Zm0,0" transform="translate(-109.813 -203.945)" fill="#f4bb91"/>
    <path id="Path_909391" data-name="Path 909391" d="M328.078,283.883H366.62v22.7H328.18Zm0,0" transform="translate(-242.582 -209.534)" fill="#f4bb91"/>
    <path id="Path_909392" data-name="Path 909392" d="M233.932,286.53a5.121,5.121,0,0,0,1.712,9.947h.012a5.122,5.122,0,0,0,1.817,9.911h.012a5.121,5.121,0,0,0-3.3,4.933,5.19,5.19,0,0,0,5.226,4.977H251.74a12.624,12.624,0,0,0,12.624-12.625V283.8a7.475,7.475,0,0,0-7.475-7.475H234.547a5.122,5.122,0,0,0-.615,10.206Zm0,0" transform="translate(-169.639 -203.945)" fill="#fedbbc"/>
    <path id="Path_909393" data-name="Path 909393" d="M135.707,75.229c4.9,2.283,22.8,5.8,25.089.9s-11.921-16.352-16.818-18.636a9.784,9.784,0,0,0-8.271,17.734Zm0,0" transform="translate(-96.165 -41.463)" fill="#50e199"/>
    <path id="Path_909394" data-name="Path 909394" d="M160.794,79.333c-2.283,4.9-20.191,1.38-25.088-.9a9.783,9.783,0,0,1-.419-17.525c-.073.138-.144.277-.209.419a9.785,9.785,0,0,0,4.732,13c3.727,1.738,14.984,4.188,21.16,3.1a3.115,3.115,0,0,1-.177,1.9Zm0,0" transform="translate(-96.164 -44.664)" fill="#3ad391"/>
    <path id="Path_909395" data-name="Path 909395" d="M275.308,164.841c-2.5,1.167-11.65,2.962-12.817.461s6.09-8.354,8.592-9.521a5,5,0,1,1,4.226,9.06Zm0,0" transform="translate(-193.994 -114.468)" fill="#50e199"/>
    <path id="Path_909396" data-name="Path 909396" d="M277.211,172.235a4.924,4.924,0,0,1-1.9,1.553c-2.5,1.168-11.651,2.962-12.818.461-.347-.745.052-1.786.852-2.913,2.626,1.256,9.8-.227,11.966-1.238a4.956,4.956,0,0,0,1.9-1.555,5.053,5.053,0,0,0,.628-1.129,4.994,4.994,0,0,1-.628,4.821Zm0,0" transform="translate(-193.994 -123.417)" fill="#3ad391"/>
    <path id="Path_909397" data-name="Path 909397" d="M132.931,125.693a39.1,39.1,0,0,0-8.963-11.935,1.955,1.955,0,0,0-2.624,2.9,35.228,35.228,0,0,1,8.072,10.747.933.933,0,0,1-.05.927.949.949,0,0,1-.815.452H4.878a.947.947,0,0,1-.835-.485.919.919,0,0,1,0-.951A22.649,22.649,0,0,1,29.1,116.756a1.958,1.958,0,0,0,1.932-.6,44.808,44.808,0,0,1,8.734-7.56,14.561,14.561,0,0,0,11.558,5.708H63.656a7.226,7.226,0,0,0,3.061-.683,7.16,7.16,0,0,0,3.054.683H82.1A14.576,14.576,0,0,0,94.3,107.7c1.123-.108,2.259-.166,3.386-.166a35.308,35.308,0,0,1,16.664,4.182,1.955,1.955,0,0,0,1.851-3.444,39.247,39.247,0,0,0-18.515-4.647c-.515,0-1.03.014-1.546.035a14.539,14.539,0,0,0,.543-3.932V99h27.359a1.954,1.954,0,0,0,0-3.909H96.679V79.855a9.375,9.375,0,0,0-.7-3.552h28.055a1.954,1.954,0,1,0,0-3.909H93.115v-.062a8.687,8.687,0,0,0-8.677-8.678H72.185V54.049l.133,0a22.606,22.606,0,0,0,2.287-.127,27.731,27.731,0,0,0,7.535-1.779,6.952,6.952,0,0,0-5.877-12.6,22.263,22.263,0,0,0-4.078,2.745V33.769a29.4,29.4,0,0,0,5.366.439,80.393,80.393,0,0,0,19.006-2.786,1.955,1.955,0,1,0-1.032-3.771c-7.619,2.086-18,3.438-23.34,2.124v-8.6c4.984-6.339,14.663-13.742,18.867-15.7a11.283,11.283,0,0,1,11.911,18.96,1.954,1.954,0,1,0,2.472,3.028A15.192,15.192,0,0,0,89.4,1.931C85.554,3.726,77.867,9.31,72.186,15.246V11.483a5.471,5.471,0,1,0-10.942,0V23.933q-.466-.476-.97-.966c-3.712-3.6-8.715-7.344-11.636-8.706a11.737,11.737,0,0,0-9.92,21.274c2.921,1.362,9,2.788,14.149,3.318a42.1,42.1,0,0,0,4.267.238,21.861,21.861,0,0,0,4.111-.344V50.933A26.869,26.869,0,0,0,55.7,46.927a6.951,6.951,0,1,0-5.876,12.6,28.379,28.379,0,0,0,9.717,1.907,14.262,14.262,0,0,0,1.7-.1v2.318H48.991a8.687,8.687,0,0,0-8.678,8.677v.063H9.39a1.954,1.954,0,0,0,0,3.909H37.445a9.371,9.371,0,0,0-.7,3.552v15.24H29.709a1.954,1.954,0,0,0,0,3.909h7.038v.725a14.482,14.482,0,0,0,1.072,5.477,48.648,48.648,0,0,0-8.921,7.5A26.556,26.556,0,0,0,.665,125.381a4.868,4.868,0,0,0,4.213,7.31H128.551a4.869,4.869,0,0,0,4.38-7ZM40.656,99.729V79.855a5.527,5.527,0,0,1,5.521-5.521H58.584a7.057,7.057,0,0,0-.02,6.3H54.3a1.954,1.954,0,1,0,0,3.909h5.241a7.036,7.036,0,0,0,.14,6.04h-7.53a1.954,1.954,0,1,0,0,3.909h9.21a6.991,6.991,0,0,0,.149,6H50.631a1.954,1.954,0,0,0,0,3.909H63.189a7.058,7.058,0,0,0-.6,3.032,6.878,6.878,0,0,0,.768,2.969H51.327a10.682,10.682,0,0,1-10.67-10.669ZM82.1,110.4H69.771a3.244,3.244,0,0,1-3.273-3.077,3.173,3.173,0,0,1,1.757-2.925H82.8a1.954,1.954,0,1,0,0-3.909H67.836a3.166,3.166,0,0,1-1.409-6H81.274a1.954,1.954,0,0,0,0-3.909H66.007a3.166,3.166,0,0,1-1.331-6.038H79.126a1.954,1.954,0,0,0,0-3.909H64.443a3.165,3.165,0,0,1,.466-6.3H87.25a5.527,5.527,0,0,1,5.52,5.52V99.729A10.683,10.683,0,0,1,82.1,110.4Zm2.337-42.837a4.774,4.774,0,0,1,4.426,3,9.485,9.485,0,0,0-1.614-.14H72.185V67.563ZM73.272,46.511a23.716,23.716,0,0,1,4.644-3.426A3.044,3.044,0,0,1,80.487,48.6a23.769,23.769,0,0,1-5.609,1.355,11.735,11.735,0,0,1-4.463-.017,11.761,11.761,0,0,1,2.856-3.428ZM53.265,34.965a49.162,49.162,0,0,1-12.9-2.971A7.828,7.828,0,1,1,46.985,17.8a49.128,49.128,0,0,1,10.565,7.97c4.582,4.443,5.683,7.26,5.306,8.068S59.614,35.616,53.265,34.965Zm13.135.529c.849-1.82.427-4.083-1.248-6.76V11.483a1.562,1.562,0,1,1,3.124,0V46.105c-1.756,2.186-2.267,4.016-1.549,5.554a3.473,3.473,0,0,0,1.549,1.6V70.425H65.152V37.1a4.628,4.628,0,0,0,1.248-1.6ZM51.475,55.985a3.043,3.043,0,1,1,2.572-5.515,23.831,23.831,0,0,1,7.195,6.3v.644c-2.078.434-7.581-.409-9.767-1.429ZM48.989,67.563H61.243v2.863H46.178a9.484,9.484,0,0,0-1.614.14,4.774,4.774,0,0,1,4.426-3Zm0,0" transform="translate(0 0)"/>
    <path id="Path_909398" data-name="Path 909398" d="M385.249,458.848h-.014a1.955,1.955,0,0,0-.013,3.909h.049a1.955,1.955,0,0,0,.014-3.909Zm0,0" transform="translate(-283.4 -338.904)"/>
    <path id="Path_909399" data-name="Path 909399" d="M366.69,449.9h-.014a1.955,1.955,0,0,0-.013,3.909h.049a1.955,1.955,0,0,0,.014-3.909Zm0,0" transform="translate(-269.677 -332.289)"/>
    <path id="Path_909400" data-name="Path 909400" d="M158.418,449.9H158.4a1.955,1.955,0,0,0-.014,3.909h.05a1.955,1.955,0,0,0,.013-3.909Zm0,0" transform="translate(-115.68 -332.289)"/>
    <path id="Path_909401" data-name="Path 909401" d="M41.168,367.4a1.954,1.954,0,0,0,0-3.909H30.49a1.954,1.954,0,0,0,0,3.909Zm0,0" transform="translate(-21.1 -268.397)"/>
  </g>
</svg>
