<svg xmlns="http://www.w3.org/2000/svg" width="118" height="106.831" viewBox="0 0 118 106.831">
  <g id="banano" transform="translate(0 -3.029)">
    <g id="Group_1112474" data-name="Group 1112474" transform="translate(41.633 44.334)">
      <path id="Path_909487" data-name="Path 909487" d="M54.827,80.918a400.21,400.21,0,0,1-4.508-53.9c-3.132-.928-19.118-.928-22.249,0a400.235,400.235,0,0,1-4.508,53.9,6.527,6.527,0,0,0,6.423,7.646H48.4a6.527,6.527,0,0,0,6.423-7.646Z" transform="translate(-21.831 -24.678)" fill="#66b941"/>
      <path id="Path_909488" data-name="Path 909488" d="M43.653,88.569H29.983a6.527,6.527,0,0,1-6.425-7.638,400.5,400.5,0,0,0,4.524-53.89c2.032-.623,9.637-.852,15.5-.656C38.31,32.221,34.7,43.956,34.7,57.462c0,13.571,3.639,25.306,8.949,31.108Z" transform="translate(-21.831 -24.684)" opacity="0.15"/>
      <path id="Path_909489" data-name="Path 909489" d="M49.155,90.957H30.736a8.133,8.133,0,0,1-6.217-2.878A8.22,8.22,0,0,1,22.7,81.4a396.785,396.785,0,0,0,4.486-53.624A1.64,1.64,0,0,1,28.355,26.2c3.468-1.029,19.711-1.026,23.181,0a1.64,1.64,0,0,1,1.172,1.572A397.152,397.152,0,0,0,57.193,81.4a8.206,8.206,0,0,1-1.821,6.678,8.118,8.118,0,0,1-6.217,2.881Zm-18.7-61.83a404.671,404.671,0,0,1-4.525,52.816,4.936,4.936,0,0,0,1.093,4.017,4.855,4.855,0,0,0,3.713,1.719H49.155a4.85,4.85,0,0,0,3.713-1.719,4.938,4.938,0,0,0,1.092-4.017,405.028,405.028,0,0,1-4.523-52.816,112.882,112.882,0,0,0-18.983,0Z" transform="translate(-22.581 -25.432)" fill="#101016"/>
    </g>
    <g id="Group_1112477" data-name="Group 1112477" transform="translate(38.222 80.271)">
      <g id="Group_1112475" data-name="Group 1112475" transform="translate(7.455 0.002)">
        <path id="Path_909490" data-name="Path 909490" d="M25.663,72.12H48.648a7.831,7.831,0,0,0,7.732-9.071L54.209,49.512a4.344,4.344,0,0,0-6.157-3.264,43.324,43.324,0,0,0-7.154,4.4A45.59,45.59,0,0,0,25.664,72.12Z" transform="translate(-24.024 -44.174)" fill="#9a5136"/>
        <path id="Path_909491" data-name="Path 909491" d="M49.4,74.51H26.414a1.64,1.64,0,0,1-1.553-2.164A46.848,46.848,0,0,1,40.652,50.1a45.506,45.506,0,0,1,7.43-4.571A5.867,5.867,0,0,1,53.4,45.6,5.993,5.993,0,0,1,56.581,50l2.17,13.538A9.476,9.476,0,0,1,49.4,74.511ZM28.766,71.232H49.4a6.191,6.191,0,0,0,6.114-7.174l-2.17-13.538a2.728,2.728,0,0,0-1.457-2.014,2.605,2.605,0,0,0-2.362-.038A42.1,42.1,0,0,0,42.637,52.7,43.966,43.966,0,0,0,28.766,71.232Z" transform="translate(-24.774 -44.924)" fill="#101016"/>
      </g>
      <g id="Group_1112476" data-name="Group 1112476">
        <path id="Path_909492" data-name="Path 909492" d="M52.437,72.12H29.452a7.831,7.831,0,0,1-7.732-9.071l2.171-13.538a4.344,4.344,0,0,1,6.157-3.264,43.324,43.324,0,0,1,7.154,4.4A45.59,45.59,0,0,1,52.437,72.12Z" transform="translate(-19.981 -44.171)" fill="#ad6340"/>
        <path id="Path_909493" data-name="Path 909493" d="M45.217,72.116H29.45a7.849,7.849,0,0,1-7.736-9.08L23.91,49.5a4.322,4.322,0,0,1,6.13-3.245,41.658,41.658,0,0,1,6.851,4.163c1.213,9.473,4.261,17.308,8.326,21.7Z" transform="translate(-19.984 -44.168)" opacity="0.15"/>
        <path id="Path_909494" data-name="Path 909494" d="M53.187,74.512H30.2a9.469,9.469,0,0,1-9.351-10.97L23.023,50a5.983,5.983,0,0,1,3.184-4.4,5.84,5.84,0,0,1,5.311-.074,45.3,45.3,0,0,1,7.425,4.568,46.9,46.9,0,0,1,15.8,22.251,1.641,1.641,0,0,1-1.553,2.167ZM28.938,48.2a2.654,2.654,0,0,0-1.223.3,2.736,2.736,0,0,0-1.457,2.014L24.087,64.06A6.195,6.195,0,0,0,30.2,71.234H50.837A43.275,43.275,0,0,0,36.956,52.7a41.958,41.958,0,0,0-6.879-4.232,2.6,2.6,0,0,0-1.138-.266Z" transform="translate(-20.731 -44.923)" fill="#101016"/>
      </g>
    </g>
    <g id="Group_1112482" data-name="Group 1112482" transform="translate(0 3.029)">
      <g id="Group_1112478" data-name="Group 1112478" transform="translate(1.74 0.003)">
        <path id="Path_909495" data-name="Path 909495" d="M5.241,20.828,10.683,23a4.934,4.934,0,0,0,4.393-.369l4.242-2.582,1.3,4.793a4.934,4.934,0,0,0,2.934,3.289L51.591,39.305a5.394,5.394,0,0,0,7.38-4.8c.285-11.114-8-22.636-21.2-27.9C24.6,1.356,10.626,4.006,3.187,12.268a5.38,5.38,0,0,0,2.054,8.561Z" transform="translate(-0.195 -2.299)" fill="#75d64c"/>
        <path id="Path_909496" data-name="Path 909496" d="M36.762,6.232c-4.949,5.572-8.293,14.029-8.85,23.633l-4.359-1.737A4.921,4.921,0,0,1,20.6,24.85l-1.278-4.786-4.261,2.557a4.947,4.947,0,0,1-4.393.393l-5.441-2.2A5.37,5.37,0,0,1,3.2,12.263C10.441,4.2,23.88,1.48,36.761,6.232Z" transform="translate(-0.19 -2.304)" opacity="0.15"/>
        <path id="Path_909497" data-name="Path 909497" d="M54.323,42.056a6.985,6.985,0,0,1-2.59-.5L23.7,30.383A6.611,6.611,0,0,1,19.787,26l-.73-2.689-2.382,1.449a6.591,6.591,0,0,1-5.85.49L5.384,23.083a7.061,7.061,0,0,1-4.259-4.971,6.92,6.92,0,0,1,1.6-6.212C10.754,2.98,25.729.476,39.124,5.818c13.611,5.426,22.547,17.265,22.235,29.462A6.993,6.993,0,0,1,58.2,40.9a7.073,7.073,0,0,1-3.875,1.157ZM20.067,19.141a1.64,1.64,0,0,1,1.581,1.21l1.3,4.792a3.322,3.322,0,0,0,1.961,2.2L52.946,38.516a3.709,3.709,0,0,0,3.454-.359,3.654,3.654,0,0,0,1.682-2.971c.272-10.653-8.022-21.481-20.172-26.325S12.289,6.173,5.155,14.1a3.594,3.594,0,0,0-.835,3.275A3.738,3.738,0,0,0,6.6,20.039l5.442,2.169a3.313,3.313,0,0,0,2.932-.245l4.245-2.583a1.634,1.634,0,0,1,.851-.238Z" transform="translate(-0.944 -3.031)" fill="#101016"/>
      </g>
      <g id="Group_1112479" data-name="Group 1112479" transform="translate(55.84)">
        <path id="Path_909498" data-name="Path 909498" d="M84.911,20.828,79.47,23a4.934,4.934,0,0,1-4.393-.369l-4.242-2.582-1.3,4.793A4.934,4.934,0,0,1,66.6,28.129L38.562,39.305a5.394,5.394,0,0,1-7.38-4.8c-.285-11.114,8-22.636,21.2-27.9,13.171-5.25,27.142-2.6,34.581,5.661a5.38,5.38,0,0,1-2.054,8.561Z" transform="translate(-29.536 -2.295)" fill="#66b941"/>
        <path id="Path_909499" data-name="Path 909499" d="M52.128,32.749c0,.361,0,.721.033,1.049l-13.6,5.441a5.377,5.377,0,0,1-7.375-4.786C30.888,23.342,39.18,11.8,52.39,6.56A37.825,37.825,0,0,1,63.272,3.97C56.618,9.8,52.128,20.523,52.128,32.749Z" transform="translate(-29.535 -2.235)" opacity="0.15"/>
        <path id="Path_909500" data-name="Path 909500" d="M37.327,42.058A7.072,7.072,0,0,1,33.453,40.9a6.984,6.984,0,0,1-3.16-5.61C29.98,23.084,38.915,11.245,52.526,5.819,65.926.472,80.9,2.978,88.932,11.906a6.92,6.92,0,0,1,1.594,6.207,7.066,7.066,0,0,1-4.258,4.971l-5.442,2.169a6.6,6.6,0,0,1-5.852-.49l-2.382-1.449L71.864,26a6.608,6.608,0,0,1-3.909,4.381L39.92,41.561a7,7,0,0,1-2.593.5ZM66.921,6.294A35.731,35.731,0,0,0,53.742,8.863C41.591,13.707,33.3,24.536,33.57,35.2a3.645,3.645,0,0,0,1.681,2.961,3.726,3.726,0,0,0,3.456.359L66.739,27.34a3.309,3.309,0,0,0,1.962-2.2L70,20.351a1.639,1.639,0,0,1,2.433-.97l4.242,2.582a3.309,3.309,0,0,0,2.932.246l5.442-2.169a3.733,3.733,0,0,0,2.279-2.667A3.6,3.6,0,0,0,86.5,14.1c-4.59-5.1-11.8-7.809-19.581-7.809Z" transform="translate(-30.286 -3.029)" fill="#101016"/>
      </g>
      <g id="Group_1112480" data-name="Group 1112480" transform="translate(56.783 23.403)">
        <path id="Path_909501" data-name="Path 909501" d="M82.478,50.745l-5.537-1.913a4.934,4.934,0,0,1-3.085-3.149l-1.524-4.726-4.117,2.777a4.934,4.934,0,0,1-4.37.573L35.317,34.449a5.394,5.394,0,0,1-2.451-8.456c7.046-8.6,20.846-11.909,34.28-7.267,13.4,4.63,22.247,15.765,22.481,26.88a5.38,5.38,0,0,1-7.148,5.139Z" transform="translate(-30.049 -14.963)" fill="#75d64c"/>
        <path id="Path_909502" data-name="Path 909502" d="M56,41.512,35.315,34.4a5.4,5.4,0,0,1-2.458-8.457C37.215,20.6,44.165,17.322,52.031,16.7a40.135,40.135,0,0,0-.328,5.31A44.153,44.153,0,0,0,56,41.512Z" transform="translate(-30.055 -14.898)" opacity="0.15"/>
        <path id="Path_909503" data-name="Path 909503" d="M84.983,53.437a6.974,6.974,0,0,1-2.292-.384l-5.535-1.911a6.625,6.625,0,0,1-4.11-4.2l-.855-2.652L69.88,45.852a6.616,6.616,0,0,1-5.823.763L35.531,36.758A7.033,7.033,0,0,1,32.34,25.722c7.74-9.443,22.242-12.565,36.09-7.785,13.634,4.71,23.33,16.387,23.583,28.394a6.828,6.828,0,0,1-2.849,5.74,7.09,7.09,0,0,1-4.181,1.367Zm-11.9-13.36a1.658,1.658,0,0,1,.535.09,1.635,1.635,0,0,1,1.024,1.047l1.524,4.726a3.329,3.329,0,0,0,2.065,2.1l5.532,1.909a3.745,3.745,0,0,0,3.467-.528,3.6,3.6,0,0,0,1.508-3.02c-.224-10.669-9.014-21.1-21.374-25.371S41.642,19.54,34.882,27.793a3.648,3.648,0,0,0-.661,3.34,3.713,3.713,0,0,0,2.38,2.526l28.525,9.858a3.324,3.324,0,0,0,2.923-.383l4.117-2.777a1.636,1.636,0,0,1,.916-.28Z" transform="translate(-30.798 -15.722)" fill="#101016"/>
      </g>
      <g id="Group_1112481" data-name="Group 1112481" transform="translate(0 23.399)">
        <path id="Path_909504" data-name="Path 909504" d="M8.039,50.745l5.537-1.913a4.934,4.934,0,0,0,3.085-3.149l1.524-4.726L22.3,43.733a4.934,4.934,0,0,0,4.37.573L55.2,34.449a5.394,5.394,0,0,0,2.451-8.456c-7.046-8.6-20.846-11.909-34.28-7.267C9.971,23.357,1.125,34.491.891,45.606a5.38,5.38,0,0,0,7.148,5.139Z" transform="translate(0.75 -14.958)" fill="#9ce370"/>
        <path id="Path_909505" data-name="Path 909505" d="M33.14,41.778l-6.457,2.229a4.973,4.973,0,0,1-4.393-.557l-4.1-2.786-1.54,4.72a4.837,4.837,0,0,1-3.081,3.147l-5.54,1.934A5.393,5.393,0,0,1,.886,45.319c.23-11.112,9.08-22.256,22.486-26.878a42.816,42.816,0,0,1,5.506-1.475,38.821,38.821,0,0,0-.262,4.818A44.171,44.171,0,0,0,33.14,41.779Z" transform="translate(0.747 -14.669)" opacity="0.15"/>
        <path id="Path_909506" data-name="Path 909506" d="M7.032,53.439a7.081,7.081,0,0,1-4.179-1.367A6.832,6.832,0,0,1,0,46.328c.253-12,9.951-23.679,23.586-28.389,13.847-4.787,28.351-1.661,36.082,7.779A7.032,7.032,0,0,1,56.485,36.76L27.958,46.618a6.613,6.613,0,0,1-5.821-.763L19.827,44.3l-.855,2.652a6.63,6.63,0,0,1-4.107,4.2L9.324,53.055a6.988,6.988,0,0,1-2.292.384Zm29.331-34.39a35.95,35.95,0,0,0-11.7,1.988C12.294,25.309,3.5,35.738,3.28,46.4a3.6,3.6,0,0,0,1.506,3.025,3.749,3.749,0,0,0,3.468.528l5.538-1.911a3.325,3.325,0,0,0,2.06-2.1l1.522-4.725a1.639,1.639,0,0,1,2.478-.856l4.117,2.777a3.32,3.32,0,0,0,2.919.383l28.527-9.858a3.713,3.713,0,0,0,2.38-2.526,3.649,3.649,0,0,0-.667-3.347c-4.632-5.655-12.372-8.739-20.766-8.739Z" transform="translate(0 -15.72)" fill="#101016"/>
      </g>
    </g>
    <g id="Group_1112486" data-name="Group 1112486" transform="translate(41.787 39.914)">
      <g id="Group_1112483" data-name="Group 1112483" transform="translate(0 0.529)">
        <ellipse id="Ellipse_12707" data-name="Ellipse 12707" cx="11.498" cy="5.166" rx="11.498" ry="5.166" transform="translate(0 21.344) rotate(-68.028)" fill="#ffdc6e"/>
        <path id="Path_909507" data-name="Path 909507" d="M28.734,48.555a5.72,5.72,0,0,1-2.151-.442c-6.309-2.551-2.612-11.718-1.4-14.73,1.623-4.019,3.273-6.748,5.047-8.339a5.672,5.672,0,0,1,9.73,3.926c.173,2.377-.531,5.485-2.153,9.5-1.071,2.654-4.067,10.08-9.075,10.08ZM34.305,26.6a2.838,2.838,0,0,0-1.884.887c-1.373,1.232-2.785,3.63-4.2,7.126-2.447,6.066-2.587,9.586-.416,10.463s4.512-1.757,6.958-7.824c1.412-3.5,2.058-6.2,1.925-8.041-.12-1.645-.829-2.146-1.508-2.42a2.3,2.3,0,0,0-.88-.19Z" transform="translate(-22.38 -23.322)" fill="#101016"/>
      </g>
      <g id="Group_1112484" data-name="Group 1112484" transform="translate(16.182 0.53)">
        <ellipse id="Ellipse_12708" data-name="Ellipse 12708" cx="5.166" cy="11.498" rx="5.166" ry="11.498" transform="translate(0 3.871) rotate(-21.972)" fill="#ffdc6e"/>
        <path id="Path_909508" data-name="Path 909508" d="M43.039,48.552c-5.01,0-8.008-7.423-9.078-10.077-1.62-4.019-2.324-7.127-2.151-9.5a5.67,5.67,0,0,1,9.728-3.926c1.777,1.591,3.425,4.32,5.048,8.339C47.8,36.4,51.5,45.562,45.19,48.113a5.725,5.725,0,0,1-2.151.439ZM37.462,26.6a2.289,2.289,0,0,0-.877.192h0c-.675.272-1.384.775-1.5,2.42-.133,1.841.512,4.546,1.924,8.041,2.446,6.06,4.77,8.7,6.962,7.824,2.167-.877,2.03-4.4-.419-10.463-1.409-3.5-2.82-5.893-4.2-7.126A2.842,2.842,0,0,0,37.462,26.6ZM35.97,25.267H36Z" transform="translate(-31.152 -23.322)" fill="#101016"/>
      </g>
      <g id="Group_1112485" data-name="Group 1112485" transform="translate(10.405)">
        <ellipse id="Ellipse_12709" data-name="Ellipse 12709" cx="5.166" cy="11.498" rx="5.166" ry="11.498" transform="translate(1.64 1.64)" fill="#ffe48d"/>
        <path id="Path_909509" data-name="Path 909509" d="M35.113,49.31c-6.806,0-6.806-9.89-6.806-13.139s0-13.136,6.806-13.136,6.806,9.887,6.806,13.136,0,13.139-6.806,13.139Zm0-23c-2.34,0-3.528,3.316-3.528,9.858s1.188,9.861,3.528,9.861,3.528-3.316,3.528-9.861-1.188-9.858-3.528-9.858Z" transform="translate(-28.308 -23.035)" fill="#101016"/>
      </g>
    </g>
  </g>
</svg>
