<svg id="hirviendo" xmlns="http://www.w3.org/2000/svg" width="101.667" height="101.667" viewBox="0 0 101.667 101.667">
  <path id="Path_909468" data-name="Path 909468" d="M99.278,26.389a3.4,3.4,0,0,1-3.389,3.389H92.5V63.667A20.333,20.333,0,0,1,72.167,84H28.111A20.333,20.333,0,0,1,7.778,63.667V29.778H4.389A3.4,3.4,0,0,1,1,26.389,3.313,3.313,0,0,1,2,24a3.313,3.313,0,0,1,2.389-1h6.778a3.4,3.4,0,0,1,3.389,3.389V63.667A13.556,13.556,0,0,0,28.111,77.222H72.167A13.556,13.556,0,0,0,85.722,63.667V26.389A3.4,3.4,0,0,1,89.111,23h6.778a3.4,3.4,0,0,1,3.389,3.389Z" transform="translate(0.694 15.972)" fill="#7f8e94"/>
  <path id="Path_909469" data-name="Path 909469" d="M68.806,23H63.722a3.389,3.389,0,0,1,0,6.778H60.333V63.667A20.333,20.333,0,0,1,40,84h5.083A20.333,20.333,0,0,0,65.417,63.667V29.778h3.389a3.389,3.389,0,1,0,0-6.778Z" transform="translate(27.778 15.972)" fill="#545c60"/>
  <path id="Path_909470" data-name="Path 909470" d="M80.167,26V61.583A13.556,13.556,0,0,1,66.611,75.139H22.556A13.556,13.556,0,0,1,9,61.583V26c8.9,0,8.9,6.778,17.792,6.778S35.688,26,44.566,26c8.913,0,8.913,6.778,17.809,6.778S71.271,26,80.167,26Z" transform="translate(6.25 18.056)" fill="#02a9f4"/>
  <path id="Path_909471" data-name="Path 909471" d="M53.556,26.982v34.6A13.556,13.556,0,0,1,40,75.14h5.083A13.556,13.556,0,0,0,58.639,61.584V26a12.379,12.379,0,0,0-5.083.981Z" transform="translate(27.778 18.055)" fill="#0377bc"/>
  <g id="Group_1112473" data-name="Group 1112473" transform="translate(23.207 57.464)">
    <ellipse id="Ellipse_12701" data-name="Ellipse 12701" cx="5.5" cy="5" rx="5.5" ry="5" transform="translate(-0.207 -0.464)" fill="#3f51b5"/>
    <circle id="Ellipse_12702" data-name="Ellipse 12702" cx="5" cy="5" r="5" transform="translate(27.793 18.536)" fill="#3f51b5"/>
    <circle id="Ellipse_12703" data-name="Ellipse 12703" cx="5" cy="5" r="5" transform="translate(36.793 2.536)" fill="#3f51b5"/>
    <circle id="Ellipse_12704" data-name="Ellipse 12704" cx="3.5" cy="3.5" r="3.5" transform="translate(18.793 5.536)" fill="#3f51b5"/>
    <circle id="Ellipse_12705" data-name="Ellipse 12705" cx="3.5" cy="3.5" r="3.5" transform="translate(47.793 15.536)" fill="#3f51b5"/>
    <ellipse id="Ellipse_12706" data-name="Ellipse 12706" cx="4" cy="3.5" rx="4" ry="3.5" transform="translate(-0.207 18.536)" fill="#3f51b5"/>
  </g>
  <path id="Path_909472" data-name="Path 909472" d="M46.389,38.278A3.389,3.389,0,0,1,43,34.889a13.711,13.711,0,0,1,4.245-9.877,6.964,6.964,0,0,0,0-10.746A13.711,13.711,0,0,1,43,4.389a3.389,3.389,0,1,1,6.778,0,7.147,7.147,0,0,0,2.542,5.373,13.613,13.613,0,0,1,0,19.754,7.147,7.147,0,0,0-2.542,5.373,3.389,3.389,0,0,1-3.389,3.389Z" transform="translate(29.861 0.694)" fill="#f44335"/>
  <path id="Path_909473" data-name="Path 909473" d="M36.389,38.278A3.389,3.389,0,0,1,33,34.889a13.711,13.711,0,0,1,4.245-9.877,6.964,6.964,0,0,0,0-10.746A13.711,13.711,0,0,1,33,4.389a3.389,3.389,0,1,1,6.778,0,7.147,7.147,0,0,0,2.533,5.373,13.613,13.613,0,0,1,0,19.754,7.147,7.147,0,0,0-2.533,5.373,3.389,3.389,0,0,1-3.389,3.389Z" transform="translate(22.917 0.694)" fill="#f44335"/>
  <path id="Path_909474" data-name="Path 909474" d="M26.389,38.278A3.389,3.389,0,0,1,23,34.889a13.711,13.711,0,0,1,4.236-9.877,6.964,6.964,0,0,0,0-10.746A13.711,13.711,0,0,1,23,4.389a3.389,3.389,0,1,1,6.778,0,7.147,7.147,0,0,0,2.542,5.373,13.613,13.613,0,0,1,0,19.754,7.147,7.147,0,0,0-2.542,5.373,3.389,3.389,0,0,1-3.389,3.389Z" transform="translate(15.972 0.694)" fill="#f44335"/>
  <path id="Path_909475" data-name="Path 909475" d="M16.389,38.278A3.389,3.389,0,0,1,13,34.889a13.711,13.711,0,0,1,4.245-9.877,6.964,6.964,0,0,0,0-10.746A13.711,13.711,0,0,1,13,4.389a3.389,3.389,0,1,1,6.778,0,7.147,7.147,0,0,0,2.542,5.373,13.613,13.613,0,0,1,0,19.754,7.147,7.147,0,0,0-2.542,5.373,3.389,3.389,0,0,1-3.389,3.389Z" transform="translate(9.028 0.694)" fill="#f44335"/>
  <path id="Path_909476" data-name="Path 909476" d="M96.583,22H89.806a5.083,5.083,0,0,0-5.083,5.083v.085a14.943,14.943,0,0,0-8.23,3.643,11.7,11.7,0,0,1-15.743,0,15.047,15.047,0,0,0-19.845,0,11.692,11.692,0,0,1-15.733,0,14.926,14.926,0,0,0-8.227-3.643v-.085A5.083,5.083,0,0,0,11.861,22H5.083a5.083,5.083,0,0,0,0,10.167H6.778V64.361A22.053,22.053,0,0,0,28.806,86.389H72.861A22.053,22.053,0,0,0,94.889,64.361V32.167h1.694a5.083,5.083,0,1,0,0-10.167ZM16.944,30.586a11.907,11.907,0,0,1,6.175,2.936,15.038,15.038,0,0,0,19.84,0,11.692,11.692,0,0,1,15.736,0,15.053,15.053,0,0,0,19.849,0,11.9,11.9,0,0,1,6.178-2.936V64.361A11.875,11.875,0,0,1,72.861,76.222H28.806A11.875,11.875,0,0,1,16.944,64.361Zm79.639-1.808H93.195A1.694,1.694,0,0,0,91.5,30.472V64.361A18.661,18.661,0,0,1,72.861,83H28.806A18.661,18.661,0,0,1,10.167,64.361V30.472a1.694,1.694,0,0,0-1.694-1.694H5.083a1.694,1.694,0,1,1,0-3.389h6.778a1.694,1.694,0,0,1,1.694,1.694V64.361a15.267,15.267,0,0,0,15.25,15.25H72.861a15.267,15.267,0,0,0,15.25-15.25V27.083a1.694,1.694,0,0,1,1.694-1.694h6.778a1.694,1.694,0,1,1,0,3.389Z" transform="translate(0 15.278)"/>
  <path id="Path_909477" data-name="Path 909477" d="M19.778,46.556A6.778,6.778,0,1,0,13,39.778,6.778,6.778,0,0,0,19.778,46.556Zm0-10.167a3.389,3.389,0,1,1-3.389,3.389A3.389,3.389,0,0,1,19.778,36.389Z" transform="translate(9.028 22.917)"/>
  <path id="Path_909478" data-name="Path 909478" d="M35.778,57.556A6.778,6.778,0,1,0,29,50.778,6.778,6.778,0,0,0,35.778,57.556Zm0-10.167a3.389,3.389,0,1,1-3.389,3.389A3.389,3.389,0,0,1,35.778,47.389Z" transform="translate(20.139 30.556)"/>
  <path id="Path_909479" data-name="Path 909479" d="M40.778,47.556A6.778,6.778,0,1,0,34,40.778,6.778,6.778,0,0,0,40.778,47.556Zm0-10.167a3.389,3.389,0,1,1-3.389,3.389A3.389,3.389,0,0,1,40.778,37.389Z" transform="translate(23.611 23.611)"/>
  <path id="Path_909480" data-name="Path 909480" d="M29.083,46.167A5.083,5.083,0,1,0,24,41.083,5.083,5.083,0,0,0,29.083,46.167Zm0-6.778a1.694,1.694,0,1,1-1.694,1.694A1.694,1.694,0,0,1,29.083,39.389Z" transform="translate(16.667 25)"/>
  <path id="Path_909481" data-name="Path 909481" d="M41,47.083A5.083,5.083,0,1,0,46.083,42,5.083,5.083,0,0,0,41,47.083Zm5.083-1.694a1.694,1.694,0,1,1-1.694,1.694A1.694,1.694,0,0,1,46.083,45.389Z" transform="translate(28.472 29.167)"/>
  <path id="Path_909482" data-name="Path 909482" d="M18.083,54.167A5.083,5.083,0,1,0,13,49.083a5.083,5.083,0,0,0,5.083,5.083Zm0-6.778a1.694,1.694,0,1,1-1.694,1.694A1.694,1.694,0,0,1,18.083,47.389Z" transform="translate(9.028 30.556)"/>
  <path id="Path_909483" data-name="Path 909483" d="M47.083,40.667a5.083,5.083,0,0,0,5.083-5.083c0-1.877.659-2.621,2.1-4.248a15.289,15.289,0,0,0,0-22.006c-1.445-1.625-2.1-2.369-2.1-4.246A5.083,5.083,0,0,0,42,5.083a15.372,15.372,0,0,0,4.673,11c1.445,1.625,2.1,2.369,2.1,4.246s-.659,2.621-2.1,4.248a15.364,15.364,0,0,0-4.673,11A5.083,5.083,0,0,0,47.083,40.667Zm2.123-13.835a8.611,8.611,0,0,0,0-13,12.1,12.1,0,0,1-3.818-8.752,1.694,1.694,0,1,1,3.389,0,8.77,8.77,0,0,0,2.962,6.5,11.942,11.942,0,0,1,0,17.5,8.775,8.775,0,0,0-2.962,6.5,1.694,1.694,0,0,1-3.389,0,12.093,12.093,0,0,1,3.818-8.752Z" transform="translate(29.167)"/>
  <path id="Path_909484" data-name="Path 909484" d="M37.083,40.667a5.083,5.083,0,0,0,5.083-5.083c0-1.877.659-2.621,2.1-4.248a15.289,15.289,0,0,0,0-22.006c-1.445-1.625-2.1-2.369-2.1-4.246A5.083,5.083,0,0,0,32,5.083a15.372,15.372,0,0,0,4.673,11c1.445,1.625,2.1,2.369,2.1,4.246s-.659,2.621-2.1,4.248a15.364,15.364,0,0,0-4.673,11A5.083,5.083,0,0,0,37.083,40.667Zm2.123-13.835a8.611,8.611,0,0,0,0-13,12.1,12.1,0,0,1-3.818-8.752,1.694,1.694,0,1,1,3.389,0,8.77,8.77,0,0,0,2.962,6.5,11.942,11.942,0,0,1,0,17.5,8.776,8.776,0,0,0-2.962,6.5,1.694,1.694,0,0,1-3.389,0,12.093,12.093,0,0,1,3.818-8.752Z" transform="translate(22.222)"/>
  <path id="Path_909485" data-name="Path 909485" d="M27.083,40.667a5.083,5.083,0,0,0,5.083-5.083c0-1.877.659-2.621,2.1-4.248a15.289,15.289,0,0,0,0-22.006c-1.445-1.625-2.1-2.369-2.1-4.246A5.083,5.083,0,1,0,22,5.083a15.372,15.372,0,0,0,4.673,11c1.445,1.625,2.1,2.369,2.1,4.246s-.659,2.621-2.1,4.248a15.364,15.364,0,0,0-4.673,11,5.083,5.083,0,0,0,5.083,5.083Zm2.123-13.835a8.611,8.611,0,0,0,0-13,12.1,12.1,0,0,1-3.818-8.752,1.694,1.694,0,1,1,3.389,0,8.77,8.77,0,0,0,2.962,6.5,11.942,11.942,0,0,1,0,17.5,8.776,8.776,0,0,0-2.962,6.5,1.694,1.694,0,0,1-3.389,0,12.093,12.093,0,0,1,3.818-8.752Z" transform="translate(15.278)"/>
  <path id="Path_909486" data-name="Path 909486" d="M12,35.583a5.083,5.083,0,1,0,10.167,0c0-1.877.659-2.621,2.1-4.248a15.289,15.289,0,0,0,0-22.006c-1.445-1.625-2.1-2.369-2.1-4.246A5.083,5.083,0,1,0,12,5.083a15.372,15.372,0,0,0,4.673,11c1.445,1.625,2.1,2.369,2.1,4.246s-.659,2.621-2.1,4.248A15.364,15.364,0,0,0,12,35.583Zm7.2-21.748a12.1,12.1,0,0,1-3.816-8.752,1.694,1.694,0,1,1,3.389,0,8.77,8.77,0,0,0,2.962,6.5,11.942,11.942,0,0,1,0,17.5,8.776,8.776,0,0,0-2.962,6.5,1.694,1.694,0,0,1-3.389,0,12.093,12.093,0,0,1,3.818-8.752,8.611,8.611,0,0,0,0-13Z" transform="translate(8.333)"/>
</svg>
