<svg xmlns="http://www.w3.org/2000/svg" xmlns:xlink="http://www.w3.org/1999/xlink" width="190" height="240.357" viewBox="0 0 190 240.357">
  <defs>
    <clipPath id="clip-path">
      <rect id="Rectangle_405207" data-name="Rectangle 405207" width="190" height="240.357" rx="10" transform="translate(1230 9419.934)" fill="#eefdd0"/>
    </clipPath>
    <clipPath id="clip-path-2">
      <rect id="Rectangle_405206" data-name="Rectangle 405206" width="325.892" height="336.484" fill="none"/>
    </clipPath>
    <clipPath id="clip-path-3">
      <rect id="Rectangle_405205" data-name="Rectangle 405205" width="325.893" height="336.484" fill="none"/>
    </clipPath>
    <clipPath id="clip-path-4">
      <rect id="Rectangle_405203" data-name="Rectangle 405203" width="12.439" height="7.923" fill="none"/>
    </clipPath>
    <clipPath id="clip-path-5">
      <rect id="Rectangle_405204" data-name="Rectangle 405204" width="134.427" height="101.147" fill="none"/>
    </clipPath>
  </defs>
  <g id="Mask_Group_1101802" data-name="Mask Group 1101802" transform="translate(-1230 -9419.934)" clip-path="url(#clip-path)">
    <rect id="Rectangle_405202" data-name="Rectangle 405202" width="266" height="266.342" rx="10" transform="translate(1196 9409.666)" fill="#eefdd0"/>
    <g id="Group_1112128" data-name="Group 1112128" transform="translate(1219.108 9332.524)">
      <g id="Group_1112127" data-name="Group 1112127" clip-path="url(#clip-path-2)">
        <g id="Group_1112126" data-name="Group 1112126" transform="translate(0 -0.001)">
          <g id="Group_1112125" data-name="Group 1112125" clip-path="url(#clip-path-3)">
            <path id="Path_908384" data-name="Path 908384" d="M59.21,333.911s-39.961-29.7-53.018-89.638S-.93,136.852,40.021,116.08s79.527-43.324,74.186-79.527S234.09-10.926,282.162,11.627,337.95,179.583,308.869,233s-65.877,99.112-65.877,99.112Z" transform="translate(0 0.003)" fill="#d9f9fd"/>
            <path id="Path_908385" data-name="Path 908385" d="M318.579,342.734c.728-.243,1.456-.486,2.179-.742,3.1-1.1,6.527-2.435,8.752-4.975a6.467,6.467,0,0,0,1.691-4.372,9.013,9.013,0,0,0-.968-3.75c-2.034-4.122-6.733-5.839-10.981-6.6a54.462,54.462,0,0,0-14.051-.379c-9.726,21.659-36.771,37.806-65.9,52.792a20.145,20.145,0,0,0,7.635,2.558,109.822,109.822,0,0,0,13.337.949c.985.044,1.961.126,2.948.119,1.775-.013,3.551-.06,5.324-.151a85.362,85.362,0,0,0,10.779-1.2A52.072,52.072,0,0,0,298.9,369.5c-.74-1.555-1.09-3.37-2.319-4.643a.1.1,0,0,1,.068-.165l.818-.066c3.324-.259,6.648-.51,9.962-.888a88.065,88.065,0,0,0,12.244-2.127,34.472,34.472,0,0,0,5.365-1.812,13.491,13.491,0,0,0,3.895-2.451,6.841,6.841,0,0,0,2-4.42,5.659,5.659,0,0,0-1.833-4.8,16.566,16.566,0,0,0-5.019-2.874c-1.845-.771-3.733-1.448-5.526-2.34a.1.1,0,0,1,.023-.177" transform="translate(-194.309 -261.167)" fill="#f3fbfd"/>
            <path id="Path_908386" data-name="Path 908386" d="M376.7,879.384c-3.108,6.414-5.074,14.135-3.038,21.168a.1.1,0,0,1-.177.075c-3.807-6.563-9.848-15.247-18.558-14.318-8.183.873-14.374,8.866-18.943,14.969a112.231,112.231,0,0,0-12.43,21.374c-6.766,15.09-11.155,32.122-9.633,48.748a.1.1,0,0,1-.165.068c-3.929-4.813-9.735-10.129-16.493-8.389-6.647,1.711-10.882,8.632-13.82,14.3-.042.082-.148.047-.177-.023-2.162-5.311-4.044-10.743-6.5-15.933-3.373-7.14-8.565-16.285-17.212-17.568-8.153-1.21-13.481,6.007-15.671,12.927a.1.1,0,0,1-.187,0c-1.541-3.836-2.244-7.974-3.318-11.952-1.094-4.054-2.415-8.553-5.472-11.6-1.427-1.423-3.458-2.7-5.559-2.5a6.566,6.566,0,0,0-4.515,3.173,22.233,22.233,0,0,0-3.39,10.119c-.006.106-.015.211-.031.313-.03.316-.057.631-.077.944-.008.124-.2.125-.194,0,.681-11.718,1.593-23.432.872-35.173-.648-10.551-2.324-22.3-8.858-30.987a23.215,23.215,0,0,0-12.461-8.6,18.644,18.644,0,0,0-15.728,2.919c-9.219,6.448-14.38,18.2-17.7,28.569-4.949,15.438-5.74,32.822-.926,48.39a.1.1,0,0,1-.142.109c-4.735-2.774-10.9-5.244-16.341-3.017-5.808,2.378-7.591,9.13-8.044,14.8a.1.1,0,0,1-.165.068c-8.068-7.092-15.275-15.541-24.968-20.512-7.289-3.739-16.325-5.441-24.16-2.375-7.458,2.918-12.057,9.8-13.795,17.409a48.27,48.27,0,0,0-.124,18.85c16.873,40.216,43.728,60.173,43.728,60.173l183.783-1.8s36.8-45.7,65.877-99.112c9.085-16.686,14.579-42.351,16.373-70.442A41.879,41.879,0,0,0,376.7,879.384" transform="translate(-63.115 -702)" fill="#a1e0cc"/>
            <path id="Path_908387" data-name="Path 908387" d="M437.455,1498.756c-1.54.509-3.04,1.146-4.608,1.568a5.415,5.415,0,0,1-3.664.02,2.752,2.752,0,0,1-1.3-2c-1.3-4.488-6.089-3.442-9.337-1.823a25.5,25.5,0,0,0-4.019,2.72c-.9.68-2.074,1.462-3.25,1.034-1.839-.669-1.306-3.975-1.281-5.447.047-2.691-.057-6.039-2.824-7.491-2.46-1.291-5.334.76-7.148,2.294a35.658,35.658,0,0,0-5.352,5.824c-.039.052-.133.073-.167,0-1.5-3.153-2.03-6.66-3.5-9.819a7.926,7.926,0,0,0-7.312-4.956,14.726,14.726,0,0,0-10.238,3.967c-5,4.534-7.447,11.122-12.089,15.965a.1.1,0,0,1-.162-.043c-.728-2.933-.371-6.006-.37-8.993a54.071,54.071,0,0,0-1.064-10.179c-1.207-6.262-3.611-12.624-7.913-17.438a18.664,18.664,0,0,0-10.695-6.128,22.141,22.141,0,0,0-11.882,1.526c-9.575,3.828-16.18,12.042-21.015,20.843-1.03,1.875-1.892,3.779-2.815,5.7-.68,1.417-1.562,3.332-3.119,3.981a5.254,5.254,0,0,1-4.118-.516,52.464,52.464,0,0,1-5.574-3.294,11.867,11.867,0,0,0-6.209-1.992,8.645,8.645,0,0,0-6.139,2.416,14.044,14.044,0,0,0-3.784,6.625c-.633,2.445-.845,5.1-2.263,7.263a.1.1,0,0,1-.133.035c-4.628-2.547-8.489-7.685-14.047-8.193-2.76-.253-5.917.885-6.745,3.764-.672,2.339-.008,4.914.589,7.2a.1.1,0,0,1-.142.109c-4.247-2.142-8.264-4.869-12.837-6.3-3.132-.979-7.03-1.491-10.05.147a6.54,6.54,0,0,0-3.157,4.291c9.241,10.671,16.393,15.986,16.393,15.986l183.783-1.8s5.239-6.507,13.325-17.478a13.553,13.553,0,0,0-3.768.61" transform="translate(-184.906 -1183.512)" fill="#80d1b2"/>
            <path id="Path_908388" data-name="Path 908388" d="M366.628,1476.681q1.063-1.562,2.143-3.165H340.829v-7.122l-3.4-4.4-3.133,4.4v7.122H312.193v-7.122l-3.4-4.4-3.133,4.4v7.122H282.519v-7.122l-3.4-4.4-3.133,4.4v7.122H253.363v-7.122l-3.4-4.4-3.133,4.4v7.122H224.208v-7.122l-3.4-4.4-3.133,4.4v7.122H195.053v-7.122l-3.4-4.4-3.133,4.4v7.122H165.9v-7.122l-3.4-4.4-3.133,4.4v7.122H136.742v-7.122l-3.4-4.4-3.133,4.4v7.122H114q.84,1.61,1.7,3.165h14.517v20.574H129.07c2.661,3.494,5.251,6.6,7.672,9.322v-6.157h22.627v19.387H165.9V1500.42h22.627v19.387h6.528V1500.42H217.68v19.387h6.528V1500.42h22.627v19.387h6.528V1500.42H275.99V1519.8l6.528-.064V1500.42h23.146v19.087l6.528-.064V1500.42H334.3v18.806l1.258-.012s1.936-2.4,5.27-6.754v-12.04h9.023q1.123-1.53,2.311-3.165H340.829v-20.574Zm-207.259,20.574H136.742v-20.574h22.627Zm29.155,0H165.9v-20.574h22.627Zm29.155,0H195.053v-20.574H217.68Zm29.155,0H224.208v-20.574h22.627Zm29.155,0H253.363v-20.574H275.99Zm29.674,0H282.519v-20.574h23.146Zm28.636,0H312.193v-20.574H334.3Z" transform="translate(-92.567 -1187.103)" fill="#ae6442"/>
            <path id="Path_908389" data-name="Path 908389" d="M503.548,1764.19c0,1.7-40.3,3.7-93.2,3.7-87.411,0-95.445-.871-95.445-2.571s42.229-2.41,95.124-2.41,93.517-.415,93.517,1.286" transform="translate(-255.697 -1431.401)" fill="#827793"/>
            <path id="Path_908390" data-name="Path 908390" d="M1551.055,815.354a14.185,14.185,0,0,0-1.734-4.9.293.293,0,0,0-.4-.1,17.511,17.511,0,0,0-5.822,7.026,17.344,17.344,0,0,0,.18,14.654,24.041,24.041,0,0,0,.3,6.4c.067.368.627.212.56-.154a23.426,23.426,0,0,1-.311-5.769c.12-.066,2.037-2.92,3.042-4.154a23.014,23.014,0,0,0,2.654-3.948,14.678,14.678,0,0,0,1.532-9.056" transform="translate(-1251.718 -657.953)" fill="#4d9841"/>
            <path id="Path_908391" data-name="Path 908391" d="M1125.632,1286.969c-.366,4.986-4.185,8.728-7.373,12.2a29.493,29.493,0,0,0-4.314,5.638c-.1.183-.2.369-.288.556a46.461,46.461,0,0,1,1.211-8.661.273.273,0,0,0,.151-.083,16.791,16.791,0,0,0,2.249-2.86.215.215,0,0,0,.135-.007,7.521,7.521,0,0,0,4.5-5.714c.056-.366-.5-.523-.56-.155a6.978,6.978,0,0,1-3.608,5.075,16.855,16.855,0,0,0,1.331-3.121,16.4,16.4,0,0,0,.52-2.2c.061-.366-.5-.523-.56-.154a16.3,16.3,0,0,1-4.316,8.616q.848-4.907,1.616-9.828.128-.822.254-1.645c.056-.366-.5-.524-.56-.154q-1,6.5-2.133,12.981-.4,2.3-.826,4.6a17.013,17.013,0,0,1-1.141-3.726,19.862,19.862,0,0,1-.105-4.854c.073-.911.177-1.819.282-2.727.043-.371-.539-.368-.581,0a42.142,42.142,0,0,0-.377,5,15.606,15.606,0,0,0,.74,4.815,26.4,26.4,0,0,0,1,2.52c-.054.292-.107.585-.161.877-.338,1.815-.66,3.636-1.1,5.429-.792,3.2-2.032,6.487-4.638,8.659-.718.6-1.524,1.083-2.223,1.7a6.289,6.289,0,0,0-1.537,2.1,27.937,27.937,0,0,0-1.368,5.145,26.483,26.483,0,0,1-2.01,5.507,26.762,26.762,0,0,1-1.469,2.585c-.432.67-.968,1.652-1.853,1.752a.915.915,0,0,1-.893-.354c-.116-.179-1.407-2.8-2.053-4.1a12.487,12.487,0,0,1-1.554-4.395,12.31,12.31,0,0,1,.218-2.684,5.906,5.906,0,0,0-.165-2.675c-.266-.814-.688-1.564-1.03-2.347a6.85,6.85,0,0,1-.587-2.654,17.282,17.282,0,0,1,1.2-5.6,21.37,21.37,0,0,1,2.207-5.074c1.852-2.847,4.655-4.883,7.172-7.1a29.783,29.783,0,0,0,2.541-2.485.285.285,0,0,0,.2-.028,12.232,12.232,0,0,0,6.088-7.269c.111-.358-.45-.511-.56-.155a11.741,11.741,0,0,1-4.782,6.317,12.373,12.373,0,0,0,2.178-4.213,9.533,9.533,0,0,0,.241-1.164.3.3,0,0,0-.2-.357.292.292,0,0,0-.357.2,13.085,13.085,0,0,1-4.045,7.135c.1-.836.1-1.681.126-2.523a7.94,7.94,0,0,1,.6-3.262c.162-.335-.339-.63-.5-.293-1.027,2.129-.438,4.527-.928,6.765-.123.116-.246.232-.369.345-2.324,2.135-4.928,4-6.927,6.457a.277.277,0,0,0-.225.078c-.094.087-.241.032-.332-.035a.647.647,0,0,1-.195-.546,10.951,10.951,0,0,1,.2-1.519c.156-1.057.316-2.114.49-3.168.345-2.09.747-4.173,1.286-6.222.306-1.163.658-2.313,1.066-3.444.087-.242-.151-.39-.349-.345a.256.256,0,0,0-.361.111c-1.49,2.871-1.743,6.1-2.278,9.243a5.5,5.5,0,0,0-.446-.894,8.09,8.09,0,0,1-.435-.944,8.837,8.837,0,0,1-.54-4.063,8.339,8.339,0,0,1,.174-1.022c.084-.364-.476-.519-.561-.154a9.372,9.372,0,0,0-.058,3.927,9.224,9.224,0,0,0,.593,1.881,9.461,9.461,0,0,0,.445.886,1.786,1.786,0,0,1,.328.954,6.067,6.067,0,0,1-.222,1.1q-.129.558-.259,1.116-.26,1.116-.522,2.231c-.335,1.426-.647,2.86-1.032,4.273a13.777,13.777,0,0,1-1.579,3.8,5.642,5.642,0,0,0-.854,1.728,4.245,4.245,0,0,0,.128,1.97,7.62,7.62,0,0,1,.367,1.927,3.411,3.411,0,0,1-.4,1.536,3.772,3.772,0,0,1-2.453,1.945,4.1,4.1,0,0,1-3.684-1.263,6.717,6.717,0,0,1-1.729-3.925.314.314,0,0,0-.287-.273c.1-1.261.261-2.52.411-3.776s.314-2.5.512-3.74c.166-1.047.357-2.089.579-3.126a7.015,7.015,0,0,0,.306-1.014c.134-.632.2-1.278.358-1.905a5.2,5.2,0,0,1,.78-1.661,17.2,17.2,0,0,1,1.2-1.477l1.412-1.632c1.7-1.967,3.831-4.158,3.778-6.949a.291.291,0,0,0-.581,0c.048,2.494-1.831,4.485-3.356,6.248-.891,1.03-1.83,2.035-2.659,3.117a7.951,7.951,0,0,0-.581.868,9.6,9.6,0,0,0-.088-2.521c-.211-1.309-.5-2.609-.763-3.909-.073-.367-.633-.211-.56.154.219,1.1.446,2.2.655,3.3a9.465,9.465,0,0,1,.173,3.079,32.022,32.022,0,0,1-1.731,5.4,14.415,14.415,0,0,0-.58,2.665,16.781,16.781,0,0,1-.4,2.413,4.426,4.426,0,0,1-.457,1.1c-.18.3-.481.756-.834.869s-.619-.356-.759-.619c-.247-.464-.476-.938-.711-1.408q-.925-1.85-1.813-3.717a37.975,37.975,0,0,0,2.846-8.685,18.16,18.16,0,0,0,.235-2.665.291.291,0,0,0-.581,0,25.084,25.084,0,0,1-2.11,8.895c-.233.588-.477,1.172-.722,1.756q-.469-.993-.929-1.991a95.182,95.182,0,0,1-4.153-14.717q-.191-1.063-.342-2.133c-.053-.369-.613-.212-.56.154a68.115,68.115,0,0,0,1.964,9,19.207,19.207,0,0,1-2.182-1.839q-.58-.57-1.112-1.186a4.231,4.231,0,0,1-.942-1.314c-.111-.356-.672-.2-.56.154a4.306,4.306,0,0,0,.93,1.38q.577.687,1.214,1.318a20.113,20.113,0,0,0,2.721,2.25.258.258,0,0,0,.167.051c.653,2.226,1.384,4.43,2.151,6.618.022.063.045.125.067.189a.307.307,0,0,0,.029.129l.072.156c1.846,5.232,3.86,10.406,5.464,15.72a144.468,144.468,0,0,1,3.972,17.039c1.007,5.793,1.724,11.633,2.282,17.486.556,5.836.954,11.685,1.321,17.535.04.644.08,1.779.12,2.423l12.655.089s.581,0,.581,0l0-.581q.089-7.476-.129-14.951-.064-2.171-.155-4.34a.276.276,0,0,0-.157-.246q-.179-4.124-.358-8.249a10.555,10.555,0,0,1,.3-3.777c.4-1.21,1.357-2.068,1.984-3.149,1.226-2.112,1.077-4.741,1.539-7.072a26.718,26.718,0,0,1,4.42-10.274c.72-1.014,1.531-1.956,2.295-2.936a14.991,14.991,0,0,0,1.991-3.153,15.739,15.739,0,0,0,1.005-3.477c.455-2.459.63-5,1.645-7.312a22.848,22.848,0,0,1,4.1-5.917c3.121-3.488,6.911-6.929,7.992-11.682a11.48,11.48,0,0,0,.25-1.7c.027-.373-.554-.371-.581,0" transform="translate(-865.341 -1042.789)" fill="#704e4c"/>
            <path id="Path_908392" data-name="Path 908392" d="M970.6,230.524a8.47,8.47,0,0,0-7-2l-.054.013c1.822-2.335,3.546-4.965,3.086-8.058A5.136,5.136,0,0,0,964.4,216.9a8.637,8.637,0,0,0-3.907-1.157c-1.5-.158-3.028-.168-4.514-.457q.875-1.394,1.683-2.829.46-.819.9-1.651a7.418,7.418,0,0,0,.722-1.58,1.844,1.844,0,0,0-1.211-2.159,11.3,11.3,0,0,0-3.208-.752,17.693,17.693,0,0,0-3.376-.1c1.941-1.741,4.8-2.592,5.639-5.309a3.184,3.184,0,0,0-.947-3.4,4.868,4.868,0,0,0-2.365-1.051,27.184,27.184,0,0,0,1.4-3.886c.859-3.206,1-7.384-2.052-9.5-1.751-1.215-3.989-1.3-6.064-1.26a69.552,69.552,0,0,0,3.521-6.071q.85-1.654,1.609-3.353a18.084,18.084,0,0,0,1.178-3.175,5.829,5.829,0,0,0,.008-3.1,4.021,4.021,0,0,0-1.446-2,9.845,9.845,0,0,0-4.476-1.374c-1.671-.257-3.554-.518-4.755-1.825a3.64,3.64,0,0,1,1.6-2.28,7.754,7.754,0,0,0,2.159-2.256,3.3,3.3,0,0,0-.285-3.306,4.838,4.838,0,0,0-3.15-2.09,11.169,11.169,0,0,0-4.611.306l1.943-2.74a10.3,10.3,0,0,0,1.853-3.093,3.333,3.333,0,0,0-1.909-3.7,11.176,11.176,0,0,0,3.586-4.339,6.463,6.463,0,0,0-.125-5.725,8.727,8.727,0,0,0-4.269-3.725,20.415,20.415,0,0,0-6.964-1.3,24.709,24.709,0,0,0,5.352-5.038c.424-.541.828-1.1,1.206-1.671a2.568,2.568,0,0,0,.677-1.87,1.805,1.805,0,0,0-1.115-1.135,12.747,12.747,0,0,0-2.064-.682,18.06,18.06,0,0,0-4.559-.574c-.964,0-2.5.18-3-.89a2.2,2.2,0,0,1-.019-1.42c.123-.528.3-1.044.393-1.58a2.638,2.638,0,0,0-.133-1.545,1.926,1.926,0,0,0-1.033-.979,4.26,4.26,0,0,0-3.075.2c-1.109.437-2.327,1.23-3.574.993a1.817,1.817,0,0,1-.611-.237c.453-1.943,2.315-3.275,2.629-5.268a2.9,2.9,0,0,0-.995-2.7,4.106,4.106,0,0,0-2.97-.909,5.485,5.485,0,0,0-.614.093c.112-.313.222-.626.325-.942a10.8,10.8,0,0,0,.58-5.467,5.968,5.968,0,0,0-2.754-3.867c-3.205-1.981-7.063-1.151-10.33.2-1.959.809-3.873,1.732-5.8,2.611L895.02,96.74l-.576.263c1.553-2.372,3.016-5.083,2.255-7.97a5.209,5.209,0,0,0-2.16-3.127,4.816,4.816,0,0,0-4.463-.078,35.559,35.559,0,0,0-4.333,2.689l-.053.031a10.55,10.55,0,0,0-2.5-5.976,4.933,4.933,0,0,0-3.4-1.867,7,7,0,0,0-3.892,1.514,18.175,18.175,0,0,0-5.127,5.281,18.455,18.455,0,0,0-1.407,2.659,4.191,4.191,0,0,0-2.777-1.653,4.911,4.911,0,0,0-3.968,1.779,7.886,7.886,0,0,0-1.9,4.455A15,15,0,0,0,860.8,98.2c-.949-1.1-1.945-2.166-2.99-3.171a9.234,9.234,0,0,0-3.3-2.227,4.506,4.506,0,0,0-3.47.218c-2.121,1.048-3.32,3.443-3.943,5.615a20.591,20.591,0,0,0-.5,9.071c.022.133.048.265.073.4a11.885,11.885,0,0,0-9.971-1.1,6.942,6.942,0,0,0-4.179,3.181c-.92,1.948-.133,4.211.475,6.132a47.181,47.181,0,0,0,2.494,6.269,9.7,9.7,0,0,0-2.774-.384,3.678,3.678,0,0,0-2.818,1.126c-.95,1.154-.7,2.748-.488,4.114a20.552,20.552,0,0,0,.492,2.308,8.221,8.221,0,0,0-1.343,3.341,9.132,9.132,0,0,0,.388,4.678,5.853,5.853,0,0,0,1.169,2.019,5.434,5.434,0,0,0,1.384,1.027q-.361.539-.712,1.085a6.346,6.346,0,0,0-1.1,2.389,3.469,3.469,0,0,0,.529,2.315,7.589,7.589,0,0,0,1.644,1.822,20.889,20.889,0,0,0,1.866,1.392,7.562,7.562,0,0,0-1.391,1.549,7.069,7.069,0,0,0,.221,7.917,7.5,7.5,0,0,0,1.923,1.931,5.434,5.434,0,0,0-3.889,2.372,6.065,6.065,0,0,0,.372,6.894,9.417,9.417,0,0,0,2.4,2.383,6.134,6.134,0,0,0-5.2,4.57c-.685,2.882,1.245,5.343,3.209,7.2.995.939,2.048,1.818,3.012,2.789a6.674,6.674,0,0,0-4.752,1.99,8.368,8.368,0,0,0-2.324,6.1,13.849,13.849,0,0,0,4.327,9.587c-.057.024-.115.045-.172.07a8.664,8.664,0,0,0-2.993,2.148,7.629,7.629,0,0,0-1.043,1.488,2.88,2.88,0,0,0-.5,2.09,2.188,2.188,0,0,0,.683.907c.394.353.8.7,1.2,1.043l1.651,1.439a7.369,7.369,0,0,0-6.623,2.74,5.679,5.679,0,0,0-1.2,4.021,6.622,6.622,0,0,0,1.84,3.885,6.176,6.176,0,0,0,1.846,1.318,9.9,9.9,0,0,0-7.034,6.731,9.23,9.23,0,0,0,.371,6.442,11.936,11.936,0,0,0,4.184,5,13.441,13.441,0,0,0,5.925,2.3c-4.549,2.055-8.081,6.358-8.382,11.458a12.068,12.068,0,0,0,2.174,7.727,11.9,11.9,0,0,0,4.847,3.8,17.151,17.151,0,0,0-2.726,4.5,16.448,16.448,0,0,0-1.18,4.835q-.055.627-.058,1.256a2.944,2.944,0,0,0,.181,1.26,1.743,1.743,0,0,0,2.031.713,16.973,16.973,0,0,0,5.233-1.876,58.674,58.674,0,0,0-3.174,8.385,5.8,5.8,0,0,0,.1,4.4,5.056,5.056,0,0,0,2.455,2.121,12.359,12.359,0,0,0,3.442.9,41.175,41.175,0,0,0,4.536.328,23.721,23.721,0,0,0,4.2-.261c-.014.043-.031.084-.045.127a27.941,27.941,0,0,0-1.467,8.275c-.044,2.392.451,5.118,2.653,6.47,2.092,1.285,4.772.751,6.888-.178a17.566,17.566,0,0,0,3.414-2.065,23.77,23.77,0,0,0,3.177-2.845c.031-.034.06-.069.091-.1-.472,3.66-.184,7.743,2.739,10.333a6.576,6.576,0,0,0,4.83,1.78,6.894,6.894,0,0,0,4.63-2.78c.179-.224.347-.453.508-.688.8,2.367,1.948,4.842,4.142,6.089,3.1,1.762,6.634-.107,8.5-2.756a19.27,19.27,0,0,0,2.288-4.87,7.408,7.408,0,0,0,4.582,4.51,5.716,5.716,0,0,0,6.474-2.369,5.069,5.069,0,0,0,.875-3.125c2.773,2.335,5.961,4.608,9.747,4.379a6.975,6.975,0,0,0,4.583-1.921,5.2,5.2,0,0,0,1.43-3.918,12.427,12.427,0,0,0,4.354,2.454,7.806,7.806,0,0,0,7.226-1.26,3.952,3.952,0,0,0,1.451-2.958c4.676,1.77,9.77-2.2,11.063-6.664a11.959,11.959,0,0,0,.447-2.78c1.266-.3,2.529-.624,3.778-1a23.73,23.73,0,0,0,8.784-4.371,12.131,12.131,0,0,0,4.14-7.244,8.9,8.9,0,0,0-1.79-7.379,6.792,6.792,0,0,0,5.443-1.5,6.329,6.329,0,0,0,1.945-6.342,6.5,6.5,0,0,0-1.446-2.789,4.2,4.2,0,0,0,3.4-3.136c.67-2.2-.4-4.334-1.947-5.884a15.833,15.833,0,0,0-2.569-2.026,26.476,26.476,0,0,0,3.922-.853,18.6,18.6,0,0,0,2.168-.765,2.168,2.168,0,0,0,1.209-3.3,17.187,17.187,0,0,0-1.074-1.952,27.327,27.327,0,0,0-1.768-2.545,25.882,25.882,0,0,0,7.186-4,10.832,10.832,0,0,0,4.137-7.175,7.943,7.943,0,0,0-2.961-6.616" transform="translate(-664.917 -65.529)" fill="#7bb464"/>
            <path id="Path_908393" data-name="Path 908393" d="M1376.708,493.562a9.971,9.971,0,0,0-2.747.529,18.479,18.479,0,0,0-2.516.98,15.343,15.343,0,0,0-2.333,1.342,7.878,7.878,0,0,0-1.794,1.792,19.272,19.272,0,0,0-1.451,2.466.3.3,0,0,0-.035.131,10.643,10.643,0,0,0-2.844,2.512c.1-.859.22-1.714.375-2.565.144-.787.309-1.571.506-2.346.006-.025.013-.049.019-.074a.329.329,0,0,0,.055-.039q1.629-1.46,3.19-2.993a18.168,18.168,0,0,0,2.713-3.119,13.622,13.622,0,0,0,1.855-7.061,30.641,30.641,0,0,0-.244-4.244.3.3,0,0,0-.437-.251c-2.542,1.324-5.049,2.752-6.755,5.125a11.873,11.873,0,0,0-2.2,7.788,12.091,12.091,0,0,0,1.28,4.555h0c-.211.794-.38,1.6-.529,2.41a39.417,39.417,0,0,0-.6,5.109c-.019.374.562.372.581,0q.032-.6.082-1.2a.284.284,0,0,0,.135-.118,9.762,9.762,0,0,1,3.453-3.208c.5.113,1.006.243,1.517.315a5.031,5.031,0,0,0,1.572-.057,11.449,11.449,0,0,0,2.578-.772,10.546,10.546,0,0,0,2.3-1.352,6.171,6.171,0,0,0,1.878-2.064,8.916,8.916,0,0,0,.691-3.3.294.294,0,0,0-.291-.291" transform="translate(-1105.941 -390.223)" fill="#4d9841"/>
            <path id="Path_908394" data-name="Path 908394" d="M1311.942,722.472a10.624,10.624,0,0,0-1.874-5.671,10.546,10.546,0,0,0-7.978-4.471.292.292,0,0,0-.291.291,11.784,11.784,0,0,0,6.1,9.433,6.528,6.528,0,0,0,3.8.878.324.324,0,0,0,.245-.46" transform="translate(-1057.03 -578.396)" fill="#4d9841"/>
            <path id="Path_908395" data-name="Path 908395" d="M873.4,560.151a13.072,13.072,0,0,0-3.939-4.944,10.913,10.913,0,0,0-6.6-1.9c-1.434.058-2.806.5-4.228.647a.3.3,0,0,0-.251.437,12.635,12.635,0,0,0,14.852,6.37c.2-.06.34-.271.167-.606" transform="translate(-696.954 -449.261)" fill="#4d9841"/>
            <path id="Path_908396" data-name="Path 908396" d="M1121.674,189.844a29.8,29.8,0,0,0-11.936,2.385,23.845,23.845,0,0,0-3.467,1.769,10.98,10.98,0,0,0-1.074.774,11.086,11.086,0,0,0,.466-1.221,8.137,8.137,0,0,0,.143-4.083,19.194,19.194,0,0,0-1.244-3.755,23.071,23.071,0,0,0-1.782-3.332,23.544,23.544,0,0,0-2.628-3.355.294.294,0,0,0-.456.059,12.683,12.683,0,0,0-1.936,7.021,13.845,13.845,0,0,0,2,7.007,12.063,12.063,0,0,0,2.731,3.116.329.329,0,0,0,.062.038,13.525,13.525,0,0,1,1.77,4.557,44.035,44.035,0,0,1,.883,5.5,10.645,10.645,0,0,0-2.382-1.816.289.289,0,0,0,0-.081,8.5,8.5,0,0,0-3.589-6.354,7.514,7.514,0,0,0-4.185-1.059,23.514,23.514,0,0,0-4.881.61c-1.85.405-3.662.962-5.47,1.519a.293.293,0,0,0-.2.357,10.082,10.082,0,0,0,4.882,5.445,12,12,0,0,0,4.15,1.109,21.242,21.242,0,0,0,4.349.061,11.927,11.927,0,0,0,4.391-1.248,10.14,10.14,0,0,1,2.667,2.013c.1.105.345.351.355.5a31.208,31.208,0,0,1,.035,3.854c-.021.374.561.373.581,0a35.3,35.3,0,0,0-.382-7.021,27.948,27.948,0,0,0-1.436-6.212q-.145-.369-.314-.727a.263.263,0,0,0,.161-.115c2.245,1.364,5.194.974,7.649.344a19.254,19.254,0,0,0,7.712-3.58,8.862,8.862,0,0,0,2.653-3.715.293.293,0,0,0-.28-.368" transform="translate(-880.578 -145.297)" fill="#4d9841"/>
            <path id="Path_908397" data-name="Path 908397" d="M1122.257,1122.165a4.435,4.435,0,0,1-1.969-.856,4.2,4.2,0,0,0-1.363-3.361,21.243,21.243,0,0,0-2.747-2.565,20.352,20.352,0,0,0-6.571-3.493,17.232,17.232,0,0,0-4.2-.737.3.3,0,0,0-.28.213,3.843,3.843,0,0,0,.075,2.332,18.782,18.782,0,0,0,.7,2.287,13.937,13.937,0,0,0,2.345,4.09,9.258,9.258,0,0,0,7.558,3.5,7.166,7.166,0,0,0,4.235-1.729,4.932,4.932,0,0,0,2.06.879.3.3,0,0,0,.358-.2.293.293,0,0,0-.2-.358" transform="translate(-897.214 -902.23)" fill="#4d9841"/>
            <path id="Path_908398" data-name="Path 908398" d="M898.569,841.708a21.511,21.511,0,0,0-2.931-7.829,14.364,14.364,0,0,0-2.606-3.166,16.011,16.011,0,0,0-3.239-2.182c-1.338-.7-2.739-1.267-4.138-1.832a.291.291,0,0,0-.368.28,17.67,17.67,0,0,0,2.8,7.8,17.507,17.507,0,0,0,9.975,7.211.307.307,0,0,0,.506-.281" transform="translate(-718.832 -671.248)" fill="#4d9841"/>
            <path id="Path_908399" data-name="Path 908399" d="M972.9,829.73a12.933,12.933,0,0,0-.71-3.549.293.293,0,0,0-.427-.174,13.133,13.133,0,0,0-5.436,10.753,20.055,20.055,0,0,0,.614,3.8c.14.67.467.54.651.457a6.168,6.168,0,0,0,2.3-2.05,16.449,16.449,0,0,0,1.8-2.918,13.249,13.249,0,0,0,1.2-6.316" transform="translate(-784.636 -670.662)" fill="#4d9841"/>
            <path id="Path_908400" data-name="Path 908400" d="M345.065,919.056a.674.674,0,0,0-.268-.526,1.179,1.179,0,0,0-.55-.088l-11.892,1.409a.584.584,0,0,0-.167.047.527.527,0,0,0-.4.587c.152,1.387.512,4.3.714,5.685.01.488.2.864.7.8l4.559-.54c0,.005,0,.01,0,.015a34.593,34.593,0,0,0,.337,3.809.567.567,0,0,0,.625.493l1.485-.321a.575.575,0,0,0,.455-.771,30.91,30.91,0,0,1-.441-3.514l4.969-.589a.509.509,0,0,0,.419-.289.55.55,0,0,0,.121-.405c-.191-1.42-.533-4.377-.661-5.8m-11.481,6.739q-.2-1.4-.369-2.811a.543.543,0,0,1,.475-.6l9.936-1.177a.537.537,0,0,1,.6.481q.141,1.407.323,2.81Z" transform="translate(-269.4 -745.749)" fill="#49518e"/>
            <path id="Path_908401" data-name="Path 908401" d="M334.474,978.456l.835,7.042,13.791-1.634-.858-7.238s-10.4.141-13.768,1.83" transform="translate(-271.585 -792.997)" fill="#6362aa"/>
            <path id="Path_908402" data-name="Path 908402" d="M343.067,986.926l.617,5.211A.563.563,0,0,0,344.8,992l-.617-5.21a.563.563,0,0,0-1.118.132" transform="translate(-278.559 -800.865)" fill="#49518e"/>
            <path id="Path_908403" data-name="Path 908403" d="M361.417,985.712l.565,4.765a.563.563,0,0,0,1.118-.133l-.565-4.765a.563.563,0,0,0-1.118.133" transform="translate(-293.459 -799.879)" fill="#49518e"/>
            <path id="Path_908404" data-name="Path 908404" d="M383.529,983.812l.575,4.854a.563.563,0,0,0,1.118-.132l-.575-4.854a.563.563,0,0,0-1.118.133" transform="translate(-311.413 -798.336)" fill="#49518e"/>
            <path id="Path_908405" data-name="Path 908405" d="M319.894,1262.786a17.731,17.731,0,0,1-6.277-4.3,18.638,18.638,0,0,1-4.021-6.513,17.174,17.174,0,0,1-.915-7.614,18.474,18.474,0,0,1,2.492-7.4,17.96,17.96,0,0,1,5.292-5.694q.4-.275.823-.526a.291.291,0,0,0-.293-.5,18.415,18.415,0,0,0-5.784,5.572,19.16,19.16,0,0,0-2.969,7.512,17.7,17.7,0,0,0,.508,7.939,19.209,19.209,0,0,0,3.818,6.933,18.474,18.474,0,0,0,6.258,4.766c.3.139.608.268.916.391.348.138.5-.423.155-.56" transform="translate(-250.095 -998.886)" fill="#222"/>
            <path id="Path_908406" data-name="Path 908406" d="M340.558,1059.189l-16.308,1.933a3.272,3.272,0,0,1-3.634-2.864l-4.623-39.006a3.281,3.281,0,0,1,2.863-3.634l15.778-1.87a3.281,3.281,0,0,1,3.634,2.864l4.685,39.536a2.737,2.737,0,0,1-2.4,3.04" transform="translate(-256.561 -823.122)" fill="#eeb23f"/>
            <path id="Path_908407" data-name="Path 908407" d="M388.095,1244.554l-2.036.241a2.87,2.87,0,0,1-.675-5.7l2.036-.241a2.87,2.87,0,0,1,.676,5.7" transform="translate(-310.867 -1005.905)" fill="#eeb23f"/>
            <path id="Path_908408" data-name="Path 908408" d="M429.755,1234.613h0a3.113,3.113,0,0,0,2.717-3.448l-.226-1.909c-.2-1.7-1.588-1.532-3.283-1.331s-3.082.366-2.881,2.062l.226,1.909a3.113,3.113,0,0,0,3.448,2.717" transform="translate(-345.952 -996.948)" fill="#eeb23f"/>
            <path id="Path_908409" data-name="Path 908409" d="M344.078,1244.767h0a3.113,3.113,0,0,0,2.717-3.448l-.226-1.909c-.2-1.7-1.588-1.532-3.283-1.331s-3.082.366-2.881,2.062l.226,1.909a3.113,3.113,0,0,0,3.448,2.717" transform="translate(-276.385 -1005.193)" fill="#eeb23f"/>
            <path id="Path_908410" data-name="Path 908410" d="M372.956,1244.169a.909.909,0,0,0-.9.362,1.845,1.845,0,0,0-.289,1.032q-.082,1.242-.162,2.483a.328.328,0,0,0,.267.364.322.322,0,0,0,.363-.267l.136-2.075c.018-.276-.043-1.392.488-1.268a.322.322,0,0,0,.363-.267.326.326,0,0,0-.267-.364" transform="translate(-301.735 -1010.221)" fill="#d7992c"/>
            <path id="Path_908411" data-name="Path 908411" d="M382.949,1255.039l-.6-1.7a.322.322,0,0,0-.416-.175.326.326,0,0,0-.175.416l.6,1.7a.322.322,0,0,0,.416.175.326.326,0,0,0,.175-.416" transform="translate(-309.964 -1017.524)" fill="#d7992c"/>
            <path id="Path_908412" data-name="Path 908412" d="M423.75,1240.283a1.054,1.054,0,0,0-.882.411,1.8,1.8,0,0,0-.327.979c-.066.769-.1,1.542-.152,2.312a.328.328,0,0,0,.268.364.322.322,0,0,0,.363-.267q.064-.979.127-1.959a3.085,3.085,0,0,1,.1-.811c.056-.161.2-.4.4-.4a.33.33,0,0,0,.363-.267.321.321,0,0,0-.267-.363" transform="translate(-342.97 -1007.081)" fill="#d7992c"/>
            <path id="Path_908413" data-name="Path 908413" d="M431.045,1252.13a3.221,3.221,0,0,1-.194-.277l-.035-.058-.007-.012-.008-.015c-.025-.046-.049-.093-.072-.141a3.1,3.1,0,0,1-.123-.291c-.018-.049-.035-.1-.051-.149q-.013-.043-.025-.087l-.007-.025v-.006l0-.013v.005a.338.338,0,0,0-.116-.2.319.319,0,0,0-.514.288,3.6,3.6,0,0,0,.647,1.365.319.319,0,1,0,.509-.384" transform="translate(-349.055 -1015.614)" fill="#d7992c"/>
            <path id="Path_908414" data-name="Path 908414" d="M339.405,1098.411a11.568,11.568,0,0,0-17.206-10.095l.1.841a10.787,10.787,0,1,1,2.317,19.547l.1.835a11.554,11.554,0,0,0,14.691-11.128" transform="translate(-261.618 -882.496)" fill="#f33c47"/>
            <path id="Path_908415" data-name="Path 908415" d="M338.05,1113.8c-.243-1.579-.068-2.831.481-3.433a1.179,1.179,0,0,1,1-.37c.649.038,1.22.873,1.369,1.163a.969.969,0,0,0,1.731-.87,4,4,0,0,0-2.986-2.227,3.081,3.081,0,0,0-2.551,1c-.958,1.052-1.3,2.84-.963,5.032a13.008,13.008,0,0,1,.1,5.1,5.172,5.172,0,0,1-.68-.554,2.451,2.451,0,0,0-1.806-.9,1.48,1.48,0,0,0-1.062.629,4.149,4.149,0,0,0-.662,1.91c-.025.158-.059.371-.1.518a1.207,1.207,0,0,1-.135-.032l.234,1.978.032,0c.062,0,.125,0,.187-.007,1.363-.1,1.576-1.436,1.691-2.152a6.342,6.342,0,0,1,.134-.675l.178.161a3.508,3.508,0,0,0,2.051,1.135,1.576,1.576,0,0,0,1.277-.522c1.082-1.18.853-4.393.47-6.88" transform="translate(-269.411 -899.719)" fill="#fff"/>
            <path id="Path_908416" data-name="Path 908416" d="M340.632,1138.559l-14.322-9.216.118,1,13.785,8.872Z" transform="translate(-264.956 -917)" fill="#f33c47"/>
            <path id="Path_908417" data-name="Path 908417" d="M378.484,1113.2a.485.485,0,0,0,0,.969.485.485,0,0,0,0-.969" transform="translate(-306.94 -903.892)" fill="#4e4e4e"/>
            <path id="Path_908418" data-name="Path 908418" d="M385.684,1112.739a.485.485,0,0,0,0,.969.485.485,0,0,0,0-.969" transform="translate(-312.787 -903.518)" fill="#4e4e4e"/>
            <path id="Path_908419" data-name="Path 908419" d="M366.77,1113.891a1.205,1.205,0,0,1-.109-.1c-.015-.016-.03-.032-.044-.049l-.025-.03h0c-.027-.041-.056-.081-.08-.124-.012-.022-.023-.043-.034-.065l-.014-.03,0-.006h0a1.714,1.714,0,0,1-.076-.276c0-.013,0-.026,0-.039s0-.043,0-.065a1.19,1.19,0,0,1,.007-.156.194.194,0,0,0-.194-.194.2.2,0,0,0-.194.194,1.42,1.42,0,0,0,.5,1.216.2.2,0,0,0,.274,0,.2.2,0,0,0,0-.274" transform="translate(-297.175 -903.531)" fill="#4e4e4e"/>
            <path id="Path_908420" data-name="Path 908420" d="M361.613,1120.259c-.039-.01-.077-.022-.115-.036l-.023-.009-.052-.025a1.093,1.093,0,0,1-.1-.056l-.048-.032-.023-.017a1.285,1.285,0,0,1-.167-.16l-.018-.022,0,0-.026-.036a1.214,1.214,0,0,1-.066-.108.2.2,0,0,0-.265-.07.2.2,0,0,0-.069.265,1.411,1.411,0,0,0,.872.681.194.194,0,0,0,.1-.374" transform="translate(-292.809 -909.138)" fill="#4e4e4e"/>
            <path id="Path_908421" data-name="Path 908421" d="M359.383,1132.616a.2.2,0,0,0-.238-.135l-.04.006h-.01l-.061.006c-.047,0-.1.007-.143.008a2.114,2.114,0,0,1-.265-.011l-.038,0-.063-.01q-.065-.012-.13-.028a2.172,2.172,0,0,1-.272-.086.194.194,0,0,0-.238.135.2.2,0,0,0,.135.238,2.343,2.343,0,0,0,1.227.118.194.194,0,0,0,.135-.238" transform="translate(-290.589 -919.444)" fill="#4e4e4e"/>
            <path id="Path_908422" data-name="Path 908422" d="M355.559,1166.228a1.924,1.924,0,0,0-.2-.316.514.514,0,0,0-.354-.206.194.194,0,0,0-.194.194.2.2,0,0,0,.194.194h-.014s0,0,0,0,0,0,.005,0h0l.019.012.006.005.05.054h0l.021.029a1.792,1.792,0,0,1,.154.26c.01.02.019.041.029.062l0,.009.013.034c.017.046.033.092.046.139s.027.1.037.151c0,.024.009.048.013.072l0,.021c0,.01,0,.028,0,.027a.2.2,0,0,0,.194.194.2.2,0,0,0,.194-.194,2.1,2.1,0,0,0-.216-.745" transform="translate(-288.095 -946.525)" fill="#4e4e4e"/>
            <path id="Path_908423" data-name="Path 908423" d="M357.3,1160.924a2,2,0,0,0-1.229-.316.194.194,0,0,0,0,.387,1.853,1.853,0,0,1,.292,0l.069.007.034.006c.048.008.1.019.143.031s.094.026.14.042l.055.02.036.014.008,0a1.9,1.9,0,0,1,.256.14.2.2,0,0,0,.265-.07.2.2,0,0,0-.07-.265" transform="translate(-288.964 -942.382)" fill="#4e4e4e"/>
            <path id="Path_908424" data-name="Path 908424" d="M343.549,1162.226a.2.2,0,0,0-.238-.135.2.2,0,0,0-.135.238,4.558,4.558,0,0,1,.038,1.477c-.014.1.1.194.194.194a.2.2,0,0,0,.194-.194,4.866,4.866,0,0,0-.052-1.579" transform="translate(-278.647 -943.586)" fill="#4e4e4e"/>
            <path id="Path_908425" data-name="Path 908425" d="M338.074,1172.843a2.5,2.5,0,0,0-.908-.711.2.2,0,0,0-.265.069.2.2,0,0,0,.069.265,2.447,2.447,0,0,1,.24.127c.041.025.081.051.12.078l.052.037.029.021h0a2.559,2.559,0,0,1,.388.388.194.194,0,0,0,.274,0,.2.2,0,0,0,0-.274" transform="translate(-273.537 -951.725)" fill="#4e4e4e"/>
            <path id="Path_908426" data-name="Path 908426" d="M336.23,1178.618a2.753,2.753,0,0,0-.716-.976.194.194,0,0,0-.274.274,2.645,2.645,0,0,1,.207.2q.048.051.093.106l.034.042.014.017.023.032a2.615,2.615,0,0,1,.286.5.194.194,0,0,0,.265.07.2.2,0,0,0,.07-.265" transform="translate(-272.161 -956.173)" fill="#4e4e4e"/>
            <path id="Path_908427" data-name="Path 908427" d="M360.889,1143.413a.2.2,0,0,0-.238-.135l-.063.01-.033.005h-.01l-.126.013q-.132.01-.265.01c-.085,0-.17,0-.254-.011a2.147,2.147,0,0,1-.243-.032.194.194,0,1,0-.1.374,3.46,3.46,0,0,0,1.2,0,.2.2,0,0,0,.135-.238" transform="translate(-291.836 -928.309)" fill="#4e4e4e"/>
            <path id="Path_908428" data-name="Path 908428" d="M621.675,924.65l-1.966,1.8s-4.922,9.387-6.489,14.608-9.5,16.024-9.5,16.024,12.95-1.32,18.344-3.234,6.435-25.814,6.435-25.814Z" transform="translate(-490.211 -750.794)" fill="#fff"/>
            <path id="Path_908429" data-name="Path 908429" d="M698.251,832.672a10.782,10.782,0,0,0-2.291.783c-1.334.609-2.639,3.741-2.61,5.075s-2.134,6-3.948,8.377a23.63,23.63,0,0,0-2.716,4.711.263.263,0,0,0,.236.367,8.237,8.237,0,0,1,3.8.082,17.893,17.893,0,0,1,4.253,1.945s1.583-4.781,2.737-5.836,3.429-2.11,3.495-3.627.923-.659,1.022-2.407-.33-1.616-.1-2.737-.86-2.595-1.963-3.111a7.024,7.024,0,0,0-2.554-.516Z" transform="translate(-557.556 -676.11)" fill="#f33c47"/>
            <path id="Path_908430" data-name="Path 908430" d="M731.846,482.068a.678.678,0,0,1-.664-.82l20.134-94.357A6.947,6.947,0,0,1,754,382.741l1.836-1.35a.678.678,0,0,1,.8,1.093l-1.837,1.35a5.592,5.592,0,0,0-2.159,3.342l-20.134,94.357a.678.678,0,0,1-.662.537" transform="translate(-593.691 -309.573)" fill="#acbed1"/>
            <path id="Path_908431" data-name="Path 908431" d="M859.957,370.985h0a1.519,1.519,0,0,1-.339,2.121l-2.017,1.46a1.519,1.519,0,0,1-1.782-2.46l2.017-1.46a1.519,1.519,0,0,1,2.121.339" transform="translate(-694.395 -300.721)" fill="#eeb23f"/>
            <path id="Path_908432" data-name="Path 908432" d="M709.851,911.22l-3.719,17.429a2.228,2.228,0,1,1-4.357-.93l3.719-17.429a2.228,2.228,0,1,1,4.357.93" transform="translate(-569.785 -737.703)" fill="#eeb23f"/>
            <path id="Path_908433" data-name="Path 908433" d="M708.595,947.238s-.924-.3-1.235.171a5.95,5.95,0,0,0-.334,2.257c-.025.438.9.677.9.677Z" transform="translate(-574.089 -769.06)"/>
            <path id="Path_908434" data-name="Path 908434" d="M571.821,1685.247s.2,4.633.2,6.134-.13,7.047.065,7.5,7.766.261,7.831,0a17.143,17.143,0,0,0-.065-1.958s1.827.261,4.568.914a23.426,23.426,0,0,0,6.722,1.044,61.57,61.57,0,0,0,8.81-.392c.261-.2.065-2.153,0-2.349a2.788,2.788,0,0,0-2.219-1.762c-1.632-.261-8.483-3.524-10.637-4.633a30.234,30.234,0,0,1-4.372-2.871c-.261-.2-.261-5.351-.261-5.351Z" transform="translate(-464.306 -1365.362)" fill="#f33c47"/>
            <path id="Path_908435" data-name="Path 908435" d="M579.334,1751.694a42.87,42.87,0,0,0-6.693.192,28.312,28.312,0,0,0,.1,3.919c.2.457,7.766.261,7.831,0a17.142,17.142,0,0,0-.065-1.958s1.827.261,4.568.914a23.434,23.434,0,0,0,6.722,1.044,61.589,61.589,0,0,0,8.81-.392c.221-.165.115-1.586.038-2.141-1.6.1-4.713.269-8.26.314-5.156.065-9.854-1.631-13.052-1.892" transform="translate(-464.966 -1422.281)" fill="#1a1a1a"/>
            <path id="Path_908436" data-name="Path 908436" d="M588.784,1667.178q.052-1.486.16-2.969c.036-.5-.739-.5-.775,0a80.97,80.97,0,0,0-.076,10.448q.085,1.484.226,2.965a.4.4,0,0,0,.387.388.39.39,0,0,0,.388-.388,80.966,80.966,0,0,1-.309-10.444" transform="translate(-477.41 -1350.996)" fill="#c11e22"/>
            <path id="Path_908437" data-name="Path 908437" d="M370.691,1697.291s-.094,7.324-.376,9.3-.469,4.132-.563,6.2,14.837,1.315,15.119.845a4.837,4.837,0,0,0,.171-1.982,2.8,2.8,0,0,0-.9-1.509,25.66,25.66,0,0,1-3.688-4.772c-.751-1.409-.375-5.259-.469-6.385s-9.3-1.69-9.3-1.69" transform="translate(-300.23 -1378.161)" fill="#f33c47"/>
            <path id="Path_908438" data-name="Path 908438" d="M385.047,1770.215c-1.676.077-4.937.2-7.969.13a34.889,34.889,0,0,1-7.208-1.009c-.047.653-.087,1.3-.116,1.948-.094,2.066,14.837,1.315,15.118.845a4.712,4.712,0,0,0,.175-1.914" transform="translate(-300.231 -1436.66)" fill="#1a1a1a"/>
            <path id="Path_908439" data-name="Path 908439" d="M405.157,1757.312a9.845,9.845,0,0,0-8.382.375.388.388,0,0,0,.391.669c2.346-1.4,5.762-1.355,8.333-.43.47.169.125-.446-.341-.615" transform="translate(-322.021 -1426.288)" fill="#c11e22"/>
            <path id="Path_908440" data-name="Path 908440" d="M472.976,861.043a17.383,17.383,0,0,1-.2-7.847c.923-4.023-1.187-13.386-2.77-16.947s-7.254-5.8-8.375-6.265-5.737,1.649-5.737,1.649l9.5,25.718,4.022,4.616Z" transform="translate(-370.178 -673.874)" fill="#fff"/>
            <path id="Path_908441" data-name="Path 908441" d="M485.7,839.8a11.44,11.44,0,0,0-5.984-5.162,10.853,10.853,0,0,0-2.221-.576.211.211,0,0,0-.235.161c-.157.253.025.514.188.719q.377.472.757.942l1.574,1.96,1.544,1.922a3.422,3.422,0,0,0,.715.812,1.067,1.067,0,0,0,.88,0,6.154,6.154,0,0,1,2.564-.5.2.2,0,0,0,.219-.285" transform="translate(-387.473 -677.237)" fill="#acbed1"/>
            <path id="Path_908442" data-name="Path 908442" d="M386.527,982.951s-9.231,2.439-13.8,6.6.666,14.7,2.338,18.419c1.081,2.4,5.222,13.771,4.431,21.486s-6.289,46.167-6.289,46.167-1.278,5.17-4.1,17.188-3.858,28.784-3.116,29.378,12.054-.026,14.145-.3c1.132-.147,2.569-9.011,14.046-46.885,1.978-6.528.269-.69,3.165-14.046a73.476,73.476,0,0,1,1.187,14.441c-.3,6.677,2.325,41.594,3.363,43.522s15.727-.445,15.727-.445-.148-34.719-.3-44.363-7.254-64.987-7.254-64.987,6.392-5.558,8.7-8.243,3.841-3.832,4.088-4.286-1.088-8.985-1.088-8.985-10.386-1.781-14.986-2.819a82.8,82.8,0,0,0-20.264-1.849" transform="translate(-296.987 -798.092)" fill="#fff"/>
            <path id="Path_908443" data-name="Path 908443" d="M550.784,986.493s5.433,5.5,6.785,11.544l.636-.556a25.3,25.3,0,0,0-4.791-10.565,4.211,4.211,0,0,0-2.63-.422" transform="translate(-447.224 -800.944)" fill="#222"/>
            <path id="Path_908444" data-name="Path 908444" d="M637.844,951.657s1.305-1.24,2.415-2.415.718-2.937.848-3.524.642-.945,1.229-.423.765,1.691,1.026,2.083a1.222,1.222,0,0,0,.839.435,7.545,7.545,0,0,1,2.922-.777c1.958-.2,2.642-.124,2.859.248a1.35,1.35,0,0,1-.434,1.928c-.718.457.155.932-.61,2.184-.532.87.734,1.547-.105,2.355-1.031.993.105,1.5-.743,2.409s-6.069,2.023-6.526,2.284-2.138,4.008-4.655,6.6c-2.341,2.407-3.044,3.167-3.044,3.167s-7.936-5.343-5.679-9.371c.882-1.575,3.785-3.85,9.658-7.178" transform="translate(-509.745 -767.353)" fill="#f33c47"/>
            <path id="Path_908445" data-name="Path 908445" d="M733.756,832.672s.667-.029.812.812-.928,1.943-.928,1.943,1.537.116,2.03.87.493.957.493.957l-1.479,1.856-.638,5.1s-3.625.145-3.654-.348a3.963,3.963,0,0,1,.638-1.508s-.7-1.044-.261-1.595a3.048,3.048,0,0,0,.551-1.218s-.464-1.044-.058-1.479,1.015-.783.87-1.015.29-1.363.667-1.711a11.166,11.166,0,0,0,.957-2.668" transform="translate(-593.061 -676.11)" fill="#f33c47"/>
            <path id="Path_908446" data-name="Path 908446" d="M733.943,846.106c-1.081-.664-3.634.113-3.695.179a.912.912,0,0,1,.244-.642,2.977,2.977,0,0,1,1.227-.654.5.5,0,0,0,.338-.6.488.488,0,0,0-.6-.338,3.521,3.521,0,0,0-1.862,1.162,1.691,1.691,0,0,0-.238,1.454,2.039,2.039,0,0,0-1.005,1.183,1.389,1.389,0,0,0,.267,1.229,2.336,2.336,0,0,0-.659,1.311,1.366,1.366,0,0,0,.208.744,1.8,1.8,0,0,0-.622,1.04,1.261,1.261,0,0,0,.95,1.473,7.031,7.031,0,0,0,1.69-.066,2.409,2.409,0,0,1,1.6.6c.465.412,1.152-.27.685-.685a3.442,3.442,0,0,0-1.5-.8,4.292,4.292,0,0,0-1.555-.011c-.27.034-.825.148-.914-.177-.076-.277.229-.607.9-.976a1.64,1.64,0,0,1,.256-.115,4.583,4.583,0,0,1,.706-.209c.058-.012.116-.023.175-.033l.093-.015.03,0c.118-.012.236-.022.355-.026a4.573,4.573,0,0,1,.76.039.485.485,0,0,0,.484-.484.5.5,0,0,0-.484-.484,4.967,4.967,0,0,0-2.689.417.483.483,0,0,1-.134-.353,1.051,1.051,0,0,1,.56-.7,4.366,4.366,0,0,1,3.455-.536.485.485,0,0,0,.258-.934,5.362,5.362,0,0,0-3.818.415.386.386,0,0,1-.09-.508,1.6,1.6,0,0,1,.8-.7,5.843,5.843,0,0,1,2.344-.486,6.881,6.881,0,0,1,1.111.061c.25.043.531.054.651-.174s-.055-.464-.286-.605" transform="translate(-590.739 -685.335)" fill="#c11e22"/>
            <path id="Path_908447" data-name="Path 908447" d="M734.568,965.226c-.067-.1-.164-.137-.644-.017-.133.033-1.111.294-1.476.415a.484.484,0,1,0,.257.934,9.2,9.2,0,0,0,1.693-.865c.219-.219.237-.364.171-.467" transform="translate(-594.439 -783.665)" fill="#c11e22"/>
            <path id="Path_908448" data-name="Path 908448" d="M440.306,864.341s-.659.594-.2,3.429,1.846,2.967,1.846,2.967.659,1.187,1.846,2.968a3.267,3.267,0,0,0,4.682.528c.923-.923,6.66-13.848,6.66-13.848a17.131,17.131,0,0,0-.593-3.1c-.33-.726-4.352-3.165-6.462-2.9s-7.781,8.111-7.781,9.957" transform="translate(-357.224 -693.723)" fill="#4b3333"/>
            <path id="Path_908449" data-name="Path 908449" d="M483.88,951a9.063,9.063,0,0,0-1.707,4.369,13.665,13.665,0,0,0,.137,5.393c.273.751,2.458,4.164-.2,3.208s-5.8-1.775-7.987-3.345-2.253-2.321-2.253-2.321a13.171,13.171,0,0,0,2.185-5.6c.341-3.072,9.83-1.707,9.83-1.707" transform="translate(-383.144 -771.946)" fill="#e99167"/>
            <path id="Path_908450" data-name="Path 908450" d="M492.84,955.024a6.018,6.018,0,0,0,4.431.958c.02-.2.042-.4.068-.61A9.063,9.063,0,0,1,499.046,951s-5.813-.836-8.5.273a5.931,5.931,0,0,0,2.3,3.748" transform="translate(-398.31 -771.947)" fill="#1a1a1a"/>
            <path id="Path_908451" data-name="Path 908451" d="M531.992,915.359a2.512,2.512,0,1,1-3.521-1.58,2.752,2.752,0,0,1,3.521,1.58" transform="translate(-428.073 -741.794)" fill="#3a3a3a"/>
            <path id="Path_908452" data-name="Path 908452" d="M508.154,867.948a4.192,4.192,0,0,0,3.495.2c2.308-.659,4.616-1.121,4.286-1.846s-1.649-1.187-3.165-1.055-4.616,2.7-4.616,2.7" transform="translate(-412.609 -702.54)" fill="#1a1a1a"/>
            <path id="Path_908453" data-name="Path 908453" d="M464.829,873.123s5.47,9.52,4.734,12.593c-.389,1.624-2.967,3.141-4.3,3.652-4.11,1.576-6.861,2.387-9.127-1.646,0,0-3.845-.4-3.842-3.434,0-2.788,3.661-.569,3.661-.569a24.1,24.1,0,0,0-.85-4.821c2.221-.787,6.2-3.555,7.1-6.019a.553.553,0,0,1,.744-.311,9.157,9.157,0,0,0,1.88.555" transform="translate(-367.251 -708.467)" fill="#e99167"/>
            <path id="Path_908454" data-name="Path 908454" d="M490.12,913.915a.5.5,0,0,0-.44.046l-.046.024a.086.086,0,0,0-.018.007c-.006,0-.008.008-.014.012-.445.294-.235,1,.18,1.244a.44.44,0,0,0,.263.134.5.5,0,0,0,.294-.071.109.109,0,0,0,.03,0,.454.454,0,0,0,.313-.511.819.819,0,0,0-.562-.883" transform="translate(-397.343 -742.054)" fill="#1a1a1a"/>
            <path id="Path_908455" data-name="Path 908455" d="M522.84,897.8a.628.628,0,0,0-.857.341.508.508,0,0,0-.025.094.436.436,0,0,0,.048.313c.006.012.013.023.02.034s0,.007.006.01a1.271,1.271,0,0,0,.427.413.573.573,0,0,0,.8-.447.723.723,0,0,0-.42-.759" transform="translate(-423.81 -728.947)" fill="#1a1a1a"/>
            <path id="Path_908456" data-name="Path 908456" d="M517.216,919.332a.343.343,0,0,0-.474-.071l-.433.327a.339.339,0,1,0,.4.545l.433-.326a.345.345,0,0,0,.071-.474" transform="translate(-419.122 -746.366)" fill="#d55b43"/>
            <path id="Path_908457" data-name="Path 908457" d="M482.32,898.779c-.327.342-.7.63-1.013.991s-.579.77-.878,1.147c-.269.34.238.79.51.446.3-.377.563-.783.878-1.147s.686-.648,1.013-.99c.3-.315-.209-.762-.51-.446" transform="translate(-390.036 -729.7)" fill="#4b3333"/>
            <path id="Path_908458" data-name="Path 908458" d="M515.625,888.165a.325.325,0,0,1,.093-.628,4.723,4.723,0,0,1,2.014.337.325.325,0,0,1,.172.427.32.32,0,0,1-.427.172,4.185,4.185,0,0,0-1.71-.287.324.324,0,0,1-.142-.021" transform="translate(-418.508 -720.654)" fill="#4b3333"/>
            <path id="Path_908459" data-name="Path 908459" d="M482.456,912.067a11.023,11.023,0,0,0-3.178-.729c-1.164.249-1.67,2.823-2.139,3.656-.441.785-5.033-.372-5.571-.564.03.318.036.49.036.49l-.011-.007.027.175s2.565,5.709,5.083,6.728a18.589,18.589,0,0,0,4.21-1.247c1.335-.512,3.913-2.028,4.3-3.652.3-1.267-.448-3.63-1.437-5.97-.09.617-.386,1.379-1.322,1.121" transform="translate(-382.903 -739.667)" fill="#eeb23f"/>
            <path id="Path_908460" data-name="Path 908460" d="M488.042,937.879a2.913,2.913,0,1,1-4.258-1.379,3.191,3.191,0,0,1,4.258,1.379" transform="translate(-391.843 -760.109)" fill="#3a3a3a"/>
            <path id="Path_908461" data-name="Path 908461" d="M517.459,921.614c.915,1.875.391,4.012-1.171,4.775s-3.57-.139-4.485-2.013-.391-4.012,1.171-4.775,3.57.139,4.485,2.013" transform="translate(-415.206 -746.474)" fill="#3a3a3a"/>
            <g id="Group_1112121" data-name="Group 1112121" transform="translate(87.685 166.308)" opacity="0.28">
              <g id="Group_1112120" data-name="Group 1112120">
                <g id="Group_1112119" data-name="Group 1112119" clip-path="url(#clip-path-4)">
                  <path id="Path_908462" data-name="Path 908462" d="M470.968,892.432c-1,0-3.565-.133-4.267-.17-.091-.048-.21-.106-.35-.162a37.065,37.065,0,0,1,3.044-4.261c.563-.594,2.184-1.625,6.711-3.166a2.539,2.539,0,0,1,.768-.162c.262,0,.34.065.691.578.064.093.129.189.2.285a6.1,6.1,0,0,1,1,3.26c-.165.636-.324.636-.478.636a1.437,1.437,0,0,1-.306-.039c-.238-.053-.529-.147-.837-.247a6.811,6.811,0,0,0-1.978-.432,2.044,2.044,0,0,0-.922.2,4.325,4.325,0,0,0-1.685,2.373c-.08.193-.156.376-.225.521-.255.535-.524.789-1.364.789" transform="translate(-466.351 -884.509)" fill="#fff"/>
                </g>
              </g>
            </g>
            <path id="Path_908463" data-name="Path 908463" d="M473,881.57c-.579-.8-.833-1.557-2.534-.978s-5.72,1.991-7.024,3.367a48.358,48.358,0,0,0-3.729,5.322,2.726,2.726,0,0,1,1.376.4s3.295.181,4.49.181a1.971,1.971,0,0,0,2.064-1.231c.362-.76.76-2.136,1.557-2.535s2.245.326,3.222.543,1.448-.181,1.7-1.159-.543-3.114-1.122-3.91m.372,3.716c-.165.636-.324.636-.478.636a1.438,1.438,0,0,1-.306-.04c-.238-.053-.529-.147-.837-.247a6.821,6.821,0,0,0-1.978-.432,2.045,2.045,0,0,0-.921.2,4.326,4.326,0,0,0-1.685,2.373c-.08.193-.156.376-.225.521a1.226,1.226,0,0,1-1.364.789c-1,0-3.565-.133-4.267-.17-.091-.048-.21-.106-.35-.162A37.036,37.036,0,0,1,464,884.492c.563-.594,2.184-1.626,6.711-3.167a2.535,2.535,0,0,1,.768-.162c.262,0,.34.065.691.577.064.093.129.189.2.285a6.1,6.1,0,0,1,1,3.26" transform="translate(-373.276 -714.855)" fill="#eff1f1"/>
            <path id="Path_908464" data-name="Path 908464" d="M489.886,947.377a1.829,1.829,0,0,1-.246,2.5c-.7.4-1.726-.061-2.291-1.039a1.829,1.829,0,0,1,.246-2.5c.7-.4,1.726.061,2.291,1.039" transform="translate(-395.424 -768.286)" fill="#222"/>
            <path id="Path_908465" data-name="Path 908465" d="M526.409,927.683a1.772,1.772,0,1,1-2.47-1.3,2,2,0,0,1,2.47,1.3" transform="translate(-424.69 -752.102)" fill="#222"/>
            <path id="Path_908466" data-name="Path 908466" d="M428.564,845.713l-1.517,1.978s-3.549-4.681-3.429-6.067c.264-3.033,7.952-7.631,9.667-7.763s6.226,4.8,6.226,4.8-10.88,7.188-10.946,7.056" transform="translate(-343.966 -677.073)" fill="#f33c47"/>
            <path id="Path_908467" data-name="Path 908467" d="M449.935,866.435s7.122.462,8.9-.2,4.88-4.418,7.32-5.012,2.506.33,2.506.33.2-.923-1.912-1.451a40.785,40.785,0,0,0-5.869-.725,18.336,18.336,0,0,0-10.946,7.056" transform="translate(-365.337 -697.796)" fill="#c11e22"/>
            <path id="Path_908468" data-name="Path 908468" d="M420.595,1000a30.476,30.476,0,0,1,6.854,1.654,12.382,12.382,0,0,1,4.532,2.7l1.431.557a10.5,10.5,0,0,0-4.022-3.715,27.4,27.4,0,0,0-6.322-2.5,3.4,3.4,0,0,0-2.474,1.3" transform="translate(-341.514 -810.92)" fill="#222"/>
            <path id="Path_908469" data-name="Path 908469" d="M502.334,1024.9l-5.848,3.754L493.6,1030.5l-1.462.939c-.179.114-.386.277-.611.2a2.091,2.091,0,0,1-.538-.369,1.493,1.493,0,0,0-1.927.141,1.252,1.252,0,0,0-.568-.3,14.242,14.242,0,0,0-1.5.01,3.347,3.347,0,0,1-1.332-.7q-.654-.448-1.322-.874a48.367,48.367,0,0,0-5.554-3.05q-1.63-.761-3.313-1.4c-.35-.134-.5.428-.155.56a48.009,48.009,0,0,1,5.536,2.525q1.339.717,2.632,1.517.655.405,1.3.832c.407.27.8.568,1.22.817a2.4,2.4,0,0,0,1.526.342c.366-.037,1.109-.173,1.237.331a.294.294,0,0,0,.531.069.9.9,0,0,1,.813-.537c.4-.006.64.3.948.5a1.106,1.106,0,0,0,1.258-.043c.463-.282.913-.586,1.369-.878l5.686-3.65,3.249-2.085c.314-.2.023-.7-.293-.5" transform="translate(-385.794 -832.156)" fill="#acbed1"/>
            <path id="Path_908470" data-name="Path 908470" d="M534.906,1299.311a4.555,4.555,0,0,0-1.955,2.99c-.436,1.537-.8,3.1-1.192,4.647q-1.209,4.843-2.306,9.713-.619,2.749-1.2,5.506c-.1.487.644.694.747.206q1.009-4.767,2.124-9.51,1.121-4.766,2.35-9.505c.314-1.209.618-2.738,1.825-3.378.441-.234.05-.9-.391-.669" transform="translate(-428.92 -1054.971)" fill="#a1e0cc"/>
            <path id="Path_908471" data-name="Path 908471" d="M418.959,864.27s.857-5.473-2.77-9.562-7.386-7.913-8.507-13.452,4.118-10.626,4.418-10.815a7.79,7.79,0,0,1,3.891-1.121c1.451-.066-1.451-1.385-4.484-.462s-7.781,5.341-10.221,9.628-2.11,11.606,1.121,15.365a73.533,73.533,0,0,1,4.929,6.3Z" transform="translate(-324.535 -672.748)" fill="#fff"/>
            <path id="Path_908472" data-name="Path 908472" d="M500.98,1009.8a9.862,9.862,0,0,1-.32,2.286.291.291,0,0,0,.561.155,10.576,10.576,0,0,0,.341-2.44.291.291,0,0,0-.581,0" transform="translate(-406.516 -819.707)" fill="#acbed1"/>
            <path id="Path_908473" data-name="Path 908473" d="M544.494,987.3c-.034-.37-.615-.373-.581,0q.161,1.766.323,3.532c.034.37.615.373.581,0l-.323-3.532" transform="translate(-441.644 -801.437)" fill="#acbed1"/>
            <path id="Path_908474" data-name="Path 908474" d="M442.393,996.144a27.266,27.266,0,0,0-5.408-2.009.291.291,0,0,0-.154.56,26.541,26.541,0,0,1,5.269,1.951c.334.166.629-.335.293-.5" transform="translate(-354.529 -807.206)" fill="#acbed1"/>
            <path id="Path_908475" data-name="Path 908475" d="M636.209,1067.432q-2.2,2.652-4.469,5.245c-.245.28.164.693.411.411q2.269-2.593,4.469-5.245c.237-.286-.172-.7-.411-.411" transform="translate(-512.897 -866.65)" fill="#acbed1"/>
            <path id="Path_908476" data-name="Path 908476" d="M434.368,857.192a37.527,37.527,0,0,1-2.752-2.623,10.691,10.691,0,0,1-2.015-3.154,12.293,12.293,0,0,1-.513-7.242,17.691,17.691,0,0,1,3.817-7.387c.159-.19-.114-.465-.274-.274-3.156,3.775-5.149,8.792-3.833,13.718a10.738,10.738,0,0,0,1.5,3.306,16.9,16.9,0,0,0,2.549,2.805c.927.853,1.887,1.671,2.766,2.575a21.032,21.032,0,0,1,2.345,2.852,12.021,12.021,0,0,1,2.316,7.622c-.02.249.368.247.387,0,.39-4.893-2.866-9.1-6.3-12.2" transform="translate(-347.84 -679.177)" fill="#acbed1"/>
            <path id="Path_908477" data-name="Path 908477" d="M445.878,1153.981a53.368,53.368,0,0,1-7.988,13.813l-.18,1.317s2.454-1.735,5.745-7a45.414,45.414,0,0,0,4.069-7.48Z" transform="translate(-355.411 -937.006)" fill="#222"/>
            <path id="Path_908478" data-name="Path 908478" d="M462.937,1106.371a.4.4,0,0,0-.548,0q-3.471,2.831-6.943,5.661a25.744,25.744,0,0,1-6.927,4.438,11.34,11.34,0,0,1-3.943.782,10.429,10.429,0,0,1-3.975-.86c-1.256-.511-2.453-1.168-3.654-1.794-1.132-.59-2.259-1.19-3.363-1.831a26.794,26.794,0,0,1-6.756-5.26c-.331-.374-.877.175-.548.548a26.259,26.259,0,0,0,6.17,4.941c1.127.682,2.285,1.314,3.45,1.928,1.212.638,2.423,1.292,3.671,1.859a12.9,12.9,0,0,0,4.061,1.2,10.921,10.921,0,0,0,4.106-.435,21.885,21.885,0,0,0,7.289-4.19c2.664-2.112,5.276-4.291,7.911-6.439a.39.39,0,0,0,0-.548" transform="translate(-346.046 -898.258)" fill="#fff"/>
            <path id="Path_908479" data-name="Path 908479" d="M535.021,1027.059a28.983,28.983,0,0,0-2.4-5.39.6.6,0,0,0,.066-.327,2.525,2.525,0,0,0-.329-.736.2.2,0,0,0-.265-.07,1.722,1.722,0,0,0-.463.5.3.3,0,0,0-.062.238,1.013,1.013,0,0,0,.049.14,1.329,1.329,0,0,0,.157.288,1.482,1.482,0,0,0,.166.188c-.066.514-.111,1.031-.127,1.55a.718.718,0,0,0,.045.386.379.379,0,0,0,.355.168c.3-.007.6-.045.894-.068a.214.214,0,0,0,.186-.137,28.3,28.3,0,0,1,1.352,3.373c.077.236.451.135.374-.1m-2.39-4.174.219.673-.479.037a1.027,1.027,0,0,0-.17.012h0c.01-.124.006-.25.011-.375.019-.426.059-.852.113-1.275l.014-.005a5.575,5.575,0,0,1,.293.933" transform="translate(-431.618 -828.629)" fill="#acbed1"/>
            <path id="Path_908480" data-name="Path 908480" d="M565.2,1164.55q-.254-2.585-.637-5.156c-.037-.246-.41-.141-.374.1a104.333,104.333,0,0,1,1.077,18.468q-.08,2.618-.292,5.23c-.02.249.368.247.388,0a104.631,104.631,0,0,0-.162-18.645" transform="translate(-458.109 -941.287)" fill="#acbed1"/>
            <path id="Path_908481" data-name="Path 908481" d="M440.34,1021.341a3.023,3.023,0,0,0-.761-.072c-.416.016-.509.082-.533.238a3.984,3.984,0,0,1-.316.981c-.075.171-.15.342-.22.515a.682.682,0,0,0-.061.609.506.506,0,0,0,.127.142,74.444,74.444,0,0,0-4.546,8.543,86.707,86.707,0,0,0-3.836,10.416c-2.141,7.031-3.969,14.159-6.55,21.05a64.557,64.557,0,0,1-9.525,17.643,37.45,37.45,0,0,1-14.469,11.465,32,32,0,0,1-20.141,1.522q-1.192-.3-2.358-.7c-.355-.12-.507.441-.154.56a32.586,32.586,0,0,0,20.227.131,35.8,35.8,0,0,0,15.573-10.508,58.992,58.992,0,0,0,10.154-16.782,198.941,198.941,0,0,0,6.839-20.971,114.151,114.151,0,0,1,3.618-10.9,73.692,73.692,0,0,1,4.845-9.812q.425-.721.868-1.431a.616.616,0,0,0,.438-.146,1.4,1.4,0,0,0,.29-.43q.126-.238.238-.483a9.318,9.318,0,0,0,.456-1.222.293.293,0,0,0-.2-.357" transform="translate(-305.95 -829.245)" fill="#222"/>
            <g id="Group_1112124" data-name="Group 1112124" transform="translate(165.225 9.671)" opacity="0.5">
              <g id="Group_1112123" data-name="Group 1112123">
                <g id="Group_1112122" data-name="Group 1112122" clip-path="url(#clip-path-5)">
                  <path id="Path_908482" data-name="Path 908482" d="M1008.376,107.415A29.183,29.183,0,0,0,974.471,68.2a17.837,17.837,0,0,0-34.126-6.136,18.477,18.477,0,0,0-22.387,16.289,22.048,22.048,0,0,0-28.1,20c-3.9.274-11.107,13.208-11.107,13.208l.749,1.039,11.312,3.324a9.462,9.462,0,0,0,6.2-.107,21.993,21.993,0,0,0,8.773,4.9,19.516,19.516,0,0,0,19.422,17.617c.637,0,1.266-.032,1.887-.091-.02.3-.034.6-.034.9a13.429,13.429,0,0,0,25.86,5.082A12.162,12.162,0,0,0,966.67,140.8a23.3,23.3,0,0,0,32.5-15.533,10.073,10.073,0,0,0,9.206-17.857" transform="translate(-878.752 -51.428)" fill="#6266a9"/>
                </g>
              </g>
            </g>
            <path id="Path_908483" data-name="Path 908483" d="M962.453,268.367a15.509,15.509,0,0,1-4.534-5.974,15.239,15.239,0,0,1,.235-12.362.5.5,0,0,0-.174-.663.488.488,0,0,0-.662.174,16.343,16.343,0,0,0-1.474,8.62,16.217,16.217,0,0,0,5.925,10.89.5.5,0,0,0,.685,0,.488.488,0,0,0,0-.685" transform="translate(-776.052 -202.43)" fill="#fff"/>
            <path id="Path_908484" data-name="Path 908484" d="M1025.882,391.187a23.6,23.6,0,0,1-8.963,3.182,13.065,13.065,0,0,1-7.974-1.557,9.544,9.544,0,0,1-3.2-2.982c-.34-.519-1.18-.034-.836.489a11.519,11.519,0,0,0,6.885,4.679,16.678,16.678,0,0,0,9.37-.6,30.332,30.332,0,0,0,5.208-2.372.485.485,0,0,0-.489-.836" transform="translate(-815.898 -316.352)" fill="#fff"/>
            <path id="Path_908485" data-name="Path 908485" d="M1139.609,428.427c-4.15,2.64-8.875,4.847-13.886,4.884-4.318.032-8.806-1.606-11.412-5.186a22.09,22.09,0,0,1-2.135-3.772,9.629,9.629,0,0,1-1.055-4.146.485.485,0,0,0-.969,0,9.823,9.823,0,0,0,.887,3.952,24.846,24.846,0,0,0,1.855,3.6,13.564,13.564,0,0,0,2.79,3.2c-3.581,2.817-8.247,4.471-12.78,3.286a10.8,10.8,0,0,1-3.535-1.639.489.489,0,0,0-.663.174.5.5,0,0,0,.174.663,12.331,12.331,0,0,0,7.049,2.163,15.589,15.589,0,0,0,7.309-1.9,20.213,20.213,0,0,0,3.231-2.144,12.877,12.877,0,0,0,1.622.983,16.453,16.453,0,0,0,6.664,1.714,20.672,20.672,0,0,0,7.413-1.1,35.66,35.66,0,0,0,7.93-3.892c.524-.334.039-1.172-.489-.836" transform="translate(-892.071 -340.818)" fill="#fff"/>
            <path id="Path_908486" data-name="Path 908486" d="M1272.58,515.47a17.716,17.716,0,0,1-.525,4.2.485.485,0,0,0,.934.258,18.822,18.822,0,0,0,.56-4.455.484.484,0,0,0-.968,0" transform="translate(-1032.866 -418.17)" fill="#fff"/>
            <path id="Path_908487" data-name="Path 908487" d="M1241.39,104.829a9.71,9.71,0,0,0-7.543,4.951,9.047,9.047,0,0,0-.839,2.093,6.131,6.131,0,0,0-4.556,1.516,5.811,5.811,0,0,0-1.874,4.95,6.05,6.05,0,0,0,.843,2.532,18.164,18.164,0,0,0-2.342,1.5,15.9,15.9,0,0,0-6.463,13.106,13.754,13.754,0,0,0,2.026,7.069c.163.258.336.509.517.754a.5.5,0,0,0,.663.174.487.487,0,0,0,.174-.662,12.483,12.483,0,0,1-2.369-6.458,15.206,15.206,0,0,1,1.132-7,14.96,14.96,0,0,1,4.25-5.7,18.27,18.27,0,0,1,6.441-3.41,21.31,21.31,0,0,1,7.408-.864q.461.027.92.074a.487.487,0,0,0,.484-.484.5.5,0,0,0-.484-.484,22.255,22.255,0,0,0-7.767.6,20.754,20.754,0,0,0-3.722,1.351,5.142,5.142,0,0,1-.576-4.128,4.866,4.866,0,0,1,3.022-3.175,4.958,4.958,0,0,1,2.517-.259.493.493,0,0,0,.6-.338,8.72,8.72,0,0,1,5.238-6.172,8.1,8.1,0,0,1,2.306-.56.5.5,0,0,0,.484-.484.488.488,0,0,0-.484-.484" transform="translate(-989.486 -85.117)" fill="#fff"/>
            <path id="Path_908488" data-name="Path 908488" d="M1351.455,288.413a14.588,14.588,0,0,0-6.408-1.111,14.409,14.409,0,0,0-2.843.444,9.522,9.522,0,0,0-2.73-6.125,16.247,16.247,0,0,0-6.632-4.163,18.947,18.947,0,0,0-8.167-.952,18.68,18.68,0,0,0-7.358,2.393,19.066,19.066,0,0,0-4.516,3.623,4.328,4.328,0,0,0-3.133-1.876,5.58,5.58,0,0,0-4.143,1.309,8.864,8.864,0,0,0-1.771,1.936.489.489,0,0,0,.174.662.494.494,0,0,0,.662-.174,6.653,6.653,0,0,1,2.962-2.511,3.966,3.966,0,0,1,3.338.163,2.955,2.955,0,0,1,1.236,1.267c-.167.2-.333.407-.492.617q-.284.376-.548.766c-.351.517.488,1,.836.489a17.738,17.738,0,0,1,19.565-7.122,16.076,16.076,0,0,1,6.557,3.517,8.872,8.872,0,0,1,3.186,6.466,17.788,17.788,0,0,0-2.448,1.016,31.533,31.533,0,0,0-3.22,1.907c-.518.342-.033,1.182.489.836a23,23,0,0,1,5.627-2.9,13.631,13.631,0,0,1,6.1-.5,14.157,14.157,0,0,1,3.415.958.487.487,0,0,0,.6-.338.5.5,0,0,0-.338-.6" transform="translate(-1058.564 -224.433)" fill="#fff"/>
            <path id="Path_908489" data-name="Path 908489" d="M1087.907,196.151a10.811,10.811,0,0,0-9.6-1.848,13.037,13.037,0,0,0-4.515,2.318,11.574,11.574,0,0,0-3.215,3.75,6.323,6.323,0,0,0-.495,5.287.5.5,0,0,0,.6.338.487.487,0,0,0,.338-.6c-1.2-2.885.881-5.912,3-7.722a11.266,11.266,0,0,1,8.5-2.754,9.271,9.271,0,0,1,4.7,1.911.5.5,0,0,0,.685,0,.488.488,0,0,0,0-.685" transform="translate(-868.577 -157.438)" fill="#fff"/>
          </g>
        </g>
      </g>
    </g>
  </g>
</svg>
