<svg xmlns="http://www.w3.org/2000/svg" width="190" height="94" viewBox="0 0 190 94">
  <g id="Group_1112461" data-name="Group 1112461" transform="translate(-180 -436)">
    <g id="Group_1111655" data-name="Group 1111655" transform="translate(180 436)">
      <rect id="Rectangle_405035" data-name="Rectangle 405035" width="190" height="94" fill="#e6f8db"/>
      <g id="quimica" transform="translate(59.537 5)">
        <path id="Path_909343" data-name="Path 909343" d="M232.512,116.183V102.566H215.557v13.617a20.863,20.863,0,1,0,16.955,0Zm0,0" transform="translate(-175.027 -80.59)" fill="#c9fff7"/>
        <path id="Path_909344" data-name="Path 909344" d="M266.93,263.9a16.641,16.641,0,1,1-28.169-12h23.056a16.66,16.66,0,0,1,5.113,12Zm0,0" transform="translate(-201.281 -209.242)" fill="#f7d360"/>
        <path id="Path_909345" data-name="Path 909345" d="M219.369,129.311v-3.768a3.7,3.7,0,0,1,3.7-3.7h9.447v-4.041H215.558v11.506a20.865,20.865,0,0,0,8.33,39.928c-6.274-.145-11.335-9.429-11.335-20.861C212.553,139.874,215.354,132.56,219.369,129.311Zm0,0" transform="translate(-175.027 -93.718)" fill="#72cec0"/>
        <path id="Path_909346" data-name="Path 909346" d="M241.995,278.324a16.632,16.632,0,0,1-3.233-26.418H240.9a33.575,33.575,0,0,0-2.089,12,31.54,31.54,0,0,0,3.187,14.421Zm0,0" transform="translate(-201.282 -209.242)" fill="#e58e13"/>
        <path id="Path_909347" data-name="Path 909347" d="M48.43,202.179,34.88,178.712V166.57H22v12.141L8.455,202.179a6.048,6.048,0,0,0,5.238,9.072h29.5a6.049,6.049,0,0,0,5.238-9.072Zm0,0" transform="translate(-6.578 -135.728)" fill="#e6e6e6"/>
        <path id="Path_909348" data-name="Path 909348" d="M34.878,166.57H22v12.141L8.452,202.179a6.047,6.047,0,0,0,5.236,9.072h8.053c-2.114,0-3.436-5.039-2.379-9.072l6.153-23.468v-6.233a2.319,2.319,0,0,1,2.319-2.319h7.042Zm0,0" transform="translate(-6.575 -135.728)" fill="#ccc"/>
        <path id="Path_909349" data-name="Path 909349" d="M99.87,129.69a2.744,2.744,0,0,1-2.745,2.744H80.4a2.744,2.744,0,0,1,0-5.489H97.125a2.744,2.744,0,0,1,2.745,2.745Zm0,0" transform="translate(-66.899 -107.259)" fill="#ccc"/>
        <path id="Path_909350" data-name="Path 909350" d="M141.257,129.69a2.744,2.744,0,0,1-2.745,2.744H128.443a2.744,2.744,0,0,1,0-5.489h10.069a2.744,2.744,0,0,1,2.745,2.745Zm0,0" transform="translate(-108.287 -107.259)" fill="#e6e6e6"/>
        <path id="Path_909351" data-name="Path 909351" d="M286.3,80.928a2.744,2.744,0,0,1-2.744,2.745H262.869a2.744,2.744,0,0,1,0-5.489h20.689a2.744,2.744,0,0,1,2.744,2.744Zm0,0" transform="translate(-224.09 -66.089)" fill="#72cec0"/>
        <path id="Path_909352" data-name="Path 909352" d="M326.182,80.928a2.744,2.744,0,0,1-2.744,2.745H309.163a2.744,2.744,0,1,1,0-5.489h14.276a2.744,2.744,0,0,1,2.744,2.744Zm0,0" transform="translate(-263.971 -66.089)" fill="#c9fff7"/>
        <path id="Path_909353" data-name="Path 909353" d="M71.021,333.445a1.766,1.766,0,0,1-1.581.913h-29.5a1.826,1.826,0,0,1-1.582-2.739l9.957-17.245H61.065l9.956,17.245a1.766,1.766,0,0,1,0,1.825Zm0,0" transform="translate(-32.826 -263.058)" fill="#fc5f61"/>
        <path id="Path_909354" data-name="Path 909354" d="M45.613,329.509a12.513,12.513,0,0,0-.24,4.85H39.941a1.826,1.826,0,0,1-1.582-2.739l9.957-17.245h1.265Zm0,0" transform="translate(-32.826 -263.058)" fill="#e83842"/>
        <path id="Path_909355" data-name="Path 909355" d="M58.541,90.253V87.866a1.064,1.064,0,1,0-2.111,0v3.15a1.212,1.212,0,0,0,.626,1.092c7.143,3.6,11.76,11.652,11.76,20.507,0,12.371-8.886,22.436-19.808,22.436a17.62,17.62,0,0,1-6.465-1.223c.077-.133.153-.268.224-.408a8.8,8.8,0,0,0,.672-1.778,15.7,15.7,0,0,0,5.57,1.018c9.758,0,17.7-8.992,17.7-20.045a21.544,21.544,0,0,0-5.436-14.451,1,1,0,0,0-.732-.335H37.48a1,1,0,0,0-.732.334,20.415,20.415,0,0,0-4.213,7.137l-1.311-2.573a21.193,21.193,0,0,1,9.736-10.619,1.211,1.211,0,0,0,.626-1.092V79.178H56.43v3.905a1.064,1.064,0,1,0,2.111,0V79.178h.927a4.337,4.337,0,0,0,0-8.608h-4.3a1.2,1.2,0,0,0,0,2.391h4.3a1.928,1.928,0,0,1,0,3.825H38.779a1.928,1.928,0,0,1,0-3.825H50.943a1.2,1.2,0,0,0,0-2.391H38.779a4.337,4.337,0,0,0,0,8.608h.7V90.253a23.315,23.315,0,0,0-9.5,10.033l-.621-1.219V86.83h.869a4.337,4.337,0,0,0,0-8.608H13.5a4.337,4.337,0,0,0,0,8.608h.869V99.067L.963,125.373a8.886,8.886,0,0,0,0,8.047,6.928,6.928,0,0,0,6.151,4.023H25.19a1.2,1.2,0,0,0,0-2.391H7.115a4.87,4.87,0,0,1-4.324-2.828,6.244,6.244,0,0,1,0-5.655L16.341,99.986a1.323,1.323,0,0,0,.141-.6V86.83H27.247V99.388a1.323,1.323,0,0,0,.141.6l13.549,26.583a6.244,6.244,0,0,1,0,5.655,4.869,4.869,0,0,1-4.324,2.828h-7.2a1.2,1.2,0,0,0,0,2.391h7.2a6.54,6.54,0,0,0,4.39-1.71,19.55,19.55,0,0,0,8,1.71c12.087,0,21.919-11.137,21.919-24.827,0-9.537-4.839-18.229-12.386-22.363ZM15.426,84.439H13.5a1.928,1.928,0,0,1,0-3.825H30.227a1.928,1.928,0,0,1,0,3.825ZM33.95,108.075a18.349,18.349,0,0,1,3.964-7.854H60.1a19.045,19.045,0,0,1,4.491,12.394c0,9.734-6.992,17.654-15.587,17.654a13.824,13.824,0,0,1-5.284-1.046,8.847,8.847,0,0,0-.958-3.85Zm0,0" transform="translate(0 -60.864)"/>
        <path id="Path_909356" data-name="Path 909356" d="M65.368,327.412a2.817,2.817,0,0,0,0-2.882l-9.956-17.244a1.055,1.055,0,0,0-.914-.528H41.748a1.055,1.055,0,0,0-.914.528L30.878,324.53a2.882,2.882,0,0,0,2.5,4.322h29.5a2.816,2.816,0,0,0,2.5-1.44Zm-32.662-1.056a.708.708,0,0,1,0-.771l9.651-16.717H53.888l9.651,16.717a.771.771,0,0,1-.668,1.156h-29.5a.708.708,0,0,1-.667-.385Zm0,0" transform="translate(-26.259 -256.496)"/>
        <path id="Path_909357" data-name="Path 909357" d="M168.637,386.741a1.055,1.055,0,1,0-.459,1.325A1.064,1.064,0,0,0,168.637,386.741Zm0,0" transform="translate(-143.528 -326.407)"/>
        <path id="Path_909358" data-name="Path 909358" d="M134.053,75.751a1.056,1.056,0,1,0-1.028-.818A1.065,1.065,0,0,0,134.053,75.751Zm0,0" transform="translate(-114.575 -63.511)"/>
        <path id="Path_909359" data-name="Path 909359" d="M163.8,46.6a1.055,1.055,0,1,0-.416-1.208A1.063,1.063,0,0,0,163.8,46.6Zm0,0" transform="translate(-140.709 -38.548)"/>
        <path id="Path_909360" data-name="Path 909360" d="M146.886,1.955a1.054,1.054,0,0,0,1.968-.048,1.055,1.055,0,1,0-1.968.048Zm0,0" transform="translate(-126.47 -0.5)"/>
        <path id="Path_909361" data-name="Path 909361" d="M413.152,285.395a1.055,1.055,0,1,0,.4-1.286A1.06,1.06,0,0,0,413.152,285.395Zm0,0" transform="translate(-355.85 -240.059)"/>
        <path id="Path_909362" data-name="Path 909362" d="M419.289,334.753a1.055,1.055,0,1,0,1.181.631A1.064,1.064,0,0,0,419.289,334.753Zm0,0" transform="translate(-360.484 -282.988)"/>
        <path id="Path_909363" data-name="Path 909363" d="M319.074,393.57a1.055,1.055,0,1,0,.477-1.335A1.064,1.064,0,0,0,319.074,393.57Zm0,0" transform="translate(-274.805 -331.484)"/>
        <path id="Path_909364" data-name="Path 909364" d="M284.787,328.115a1.055,1.055,0,1,0,1.173.611A1.068,1.068,0,0,0,284.787,328.115Zm0,0" transform="translate(-244.605 -277.377)"/>
        <path id="Path_909365" data-name="Path 909365" d="M376.979,311.284a1.054,1.054,0,1,0,.388-1.281A1.059,1.059,0,0,0,376.979,311.284Zm0,0" transform="translate(-324.689 -261.938)"/>
        <path id="Path_909366" data-name="Path 909366" d="M115.291,402.425a1.055,1.055,0,1,0-.423,1.3,1.066,1.066,0,0,0,.423-1.3Zm0,0" transform="translate(-97.571 -338.349)"/>
        <path id="Path_909367" data-name="Path 909367" d="M133.936,352.5a1.055,1.055,0,1,0,1.144.552A1.064,1.064,0,0,0,133.936,352.5Zm0,0" transform="translate(-114.652 -297.984)"/>
      </g>
    </g>
  </g>
</svg>
