<svg xmlns="http://www.w3.org/2000/svg" width="295.426" height="143.028" viewBox="0 0 295.426 143.028">
  <g id="Group_1113126" data-name="Group 1113126" transform="translate(-1125.074 -404.972)">
    <g id="Group_1112408" data-name="Group 1112408" transform="translate(1122.48 -217.478)">
      <path id="Path_903846" data-name="Path 903846" d="M0,1C6.516,1,6.516,11.475,13.034,11.475S19.551,1,26.069,1,32.586,11.475,39.1,11.475,45.622,1,52.14,1s6.516,10.475,13.033,10.475S71.692,1,78.211,1s6.516,10.475,13.033,10.475S97.765,1,104.287,1s6.521,10.475,13.042,10.475" transform="translate(180.69 622.449)" fill="none" stroke="#98e465" stroke-miterlimit="10" stroke-width="2"/>
      <path id="Path_903847" data-name="Path 903847" d="M0,13.79c6.516,0,6.516,10.475,13.034,10.475S19.551,13.79,26.069,13.79,32.586,24.265,39.1,24.265,45.622,13.79,52.14,13.79s6.516,10.475,13.033,10.475S71.692,13.79,78.211,13.79s6.516,10.475,13.033,10.475S97.765,13.79,104.287,13.79s6.521,10.475,13.042,10.475" transform="translate(180 634.224)" fill="none" stroke="#98e465" stroke-miterlimit="10" stroke-width="2"/>
      <path id="Path_903848" data-name="Path 903848" d="M0,26.58c6.516,0,6.516,10.475,13.034,10.475S19.551,26.58,26.069,26.58,32.586,37.055,39.1,37.055,45.622,26.58,52.14,26.58s6.516,10.475,13.033,10.475S71.692,26.58,78.211,26.58s6.516,10.475,13.033,10.475S97.765,26.58,104.287,26.58s6.521,10.475,13.042,10.475" transform="translate(180 645.704)" fill="none" stroke="#98e465" stroke-miterlimit="10" stroke-width="2"/>
      <path id="Path_903849" data-name="Path 903849" d="M0,1C6.516,1,6.516,11.475,13.034,11.475S19.551,1,26.069,1,32.586,11.475,39.1,11.475,45.622,1,52.14,1s6.516,10.475,13.033,10.475S71.692,1,78.211,1s6.516,10.475,13.033,10.475S97.765,1,104.287,1s6.521,10.475,13.042,10.475" transform="translate(180 698.601)" fill="none" stroke="#98e465" stroke-miterlimit="10" stroke-width="2"/>
      <path id="Path_903850" data-name="Path 903850" d="M0,13.79c6.516,0,6.516,10.475,13.034,10.475S19.551,13.79,26.069,13.79,32.586,24.265,39.1,24.265,45.622,13.79,52.14,13.79s6.516,10.475,13.033,10.475S71.692,13.79,78.211,13.79s6.516,10.475,13.033,10.475S97.765,13.79,104.287,13.79s6.521,10.475,13.042,10.475" transform="translate(180.69 712.895)" fill="none" stroke="#98e465" stroke-miterlimit="10" stroke-width="2"/>
      <path id="Path_903851" data-name="Path 903851" d="M0,26.58c6.516,0,6.516,10.475,13.034,10.475S19.551,26.58,26.069,26.58,32.586,37.055,39.1,37.055,45.622,26.58,52.14,26.58s6.516,10.475,13.033,10.475S71.692,26.58,78.211,26.58s6.516,10.475,13.033,10.475S97.765,26.58,104.287,26.58s6.521,10.475,13.042,10.475" transform="translate(180.69 727.422)" fill="none" stroke="#98e465" stroke-miterlimit="10" stroke-width="2"/>
    </g>
    <g id="Group_1111711" data-name="Group 1111711" transform="translate(945.074 -30)">
      <g id="Group_1111655" data-name="Group 1111655" transform="translate(180 436)">
        <rect id="Rectangle_405035" data-name="Rectangle 405035" width="248" height="141" fill="#e6f8db"/>
        <g id="desperdicio" transform="translate(84.926 18.037)">
          <g id="Group_1112424" data-name="Group 1112424" transform="translate(1.692 1.692)">
            <g id="Group_1112409" data-name="Group 1112409">
              <path id="Path_909306" data-name="Path 909306" d="M19.616,6.077,6.077,19.616,2.2,15.74a4.086,4.086,0,0,1,0-5.788L9.953,2.2a4.086,4.086,0,0,1,5.788,0Z" transform="translate(-1 -1)" fill="#69d6f4"/>
            </g>
            <g id="Group_1112410" data-name="Group 1112410" transform="translate(5.077 5.077)">
              <path id="Path_909307" data-name="Path 909307" d="M12.462,19.231a3.4,3.4,0,0,0-3.385,3.385L4,17.539,17.539,4,26,12.462H24.308a1.7,1.7,0,0,0-1.692,1.692v5.077Z" transform="translate(-4 -4)" fill="#69d6f4"/>
            </g>
            <g id="Group_1112411" data-name="Group 1112411" transform="translate(34.05)">
              <path id="Path_909308" data-name="Path 909308" d="M41.225,16.434v8.259H27.686V16.231a1.7,1.7,0,0,0-1.692-1.692H21.12a8.927,8.927,0,0,1,6.566-6.769V1h6.769V7.769A8.94,8.94,0,0,1,41.225,16.434Z" transform="translate(-21.12 -1)" fill="#ffeaa7"/>
            </g>
            <g id="Group_1112412" data-name="Group 1112412" transform="translate(23.693 13.539)">
              <path id="Path_909309" data-name="Path 909309" d="M31.924,10.692v8.462H21.769a3.4,3.4,0,0,0-3.385-3.385H15V10.692A1.7,1.7,0,0,1,16.692,9H30.231A1.7,1.7,0,0,1,31.924,10.692Z" transform="translate(-15 -9)" fill="#e6e9ed"/>
            </g>
            <g id="Group_1112413" data-name="Group 1112413" transform="translate(3.385 30.462)">
              <path id="Path_909310" data-name="Path 909310" d="M26.693,32.539a3.409,3.409,0,0,0,3.385-3.385V19H57.155L54.447,73.155H43.616a3.4,3.4,0,0,0-3.385,3.385v6.769a3.4,3.4,0,0,0,3.385,3.385h-30.8a6.766,6.766,0,0,1-6.752-6.431L3,19H9.769V39.308a3.385,3.385,0,1,0,6.769,0V25.769a3.4,3.4,0,0,1,3.385-3.385,3.409,3.409,0,0,1,3.385,3.385v3.385a3.4,3.4,0,0,0,3.385,3.385Z" transform="translate(-3 -19)" fill="#b4dd7f"/>
            </g>
            <g id="Group_1112414" data-name="Group 1112414" transform="translate(30.462 23.693)">
              <path id="Path_909311" data-name="Path 909311" d="M49.462,16.692v3.385a1.7,1.7,0,0,1-1.692,1.692H19V15H47.77A1.7,1.7,0,0,1,49.462,16.692Z" transform="translate(-19 -15)" fill="#8cc152"/>
            </g>
            <g id="Group_1112415" data-name="Group 1112415" transform="translate(0 23.693)">
              <path id="Path_909312" data-name="Path 909312" d="M11.154,15v6.769H2.692A1.7,1.7,0,0,1,1,20.077V16.692A1.7,1.7,0,0,1,2.692,15Z" transform="translate(-1 -15)" fill="#8cc152"/>
            </g>
            <g id="Group_1112416" data-name="Group 1112416" transform="translate(10.154 20.308)">
              <path id="Path_909313" data-name="Path 909313" d="M7,16.385A3.4,3.4,0,0,1,10.385,13H23.924a3.4,3.4,0,0,1,3.385,3.385V33.308a3.409,3.409,0,0,1-3.385,3.385,3.4,3.4,0,0,1-3.385-3.385V29.924a3.409,3.409,0,0,0-3.385-3.385,3.4,3.4,0,0,0-3.385,3.385V43.462a3.385,3.385,0,1,1-6.769,0V16.385Z" transform="translate(-7 -13)" fill="#a0d468"/>
            </g>
            <g id="Group_1112417" data-name="Group 1112417" transform="translate(67.694 88.002)">
              <path id="Path_909314" data-name="Path 909314" d="M47.769,56.385v1.692a1.7,1.7,0,0,1-1.692,1.692H41V53h5.077a1.7,1.7,0,0,1,1.692,1.692Z" transform="translate(-41 -53)" fill="#fcd770"/>
            </g>
            <g id="Group_1112418" data-name="Group 1112418" transform="translate(40.616 84.618)">
              <path id="Path_909315" data-name="Path 909315" d="M45.308,51H28.385A3.4,3.4,0,0,0,25,54.385v6.769a3.4,3.4,0,0,0,3.385,3.385H45.308l6.769-3.385V54.385Z" transform="translate(-25 -51)" fill="#ffeaa7"/>
            </g>
            <g id="Group_1112419" data-name="Group 1112419" transform="translate(71.079 91.387)">
              <path id="Path_909316" data-name="Path 909316" d="M68.385,55a5.077,5.077,0,0,1,0,10.154H56.539a3.4,3.4,0,0,1-3.385-3.385H46.385A3.4,3.4,0,0,1,43,58.385h1.692a1.7,1.7,0,0,0,1.692-1.692V55h22Z" transform="translate(-43 -55)" fill="#69d6f4"/>
            </g>
            <g id="Group_1112420" data-name="Group 1112420" transform="translate(88.002 84.618)">
              <ellipse id="Ellipse_12682" data-name="Ellipse 12682" cx="3" cy="3.5" rx="3" ry="3.5" transform="translate(0.306 -0.31)" fill="#4fc1e9"/>
            </g>
            <g id="Group_1112421" data-name="Group 1112421" transform="translate(16.924 44.001)">
              <path id="Path_909317" data-name="Path 909317" d="M24.539,54.078H21.154a3.4,3.4,0,0,1-3.385-3.385V49l-.2-.051a8.736,8.736,0,0,1-4.739-3.08A8.644,8.644,0,0,1,11,40.539a13.539,13.539,0,0,1,27.078,0,8.671,8.671,0,0,1-6.566,8.411l-.2.051v1.692a3.4,3.4,0,0,1-3.385,3.385Z" transform="translate(-11 -27)" fill="#969faa"/>
            </g>
            <g id="Group_1112422" data-name="Group 1112422" transform="translate(30.462 54.155)">
              <circle id="Ellipse_12683" data-name="Ellipse 12683" cx="3.5" cy="3.5" r="3.5" transform="translate(-0.155 0.152)" fill="#ccd1d9"/>
            </g>
            <g id="Group_1112423" data-name="Group 1112423" transform="translate(23.693 54.155)">
              <circle id="Ellipse_12684" data-name="Ellipse 12684" cx="3.5" cy="3.5" r="3.5" transform="translate(-0.385 0.152)" fill="#ccd1d9"/>
            </g>
          </g>
          <g id="Group_1112425" data-name="Group 1112425" transform="translate(0)">
            <path id="Path_909318" data-name="Path 909318" d="M30.924,37.077a5.055,5.055,0,0,0-8.462-3.757,5.077,5.077,0,1,0,0,7.514,5.055,5.055,0,0,0,8.462-3.757ZM19.077,38.769a1.692,1.692,0,1,1,1.692-1.692A1.7,1.7,0,0,1,19.077,38.769Zm5.077-1.692a1.692,1.692,0,1,1,1.692,1.692A1.7,1.7,0,0,1,24.154,37.077Z" transform="translate(9.693 22.155)"/>
            <path id="Path_909319" data-name="Path 909319" d="M98.156,91.387h-.311a5.02,5.02,0,0,0,.311-1.692,5.077,5.077,0,0,0-10.154,0,5.02,5.02,0,0,0,.311,1.692h-3.7v-21.3L99.849,54.856l2.188,2.188,2.393-2.393-2.188-2.188,2.188-2.188-2.393-2.393-7.265,7.265V44H91.387v4.376L89.2,46.189l-2.393,2.393,4.581,4.581v5.368L84.618,65.3V46.394L97.661,33.351l-2.393-2.393-3.881,3.881V30.462H88v7.761l-3.385,3.385V24.685L80.737,20.8,78.344,23.2l2.889,2.889V51.762l-10.65-10.65L68.19,43.505l3.881,3.881L68.19,51.266l2.393,2.393,3.881-3.881,6.769,6.769V75.455L67.2,61.421l-2.393,2.393,3.881,3.881-3.881,3.881L67.2,73.968l3.881-3.881L81.233,80.241V91.387H77.848A3.388,3.388,0,0,0,74.463,88H69.786l-6.769-3.385H58.3l2.539-50.771h.083a3.388,3.388,0,0,0,3.385-3.385V27.078a3.388,3.388,0,0,0-3.385-3.385H57.54V17.132a10.615,10.615,0,0,0-6.769-9.905V3.385h3.385V0H37.232V3.385h3.385V7.23a10.738,10.738,0,0,0-6.138,6.309H29.471L17.624,1.692a5.915,5.915,0,0,0-8.171,0L1.692,9.453a5.777,5.777,0,0,0,0,8.171l6.069,6.069H3.385A3.388,3.388,0,0,0,0,27.078v3.385a3.388,3.388,0,0,0,3.385,3.385h.083L6.451,93.5a8.452,8.452,0,0,0,8.45,8.039H63.016l6.769-3.385h1.6a5.07,5.07,0,0,0,4.766,3.385h5.366a5.087,5.087,0,0,0,4.788,3.385H98.156a6.769,6.769,0,0,0,0-13.539Zm-6.769-1.692a1.692,1.692,0,1,1,1.692,1.692A1.7,1.7,0,0,1,91.387,89.695ZM74.463,94.772H71.079V91.387h3.385ZM54.155,88V98.156H50.771V88Zm3.385,0h3.385V98.156H57.54Zm3.385-57.54H33.847V27.078H60.925ZM30.462,67.694v3.385H28.77a1.7,1.7,0,0,1-1.692-1.692V66.371L25.593,66a6.967,6.967,0,0,1-5.285-6.769,11.846,11.846,0,0,1,23.693,0A6.967,6.967,0,0,1,38.718,66l-1.486.369v3.016a1.7,1.7,0,0,1-1.692,1.692H33.847V67.694ZM11.195,22.341,9.162,20.308,20.308,9.162l4.928,4.928a3.379,3.379,0,0,0-1.543,2.833v3.385H15.231A5.052,5.052,0,0,0,11.195,22.341Zm29.422,1.352H33.536a5.07,5.07,0,0,0-4.766-3.385H27.078V16.924H40.616ZM13.539,25.385a1.7,1.7,0,0,1,1.692-1.692H28.77a1.7,1.7,0,0,1,1.692,1.692V42.309a1.692,1.692,0,1,1-3.385,0V38.924a5.077,5.077,0,0,0-10.154,0V52.463a1.692,1.692,0,1,1-3.385,0Zm6.769,13.539a1.692,1.692,0,1,1,3.385,0v3.385a5.047,5.047,0,0,0,1.376,3.452,15.309,15.309,0,0,0-4.761,3.919ZM42.72,10.1,44,9.783v-6.4h3.385v6.4l1.281.32a7.234,7.234,0,0,1,5.488,7.028v6.561H44V16.924a3.388,3.388,0,0,0-3.385-3.385H38.2A7.287,7.287,0,0,1,42.72,10.1ZM3.385,13.539a2.411,2.411,0,0,1,.7-1.692l7.761-7.761a2.479,2.479,0,0,1,3.385,0l2.684,2.684L6.769,17.915,4.085,15.231a2.411,2.411,0,0,1-.7-1.692Zm0,13.539h6.769v3.385H3.385ZM14.9,98.156a5.075,5.075,0,0,1-5.072-4.823L6.856,33.847h3.3V52.463a5.083,5.083,0,0,0,5.077,5.077,5.02,5.02,0,0,0,1.848-.36,15.222,15.222,0,0,0-.156,2.053,10.349,10.349,0,0,0,6.769,9.721v.433a5.083,5.083,0,0,0,5.077,5.077h6.769a5.083,5.083,0,0,0,5.077-5.077v-.433a10.348,10.348,0,0,0,6.769-9.721A15.246,15.246,0,0,0,33.514,44.071a5.045,5.045,0,0,0,.333-1.762V33.847H57.454L54.915,84.618H46l-9.025-3.385L46,77.848h4.769V74.463H47.386V71.079H44v3.9L32.155,79.425,20.308,74.983v-3.9H16.924v3.385H13.539v3.385h4.769l9.025,3.385-9.025,3.385H13.539V88h3.385v3.385h3.385v-3.9L32.155,83.04l9.531,3.574a5.029,5.029,0,0,0-1.07,3.08v6.769a5.092,5.092,0,0,0,.289,1.692ZM44,96.464V89.695A1.7,1.7,0,0,1,45.693,88h1.692V98.156H45.693A1.7,1.7,0,0,1,44,96.464Zm23.693-1.046-3.385,1.692V89.048l3.385,1.692Zm30.462,6.123H86.31a1.7,1.7,0,0,1-1.692-1.692V98.156H76.156a1.668,1.668,0,0,1-.7-.164,3.379,3.379,0,0,0,2.4-3.221H98.156a3.385,3.385,0,0,1,0,6.769Z" transform="translate(0)"/>
          </g>
        </g>
      </g>
    </g>
  </g>
</svg>
