<svg xmlns="http://www.w3.org/2000/svg" width="50.759" height="64" viewBox="0 0 50.759 64">
  <g id="liquido" transform="translate(-4.5 -1.5)">
    <g id="Outline" transform="translate(4.5 1.5)">
      <path id="Path_909251" data-name="Path 909251" d="M45.231,1.991a1.106,1.106,0,0,0-.918-.491H32.086a1.1,1.1,0,0,0-1.1,1.1V8.121H26.569V2.6a1.1,1.1,0,0,0-1.1-1.1H12.224a1.1,1.1,0,0,0-1.1,1.1V8.121h-1.1a1.1,1.1,0,0,0-.78.323L4.823,12.858a1.1,1.1,0,0,0-.323.78V51.155a1.1,1.1,0,1,0,2.207,0V14.095l3.767-3.767H31.629l4.089,4.089,0,0,4.412,4.412a1.1,1.1,0,0,0,.78.323H53.052V63.293H6.707v-3.31a1.1,1.1,0,0,0-2.207,0V64.4a1.1,1.1,0,0,0,1.1,1.1H54.155a1.1,1.1,0,0,0,1.1-1.1V18.052a3.353,3.353,0,0,0-.56-1.825L45.231,1.991ZM43.722,3.707l8.807,13.241H49.889L42.847,6.405a1.1,1.1,0,0,0-.918-.491H36.5a1.1,1.1,0,0,0-1.1,1.1v3.957L33.19,8.767V3.707Zm-30.395,0h2.207V8.121H13.328Zm4.414,4.414V3.707h2.207V8.121Zm4.414,0V3.707h2.207V8.121ZM37.6,13.181V8.121h3.735l5.9,8.828H41.371Z" transform="translate(-4.5 -1.5)" fill="#7d9ffb"/>
      <path id="Path_909252" data-name="Path 909252" d="M31.362,27.845c0-7.091-8.89-13.841-9.269-14.125a1.106,1.106,0,0,0-1.323,0C20.39,14,11.5,20.754,11.5,27.845a9.931,9.931,0,1,0,19.862,0Zm-17.655,0c0-4.978,5.741-10.181,7.724-11.828,1.983,1.647,7.724,6.849,7.724,11.828a7.724,7.724,0,0,1-15.448,0Z" transform="translate(3.948 12.983)" fill="#7d9ffb"/>
      <path id="Path_909253" data-name="Path 909253" d="M45.017,29.259A18.759,18.759,0,1,0,26.259,48.017,18.781,18.781,0,0,0,45.017,29.259Zm-35.31,0A16.552,16.552,0,1,1,26.259,45.81,16.57,16.57,0,0,1,9.707,29.259Z" transform="translate(-0.879 9.362)" fill="#7d9ffb"/>
      <path id="Path_909254" data-name="Path 909254" d="M20.121,25.017a1.1,1.1,0,0,0-1.1-1.1,3.314,3.314,0,0,1-3.31-3.31,1.1,1.1,0,0,0-2.207,0,5.522,5.522,0,0,0,5.517,5.517A1.1,1.1,0,0,0,20.121,25.017Z" transform="translate(6.362 20.224)" fill="#7d9ffb"/>
      <circle id="Ellipse_12681" data-name="Ellipse 12681" cx="1" cy="1" r="1" transform="translate(0 53)" fill="#7d9ffb"/>
    </g>
  </g>
</svg>
