<svg xmlns="http://www.w3.org/2000/svg" width="86.333" height="57.256" viewBox="0 0 86.333 57.256">
  <g id="Layer_13" data-name="Layer 13" transform="translate(-3 -23.545)">
    <path id="Path_909200" data-name="Path 909200" d="M110.371,54.9V69.245a3.984,3.984,0,0,1-3.984,3.984h-22.6A3.984,3.984,0,0,1,79.8,69.245V38.187h9.4a14.554,14.554,0,0,1,13.354,9.4,5.251,5.251,0,0,0,4.232,3.232,4.092,4.092,0,0,1,3.584,4.075Z" transform="translate(-22.454 -4.281)" fill="#f6f6f6"/>
    <path id="Path_909202" data-name="Path 909202" d="M120.015,70.284h-3.236a3.841,3.841,0,0,1-3.621-2.927l-.237-.83a3.313,3.313,0,0,1,.519-2.893,2.771,2.771,0,0,1,2.216-1.135h4.36a1.415,1.415,0,0,1,1.415,1.415v4.954a1.415,1.415,0,0,1-1.415,1.415Zm-4.36-4.954a1.028,1.028,0,0,0-.013.419l.237.83a1.073,1.073,0,0,0,.9.874H118.6V65.331Z" transform="translate(-32.097 -11.389)" fill="#7d9ffb"/>
    <path id="Path_909203" data-name="Path 909203" d="M105.8,74.059H83.2a5.4,5.4,0,0,1-5.4-5.4V37.6a1.415,1.415,0,0,1,1.415-1.415h9.4a16,16,0,0,1,14.665,10.286,3.828,3.828,0,0,0,3.09,2.361,5.505,5.505,0,0,1,4.831,5.48V68.661a5.4,5.4,0,0,1-5.4,5.4ZM80.635,39.018V68.661A2.571,2.571,0,0,0,83.2,71.229h22.6a2.571,2.571,0,0,0,2.568-2.568V54.315a2.672,2.672,0,0,0-2.336-2.669,6.662,6.662,0,0,1-5.376-4.1,13.18,13.18,0,0,0-12.043-8.523Z" transform="translate(-21.869 -3.696)" fill="#7d9ffb"/>
    <path id="Path_909204" data-name="Path 909204" d="M5,71.9H57.935V83.085H8.249A3.249,3.249,0,0,1,5,79.837V71.9H5Z" transform="translate(-0.585 -14.137)" fill="#f6f6f6"/>
    <path id="Path_909205" data-name="Path 909205" d="M57.35,83.915H7.664A4.669,4.669,0,0,1,3,79.252V71.317A1.415,1.415,0,0,1,4.415,69.9H57.35a1.415,1.415,0,0,1,1.415,1.415V82.5a1.415,1.415,0,0,1-1.415,1.415ZM5.831,72.732v6.52a1.835,1.835,0,0,0,1.833,1.833H55.935V72.732Z" transform="translate(0 -13.552)" fill="#7d9ffb"/>
    <circle id="Ellipse_12674" data-name="Ellipse 12674" cx="8.201" cy="8.201" r="8.201" transform="translate(13.362 62.984)" fill="#f6f6f6"/>
    <circle id="Ellipse_12675" data-name="Ellipse 12675" cx="8.201" cy="8.201" r="8.201" transform="translate(64.806 62.984)" fill="#f6f6f6"/>
    <path id="Path_909206" data-name="Path 909206" d="M25.259,96.509a9.617,9.617,0,1,1,9.617-9.616,9.617,9.617,0,0,1-9.617,9.616Zm0-16.4a6.786,6.786,0,1,0,6.786,6.786A6.786,6.786,0,0,0,25.259,80.107Z" transform="translate(-3.696 -15.708)" fill="#7d9ffb"/>
    <circle id="Ellipse_12676" data-name="Ellipse 12676" cx="2.982" cy="2.982" r="2.982" transform="translate(70.025 68.203)" fill="#7d9ffb"/>
    <path id="Path_909207" data-name="Path 909207" d="M97.956,96.509a9.617,9.617,0,1,1,9.617-9.616A9.617,9.617,0,0,1,97.956,96.509Zm0-16.4a6.786,6.786,0,1,0,6.786,6.786,6.786,6.786,0,0,0-6.786-6.786Z" transform="translate(-24.949 -15.708)" fill="#7d9ffb"/>
    <path id="Path_909210" data-name="Path 909210" d="M96.83,55.53H85.415A1.415,1.415,0,0,1,84,54.115v-9.2A1.415,1.415,0,0,1,85.415,43.5h6.106a6.906,6.906,0,0,1,5.921,3.309l2.234,3.63A3.34,3.34,0,0,1,96.83,55.53Zm-10-2.831h10a.51.51,0,0,0,.434-.777l-2.234-3.631a4.1,4.1,0,0,0-3.51-1.961H86.83Z" transform="translate(-23.68 -5.834)" fill="#7d9ffb"/>
    <path id="Path_909211" data-name="Path 909211" d="M89.661,66.331H85.415a1.415,1.415,0,0,1,0-2.831h4.246a1.415,1.415,0,0,1,0,2.831Z" transform="translate(-23.68 -11.681)" fill="#7d9ffb"/>
    <g id="Group_1112355" data-name="Group 1112355" transform="translate(18.953 31.267)">
      <path id="Path_909212" data-name="Path 909212" d="M33.12,49.109a.621.621,0,0,0-.717-.52l-6.44,1c-.337.073-.494.463-.382.94a15.294,15.294,0,0,0,1.665,4.135,15.1,15.1,0,0,0,2.789,3.5c.357.328.768.376,1,.121l3.94-4.985a.637.637,0,0,0-.087-.87A5.547,5.547,0,0,1,33.821,51.1a5.358,5.358,0,0,1-.7-1.994Z" transform="translate(-25.544 -38.586)" fill="#7d9ffb"/>
      <path id="Path_909213" data-name="Path 909213" d="M40.742,42.324a.624.624,0,0,0,.821-.352L43.944,35.9c.106-.328-.151-.66-.62-.8a15.294,15.294,0,0,0-4.411-.644,15.1,15.1,0,0,0-4.425.648c-.464.143-.712.474-.605.8l2.322,5.914a.637.637,0,0,0,.8.363,5.547,5.547,0,0,1,1.677-.251,5.364,5.364,0,0,1,2.065.394Z" transform="translate(-27.975 -34.457)" fill="#7d9ffb"/>
      <path id="Path_909214" data-name="Path 909214" d="M43.022,52.31a.621.621,0,0,0-.1.88l4.024,5.126c.229.258.646.2,1.007-.127a15.294,15.294,0,0,0,2.789-3.477,15.1,15.1,0,0,0,1.683-4.144c.111-.472-.048-.854-.382-.927l-6.278-.994a.628.628,0,0,0-.711.491,5.542,5.542,0,0,1-.635,1.584,5.359,5.359,0,0,1-1.4,1.588Z" transform="translate(-30.584 -38.603)" fill="#7d9ffb"/>
      <circle id="Ellipse_12677" data-name="Ellipse 12677" cx="2.092" cy="2.092" r="2.092" transform="translate(8.845 8.892)" fill="#7d9ffb"/>
    </g>
    <circle id="Ellipse_12678" data-name="Ellipse 12678" cx="2.982" cy="2.982" r="2.982" transform="translate(18.581 68.203)" fill="#7d9ffb"/>
    <path id="Path_909217" data-name="Path 909217" d="M57.35,59.18H4.415A1.415,1.415,0,0,1,3,57.764V24.96a1.415,1.415,0,0,1,1.415-1.415H57.35a1.415,1.415,0,0,1,1.415,1.415v32.8A1.415,1.415,0,0,1,57.35,59.18ZM5.831,56.349h50.1V26.376H5.831Z" transform="translate(0)" fill="#7d9ffb"/>
  </g>
</svg>
