<svg xmlns="http://www.w3.org/2000/svg" width="392.617" height="251.471" viewBox="0 0 392.617 251.471">
  <path id="Path_909764" data-name="Path 909764" d="M256.69,428.014l-28.274,20.753c-18.217-24.82-26-49.413-23.126-73.1,4.292-35.382,31.411-61.08,61.118-79.771-29.417,10.316-64.9,28.988-78.559,61.192-4.451,10.49-6.027,21.375-7.419,30.978-2.168,14.959-4.865,33.572-23.132,38.313-19.482,5.055-34.669-12.256-39.658-17.943-8.665-9.876-17.46-23.272-25.966-36.226-7.164-10.91-14.57-22.194-21.463-30.7-5.65-6.97-9.316-10.017-11.278-11.321-3.358,4.74-12.181,22.92-16,85.773L7.928,413.83c2.32-38.191,6.6-65.914,13.091-84.754,2.573-7.475,10.409-30.221,31.049-34.267,27.24-5.338,47.488,25.5,68.923,58.149,6.8,10.359,13.228,20.145,19.31,27.872,1.878,2.386,3.5,4.286,4.89,5.8.187-1.24.364-2.467.529-3.594,1.61-11.128,3.619-24.982,9.842-39.649,14.268-33.635,46.507-60.744,93.229-78.4,36.347-13.732,74.884-19.121,96.951-18.367,7.276.246,24.316.829,29.234,15.047,2.037,5.89,1.467,14.617-6.254,21.447a43.151,43.151,0,0,1-8.419,5.572c-5.089,2.71-12.063,5.749-20.139,9.266-33.254,14.486-95.148,41.446-100.056,81.932-1.763,14.545,3.815,30.738,16.582,48.13" transform="translate(54.605 -245.255) rotate(8)" fill="#f59f7c"/>
</svg>
