<svg xmlns="http://www.w3.org/2000/svg" xmlns:xlink="http://www.w3.org/1999/xlink" width="117" height="117" viewBox="0 0 117 117">
  <defs>
    <filter id="Ellipse_12656" x="0" y="0" width="117" height="117" filterUnits="userSpaceOnUse">
      <feOffset dy="3" input="SourceAlpha"/>
      <feGaussianBlur stdDeviation="3" result="blur"/>
      <feFlood flood-opacity="0.161"/>
      <feComposite operator="in" in2="blur"/>
      <feComposite in="SourceGraphic"/>
    </filter>
  </defs>
  <g id="Group_1113119" data-name="Group 1113119" transform="translate(-276 -663)">
    <g id="Group_1112273" data-name="Group 1112273">
      <g transform="matrix(1, 0, 0, 1, 276, 663)" filter="url(#Ellipse_12656)">
        <circle id="Ellipse_12656-2" data-name="Ellipse 12656" cx="49.5" cy="49.5" r="49.5" transform="translate(9 6)" fill="#fff"/>
      </g>
    </g>
    <g id="inversion" transform="translate(306.963 682)">
      <path id="Path_908967" data-name="Path 908967" d="M58.515,159.913a3.917,3.917,0,0,0-4.674-1.166l-4.485,1.85A22.217,22.217,0,0,0,36.6,156.41v-4.091l4.265-2.385a6.7,6.7,0,1,0-.717-1.171L36.6,150.747V133.436a.686.686,0,0,0-1.371,0v17.391L31.5,148.746a6.763,6.763,0,1,0-.712,1.173l4.435,2.481v4.012a22.932,22.932,0,0,0-11.534,3.347,24.17,24.17,0,0,0-6.5-.806H12.926v-1.144a2.246,2.246,0,0,0-2.243-2.242h-2.3v-1a.686.686,0,0,0-.686-.686H.826a.686.686,0,0,0-.686.686V179.86a.685.685,0,0,0,.686.686H7.7a.685.685,0,0,0,.686-.686v-1.319h2.3a2.245,2.245,0,0,0,2.243-2.242v-1.458l18.209,4.225a5.946,5.946,0,0,0,1.257.124,8.121,8.121,0,0,0,4.113-1.094l20.976-13.768a3.381,3.381,0,0,0,1.5-2.16,2.912,2.912,0,0,0-.463-2.254ZM46.23,140.489a5.372,5.372,0,1,1-4.471,8.346.623.623,0,0,0-.06-.153.685.685,0,0,0-.137-.169,5.367,5.367,0,0,1,4.668-8.024ZM25.41,151.232a5.372,5.372,0,1,1,5.371-5.371A5.377,5.377,0,0,1,25.41,151.232Zm-18.4,27.943h-5.5V155.253h5.5Zm4.54-19.543a.016.016,0,0,0,0,.007.014.014,0,0,0,0,.007v14.311a.029.029,0,0,0,0,.01V176.3a.872.872,0,0,1-.872.871h-2.3V156.938h2.3a.872.872,0,0,1,.872.871Zm24.356-1.859a21.293,21.293,0,0,1,11.95,3.443L42.8,163.3a3.508,3.508,0,0,0-3.342-2.368H29.671a18.825,18.825,0,0,1-4.228-.62,22.082,22.082,0,0,1,10.469-2.545Zm21.722,4.13a2.005,2.005,0,0,1-.9,1.275L35.758,176.946a6.707,6.707,0,0,1-4.321.783l-18.51-4.3V160.324h4.265a21.086,21.086,0,0,1,6.671.934l.055.022.019.007a19.865,19.865,0,0,0,5.733,1.022h9.784A2.117,2.117,0,0,1,41.6,164.3c0,.03,0,.06,0,.091a1.944,1.944,0,0,1-.04.4,2.136,2.136,0,0,1-2.11,1.683H29.686a7.81,7.81,0,0,0-5.1,1.822.685.685,0,1,0,.9,1.037,6.516,6.516,0,0,1,4.146-1.489.308.308,0,0,0,.039,0h9.784a3.513,3.513,0,0,0,3.455-2.783c.022-.111.039-.223.049-.334l11.414-4.709.014-.005a2.574,2.574,0,0,1,3,.692,1.553,1.553,0,0,1,.243,1.2Zm0,0" transform="translate(0 -114.546)" fill="#23130d"/>
      <path id="Path_908968" data-name="Path 908968" d="M302.43,189.18a5.367,5.367,0,0,0-4.668,8.024.686.686,0,0,1,.137.169.624.624,0,0,1,.06.153,5.371,5.371,0,1,0,4.471-8.346Zm-.357,4.686h.712a1.916,1.916,0,0,1,.329,3.8v.728a.686.686,0,1,1-1.371,0v-.7h-.9a.686.686,0,0,1,0-1.371h1.943a.546.546,0,1,0,0-1.091h-.712a1.916,1.916,0,0,1-.331-3.8v-.73a.686.686,0,1,1,1.371,0v.7h.9a.686.686,0,0,1,0,1.371h-1.943a.547.547,0,0,0,0,1.093Zm0,0" transform="translate(-256.2 -163.237)" fill="#f9c139"/>
      <path id="Path_908969" data-name="Path 908969" d="M150.62,189.18a5.372,5.372,0,1,0,5.371,5.372A5.377,5.377,0,0,0,150.62,189.18Zm-.355,4.686h.71a1.916,1.916,0,0,1,.331,3.8v.728a.686.686,0,1,1-1.371,0v-.7h-.9a.686.686,0,0,1,0-1.371h1.942a.546.546,0,1,0,0-1.091h-.71a1.916,1.916,0,0,1-.331-3.8v-.73a.686.686,0,1,1,1.371,0v.7h.9a.686.686,0,1,1,0,1.371h-1.942a.547.547,0,0,0,0,1.093Zm0,0" transform="translate(-125.21 -163.237)" fill="#f9c139"/>
      <path id="Path_908970" data-name="Path 908970" d="M207.067,318.654,202,320.744a3.508,3.508,0,0,0-3.342-2.368h-9.784a18.823,18.823,0,0,1-4.228-.62,22.082,22.082,0,0,1,10.469-2.545A21.293,21.293,0,0,1,207.067,318.654Zm0,0" transform="translate(-159.206 -271.985)" fill="#cc7b5a"/>
      <path id="Path_908971" data-name="Path 908971" d="M10.141,296.84h5.5v23.922h-5.5Zm0,0" transform="translate(-8.629 -256.133)" fill="#3594bf"/>
      <path id="Path_908972" data-name="Path 908972" d="M63.439,311.823a.016.016,0,0,0,0,.007.014.014,0,0,0,0,.007v14.311a.029.029,0,0,0,0,.01v2.332a.872.872,0,0,1-.872.871h-2.3V309.129h2.3a.872.872,0,0,1,.872.871Zm0,0" transform="translate(-51.884 -266.737)" fill="#e1e1e5"/>
      <path id="Path_908973" data-name="Path 908973" d="M138.087,332.076a2.005,2.005,0,0,1-.9,1.275L116.211,347.12a6.707,6.707,0,0,1-4.321.783l-18.51-4.3V330.5h4.265a21.087,21.087,0,0,1,6.671.934l.055.022.019.007a19.865,19.865,0,0,0,5.733,1.022h9.784a2.117,2.117,0,0,1,2.146,1.99c0,.03,0,.06,0,.091a1.944,1.944,0,0,1-.04.4,2.136,2.136,0,0,1-2.11,1.683h-9.769a7.81,7.81,0,0,0-5.1,1.822.685.685,0,1,0,.9,1.037,6.516,6.516,0,0,1,4.146-1.489.3.3,0,0,0,.039,0h9.784a3.513,3.513,0,0,0,3.455-2.783c.022-.111.039-.223.049-.334l11.414-4.709.014-.005a2.574,2.574,0,0,1,3,.692,1.553,1.553,0,0,1,.243,1.2Zm0,0" transform="translate(-80.453 -284.72)" fill="#f8d3c9"/>
      <g id="Group_1112281" data-name="Group 1112281" transform="translate(19.369 11.776)">
        <path id="Path_908974" data-name="Path 908974" d="M172.384,201.054a1.919,1.919,0,0,1-1.587,1.887v.728a.686.686,0,1,1-1.371,0v-.7h-.9a.686.686,0,0,1,0-1.371h1.942a.546.546,0,1,0,0-1.091h-.71a1.916,1.916,0,0,1-.331-3.8v-.73a.686.686,0,1,1,1.371,0v.7h.9a.686.686,0,0,1,0,1.371h-1.942a.547.547,0,0,0,0,1.093h.71A1.919,1.919,0,0,1,172.384,201.054Zm0,0" transform="translate(-164.071 -180.284)" fill="#23130d"/>
        <path id="Path_908975" data-name="Path 908975" d="M324.195,201.054a1.919,1.919,0,0,1-1.588,1.887v.728a.686.686,0,0,1-1.371,0v-.7h-.9a.686.686,0,0,1,0-1.371h1.943a.546.546,0,1,0,0-1.091h-.712a1.916,1.916,0,0,1-.331-3.8v-.73a.686.686,0,0,1,1.371,0v.7h.9a.686.686,0,1,1,0,1.371h-1.943a.547.547,0,0,0,0,1.093h.712A1.92,1.92,0,0,1,324.195,201.054Zm0,0" transform="translate(-295.062 -180.284)" fill="#23130d"/>
        <path id="Path_908976" data-name="Path 908976" d="M155.017,95.144a.258.258,0,0,0-.006-.045c0-.008,0-.015,0-.025-.744-3.945-2.436-6.669-5.033-8.094-4.136-2.268-8.988-.369-9.192-.287a.366.366,0,0,0-.041.02c-.022.011-.042.021-.063.033a.672.672,0,0,0-.055.04.455.455,0,0,0-.049.04.477.477,0,0,0-.048.051c-.013.015-.027.032-.04.048s-.025.037-.037.056-.022.039-.032.058-.015.039-.024.059-.015.044-.02.067a.445.445,0,0,0-.011.061.629.629,0,0,0-.009.07.531.531,0,0,0,0,.065c0,.017,0,.033,0,.051.027.218.694,5.385,4.673,7.921a8.857,8.857,0,0,0,4.855,1.34,15.111,15.111,0,0,0,4.663-.82.064.064,0,0,1,.013-.005l.029-.011a.062.062,0,0,0,.017-.007.588.588,0,0,0,.064-.031l.014-.009.012-.008.027-.018c.015-.011.03-.022.044-.034l.026-.021c.006-.007.012-.011.019-.018l.011-.012a.665.665,0,0,0,.048-.054.18.18,0,0,0,.011-.015.031.031,0,0,1,.005-.009.244.244,0,0,0,.019-.028l.015-.022c0-.007.005-.012.01-.019s.014-.026.02-.04.012-.031.019-.047.01-.025.014-.039.008-.026.011-.039.007-.034.011-.05,0-.028.005-.041a.356.356,0,0,0,0-.041c0-.017,0-.033,0-.049s0-.029,0-.043ZM146.5,91.36l6.1,3.612a8.751,8.751,0,0,1-6.824-.79c-2.737-1.739-3.683-5.084-3.958-6.39,1.278-.388,4.665-1.167,7.507.4a8.751,8.751,0,0,1,3.973,5.6l-6.1-3.611a.685.685,0,1,0-.7,1.18Zm0,0" transform="translate(-140.356 -85.872)" fill="#23130d"/>
      </g>
      <path id="Path_908977" data-name="Path 908977" d="M155.7,100.038l6.1,3.612a8.751,8.751,0,0,1-6.824-.79c-2.737-1.739-3.683-5.084-3.958-6.39,1.278-.388,4.665-1.167,7.507.4a8.751,8.751,0,0,1,3.973,5.6l-6.1-3.611a.685.685,0,1,0-.7,1.18Zm0,0" transform="translate(-130.188 -82.774)" fill="#72af5f"/>
      <path id="Path_908978" data-name="Path 908978" d="M288.017,87.231a.568.568,0,0,0-.012-.066c-.005-.022-.012-.043-.019-.063a.588.588,0,0,0-.025-.062c-.01-.019-.02-.039-.03-.056s-.024-.04-.038-.058-.026-.032-.04-.048-.032-.034-.048-.051-.033-.027-.051-.04-.036-.027-.055-.04-.041-.022-.063-.033-.026-.015-.04-.02c-.206-.082-5.056-1.981-9.192.287-2.6,1.425-4.291,4.148-5.033,8.094a.143.143,0,0,0,0,.025.428.428,0,0,0-.006.045c0,.014,0,.029,0,.043a.256.256,0,0,0,0,.049.353.353,0,0,0,0,.041.38.38,0,0,0,.007.041c0,.016.005.034.01.05s.006.026.011.039.01.026.014.039l.019.047c.007.013.014.027.022.04a.152.152,0,0,0,.009.019c0,.007.01.013.015.022l.02.028a.022.022,0,0,0,.006.009.054.054,0,0,0,.01.015.424.424,0,0,0,.049.054l.01.012a.157.157,0,0,0,.02.018l.025.021a.439.439,0,0,0,.046.034.18.18,0,0,0,.026.018l.012.008.014.009a.607.607,0,0,0,.066.031.047.047,0,0,0,.015.007l.029.011.015.005a15.093,15.093,0,0,0,4.661.82,8.864,8.864,0,0,0,4.856-1.34c3.978-2.536,4.646-7.7,4.672-7.921,0-.015,0-.029,0-.044a.679.679,0,0,0,0-.074C288.024,87.273,288.02,87.253,288.017,87.231Zm-5.4,6.946a8.736,8.736,0,0,1-6.83.8l6.1-3.612a.686.686,0,0,0-.7-1.18l-6.1,3.611a8.753,8.753,0,0,1,3.974-5.6c2.841-1.564,6.23-.785,7.508-.4C286.293,89.1,285.354,92.431,282.613,94.177Zm0,0" transform="translate(-235.754 -74.096)" fill="#23130d"/>
      <path id="Path_908979" data-name="Path 908979" d="M297.393,96.47c-.272,1.3-1.211,4.639-3.952,6.385a8.736,8.736,0,0,1-6.83.8l6.1-3.612a.686.686,0,0,0-.7-1.18l-6.1,3.611a8.753,8.753,0,0,1,3.974-5.6C292.726,95.3,296.115,96.082,297.393,96.47Zm0,0" transform="translate(-246.581 -82.774)" fill="#72af5f"/>
      <path id="Path_908980" data-name="Path 908980" d="M234.614,8.226c-.123-4.717-4.208-7.949-4.382-8.085-.011-.009-.024-.014-.036-.022a.624.624,0,0,0-.064-.041l-.058-.026a.617.617,0,0,0-.064-.023.469.469,0,0,0-.063-.015A.353.353,0,0,0,229.88,0a.508.508,0,0,0-.063,0c-.023,0-.047,0-.07,0l-.059.009a.539.539,0,0,0-.07.016.389.389,0,0,0-.059.022.549.549,0,0,0-.064.027.452.452,0,0,0-.059.037.4.4,0,0,0-.04.023c-.176.133-4.3,3.313-4.487,8.028-.116,2.959,1.346,5.813,4.344,8.481a.324.324,0,0,0,.029.021.244.244,0,0,0,.032.026.146.146,0,0,0,.026.017.444.444,0,0,0,.06.034c.012.005.024.014.034.019l.018.005a.534.534,0,0,0,.081.026l.011,0,.033.009a.85.85,0,0,0,.115.012h.018a.716.716,0,0,0,.13-.013.014.014,0,0,0,.008,0,.2.2,0,0,0,.029-.008.58.58,0,0,0,.085-.026c.005,0,.012,0,.018-.007a.293.293,0,0,0,.032-.016.615.615,0,0,0,.063-.036l.026-.015.029-.024c.01-.008.019-.013.029-.02,3.035-2.63,4.533-5.465,4.455-8.426Zm-4.208,6.3.047-7.093a.686.686,0,0,0-.682-.689h0a.686.686,0,0,0-.686.681l-.047,7.092a8.748,8.748,0,0,1-2.755-6.3c.122-3.24,2.535-5.745,3.525-6.639.979.9,3.353,3.426,3.44,6.676a8.744,8.744,0,0,1-2.839,6.269Zm0,0" transform="translate(-193.94)" fill="#23130d"/>
      <path id="Path_908981" data-name="Path 908981" d="M239.036,24.514l.047-7.093a.686.686,0,0,0-.682-.689h0a.686.686,0,0,0-.686.681l-.047,7.092a8.748,8.748,0,0,1-2.755-6.3c.122-3.24,2.535-5.745,3.525-6.639.979.9,3.353,3.426,3.44,6.676a8.744,8.744,0,0,1-2.839,6.269Zm0,0" transform="translate(-202.57 -9.984)" fill="#72af5f"/>
    </g>
  </g>
</svg>
