<svg xmlns="http://www.w3.org/2000/svg" xmlns:xlink="http://www.w3.org/1999/xlink" width="117" height="117" viewBox="0 0 117 117">
  <defs>
    <filter id="Ellipse_12657" x="0" y="0" width="117" height="117" filterUnits="userSpaceOnUse">
      <feOffset dy="3" input="SourceAlpha"/>
      <feGaussianBlur stdDeviation="3" result="blur"/>
      <feFlood flood-opacity="0.161"/>
      <feComposite operator="in" in2="blur"/>
      <feComposite in="SourceGraphic"/>
    </filter>
  </defs>
  <g id="Group_1113120" data-name="Group 1113120" transform="translate(-591 -662.547)">
    <g id="Group_1112272" data-name="Group 1112272">
      <g transform="matrix(1, 0, 0, 1, 591, 662.55)" filter="url(#Ellipse_12657)">
        <circle id="Ellipse_12657-2" data-name="Ellipse 12657" cx="49.5" cy="49.5" r="49.5" transform="translate(9 6)" fill="#fff"/>
      </g>
    </g>
    <g id="capacitacion_1_" data-name="capacitacion (1)" transform="translate(618.313 689)">
      <g id="Group_1112274" data-name="Group 1112274">
        <path id="Path_908932" data-name="Path 908932" d="M32,46V57a2,2,0,0,1-4,0V46Z" fill="#72473d"/>
        <path id="Path_908933" data-name="Path 908933" d="M22.82,47l-5,10.84A2.014,2.014,0,0,1,16,59a2.082,2.082,0,0,1-.84-.18,2.013,2.013,0,0,1-.98-2.66L18.41,47,19,46h3Z" fill="#72473d"/>
        <path id="Path_908934" data-name="Path 908934" d="M37.178,47l5,10.84A2.014,2.014,0,0,0,44,59a2.082,2.082,0,0,0,.84-.18,2.013,2.013,0,0,0,.98-2.66L41.588,47,41,46H38Z" fill="#72473d"/>
        <path id="Path_908935" data-name="Path 908935" d="M27,6V2a1,1,0,0,1,1-1h4a1,1,0,0,1,1,1V6Z" fill="#72473d"/>
      </g>
      <path id="Path_908936" data-name="Path 908936" d="M3,8H57V44a3,3,0,0,1-3,3H6a3,3,0,0,1-3-3Z" fill="#d8e9ea"/>
      <rect id="Rectangle_405253" data-name="Rectangle 405253" width="58" height="4" rx="2" transform="translate(1 5)" fill="#603b35"/>
      <path id="Path_908937" data-name="Path 908937" d="M28.679,32.76A7.428,7.428,0,0,1,17.6,36.93c-8.021-4.7-6.781-14.15-6.081-17.41a.482.482,0,0,1,.86-.18A8.278,8.278,0,0,0,16.06,22.2c3.77,1.51,5.46-.03,9.04,1.89a7.3,7.3,0,0,1,3.151,3.26Z" fill="#89ba55"/>
      <path id="Path_908938" data-name="Path 908938" d="M41.3,36.753a8.857,8.857,0,0,1-12.069-2.891,8.67,8.67,0,0,1,3.317-12.1c4.179-2.235,6.145-.443,10.549-2.2a9.744,9.744,0,0,0,4.292-3.338.559.559,0,0,1,1,.213C49.216,20.242,50.658,31.271,41.3,36.753Z" fill="#a0db6b"/>
      <path id="Path_908939" data-name="Path 908939" d="M57,4H34V2a2,2,0,0,0-2-2H28a2,2,0,0,0-2,2V4H9A1,1,0,0,0,9,6H57a1,1,0,0,1,0,2H3A1,1,0,0,1,3,6H5A1,1,0,0,0,5,4H3A2.993,2.993,0,0,0,2,9.816V44a4,4,0,0,0,4,4H16.847L13.27,55.746a3.031,3.031,0,0,0,1.483,3.987A3.075,3.075,0,0,0,16,60a3.023,3.023,0,0,0,2.729-1.741L23.461,48H27v9a3,3,0,1,0,6,0V48h3.54l4.733,10.262A3.02,3.02,0,0,0,44,60a3.107,3.107,0,0,0,1.266-.275,3.031,3.031,0,0,0,1.463-3.984L43.153,48H54a4,4,0,0,0,4-4V9.816A2.993,2.993,0,0,0,57,4ZM28,2h4V4H28ZM16.914,57.418a1.085,1.085,0,0,1-1.328.5,1.008,1.008,0,0,1-.5-1.337L19.05,48h2.208ZM31,57a1,1,0,0,1-2,0V48h2Zm13.91-.426a1,1,0,0,1-.477,1.333,1.042,1.042,0,0,1-1.345-.486L38.742,48H40.95ZM56,44a2,2,0,0,1-2,2H6a2,2,0,0,1-2-2V10H56Z" fill="#262626"/>
      <path id="Path_908940" data-name="Path 908940" d="M17.094,37.792a8.786,8.786,0,0,0,4.456,1.216,8.387,8.387,0,0,0,7.217-4c.007-.011.019-.019.027-.031a9.636,9.636,0,0,0,7.9,4.034,10.105,10.105,0,0,0,5.118-1.394c10.037-5.882,8.324-17.853,7.561-21.377a1.56,1.56,0,0,0-2.791-.591,8.717,8.717,0,0,1-3.85,2.994,12.278,12.278,0,0,1-4.71.837,11.815,11.815,0,0,0-5.939,1.406,9.488,9.488,0,0,0-4.106,4.28,8.194,8.194,0,0,0-2.4-1.955,10.238,10.238,0,0,0-5.153-1.226,10.38,10.38,0,0,1-3.992-.712,7.285,7.285,0,0,1-3.241-2.524,1.469,1.469,0,0,0-1.5-.574,1.492,1.492,0,0,0-1.148,1.137c-.843,3.909-1.881,13.54,6.551,18.48Zm15.93-15.145a9.874,9.874,0,0,1,5.057-1.169,14.334,14.334,0,0,0,5.391-.98A10.709,10.709,0,0,0,47.6,17.579c.813,4.532,1.244,13.6-6.8,18.311a7.9,7.9,0,0,1-9.841-1.376c8.416-2,11.394-6.308,13.032-8.684a1,1,0,1,0-1.647-1.13c-1.634,2.37-4.355,6.285-12.578,8.032a7.648,7.648,0,0,1-.481-5.407,7.549,7.549,0,0,1,3.739-4.678ZM12.293,20.809a9.251,9.251,0,0,0,3.4,2.32,12.336,12.336,0,0,0,4.67.853,8.359,8.359,0,0,1,4.275.992A6.261,6.261,0,0,1,27.2,27.519a9.59,9.59,0,0,0,.423,5.248c-.064.183-.132.367-.216.549-6.9-1.5-9.194-4.8-10.575-6.8a1,1,0,1,0-1.646,1.134c1.4,2.03,3.926,5.69,11.008,7.444a6.639,6.639,0,0,1-8.081.973c-6.646-3.891-6.464-11.329-5.817-15.258Z" fill="#262626"/>
    </g>
  </g>
</svg>
