<svg xmlns="http://www.w3.org/2000/svg" xmlns:xlink="http://www.w3.org/1999/xlink" width="117" height="117" viewBox="0 0 117 117">
  <defs>
    <filter id="Ellipse_12658" x="0" y="0" width="117" height="117" filterUnits="userSpaceOnUse">
      <feOffset dy="3" input="SourceAlpha"/>
      <feGaussianBlur stdDeviation="3" result="blur"/>
      <feFlood flood-opacity="0.161"/>
      <feComposite operator="in" in2="blur"/>
      <feComposite in="SourceGraphic"/>
    </filter>
  </defs>
  <g id="Group_1113118" data-name="Group 1113118" transform="translate(-906 -662.094)">
    <g id="Group_1112271" data-name="Group 1112271">
      <g transform="matrix(1, 0, 0, 1, 906, 662.09)" filter="url(#Ellipse_12658)">
        <circle id="Ellipse_12658-2" data-name="Ellipse 12658" cx="49.5" cy="49.5" r="49.5" transform="translate(9 6)" fill="#fff"/>
      </g>
    </g>
    <g id="granja-inteligente" transform="translate(915.074 673)">
      <g id="Group_1112279" data-name="Group 1112279" transform="translate(16.983 16.983)">
        <path id="Path_908941" data-name="Path 908941" d="M78.575,24H26.458A2.458,2.458,0,0,0,24,26.458V54.975a2.458,2.458,0,0,0,2.458,2.458H32.85l8.85,9.1v-9.1H78.575a2.458,2.458,0,0,0,2.458-2.458V26.458A2.458,2.458,0,0,0,78.575,24Z" transform="translate(-24 -24)" fill="#d4f989"/>
        <path id="Path_908942" data-name="Path 908942" d="M57.97,200a4.9,4.9,0,0,0-1.93.393,4.918,4.918,0,0,0,6.81,5.113A4.91,4.91,0,0,0,57.97,200Z" transform="translate(-52.07 -178.367)" fill="#f8fefc"/>
        <path id="Path_908943" data-name="Path 908943" d="M113.97,205.9a4.9,4.9,0,0,1-1.93-.393,4.918,4.918,0,0,1,6.81-5.113,4.91,4.91,0,0,1-4.88,5.507Z" transform="translate(-101.186 -178.367)" fill="#f8fefc"/>
        <ellipse id="Ellipse_12659" data-name="Ellipse 12659" cx="5.5" cy="6" rx="5.5" ry="6" transform="translate(23.017 4.017)" fill="#f8fefc"/>
        <g id="Group_1112276" data-name="Group 1112276" transform="translate(20.076 27.533)">
          <path id="Path_908944" data-name="Path 908944" d="M239.132,298.55V278.556a2.458,2.458,0,0,0-1.513-2.269L227.332,272h-7.867l-10.287,4.286a2.458,2.458,0,0,0-1.513,2.269V298.55Z" transform="translate(-205.165 -269.05)" fill="#fac850"/>
          <path id="Path_908945" data-name="Path 908945" d="M305.5,251.437l-4.917,7.38-4.917-7.38L297.632,248h5.9Z" transform="translate(-282.348 -248)" fill="#ffd4cf"/>
          <rect id="Rectangle_405254" data-name="Rectangle 405254" width="14" height="20" rx="7" transform="translate(7.941 24.483) rotate(-90)" fill="#fa7d29"/>
          <g id="Group_1112275" data-name="Group 1112275" transform="translate(0 14.75)">
            <path id="Path_908946" data-name="Path 908946" d="M189.909,376.85l2.95-2.95v-.983A4.917,4.917,0,0,1,197.776,368v9.833l-4.917,4.917h-3.146a2.387,2.387,0,0,1-2.351-2.795l.2-1.127A2.387,2.387,0,0,1,189.909,376.85Z" transform="translate(-187.327 -368)" fill="#ffd4cf"/>
            <path id="Path_908947" data-name="Path 908947" d="M407.867,376.85l-2.95-2.95v-.983A4.917,4.917,0,0,0,400,368v9.833l4.917,4.917h3.146a2.387,2.387,0,0,0,2.351-2.795l-.2-1.127A2.387,2.387,0,0,0,407.867,376.85Z" transform="translate(-373.859 -368)" fill="#ffd4cf"/>
          </g>
        </g>
        <path id="Path_908948" data-name="Path 908948" d="M293.767,94.883H280L283.933,88h5.9Z" transform="translate(-248.533 -80.133)" fill="#fac850"/>
        <ellipse id="Ellipse_12660" data-name="Ellipse 12660" cx="10.5" cy="4" rx="10.5" ry="4" transform="translate(28.017 13.017)" fill="#fa7d29"/>
        <g id="Group_1112277" data-name="Group 1112277" transform="translate(32.45 16.398)">
          <path id="Path_908949" data-name="Path 908949" d="M310.661,248h-5.9l-.968,1.691,1.5,1a4.425,4.425,0,0,0,4.909,0l1.445-.963Z" transform="translate(-301.852 -236.865)" fill="#fbb8b0"/>
          <path id="Path_908950" data-name="Path 908950" d="M299.8,158.711l-2.013-.671a12.292,12.292,0,0,0-7.774,0l-2.013.671v6.551a2.458,2.458,0,0,0,1.095,2.045l3.442,2.294a2.458,2.458,0,0,0,2.727,0l3.442-2.294a2.458,2.458,0,0,0,1.095-2.045Z" transform="translate(-288 -157.409)" fill="#ffd4cf"/>
        </g>
        <g id="Group_1112278" data-name="Group 1112278" transform="translate(3.934 3.933)">
          <path id="Path_908951" data-name="Path 908951" d="M57.97,56a4.9,4.9,0,0,0-1.93.393,4.918,4.918,0,0,0,6.81,5.113A4.91,4.91,0,0,0,57.97,56Z" transform="translate(-56.003 -56)" fill="#f8fefc"/>
          <path id="Path_908952" data-name="Path 908952" d="M113.97,61.9a4.9,4.9,0,0,1-1.93-.393,4.918,4.918,0,0,1,6.81-5.113,4.91,4.91,0,0,1-4.88,5.507Z" transform="translate(-105.12 -56)" fill="#f8fefc"/>
          <path id="Path_908953" data-name="Path 908953" d="M57.97,128a4.9,4.9,0,0,0-1.93.393,4.918,4.918,0,0,0,6.81,5.113A4.91,4.91,0,0,0,57.97,128Z" transform="translate(-56.003 -119.15)" fill="#f8fefc"/>
          <path id="Path_908954" data-name="Path 908954" d="M113.97,133.9a4.9,4.9,0,0,1-1.93-.393,4.918,4.918,0,0,1,6.81-5.113,4.91,4.91,0,0,1-4.88,5.507Z" transform="translate(-105.12 -119.15)" fill="#f8fefc"/>
        </g>
      </g>
      <g id="Group_1112280" data-name="Group 1112280" transform="translate(16 16)">
        <path id="Path_908955" data-name="Path 908955" d="M37.633,49.433h-2.95a.983.983,0,0,0-.983.983v6.675l-7.162-7.361a.983.983,0,0,0-.7-.3H19.442a1.477,1.477,0,0,1-1.475-1.475V19.442a1.477,1.477,0,0,1,1.475-1.475h3.442V16H19.442A3.446,3.446,0,0,0,16,19.442V47.958A3.446,3.446,0,0,0,19.442,51.4h5.976l8.56,8.8a.983.983,0,0,0,1.688-.686V51.4h1.967Z" transform="translate(-16 -16)"/>
        <path id="Path_908956" data-name="Path 908956" d="M138.15,47.958V19.442A3.446,3.446,0,0,0,134.708,16H88v1.967h46.708a1.477,1.477,0,0,1,1.475,1.475V47.958a1.477,1.477,0,0,1-1.475,1.475h-5.056l-5.664-2.36-1.275-2.228,1.121-.747a3.435,3.435,0,0,0,1.533-2.863V37.759c3.179-.889,4.917-2.317,4.917-4.059,0-1.057-.662-2.559-3.815-3.705-.372-.135-.765-.26-1.176-.374l-3-5.258a.983.983,0,0,0-.854-.5h-5.9a.983.983,0,0,0-.854.5l-3,5.258c-.411.114-.8.239-1.176.374-3.154,1.147-3.815,2.648-3.815,3.705,0,1.742,1.738,3.17,4.917,4.059v3.476a3.435,3.435,0,0,0,1.533,2.864l1.061.708-1.3,2.267-9.052,3.772a3.433,3.433,0,0,0-2.118,3.177V64.183h1.967V54.022a1.471,1.471,0,0,1,.908-1.362l8.516-3.548,3.489,5.238h-6.726a2.215,2.215,0,0,0-2.213,2.213V59.1a5.9,5.9,0,0,0-2.909,5.084v.576l-2.4,2.4a3.362,3.362,0,0,0-2.885,2.766l-.2,1.127A3.37,3.37,0,0,0,102.6,75h31.817a3.37,3.37,0,0,0,3.32-3.946l-.2-1.127a3.363,3.363,0,0,0-2.885-2.766l-2.4-2.4v-.576a5.9,5.9,0,0,0-2.95-5.108V56.563a2.215,2.215,0,0,0-2.213-2.213h-6.809l3.49-5.238,8.516,3.548a1.471,1.471,0,0,1,.908,1.362V64.183h1.967V54.022a3.432,3.432,0,0,0-1.211-2.622h.76a3.446,3.446,0,0,0,3.442-3.442ZM102.6,73.033a1.4,1.4,0,0,1-1.382-1.643l.2-1.127a1.4,1.4,0,0,1,1.382-1.163.983.983,0,0,0,.7-.288l2.95-2.95a.983.983,0,0,0,.288-.7v-.983a3.94,3.94,0,0,1,2.95-3.809v8.318l-4.341,4.341Zm8.47-2.95h14.878l2.95,2.95H108.115Zm19.507-4.221,2.95,2.95a.983.983,0,0,0,.695.288,1.4,1.4,0,0,1,1.383,1.163l.2,1.127a1.4,1.4,0,0,1-1.383,1.643h-2.738l-4.341-4.341V60.374a3.94,3.94,0,0,1,2.95,3.809v.983a.983.983,0,0,0,.288.7Zm-3.239-9.3v1.8a5.92,5.92,0,0,0-.983-.082.983.983,0,0,0-.983.983v8.85H111.641v-8.85a.983.983,0,0,0-.983-.983,5.914,5.914,0,0,0-1.025.089v-1.81a.246.246,0,0,1,.246-.246h17.208A.246.246,0,0,1,127.333,56.563ZM116.1,25.833h4.759l1.858,3.252a29.927,29.927,0,0,0-8.475,0Zm-3.832,7.917a.983.983,0,0,0-.672.933v1.022c-2.141-.689-2.95-1.54-2.95-2.005s.779-1.224,2.521-1.857a25.012,25.012,0,0,1,14.625,0c1.741.633,2.521,1.389,2.521,1.857s-.809,1.316-2.95,2.005V34.683a.983.983,0,0,0-.672-.933l-2.013-.671a13.356,13.356,0,0,0-8.4,0Zm1.294,7.484V35.393l1.341-.447a11.378,11.378,0,0,1,7.152,0l1.341.446v5.843a1.472,1.472,0,0,1-.657,1.227L119.3,44.756a1.471,1.471,0,0,1-1.637,0l-3.442-2.294a1.472,1.472,0,0,1-.657-1.227Zm4.875,12.326-3.761-5.645,1.153-2.016.74.493a3.433,3.433,0,0,0,3.818,0l.68-.454,1.131,1.976Z" transform="translate(-79.15 -16)"/>
        <path id="Path_908957" data-name="Path 908957" d="M54.883,48v1.506a5.9,5.9,0,0,0-6.25-1.033.983.983,0,0,0-.59.788,5.984,5.984,0,0,0-.043.706,5.906,5.906,0,0,0,6.883,5.819v2.571a5.9,5.9,0,0,0-6.25-1.032.983.983,0,0,0-.59.788,5.983,5.983,0,0,0-.043.706,5.906,5.906,0,0,0,6.883,5.819v2.571a5.9,5.9,0,0,0-6.25-1.033.983.983,0,0,0-.59.788,5.984,5.984,0,0,0-.043.706,5.906,5.906,0,0,0,6.883,5.819v2.048H56.85V73.484a5.895,5.895,0,0,0,6.84-6.525.983.983,0,0,0-.59-.787,5.9,5.9,0,0,0-6.25,1.033V64.634a5.895,5.895,0,0,0,6.84-6.525.983.983,0,0,0-.59-.787,5.9,5.9,0,0,0-6.25,1.032V55.784a5.895,5.895,0,0,0,6.84-6.525.983.983,0,0,0-.59-.787,5.9,5.9,0,0,0-6.25,1.033V48ZM53.9,53.9a3.938,3.938,0,0,1-3.931-3.81,3.937,3.937,0,0,1,4.913,3.688A3.926,3.926,0,0,1,53.9,53.9Zm0,8.85a3.938,3.938,0,0,1-3.931-3.81,3.937,3.937,0,0,1,4.913,3.688A3.926,3.926,0,0,1,53.9,62.749Zm0,8.85a3.938,3.938,0,0,1-3.931-3.81,3.937,3.937,0,0,1,4.913,3.688A3.926,3.926,0,0,1,53.9,71.6Zm6.883-3.933a3.926,3.926,0,0,1,.981.123,3.937,3.937,0,0,1-4.913,3.688,3.938,3.938,0,0,1,3.931-3.81Zm0-8.85a3.926,3.926,0,0,1,.981.123,3.937,3.937,0,0,1-4.913,3.688,3.938,3.938,0,0,1,3.931-3.81Zm0-8.85a3.926,3.926,0,0,1,.981.123,3.937,3.937,0,0,1-4.913,3.688,3.938,3.938,0,0,1,3.931-3.81Z" transform="translate(-44.067 -44.066)"/>
        <path id="Path_908958" data-name="Path 908958" d="M309.872,401.227l1.3,1.475a2.95,2.95,0,0,1,3.9,0l1.3-1.475A4.917,4.917,0,0,0,309.872,401.227Z" transform="translate(-273.75 -352.798)"/>
        <path id="Path_908959" data-name="Path 908959" d="M290.007,371.685a6.883,6.883,0,0,1,9.105,0l1.3-1.475a8.85,8.85,0,0,0-11.708,0Z" transform="translate(-255.186 -324.731)"/>
        <path id="Path_908960" data-name="Path 908960" d="M168,255.78h10.817v1.967H168Z" transform="translate(-149.317 -226.307)"/>
        <path id="Path_908961" data-name="Path 908961" d="M191.966,169.555h1.967v1.6h-1.967Z" transform="translate(-170.337 -150.681)"/>
        <path id="Path_908962" data-name="Path 908962" d="M224,192h1.967v1.6H224Z" transform="translate(-198.433 -170.367)"/>
        <path id="Path_908963" data-name="Path 908963" d="M192,208h1.967v1.6H192Z" transform="translate(-170.367 -184.4)"/>
        <path id="Path_908964" data-name="Path 908964" d="M435.933,51.933v-2.95A.983.983,0,0,0,434.95,48H432v1.967h1.967v1.967Z" transform="translate(-380.867 -44.067)"/>
        <path id="Path_908965" data-name="Path 908965" d="M432,243.933h2.95a.983.983,0,0,0,.983-.983V240h-1.967v1.967H432Z" transform="translate(-380.867 -212.467)"/>
        <path id="Path_908966" data-name="Path 908966" d="M206.893,49.976a4.925,4.925,0,0,1,3.665,1.639l1.465-1.312a6.883,6.883,0,1,0-8.573,10.551l.985-1.7a4.917,4.917,0,0,1,2.458-9.176Z" transform="translate(-177.393 -44.076)"/>
      </g>
    </g>
  </g>
</svg>
