<svg xmlns="http://www.w3.org/2000/svg" width="44.667" height="56.557" viewBox="0 0 44.667 56.557">
  <g id="XMLID_1364_" transform="translate(-53.808 0.001)">
    <g id="XMLID_141_" transform="translate(53.808 -0.001)">
      <path id="XMLID_162_" d="M98.328,49.593,91.173,37.2A6.4,6.4,0,0,0,93.4,33.17a4.163,4.163,0,0,1,1.586-2.747,6.416,6.416,0,0,0,2-7.482,4.163,4.163,0,0,1,0-3.172,6.416,6.416,0,0,0-2-7.482A4.163,4.163,0,0,1,93.4,9.541a6.416,6.416,0,0,0-5.477-5.477,4.163,4.163,0,0,1-2.747-1.586,6.416,6.416,0,0,0-7.482-2,4.163,4.163,0,0,1-3.172,0,6.415,6.415,0,0,0-7.482,2,4.164,4.164,0,0,1-2.747,1.586,6.415,6.415,0,0,0-5.477,5.477,4.164,4.164,0,0,1-1.586,2.747,6.416,6.416,0,0,0-2,7.482,4.163,4.163,0,0,1,0,3.172,6.415,6.415,0,0,0,2,7.482,4.164,4.164,0,0,1,1.586,2.747,6.4,6.4,0,0,0,2.273,4.07L53.956,49.593a1.1,1.1,0,0,0,1.243,1.62l6.217-1.666,1.659,6.19A1.1,1.1,0,0,0,65.1,56l7.7-13.33a6.346,6.346,0,0,0,1.727-.436,4.163,4.163,0,0,1,3.172,0,6.349,6.349,0,0,0,1.8.444L87.185,56a1.1,1.1,0,0,0,2.024-.266l1.659-6.19,6.217,1.666a1.1,1.1,0,0,0,1.243-1.62Zm-33.809,3-1.254-4.681a1.1,1.1,0,0,0-1.353-.781L57.2,48.388l5.8-10.054a6.354,6.354,0,0,0,1.284.313,4.164,4.164,0,0,1,2.747,1.586,6.386,6.386,0,0,0,3.322,2.235Zm9.166-12.4a4.2,4.2,0,0,1-4.9-1.312,6.36,6.36,0,0,0-4.2-2.423A4.2,4.2,0,0,1,61,32.872a6.361,6.361,0,0,0-2.423-4.2,4.2,4.2,0,0,1-1.312-4.9,6.359,6.359,0,0,0,0-4.846,4.2,4.2,0,0,1,1.312-4.9A6.36,6.36,0,0,0,61,9.838,4.2,4.2,0,0,1,64.59,6.253a6.36,6.36,0,0,0,4.2-2.423,4.2,4.2,0,0,1,4.9-1.312,6.361,6.361,0,0,0,4.846,0,4.2,4.2,0,0,1,4.9,1.312,6.36,6.36,0,0,0,4.2,2.423,4.2,4.2,0,0,1,3.585,3.585,6.36,6.36,0,0,0,2.423,4.2,4.2,4.2,0,0,1,1.312,4.9,6.36,6.36,0,0,0,0,4.846,4.2,4.2,0,0,1-1.312,4.9,6.36,6.36,0,0,0-2.423,4.2,4.2,4.2,0,0,1-3.585,3.585,6.36,6.36,0,0,0-4.2,2.423,4.2,4.2,0,0,1-4.9,1.312,6.361,6.361,0,0,0-4.846,0Zm16.689,6.934a1.1,1.1,0,0,0-1.353.781l-1.254,4.681L81.912,42.451a6.386,6.386,0,0,0,3.263-2.218,4.162,4.162,0,0,1,2.747-1.586,6.348,6.348,0,0,0,1.341-.335L95.08,48.388Z" transform="translate(-53.808 0.001)" fill="#7d9ffb"/>
      <path id="XMLID_1190_" d="M179.921,133.341l-3.437,3.437a1.1,1.1,0,0,0,0,1.562l6.447,6.447a1.1,1.1,0,0,0,1.562,0l8.976-8.976a1.1,1.1,0,0,0,0-1.562l-3.437-3.437a1.1,1.1,0,0,0-1.562,0l-4.758,4.758-2.228-2.228a1.105,1.105,0,0,0-1.563,0Zm3.009,4.572a1.1,1.1,0,0,0,1.562,0l4.758-4.758,1.875,1.875-7.414,7.414-4.884-4.884,1.875-1.875Z" transform="translate(-162.643 -116.072)" fill="#7d9ffb"/>
      <path id="XMLID_1191_" d="M154.686,88.508a14.367,14.367,0,0,0-9.07-13.356,1.1,1.1,0,0,0-.815,2.054,12.153,12.153,0,1,1-8.955,0,1.1,1.1,0,1,0-.814-2.054,14.364,14.364,0,1,0,19.654,13.356Z" transform="translate(-117.991 -66.78)" fill="#7d9ffb"/>
      <path id="XMLID_1218_" d="M247.066,68.876a1.105,1.105,0,1,0-.781-.324A1.108,1.108,0,0,0,247.066,68.876Z" transform="translate(-224.732 -59.301)" fill="#7d9ffb"/>
    </g>
  </g>
</svg>
