<svg xmlns="http://www.w3.org/2000/svg" width="78" height="89.013" viewBox="0 0 78 89.013">
  <g id="Layer_2" transform="translate(-10.7 -4.2)">
    <g id="XMLID_3902_" transform="translate(10.7 4.2)">
      <g id="Group_1112232" data-name="Group 1112232" transform="translate(0 58.025)">
        <path id="XMLID_3795_" d="M10.7,123.8h78" transform="translate(-10.7 -94.312)" fill="none" stroke="#93ad5f" stroke-miterlimit="10" stroke-width="3"/>
        <path id="XMLID_3794_" d="M20.4,120.166a9.366,9.366,0,1,1,18.732,0" transform="translate(-13.302 -90.824)" fill="none" stroke="#93ad5f" stroke-miterlimit="10" stroke-width="3"/>
        <path id="XMLID_3326_" d="M53.7,120.166a9.366,9.366,0,1,1,18.732,0" transform="translate(-22.237 -90.824)" fill="none" stroke="#93ad5f" stroke-miterlimit="10" stroke-width="3"/>
        <path id="XMLID_3327_" d="M87,120.166a9.366,9.366,0,1,1,18.732,0" transform="translate(-31.171 -90.824)" fill="none" stroke="#93ad5f" stroke-miterlimit="10" stroke-width="3"/>
        <g id="XMLID_3330_" transform="translate(9.58)">
          <path id="XMLID_3329_" d="M33,87.7v14.341" transform="translate(-26.263 -84.627)" fill="none" stroke="#93ad5f" stroke-miterlimit="10" stroke-width="3"/>
          <path id="XMLID_3328_" d="M38.572,90.085A8.172,8.172,0,0,1,33.523,94.4a7.946,7.946,0,0,1-.073-6.585A8.172,8.172,0,0,1,38.5,83.5,7.946,7.946,0,0,1,38.572,90.085Z" transform="translate(-26.201 -83.5)" fill="none" stroke="#93ad5f" stroke-miterlimit="10" stroke-width="3"/>
          <path id="XMLID_3331_" d="M24.457,90.085A8.172,8.172,0,0,0,29.505,94.4a7.946,7.946,0,0,0,.073-6.585A8.172,8.172,0,0,0,24.53,83.5,8.266,8.266,0,0,0,24.457,90.085Z" transform="translate(-23.792 -83.5)" fill="none" stroke="#93ad5f" stroke-miterlimit="10" stroke-width="3"/>
        </g>
        <g id="XMLID_3332_" transform="translate(34.043)">
          <path id="XMLID_3335_" d="M66.4,87.7v14.341" transform="translate(-59.686 -84.627)" fill="none" stroke="#93ad5f" stroke-miterlimit="10" stroke-width="3"/>
          <path id="XMLID_3334_" d="M72.072,90.085A8.172,8.172,0,0,1,67.023,94.4a7.946,7.946,0,0,1-.073-6.585A8.172,8.172,0,0,1,72,83.5,8.266,8.266,0,0,1,72.072,90.085Z" transform="translate(-59.651 -83.5)" fill="none" stroke="#93ad5f" stroke-miterlimit="10" stroke-width="3"/>
          <path id="XMLID_3333_" d="M57.938,90.085A8.172,8.172,0,0,0,62.987,94.4a7.946,7.946,0,0,0,.073-6.585A8.172,8.172,0,0,0,58.012,83.5,7.654,7.654,0,0,0,57.938,90.085Z" transform="translate(-57.225 -83.5)" fill="none" stroke="#93ad5f" stroke-miterlimit="10" stroke-width="3"/>
        </g>
        <g id="XMLID_3336_" transform="translate(58.531)">
          <path id="XMLID_3796_" d="M99.9,87.7v14.341" transform="translate(-93.163 -84.627)" fill="none" stroke="#93ad5f" stroke-miterlimit="10" stroke-width="3"/>
          <path id="XMLID_3402_" d="M105.472,90.085a8.172,8.172,0,0,1-5.049,4.317,7.946,7.946,0,0,1-.073-6.585A8.172,8.172,0,0,1,105.4,83.5,8.266,8.266,0,0,1,105.472,90.085Z" transform="translate(-93.101 -83.5)" fill="none" stroke="#93ad5f" stroke-miterlimit="10" stroke-width="3"/>
          <path id="XMLID_3337_" d="M91.356,90.085A8.172,8.172,0,0,0,96.405,94.4a7.946,7.946,0,0,0,.073-6.585A8.172,8.172,0,0,0,91.43,83.5,8.266,8.266,0,0,0,91.356,90.085Z" transform="translate(-90.692 -83.5)" fill="none" stroke="#93ad5f" stroke-miterlimit="10" stroke-width="3"/>
        </g>
      </g>
      <g id="XMLID_3797_" transform="translate(15.585)">
        <ellipse id="XMLID_3901_" cx="11.634" cy="11.927" rx="11.634" ry="11.927" transform="translate(11.781 12.146)" fill="none" stroke="#93ad5f" stroke-miterlimit="10" stroke-width="3"/>
        <path id="XMLID_3900_" d="M39.463,37.1H32" transform="translate(-32 -13.027)" fill="none" stroke="#93ad5f" stroke-miterlimit="10" stroke-width="3"/>
        <path id="XMLID_3899_" d="M85.8,37.1h7.463" transform="translate(-46.434 -13.027)" fill="none" stroke="#93ad5f" stroke-miterlimit="10" stroke-width="3"/>
        <path id="XMLID_3898_" d="M85,58.229,80.1,53.4" transform="translate(-44.905 -17.4)" fill="none" stroke="#93ad5f" stroke-miterlimit="10" stroke-width="3"/>
        <path id="XMLID_3897_" d="M40.9,58.315,46.241,52.9" transform="translate(-34.388 -17.266)" fill="none" stroke="#93ad5f" stroke-miterlimit="10" stroke-width="3"/>
        <path id="XMLID_3896_" d="M64,67.256V59.5" transform="translate(-40.585 -19.036)" fill="none" stroke="#93ad5f" stroke-miterlimit="10" stroke-width="3"/>
        <path id="XMLID_3894_" d="M64,11.956V4.2" transform="translate(-40.585 -4.2)" fill="none" stroke="#93ad5f" stroke-miterlimit="10" stroke-width="3"/>
        <path id="XMLID_3893_" d="M40.8,14.8l5.781,4.9" transform="translate(-34.361 -7.044)" fill="none" stroke="#93ad5f" stroke-miterlimit="10" stroke-width="3"/>
        <path id="XMLID_3891_" d="M84.449,14.3,79.4,19.861" transform="translate(-44.717 -6.91)" fill="none" stroke="#93ad5f" stroke-miterlimit="10" stroke-width="3"/>
      </g>
    </g>
  </g>
</svg>
