<svg xmlns="http://www.w3.org/2000/svg" xmlns:xlink="http://www.w3.org/1999/xlink" width="322.752" height="34.655" viewBox="0 0 322.752 34.655">
  <defs>
    <linearGradient id="linear-gradient" x1="-0.124" y1="0.604" x2="1.146" y2="0.583" gradientUnits="objectBoundingBox">
      <stop offset="0" stop-color="#cbd8fe"/>
      <stop offset="1" stop-color="#fff"/>
    </linearGradient>
    <clipPath id="clip-path">
      <rect id="Rectangle_405042" data-name="Rectangle 405042" width="29.75" height="25.807" fill="#d4f989"/>
    </clipPath>
  </defs>
  <g id="Group_1112237" data-name="Group 1112237" transform="translate(-180 -1083.345)">
    <path id="Path_908106" data-name="Path 908106" d="M13.923,0H285.315c22.511,0,19.275,7.163,19.275,16s3.235,16-19.275,16H11.923C-10.587,32,0,24.837,0,16S-8.587,0,13.923,0Z" transform="translate(198 1086)" fill="url(#linear-gradient)"/>
    <path id="Path_907614" data-name="Path 907614" d="M194.255,59.293c.066,1.868-.412,3.934-2.114,4.974a4.154,4.154,0,0,1-3.656.3c-3.981-1.6-7.816-9.208-7.918-13.358-.207-8.46,11.342,1.8,12.771,4.452a8.5,8.5,0,0,1,.917,3.626" transform="translate(5.491 1039.141)" fill="#166340"/>
    <path id="Path_907636" data-name="Path 907636" d="M32,0V32H0A32,32,0,0,1,32,0Z" transform="translate(180 1086)" fill="#7d9ffb"/>
    <g id="Group_1111861" data-name="Group 1111861" transform="translate(180 1113.096) rotate(-90)">
      <g id="Group_1111658" data-name="Group 1111658" clip-path="url(#clip-path)">
        <path id="Path_903772" data-name="Path 903772" d="M29.423,21.847h0a2.292,2.292,0,0,0-.814-.8.349.349,0,0,0-.291-.021.342.342,0,0,0-.09.05,11.308,11.308,0,0,1-2.7,1.369,5.874,5.874,0,0,1-.625.182c-1.485.091-4.754-.17-10.783-4.616C7.005,12.764,5.028,5.45,5.157,1.917A1.51,1.51,0,0,0,4.6.2,1.433,1.433,0,0,0,2.575.9L2.552.91C-1.1,8.956-1.772,16.352,6.907,22.451c7.741,5.439,15.592,2.877,18.184,1.834a14.189,14.189,0,0,0,4.442-1.091.335.335,0,0,0,.215-.278,1.874,1.874,0,0,0-.325-1.068" transform="translate(0 0.001)" fill="#d4f989"/>
      </g>
    </g>
    <g id="Group_1111862" data-name="Group 1111862" transform="translate(149.378 1065.053)">
      <path id="Path_903774" data-name="Path 903774" d="M37.7,103.516c-.039-.035-.077-.072-.113-.109a3.706,3.706,0,0,1-.859-2.016,2.768,2.768,0,0,1,.6-2.546,1.1,1.1,0,0,1,.97-.286,1.133,1.133,0,0,1,.709.693,4.269,4.269,0,0,1,.219,1,15.94,15.94,0,0,1,.63,2.4,1.419,1.419,0,0,1-1.379,1.225,1.33,1.33,0,0,1-.778-.365" transform="translate(10.041 -55.314)" fill="#166340"/>
      <path id="Path_903776" data-name="Path 903776" d="M180.707,133.866a3.047,3.047,0,0,1-.21,1.35,9.233,9.233,0,0,1-1.748,2.719,4.947,4.947,0,0,1-1.717,1.274,2.588,2.588,0,0,1-2.092-.005,1.77,1.77,0,0,1-1-1.75,2.362,2.362,0,0,1,1.046-1.478,16.145,16.145,0,0,0,1.519-1.07,11.234,11.234,0,0,0,1.085-1.331,2.9,2.9,0,0,1,1.332-1.045c1.2-.375,1.721.415,1.789,1.335" transform="translate(-120.167 -90.858)" fill="#166340"/>
    </g>
  </g>
</svg>
