<svg xmlns="http://www.w3.org/2000/svg" xmlns:xlink="http://www.w3.org/1999/xlink" width="190" height="186" viewBox="0 0 190 186">
  <defs>
    <clipPath id="clip-path">
      <rect id="Rectangle_405297" data-name="Rectangle 405297" width="163" height="152.536" fill="none"/>
    </clipPath>
  </defs>
  <g id="Group_1112313" data-name="Group 1112313" transform="translate(-285.074 -4025)">
    <rect id="Rectangle_405295" data-name="Rectangle 405295" width="190" height="186" rx="17" transform="translate(285.074 4025)" fill="#f1f4fe"/>
    <g id="Group_1112312" data-name="Group 1112312" transform="translate(298.574 4041.732)">
      <g id="Group_1112311" data-name="Group 1112311" clip-path="url(#clip-path)">
        <path id="Path_909001" data-name="Path 909001" d="M86.439,39.522s9.018-8.382,9.573-14.388-5-1.636-7.077,1.554c0,0,1.736-15.469,1.6-19.7s-4.163-2.982-4.787,1.04S84.08,19.544,83.872,19.684s-.139-12.111-.416-14.727-4.579-4.183-4.926,0,.139,14.519,0,14.727S77.282,9,76.658,6.642s-4.163-3.765-4.44,1.03,1.11,14.022.9,14.3S70.138,14.2,68.4,13.093s-3.053-1.077-.971,7.855,3.814,17.81,3.954,18.573-2.429,8.325-2.013,9.157,11.795,3.911,18.313,0c.693-.416-2.335-8.091-1.248-9.157" transform="translate(26.91 0.963)" fill="#3da060"/>
        <path id="Path_909002" data-name="Path 909002" d="M78.931,38.846a33.016,33.016,0,0,1-8.783-1.216c-2.2-.641-2.593-1.112-2.788-1.5a1.16,1.16,0,0,1,1.911-1.283c1.361.819,11.992,3.428,18.091-.23a1.16,1.16,0,1,1,1.193,1.99,18.88,18.88,0,0,1-9.625,2.243" transform="translate(27.263 13.967)" fill="#71d968"/>
        <path id="Path_909003" data-name="Path 909003" d="M73,32.664a.23.23,0,0,1-.223-.171l-.358-1.346a.232.232,0,1,1,.448-.119l.358,1.346a.232.232,0,0,1-.166.284.212.212,0,0,1-.059.007m-.715-2.691a.234.234,0,0,1-.225-.173l-.356-1.346a.231.231,0,0,1,.163-.284.235.235,0,0,1,.285.164l.356,1.346a.23.23,0,0,1-.164.284.214.214,0,0,1-.059.008m-.715-2.693a.235.235,0,0,1-.225-.173l-.358-1.345a.233.233,0,1,1,.45-.119l.357,1.345a.233.233,0,0,1-.164.285.293.293,0,0,1-.059.007m-.715-2.691a.23.23,0,0,1-.223-.173l-.36-1.346a.233.233,0,0,1,.166-.284.229.229,0,0,1,.282.164l.36,1.346a.233.233,0,0,1-.166.284.222.222,0,0,1-.059.008M70.139,21.9a.231.231,0,0,1-.223-.173l-.357-1.346a.231.231,0,0,1,.163-.284.237.237,0,0,1,.287.164l.356,1.346a.23.23,0,0,1-.166.284.214.214,0,0,1-.059.008M69.424,19.2a.232.232,0,0,1-.223-.173l-.358-1.345a.232.232,0,1,1,.448-.119l.358,1.346a.233.233,0,0,1-.164.284.3.3,0,0,1-.06.007m-.715-2.691a.228.228,0,0,1-.222-.173l-.36-1.346a.232.232,0,0,1,.448-.119l.36,1.346a.234.234,0,0,1-.166.284.224.224,0,0,1-.06.008m-.714-2.693a.234.234,0,0,1-.226-.173L67.413,12.3a.23.23,0,0,1,.163-.284.234.234,0,0,1,.285.166l.356,1.345a.231.231,0,0,1-.163.285.282.282,0,0,1-.059.007" transform="translate(27.331 4.869)" fill="#71d968"/>
        <path id="Path_909004" data-name="Path 909004" d="M73.894,32.567a.232.232,0,0,1-.232-.218l-.089-1.39a.232.232,0,1,1,.464-.03l.089,1.39a.233.233,0,0,1-.216.247h-.015m-.176-2.78a.233.233,0,0,1-.232-.218L73.4,28.178a.232.232,0,0,1,.216-.246.242.242,0,0,1,.247.218l.087,1.39a.232.232,0,0,1-.216.246h-.015m-.176-2.781a.233.233,0,0,1-.232-.216l-.087-1.39a.232.232,0,0,1,.216-.247.242.242,0,0,1,.247.218l.087,1.39a.232.232,0,0,1-.218.246h-.014m-.176-2.78a.232.232,0,0,1-.232-.216l-.087-1.391a.231.231,0,0,1,.216-.246.237.237,0,0,1,.247.218l.086,1.39a.23.23,0,0,1-.216.246h-.014m-.176-2.78a.231.231,0,0,1-.23-.216l-.089-1.391a.231.231,0,0,1,.216-.246.235.235,0,0,1,.247.216l.087,1.391a.231.231,0,0,1-.216.246h-.015m-.176-2.78a.231.231,0,0,1-.23-.218l-.089-1.39a.231.231,0,0,1,.216-.246.233.233,0,0,1,.246.216l.089,1.39a.231.231,0,0,1-.216.246h-.015m-.176-2.78a.232.232,0,0,1-.23-.218l-.089-1.39a.231.231,0,0,1,.216-.246.233.233,0,0,1,.246.216l.089,1.39a.231.231,0,0,1-.216.246H72.84M72.665,13.1a.232.232,0,0,1-.232-.216l-.087-1.39a.234.234,0,0,1,.216-.247.242.242,0,0,1,.247.218l.087,1.39a.231.231,0,0,1-.216.246h-.015m-.176-2.78a.232.232,0,0,1-.232-.216l-.087-1.39a.232.232,0,0,1,.216-.247.236.236,0,0,1,.247.218l.087,1.39a.231.231,0,0,1-.216.246h-.015m-.176-2.78a.233.233,0,0,1-.232-.218l-.087-1.39a.231.231,0,0,1,.216-.246.236.236,0,0,1,.247.216L72.545,7.3a.233.233,0,0,1-.218.246h-.014" transform="translate(29.192 2.307)" fill="#71d968"/>
        <path id="Path_909005" data-name="Path 909005" d="M76.224,33.46h-.006a.23.23,0,0,1-.226-.238L76,32.8a.245.245,0,0,1,.239-.226.233.233,0,0,1,.225.238l-.011.423a.233.233,0,0,1-.232.226m.049-1.814h-.007a.232.232,0,0,1-.225-.239l.037-1.393a.234.234,0,0,1,.239-.225.231.231,0,0,1,.226.238l-.038,1.393a.233.233,0,0,1-.232.226m.074-2.786h-.007a.231.231,0,0,1-.225-.239l.038-1.391A.24.24,0,0,1,76.391,27a.236.236,0,0,1,.228.239l-.039,1.393a.231.231,0,0,1-.232.225m.076-2.784h-.007a.234.234,0,0,1-.226-.239l.038-1.393a.238.238,0,0,1,.239-.225.233.233,0,0,1,.226.239l-.038,1.391a.232.232,0,0,1-.232.226M76.5,23.29h-.007a.231.231,0,0,1-.226-.238L76.3,21.66a.235.235,0,0,1,.239-.226.232.232,0,0,1,.225.239l-.037,1.393a.233.233,0,0,1-.232.225m.074-2.784h-.007a.234.234,0,0,1-.226-.239l.038-1.391a.232.232,0,1,1,.464.013l-.037,1.391a.233.233,0,0,1-.232.226m.074-2.784h-.006a.234.234,0,0,1-.226-.239l.038-1.393a.236.236,0,0,1,.239-.225.23.23,0,0,1,.225.238L76.88,17.5a.232.232,0,0,1-.232.226m.076-2.786h-.007a.233.233,0,0,1-.226-.238l.038-1.393a.236.236,0,0,1,.239-.226.232.232,0,0,1,.225.239l-.037,1.391a.233.233,0,0,1-.232.226m.074-2.784h-.006a.233.233,0,0,1-.226-.239L76.6,10.52a.241.241,0,0,1,.239-.225.232.232,0,0,1,.226.238l-.037,1.393a.234.234,0,0,1-.233.226m.076-2.786h-.007a.23.23,0,0,1-.225-.238l.037-1.393a.239.239,0,0,1,.239-.226.232.232,0,0,1,.225.239l-.037,1.393a.233.233,0,0,1-.232.225m.074-2.784h-.007a.231.231,0,0,1-.225-.239l.038-1.391a.242.242,0,0,1,.238-.226.232.232,0,0,1,.226.239l-.038,1.393a.231.231,0,0,1-.232.225" transform="translate(30.813 1.916)" fill="#71d968"/>
        <path id="Path_909006" data-name="Path 909006" d="M79.023,34.685a.186.186,0,0,1-.038,0,.231.231,0,0,1-.191-.266l.222-1.376a.232.232,0,0,1,.458.074l-.222,1.375a.231.231,0,0,1-.229.2m.444-2.749a.162.162,0,0,1-.037,0,.232.232,0,0,1-.193-.266l.222-1.375a.232.232,0,0,1,.458.073L79.7,31.74a.232.232,0,0,1-.229.2m.446-2.751-.038,0a.234.234,0,0,1-.193-.267l.223-1.375a.231.231,0,1,1,.457.073L80.14,28.99a.23.23,0,0,1-.228.2m.444-2.751a.173.173,0,0,1-.038,0,.23.23,0,0,1-.191-.266l.222-1.376a.232.232,0,1,1,.458.074l-.222,1.375a.232.232,0,0,1-.229.2m.444-2.751a.179.179,0,0,1-.038,0,.231.231,0,0,1-.191-.266l.222-1.376a.232.232,0,0,1,.458.074l-.222,1.375a.232.232,0,0,1-.229.2m.444-2.749-.037,0a.234.234,0,0,1-.193-.267l.222-1.375a.232.232,0,0,1,.458.073l-.222,1.376a.232.232,0,0,1-.229.2m.444-2.751-.037,0a.234.234,0,0,1-.193-.267l.222-1.375a.232.232,0,1,1,.458.074l-.221,1.375a.235.235,0,0,1-.23.2m.446-2.751-.038,0a.233.233,0,0,1-.193-.266l.223-1.376a.232.232,0,0,1,.458.074l-.222,1.375a.233.233,0,0,1-.229.2m.443-2.751a.166.166,0,0,1-.037,0,.232.232,0,0,1-.193-.266l.223-1.376a.232.232,0,0,1,.458.074l-.222,1.376a.232.232,0,0,1-.23.194m.446-2.749-.037,0a.232.232,0,0,1-.193-.267l.222-1.375a.232.232,0,1,1,.458.074l-.222,1.375a.232.232,0,0,1-.229.2m.444-2.751-.037,0a.232.232,0,0,1-.193-.267l.222-1.375a.232.232,0,1,1,.458.074L83.7,6.988a.232.232,0,0,1-.229.2" transform="translate(31.948 2.167)" fill="#71d968"/>
        <path id="Path_909007" data-name="Path 909007" d="M81.7,29.866a.234.234,0,0,1-.194-.36l.76-1.167a.232.232,0,1,1,.389.253L81.9,29.761a.231.231,0,0,1-.194.105m1.519-2.336a.238.238,0,0,1-.126-.037.235.235,0,0,1-.067-.322L83.788,26a.233.233,0,0,1,.389.254l-.76,1.167a.232.232,0,0,1-.2.105M84.742,25.2a.231.231,0,0,1-.194-.358l.759-1.168a.233.233,0,1,1,.389.254l-.759,1.167a.232.232,0,0,1-.2.105m1.519-2.334a.225.225,0,0,1-.125-.038.23.23,0,0,1-.069-.32l.76-1.168a.232.232,0,1,1,.388.254l-.759,1.167a.232.232,0,0,1-.2.105m1.521-2.334a.233.233,0,0,1-.126-.038.23.23,0,0,1-.067-.32l.649-1a.232.232,0,1,1,.388.254l-.648,1a.232.232,0,0,1-.2.105" transform="translate(33.034 7.73)" fill="#71d968"/>
        <path id="Path_909008" data-name="Path 909008" d="M73.842,7.7c.624,4.162,2.635,13.653,2.635,11.376-.138.208-1.248-10.683-1.872-13.041C74.2,4.521,72.6,3.4,71.43,4.065A4.491,4.491,0,0,1,73.842,7.7" transform="translate(28.963 1.569)" fill="#2c715e"/>
        <path id="Path_909009" data-name="Path 909009" d="M83.332,9.469c-.675,5.133-2.479,17.968-1.577,17.76a1.407,1.407,0,0,0,1.04-1.112s1.736-15.467,1.6-19.7c-.067-2.01-1.009-2.781-2.048-2.61a8.429,8.429,0,0,1,.988,5.661" transform="translate(33.049 1.535)" fill="#2c715e"/>
        <path id="Path_909010" data-name="Path 909010" d="M78.754,5.909c.069,3.646.555,16.34,1.387,13.774-.208.138-.139-12.111-.416-14.727-.214-2.015-2.814-3.4-4.156-2.025,1.316.1,3.141.649,3.185,2.978" transform="translate(30.641 0.964)" fill="#2c715e"/>
        <path id="Path_909011" data-name="Path 909011" d="M68.578,12.294c2.011,3.814,4.517,8.26,4.44,6.728-.208.278-2.982-7.768-4.717-8.878-.689-.44-1.31-.7-1.681-.294a7.105,7.105,0,0,1,1.958,2.444" transform="translate(27.013 3.912)" fill="#2c715e"/>
        <path id="Path_909012" data-name="Path 909012" d="M90.3,19.4c.163-1.765-.2-2.63-.852-2.9.181,2.021-.225,5.678-3.969,10.208-5.792,7.006-4.982,7.772-4.982,7.772a1.086,1.086,0,0,1,.231-.7S89.743,25.409,90.3,19.4" transform="translate(32.623 6.694)" fill="#2c715e"/>
        <path id="Path_909013" data-name="Path 909013" d="M78.445,29.318c-2.319.032-5.352.939-7.428-.433-.252-.164-.483.238-.235.4,2.178,1.438,5.242.53,7.663.5a.232.232,0,0,0,0-.464" transform="translate(28.657 11.697)" fill="#2c715e"/>
        <path id="Path_909014" data-name="Path 909014" d="M75.41,30.656a.232.232,0,0,0,0-.464,13.588,13.588,0,0,1-4.117-.34.232.232,0,0,0-.124.447,13.994,13.994,0,0,0,4.24.357" transform="translate(28.792 12.1)" fill="#2c715e"/>
        <path id="Path_909015" data-name="Path 909015" d="M72.79,30.784a5.872,5.872,0,0,1-1.331-.107c-.291-.067-.415.379-.124.447a6.469,6.469,0,0,0,1.455.125.233.233,0,0,0,0-.465" transform="translate(28.857 12.436)" fill="#2c715e"/>
        <path id="Path_909016" data-name="Path 909016" d="M84.49,20.388a2.176,2.176,0,0,1-.835-.817c-.173-.24-.576-.01-.4.235a2.684,2.684,0,0,0,1.112,1.029c.278.115.4-.335.124-.447" transform="translate(33.74 7.895)" fill="#2c715e"/>
        <path id="Path_909017" data-name="Path 909017" d="M84.738,19.634a2.546,2.546,0,0,1-.718-.4c-.232-.181-.564.145-.327.329a3.189,3.189,0,0,0,.923.521c.283.1.4-.35.122-.448" transform="translate(33.902 7.777)" fill="#2c715e"/>
        <path id="Path_909018" data-name="Path 909018" d="M84.723,18.661c-.135-.041-.274-.062-.41-.1a.232.232,0,0,0-.124.447c.136.041.274.063.41.1a.232.232,0,0,0,.124-.447" transform="translate(34.071 7.52)" fill="#2c715e"/>
        <path id="Path_909019" data-name="Path 909019" d="M81.522,5.453a8.252,8.252,0,0,0-.97.856.232.232,0,0,0,.327.329,7.6,7.6,0,0,1,.877-.784c.24-.174.008-.578-.235-.4" transform="translate(32.634 2.193)" fill="#2c715e"/>
        <path id="Path_909020" data-name="Path 909020" d="M81.032,6.325a2.639,2.639,0,0,1-.364.322c-.243.17-.011.573.235.4a3.314,3.314,0,0,0,.457-.395.232.232,0,0,0-.327-.329" transform="translate(32.667 2.537)" fill="#2c715e"/>
        <path id="Path_909021" data-name="Path 909021" d="M80.738,7.26a.461.461,0,0,0-.041.046c-.209.215.118.543.329.329a.446.446,0,0,0,.162-.482c-.093-.277-.523-.166-.45.107" transform="translate(32.694 2.835)" fill="#2c715e"/>
        <path id="Path_909022" data-name="Path 909022" d="M70.839,18.5a1.4,1.4,0,0,0,.739-.051c.29-.07.167-.517-.125-.448a1.015,1.015,0,0,1-.479.053.223.223,0,0,0,.091-.015c.287-.114.579-.211.871-.308s.162-.543-.125-.448-.583.2-.87.308a.244.244,0,0,0,.015.461c-.28-.091-.4.35-.118.448" transform="translate(28.659 7.002)" fill="#2c715e"/>
        <path id="Path_909023" data-name="Path 909023" d="M74.707,16.341a3.946,3.946,0,0,0,.728.059.232.232,0,0,0,0-.464,3.223,3.223,0,0,1-.6-.044c-.292-.053-.417.395-.124.448" transform="translate(30.224 6.442)" fill="#2c715e"/>
        <path id="Path_909024" data-name="Path 909024" d="M74.731,16.861a.067.067,0,0,1,.089.02c.239.181.469-.223.235-.4a.511.511,0,0,0-.323-.083.232.232,0,0,0,0,.464" transform="translate(30.21 6.649)" fill="#2c715e"/>
        <path id="Path_909025" data-name="Path 909025" d="M80.77,29.061c-.6.149-1.192.3-1.795.41-.294.055-.17.5.124.447.6-.112,1.2-.261,1.793-.41a.232.232,0,0,0-.122-.447" transform="translate(31.954 11.78)" fill="#2c715e"/>
        <path id="Path_909026" data-name="Path 909026" d="M80.5,29.49a4.731,4.731,0,0,1-1.026.564c-.274.119-.037.519.235.4a4.721,4.721,0,0,0,1.025-.564c.235-.18,0-.583-.233-.4" transform="translate(32.173 11.939)" fill="#2c715e"/>
        <path id="Path_909027" data-name="Path 909027" d="M99.2,46.209S89.278,38.923,88.034,33.02s4.773-2.2,7.209.729c0,0-3.505-15.166-3.857-19.386s3.792-3.442,4.876.482,2.981,11.247,3.2,11.36-1.258-12.045-1.283-14.676,4.066-4.682,4.892-.568,1.535,14.437,1.7,14.628.008-10.755.357-13.169,3.7-4.221,4.528.512.513,14.056.751,14.308,2.069-8.06,3.664-9.363,2.908-1.421,1.869,7.691S114.2,43.7,114.154,44.475s3.372,7.989,3.054,8.863-11.265,5.245-18.191,2.111c-.738-.333,1.386-8.308.186-9.24" transform="translate(35.628 3.498)" fill="#3da060"/>
        <path id="Path_909028" data-name="Path 909028" d="M105.03,45.107a32.965,32.965,0,0,0,8.585-2.219c2.111-.89,2.448-1.4,2.6-1.816a1.161,1.161,0,0,0-2.048-1.054c-1.257.971-11.518,4.786-18,1.855a1.161,1.161,0,0,0-.956,2.115,18.886,18.886,0,0,0,9.819,1.119" transform="translate(38.329 16.022)" fill="#71d968"/>
        <path id="Path_909029" data-name="Path 909029" d="M104.9,38.313a.232.232,0,0,1-.2-.264l.2-1.377a.232.232,0,0,1,.46.065l-.2,1.38a.235.235,0,0,1-.2.2.434.434,0,0,1-.06,0m.4-2.758a.231.231,0,0,1-.2-.264l.2-1.377a.232.232,0,1,1,.46.067l-.2,1.377a.237.237,0,0,1-.2.2.294.294,0,0,1-.06,0m.4-2.756a.234.234,0,0,1-.2-.264l.2-1.377a.232.232,0,1,1,.46.067l-.2,1.377a.23.23,0,0,1-.2.2.218.218,0,0,1-.06,0m.4-2.759a.23.23,0,0,1-.2-.261l.2-1.38a.232.232,0,0,1,.46.067l-.2,1.379a.23.23,0,0,1-.2.2.175.175,0,0,1-.06,0m.4-2.755a.232.232,0,0,1-.2-.264l.2-1.377a.232.232,0,0,1,.46.065l-.2,1.38a.228.228,0,0,1-.2.2.413.413,0,0,1-.059,0m.4-2.758a.233.233,0,0,1-.2-.264l.2-1.377a.232.232,0,1,1,.46.066l-.2,1.379a.233.233,0,0,1-.2.2.217.217,0,0,1-.06,0m.4-2.756a.234.234,0,0,1-.2-.264l.2-1.377a.232.232,0,0,1,.46.066l-.2,1.379a.233.233,0,0,1-.2.2.218.218,0,0,1-.06,0m.4-2.759a.231.231,0,0,1-.2-.261l.2-1.38a.232.232,0,1,1,.46.067l-.2,1.379a.231.231,0,0,1-.2.2.221.221,0,0,1-.06,0" transform="translate(42.455 6.963)" fill="#71d968"/>
        <path id="Path_909030" data-name="Path 909030" d="M103.184,38.321a.232.232,0,0,1-.243-.221l-.072-1.391a.232.232,0,0,1,.462-.024l.073,1.391a.233.233,0,0,1-.205.243h-.015m-.146-2.783a.231.231,0,0,1-.243-.219l-.073-1.391a.239.239,0,0,1,.219-.245.234.234,0,0,1,.245.221l.072,1.39a.231.231,0,0,1-.2.243h-.015m-.145-2.783a.231.231,0,0,1-.245-.219l-.073-1.39a.24.24,0,0,1,.219-.245.231.231,0,0,1,.245.221l.073,1.39a.232.232,0,0,1-.205.243h-.014m-.146-2.781a.233.233,0,0,1-.245-.219l-.073-1.391a.238.238,0,0,1,.221-.245.232.232,0,0,1,.243.221l.073,1.39a.233.233,0,0,1-.2.245h-.015m-.146-2.781a.232.232,0,0,1-.245-.219l-.072-1.391a.234.234,0,0,1,.219-.245.231.231,0,0,1,.243.221l.073,1.39a.232.232,0,0,1-.205.243H102.6m-.146-2.783a.232.232,0,0,1-.245-.219l-.073-1.39a.236.236,0,0,1,.221-.245.23.23,0,0,1,.243.219l.073,1.391a.229.229,0,0,1-.2.242h-.015m-.146-2.781a.232.232,0,0,1-.243-.219l-.073-1.391a.232.232,0,0,1,.464-.024l.072,1.39a.23.23,0,0,1-.2.243h-.015m-.145-2.781a.233.233,0,0,1-.245-.221l-.073-1.39a.239.239,0,0,1,.219-.245.231.231,0,0,1,.245.221l.073,1.39a.232.232,0,0,1-.205.243h-.014m-.146-2.783a.232.232,0,0,1-.245-.219l-.073-1.391a.235.235,0,0,1,.219-.243.232.232,0,0,1,.245.219l.073,1.391a.23.23,0,0,1-.2.242h-.015m-.146-2.781a.231.231,0,0,1-.243-.219l-.073-1.391a.233.233,0,0,1,.219-.245.231.231,0,0,1,.243.221l.073,1.39a.231.231,0,0,1-.2.243h-.015" transform="translate(41.178 4.633)" fill="#71d968"/>
        <path id="Path_909031" data-name="Path 909031" d="M100.951,39.25l-.059-.419a.232.232,0,0,1,.2-.263.247.247,0,0,1,.263.2l.06.417a.233.233,0,0,1-.2.263h-.006a.233.233,0,0,1-.257-.2m-.257-1.8-.2-1.379a.232.232,0,0,1,.46-.066l.2,1.379a.232.232,0,0,1-.2.263h-.007a.232.232,0,0,1-.256-.2M100.3,34.7l-.2-1.379a.235.235,0,0,1,.2-.263.242.242,0,0,1,.263.2l.2,1.379a.233.233,0,0,1-.2.264h-.006a.231.231,0,0,1-.256-.2m-.4-2.758-.2-1.379a.233.233,0,0,1,.2-.263.238.238,0,0,1,.263.2l.2,1.379a.232.232,0,0,1-.2.263h-.006a.233.233,0,0,1-.257-.2m-.395-2.758-.2-1.379a.233.233,0,0,1,.461-.066l.2,1.379a.233.233,0,0,1-.2.263h-.006a.231.231,0,0,1-.256-.2m-.4-2.758-.2-1.379a.234.234,0,0,1,.2-.263.231.231,0,0,1,.263.2l.2,1.379a.233.233,0,0,1-.2.263h-.006a.233.233,0,0,1-.257-.2m-.395-2.758-.2-1.379a.233.233,0,0,1,.2-.263.239.239,0,0,1,.263.2l.2,1.379a.233.233,0,0,1-.2.263h-.006a.232.232,0,0,1-.257-.2m-.395-2.758-.2-1.379a.234.234,0,0,1,.2-.263.236.236,0,0,1,.263.2l.2,1.379a.232.232,0,0,1-.2.263h-.007a.228.228,0,0,1-.254-.2m-.4-2.758-.2-1.379a.234.234,0,0,1,.2-.263.241.241,0,0,1,.263.2l.2,1.379a.231.231,0,0,1-.2.263h-.007a.235.235,0,0,1-.257-.2m-.395-2.758-.2-1.379a.231.231,0,0,1,.2-.263.239.239,0,0,1,.264.2l.2,1.379a.232.232,0,0,1-.2.263h-.006a.231.231,0,0,1-.257-.2m-.395-2.758-.2-1.379a.233.233,0,0,1,.2-.263.244.244,0,0,1,.263.2l.2,1.379a.233.233,0,0,1-.2.263H97.39a.231.231,0,0,1-.256-.2" transform="translate(39.304 4.457)" fill="#71d968"/>
        <path id="Path_909032" data-name="Path 909032" d="M99.436,40.691l-.379-1.341a.232.232,0,0,1,.447-.126l.379,1.341a.232.232,0,0,1-.16.287l-.037.007a.232.232,0,0,1-.25-.167m-.758-2.68L98.3,36.67a.234.234,0,0,1,.162-.287.23.23,0,0,1,.285.16l.381,1.341a.233.233,0,0,1-.162.287l-.037.007a.23.23,0,0,1-.249-.167m-.759-2.682L97.54,33.99a.232.232,0,0,1,.447-.126l.379,1.339a.232.232,0,0,1-.16.287c-.013,0-.025.006-.037.008a.232.232,0,0,1-.25-.169m-.758-2.68-.379-1.339a.232.232,0,0,1,.16-.288.229.229,0,0,1,.285.162l.381,1.339a.234.234,0,0,1-.162.287.153.153,0,0,1-.037.007.229.229,0,0,1-.249-.167m-.759-2.68-.379-1.341a.232.232,0,1,1,.446-.126l.379,1.341a.23.23,0,0,1-.16.287l-.035.007a.232.232,0,0,1-.25-.167m-.759-2.68-.378-1.341a.232.232,0,1,1,.446-.126l.379,1.341a.232.232,0,0,1-.16.287l-.037.007a.232.232,0,0,1-.25-.167m-.758-2.682-.379-1.339a.232.232,0,1,1,.447-.126l.379,1.339a.233.233,0,0,1-.162.287.257.257,0,0,1-.035.008.233.233,0,0,1-.25-.169m-.759-2.68-.378-1.339a.232.232,0,0,1,.446-.128l.379,1.341a.232.232,0,0,1-.162.287.1.1,0,0,1-.035.007.232.232,0,0,1-.25-.167m-.758-2.68-.381-1.341a.234.234,0,0,1,.162-.287.23.23,0,0,1,.285.16l.379,1.341a.232.232,0,0,1-.159.287l-.038.007a.231.231,0,0,1-.249-.167m-.759-2.68-.379-1.341a.232.232,0,1,1,.447-.126l.379,1.341a.232.232,0,0,1-.162.287l-.035.007a.232.232,0,0,1-.25-.167m-.759-2.682-.379-1.339a.232.232,0,0,1,.447-.126l.379,1.339a.231.231,0,0,1-.16.287.168.168,0,0,1-.037.007.232.232,0,0,1-.25-.167" transform="translate(37.086 4.967)" fill="#71d968"/>
        <path id="Path_909033" data-name="Path 909033" d="M96.855,36.229l-.89-1.072a.232.232,0,1,1,.357-.3l.89,1.072a.232.232,0,0,1-.03.326.22.22,0,0,1-.122.052.231.231,0,0,1-.205-.082m-1.778-2.145-.89-1.072a.232.232,0,1,1,.357-.3l.89,1.071a.233.233,0,0,1-.152.379.229.229,0,0,1-.205-.083M93.3,31.941l-.888-1.072a.232.232,0,1,1,.357-.3l.89,1.072a.234.234,0,0,1-.031.327.22.22,0,0,1-.121.051.231.231,0,0,1-.207-.082M91.519,29.8l-.89-1.071a.233.233,0,0,1,.357-.3l.891,1.072a.235.235,0,0,1-.031.327.227.227,0,0,1-.121.052.23.23,0,0,1-.207-.083m-1.778-2.143-.76-.916a.231.231,0,0,1,.031-.326.233.233,0,0,1,.327.031l.759.915a.233.233,0,0,1-.03.327.253.253,0,0,1-.122.052.234.234,0,0,1-.205-.083" transform="translate(36.058 10.687)" fill="#71d968"/>
        <path id="Path_909034" data-name="Path 909034" d="M101.2,13.6c-.141,4.207-1.046,13.866-1.307,11.6.162.191.008-10.755.357-13.169.223-1.552,1.689-2.849,2.926-2.323A4.486,4.486,0,0,0,101.2,13.6" transform="translate(40.505 3.888)" fill="#2c715e"/>
        <path id="Path_909035" data-name="Path 909035" d="M91.781,16.436c1.264,5.02,4.534,17.56,3.612,17.457a1.407,1.407,0,0,1-1.16-.982s-3.507-15.166-3.857-19.384c-.166-2.006.683-2.88,1.734-2.828a8.426,8.426,0,0,0-.33,5.737" transform="translate(36.637 4.337)" fill="#2c715e"/>
        <path id="Path_909036" data-name="Path 909036" d="M96.281,12.365c.35,3.629,1.331,16.3.208,13.841.223.114-1.258-12.045-1.283-14.676-.02-2.027,2.4-3.706,3.895-2.491-1.3.247-3.044,1.006-2.819,3.325" transform="translate(38.604 3.499)" fill="#2c715e"/>
        <path id="Path_909037" data-name="Path 909037" d="M107.541,17.561c-1.559,4.021-3.536,8.727-3.636,7.2.24.252,2.069-8.062,3.664-9.363.632-.517,1.22-.845,1.635-.486a7.1,7.1,0,0,0-1.663,2.654" transform="translate(42.131 5.983)" fill="#2c715e"/>
        <path id="Path_909038" data-name="Path 909038" d="M88.034,26.842c-.365-1.736-.1-2.635.514-2.974.052,2.028.877,5.615,5.119,9.682,6.561,6.291,5.844,7.147,5.844,7.147a1.08,1.08,0,0,0-.309-.666s-9.923-7.287-11.168-13.189" transform="translate(35.628 9.678)" fill="#2c715e"/>
        <path id="Path_909039" data-name="Path 909039" d="M100.446,35.615c2.306-.235,5.424.315,7.328-1.285.23-.194.507.178.281.371-2,1.678-5.148,1.13-7.556,1.376a.233.233,0,0,1-.053-.462" transform="translate(40.648 13.898)" fill="#2c715e"/>
        <path id="Path_909040" data-name="Path 909040" d="M102.657,36.6a.232.232,0,0,1-.053-.461,13.587,13.587,0,0,0,4.051-.812c.274-.119.447.311.173.43a14.04,14.04,0,0,1-4.17.843" transform="translate(41.522 14.314)" fill="#2c715e"/>
        <path id="Path_909041" data-name="Path 909041" d="M104.483,36.42a5.88,5.88,0,0,0,1.31-.26c.282-.1.457.33.174.43a6.445,6.445,0,0,1-1.432.291.232.232,0,0,1-.052-.461" transform="translate(42.285 14.656)" fill="#2c715e"/>
        <path id="Path_909042" data-name="Path 909042" d="M91.519,27.441a2.179,2.179,0,0,0,.734-.907c.145-.26.572-.076.426.187a2.708,2.708,0,0,1-.987,1.15c-.261.146-.431-.287-.173-.43" transform="translate(37.057 10.708)" fill="#2c715e"/>
        <path id="Path_909043" data-name="Path 909043" d="M91.159,26.721a2.537,2.537,0,0,0,.668-.482c.209-.208.576.077.364.288a3.2,3.2,0,0,1-.857.624c-.27.132-.441-.3-.174-.43" transform="translate(36.908 10.61)" fill="#2c715e"/>
        <path id="Path_909044" data-name="Path 909044" d="M90.951,25.753c.128-.056.266-.094.395-.149a.232.232,0,0,1,.174.43c-.131.056-.266.094-.4.149a.232.232,0,0,1-.173-.43" transform="translate(36.822 10.373)" fill="#2c715e"/>
        <path id="Path_909045" data-name="Path 909045" d="M92.76,12.233a8.138,8.138,0,0,1,1.061.739.232.232,0,0,1-.29.363,7.623,7.623,0,0,0-.96-.677c-.257-.145-.074-.572.188-.424" transform="translate(37.485 4.948)" fill="#2c715e"/>
        <path id="Path_909046" data-name="Path 909046" d="M93.2,13.06a2.768,2.768,0,0,0,.4.278c.263.141.077.568-.186.426a3.446,3.446,0,0,1-.5-.34.232.232,0,0,1,.288-.364" transform="translate(37.638 5.275)" fill="#2c715e"/>
        <path id="Path_909047" data-name="Path 909047" d="M93.517,13.966c.008.008.021.017.045.042a.232.232,0,0,1-.288.363.444.444,0,0,1-.216-.46c.06-.285.5-.223.46.055" transform="translate(37.729 5.565)" fill="#2c715e"/>
        <path id="Path_909048" data-name="Path 909048" d="M104.887,23.959a1.4,1.4,0,0,1-.739.034c-.3-.035-.226-.493.072-.458a1.016,1.016,0,0,0,.482,0,.206.206,0,0,1-.091-.006c-.3-.079-.6-.142-.9-.205s-.223-.52.07-.458.6.126.9.205a.244.244,0,0,1,.037.46c.267-.124.434.3.169.431" transform="translate(41.975 9.268)" fill="#2c715e"/>
        <path id="Path_909049" data-name="Path 909049" d="M100.709,22.294a4.177,4.177,0,0,1-.717.143.232.232,0,0,1-.053-.461,3.289,3.289,0,0,0,.595-.114c.285-.086.461.344.176.431" transform="translate(40.442 8.86)" fill="#2c715e"/>
        <path id="Path_909050" data-name="Path 909050" d="M100.608,22.814a.066.066,0,0,0-.084.03c-.216.207-.493-.167-.28-.371a.522.522,0,0,1,.311-.119.232.232,0,0,1,.053.461" transform="translate(40.615 9.063)" fill="#2c715e"/>
        <path id="Path_909051" data-name="Path 909051" d="M96.478,35.57c.609.079,1.219.159,1.83.2.3.021.226.481-.072.46-.613-.042-1.22-.122-1.829-.2a.232.232,0,0,1,.07-.458" transform="translate(39.014 14.422)" fill="#2c715e"/>
        <path id="Path_909052" data-name="Path 909052" d="M96.58,35.989a4.719,4.719,0,0,0,1.082.441c.287.087.1.512-.187.426a4.792,4.792,0,0,1-1.085-.441c-.252-.152-.069-.58.19-.426" transform="translate(39.035 14.579)" fill="#2c715e"/>
        <path id="Path_909053" data-name="Path 909053" d="M80.511,58.376A10.294,10.294,0,0,1,90.793,48.094c3.862,0,5.233,5.539,5.233,10.282s-1.37,10.282-5.233,10.282A10.294,10.294,0,0,1,80.511,58.376m12.191,0c0-4.592-1.338-6.959-1.909-6.959a6.959,6.959,0,1,0,0,13.917c.571,0,1.909-2.367,1.909-6.959" transform="translate(32.645 19.501)" fill="#a8bff5"/>
        <rect id="Rectangle_405296" data-name="Rectangle 405296" width="57.724" height="3.792" transform="translate(56.012 75.981)" fill="#b06c0b"/>
        <path id="Path_909054" data-name="Path 909054" d="M4.547,59.7s0,5.778,10.2,11.557c8.777,4.974,24.133,2.89,24.133,2.89S37.519,65.821,43.808,59.7c-6.288-6.118-4.929-14.447-4.929-14.447s-15.356-2.084-24.133,2.89C4.547,53.925,4.547,59.7,4.547,59.7" transform="translate(1.844 18.174)" fill="#7b9eef"/>
        <path id="Path_909055" data-name="Path 909055" d="M18.794,71.26C8.6,65.48,8.6,59.7,8.6,59.7s0-5.778,10.2-11.557c4.18-2.37,9.85-3.134,14.645-3.289-5.272-.166-13.248.2-18.694,3.289C4.547,53.925,4.547,59.7,4.547,59.7s0,5.778,10.2,11.557c5.446,3.088,13.422,3.455,18.694,3.289-4.8-.153-10.465-.919-14.645-3.289" transform="translate(1.844 18.175)" fill="#a8bff5"/>
        <path id="Path_909056" data-name="Path 909056" d="M18.985,54.47,50.505,53.6c1.407-.039,1.547,5.053.142,5.092h-.142L18.985,57.82a1.675,1.675,0,0,1,0-3.349" transform="translate(7.038 21.733)" fill="#a8bff5"/>
        <path id="Path_909057" data-name="Path 909057" d="M78.695,58.931c-1.509,0-1.509-5.466,0-5.466h3.982a2.733,2.733,0,1,1,0,5.466Z" transform="translate(31.45 21.679)" fill="#ef4545"/>
        <path id="Path_909058" data-name="Path 909058" d="M88.292,60.737a3.579,3.579,0,0,1,.037-.516,25.158,25.158,0,0,0,0-6.628c-.24-1.688,4.98-2.708,5.223-1.023a32.016,32.016,0,0,1,0,8.675c-.243,1.685-5.259.975-5.259-.507" transform="translate(35.8 20.966)" fill="#ef4545"/>
        <path id="Path_909059" data-name="Path 909059" d="M92.33,54.171a3.845,3.845,0,0,0-2.381-.157c-.288.1-.164.557.126.458a3.407,3.407,0,0,1,2.128.157c.291.094.416-.364.126-.458" transform="translate(36.406 21.848)" fill="#ff6d6d"/>
        <path id="Path_909060" data-name="Path 909060" d="M90.546,55.168a2.735,2.735,0,0,1,1.505-.073c.3.032.3-.443,0-.474a3.064,3.064,0,0,0-1.746.136c-.273.136-.032.547.24.41" transform="translate(36.568 22.123)" fill="#ff6d6d"/>
        <path id="Path_909061" data-name="Path 909061" d="M90.583,56.023a1.852,1.852,0,0,1,1.39.024c.292.094.417-.365.126-.458a2.3,2.3,0,0,0-1.757.025c-.273.136-.032.545.24.409" transform="translate(36.583 22.474)" fill="#ff6d6d"/>
        <path id="Path_909062" data-name="Path 909062" d="M80.077,57.113a7.977,7.977,0,0,1-.306-2.349.238.238,0,0,0-.475,0,8.361,8.361,0,0,0,.325,2.475c.091.291.55.166.457-.126" transform="translate(32.153 22.112)" fill="#ff6d6d"/>
        <path id="Path_909063" data-name="Path 909063" d="M79.295,56.471a11.54,11.54,0,0,0-.166-1.321c-.069-.3-.527-.171-.457.126a10.961,10.961,0,0,1,.148,1.195c.034.3.51.3.475,0" transform="translate(31.897 22.293)" fill="#ff6d6d"/>
        <path id="Path_909064" data-name="Path 909064" d="M78.615,56.073v-.786a.238.238,0,0,0-.475,0v.786a.238.238,0,0,0,.475,0" transform="translate(31.684 22.324)" fill="#ff6d6d"/>
        <path id="Path_909065" data-name="Path 909065" d="M88.093,61.154c.105.209.209.419.315.63.136.273.545.032.41-.24l-.316-.63c-.136-.274-.545-.032-.409.24" transform="translate(35.708 24.65)" fill="#7b9eef"/>
        <path id="Path_909066" data-name="Path 909066" d="M88.27,61.583a1.624,1.624,0,0,0-.114-.429c-.1-.288-.558-.164-.457.125a1.364,1.364,0,0,1,.1.3c.024.3.5.306.474,0" transform="translate(35.554 24.73)" fill="#7b9eef"/>
        <path id="Path_909067" data-name="Path 909067" d="M87.634,61.078c-.1-.287-.558-.163-.457.126a1.353,1.353,0,0,1,.1.3c.022.3.5.306.474,0a1.644,1.644,0,0,0-.114-.431" transform="translate(35.342 24.7)" fill="#7b9eef"/>
        <path id="Path_909068" data-name="Path 909068" d="M62.316,56.985c.1.287.558.163.457-.126a2.909,2.909,0,0,1-.157-1.657c.072-.3-.385-.423-.457-.125a3.346,3.346,0,0,0,.157,1.909" transform="translate(25.173 22.263)" fill="#6d472e"/>
        <path id="Path_909069" data-name="Path 909069" d="M61.549,56.742a.237.237,0,0,0,.457-.126,4.48,4.48,0,0,1-.148-1.143.238.238,0,0,0-.475,0,5.025,5.025,0,0,0,.166,1.269" transform="translate(24.889 22.4)" fill="#6d472e"/>
        <path id="Path_909070" data-name="Path 909070" d="M61.172,56.353a2.878,2.878,0,0,1-.1-.618.238.238,0,0,0-.475,0,3.5,3.5,0,0,0,.114.743c.072.3.53.173.458-.125" transform="translate(24.572 22.506)" fill="#6d472e"/>
        <path id="Path_909071" data-name="Path 909071" d="M62.875,55.622v.524a.238.238,0,0,0,.475,0v-.524a.238.238,0,0,0-.475,0" transform="translate(25.494 22.46)" fill="#6d472e"/>
        <path id="Path_909072" data-name="Path 909072" d="M45.313,56.369c.093.291.551.167.458-.126a1.839,1.839,0,0,1-.105-.817c.041-.3-.416-.429-.458-.126a2.384,2.384,0,0,0,.105,1.07" transform="translate(18.322 22.353)" fill="#6d472e"/>
        <path id="Path_909073" data-name="Path 909073" d="M45.773,55.485a1.752,1.752,0,0,0,0,.755c.063.3.521.173.457-.125a1.214,1.214,0,0,1,0-.5c.065-.3-.394-.426-.457-.126" transform="translate(18.543 22.429)" fill="#6d472e"/>
        <path id="Path_909074" data-name="Path 909074" d="M34.033,56.674a4.13,4.13,0,0,1-.149-1.089.238.238,0,0,0-.475,0,4.73,4.73,0,0,0,.166,1.216.238.238,0,0,0,.458-.126" transform="translate(13.547 22.446)" fill="#3162d9"/>
        <path id="Path_909075" data-name="Path 909075" d="M35.063,56.922a8.016,8.016,0,0,1-.1-1.039.237.237,0,0,0-.474,0,8.983,8.983,0,0,0,.112,1.165c.044.3.5.173.458-.126" transform="translate(13.986 22.566)" fill="#3162d9"/>
        <path id="Path_909076" data-name="Path 909076" d="M35.92,56.687a2.966,2.966,0,0,1-.1-.618.238.238,0,0,0-.475,0,3.509,3.509,0,0,0,.112.745c.073.3.53.171.458-.126" transform="translate(14.333 22.642)" fill="#3162d9"/>
        <path id="Path_909077" data-name="Path 909077" d="M34.081,56.474c-.021.306.454.3.475,0,.008-.124.044-.243.052-.367.021-.3-.454-.3-.475,0-.008.124-.044.243-.052.367" transform="translate(13.819 22.657)" fill="#3162d9"/>
        <path id="Path_909078" data-name="Path 909078" d="M28.142,66.336a21.434,21.434,0,0,1-.673-5.231.238.238,0,0,0-.475,0,21.912,21.912,0,0,0,.69,5.358.238.238,0,0,0,.458-.126" transform="translate(10.945 24.684)" fill="#3162d9"/>
        <path id="Path_909079" data-name="Path 909079" d="M27.121,65.58c-.3-1.5-.464-3.026-.621-4.55-.031-.3-.506-.3-.475,0,.163,1.566.33,3.13.638,4.675.06.3.517.174.458-.125" transform="translate(10.552 24.654)" fill="#3162d9"/>
        <path id="Path_909080" data-name="Path 909080" d="M25.785,64.471c-.108-.876-.26-1.746-.367-2.621-.037-.3-.513-.3-.475,0,.107.876.26,1.746.367,2.621.037.3.512.3.475,0" transform="translate(10.113 24.987)" fill="#3162d9"/>
        <path id="Path_909081" data-name="Path 909081" d="M24.648,63.845c-.053-.353-.148-.7-.209-1.048-.055-.3-.512-.173-.458.126.062.351.156.7.209,1.048.046.3.5.173.458-.126" transform="translate(9.722 25.393)" fill="#3162d9"/>
        <path id="Path_909082" data-name="Path 909082" d="M18.869,54.551A11.371,11.371,0,0,1,18.405,51a.238.238,0,0,0-.475,0,11.753,11.753,0,0,0,.481,3.681c.1.29.554.166.458-.126" transform="translate(7.27 20.585)" fill="#3162d9"/>
        <path id="Path_909083" data-name="Path 909083" d="M17.719,53.985c-.1-1-.2-1.987-.209-2.989a.238.238,0,0,0-.475,0c.008,1,.105,1.994.209,2.989.032.3.507.3.475,0" transform="translate(6.907 20.585)" fill="#3162d9"/>
        <path id="Path_909084" data-name="Path 909084" d="M16.243,52.9q.078-.708.157-1.415c.034-.3-.441-.3-.475,0q-.078.706-.157,1.415c-.034.3.441.3.475,0" transform="translate(6.393 20.782)" fill="#3162d9"/>
        <path id="Path_909085" data-name="Path 909085" d="M92.118,67.265l6.557,22.246a5.778,5.778,0,0,0-.721,6.821l-3.484,2.08L93.346,87.5S82.5,73.341,92.118,67.265" transform="translate(35.738 27.274)" fill="#7b9eef"/>
        <path id="Path_909086" data-name="Path 909086" d="M92.118,67.265C82.5,73.341,93.346,87.5,93.346,87.5c-7.616-12.76-1.228-20.236-1.228-20.236" transform="translate(35.738 27.274)" fill="#a8bff5"/>
        <path id="Path_909087" data-name="Path 909087" d="M105.751,89.644l-3.056-2.1C98.634,90.5,89,90.459,84.3,83.48s-.907-11.441-.907-11.441,3.852,9.016,8.243,11.355,10.448-2.011,10.448-2.011l7.1,4.751Z" transform="translate(33.227 29.21)" fill="#a8bff5"/>
        <path id="Path_909088" data-name="Path 909088" d="M89.344,83.711c6.148,4.78,12.322-2.329,12.322-2.329s-6.059,4.349-10.45,2.01-8.243-11.353-8.243-11.353a17.337,17.337,0,0,0,6.371,11.672" transform="translate(33.643 29.21)" fill="#d2e0ff"/>
        <path id="Path_909089" data-name="Path 909089" d="M95.117,84.582a1.745,1.745,0,1,1,.6-2.392,1.745,1.745,0,0,1-.6,2.392" transform="translate(37.497 32.981)" fill="#3162d9"/>
        <path id="Path_909090" data-name="Path 909090" d="M94.73,84.028a1.262,1.262,0,1,1,.437-1.73,1.262,1.262,0,0,1-.437,1.73" transform="translate(37.636 33.12)" fill="#7b9eef"/>
        <path id="Path_909091" data-name="Path 909091" d="M94.107,83.4l.055-.29.29.056a.251.251,0,1,0,.094-.493l-.287-.055.056-.29a.251.251,0,0,0-.493-.1l-.056.29-.288-.056a.25.25,0,0,0-.294.2.256.256,0,0,0,.031.177.252.252,0,0,0,.167.117l.288.058-.055.288a.25.25,0,0,0,.03.176.248.248,0,0,0,.169.118.252.252,0,0,0,.294-.2" transform="translate(37.782 33.26)" fill="#3162d9"/>
        <path id="Path_909092" data-name="Path 909092" d="M101.168,80.556s-3.75,3.138-3.325,5.358c0,0,12.914,12.087,14.3,13.657s1.3,3.427,2.478,4.148,3.055-.027,5.051,1.931,4.238,1.07,3.538-1.361-12.119-11.928-14.721-13.857c-.675-.5-.675-2.186-.044-3.389s-4.444-4.881-7.278-6.488" transform="translate(39.659 32.663)" fill="#ef4545"/>
        <path id="Path_909093" data-name="Path 909093" d="M123.164,104.778a3.025,3.025,0,0,1-2.728-1.06c-2.087-2.051-4.055-1.269-5.287-2.022S114.01,99,112.557,97.357c-1.3-1.476-12.341-11.833-14.566-13.918a2.483,2.483,0,0,0-.146,1.307s12.912,12.086,14.3,13.656,1.3,3.427,2.478,4.148,3.055-.027,5.051,1.931c1.429,1.4,2.981,1.339,3.491.3" transform="translate(39.659 33.832)" fill="#ff6d6d"/>
        <path id="Path_909094" data-name="Path 909094" d="M91.1,86.823s4.472-1.979,6.277-.617c0,0,5.141,16.922,5.938,18.861s2.5,2.675,2.627,4.051-1.373,2.734-.5,5.389-.912,4.273-2.783,2.571-5.352-16.138-5.934-19.325c-.15-.824-1.663-1.569-3.02-1.532s-2.417-6.145-2.609-9.4" transform="translate(36.938 34.76)" fill="#ef4545"/>
        <path id="Path_909095" data-name="Path 909095" d="M102.715,117.76a3.026,3.026,0,0,0,.253-2.916c-.916-2.777.652-4.2.521-5.637s-1.916-2.211-2.749-4.239c-.749-1.823-5.169-16.3-6.058-19.217a2.532,2.532,0,0,1,1.238.447s5.143,16.922,5.938,18.861,2.5,2.673,2.627,4.051-1.373,2.734-.5,5.387c.63,1.9-.114,3.266-1.275,3.264" transform="translate(38.392 34.77)" fill="#ff6d6d"/>
        <path id="Path_909096" data-name="Path 909096" d="M90.533,75.394c.714-.277,1.467-.422,2.2-.648.318-.1.181-.6-.136-.5-.729.228-1.481.372-2.2.649-.308.118-.173.617.136.5" transform="translate(36.583 30.101)" fill="#3162d9"/>
        <path id="Path_909097" data-name="Path 909097" d="M92.486,74.971l-1.64.583c-.312.11-.176.607.138.5.547-.193,1.093-.388,1.64-.582.311-.11.176-.607-.138-.5" transform="translate(36.764 30.392)" fill="#3162d9"/>
        <path id="Path_909098" data-name="Path 909098" d="M92.49,75.69a2.205,2.205,0,0,0-.8.115.258.258,0,0,0,.139.5,1.8,1.8,0,0,1,.665-.1c.332.024.323-.492-.006-.514" transform="translate(37.106 30.689)" fill="#3162d9"/>
        <path id="Path_909099" data-name="Path 909099" d="M83.44,78.646a1.41,1.41,0,0,1,.911-1.257c.3-.149.032-.59-.263-.443a1.906,1.906,0,0,0-1.164,1.7.258.258,0,0,0,.516,0" transform="translate(33.624 31.188)" fill="#7b9eef"/>
        <path id="Path_909100" data-name="Path 909100" d="M83.91,79.011a1.171,1.171,0,0,1,.33-.921.257.257,0,0,0-.371-.356,1.673,1.673,0,0,0-.474,1.28c.017.332.533.327.514,0" transform="translate(33.814 31.487)" fill="#7b9eef"/>
        <path id="Path_909101" data-name="Path 909101" d="M84.557,79.587a.579.579,0,0,1,.044-.562c.148-.3-.3-.548-.451-.249a1.12,1.12,0,0,0-.037,1.075c.156.292.6.028.444-.264" transform="translate(34.057 31.887)" fill="#7b9eef"/>
        <path id="Path_909102" data-name="Path 909102" d="M103.3,84.064c.2-.264-.174-.624-.371-.357a4.866,4.866,0,0,0-.76,1.723.258.258,0,0,0,.5.126,4.256,4.256,0,0,1,.631-1.493" transform="translate(41.422 33.903)" fill="#ff6d6d"/>
        <path id="Path_909103" data-name="Path 909103" d="M103.392,85.778A6.442,6.442,0,0,1,103.9,84.4c.134-.3-.316-.552-.451-.249a7.131,7.131,0,0,0-.554,1.5c-.062.326.437.453.5.126" transform="translate(41.719 34.064)" fill="#ff6d6d"/>
        <path id="Path_909104" data-name="Path 909104" d="M103.489,85.74c-.049.326.448.454.5.125a5.305,5.305,0,0,1,.3-1.043c.117-.311-.384-.433-.5-.125a5.407,5.407,0,0,0-.3,1.043" transform="translate(41.961 34.27)" fill="#ff6d6d"/>
        <path id="Path_909105" data-name="Path 909105" d="M95.057,91.036c.228-.242-.145-.6-.372-.357a10.941,10.941,0,0,0-1.174,1.592c-.178.28.271.527.451.25a9.944,9.944,0,0,1,1.095-1.486" transform="translate(37.9 36.736)" fill="#ff6d6d"/>
        <path id="Path_909106" data-name="Path 909106" d="M95.267,91.714c.247-.222-.125-.576-.372-.357a3.266,3.266,0,0,0-.665.892.257.257,0,0,0,.451.247,2.808,2.808,0,0,1,.586-.783" transform="translate(38.194 37.015)" fill="#ff6d6d"/>
        <path id="Path_909107" data-name="Path 909107" d="M95.906,92.571c.176-.283-.275-.53-.451-.25a4.557,4.557,0,0,1-.3.482c-.205.257.164.617.372.357a5.765,5.765,0,0,0,.381-.589" transform="translate(38.558 37.384)" fill="#ff6d6d"/>
        <path id="Path_909108" data-name="Path 909108" d="M86.618,100.442A15.245,15.245,0,1,1,71.373,85.195a15.246,15.246,0,0,1,15.245,15.247" transform="translate(22.759 34.544)" fill="#6d472e"/>
        <path id="Path_909109" data-name="Path 909109" d="M78.421,98.606a8.884,8.884,0,1,1-8.884-8.884,8.885,8.885,0,0,1,8.884,8.884" transform="translate(24.593 36.38)" fill="#7b9eef"/>
        <path id="Path_909110" data-name="Path 909110" d="M76.585,98.195a7.459,7.459,0,1,1-7.459-7.459,7.458,7.458,0,0,1,7.459,7.459" transform="translate(25.004 36.791)" fill="#d2e0ff"/>
        <path id="Path_909111" data-name="Path 909111" d="M71.611,97.081a3.6,3.6,0,1,1-3.6-3.6,3.6,3.6,0,0,1,3.6,3.6" transform="translate(26.119 37.905)" fill="#6d472e"/>
        <path id="Path_909112" data-name="Path 909112" d="M22.107,75.672s4.659,13.351,10.3,15.769,26.611,6.451,29.657,5.913,30.1-17.65,30.1-17.65Z" transform="translate(8.964 30.683)" fill="#71d968"/>
        <path id="Path_909113" data-name="Path 909113" d="M95.413,81.8c-.034,0-.067,0-.1,0L20.945,77.588c-.984-.056-.783-3.625.2-3.567l74.365,4.211c.984.058.84,3.569-.1,3.569" transform="translate(8.231 30.013)" fill="#3da060"/>
        <path id="Path_909114" data-name="Path 909114" d="M62.92,81.768c-2.627-.3-5.254-.6-7.876-.946-.284-.038-.281.409,0,.446,2.623.342,5.249.645,7.876.947.285.032.282-.415,0-.447" transform="translate(22.233 32.77)" fill="#a1e658"/>
        <path id="Path_909115" data-name="Path 909115" d="M60.881,82.542c-1.8-.205-3.611-.308-5.405-.552-.283-.038-.4.392-.119.431,1.836.249,3.685.358,5.525.568.285.032.283-.415,0-.447" transform="translate(22.38 33.244)" fill="#a1e658"/>
        <path id="Path_909116" data-name="Path 909116" d="M57.911,83.173c-.815-.083-1.632-.134-2.437-.294-.281-.055-.4.375-.118.431.843.167,1.7.222,2.555.308.287.03.284-.416,0-.446" transform="translate(22.38 33.604)" fill="#a1e658"/>
        <path id="Path_909117" data-name="Path 909117" d="M58.1,83.908c-.769-.163-1.549-.26-2.323-.386-.283-.045-.4.385-.119.429.776.128,1.554.225,2.325.389.28.06.4-.37.118-.431" transform="translate(22.504 33.865)" fill="#a1e658"/>
        <path id="Path_909118" data-name="Path 909118" d="M58.873,80.177c-.287-.022-.285.424,0,.446a15.28,15.28,0,0,1,1.834.294c.281.056.4-.374.118-.43a16.069,16.069,0,0,0-1.952-.309" transform="translate(23.785 32.51)" fill="#a1e658"/>
        <path id="Path_909119" data-name="Path 909119" d="M35.271,85.972c-1.247-.11-2.5-.02-3.744-.129-.287-.025-.284.422,0,.447,1.247.11,2.5.018,3.744.128.287.027.284-.42,0-.446" transform="translate(12.697 34.807)" fill="#a1e658"/>
        <path id="Path_909120" data-name="Path 909120" d="M31.833,85.738h2.84a.224.224,0,0,0,0-.447h-2.84a.224.224,0,0,0,0,.447" transform="translate(12.82 34.583)" fill="#a1e658"/>
        <path id="Path_909121" data-name="Path 909121" d="M32.353,85.034a6.758,6.758,0,0,0,.86,0,.224.224,0,0,0,0-.447,6.274,6.274,0,0,1-.86,0c-.285-.034-.283.413,0,.447" transform="translate(13.032 34.297)" fill="#a1e658"/>
        <path id="Path_909122" data-name="Path 909122" d="M22.613,74.44a6.63,6.63,0,0,0-.677,2.222c-.037.284.41.281.447,0a6.031,6.031,0,0,1,.614-2c.132-.256-.253-.481-.384-.225" transform="translate(8.893 30.138)" fill="#2c715e"/>
        <path id="Path_909123" data-name="Path 909123" d="M23.135,74.733c-.176.43-.378.847-.516,1.292-.087.275.344.392.43.118.139-.443.342-.862.516-1.292.108-.267-.323-.381-.43-.118" transform="translate(9.167 30.242)" fill="#2c715e"/>
        <path id="Path_909124" data-name="Path 909124" d="M23.786,74.775a2.593,2.593,0,0,0-.281.742c-.06.281.37.4.43.118A2.234,2.234,0,0,1,24.171,75a.223.223,0,0,0-.385-.225" transform="translate(9.528 30.275)" fill="#2c715e"/>
        <path id="Path_909125" data-name="Path 909125" d="M21.534,74.775a4.29,4.29,0,0,0-.325.784c-.091.274.34.391.431.119A3.665,3.665,0,0,1,21.919,75a.223.223,0,0,0-.385-.225" transform="translate(8.595 30.275)" fill="#2c715e"/>
        <path id="Path_909126" data-name="Path 909126" d="M58.663,78.2a2.278,2.278,0,0,1,.416-.762c.178-.222-.135-.54-.316-.316a2.846,2.846,0,0,0-.53.96c-.086.275.346.392.43.118" transform="translate(23.608 31.24)" fill="#2c715e"/>
        <path id="Path_909127" data-name="Path 909127" d="M59.308,78.278c.129-.336.29-.658.451-.98.128-.256-.257-.482-.385-.225-.178.356-.353.714-.5,1.086-.1.268.327.384.43.118" transform="translate(23.867 31.206)" fill="#2c715e"/>
        <path id="Path_909128" data-name="Path 909128" d="M59.923,79.17A11.616,11.616,0,0,1,61,77.018c.166-.236-.221-.458-.385-.225a11.573,11.573,0,0,0-1.077,2.152c-.114.26.271.488.385.225" transform="translate(24.133 31.098)" fill="#2c715e"/>
        <path id="Path_909129" data-name="Path 909129" d="M70.6,93.487c-.218.415-.558.748-.774,1.162-.135.254.252.479.385.225.218-.415.558-.746.774-1.162.134-.254-.252-.481-.385-.225" transform="translate(28.303 37.861)" fill="#7b9eef"/>
        <path id="Path_909130" data-name="Path 909130" d="M70.835,94.035a8.088,8.088,0,0,0-.516.818c-.133.254.253.481.385.225a8.409,8.409,0,0,1,.516-.818c.16-.239-.225-.462-.385-.225" transform="translate(28.501 38.088)" fill="#7b9eef"/>
        <path id="Path_909131" data-name="Path 909131" d="M71.258,94.331a1.468,1.468,0,0,0-.316.486c-.1.27.33.385.431.118a.874.874,0,0,1,.2-.288c.2-.209-.117-.526-.316-.316" transform="translate(28.759 38.221)" fill="#7b9eef"/>
        <path id="Path_909132" data-name="Path 909132" d="M70.146,93.371c.164-.236-.223-.458-.387-.225a.872.872,0,0,1-.221.222c-.233.163-.011.55.225.384a1.492,1.492,0,0,0,.382-.381" transform="translate(28.156 37.729)" fill="#7b9eef"/>
        <path id="Path_909133" data-name="Path 909133" d="M64.5,98.005a5.032,5.032,0,0,0-.982,1.38c-.121.259.264.485.386.225a4.637,4.637,0,0,1,.912-1.289c.2-.207-.115-.523-.316-.316" transform="translate(25.746 39.712)" fill="#7b9eef"/>
        <path id="Path_909134" data-name="Path 909134" d="M64.362,98.8a1.977,1.977,0,0,0-.4.743c-.091.274.34.391.431.119a1.429,1.429,0,0,1,.287-.547c.2-.211-.118-.527-.315-.316" transform="translate(25.929 40.034)" fill="#7b9eef"/>
        <path id="Path_909135" data-name="Path 909135" d="M64.7,99.323a1.68,1.68,0,0,0-.138.447c-.028.287.419.284.447,0a1.426,1.426,0,0,1,.121-.329c.1-.268-.329-.384-.43-.118" transform="translate(26.178 40.212)" fill="#7b9eef"/>
        <path id="Path_909136" data-name="Path 909136" d="M63.62,97.663a.224.224,0,0,0,0,.447.224.224,0,0,0,0-.447" transform="translate(25.709 39.6)" fill="#7b9eef"/>
        <path id="Path_909137" data-name="Path 909137" d="M74.177,91.232c.443-.261.908-.483,1.332-.776.238-.16.014-.547-.223-.385-.426.291-.891.513-1.334.776a.223.223,0,0,0,.225.385" transform="translate(29.942 36.506)" fill="#b06c0b"/>
        <path id="Path_909138" data-name="Path 909138" d="M75.85,90.806c-.676.46-1.365.9-2.024,1.377-.232.167-.01.555.223.385.661-.479,1.349-.916,2.024-1.377.236-.16.014-.548-.223-.385" transform="translate(29.895 36.804)" fill="#b06c0b"/>
        <path id="Path_909139" data-name="Path 909139" d="M76.582,91.355c-.694.55-1.493.954-2.153,1.55-.214.193.1.507.316.315.659-.594,1.457-1,2.153-1.549.225-.178-.093-.492-.316-.316" transform="translate(30.15 37.021)" fill="#b06c0b"/>
        <path id="Path_909140" data-name="Path 909140" d="M76.69,92.339a7.537,7.537,0,0,1-1.206.732c-.257.129-.032.514.225.385a7.475,7.475,0,0,0,1.206-.732c.225-.173,0-.561-.225-.385" transform="translate(30.561 37.423)" fill="#b06c0b"/>
        <path id="Path_909141" data-name="Path 909141" d="M74.6,89.417c.223-.173,0-.561-.226-.385a4.385,4.385,0,0,1-.732.43c-.257.129-.031.514.226.387a4.51,4.51,0,0,0,.732-.431" transform="translate(29.816 36.082)" fill="#b06c0b"/>
        <path id="Path_909142" data-name="Path 909142" d="M57.7,97.469a9.4,9.4,0,0,0-.668,1.819c-.065.28.365.4.43.118a8.846,8.846,0,0,1,.623-1.712c.119-.259-.266-.486-.385-.225" transform="translate(23.124 39.474)" fill="#b06c0b"/>
        <path id="Path_909143" data-name="Path 909143" d="M58.338,98.538a6.627,6.627,0,0,0-.84,1.732.223.223,0,0,0,.43.118,6.253,6.253,0,0,1,.8-1.625c.159-.242-.228-.464-.385-.225" transform="translate(23.309 39.913)" fill="#b06c0b"/>
        <path id="Path_909144" data-name="Path 909144" d="M58.554,99.882a1.717,1.717,0,0,0-.323.742c-.052.281.377.4.43.118a1.436,1.436,0,0,1,.278-.635c.176-.229-.212-.451-.385-.225" transform="translate(23.609 40.461)" fill="#b06c0b"/>
        <path id="Path_909145" data-name="Path 909145" d="M46.4,123.445a1.486,1.486,0,0,1-.263-.022c-1.972-.34-3.472-4.756-7.266-18.763A88.744,88.744,0,0,0,36.107,95.4C34.22,93.667,7.426,69.76,7.152,69.515A1.116,1.116,0,1,1,8.637,67.85c1.131,1.009,27.709,24.724,29.047,25.973.668.62,1.275,2.624,3.342,10.253,1.466,5.405,4.136,15.258,5.521,17.034,1.695-1.032,6.749-7.644,9.833-11.678,6.621-8.662,7.9-10.065,9.193-9.98,1.99.125,36.374,9.97,43.245,11.942a1.116,1.116,0,1,1-.617,2.145c-15.827-4.541-39.717-11.293-42.58-11.83-1.122.777-4.628,5.363-7.466,9.078-7.332,9.59-9.958,12.658-11.751,12.658" transform="translate(2.748 27.397)" fill="#7b9eef"/>
        <path id="Path_909146" data-name="Path 909146" d="M36.845,94.638c1.344,1.254,6.81,27.237,9.407,27.685s17.2-21.88,19.172-21.757,43.008,11.9,43.008,11.9l1.075.3a1.118,1.118,0,0,0-.767-1.37c-6.871-1.972-41.255-11.816-43.245-11.942-1.287-.084-2.571,1.318-9.192,9.98-3.084,4.034-8.139,10.646-9.833,11.678-1.384-1.775-4.055-11.629-5.521-17.034-2.067-7.629-2.677-9.632-3.342-10.253C36.268,92.573,9.689,68.859,8.558,67.851a1.115,1.115,0,0,0-1.576.09l-.008.011.842.731S35.5,93.383,36.845,94.638" transform="translate(2.828 27.397)" fill="#a8bff5"/>
        <path id="Path_909147" data-name="Path 909147" d="M11.171,73.714,1.188,68.175a2.3,2.3,0,1,1,2.236-4.031l9.983,5.539c1.113.617-1.124,4.646-2.236,4.031" transform="translate(0 25.891)" fill="#6d472e"/>
        <path id="Path_909148" data-name="Path 909148" d="M15.005,38.593c-.3-.214-7.375-5.375-8.323-17.539C6.192,14.746,8.06,9.061,11.944,5.046A16.3,16.3,0,0,1,24.536.017c4.4.2,8.028,2.774,10.488,7.452a24.6,24.6,0,0,1,2.347,6.839c.112.7-2.431,1.11-2.544.408-.02-.122-2-11.747-10.408-12.124A13.746,13.746,0,0,0,13.8,6.839c-3.363,3.476-4.977,8.453-4.544,14.014.85,10.9,7.188,15.6,7.251,15.642.575.416-1.271,2.259-1.5,2.1" transform="translate(2.678 0)" fill="#7b9eef"/>
        <path id="Path_909149" data-name="Path 909149" d="M24.105.933C14.52.5,6.681,8.878,7.595,20.581S15.378,37.17,15.378,37.17l.358.15c.389-.476.668-1,.392-1.2-.063-.046-6.4-4.742-7.249-15.642C8.445,14.92,10.059,9.943,13.423,6.466A13.746,13.746,0,0,1,24.047,2.22c8.409.377,10.386,12,10.406,12.124.058.356.742.426,1.387.318l-.115-.521S33.689,1.363,24.105.933" transform="translate(3.05 0.372)" fill="#3162d9"/>
        <path id="Path_909150" data-name="Path 909150" d="M9.8,49.124c0,1.968,8.24,4.777,18.406,4.777s18.4-2.81,18.4-4.777L44.28,12.48c0-1.717-7.195-3.11-16.07-3.11s-16.072,1.393-16.072,3.11Z" transform="translate(3.975 3.799)" fill="#7b9eef"/>
        <path id="Path_909151" data-name="Path 909151" d="M33.434,10.261h0a13.633,13.633,0,0,0-5.9-2.551,8.075,8.075,0,0,0-2.461,2.371c-7.708.229-13.611,1.518-13.611,3.075,0,1.377,4.631,2.545,11.043,2.954h0c1.583.1,3.271.156,5.027.156,8.877,0,16.072-1.393,16.072-3.11,0-1.316-4.216-2.438-10.173-2.894" transform="translate(4.648 3.126)" fill="#d2e0ff"/>
        <path id="Path_909152" data-name="Path 909152" d="M13.924,12.269c0,1.015,3.2,1.886,7.76,2.254a18.768,18.768,0,0,1,1.935-4.63c-5.559.256-9.695,1.221-9.695,2.375" transform="translate(5.646 4.012)" fill="#7b9eef"/>
        <path id="Path_909153" data-name="Path 909153" d="M19.321,16.11s1.285-6.216,5.029-8.4c0,0,5.8.932,8.662,5.386-.1.849-6.364,2.547-13.691,3.015" transform="translate(7.834 3.126)" fill="#d2e0ff"/>
        <path id="Path_909154" data-name="Path 909154" d="M28.456,38.753A49.952,49.952,0,0,1,15.207,37.07c-2.745-.781-6.014-2.1-6.014-3.952A.859.859,0,0,1,10.91,33.1c.335,1.175,7.457,3.935,17.546,3.935,10.11,0,17.244-2.772,17.549-3.942a.849.849,0,0,1,.857-.848.869.869,0,0,1,.859.871c0,1.851-3.272,3.171-6.015,3.952a49.952,49.952,0,0,1-13.249,1.684" transform="translate(3.728 13.075)" fill="#3162d9"/>
        <path id="Path_909155" data-name="Path 909155" d="M28.069,22.662c-8.46,0-17.921-2.261-17.921-5.287a.859.859,0,0,1,1.717-.028c.4,1.109,6.884,3.6,16.2,3.6,9.353,0,15.85-2.507,16.209-3.609a.84.84,0,0,1,.857-.839.873.873,0,0,1,.856.878c0,3.026-9.463,5.287-17.923,5.287" transform="translate(4.115 6.689)" fill="#3162d9"/>
        <path id="Path_909156" data-name="Path 909156" d="M58.457,12.006S35.05,28.326,34.486,28.672c-1.126.689-2.389,2.315-2.389,5.169s1.084,5.362,2.389,5.169c.724-.108,23.97-24.644,23.97-24.644Z" transform="translate(13.015 4.868)" fill="#a8bff5"/>
        <path id="Path_909157" data-name="Path 909157" d="M52.554,13.7l-.215-1.836a.383.383,0,0,0-.569-.327l-3.058,1.986a.387.387,0,0,0-.119.119.471.471,0,0,0-.031.059v0a.354.354,0,0,0-.022.245q.445,1.657.887,3.313a.383.383,0,0,0,.632.167q1.269-1.092,2.535-2.186c.3-.259,0-1.235-.038-1.545" transform="translate(19.676 4.653)" fill="#3162d9"/>
        <path id="Path_909158" data-name="Path 909158" d="M56.682,21.048a9.492,9.492,0,0,1-6.669-7.578c-.046-.86,1.092-6.069,2.921-7.176Z" transform="translate(20.279 2.552)" fill="#7b9eef"/>
        <path id="Path_909159" data-name="Path 909159" d="M56.869,13.019c1.057,4.066.794,7.653-.587,8.011s-3.356-2.647-4.412-6.711-.794-7.654.586-8.014,3.356,2.648,4.413,6.714" transform="translate(20.769 2.545)" fill="#d2e0ff"/>
        <path id="Path_909160" data-name="Path 909160" d="M55.978,12.813c.869,3.341.756,6.261-.25,6.523S53.2,17.1,52.334,13.76s-.756-6.261.25-6.523,2.526,2.235,3.394,5.576" transform="translate(20.983 2.927)" fill="#a8bff5"/>
        <path id="Path_909161" data-name="Path 909161" d="M52.551,9.136a.215.215,0,0,0,0,.43.215.215,0,0,0,0-.43" transform="translate(21.224 3.704)" fill="#3162d9"/>
        <path id="Path_909162" data-name="Path 909162" d="M53.359,9.131a.215.215,0,0,0,0-.43.215.215,0,0,0,0,.43" transform="translate(21.552 3.528)" fill="#3162d9"/>
        <path id="Path_909163" data-name="Path 909163" d="M52.676,8.635a.215.215,0,0,0,0-.43.215.215,0,0,0,0,.43" transform="translate(21.274 3.327)" fill="#3162d9"/>
        <path id="Path_909164" data-name="Path 909164" d="M53.769,9.969a.215.215,0,0,0,0-.43h-.022a.215.215,0,0,0,0,.43Z" transform="translate(21.709 3.868)" fill="#3162d9"/>
        <path id="Path_909165" data-name="Path 909165" d="M52.262,10.146h-.021a.215.215,0,0,0,0,.43h.021a.215.215,0,0,0,0-.43" transform="translate(21.098 4.114)" fill="#3162d9"/>
        <path id="Path_909166" data-name="Path 909166" d="M53.235,10.208a.215.215,0,0,0,0,.43.215.215,0,0,0,0-.43" transform="translate(21.501 4.139)" fill="#3162d9"/>
        <path id="Path_909167" data-name="Path 909167" d="M52.691,11.234a.215.215,0,0,0,0,.43.215.215,0,0,0,0-.43" transform="translate(21.281 4.555)" fill="#3162d9"/>
        <path id="Path_909168" data-name="Path 909168" d="M54.151,10.83a.215.215,0,0,0,0,.43.215.215,0,0,0,0-.43" transform="translate(21.873 4.391)" fill="#3162d9"/>
        <path id="Path_909169" data-name="Path 909169" d="M53.474,11.436h-.022a.215.215,0,0,0,0,.43h.022a.215.215,0,0,0,0-.43" transform="translate(21.589 4.637)" fill="#3162d9"/>
        <path id="Path_909170" data-name="Path 909170" d="M53,12.51a.214.214,0,0,0-.35.221l0,.006a.231.231,0,0,0,.039.07l0,.007.015.02v0a.215.215,0,0,0,.191.062l.017,0c.173-.028.188-.249.1-.358L53,12.51" transform="translate(21.342 5.044)" fill="#3162d9"/>
        <path id="Path_909171" data-name="Path 909171" d="M54.617,12.378a.215.215,0,0,0,0-.43.215.215,0,0,0,0,.43" transform="translate(22.062 4.845)" fill="#3162d9"/>
        <path id="Path_909172" data-name="Path 909172" d="M54.011,12.845a.215.215,0,0,0-.43,0v.022a.215.215,0,0,0,.43,0Z" transform="translate(21.726 5.124)" fill="#3162d9"/>
        <path id="Path_909173" data-name="Path 909173" d="M53.421,13.673a.214.214,0,0,0,0,.429.214.214,0,0,0,0-.429" transform="translate(21.577 5.544)" fill="#3162d9"/>
        <path id="Path_909174" data-name="Path 909174" d="M54.649,13.207a.215.215,0,0,0,0,.43.215.215,0,0,0,0-.43" transform="translate(22.075 5.355)" fill="#3162d9"/>
        <path id="Path_909175" data-name="Path 909175" d="M54.058,14.372a.215.215,0,0,0,0,.43.215.215,0,0,0,0-.43" transform="translate(21.835 5.827)" fill="#3162d9"/>
        <path id="Path_909176" data-name="Path 909176" d="M54.545,14.616v.021a.215.215,0,0,0,.43,0v-.021a.215.215,0,0,0-.43,0" transform="translate(22.117 5.842)" fill="#3162d9"/>
        <path id="Path_909177" data-name="Path 909177" d="M34.182,25.7c.06-.27-.354-.385-.415-.114-.472,2.132-.892,4.832.576,6.673.171.216.474-.09.3-.3-1.351-1.694-.9-4.309-.465-6.256" transform="translate(13.513 10.312)" fill="#7b9eef"/>
        <path id="Path_909178" data-name="Path 909178" d="M34.892,25.7c.065-.268-.349-.384-.413-.114a9.294,9.294,0,0,0,.259,5.279c.093.259.507.148.415-.114a8.865,8.865,0,0,1-.26-5.051" transform="translate(13.873 10.312)" fill="#7b9eef"/>
        <path id="Path_909179" data-name="Path 909179" d="M35.478,26.554c.06-.27-.354-.384-.415-.114a4.34,4.34,0,0,0,.131,2.551c.1.256.513.143.413-.115a3.932,3.932,0,0,1-.129-2.322" transform="translate(14.165 10.658)" fill="#7b9eef"/>
        <path id="Path_909180" data-name="Path 909180" d="M35.769,26.172a9.58,9.58,0,0,0,0,1.332c.035.27.465.274.43,0a9.165,9.165,0,0,1,0-1.332.215.215,0,0,0-.43,0" transform="translate(14.493 10.528)" fill="#7b9eef"/>
        <path id="Path_909181" data-name="Path 909181" d="M46.315,16.106c.042-.268-.372-.385-.415-.112a1.947,1.947,0,0,0,.184,1.334.215.215,0,0,0,.371-.218,1.475,1.475,0,0,1-.141-1" transform="translate(18.596 6.422)" fill="#7b9eef"/>
        <path id="Path_909182" data-name="Path 909182" d="M46.775,15.853c.041-.27-.374-.387-.415-.114a2.237,2.237,0,0,0,.152,1.3c.117.25.486.032.371-.216a1.707,1.707,0,0,1-.108-.973" transform="translate(18.785 6.319)" fill="#7b9eef"/>
        <path id="Path_909183" data-name="Path 909183" d="M28.751,13.887c1.48-.358,4.538-.866,4.828-2.749.042-.27-.372-.387-.415-.114-.256,1.674-3.188,2.125-4.527,2.45-.27.063-.155.479.114.413" transform="translate(11.549 4.407)" fill="#7b9eef"/>
        <path id="Path_909184" data-name="Path 909184" d="M33.064,11.532a5.136,5.136,0,0,1-2.049,1.276c-.257.1-.146.51.114.415a5.622,5.622,0,0,0,2.239-1.387c.188-.2-.114-.507-.3-.3" transform="translate(12.517 4.649)" fill="#7b9eef"/>
        <path id="Path_909185" data-name="Path 909185" d="M24.159,8.958c.23-.15.015-.523-.216-.371a7.1,7.1,0,0,0-2.828,4.351.215.215,0,0,0,.415.114,6.666,6.666,0,0,1,2.63-4.094" transform="translate(8.559 3.467)" fill="#7b9eef"/>
        <path id="Path_909186" data-name="Path 909186" d="M23.617,9.311a5.042,5.042,0,0,0-1.484,2.5.214.214,0,0,0,.413.114A4.639,4.639,0,0,1,23.92,9.614c.207-.186-.1-.488-.3-.3" transform="translate(8.971 3.752)" fill="#7b9eef"/>
        <path id="Path_909187" data-name="Path 909187" d="M34.313,14.766a6.764,6.764,0,0,1-2.926,1.213.214.214,0,0,0,.114.413,7.137,7.137,0,0,0,3.116-1.323c.207-.186-.1-.488-.3-.3" transform="translate(12.665 5.964)" fill="#3162d9"/>
        <path id="Path_909188" data-name="Path 909188" d="M33.639,15.7a9.589,9.589,0,0,1-1.768.564c-.27.058-.155.472.115.413a10.044,10.044,0,0,0,1.869-.606c.254-.111.035-.481-.216-.371" transform="translate(12.861 6.359)" fill="#3162d9"/>
        <path id="Path_909189" data-name="Path 909189" d="M33.1,16.487c-.138.063-.284.1-.422.163-.253.114-.034.483.216.371.138-.063.284-.1.422-.163.253-.114.034-.485-.216-.371" transform="translate(13.205 6.676)" fill="#3162d9"/>
        <path id="Path_909190" data-name="Path 909190" d="M17.629,33.529a14.2,14.2,0,0,1-6.648-2.245c-.235-.149-.45.222-.218.371a14.644,14.644,0,0,0,6.866,2.3c.277.022.274-.408,0-.429" transform="translate(4.324 12.671)" fill="#3162d9"/>
        <path id="Path_909191" data-name="Path 909191" d="M14.9,32.26c.271.038.388-.375.114-.413a6.313,6.313,0,0,1-3.382-1.181c-.208-.18-.513.122-.3.3A6.611,6.611,0,0,0,14.9,32.26" transform="translate(4.564 12.412)" fill="#3162d9"/>
        <path id="Path_909192" data-name="Path 909192" d="M12.593,30.658a7.291,7.291,0,0,0,1.675.541c.27.063.384-.35.114-.415a6.782,6.782,0,0,1-1.573-.5c-.246-.125-.464.245-.216.371" transform="translate(5.062 12.27)" fill="#3162d9"/>
        <path id="Path_909193" data-name="Path 909193" d="M23.516,38.955a34.651,34.651,0,0,0,4.32-.131c.274-.018.277-.448,0-.429a34.921,34.921,0,0,1-4.32.131c-.277-.017-.275.413,0,.429" transform="translate(9.451 15.568)" fill="#3162d9"/>
        <path id="Path_909194" data-name="Path 909194" d="M32.686,38.7a46.139,46.139,0,0,1-11.02.772c-.277-.013-.275.416,0,.43A46.724,46.724,0,0,0,32.8,39.117c.273-.053.157-.467-.114-.415" transform="translate(8.701 15.691)" fill="#3162d9"/>
        <path id="Path_909195" data-name="Path 909195" d="M28.177,39.874a37.01,37.01,0,0,1-4.06.26.215.215,0,0,0,0,.43,37.36,37.36,0,0,0,4.06-.26c.271-.032.274-.461,0-.43" transform="translate(9.695 16.167)" fill="#3162d9"/>
        <path id="Path_909196" data-name="Path 909196" d="M19.747,15.346a18.374,18.374,0,0,1,2-4.618c.55-.887,1.845-2.93,3.025-2.665a13.049,13.049,0,0,1,8.059,5.189c.15.23.523.015.37-.216a13.544,13.544,0,0,0-8.5-5.427c-1.165-.252-2.42,1.609-3.006,2.422a16.739,16.739,0,0,0-2.36,5.2.214.214,0,0,0,.413.114" transform="translate(7.835 3.076)" fill="#7b9eef"/>
      </g>
    </g>
  </g>
</svg>
