<svg xmlns="http://www.w3.org/2000/svg" xmlns:xlink="http://www.w3.org/1999/xlink" width="136" height="136" viewBox="0 0 136 136">
  <defs>
    <filter id="Ellipse_12619" x="0" y="0" width="136" height="136" filterUnits="userSpaceOnUse">
      <feOffset dy="3" input="SourceAlpha"/>
      <feGaussianBlur stdDeviation="3" result="blur"/>
      <feFlood flood-opacity="0.161"/>
      <feComposite operator="in" in2="blur"/>
      <feComposite in="SourceGraphic"/>
    </filter>
  </defs>
  <g id="Group_1112241" data-name="Group 1112241" transform="translate(-1100.175 -5034.532)">
    <g transform="matrix(1, 0, 0, 1, 1100.18, 5034.53)" filter="url(#Ellipse_12619)">
      <circle id="Ellipse_12619-2" data-name="Ellipse 12619" cx="59" cy="59" r="59" transform="translate(9 6)" fill="#fff"/>
    </g>
    <g id="Layer_35" transform="translate(1129.175 5062.757)">
      <g id="Group_1111743" data-name="Group 1111743" transform="translate(0 0)">
        <g id="Group_1111725" data-name="Group 1111725" transform="translate(0 13.946)">
          <g id="Group_1111721" data-name="Group 1111721" transform="translate(0 25.608)">
            <path id="Path_904142" data-name="Path 904142" d="M6,336.424V314.573a2.168,2.168,0,0,1,.459-1.338l4.7-5.135v16.364a2.05,2.05,0,0,0,2.04,2.054H26.554a17.835,17.835,0,0,1-.473,1.905,6.4,6.4,0,0,1-4.838,4.392v3.608" transform="translate(-5.189 -306.019)" fill="#efcdb1"/>
            <path id="Path_904143" data-name="Path 904143" d="M16.865,323.1H15.243v-4.311l.7-.108a5.5,5.5,0,0,0,4.162-3.824q.142-.426.243-.851H8.013a2.884,2.884,0,0,1-2.865-2.865v-14.27L1.905,300.43a1.413,1.413,0,0,0-.284.824V323.1H0V301.254a3.029,3.029,0,0,1,.635-1.838l.041-.054L6.77,292.7v18.446a1.24,1.24,0,0,0,1.243,1.243H22.337l-.176.959c-.149.73-.311,1.405-.5,2.013a7.161,7.161,0,0,1-4.8,4.77Z" transform="translate(0 -292.7)"/>
          </g>
          <g id="Group_1111723" data-name="Group 1111723" transform="translate(5.149)">
            <path id="Path_904144" data-name="Path 904144" d="M103.469,111.241v41.2a2.053,2.053,0,0,1-2.054,2.054H46.24a2.05,2.05,0,0,1-2.04-2.054v-41.2a2.065,2.065,0,0,1,2.04-2.04h55.174A2.05,2.05,0,0,1,103.469,111.241Z" transform="translate(-43.376 -108.389)" fill="#d1d3d4"/>
            <path id="Path_904145" data-name="Path 904145" d="M96.139,150.118H40.965a2.884,2.884,0,0,1-2.865-2.865v-41.2a2.89,2.89,0,0,1,2.865-2.851H96.139A2.863,2.863,0,0,1,99,106.051v41.2A2.866,2.866,0,0,1,96.139,150.118Zm-55.174-45.3a1.255,1.255,0,0,0-1.243,1.23v41.2a1.24,1.24,0,0,0,1.243,1.243H96.139a1.24,1.24,0,0,0,1.243-1.243v-41.2a1.255,1.255,0,0,0-1.243-1.23Z" transform="translate(-38.1 -103.2)"/>
            <g id="Group_1111722" data-name="Group 1111722" transform="translate(3.5 3.203)">
              <path id="Path_904146" data-name="Path 904146" d="M70,132.9h52.039v34.553H70Z" transform="translate(-69.189 -132.089)" fill="#73c9df"/>
              <path id="Path_904147" data-name="Path 904147" d="M117.661,163.075H64V126.9h53.661Zm-52.039-1.622h50.418V128.522H65.622Z" transform="translate(-64 -126.9)"/>
            </g>
            <path id="Path_904148" data-name="Path 904148" d="M229.7,411.3h4.716v1.622H229.7Z" transform="translate(-203.809 -369.666)"/>
          </g>
          <g id="Group_1111724" data-name="Group 1111724" transform="translate(2.838 30.848)">
            <path id="Path_904149" data-name="Path 904149" d="M29.816,357.94a7.59,7.59,0,0,0,4.824-5.365,14.747,14.747,0,0,0,.068-5.649l4.067-5.7a2.279,2.279,0,0,0-.581-3.257,2.526,2.526,0,0,0-3.405.419l-5.2,6.067A5.6,5.6,0,0,0,26.6,347.7" transform="translate(-25.843 -336.681)" fill="#efcdb1"/>
            <path id="Path_904150" data-name="Path 904150" d="M25.311,353.484l-.676-1.473.2-.095a6.721,6.721,0,0,0,4.176-4.784,13.884,13.884,0,0,0,.054-5.257L29,341.538l4.284-6a1.44,1.44,0,0,0,.27-1.068,1.582,1.582,0,0,0-.662-1.04,1.726,1.726,0,0,0-2.324.27h-.014l-5.324,6.243-.2.068a4.811,4.811,0,0,0-2.513,2.77L21,342.214a6.478,6.478,0,0,1,3.257-3.635l5.067-5.905a3.329,3.329,0,0,1,4.5-.568,3.157,3.157,0,0,1,1.338,2.108,3.066,3.066,0,0,1-.568,2.284l-3.878,5.432a14.4,14.4,0,0,1-.149,5.689,8.292,8.292,0,0,1-5.067,5.77Z" transform="translate(-21 -331.482)"/>
          </g>
        </g>
        <g id="Group_1111729" data-name="Group 1111729" transform="translate(40.053)">
          <g id="Group_1111726" data-name="Group 1111726">
            <path id="Path_904151" data-name="Path 904151" d="M328.818,26.608h-2.905l-4.743,5.838V26.608h-16.2a2.561,2.561,0,0,1-2.568-2.54V8.568A2.566,2.566,0,0,1,304.967,6h23.851a2.564,2.564,0,0,1,2.554,2.568V24.054a2.561,2.561,0,0,1-2.554,2.554Z" transform="translate(-301.589 -5.189)" fill="#3860af"/>
            <path id="Path_904152" data-name="Path 904152" d="M315.981,28.067l-.284-.041a.818.818,0,0,1-.527-.77V22.229H299.778a3.377,3.377,0,0,1-3.378-3.365V3.378A3.38,3.38,0,0,1,299.778,0h23.851a3.377,3.377,0,0,1,3.365,3.378V18.864a3.391,3.391,0,0,1-3.365,3.365h-2.514L316.6,27.77A.788.788,0,0,1,315.981,28.067Zm-16.2-26.445a1.753,1.753,0,0,0-1.757,1.757V18.864a1.768,1.768,0,0,0,1.757,1.743h16.2a.813.813,0,0,1,.811.811v3.567l3.311-4.067a.8.8,0,0,1,.622-.311h2.905a1.747,1.747,0,0,0,1.743-1.743V3.378a1.768,1.768,0,0,0-1.743-1.757Z" transform="translate(-296.4 0)"/>
          </g>
          <g id="Group_1111728" data-name="Group 1111728" transform="translate(5.581 2.716)">
            <path id="Path_904153" data-name="Path 904153" d="M349.427,104.616l-1.027-1.257,3.027-2.473,2.027,1.473,1.946-2.284,2.851,1.824,2.27-2,.851,1.338,3.311-1.257.581,1.513-4.554,1.716-.54-.838-1.757,1.554-2.689-1.716-2,2.338-2.23-1.622Z" transform="translate(-346.954 -89.116)"/>
            <path id="Path_904154" data-name="Path 904154" d="M356.389,109.157H337.7V103.9h1.622v3.635h17.067Z" transform="translate(-337.7 -92.576)"/>
            <g id="Group_1111727" data-name="Group 1111727" transform="translate(1.865)">
              <path id="Path_904155" data-name="Path 904155" d="M458.6,37h1.622v7.959H458.6Z" transform="translate(-444.127 -34.716)"/>
              <path id="Path_904156" data-name="Path 904156" d="M386.2,20.1h1.622V30.343H386.2Z" transform="translate(-381.511 -20.1)"/>
              <path id="Path_904157" data-name="Path 904157" d="M351.5,75.1h1.622v2.7H351.5Z" transform="translate(-351.5 -67.668)"/>
              <path id="Path_904158" data-name="Path 904158" d="M424.4,54.4h1.622v5.621H424.4Z" transform="translate(-414.549 -49.765)"/>
            </g>
          </g>
        </g>
        <g id="Group_1111736" data-name="Group 1111736" transform="translate(12.108 23.293)">
          <g id="Group_1111732" data-name="Group 1111732" transform="translate(0 9.139)">
            <g id="Group_1111730" data-name="Group 1111730" transform="translate(10.019)">
              <path id="Path_904159" data-name="Path 904159" d="M176.421,251.753a8.034,8.034,0,0,1-6.621,1.041,9.011,9.011,0,0,1,3.446-5.432,8.469,8.469,0,0,1,6.446-1.27A7.589,7.589,0,0,1,176.421,251.753Z" transform="translate(-168.981 -245.118)" fill="#719b29"/>
              <path id="Path_904160" data-name="Path 904160" d="M166.817,248.78a9.313,9.313,0,0,1-2.513-.338.816.816,0,0,1-.554-.892,9.891,9.891,0,0,1,3.77-5.959,9.443,9.443,0,0,1,7.094-1.419.788.788,0,0,1,.649.8,8.341,8.341,0,0,1-3.608,6.311A8.087,8.087,0,0,1,166.817,248.78Zm-1.27-1.716a7.114,7.114,0,0,0,5.162-1.095,7.033,7.033,0,0,0,2.851-4.3,7.878,7.878,0,0,0-5.081,1.23A8.541,8.541,0,0,0,165.547,247.064Z" transform="translate(-163.742 -239.996)"/>
            </g>
            <g id="Group_1111731" data-name="Group 1111731" transform="translate(0 0.029)">
              <path id="Path_904161" data-name="Path 904161" d="M98.884,251.753a8.034,8.034,0,0,0,6.621,1.041,9.089,9.089,0,0,0-3.446-5.432,8.5,8.5,0,0,0-6.459-1.27A7.632,7.632,0,0,0,98.884,251.753Z" transform="translate(-94.789 -245.147)" fill="#8dc63f"/>
              <path id="Path_904162" data-name="Path 904162" d="M98.046,248.967a8.049,8.049,0,0,1-4.824-1.5,8.38,8.38,0,0,1-3.622-6.311.811.811,0,0,1,.649-.8,9.9,9.9,0,0,1,7.094,1.419,10.342,10.342,0,0,1,3.77,5.959.8.8,0,0,1-.554.892A8.745,8.745,0,0,1,98.046,248.967Zm-6.73-7.108a6.98,6.98,0,0,0,2.851,4.3,6.656,6.656,0,0,0,5.162,1.095,8.266,8.266,0,0,0-2.932-4.162,7.726,7.726,0,0,0-5.081-1.23Z" transform="translate(-89.6 -240.212)"/>
            </g>
          </g>
          <g id="Group_1111735" data-name="Group 1111735" transform="translate(1.945)">
            <g id="Group_1111733" data-name="Group 1111733" transform="translate(8.06)">
              <path id="Path_904163" data-name="Path 904163" d="M175.024,183.358a5.988,5.988,0,0,1-5.324.932,8.152,8.152,0,0,1,2.77-4.784,6.4,6.4,0,0,1,5.2-1.135A6.91,6.91,0,0,1,175.024,183.358Z" transform="translate(-168.881 -177.435)" fill="#719b29"/>
              <path id="Path_904164" data-name="Path 904164" d="M166.285,180.292a6.453,6.453,0,0,1-2.095-.311.814.814,0,0,1-.541-.878,8.98,8.98,0,0,1,3.081-5.3,7.35,7.35,0,0,1,5.878-1.284.81.81,0,0,1,.635.8,7.712,7.712,0,0,1-2.946,5.608A6.253,6.253,0,0,1,166.285,180.292Zm-.851-1.676a4.943,4.943,0,0,0,3.851-.959,6.09,6.09,0,0,0,2.243-3.635,5.6,5.6,0,0,0-3.8,1.054A7.688,7.688,0,0,0,165.433,178.616Z" transform="translate(-163.642 -172.369)"/>
            </g>
            <g id="Group_1111734" data-name="Group 1111734" transform="translate(0 0.017)">
              <path id="Path_904165" data-name="Path 904165" d="M112.635,183.358a6.017,6.017,0,0,0,5.338.932,8.24,8.24,0,0,0-2.77-4.784,6.393,6.393,0,0,0-5.2-1.135A6.967,6.967,0,0,0,112.635,183.358Z" transform="translate(-109.189 -177.452)" fill="#8dc63f"/>
              <path id="Path_904166" data-name="Path 904166" d="M110.956,180.4a6.253,6.253,0,0,1-4.013-1.365A7.712,7.712,0,0,1,104,173.425a.8.8,0,0,1,.635-.8,7.573,7.573,0,0,1,5.878,1.284,9.2,9.2,0,0,1,3.068,5.3.8.8,0,0,1-.527.878A6.454,6.454,0,0,1,110.956,180.4Zm-3-2.635a4.989,4.989,0,0,0,3.851.959,7.215,7.215,0,0,0-2.311-3.54,5.278,5.278,0,0,0-3.784-1.054A6.09,6.09,0,0,0,107.956,177.763Z" transform="translate(-103.996 -172.492)"/>
            </g>
          </g>
          <path id="Path_904167" data-name="Path 904167" d="M163.3,218.3h1.622v16.581H163.3Z" transform="translate(-153.341 -212.093)"/>
          <path id="Path_904168" data-name="Path 904168" d="M139.5,333.2h8.067v1.622H139.5Z" transform="translate(-132.757 -311.467)"/>
        </g>
        <g id="Group_1111738" data-name="Group 1111738" transform="translate(37.225 41.35)">
          <g id="Group_1111737" data-name="Group 1111737">
            <path id="Path_904169" data-name="Path 904169" d="M292.636,340.04v-2.662l-10.054-7.149s-1.649-1.378-1.013-2.554c1.311-2.392,4.081-1.2,4.081-1.2l6.986,3.5-.216-15.892A2.053,2.053,0,0,1,294.446,312h1.108a2.073,2.073,0,0,1,2.067,2.054l.041,8.121,11.3.149a3.806,3.806,0,0,1,3.77,3.811V340.04" transform="translate(-280.618 -311.189)" fill="#efcdb1"/>
            <path id="Path_904170" data-name="Path 904170" d="M308.394,334.851h-1.622V320.946a3,3,0,0,0-2.973-3l-12.081-.162-.054-8.905a1.263,1.263,0,0,0-1.257-1.257h-1.081a1.24,1.24,0,0,0-1.243,1.243v.014l.243,17.229-8.162-4.095c-.284-.108-2.135-.77-3.027.865-.23.432.486,1.257.8,1.514L288.3,331.77v3.081h-1.622v-2.243l-9.73-6.932h-.027c-.811-.676-1.959-2.176-1.2-3.567a3.914,3.914,0,0,1,5.094-1.554h.054l5.8,2.905-.2-14.554A2.866,2.866,0,0,1,289.286,306h1.122a2.887,2.887,0,0,1,2.878,2.865l.041,7.324,10.5.135a4.643,4.643,0,0,1,4.567,4.622Z" transform="translate(-275.472 -306)"/>
          </g>
          <path id="Path_904171" data-name="Path 904171" d="M395.6,387.6h1.622v4.257H395.6Z" transform="translate(-379.367 -376.573)"/>
          <path id="Path_904172" data-name="Path 904172" d="M434,387.6h1.622v4.257H434Z" transform="translate(-412.578 -376.573)"/>
          <path id="Path_904173" data-name="Path 904173" d="M470.6,387.6h1.622v4.257H470.6Z" transform="translate(-444.232 -376.573)"/>
        </g>
        <g id="Group_1111741" data-name="Group 1111741" transform="translate(37.972 23.31)">
          <g id="Group_1111739" data-name="Group 1111739">
            <path id="Path_904174" data-name="Path 904174" d="M302.309,185.216a3.082,3.082,0,0,0-2.5-3.081v-.041a3.518,3.518,0,0,0-3.432-3.595,3.4,3.4,0,0,0-3.054,1.959,2.785,2.785,0,0,0-1.622-.514,3.044,3.044,0,0,0-2.959,2.824A2.859,2.859,0,0,0,287,185.432a2.782,2.782,0,0,0,2.716,2.851H300.5A3.423,3.423,0,0,0,302.309,185.216Z" transform="translate(-286.188 -177.689)" fill="#d1d3d4"/>
            <path id="Path_904175" data-name="Path 904175" d="M295.31,183.905H284.527A3.6,3.6,0,0,1,281,180.243a3.725,3.725,0,0,1,1.824-3.2,3.8,3.8,0,0,1,3.689-3.095,3.665,3.665,0,0,1,1.324.257,4.161,4.161,0,0,1,3.351-1.7,4.3,4.3,0,0,1,4.2,3.811,3.889,3.889,0,0,1,2.54,3.716,4.124,4.124,0,0,1-2.284,3.811A.941.941,0,0,1,295.31,183.905Zm-8.8-8.338a2.217,2.217,0,0,0-2.149,2.095.8.8,0,0,1-.5.676,2.051,2.051,0,0,0-1.243,1.905,1.979,1.979,0,0,0,1.905,2.041h10.594a2.674,2.674,0,0,0,1.189-2.257,2.456,2.456,0,0,0-1.824-2.284.8.8,0,0,1-.676-.8v-.041a2.706,2.706,0,0,0-2.622-2.784,2.573,2.573,0,0,0-2.324,1.5.843.843,0,0,1-.527.432.817.817,0,0,1-.662-.122,2.077,2.077,0,0,0-1.162-.365Z" transform="translate(-281 -172.5)"/>
          </g>
          <g id="Group_1111740" data-name="Group 1111740" transform="translate(1.475 12.688)">
            <path id="Path_904176" data-name="Path 904176" d="M365.525,271.008a.852.852,0,0,1-.473-.149.805.805,0,0,1-.176-1.135l2.162-2.973a.812.812,0,0,1,1.311.959l-2.162,2.959A.807.807,0,0,1,365.525,271.008Z" transform="translate(-354.878 -266.413)"/>
            <path id="Path_904177" data-name="Path 904177" d="M310.5,270.993a.9.9,0,0,1-.486-.149.83.83,0,0,1-.176-1.135l2.176-2.973a.794.794,0,0,1,1.095-.2c.014.013.027.013.027.027a.805.805,0,0,1,.176,1.135l-2.162,2.959A.783.783,0,0,1,310.5,270.993Z" transform="translate(-307.286 -266.398)"/>
            <path id="Path_904178" data-name="Path 904178" d="M343.825,269.5a.851.851,0,0,1-.473-.149.805.805,0,0,1-.176-1.135l1.081-1.486a.788.788,0,0,1,1.108-.189c.014,0,.014.014.027.014a.805.805,0,0,1,.176,1.135l-1.081,1.486A.852.852,0,0,1,343.825,269.5Z" transform="translate(-336.111 -266.394)"/>
            <path id="Path_904179" data-name="Path 904179" d="M292.725,269.5a.851.851,0,0,1-.473-.149.805.805,0,0,1-.176-1.135l1.081-1.486a.788.788,0,0,1,1.108-.189c.014,0,.014.014.027.014a.83.83,0,0,1,.176,1.135l-1.081,1.486A.852.852,0,0,1,292.725,269.5Z" transform="translate(-291.916 -266.394)"/>
          </g>
        </g>
        <g id="Group_1111742" data-name="Group 1111742" transform="translate(13.108 2.608)">
          <path id="Path_904180" data-name="Path 904180" d="M133.986,74.356,133,73.072a4.729,4.729,0,0,1,5.838-.054l-1,1.27A3.127,3.127,0,0,0,133.986,74.356Z" transform="translate(-128.135 -64.909)"/>
          <path id="Path_904181" data-name="Path 904181" d="M117.535,47.831,116.4,46.669a7.426,7.426,0,0,1,10.5-.068l-1.162,1.135A5.792,5.792,0,0,0,117.535,47.831Z" transform="translate(-113.778 -41.061)"/>
          <path id="Path_904182" data-name="Path 904182" d="M98.135,23.729,97,22.567a11.469,11.469,0,0,1,7.878-3.27h.095a10.455,10.455,0,0,1,7.581,3.162l-1.162,1.135a8.833,8.833,0,0,0-6.5-2.676A9.741,9.741,0,0,0,98.135,23.729Z" transform="translate(-97 -19.297)"/>
        </g>
      </g>
    </g>
  </g>
</svg>
