<svg xmlns="http://www.w3.org/2000/svg" xmlns:xlink="http://www.w3.org/1999/xlink" width="136" height="136" viewBox="0 0 136 136">
  <defs>
    <filter id="Ellipse_12618" x="0" y="0" width="136" height="136" filterUnits="userSpaceOnUse">
      <feOffset dy="3" input="SourceAlpha"/>
      <feGaussianBlur stdDeviation="3" result="blur"/>
      <feFlood flood-opacity="0.161"/>
      <feComposite operator="in" in2="blur"/>
      <feComposite in="SourceGraphic"/>
    </filter>
  </defs>
  <g id="Group_1112317" data-name="Group 1112317" transform="translate(-781 -5571.663)">
    <g transform="matrix(1, 0, 0, 1, 781, 5571.66)" filter="url(#Ellipse_12618)">
      <circle id="Ellipse_12618-2" data-name="Ellipse 12618" cx="59" cy="59" r="59" transform="translate(9 6)" fill="#fff"/>
    </g>
    <g id="agua-subterranea" transform="translate(812 5584.799)">
      <g id="Group_1112088" data-name="Group 1112088" transform="translate(1.081 15.054)">
        <path id="Path_908239" data-name="Path 908239" d="M276.9,82.106l1.858-3.023a9.969,9.969,0,0,1,17.389.717l8.15,16.1H274.269V91.414A17.779,17.779,0,0,1,276.9,82.106Z" transform="translate(-235.812 -66.712)" fill="#009356"/>
        <path id="Path_908240" data-name="Path 908240" d="M360.332,79.8a9.941,9.941,0,0,0-11.066-5.234,9.831,9.831,0,0,1,6.741,5.234l8.15,16.1h4.325Z" transform="translate(-299.997 -66.716)" fill="#007d45"/>
        <path id="Path_908241" data-name="Path 908241" d="M48.113,33.338a1.9,1.9,0,0,1-3.413-.052l-4.249-9.014a4.879,4.879,0,0,0-8.761-.133L16.837,53.318H66.229L56.874,33.471A4.879,4.879,0,0,0,48.113,33.338Z" transform="translate(-15.491 -21.473)" fill="#aff297"/>
        <path id="Path_908242" data-name="Path 908242" d="M48.113,33.338a1.9,1.9,0,0,1-3.413-.052l-4.249-9.014a4.879,4.879,0,0,0-8.761-.133L16.837,53.318H66.229L56.874,33.471A4.879,4.879,0,0,0,48.113,33.338Z" transform="translate(-15.491 -21.473)" fill="#aff297"/>
        <path id="Path_908243" data-name="Path 908243" d="M264.518,105.32h4.3L260.7,88.1a4.862,4.862,0,0,0-5.7-2.627,4.991,4.991,0,0,1,.659,1.042Z" transform="translate(-219.315 -76.097)" fill="#8ded74"/>
        <path id="Path_908244" data-name="Path 908244" d="M77.408,293.983H8.966A1.466,1.466,0,0,1,7.5,292.517V261.2H78.875v31.321A1.466,1.466,0,0,1,77.408,293.983Z" transform="translate(-7.5 -226.638)" fill="#ffc861"/>
        <path id="Path_908245" data-name="Path 908245" d="M77.408,293.983H8.966A1.466,1.466,0,0,1,7.5,292.517V261.2H78.875v31.321A1.466,1.466,0,0,1,77.408,293.983Z" transform="translate(-7.5 -226.638)" fill="#ffc861"/>
        <path id="Path_908246" data-name="Path 908246" d="M74.55,261.2v26.131a1.466,1.466,0,0,1-1.466,1.466H7.5v3.723a1.466,1.466,0,0,0,1.466,1.466H77.408a1.466,1.466,0,0,0,1.466-1.466V261.2Z" transform="translate(-7.5 -226.638)" fill="#ffb959"/>
        <path id="Path_908247" data-name="Path 908247" d="M78.875,228.981H7.5v-3.412a2.015,2.015,0,0,1,2.014-2.014H76.86a2.014,2.014,0,0,1,2.014,2.014Z" transform="translate(-7.5 -194.423)" fill="#00c190"/>
        <path id="Path_908248" data-name="Path 908248" d="M462.961,223.555h-4.325a2.014,2.014,0,0,1,2.014,2.014v3.412h4.325v-3.412A2.014,2.014,0,0,0,462.961,223.555Z" transform="translate(-393.601 -194.423)" fill="#00b67b"/>
        <path id="Path_908249" data-name="Path 908249" d="M116.65,261.2v6.588a3.388,3.388,0,0,1-.178,1.083l-.509,1.507a3.386,3.386,0,0,1-2.847,2.283l-7.647.821a3.386,3.386,0,0,0-2.9,2.452l-.774,2.758a1.414,1.414,0,0,1-1.361,1.032H99.2a1.413,1.413,0,0,1-1.378-1.1l-1.111-4.831a2.343,2.343,0,0,1,.249-1.688l1.465-2.564a2.343,2.343,0,0,0,.08-2.172L95.561,261.2h-6l3.3,5.951a2.343,2.343,0,0,1-.029,2.324l-.814,1.385a2.343,2.343,0,0,0-.255,1.746l1.318,5.366A1.414,1.414,0,0,1,91.7,279.72H88.159a1.413,1.413,0,0,1-1.361-1.032l-.774-2.758a3.386,3.386,0,0,0-2.9-2.452l-7.647-.821a3.385,3.385,0,0,1-2.846-2.283l-.509-1.507a3.388,3.388,0,0,1-.178-1.083V261.2H67.378v8.92a3.384,3.384,0,0,0,.144.976l1.125,3.735a3.386,3.386,0,0,0,2.911,2.393l6.945.681a3.386,3.386,0,0,1,3.055,3.37,6.116,6.116,0,0,0,3.841,5.677,23.92,23.92,0,0,0,17.8,0,6.116,6.116,0,0,0,3.841-5.677,3.386,3.386,0,0,1,3.055-3.37l6.945-.681a3.385,3.385,0,0,0,2.911-2.393l1.125-3.735a3.385,3.385,0,0,0,.144-.976V261.2H116.65Z" transform="translate(-58.746 -226.638)" fill="#00d2fe"/>
        <g id="Group_1112087" data-name="Group 1112087" transform="translate(1.081 8.702)">
          <path id="Path_908250" data-name="Path 908250" d="M44.714,234.318h39.5v-2.331a.934.934,0,0,0-.933-.933H15.933a.934.934,0,0,0-.933.933v2.331Z" transform="translate(-15 -209.543)" fill="none"/>
          <path id="Path_908251" data-name="Path 908251" d="M76.1,280.935a2.3,2.3,0,0,0,1.981,1.629l6.945.681a4.451,4.451,0,0,1,4.031,4.445,5.011,5.011,0,0,0,3.162,4.673,22.739,22.739,0,0,0,16.991,0,5.011,5.011,0,0,0,3.162-4.673,4.451,4.451,0,0,1,4.031-4.445l6.945-.681a2.3,2.3,0,0,0,1.981-1.629l1.125-3.735a2.3,2.3,0,0,0,.1-.665V268.7h-2.4V274.2a1.081,1.081,0,1,1-2.162,0V268.7H103.7l2.209,4.625a3.425,3.425,0,0,1-.117,3.175l-1.465,2.564a1.258,1.258,0,0,0-.134.909l1.111,4.83a.331.331,0,0,0,.324.258h1.232a.333.333,0,0,0,.32-.243l.774-2.759a4.445,4.445,0,0,1,3.824-3.235l6.715-.721a1.081,1.081,0,0,1,.231,2.15l-6.715.721a2.293,2.293,0,0,0-1.973,1.669l-.774,2.758a2.5,2.5,0,0,1-2.4,1.821h-1.232a2.483,2.483,0,0,1-2.431-1.936l-1.111-4.83a3.414,3.414,0,0,1,.364-2.467l1.465-2.564a1.261,1.261,0,0,0,.043-1.17L101.3,268.7H97.812l2.411,4.346a3.438,3.438,0,0,1-.042,3.4l-.814,1.385a1.255,1.255,0,0,0-.138.94l1.318,5.366a2.495,2.495,0,0,1-2.423,3.09H94.578a2.5,2.5,0,0,1-2.4-1.821l-.774-2.758a2.293,2.293,0,0,0-1.973-1.669l-7.647-.821a4.48,4.48,0,0,1-3.755-3.012l-.509-1.507a4.457,4.457,0,0,1-.235-1.429V268.7h-2.4v7.839a2.305,2.305,0,0,0,.1.664Z" transform="translate(-66.247 -241.758)" fill="none"/>
          <path id="Path_908252" data-name="Path 908252" d="M324.463,86.705a8.888,8.888,0,0,0-15.5-.636l-.477.777,6.821,14.337h16.421Z" transform="translate(-266.176 -81.834)" fill="none"/>
          <path id="Path_908253" data-name="Path 908253" d="M81.554,291.971a2.648,2.648,0,0,1-2.733.644l-1.239-.426a.474.474,0,0,0-.6.286l-1.3,3.61a1.081,1.081,0,1,1-2.034-.734l1.3-3.61a2.645,2.645,0,0,1,3.333-1.6l1.239.426a.474.474,0,0,0,.489-.115l4.2-4.267v-8.526a3.537,3.537,0,0,0-1.577,1.315l-1.429,2.173a1.081,1.081,0,1,1-1.806-1.188l1.429-2.173a5.692,5.692,0,0,1,2.6-2.143l.665-.274a1.1,1.1,0,0,1,.12-.041v-6.635H77.47v7.839a4.464,4.464,0,0,1-.19,1.288l-1.125,3.735a4.452,4.452,0,0,1-3.841,3.157l-6.945.681a2.3,2.3,0,0,0-2.08,2.293,7.163,7.163,0,0,1-4.52,6.681,24.893,24.893,0,0,1-18.6,0,7.163,7.163,0,0,1-4.52-6.681,2.3,2.3,0,0,0-2.08-2.294l-6.945-.681a4.452,4.452,0,0,1-3.841-3.157l-1.125-3.735a4.463,4.463,0,0,1-.19-1.288v-7.839H15v15l1.582-.609a2.665,2.665,0,0,1,3.181,1.035l1.27,1.964a1.081,1.081,0,1,1-1.816,1.174l-1.27-1.964a.493.493,0,0,0-.589-.192L15,286.012v12.923a.385.385,0,0,0,.385.385H25.733l1.169-1.15a.437.437,0,0,0,.1-.483l-1.242-2.952a1.081,1.081,0,1,1,1.993-.839l1.242,2.951a2.585,2.585,0,0,1-.248,2.473H83.827a.385.385,0,0,0,.385-.385V289.27Z" transform="translate(-15 -241.757)" fill="none"/>
          <path id="Path_908254" data-name="Path 908254" d="M106.677,274.938l.509,1.507A2.311,2.311,0,0,0,109.123,278l7.647.821a4.445,4.445,0,0,1,3.824,3.235l.774,2.758a.333.333,0,0,0,.32.243h3.546a.333.333,0,0,0,.323-.412l-1.318-5.366a3.405,3.405,0,0,1,.374-2.552l.814-1.385a1.267,1.267,0,0,0,.016-1.252l-2.993-5.395H106.556V274.2A2.3,2.3,0,0,0,106.677,274.938Z" transform="translate(-93.357 -241.756)" fill="none"/>
        </g>
      </g>
      <path id="Path_908255" data-name="Path 908255" d="M70.441,43.1h-.309L62.381,27.654a11.05,11.05,0,0,0-19.011-1.2,5.916,5.916,0,0,0-5.228-3.278h-.093a5.919,5.919,0,0,0-5.308,3.256.82.82,0,0,1-1.472-.022L27.02,17.392a5.921,5.921,0,0,0-5.3-3.418h-.093a5.923,5.923,0,0,0-5.312,3.264L6.094,37.7a1.081,1.081,0,1,0,1.935.966L18.244,18.211a3.723,3.723,0,0,1,3.379-2.075h.063a3.725,3.725,0,0,1,3.377,2.178l4.249,9.014a2.963,2.963,0,0,0,2.652,1.71h.047a2.962,2.962,0,0,0,2.656-1.629,3.723,3.723,0,0,1,3.379-2.075h.063a3.725,3.725,0,0,1,3.377,2.178l.778,1.65v0L48.9,43.1H3.1A3.1,3.1,0,0,0,0,46.2V80.934a2.551,2.551,0,0,0,2.548,2.548H70.99a2.55,2.55,0,0,0,2.547-2.548V46.2a3.1,3.1,0,0,0-3.1-3.1ZM44.471,28.768l.477-.777a8.888,8.888,0,0,1,15.5.636L67.713,43.1H51.292ZM2.162,46.2a.934.934,0,0,1,.933-.933H70.441a.934.934,0,0,1,.933.933v2.331H2.162Zm8.632,4.493h2.4V56.2a4.457,4.457,0,0,0,.235,1.429l.509,1.507A4.481,4.481,0,0,0,17.7,62.149l7.647.821a2.293,2.293,0,0,1,1.973,1.669l.774,2.758a2.5,2.5,0,0,0,2.4,1.821h3.546a2.495,2.495,0,0,0,2.423-3.09l-1.318-5.366a1.255,1.255,0,0,1,.138-.94l.814-1.385a3.438,3.438,0,0,0,.042-3.4l-2.411-4.346h3.487l2.654,5.558a1.261,1.261,0,0,1-.043,1.17l-1.465,2.564A3.413,3.413,0,0,0,38,62.452l1.111,4.83a2.483,2.483,0,0,0,2.431,1.936h1.232a2.5,2.5,0,0,0,2.4-1.821l.774-2.758A2.293,2.293,0,0,1,47.92,62.97l6.715-.721A1.081,1.081,0,1,0,54.4,60.1l-6.715.721a4.445,4.445,0,0,0-3.824,3.235l-.774,2.758a.333.333,0,0,1-.32.243H41.539a.331.331,0,0,1-.324-.258L40.1,61.967a1.258,1.258,0,0,1,.134-.909L41.7,58.494a3.425,3.425,0,0,0,.117-3.175l-2.209-4.625H57.9V56.2a1.081,1.081,0,1,0,2.162,0V50.694h2.4v7.839a2.3,2.3,0,0,1-.1.665l-1.125,3.735a2.3,2.3,0,0,1-1.981,1.629l-6.945.681a4.451,4.451,0,0,0-4.031,4.445,5.011,5.011,0,0,1-3.162,4.673,22.739,22.739,0,0,1-16.991,0,5.011,5.011,0,0,1-3.162-4.673,4.451,4.451,0,0,0-4.031-4.445L14,64.561a2.3,2.3,0,0,1-1.981-1.629L10.892,59.2a2.305,2.305,0,0,1-.1-.664V50.694Zm20.461,0,2.993,5.395a1.267,1.267,0,0,1-.016,1.251l-.814,1.385a3.405,3.405,0,0,0-.374,2.552l1.318,5.366a.332.332,0,0,1-.323.412H30.494a.333.333,0,0,1-.32-.243L29.4,64.055a4.445,4.445,0,0,0-3.824-3.235L17.929,60a2.311,2.311,0,0,1-1.937-1.554l-.509-1.507a2.3,2.3,0,0,1-.121-.737V50.694H31.255ZM70.99,81.319H15.907a2.585,2.585,0,0,0,.248-2.473l-1.242-2.951a1.081,1.081,0,1,0-1.993.839l1.242,2.952a.437.437,0,0,1-.1.483L12.9,81.319H2.547a.386.386,0,0,1-.385-.385V68.01L4.521,67.1a.493.493,0,0,1,.589.192l1.27,1.964A1.081,1.081,0,0,0,8.2,68.083L6.926,66.119a2.665,2.665,0,0,0-3.181-1.035l-1.582.609v-15h6.47v7.839a4.465,4.465,0,0,0,.19,1.288l1.125,3.735a4.452,4.452,0,0,0,3.841,3.157l6.945.681a2.3,2.3,0,0,1,2.08,2.294,7.163,7.163,0,0,0,4.52,6.68,24.893,24.893,0,0,0,18.6,0,7.163,7.163,0,0,0,4.52-6.681,2.3,2.3,0,0,1,2.08-2.293l6.945-.681a4.452,4.452,0,0,0,3.841-3.157l1.125-3.735a4.464,4.464,0,0,0,.19-1.288V50.694h6.742v6.635a1.068,1.068,0,0,0-.12.041l-.665.274a5.692,5.692,0,0,0-2.6,2.143L66.563,61.96a1.081,1.081,0,1,0,1.806,1.188L69.8,60.975a3.536,3.536,0,0,1,1.577-1.315v8.526l-4.2,4.267a.474.474,0,0,1-.489.115l-1.239-.426a2.645,2.645,0,0,0-3.333,1.6l-1.3,3.61a1.081,1.081,0,1,0,2.034.734l1.3-3.61a.474.474,0,0,1,.6-.286l1.239.426a2.647,2.647,0,0,0,2.733-.644l2.658-2.7v9.665a.387.387,0,0,1-.386.385Z" transform="translate(0 0)"/>
    </g>
  </g>
</svg>
