<svg xmlns="http://www.w3.org/2000/svg" xmlns:xlink="http://www.w3.org/1999/xlink" width="136" height="136" viewBox="0 0 136 136">
  <defs>
    <filter id="Ellipse_11661" x="0" y="0" width="136" height="136" filterUnits="userSpaceOnUse">
      <feOffset dy="3" input="SourceAlpha"/>
      <feGaussianBlur stdDeviation="3" result="blur"/>
      <feFlood flood-opacity="0.161"/>
      <feComposite operator="in" in2="blur"/>
      <feComposite in="SourceGraphic"/>
    </filter>
  </defs>
  <g id="Group_1112323" data-name="Group 1112323" transform="translate(-382.963 -5976.665)">
    <g transform="matrix(1, 0, 0, 1, 382.96, 5976.67)" filter="url(#Ellipse_11661)">
      <circle id="Ellipse_11661-2" data-name="Ellipse 11661" cx="59" cy="59" r="59" transform="translate(9 6)" fill="#fff"/>
    </g>
    <g id="bomba" transform="translate(421.501 6008.64)">
      <path id="Path_908284" data-name="Path 908284" d="M357.555,263.7v24.323a.611.611,0,0,1-.61.61h-5.072a.611.611,0,0,1-.61-.61V266.219H337.109v-6.292h16.668A3.779,3.779,0,0,1,357.555,263.7Z" transform="translate(-295.934 -228.199)" fill="#a49ca7"/>
      <path id="Path_908285" data-name="Path 908285" d="M337.109,259.928h11.8v6.292h-11.8Z" transform="translate(-295.934 -228.2)" fill="#766d78"/>
      <path id="Path_908286" data-name="Path 908286" d="M78.271,347.151h35.781v7.285H78.271Z" transform="translate(-68.711 -304.769)" fill="#766d78"/>
      <path id="Path_908287" data-name="Path 908287" d="M78.271,347.153h4.272v7.285H78.271Z" transform="translate(-68.711 -304.771)" fill="#655e67"/>
      <path id="Path_908288" data-name="Path 908288" d="M23.057,7.655H8.425a.61.61,0,0,0-.61.61v5.246a.61.61,0,0,0,.61.61H20.481V28.589h6.467V11.545a3.89,3.89,0,0,0-3.89-3.89Z" transform="translate(-6.86 -6.739)" fill="#a49ca7"/>
      <path id="Path_908289" data-name="Path 908289" d="M104.039,160.826H95.4a1.007,1.007,0,0,0-1.007,1.007v3.6h10.647v-3.6A1.007,1.007,0,0,0,104.039,160.826Z" transform="translate(-82.868 -141.202)" fill="#766d78"/>
      <path id="Path_908290" data-name="Path 908290" d="M103.825,90.683H95.619A1.221,1.221,0,0,0,94.4,91.9v1.907a1.221,1.221,0,0,0,1.221,1.221h8.206a1.221,1.221,0,0,0,1.221-1.221V91.9A1.221,1.221,0,0,0,103.825,90.683Z" transform="translate(-82.868 -79.626)" fill="#766d78"/>
      <path id="Path_908291" data-name="Path 908291" d="M12.7,14.122H8.425a.611.611,0,0,1-.61-.61V8.265a.611.611,0,0,1,.61-.61H12.7a.611.611,0,0,0-.61.61v5.246A.611.611,0,0,0,12.7,14.122Z" transform="translate(-6.86 -6.739)" fill="#8e8391"/>
      <path id="Path_908292" data-name="Path 908292" d="M99.679,160.829a1.006,1.006,0,0,0-1.006,1.006v3.6H94.4v-3.6a1.006,1.006,0,0,1,1.006-1.006Z" transform="translate(-82.871 -141.205)" fill="#655e67"/>
      <path id="Path_908293" data-name="Path 908293" d="M99.894,95.032H95.622A1.22,1.22,0,0,1,94.4,93.812V91.9a1.22,1.22,0,0,1,1.221-1.221h4.272A1.22,1.22,0,0,0,98.673,91.9v1.908A1.22,1.22,0,0,0,99.894,95.032Z" transform="translate(-82.871 -79.626)" fill="#655e67"/>
      <ellipse id="Ellipse_12644" data-name="Ellipse 12644" cx="2.665" cy="2.665" rx="2.665" ry="2.665" transform="translate(35.339 5.953)" fill="#544f56"/>
      <path id="Path_908294" data-name="Path 908294" d="M244.242,155.029H236.5a1.831,1.831,0,0,0-1.792,1.455v4.565h11.369V156.86A1.831,1.831,0,0,0,244.242,155.029Z" transform="translate(-206.038 -136.113)" fill="#766d78"/>
      <path id="Path_908295" data-name="Path 908295" d="M240.767,155.033a1.83,1.83,0,0,0-1.792,1.455v4.565H234.7v-4.565a1.83,1.83,0,0,1,1.792-1.455Z" transform="translate(-206.036 -136.117)" fill="#655e67"/>
      <path id="Path_908296" data-name="Path 908296" d="M293.383,53.84a2.665,2.665,0,1,1,0-4.549,2.665,2.665,0,0,0,0,4.549Z" transform="translate(-253.99 -42.947)" fill="#444145"/>
      <path id="Path_908297" data-name="Path 908297" d="M19.241,228.7l-6.966-1.583a.61.61,0,0,1-.475-.6V214.395a.61.61,0,0,1,.475-.6l6.966-1.583Z" transform="translate(-10.359 -186.315)" fill="#a49ca7"/>
      <path id="Path_908298" data-name="Path 908298" d="M94.4,195.36h31.163v20.6H94.4Z" transform="translate(-82.868 -171.518)" fill="#fed22b"/>
      <path id="Path_908299" data-name="Path 908299" d="M56.335,215.959h-3.67a1.626,1.626,0,0,1-1.626-1.626V196.986a1.626,1.626,0,0,1,1.626-1.626h3.67v20.6Z" transform="translate(-44.805 -171.518)" fill="#f0a70a"/>
      <path id="Path_908300" data-name="Path 908300" d="M349.536,215.959h3.67a1.626,1.626,0,0,0,1.626-1.626V196.986a1.626,1.626,0,0,0-1.626-1.626h-3.67Z" transform="translate(-306.843 -171.518)" fill="#f0a70a"/>
      <path id="Path_908301" data-name="Path 908301" d="M140.425,245.649h-8.517a.61.61,0,0,1-.61-.61v-9.781a.61.61,0,0,1,.61-.61h8.517a.61.61,0,0,1,.61.61v9.781A.61.61,0,0,1,140.425,245.649Z" transform="translate(-115.261 -206.007)" fill="#766d78"/>
      <path id="Path_908302" data-name="Path 908302" d="M54.763,418.711H8.105a.61.61,0,0,1-.61-.61V407.406a.61.61,0,0,1,.61-.61H54.763a.61.61,0,0,1,.61.61V418.1A.61.61,0,0,1,54.763,418.711Z" transform="translate(-6.58 -357.129)" fill="#fed22b"/>
      <path id="Path_908303" data-name="Path 908303" d="M136.181,245.654h-4.272a.611.611,0,0,1-.61-.61v-9.78a.61.61,0,0,1,.61-.61h4.272a.61.61,0,0,0-.61.61v9.78A.611.611,0,0,0,136.181,245.654Z" transform="translate(-115.261 -206.012)" fill="#655e67"/>
      <path id="Path_908304" data-name="Path 908304" d="M12.378,418.711H8.105a.611.611,0,0,1-.61-.61V407.406a.611.611,0,0,1,.61-.61h4.272a.611.611,0,0,0-.61.61V418.1A.611.611,0,0,0,12.378,418.711Z" transform="translate(-6.58 -357.129)" fill="#f0a70a"/>
      <path id="Path_908305" data-name="Path 908305" d="M12.378,446.618H8.105a.611.611,0,0,1-.61-.61v-7.422l3.794,2.313c.157.1.316.184.479.266v4.842a.61.61,0,0,0,.61.61Z" transform="translate(-6.58 -385.036)" fill="#72d1fb"/>
      <path id="Path_908306" data-name="Path 908306" d="M7.495,438.588l3.794,2.313a7.29,7.29,0,0,0,7.588,0,7.29,7.29,0,0,1,7.588,0,7.29,7.29,0,0,0,7.588,0,7.29,7.29,0,0,1,7.588,0,7.29,7.29,0,0,0,7.588,0,7.29,7.29,0,0,1,7.588,0,7.29,7.29,0,0,0,7.588,0l3.794-2.312v7.421a.61.61,0,0,1-.61.61H8.105a.61.61,0,0,1-.61-.61Z" transform="translate(-6.58 -385.038)" fill="#93dcfc"/>
      <path id="Path_908307" data-name="Path 908307" d="M64.407,440.9a7.293,7.293,0,0,1-3.794,1.064c-3.584,0-4.009-2.13-7.589-2.13s-4.008,2.13-7.589,2.13-4-2.13-7.588-2.13-4,2.13-7.588,2.13-4.009-2.13-7.589-2.13a7.282,7.282,0,0,0-3.794,1.066,7.293,7.293,0,0,1-7.589,0l-3.794-2.313v3.54l3.794,2.313a7.293,7.293,0,0,0,7.589,0,7.286,7.286,0,0,1,7.588,0,7.3,7.3,0,0,0,7.589,0,7.286,7.286,0,0,1,7.588,0,7.3,7.3,0,0,0,7.589,0,7.286,7.286,0,0,1,7.588,0,7.3,7.3,0,0,0,7.589,0l3.794-2.313v-3.54Z" transform="translate(-6.58 -385.036)" fill="#72d1fb"/>
      <g id="Group_1112091" data-name="Group 1112091" transform="translate(0 0)">
        <path id="Path_908308" data-name="Path 908308" d="M57.843,30.972H48.9V25.627a2.544,2.544,0,0,0-2.541-2.541H40.952V20.906a2.75,2.75,0,0,0-2.746-2.746H36.056l1.8-5.806a3.58,3.58,0,1,0-1.749-.543L34.139,18.16h-3.68a2.759,2.759,0,0,0-2.688,2.182.921.921,0,0,0-.02.188v2.555H23.092v-2.3a1.924,1.924,0,0,0-1.921-1.921H21V16.477a2.137,2.137,0,0,0,2.09-2.134V12.436A2.137,2.137,0,0,0,21,10.3V4.965A4.811,4.811,0,0,0,16.2.159H9.885a.915.915,0,1,0,0,1.831H16.2a2.978,2.978,0,0,1,2.975,2.975V10.3H14.535V7.542a.915.915,0,0,0-.915-.915H1.87V1.99H6.223a.915.915,0,1,0,0-1.831H.955a.915.915,0,0,0-.915.915V7.542a.915.915,0,0,0,.915.915H12.7V10.3a2.137,2.137,0,0,0-2.09,2.134v1.907a2.137,2.137,0,0,0,2.09,2.134v2.391h-.168a1.924,1.924,0,0,0-1.921,1.921v2.3H7.86a2.544,2.544,0,0,0-2.541,2.541v.3l-4.08.927a.915.915,0,0,0-.713.893v13.1a.915.915,0,0,0,.712.893l4.08.928v.3A2.544,2.544,0,0,0,7.86,45.515h.785v3.4H6.8a.915.915,0,1,0,0,1.831H47.574a.305.305,0,0,1,.305.305v3.117a8.178,8.178,0,0,0-5.7,1.076,6.351,6.351,0,0,1-6.635,0,8.175,8.175,0,0,0-8.541,0,6.351,6.351,0,0,1-6.635,0,8.175,8.175,0,0,0-8.541,0,6.351,6.351,0,0,1-6.635,0L1.831,53.2V50.742h1.3a.915.915,0,1,0,0-1.831H.915A.915.915,0,0,0,0,49.826V61.741a.916.916,0,0,0,.915.915H61.621a.915.915,0,0,0,.915-.915V35.665a4.7,4.7,0,0,0-4.693-4.693ZM38,7.028a1.75,1.75,0,1,1-1.75,1.75A1.752,1.752,0,0,1,38,7.028ZM5.319,40.792l-2.962-.674V28.482l2.962-.673Zm24.264-20.15a.921.921,0,0,1,.876-.651H38.2a.916.916,0,0,1,.915.915v2.179H29.582Zm-17.137-6.3V12.436a.305.305,0,0,1,.305-.305h8.206a.305.305,0,0,1,.305.305v1.907a.305.305,0,0,1-.305.305H12.75A.305.305,0,0,1,12.445,14.344Zm6.726,2.136v2.388H14.535V16.48Zm-6.726,4.31a.09.09,0,0,1,.09-.09h8.635a.09.09,0,0,1,.09.09v2.3H12.446v-2.3Zm0,4.127H41.777V43.684H12.445ZM7.86,43.684a.711.711,0,0,1-.71-.71V25.627a.711.711,0,0,1,.71-.71h2.754V43.684Zm36.566,5.226H10.476v-3.4h33.95v3.4Zm.915-5.227H43.608V24.917h2.754a.711.711,0,0,1,.71.71V42.974a.711.711,0,0,1-.71.71H45.341ZM60.705,60.825H1.831V55.339l2.4,1.464a8.175,8.175,0,0,0,8.541,0,6.351,6.351,0,0,1,6.635,0,8.175,8.175,0,0,0,8.541,0,6.351,6.351,0,0,1,6.635,0,8.175,8.175,0,0,0,8.541,0,6.355,6.355,0,0,1,6.635,0,8.175,8.175,0,0,0,8.541,0l2.4-1.464c0,1.289,0,2.734,0,5.486Zm0-7.63c-3.638,2.218-3.707,2.3-4.461,2.581V50.37a.915.915,0,1,0-1.831,0v5.793c-2.378.143-3.54-.939-4.7-1.446V51.047a2.139,2.139,0,0,0-2.136-2.136H46.257v-3.4A2.547,2.547,0,0,0,48.9,42.974V39.1h5.509v7.613a.915.915,0,1,0,1.831,0V38.18a.916.916,0,0,0-.915-.915H48.9V32.8h8.939a2.866,2.866,0,0,1,2.862,2.862V53.2Z" transform="translate(0 -0.159)"/>
        <path id="Path_908309" data-name="Path 908309" d="M134.456,227.153h-9.738a.915.915,0,0,0-.915.915v11a.915.915,0,0,0,.915.915h9.738a.915.915,0,0,0,.915-.915v-11A.915.915,0,0,0,134.456,227.153Zm-.915,11h-7.907v-9.17h7.907Z" transform="translate(-108.682 -199.428)"/>
        <path id="Path_908310" data-name="Path 908310" d="M249.429,240.97H241.55a.915.915,0,0,0,0,1.831h7.879a.915.915,0,0,0,0-1.831Z" transform="translate(-211.244 -211.557)"/>
        <path id="Path_908311" data-name="Path 908311" d="M249.429,272.188H241.55a.915.915,0,0,0,0,1.831h7.879a.915.915,0,0,0,0-1.831Z" transform="translate(-211.244 -238.962)"/>
        <path id="Path_908312" data-name="Path 908312" d="M249.429,303.406H241.55a.915.915,0,1,0,0,1.831h7.879a.915.915,0,1,0,0-1.831Z" transform="translate(-211.244 -266.367)"/>
        <path id="Path_908313" data-name="Path 908313" d="M155.319,258.518h.922l-.355.908a.915.915,0,1,0,1.705.666l.843-2.156a.915.915,0,0,0-.853-1.249h-.922l.355-.908a.915.915,0,1,0-1.705-.666l-.843,2.156a.915.915,0,0,0,.853,1.249Z" transform="translate(-135.544 -223.461)"/>
      </g>
    </g>
  </g>
</svg>
