<svg xmlns="http://www.w3.org/2000/svg" xmlns:xlink="http://www.w3.org/1999/xlink" width="136" height="136" viewBox="0 0 136 136">
  <defs>
    <filter id="Ellipse_12618" x="0" y="0" width="136" height="136" filterUnits="userSpaceOnUse">
      <feOffset dy="3" input="SourceAlpha"/>
      <feGaussianBlur stdDeviation="3" result="blur"/>
      <feFlood flood-opacity="0.161"/>
      <feComposite operator="in" in2="blur"/>
      <feComposite in="SourceGraphic"/>
    </filter>
  </defs>
  <g id="Group_1112325" data-name="Group 1112325" transform="translate(-1005.963 -5971.932)">
    <g transform="matrix(1, 0, 0, 1, 1005.96, 5971.93)" filter="url(#Ellipse_12618)">
      <circle id="Ellipse_12618-2" data-name="Ellipse 12618" cx="59" cy="59" r="59" transform="translate(9 6)" fill="#fff"/>
    </g>
    <g id="Water_Pollution_waste" data-name="Water Pollution waste" transform="translate(1048.989 6009.599)">
      <path id="Path_908337" data-name="Path 908337" d="M0,3.033l8.238-.074.114,9.489-8.239.075Z" transform="translate(0.005 0.551)" fill="#ffc54b"/>
      <path id="Path_908338" data-name="Path 908338" d="M55.566,51.1a5.273,5.273,0,0,1-3.407-1.184,5.489,5.489,0,0,0-6.815-.006,5.494,5.494,0,0,1-6.821.006,5.491,5.491,0,0,0-6.822,0,5.491,5.491,0,0,1-6.816,0,5.493,5.493,0,0,0-6.821,0A5.279,5.279,0,0,1,14.653,51.1a5.271,5.271,0,0,1-3.412-1.185,5.283,5.283,0,0,0-3.415-1.187,5.289,5.289,0,0,0-3.414,1.186A5.267,5.267,0,0,1,1,51.1V27.373a5.29,5.29,0,0,0,3.415-1.186A5.265,5.265,0,0,1,7.827,25a5.275,5.275,0,0,1,3.413,1.185,5.282,5.282,0,0,0,3.414,1.187,5.267,5.267,0,0,0,3.411-1.187,5.494,5.494,0,0,1,6.818,0,5.493,5.493,0,0,0,6.816,0,5.494,5.494,0,0,1,6.82,0,5.489,5.489,0,0,0,6.821,0,5.494,5.494,0,0,1,6.815,0,5.271,5.271,0,0,0,3.412,1.189Z" transform="translate(0.191 4.655)" fill="#6ceab4"/>
      <path id="Path_908339" data-name="Path 908339" d="M18.931,36.028H33.166a3.559,3.559,0,0,1-3.559-3.559V20.607A16.626,16.626,0,0,0,13,4v7.117a9.5,9.5,0,0,1,9.49,9.49V32.469A3.559,3.559,0,0,1,18.931,36.028Z" transform="translate(2.426 0.745)" fill="#4ed195"/>
      <path id="Path_908340" data-name="Path 908340" d="M7,1h7.117V15.235H7Z" transform="translate(1.308 0.186)" fill="#ffe26f"/>
      <circle id="Ellipse_12645" data-name="Ellipse 12645" cx="11.862" cy="11.862" r="11.862" transform="translate(29.66 1.186)" fill="#ffe26f"/>
      <path id="Path_908341" data-name="Path 908341" d="M32.02,4.934a7.279,7.279,0,0,1,7.071,0L36.731,9.05l-.007,0a2.4,2.4,0,0,0-2.349.006Z" transform="translate(5.968 0.748)" fill="#ffc54b"/>
      <path id="Path_908342" data-name="Path 908342" d="M31.667,17.649a7.133,7.133,0,0,1-3.536-6.122l4.745-.014a2.4,2.4,0,0,0,1.176,2.035Z" transform="translate(5.244 2.144)" fill="#ffc54b"/>
      <path id="Path_908343" data-name="Path 908343" d="M36.878,13.547a2.4,2.4,0,0,0,1.174-2.034l4.745.014a7.133,7.133,0,0,1-3.535,6.122h0Z" transform="translate(6.872 2.144)" fill="#ffc54b"/>
      <g id="Group_1112094" data-name="Group 1112094" transform="translate(-0.026)">
        <path id="Path_908344" data-name="Path 908344" d="M7.153,11.825.071,11.9.1,14.271,7.153,14.2v1.223a1.186,1.186,0,0,0,1.186,1.186h7.117a1.186,1.186,0,0,0,1.186-1.186V13.143a8.31,8.31,0,0,1,7.117,8.209v7.432a6.742,6.742,0,0,0-6.145,1.082,4.335,4.335,0,0,1-5.479,0,6.424,6.424,0,0,0-4.081-1.4,6.443,6.443,0,0,0-4.092,1.4,4.139,4.139,0,0,1-2.74.974,1.186,1.186,0,1,0,0,2.372,6.443,6.443,0,0,0,4.092-1.4,4.139,4.139,0,0,1,2.74-.974,4.118,4.118,0,0,1,2.727.972,6.433,6.433,0,0,0,4.094,1.4,6.434,6.434,0,0,0,4.094-1.4,4.118,4.118,0,0,1,2.727-.972,3.671,3.671,0,0,1,2.064.537v1.836a2.376,2.376,0,0,1-2.372,2.372,1.186,1.186,0,1,0,0,2.372,4.75,4.75,0,0,0,4.745-4.745V21.352a10.688,10.688,0,0,0-9.49-10.606V5.979a15.205,15.205,0,0,1,8.284,3.211,1.187,1.187,0,0,0,1.462-1.87,17.56,17.56,0,0,0-9.746-3.714V1.186A1.186,1.186,0,0,0,15.456,0H8.339A1.186,1.186,0,0,0,7.153,1.186V2.335L-.026,2.41,0,4.782l7.153-.074ZM9.525,2.372H14.27V14.235H9.525Z" transform="translate(0.026 0)" fill="#302b38"/>
        <path id="Path_908345" data-name="Path 908345" d="M44.116,24.469a6.424,6.424,0,0,0-4.081,1.4,4.321,4.321,0,0,1-5.466,0,6.738,6.738,0,0,0-6.17-1.077V22.667a1.186,1.186,0,0,0-2.372,0v6.547a4.749,4.749,0,0,0,4.745,4.745,1.186,1.186,0,1,0,0-2.372A2.376,2.376,0,0,1,28.4,29.214V27.39a3.7,3.7,0,0,1,2.087-.548,4.116,4.116,0,0,1,2.727.973,6.669,6.669,0,0,0,8.176,0,4.323,4.323,0,0,1,5.466,0,6.424,6.424,0,0,0,4.081,1.4,1.186,1.186,0,1,0,0-2.372,4.118,4.118,0,0,1-2.727-.972A6.434,6.434,0,0,0,44.116,24.469Z" transform="translate(4.877 4)" fill="#302b38"/>
        <path id="Path_908346" data-name="Path 908346" d="M55.778,46.373a4.121,4.121,0,0,1-2.732-.974,6.67,6.67,0,0,0-8.173,0,4.317,4.317,0,0,1-5.463,0,6.672,6.672,0,0,0-8.175,0,4.319,4.319,0,0,1-5.462,0,6.672,6.672,0,0,0-8.175,0,4.326,4.326,0,0,1-5.47,0A6.433,6.433,0,0,0,8.039,44a6.432,6.432,0,0,0-4.089,1.4,4.132,4.132,0,0,1-2.737.974,1.186,1.186,0,1,0,0,2.372,6.433,6.433,0,0,0,4.09-1.4,4.132,4.132,0,0,1,2.736-.974,4.133,4.133,0,0,1,2.737.974,6.432,6.432,0,0,0,4.089,1.4,6.434,6.434,0,0,0,4.089-1.4,4.32,4.32,0,0,1,5.464,0,6.668,6.668,0,0,0,8.173,0,4.318,4.318,0,0,1,5.464,0,6.67,6.67,0,0,0,8.174,0,4.317,4.317,0,0,1,5.462,0,6.433,6.433,0,0,0,4.086,1.4,1.186,1.186,0,1,0,0-2.372Z" transform="translate(0.036 8.194)" fill="#302b38"/>
        <path id="Path_908347" data-name="Path 908347" d="M55.778,36.373a4.121,4.121,0,0,1-2.732-.974,6.67,6.67,0,0,0-8.173,0,4.317,4.317,0,0,1-5.463,0,6.672,6.672,0,0,0-8.175,0,4.319,4.319,0,0,1-5.462,0,6.672,6.672,0,0,0-8.175,0,4.326,4.326,0,0,1-5.47,0A6.433,6.433,0,0,0,8.039,34a6.432,6.432,0,0,0-4.089,1.4,4.132,4.132,0,0,1-2.737.974,1.186,1.186,0,1,0,0,2.372,6.433,6.433,0,0,0,4.09-1.4,4.132,4.132,0,0,1,2.736-.974,4.133,4.133,0,0,1,2.737.974,6.432,6.432,0,0,0,4.089,1.4,6.434,6.434,0,0,0,4.089-1.4,4.32,4.32,0,0,1,5.464,0,6.668,6.668,0,0,0,8.173,0,4.318,4.318,0,0,1,5.464,0,6.67,6.67,0,0,0,8.174,0,4.317,4.317,0,0,1,5.462,0,6.433,6.433,0,0,0,4.086,1.4,1.186,1.186,0,1,0,0-2.372Z" transform="translate(0.036 6.331)" fill="#302b38"/>
        <path id="Path_908348" data-name="Path 908348" d="M37.074,26.1A13.048,13.048,0,1,0,24.026,13.048,13.048,13.048,0,0,0,37.074,26.1Zm0-23.724A10.676,10.676,0,1,1,26.4,13.048,10.676,10.676,0,0,1,37.074,2.372Z" transform="translate(4.505)" fill="#302b38"/>
        <path id="Path_908349" data-name="Path 908349" d="M33.564,9.826a1.191,1.191,0,0,0,.724.558,1.207,1.207,0,0,0,.9-.123,1.217,1.217,0,0,1,1.149,0,1.2,1.2,0,0,0,.6.162,1.181,1.181,0,0,0,1.029-.6L40.331,5.71a1.186,1.186,0,0,0-.438-1.618,8.464,8.464,0,0,0-8.253,0A1.186,1.186,0,0,0,31.2,5.71Zm4.059-4.161L36.4,7.8a3.7,3.7,0,0,0-1.265,0L33.911,5.665a6.045,6.045,0,0,1,3.711,0Z" transform="translate(5.812 0.562)" fill="#302b38"/>
        <path id="Path_908350" data-name="Path 908350" d="M31.285,18.861a1.186,1.186,0,0,0,1.619-.43l2.384-4.1A1.185,1.185,0,0,0,34.85,12.7a1.216,1.216,0,0,1-.575-1,1.186,1.186,0,0,0-1.186-1.193h0l-4.745.014a1.186,1.186,0,0,0-1.183,1.189,8.317,8.317,0,0,0,4.128,7.146Zm.828-5.974a3.56,3.56,0,0,0,.269.576,3.669,3.669,0,0,0,.364.52l-1.235,2.126A5.978,5.978,0,0,1,29.655,12.9Z" transform="translate(5.088 1.958)" fill="#302b38"/>
        <path id="Path_908351" data-name="Path 908351" d="M38.265,10.513a1.186,1.186,0,0,0-1.186,1.193,1.214,1.214,0,0,1-.574,1,1.185,1.185,0,0,0-.439,1.628l2.384,4.1a1.186,1.186,0,0,0,1.62.43A8.317,8.317,0,0,0,44.2,11.715a1.186,1.186,0,0,0-1.183-1.189l-4.745-.014Zm.706,2.953a3.632,3.632,0,0,0,.27-.578L41.7,12.9a5.977,5.977,0,0,1-1.856,3.213l-1.235-2.126a3.644,3.644,0,0,0,.363-.518Z" transform="translate(6.717 1.958)" fill="#302b38"/>
        <circle id="Ellipse_12646" data-name="Ellipse 12646" cx="1.186" cy="1.186" r="1.186" transform="translate(40.393 11.862)" fill="#302b38"/>
      </g>
    </g>
  </g>
</svg>
