<svg xmlns="http://www.w3.org/2000/svg" width="100.077" height="105.778" viewBox="0 0 100.077 105.778">
  <g id="normativa-medioambiental" transform="translate(-13.79 0.01)">
    <g id="Group_1112264" data-name="Group 1112264" transform="translate(15.463 1.668)">
      <path id="Path_908916" data-name="Path 908916" d="M65.51,8.11H32.759A10.9,10.9,0,0,0,21.89,18.975V33.413H65.51Z" transform="translate(-21.89 -8.11)" fill="#8bd7fa" fill-rule="evenodd"/>
      <path id="Path_908917" data-name="Path 908917" d="M149.5,8.11a10.9,10.9,0,0,1,10.869,10.865v91.559H85.379V18.975A10.9,10.9,0,0,0,74.51,8.11Z" transform="translate(-63.639 -8.11)" fill="#daeafa" fill-rule="evenodd"/>
      <path id="Path_908918" data-name="Path 908918" d="M177.159,57.15a16.452,16.452,0,0,1-14.7,14.91c3.12,19.035,10.466,37.9,30.193,44.6,19.721-6.7,27.074-25.57,30.189-44.6A16.444,16.444,0,0,1,208.15,57.15Z" transform="translate(-133.42 -47.019)" fill="#0593fc" fill-rule="evenodd"/>
      <path id="Path_908919" data-name="Path 908919" d="M212.4,89.82A23.269,23.269,0,0,1,200.17,102.8c2.983,13.666,8.9,26.9,22.4,32.563,13.5-5.665,19.422-18.9,22.4-32.563A23.242,23.242,0,0,1,232.747,89.82Z" transform="translate(-163.339 -72.939)" fill="#daeafa" fill-rule="evenodd"/>
      <path id="Path_908920" data-name="Path 908920" d="M282.316,128.16c4.175,2.591,6.846,6.534,6.846,10.949s-2.671,8.359-6.846,10.949c-4.181-2.591-6.846-6.534-6.846-10.949S278.135,130.753,282.316,128.16Z" transform="translate(-223.083 -103.359)" fill="#093" fill-rule="evenodd"/>
      <path id="Path_908921" data-name="Path 908921" d="M318.672,154.35a15.592,15.592,0,0,1-14.546,19.291c-1.074-4.392-2.909-10.086,2.694-13.1C312.069,158.054,315.269,158.383,318.672,154.35Z" transform="translate(-244.892 -124.138)" fill="#70da40" fill-rule="evenodd"/>
      <path id="Path_908922" data-name="Path 908922" d="M307.68,197.3a15.981,15.981,0,0,1-3.539.552c-1.062-4.336-2.857-9.937,2.483-12.984a10.182,10.182,0,0,1,1.971,5.768A23.138,23.138,0,0,1,307.68,197.3Z" transform="translate(-244.905 -148.353)" fill="#65c43a" fill-rule="evenodd"/>
      <path id="Path_908923" data-name="Path 908923" d="M236.485,154.35a15.592,15.592,0,0,0,14.546,19.291c1.074-4.392,2.909-10.086-2.7-13.1C243.081,158.054,239.881,158.383,236.485,154.35Z" transform="translate(-191.795 -124.138)" fill="#70da40" fill-rule="evenodd"/>
      <path id="Path_908924" data-name="Path 908924" d="M61.39,8.451A10.917,10.917,0,0,1,69.935,19.07V33.411h5.035V18.975A10.9,10.9,0,0,0,64.134,8.11H64.1A10.968,10.968,0,0,0,61.39,8.451Z" transform="translate(-53.23 -8.11)" fill="#7dc2e1" fill-rule="evenodd"/>
      <path id="Path_908925" data-name="Path 908925" d="M225,134.225c-11.8-6.171-17.182-18.608-19.984-31.427A23.252,23.252,0,0,0,217.253,89.82h-4.84a23.258,23.258,0,0,1-5.444,8.34c-.029.029-.058.058-.085.081a23.241,23.241,0,0,1-6.7,4.557c2.983,13.666,8.9,26.9,22.4,32.563C223.417,135.01,224.223,134.634,225,134.225Z" transform="translate(-163.347 -72.939)" fill="#c4d3e1" fill-rule="evenodd"/>
      <path id="Path_908926" data-name="Path 908926" d="M277.67,138.863c.1-3.944,2.312-7.489,5.824-10.011-.324-.24-.665-.467-1.016-.682-3.869,2.4-6.444,5.954-6.807,9.972.636.215,1.3.448,2,.721Z" transform="translate(-223.241 -103.367)" fill="#008a2e" fill-rule="evenodd"/>
    </g>
    <path id="Path_908927" data-name="Path 908927" d="M101.337-.01H26.32A12.545,12.545,0,0,0,13.79,12.52V26.96a1.654,1.654,0,0,0,1.655,1.655H35.534v75.5a1.654,1.654,0,0,0,1.655,1.655h75.023a1.654,1.654,0,0,0,1.655-1.655V12.52A12.545,12.545,0,0,0,101.337-.01ZM17.1,25.306V12.52a9.217,9.217,0,1,1,18.434,0V25.3H17.1Zm93.458,77.155H38.843V12.52A12.494,12.494,0,0,0,34.79,3.3h66.547a9.23,9.23,0,0,1,9.22,9.22ZM51.945,54.476A40.529,40.529,0,0,0,74.17,72.888a1.643,1.643,0,0,0,1.066,0A40.523,40.523,0,0,0,97.455,54.476c4.256-7.2,7.227-16.195,9.082-27.512a1.653,1.653,0,0,0-1.465-1.913A14.8,14.8,0,0,1,91.848,11.638a1.656,1.656,0,0,0-1.649-1.51h-31a1.654,1.654,0,0,0-1.649,1.51A14.793,14.793,0,0,1,44.33,25.052a1.653,1.653,0,0,0-1.465,1.913c1.853,11.317,4.824,20.316,9.08,27.512Zm8.71-41.041H88.747A18.13,18.13,0,0,0,102.99,28.078C98.93,50.941,89.91,64.165,74.7,69.57c-15.211-5.4-24.233-18.626-28.293-41.49A18.119,18.119,0,0,0,60.655,13.435ZM74.063,65.62a1.634,1.634,0,0,0,.64.128,1.672,1.672,0,0,0,.64-.128C87.208,60.639,94.858,49.6,98.732,31.875a1.655,1.655,0,0,0-.94-1.863A21.744,21.744,0,0,1,86.423,17.953a1.655,1.655,0,0,0-1.547-1.068H64.527a1.655,1.655,0,0,0-1.547,1.068A21.744,21.744,0,0,1,51.611,30.012a1.654,1.654,0,0,0-.94,1.863C54.544,49.6,62.194,60.639,74.063,65.62ZM65.638,20.193H83.762A25.12,25.12,0,0,0,95.212,32.439C91.584,47.965,84.863,57.747,74.7,62.29c-10.164-4.543-16.885-14.325-20.514-29.85A25.111,25.111,0,0,0,65.638,20.193Zm40.919,59.426a1.654,1.654,0,0,1-1.655,1.655H44.5a1.655,1.655,0,1,1,0-3.31H104.9A1.654,1.654,0,0,1,106.558,79.618Zm0,8.1a1.654,1.654,0,0,1-1.655,1.655H44.5a1.655,1.655,0,1,1,0-3.31H104.9A1.656,1.656,0,0,1,106.558,87.717Zm-30.2,8.1A1.654,1.654,0,0,1,74.7,97.472H44.5a1.655,1.655,0,0,1,0-3.31H74.7A1.654,1.654,0,0,1,76.358,95.817ZM74.691,52.824h.072a17.258,17.258,0,0,0,16.1-21.347,1.655,1.655,0,0,0-2.872-.676,10.732,10.732,0,0,1-5.2,3.44,15.792,15.792,0,0,0-7.22-9.189,1.652,1.652,0,0,0-1.746,0A15.8,15.8,0,0,0,66.6,34.241a10.732,10.732,0,0,1-5.2-3.44,1.655,1.655,0,0,0-2.872.676,17.258,17.258,0,0,0,16.1,21.347Zm13.356-17.55a13.947,13.947,0,0,1-11.168,13.97c.62-2.692,1.1-5.911-.171-8.675a6.652,6.652,0,0,1,1.438-1.031,39.852,39.852,0,0,1,4.388-1.706A19.128,19.128,0,0,0,88.047,35.274ZM74.7,28.444a12.041,12.041,0,0,1,4.954,6.894c-.913.335-1.9.727-2.967,1.231-.027.012-.054.027-.081.041a10.329,10.329,0,0,0-1.9,1.312,10.429,10.429,0,0,0-1.917-1.314c-.025-.014-.052-.027-.076-.039-1.07-.506-2.054-.9-2.965-1.231A12.014,12.014,0,0,1,74.7,28.444ZM64.165,43.977a13.917,13.917,0,0,1-2.812-8.706,19.177,19.177,0,0,0,5.512,2.56,40.034,40.034,0,0,1,4.39,1.706C74.181,41.13,74.546,43.51,74,46.772a18.68,18.68,0,0,0-4.679-4.549,1.654,1.654,0,0,0-1.83,2.756A15.531,15.531,0,0,1,71.526,49a13.878,13.878,0,0,1-7.361-5.026Z" transform="translate(0)"/>
  </g>
</svg>
