<svg xmlns="http://www.w3.org/2000/svg" xmlns:xlink="http://www.w3.org/1999/xlink" width="136" height="136" viewBox="0 0 136 136">
  <defs>
    <filter id="Ellipse_11661" x="0" y="0" width="136" height="136" filterUnits="userSpaceOnUse">
      <feOffset dy="3" input="SourceAlpha"/>
      <feGaussianBlur stdDeviation="3" result="blur"/>
      <feFlood flood-opacity="0.161"/>
      <feComposite operator="in" in2="blur"/>
      <feComposite in="SourceGraphic"/>
    </filter>
  </defs>
  <g id="Group_1112326" data-name="Group 1112326" transform="translate(-2698.889 5620.335)">
    <g transform="matrix(1, 0, 0, 1, 2698.89, -5620.33)" filter="url(#Ellipse_11661)">
      <circle id="Ellipse_11661-2" data-name="Ellipse 11661" cx="59" cy="59" r="59" transform="translate(9 6)" fill="#fff"/>
    </g>
    <g id="Group_1112095" data-name="Group 1112095" transform="translate(2739.798 -5534.291)">
      <path id="Path_908352" data-name="Path 908352" d="M70.132,440.787v-5.3a5.137,5.137,0,0,1-3.785-1.507,5.2,5.2,0,0,0-7.284,0,5.2,5.2,0,0,1-7.284,0,5.15,5.15,0,0,0-7.284,0,5.2,5.2,0,0,1-7.284,0,5.15,5.15,0,0,0-7.284,0h0a5.151,5.151,0,0,1-7.284,0h0a5.151,5.151,0,0,0-7.284,0h0a5.135,5.135,0,0,1-3.642,1.509v5.3Z" transform="translate(-11.716 -432.474)" fill="#bedaff"/>
    </g>
    <g id="Group_1112096" data-name="Group 1112096" transform="translate(2754.678 -5563.727)">
      <path id="Path_908353" data-name="Path 908353" d="M146.936,186.283h20.711v6.466H147.592a4.108,4.108,0,0,0-4.108,4.108v.449h-7.322v-.25A10.773,10.773,0,0,1,146.936,186.283Z" transform="translate(-136.162 -186.283)" fill="#c6d8d8"/>
    </g>
    <g id="Group_1112097" data-name="Group 1112097" transform="translate(2791.816 -5563.727)">
      <path id="Path_908354" data-name="Path 908354" d="M446.772,186.283h6.4v6.466h-6.4Z" transform="translate(-446.772 -186.283)" fill="#c6d8d8"/>
    </g>
    <g id="Group_1112098" data-name="Group 1112098" transform="translate(2752.974 -5552.704)">
      <path id="Path_908355" data-name="Path 908355" d="M121.91,278.474h10.831v5.655H121.91Z" transform="translate(-121.91 -278.474)" fill="#c6d8d8"/>
    </g>
    <g id="Group_1112099" data-name="Group 1112099" transform="translate(2786.162 -5566.009)">
      <path id="Path_908356" data-name="Path 908356" d="M399.483,167.2h5.655v10.831h-5.655Z" transform="translate(-399.483 -167.197)" fill="#c6d8d8"/>
    </g>
    <g id="Group_1112100" data-name="Group 1112100" transform="translate(2767.6 -5568.754)">
      <path id="Path_908357" data-name="Path 908357" d="M244.24,144.235h5.323v5.027H244.24Z" transform="translate(-244.24 -144.235)" fill="#c6d8d8"/>
    </g>
    <g id="Group_1112101" data-name="Group 1112101" transform="translate(2745.735 -5581.648)">
      <path id="Path_908358" data-name="Path 908358" d="M61.367,36.393H68.3V51.92H61.367Z" transform="translate(-61.367 -36.393)" fill="#868eaf"/>
    </g>
    <g id="Group_1112102" data-name="Group 1112102" transform="translate(2752.663 -5584.804)">
      <path id="Path_908359" data-name="Path 908359" d="M119.315,15.008H121.1a6.04,6.04,0,0,0,2.692-.633l6.794-3.741A7.437,7.437,0,0,1,134.027,10a6.04,6.04,0,0,1,3.587,1.18l7.355,5.785a5.034,5.034,0,0,1-2.99,9.084H119.315Z" transform="translate(-119.315 -10)" fill="#ffdad5"/>
    </g>
    <g id="Group_1112103" data-name="Group 1112103" transform="translate(2739.798 -5582.914)">
      <path id="Path_908360" data-name="Path 908360" d="M11.716,42.6h5.937V27.078l-5.937-1.265Z" transform="translate(-11.716 -25.813)" fill="#c6d8d8"/>
    </g>
    <g id="Group_1112104" data-name="Group 1112104" transform="translate(2755.158 -5547.05)">
      <path id="Path_908361" data-name="Path 908361" d="M146.393,330.669a3.1,3.1,0,0,1-6.21,0,4.6,4.6,0,0,1,.593-1.967l1.359-2.939h2.3l1.343,2.9A4.715,4.715,0,0,1,146.393,330.669Z" transform="translate(-140.183 -325.763)" fill="#bedaff"/>
    </g>
    <g id="Group_1112105" data-name="Group 1112105" transform="translate(2738.602 -5586)">
      <path id="Path_908362" data-name="Path 908362" d="M61.295,425.513a3.916,3.916,0,0,1-2.907-1.157,6.405,6.405,0,0,0-8.975,0,3.991,3.991,0,0,1-5.593,0,6.354,6.354,0,0,0-8.975,0,3.991,3.991,0,0,1-5.593,0,6.354,6.354,0,0,0-8.975,0l-.008.009a3.96,3.96,0,0,1-5.58,0l-.006-.006a6.354,6.354,0,0,0-8.975,0l-.006.006a3.929,3.929,0,0,1-2.791,1.153,1.2,1.2,0,0,0-1.2,1.2v5.3a1.2,1.2,0,0,0,1.2,1.2H61.328a1.2,1.2,0,0,0,1.2-1.2v-5.3a1.2,1.2,0,0,0-1.229-1.2Zm-1.163,5.3H4.107v-3.016A6.3,6.3,0,0,0,7.4,426.047l.006-.006a3.96,3.96,0,0,1,5.582,0l.007.007a6.354,6.354,0,0,0,8.975,0l.009-.009a3.959,3.959,0,0,1,5.585.008,6.406,6.406,0,0,0,8.975,0,3.959,3.959,0,0,1,5.593,0,6.405,6.405,0,0,0,8.975,0,3.992,3.992,0,0,1,5.593,0,6.375,6.375,0,0,0,3.435,1.769v2.993Z" transform="translate(-1.716 -371.983)"/>
      <path id="Path_908363" data-name="Path 908363" d="M61.327,27.544h-5.2V23.469h5.2a1.2,1.2,0,1,0,0-2.391h-5.2V19.991a1.2,1.2,0,0,0-1.2-1.2H49.274a1.2,1.2,0,0,0-1.2,1.2v1.086H37.231V18.441H38.44a6.23,6.23,0,0,0,3.715-11.23L34.814,1.436l-.029-.022A7.188,7.188,0,0,0,30.487,0a8.134,8.134,0,0,0-4.021.781L19.7,4.51a4.869,4.869,0,0,1-2.138.5h-.586V4.351a1.2,1.2,0,0,0-1.2-1.2h-6.8L3.159,1.917a1.2,1.2,0,0,0-.5,2.339l4.99,1.063V18.683H2.91a1.2,1.2,0,1,0,0,2.391H15.775a1.2,1.2,0,0,0,1.2-1.2V18.441H29.517v2.636h-.953A11.985,11.985,0,0,0,16.631,32.1h-.546a1.2,1.2,0,0,0-1.2,1.2v5.655a1.2,1.2,0,0,0,1.2,1.2h2.267a9.182,9.182,0,0,0-1.278,3.71,4.3,4.3,0,0,0,8.6,0,9.19,9.19,0,0,0-1.279-3.71h2.519a1.2,1.2,0,0,0,1.2-1.2V33.3a1.2,1.2,0,0,0-1.2-1.2h-.511a2.917,2.917,0,0,1,2.815-2.165h4.965a1.2,1.2,0,1,0,0-2.391H29.22A5.312,5.312,0,0,0,23.969,32.1H19.032a9.591,9.591,0,0,1,9.532-8.632H48.078v4.078s-3.458,0-3.5,0a1.2,1.2,0,0,0,.087,2.392h3.416v.884a1.2,1.2,0,0,0,1.2,1.2h5.655a1.2,1.2,0,0,0,1.2-1.2v-.887h5.2a1.2,1.2,0,0,0,0-2.391ZM23.127,43.1a2.027,2.027,0,0,1,.157.76,1.909,1.909,0,1,1-3.818,0,2.487,2.487,0,0,1,.2-.9c.176-.448,1.324-2.809,1.324-2.809h.776l1.364,2.95Zm2.593-5.341H17.281V34.492h8.439ZM14.58,18.683H10.042V5.547H14.58V18.683Zm2.391-2.633V7.4h.586a6.914,6.914,0,0,0,3.269-.781L27.6,2.889a6.285,6.285,0,0,1,2.89-.5,4.812,4.812,0,0,1,2.863.936L40.69,9.1a3.907,3.907,0,0,1,1.345,4.454,3.855,3.855,0,0,1-3.453,2.489,4.078,4.078,0,0,0,.373-1.707,4.138,4.138,0,0,0-1.8-3.4L31.7,6.995a2.7,2.7,0,0,0-3.209-.005L26.311,8.774a2.188,2.188,0,0,0,1.377,3.852h7.164a1.712,1.712,0,1,1,0,3.424Zm15.124-5.815H28.3l1.641-1.345a.312.312,0,0,1,.33.027l.015.011Zm-.187,10.843V18.441H34.84v2.636Zm18.562,8.549V21.187h3.263v8.439Z" transform="translate(-1.714 0)"/>
      <path id="Path_908364" data-name="Path 908364" d="M307.185,232.286a1.2,1.2,0,1,0,.2-1.561A1.209,1.209,0,0,0,307.185,232.286Z" transform="translate(-270.487 -202.883)"/>
    </g>
  </g>
</svg>
