<svg id="regando-plantas_1_" data-name="regando-plantas (1)" xmlns="http://www.w3.org/2000/svg" width="108.784" height="108.783" viewBox="0 0 108.784 108.783">
  <g id="Group_1112261" data-name="Group 1112261" transform="translate(1.7 1.699)">
    <path id="Path_908894" data-name="Path 908894" d="M66.876,16.525A11.966,11.966,0,0,1,56.9,34.992a11.937,11.937,0,0,1-8.312-3.473A11.763,11.763,0,0,1,45,23.111a12.157,12.157,0,0,1,1.921-6.587L56.9,1Z" transform="translate(29.789 -0.999)" fill="#7cd4f2"/>
    <path id="Path_908895" data-name="Path 908895" d="M51.131,25.444A14.878,14.878,0,0,1,53.6,33.671c0,8.176-7.19,14.822-15.3,14.822a15.582,15.582,0,0,1-10.691-4.351A14.527,14.527,0,0,1,23,33.671a14.878,14.878,0,0,1,2.465-8.227L38.3,6Z" transform="translate(14.395 2.5)" fill="#4bb9ea"/>
    <path id="Path_908896" data-name="Path 908896" d="M26.876,16.525A12.161,12.161,0,0,1,28.8,23.111,11.763,11.763,0,0,1,25.21,31.52,11.937,11.937,0,0,1,16.9,34.992,11.966,11.966,0,0,1,6.921,16.525L16.9,1Z" transform="translate(1.799 -0.999)" fill="#7cd4f2"/>
    <path id="Path_908897" data-name="Path 908897" d="M38,54V71H29.5V54H38Z" transform="translate(18.943 36.088)" fill="#7fc94f"/>
    <path id="Path_908898" data-name="Path 908898" d="M84.692,33v8.5a27.189,27.189,0,0,1-27.2,27.2H32C49,41.5,84.692,33,84.692,33Z" transform="translate(20.692 21.393)" fill="#5eb132"/>
    <path id="Path_908899" data-name="Path 908899" d="M84.692,33S49,41.5,32,68.694V60.2A27.189,27.189,0,0,1,59.2,33Z" transform="translate(20.692 21.393)" fill="#7fc94f"/>
    <path id="Path_908900" data-name="Path 908900" d="M53.692,60.2v8.5C36.695,41.5,1,33,1,33H26.5a27.16,27.16,0,0,1,27.2,27.2Z" transform="translate(-1 21.393)" fill="#7fc94f"/>
    <path id="Path_908901" data-name="Path 908901" d="M1,33s35.695,8.5,52.692,35.695H28.2A27.189,27.189,0,0,1,1,41.5Z" transform="translate(-1 21.393)" fill="#5eb132"/>
  </g>
  <g id="Group_1112262" data-name="Group 1112262" transform="translate(0 0)">
    <path id="Path_908902" data-name="Path 908902" d="M39,50.872c9.213,0,17-7.566,17-16.522a16.5,16.5,0,0,0-2.747-9.163L40.415,5.742a1.764,1.764,0,0,0-2.837,0L24.748,25.184A16.5,16.5,0,0,0,22,34.351a16.13,16.13,0,0,0,5.13,11.7A17.341,17.341,0,0,0,39,50.872ZM27.584,27.061,39,9.766l11.417,17.3A13.127,13.127,0,0,1,52.6,34.353c0,7.113-6.228,13.122-13.6,13.122A13.915,13.915,0,0,1,29.482,43.6,12.764,12.764,0,0,1,25.4,34.353a13.122,13.122,0,0,1,2.184-7.29Z" transform="translate(15.394 3.519)" fill="#252525"/>
    <path id="Path_908903" data-name="Path 908903" d="M57.6,37.393A13.669,13.669,0,0,0,69.007,16.3L59.029.731a1.765,1.765,0,0,0-2.862,0L46.191,16.3A13.859,13.859,0,0,0,44,23.81a13.384,13.384,0,0,0,4.1,9.626,13.56,13.56,0,0,0,9.5,3.957ZM49.052,18.142,57.6,4.8l8.548,13.343A10.464,10.464,0,0,1,67.8,23.81,10.325,10.325,0,0,1,57.6,33.989,10.172,10.172,0,0,1,50.474,31,10,10,0,0,1,47.4,23.81a10.461,10.461,0,0,1,1.652-5.669Z" transform="translate(30.789 0)" fill="#252525"/>
    <path id="Path_908904" data-name="Path 908904" d="M52.7,21.483a6.964,6.964,0,0,0,6.8-6.774,1.7,1.7,0,1,0-3.4,0,3.617,3.617,0,0,1-3.4,3.371,1.7,1.7,0,0,0,0,3.4Z" transform="translate(35.687 9.103)" fill="#252525"/>
    <path id="Path_908905" data-name="Path 908905" d="M17.6,37.393a13.56,13.56,0,0,0,9.5-3.957,13.384,13.384,0,0,0,4.1-9.626A13.862,13.862,0,0,0,29.007,16.3L19.029.731a1.765,1.765,0,0,0-2.862,0L6.191,16.3A13.668,13.668,0,0,0,17.6,37.393ZM9.052,18.143,17.6,4.8l8.548,13.343a10.464,10.464,0,0,1,1.65,5.667A10,10,0,0,1,24.722,31,10.182,10.182,0,0,1,17.6,33.99,10.325,10.325,0,0,1,7.4,23.812a10.461,10.461,0,0,1,1.652-5.669Z" transform="translate(2.799 0)" fill="#252525"/>
    <path id="Path_908906" data-name="Path 908906" d="M14.8,21.483a1.7,1.7,0,0,0,0-3.4,3.615,3.615,0,0,1-3.4-3.371,1.7,1.7,0,1,0-3.4,0A6.964,6.964,0,0,0,14.8,21.483Z" transform="translate(5.598 9.103)" fill="#252525"/>
    <path id="Path_908907" data-name="Path 908907" d="M32.7,30.757c4.528,0,8.5-3.471,8.5-7.428a1.7,1.7,0,1,0-3.4,0c0,2.033-2.526,4.028-5.1,4.028a1.7,1.7,0,0,0,0,3.4Z" transform="translate(21.692 15.136)" fill="#252525"/>
    <path id="Path_908908" data-name="Path 908908" d="M107.084,32h-25.5A28.944,28.944,0,0,0,54.4,51.1,28.885,28.885,0,0,0,27.2,32H1.7A1.7,1.7,0,0,0,0,33.7v8.5a28.928,28.928,0,0,0,28.9,28.9H48.443v13.6a1.7,1.7,0,1,0,3.4,0v-13.6h5.1v13.6a1.7,1.7,0,1,0,3.4,0v-13.6H79.888a28.928,28.928,0,0,0,28.9-28.9V33.7a1.7,1.7,0,0,0-1.7-1.7ZM28.9,67.694A25.525,25.525,0,0,1,3.4,42.2V35.4H27.2a25.462,25.462,0,0,1,25.5,25.5V63.97C46.458,55.684,37.955,48.443,27.3,42.417a1.7,1.7,0,1,0-1.674,2.959c10.963,6.2,19.528,13.705,25.563,22.316h-22.3Zm76.489-25.5a25.525,25.525,0,0,1-25.5,25.5H57.559c8.871-12.639,21.9-20.766,31.569-25.444a1.7,1.7,0,1,0-1.48-3.058c-9.575,4.634-22.335,12.561-31.554,24.77V60.9a25.525,25.525,0,0,1,25.5-25.5h23.8v6.8Z" transform="translate(0 22.391)" fill="#252525"/>
    <ellipse id="Ellipse_12655" data-name="Ellipse 12655" cx="1.7" cy="1.7" rx="1.7" ry="1.7" transform="translate(18.697 61.413)" fill="#252525"/>
  </g>
</svg>
