<svg id="residuos" xmlns="http://www.w3.org/2000/svg" width="93.612" height="93.612" viewBox="0 0 93.612 93.612">
  <rect id="Rectangle_405243" data-name="Rectangle 405243" width="13.145" height="70.209" transform="translate(76.06 15.358)" fill="#f1f2f2"/>
  <rect id="Rectangle_405244" data-name="Rectangle 405244" width="13.145" height="23.403" transform="translate(76.06 38.761)" fill="#bcbec0"/>
  <rect id="Rectangle_405245" data-name="Rectangle 405245" width="13.145" height="70.209" transform="translate(4.388 15.358)" fill="#f1f2f2"/>
  <g id="Group_1112263" data-name="Group 1112263" transform="translate(4.388 2.206)">
    <rect id="Rectangle_405246" data-name="Rectangle 405246" width="13.145" height="23.403" transform="translate(0 36.556)" fill="#bcbec0"/>
    <rect id="Rectangle_405247" data-name="Rectangle 405247" width="58" height="90" transform="translate(13.481 -0.436)" fill="#bcbec0"/>
  </g>
  <path id="Path_908909" data-name="Path 908909" d="M256,14.667v12.4a3.748,3.748,0,0,0,3.748,3.748h0a3.748,3.748,0,0,0,3.748-3.748V23.687a3.657,3.657,0,0,1,3.657-3.657h0a3.657,3.657,0,0,1,3.657,3.657v9.045a3.565,3.565,0,0,0,3.565,3.565h0a3.565,3.565,0,0,0,3.565-3.565V14.667Z" transform="translate(-209.194 -11.985)" fill="#a3ed5c"/>
  <rect id="Rectangle_405248" data-name="Rectangle 405248" width="58" height="32" transform="translate(17.869 30.771)" fill="#f1f2f2"/>
  <path id="Path_908910" data-name="Path 908910" d="M169.867,209.495a14.482,14.482,0,0,0,17.4,17.376,14.482,14.482,0,0,0-17.4-17.376Z" transform="translate(-138.436 -170.821)" fill="#a3ed5c"/>
  <path id="Path_908911" data-name="Path 908911" d="M246.741,213.357a13.785,13.785,0,0,0-3.867,13.515,14.482,14.482,0,0,0,17.4-17.376A13.839,13.839,0,0,0,246.741,213.357Z" transform="translate(-198.096 -170.821)" fill="#59aa33"/>
  <path id="Path_908912" data-name="Path 908912" d="M158.407,159.657h.023a1.828,1.828,0,1,0,0-3.657h-.023a1.828,1.828,0,1,0,0,3.657Z" transform="translate(-127.951 -127.477)"/>
  <path id="Path_908913" data-name="Path 908913" d="M194.251,200.841a1.829,1.829,0,0,0-1.2-1.278,15.593,15.593,0,0,0-15.4,4.3,18.275,18.275,0,0,0-1.539,1.743,1.828,1.828,0,0,0-.268-2.419,15.542,15.542,0,0,0-14.69-3.627,1.829,1.829,0,0,0-1.2,1.277,15.641,15.641,0,0,0,4.346,15.267,17.038,17.038,0,0,0,4.365,3.186,1.828,1.828,0,0,0,1.644-3.267,13.383,13.383,0,0,1-3.425-2.508,12.05,12.05,0,0,1-3.63-10.7,12.046,12.046,0,0,1,10.141,3.092,1.829,1.829,0,0,0,2.582-.138c.029-.033.056-.067.082-.1a15.792,15.792,0,0,0-2.545,4.821l-3.712-3.7a1.828,1.828,0,0,0-2.582,2.589l5.565,5.551a13.935,13.935,0,0,0,.551,4.322,1.828,1.828,0,0,0,1.16,1.159,13.778,13.778,0,0,0,4.038.552,16.43,16.43,0,0,0,15.711-20.122Zm-34.334.224a1.748,1.748,0,0,1,.043-.223A1.844,1.844,0,0,0,159.917,201.065Zm27.4,12.454a12.3,12.3,0,0,1-8.276,3.78l8.057-8.037a1.828,1.828,0,0,0-2.583-2.589l-8.06,8.041a12.265,12.265,0,0,1,3.777-8.259,12.128,12.128,0,0,1,10.715-3.636A12.049,12.049,0,0,1,187.321,213.519Z" transform="translate(-130.3 -162.624)"/>
  <path id="Path_908914" data-name="Path 908914" d="M91.784,83.739h-.75V17.187h.75a1.828,1.828,0,1,0,0-3.657h-13.9V3.657h1.828a1.828,1.828,0,0,0,0-3.657H13.9a1.828,1.828,0,0,0,0,3.657h1.828V13.53H1.828a1.828,1.828,0,1,0,0,3.657h.712V83.739H1.828a1.828,1.828,0,0,0,0,3.657h13.9v2.56H13.9a1.828,1.828,0,1,0,0,3.657H79.717a1.828,1.828,0,0,0,0-3.657H77.888V87.4h13.9a1.828,1.828,0,0,0,0-3.657ZM57.959,6.216A5.491,5.491,0,0,0,52.474,11.7v3.382a1.92,1.92,0,1,1-3.84,0V3.657H66.918v17.09a1.737,1.737,0,1,1-3.474,0V11.7A5.491,5.491,0,0,0,57.959,6.216ZM6.2,83.739V63.993H9.873a1.828,1.828,0,0,0,0-3.657H6.2V40.59H9.873a1.828,1.828,0,0,0,0-3.657H6.2V17.187h9.527V83.739Zm13.183,6.216V65.09h37.65a1.828,1.828,0,0,0,0-3.657H19.381V32.179h5.042a1.828,1.828,0,0,0,0-3.657H19.381V3.657h25.6V15.084a5.577,5.577,0,0,0,11.153,0V11.7a1.828,1.828,0,1,1,3.657,0v9.045a5.394,5.394,0,1,0,10.787,0V3.657h3.657V28.523H36.582a1.828,1.828,0,0,0,0,3.657h37.65V61.433H69.189a1.828,1.828,0,1,0,0,3.657h5.042V89.956Zm58.508-6.216V17.187h9.488V36.933H82.825a1.828,1.828,0,1,0,0,3.657h4.552V60.336H82.825a1.828,1.828,0,1,0,0,3.657h4.552V83.739Z"/>
  <path id="Path_908915" data-name="Path 908915" d="M337.146,336h-.023a1.828,1.828,0,0,0,0,3.657h.023a1.828,1.828,0,0,0,0-3.657Z" transform="translate(-273.991 -274.567)"/>
</svg>
