<svg xmlns="http://www.w3.org/2000/svg" width="190" height="73.333" viewBox="0 0 190 73.333">
  <g id="Group_1112118" data-name="Group 1112118" transform="translate(-285 -7001.355)">
    <g id="Group_1112117" data-name="Group 1112117" transform="translate(-53.183 1477.043)">
      <g id="Group_1111712" data-name="Group 1111712" transform="translate(338.183 5524.313)">
        <g id="Group_1111655" data-name="Group 1111655" transform="translate(0 0)">
          <rect id="Rectangle_405035" data-name="Rectangle 405035" width="190" height="73.333" transform="translate(0)" fill="#f1f4fe"/>
        </g>
      </g>
    </g>
    <g id="suelo" transform="translate(353.768 7011.199)">
      <path id="Path_908367" data-name="Path 908367" d="M34.147,5l-5.56,10.657H1V30.413H51.825V5Z" transform="translate(-0.18 -0.721)" fill="#d19b80"/>
      <path id="Path_908368" data-name="Path 908368" d="M34.688,5l-5.56,10.657H4V30.413H52.366V5Z" transform="translate(-0.721 -0.721)" fill="#be7860"/>
      <path id="Path_908369" data-name="Path 908369" d="M51.825,34c-3.181,0-3.181,1.64-6.353,1.64S42.292,34,39.111,34s-3.172,1.64-6.353,1.64S29.585,34,26.413,34s-3.172,1.64-6.345,1.64S16.887,34,13.715,34s-3.181,1.64-6.361,1.64S4.181,34,1,34v9.837H51.825Z" transform="translate(-0.18 -5.948)" fill="#647896"/>
      <path id="Path_908370" data-name="Path 908370" d="M46.013,35.64c-3.181,0-3.181-1.64-6.361-1.64s-3.172,1.64-6.353,1.64S30.126,34,26.953,34s-3.172,1.64-6.345,1.64S17.428,34,14.255,34s-3.181,1.64-6.361,1.64A7.52,7.52,0,0,1,4,34.469V42.2H52.366V34C49.186,34,49.186,35.64,46.013,35.64Z" transform="translate(-0.721 -5.948)" fill="#506480"/>
      <path id="Path_908371" data-name="Path 908371" d="M51.825,40c-3.181,0-3.181,1.64-6.353,1.64S42.292,40,39.111,40s-3.172,1.64-6.353,1.64S29.585,40,26.413,40s-3.172,1.64-6.345,1.64S16.887,40,13.715,40s-3.181,1.64-6.361,1.64S4.181,40,1,40v8.2H51.825Z" transform="translate(-0.18 -7.029)" fill="#506480"/>
      <path id="Path_908372" data-name="Path 908372" d="M39.652,40c-3.172,0-3.172,1.64-6.353,1.64S30.126,40,26.953,40s-3.172,1.64-6.345,1.64S17.428,40,14.255,40s-3.181,1.64-6.361,1.64A7.52,7.52,0,0,1,4,40.469V48.2H52.366V40c-3.181,0-3.181,1.64-6.353,1.64S42.832,40,39.652,40Z" transform="translate(-0.721 -7.029)" fill="#3c5064"/>
      <path id="Path_908373" data-name="Path 908373" d="M28.587,17.576H1V12.657H27.1l4.87-9.335A2.459,2.459,0,0,1,34.147,2H51.825V6.919H35.638l-4.87,9.335a2.459,2.459,0,0,1-2.181,1.321Z" transform="translate(-0.18 -0.18)" fill="#aafa82"/>
      <path id="Path_908374" data-name="Path 908374" d="M33.731,5.881l-5.1,9.776H4v2.459H29.127a2.459,2.459,0,0,0,2.181-1.322l4.87-9.335H52.366V5H35.185a1.639,1.639,0,0,0-1.453.881Z" transform="translate(-0.721 -0.721)" fill="#8ceb6e"/>
      <path id="Path_908375" data-name="Path 908375" d="M0,0H3.279V9.837A1.64,1.64,0,0,1,0,9.837V0Z" transform="translate(20.556 42.065) rotate(45)" fill="#d19b80"/>
      <path id="Path_908376" data-name="Path 908376" d="M17.471,61.055a1.64,1.64,0,0,0,1.583-.425l6.957-6.956-1.159-1.159-6.957,6.956a1.64,1.64,0,0,0-.424,1.584Z" transform="translate(-3.139 -9.285)" fill="#be7860"/>
      <path id="Path_908377" data-name="Path 908377" d="M0,0H3.279V1.64A1.64,1.64,0,0,1,0,1.64Z" transform="translate(14.76 47.861) rotate(45)" fill="#aafa82"/>
      <path id="Path_908378" data-name="Path 908378" d="M17.894,60.745a1.64,1.64,0,0,0-.424,1.584,1.64,1.64,0,0,0,1.583-.425l1.159-1.159-1.159-1.159Z" transform="translate(-3.139 -10.559)" fill="#8ceb6e"/>
      <circle id="Ellipse_12647" data-name="Ellipse 12647" cx="7.378" cy="7.378" r="7.378" transform="translate(18.391 31.795)" fill="#f6f6fd"/>
      <path id="Path_908379" data-name="Path 908379" d="M29.633,37.565a8.2,8.2,0,1,0,8.2,8.2,8.2,8.2,0,0,0-8.2-8.2Zm0,14.756a6.558,6.558,0,1,1,6.558-6.558A6.558,6.558,0,0,1,29.633,52.321Z" transform="translate(-3.863 -6.59)" fill="#f5646e"/>
      <circle id="Ellipse_12648" data-name="Ellipse 12648" cx="0.82" cy="0.82" r="0.82" transform="translate(6.558 22.314)"/>
      <circle id="Ellipse_12649" data-name="Ellipse 12649" cx="0.82" cy="0.82" r="0.82" transform="translate(13.936 21.494)"/>
      <circle id="Ellipse_12650" data-name="Ellipse 12650" cx="0.82" cy="0.82" r="0.82" transform="translate(18.855 23.953)"/>
      <circle id="Ellipse_12651" data-name="Ellipse 12651" cx="0.82" cy="0.82" r="0.82" transform="translate(27.052 20.674)"/>
      <circle id="Ellipse_12652" data-name="Ellipse 12652" cx="0.82" cy="0.82" r="0.82" transform="translate(36.07 14.116)"/>
      <circle id="Ellipse_12653" data-name="Ellipse 12653" cx="0.82" cy="0.82" r="0.82" transform="translate(45.087 15.756)"/>
      <path id="Path_908380" data-name="Path 908380" d="M41.5,23.365a.82.82,0,1,0-1.364.91l1.64,2.459a.82.82,0,0,0,1.364-.91Z" transform="translate(-7.209 -3.965)"/>
      <path id="Path_908381" data-name="Path 908381" d="M52.4,16.039l1.64-1.64A.82.82,0,1,0,52.88,13.24L51.24,14.88A.82.82,0,1,0,52.4,16.039Z" transform="translate(-9.192 -2.163)"/>
      <path id="Path_908382" data-name="Path 908382" d="M55.24,29.039a.82.82,0,0,0,1.159,0l1.64-1.64A.82.82,0,1,0,56.88,26.24L55.24,27.88A.82.82,0,0,0,55.24,29.039Z" transform="translate(-9.913 -4.506)"/>
      <path id="Path_908383" data-name="Path 908383" d="M51.645,1H33.967A3.267,3.267,0,0,0,31.06,2.762l-4.641,8.894H.82a.82.82,0,0,0-.82.82V41.169a.82.82,0,0,0,.82.82H18.078a8.116,8.116,0,0,0,.423.976l-5.484,5.484a2.459,2.459,0,1,0,3.478,3.478l5.485-5.485a8.174,8.174,0,0,0,11.477-4.453H51.645a.82.82,0,0,0,.82-.82V1.82a.82.82,0,0,0-.82-.82ZM1.64,13.3H26.916a.82.82,0,0,0,.727-.441l4.87-9.335a1.635,1.635,0,0,1,1.453-.881H50.825V5.919H35.457a.82.82,0,0,0-.727.441l-4.87,9.335a1.635,1.635,0,0,1-1.453.881H1.64ZM31.909,33.755c-.112-.127-.221-.257-.343-.379a8.207,8.207,0,0,0-11.593,0c-.131.131-.252.267-.373.4a5.2,5.2,0,0,1-2.517-.721,6.8,6.8,0,0,0-3.548-.91,6.82,6.82,0,0,0-3.556.911,5.223,5.223,0,0,1-2.805.729,5.2,5.2,0,0,1-2.8-.728,6.86,6.86,0,0,0-2.737-.87V28.921a5.32,5.32,0,0,1,1.985.68,6.8,6.8,0,0,0,3.548.91,6.82,6.82,0,0,0,3.556-.911,5.221,5.221,0,0,1,2.805-.729,5.2,5.2,0,0,1,2.8.728,6.82,6.82,0,0,0,3.557.912,6.8,6.8,0,0,0,3.549-.911,5.192,5.192,0,0,1,2.8-.729,5.192,5.192,0,0,1,2.8.729,7.382,7.382,0,0,0,7.106,0,5.749,5.749,0,0,1,5.6,0,7.385,7.385,0,0,0,7.1,0,5.32,5.32,0,0,1,1.985-.68v3.272a6.86,6.86,0,0,0-2.737.87,5.749,5.749,0,0,1-5.6,0,7.385,7.385,0,0,0-7.1,0,5.21,5.21,0,0,1-2.805.728,6.61,6.61,0,0,1-.669-.035Zm18.917-6.481a6.86,6.86,0,0,0-2.737.87,5.749,5.749,0,0,1-5.6,0,7.385,7.385,0,0,0-7.1,0,5.743,5.743,0,0,1-5.6,0,6.8,6.8,0,0,0-3.549-.912,6.8,6.8,0,0,0-3.549.911,5.192,5.192,0,0,1-2.8.729,5.21,5.21,0,0,1-2.805-.73,6.8,6.8,0,0,0-3.548-.91,6.82,6.82,0,0,0-3.556.911,5.223,5.223,0,0,1-2.805.729,5.2,5.2,0,0,1-2.8-.728,6.86,6.86,0,0,0-2.737-.87V18.215H28.407a3.268,3.268,0,0,0,2.909-1.762l4.639-8.894H50.825ZM1.64,40.349V33.837a5.324,5.324,0,0,1,1.985.684,6.8,6.8,0,0,0,3.548.91,6.82,6.82,0,0,0,3.556-.911,5.221,5.221,0,0,1,2.805-.729,5.2,5.2,0,0,1,2.8.728,7.118,7.118,0,0,0,2.213.8,8.212,8.212,0,0,0-.878,5.029Zm13.7,10.418a.82.82,0,1,1-1.159-1.159l.58-.579,1.159,1.158Zm1.74-1.739-1.16-1.159,3.508-3.508a7.983,7.983,0,0,0,.55.609c.2.2.4.379.609.551Zm13.332-5.217a6.558,6.558,0,1,1,0-9.275A6.558,6.558,0,0,1,30.407,43.811Zm20.419-3.462H33.869a8.226,8.226,0,0,0-.82-4.935,6.8,6.8,0,0,0,3.082-.9,5.749,5.749,0,0,1,5.6,0,7.385,7.385,0,0,0,7.1,0,5.324,5.324,0,0,1,1.988-.682Z" transform="translate(0)"/>
    </g>
  </g>
</svg>
