<svg id="proteccion-ambiental" xmlns="http://www.w3.org/2000/svg" width="109.236" height="107.714" viewBox="0 0 109.236 107.714">
  <g id="Group_1112259" data-name="Group 1112259" transform="translate(1.706 1.705)">
    <path id="Path_908880" data-name="Path 908880" d="M33.758,11.56A28.84,28.84,0,0,1,8,37.7c5.466,33.36,18.338,66.417,52.91,78.169,34.57-11.754,47.448-44.809,52.914-78.169A28.839,28.839,0,0,1,88.066,11.562H33.758Z" transform="translate(-8 -11.56)" fill="#0593fc" fill-rule="evenodd"/>
    <path id="Path_908881" data-name="Path 908881" d="M95.019,136.905c27.051-10.521,38.28-36.718,43.663-63.546A36.944,36.944,0,0,1,115.588,49.15H74.454A36.944,36.944,0,0,1,51.36,73.359C56.743,100.187,67.974,126.384,95.019,136.905Z" transform="translate(-42.109 -41.13)" fill="#edf6ff" fill-rule="evenodd"/>
    <path id="Path_908882" data-name="Path 908882" d="M303.887,129.928a5.63,5.63,0,1,1-11.026,0,4.339,4.339,0,0,1,.787-8.189c-.017-.177-.03-.352-.03-.533a4.758,4.758,0,0,1,9.516,0,4.884,4.884,0,0,1-.03.533,4.337,4.337,0,0,1,.783,8.189Z" transform="translate(-230.062 -94.071)" fill="#70da40" fill-rule="evenodd"/>
    <path id="Path_908883" data-name="Path 908883" d="M145.8,163.95l11.412,19.772H125.76l11.412-19.772a4.979,4.979,0,0,1,8.624,0Z" transform="translate(-100.635 -129.478)" fill="#093" fill-rule="evenodd"/>
    <path id="Path_908884" data-name="Path 908884" d="M184.3,174.15,195.589,193.7h-17.1V190.58H174.55l8.611-14.916a7.593,7.593,0,0,1,1.139-1.515Z" transform="translate(-139.016 -139.461)" fill="#008a2e" fill-rule="evenodd"/>
    <path id="Path_908885" data-name="Path 908885" d="M201.108,181.675,210.536,198H184.56l9.428-16.33a4.111,4.111,0,0,1,7.12,0Z" transform="translate(-146.89 -143.764)" fill="#70da40" fill-rule="evenodd"/>
    <path id="Path_908886" data-name="Path 908886" d="M178.741,251.16a28.751,28.751,0,1,1-57.5,0Z" transform="translate(-97.08 -200.04)" fill="#0593fc" fill-rule="evenodd"/>
    <path id="Path_908887" data-name="Path 908887" d="M145.178,292.129a28.858,28.858,0,0,1-13.008-14.084c6.352-12.11,7.032-5.423,15.95-4.239,13.015,1.15,8.835,8.7.838,13.819A9.308,9.308,0,0,0,145.178,292.129Z" transform="translate(-105.678 -215.569)" fill="#70da40" fill-rule="evenodd"/>
    <path id="Path_908888" data-name="Path 908888" d="M286.919,251.16a28.668,28.668,0,0,1-9.533,21.385,67.415,67.415,0,0,1-3.247-13.595c-1.82-5.142-3.58-.2-5.56.54-2.072.775-10.25-4.625-9.8-8.329Z" transform="translate(-205.257 -200.04)" fill="#70da40" fill-rule="evenodd"/>
    <path id="Path_908889" data-name="Path 908889" d="M126.448,257.77a28.52,28.52,0,0,1-.6-3.486,30.186,30.186,0,0,1-.164-3.124H121.24a28.749,28.749,0,0,0,28.747,28.754c.751,0,1.491-.03,2.225-.083a28.6,28.6,0,0,1-14.483-5.266,14.75,14.75,0,0,0-1.15,2.038,28.858,28.858,0,0,1-13.008-14.084A34.591,34.591,0,0,1,126.448,257.77Z" transform="translate(-97.08 -200.04)" fill="#0584e3" fill-rule="evenodd"/>
    <path id="Path_908890" data-name="Path 908890" d="M135.046,282.14a34.508,34.508,0,0,0-2.876,4.749,28.867,28.867,0,0,0,13.008,14.084,14.752,14.752,0,0,1,1.15-2.038A28.793,28.793,0,0,1,135.046,282.14Z" transform="translate(-105.678 -224.41)" fill="#65c43a" fill-rule="evenodd"/>
    <path id="Path_908891" data-name="Path 908891" d="M296.671,135.558a5.606,5.606,0,0,1-2.219-4.474,5.683,5.683,0,0,1,.117-1.156,4.339,4.339,0,0,1,.787-8.189,4.024,4.024,0,0,1-.03-.533,4.76,4.76,0,0,1,3.9-4.679,5.17,5.17,0,0,0-.858-.077,4.759,4.759,0,0,0-4.756,4.756,4.869,4.869,0,0,0,.03.533,4.339,4.339,0,0,0-.787,8.189,5.645,5.645,0,0,0,3.811,6.522Z" transform="translate(-230.062 -94.071)" fill="#65c43a" fill-rule="evenodd"/>
    <path id="Path_908892" data-name="Path 908892" d="M97.308,135.966c-25.4-11.084-36.144-36.55-41.374-62.607a36.939,36.939,0,0,0,23.1-24.209H74.454A36.944,36.944,0,0,1,51.36,73.359c5.383,26.827,16.614,53.027,43.657,63.546C95.8,136.606,96.555,136.288,97.308,135.966Z" transform="translate(-42.109 -41.13)" fill="#d5dde6" fill-rule="evenodd"/>
  </g>
  <g id="Group_1112260" data-name="Group 1112260" transform="translate(0 0)">
    <path id="Path_908893" data-name="Path 908893" d="M108.888,30.365a1.7,1.7,0,0,0-1.182-.659A27.1,27.1,0,0,1,83.476,5.128a1.706,1.706,0,0,0-1.7-1.557H27.466a1.706,1.706,0,0,0-1.7,1.557A27.1,27.1,0,0,1,1.537,29.706,1.7,1.7,0,0,0,.026,31.677C3.25,51.355,8.4,66.988,15.784,79.462A75.138,75.138,0,0,0,31.43,98.391a68.4,68.4,0,0,0,22.643,12.8,1.719,1.719,0,0,0,.548.092,1.662,1.662,0,0,0,.548-.092,68.453,68.453,0,0,0,22.643-12.8A75.1,75.1,0,0,0,93.458,79.465c7.38-12.477,12.535-28.107,15.758-47.785A1.707,1.707,0,0,0,108.888,30.365ZM54.621,107.775C27.408,98.274,10.73,73.751,3.683,32.864A30.524,30.524,0,0,0,28.989,6.984H80.254a30.522,30.522,0,0,0,25.306,25.88C98.513,73.751,81.835,98.274,54.621,107.775ZM76.819,12.8a1.7,1.7,0,0,0-1.634-1.216H34.052A1.706,1.706,0,0,0,32.418,12.8,35.242,35.242,0,0,1,10.391,35.891a1.707,1.707,0,0,0-1.107,1.946c3.153,15.7,7.711,28.278,13.928,38.444C30.871,88.8,41.229,97.672,54,102.641a1.719,1.719,0,0,0,1.237,0C68.012,97.672,78.372,88.8,86.029,76.281,92.249,66.113,96.8,53.538,99.953,37.837a1.7,1.7,0,0,0-1.107-1.944A35.245,35.245,0,0,1,76.819,12.8Zm-22.2,86.415c-21.3-8.564-34.956-28.412-41.7-60.631A38.677,38.677,0,0,0,35.3,15H73.934A38.672,38.672,0,0,0,96.315,38.586C89.58,70.8,75.927,90.651,54.621,99.217Zm17.109-49.8a7.346,7.346,0,0,0,5.63-7.135c0-.085,0-.171,0-.254a6.044,6.044,0,0,0-.907-10.286,6.463,6.463,0,0,0-12.857,0,6.047,6.047,0,0,0-.9,10.286c0,.085,0,.169,0,.254a7.348,7.348,0,0,0,5.63,7.135v5.27H64.538L57.4,42.332a5.691,5.691,0,0,0-5.037-2.908,5.792,5.792,0,0,0-3.173.932l-.847-1.464a6.682,6.682,0,0,0-11.579,0l-9.119,15.8H25.87a1.705,1.705,0,0,0-1.7,1.7,30.253,30.253,0,0,0,2.4,11.858,1.735,1.735,0,0,0,.151.348A30.647,30.647,0,0,0,40.278,83.254a1.686,1.686,0,0,0,.2.115c.026.013.051.021.079.032a30.4,30.4,0,0,0,34.254-4.224,1.6,1.6,0,0,0,.3-.271A30.387,30.387,0,0,0,85.08,56.392a1.7,1.7,0,0,0-1.7-1.7H71.733v-5.27ZM66.1,42.283a3.817,3.817,0,0,1,.085-.8,1.706,1.706,0,0,0-.975-1.907,2.632,2.632,0,0,1,.467-4.969,1.7,1.7,0,0,0,1.314-1.839,3.284,3.284,0,0,1-.021-.356,3.051,3.051,0,0,1,6.1,0,2.1,2.1,0,0,1-.015.3,1.7,1.7,0,0,0,1.31,1.895,2.631,2.631,0,0,1,.472,4.969,1.706,1.706,0,0,0-.975,1.907,3.833,3.833,0,0,1,.085.8A3.925,3.925,0,0,1,71.73,45.81v-8.8a1.7,1.7,0,1,0-3.409,0v8.8A3.918,3.918,0,0,1,66.1,42.283Zm-13.734.55a2.326,2.326,0,0,1,2.084,1.2L60.6,54.688H44.135l6.151-10.655a2.317,2.317,0,0,1,2.08-1.2ZM39.719,40.6a3.271,3.271,0,0,1,5.673,0l1.472,2.545L40.2,54.688H31.588ZM30.1,67.8c1.7-3.132,3.01-4.89,4.009-5.362.666-.314,1.4-.047,3.179.734A22.9,22.9,0,0,0,43.928,65.2c.026,0,.049.006.075.009,3.892.343,6.413,1.359,6.746,2.716.388,1.579-1.762,4.807-6.62,7.933a9.548,9.548,0,0,0-3.593,3.616A27.222,27.222,0,0,1,30.1,67.8ZM43.563,81.073a5.933,5.933,0,0,1,2.223-2.232c.043-.023.085-.047.126-.073,5.957-3.817,9-8.174,8.148-11.656-.738-3-4.009-4.786-9.72-5.3a19.749,19.749,0,0,1-5.677-1.762c-1.993-.877-3.875-1.7-6.008-.7-1.34.632-2.607,1.942-4.09,4.3a26.956,26.956,0,0,1-.939-5.554H53.715c.678,2.244,2.8,4.212,4.2,5.315.725.57,4.071,3.085,6.635,3.085a3.1,3.1,0,0,0,1.077-.179,6.814,6.814,0,0,0,2.387-1.86c.171-.181.39-.412.587-.6a6.9,6.9,0,0,1,.312.725,68.625,68.625,0,0,0,2.934,12.639,26.976,26.976,0,0,1-28.284,3.847ZM74.6,74.6a63.037,63.037,0,0,1-2.321-10.627,1.623,1.623,0,0,0-.085-.358c-.493-1.4-1.267-3.047-2.876-3.39-1.651-.352-2.829.89-3.774,1.888a7.514,7.514,0,0,1-1.041.979c-.894-.021-3.917-1.547-6.025-3.757a8.9,8.9,0,0,1-1-1.235H81.615A26.941,26.941,0,0,1,74.6,74.6ZM36.017,21.98a1.7,1.7,0,0,1,.557-2.347,5.075,5.075,0,0,1,6.036.527,5.077,5.077,0,0,1,6.044-.523,1.7,1.7,0,0,1-1.8,2.893,1.613,1.613,0,0,0-.87-.243,1.666,1.666,0,0,0-1.664,1.664,1.7,1.7,0,0,1-3.409,0,1.666,1.666,0,0,0-1.664-1.664,1.646,1.646,0,0,0-.877.247,1.7,1.7,0,0,1-2.347-.555Zm15.15.009a1.7,1.7,0,0,1,.544-2.349,5.071,5.071,0,0,1,6.04.523,5.074,5.074,0,0,1,6.042-.523,1.7,1.7,0,0,1-1.8,2.893,1.613,1.613,0,0,0-.87-.243,1.666,1.666,0,0,0-1.664,1.664,1.7,1.7,0,1,1-3.409,0,1.662,1.662,0,0,0-1.658-1.664,1.618,1.618,0,0,0-.87.243A1.7,1.7,0,0,1,51.167,21.989Zm-4.355,4.5a5.052,5.052,0,0,1,3.369,1.282,5.074,5.074,0,0,1,6.042-.523,1.7,1.7,0,0,1-1.8,2.893,1.637,1.637,0,0,0-.87-.243,1.666,1.666,0,0,0-1.664,1.664,1.7,1.7,0,0,1-3.409,0A1.666,1.666,0,0,0,46.811,29.9a1.618,1.618,0,0,0-.87.243,1.705,1.705,0,0,1-1.8-2.9,5.077,5.077,0,0,1,2.675-.757Z" transform="translate(-0.003 -3.57)"/>
  </g>
</svg>
