<svg xmlns="http://www.w3.org/2000/svg" width="125" height="117.229" viewBox="0 0 125 117.229">
  <g id="siembra" transform="translate(0 0.001)">
    <g id="Group_1112471" data-name="Group 1112471" transform="translate(5.236 1.832)">
      <path id="Path_909427" data-name="Path 909427" d="M134.6,158.244c.083-19.42-5.654-46.736-29.261-37.344l-9.038,4.788c-17.419,11.482-5.349,28.569,13.032,41.552.636.021,1.273.07,1.9.153a23.126,23.126,0,0,1,11.6-8.478,23.138,23.138,0,0,1,11.765-.671Zm0,0" transform="translate(-71.641 -91.774)" fill="#e6e6e6" fill-rule="evenodd"/>
      <path id="Path_909428" data-name="Path 909428" d="M91.706,162.27c-10.145,11.226,1.225,26.092,17.641,37.684.636.021,1.273.07,1.9.153a23.184,23.184,0,0,1,2.9-3.315c-14.07-10.257-25.081-23.469-22.444-34.521Zm0,0" transform="translate(-71.65 -124.486)" fill="#b3adad" fill-rule="evenodd"/>
      <path id="Path_909429" data-name="Path 909429" d="M125.131,113.859l-2.277-4.193-3.01-5.537h-6.859l-1.966,5.183,2.8,5.142,2.333,4.284a2.182,2.182,0,0,0,2.954.879l5.156-2.8A2.185,2.185,0,0,0,125.131,113.859Zm0,0" transform="translate(-89.151 -80.539)" fill="#b3adad" fill-rule="evenodd"/>
      <path id="Path_909430" data-name="Path 909430" d="M77.053,24.989,69.9,11.819a8.259,8.259,0,0,0-14.512,7.89l7.156,13.164A8.257,8.257,0,0,0,77.053,24.99Zm0,0" transform="translate(-46.346 -7.511)" fill="#f5df87" fill-rule="evenodd"/>
      <path id="Path_909431" data-name="Path 909431" d="M115.036,128.727a8.37,8.37,0,0,1-2.2-.02l2.353,4.325,2.333,4.284a2.182,2.182,0,0,0,2.954.879l1.682-.92a2.19,2.19,0,0,1-2.949-.873l-2.318-4.277-.013-.013Zm0,0" transform="translate(-90.524 -99.117)" fill="#757a85" fill-rule="evenodd"/>
      <path id="Path_909432" data-name="Path 909432" d="M59.924,18.7A8.291,8.291,0,0,1,63.183,7.524a8.256,8.256,0,0,0-7.8,12.18L62.54,32.868A8.243,8.243,0,0,0,68.658,37.1a8.328,8.328,0,0,0,2.2.021,8.238,8.238,0,0,0,2.887-.935.377.377,0,0,1,.055-.027c-.2-.014-.4-.035-.6-.063A8.343,8.343,0,0,1,69,34.217a8.183,8.183,0,0,1-1.918-2.354Zm0,0" transform="translate(-46.346 -7.506)" fill="#d9a13f" fill-rule="evenodd"/>
      <path id="Path_909433" data-name="Path 909433" d="M21.445,325.428H135.967a17.869,17.869,0,0,0-16.783-17.836v-.034a20.241,20.241,0,0,0-20.236-20.244l-.5.008A23.076,23.076,0,0,0,79.8,277.867,22.844,22.844,0,0,0,72.643,279a23.115,23.115,0,0,0-11.6,8.477,19.793,19.793,0,0,0-2.575-.166,20.243,20.243,0,0,0-20.243,20.244v.034a17.869,17.869,0,0,0-16.782,17.836Zm0,0" transform="translate(-21.445 -211.861)" fill="#a66d30" fill-rule="evenodd"/>
      <path id="Path_909434" data-name="Path 909434" d="M60.852,325.428H21.446a17.869,17.869,0,0,1,16.783-17.836v-.034a20.243,20.243,0,0,1,20.243-20.244,19.79,19.79,0,0,1,2.574.166,23.105,23.105,0,0,1,31.842-5.55c-18.783,5.509-32.312,20.928-32.312,39.089a35.684,35.684,0,0,0,.277,4.409Zm0,0" transform="translate(-21.446 -211.861)" fill="#6e3e0b" fill-rule="evenodd"/>
      <path id="Path_909435" data-name="Path 909435" d="M152.793,383.079c1.418,4.816,8.152,5.038,12.769-2.3.65-1.169.491-2.013-.575-2.685-5.889-3.323-13.793-.533-12.2,4.955Zm0,0" transform="translate(-120.564 -286.537)" fill="#f5df87" fill-rule="evenodd"/>
      <path id="Path_909436" data-name="Path 909436" d="M164.987,378.1c-5.889-3.323-13.793-.533-12.2,4.955l.007.028a4.583,4.583,0,0,0,3.432,3.322,5.226,5.226,0,0,1-.775-1.6l-.007-.028c-1.432-4.942,4.838-7.7,10.4-5.765a2.094,2.094,0,0,0-.858-.914Zm0,0" transform="translate(-120.564 -286.537)" fill="#d9a13f" fill-rule="evenodd"/>
      <path id="Path_909437" data-name="Path 909437" d="M240.459,350.466c3.149,3.91,9.46,1.544,10.928-7,.159-1.329-.319-2.042-1.557-2.264-6.713-.816-12.948,4.776-9.384,9.239Zm0,0" transform="translate(-186.195 -259.675)" fill="#f5df87" fill-rule="evenodd"/>
      <path id="Path_909438" data-name="Path 909438" d="M249.829,341.205c-6.713-.816-12.949,4.776-9.384,9.239l.013.021a4.559,4.559,0,0,0,4.443,1.758,5.029,5.029,0,0,1-1.328-1.176l-.014-.021c-3.211-4.021,1.53-8.963,7.412-9.3a2.12,2.12,0,0,0-1.142-.52Zm0,0" transform="translate(-186.194 -259.675)" fill="#d9a13f" fill-rule="evenodd"/>
      <path id="Path_909439" data-name="Path 909439" d="M294.688,405.145c3.156,3.91,9.468,1.536,10.928-7,.159-1.322-.319-2.042-1.551-2.256-6.713-.823-12.955,4.775-9.391,9.239Zm0,0" transform="translate(-227.185 -301.005)" fill="#f5df87" fill-rule="evenodd"/>
      <path id="Path_909440" data-name="Path 909440" d="M304.065,395.886c-6.713-.823-12.955,4.775-9.391,9.239l.013.021a4.583,4.583,0,0,0,4.443,1.758,5.038,5.038,0,0,1-1.322-1.184l-.02-.021c-3.212-4.021,1.536-8.955,7.411-9.295A2,2,0,0,0,304.065,395.886Zm0,0" transform="translate(-227.185 -301.005)" fill="#d9a13f" fill-rule="evenodd"/>
    </g>
    <path id="Path_909441" data-name="Path 909441" d="M123.17,113.567H121.5a19.725,19.725,0,0,0-16.756-17.661,21.894,21.894,0,0,0-3.965-11.094,1.831,1.831,0,0,0-2.992,2.11,18.29,18.29,0,0,1,3.354,10.606v.035a1.831,1.831,0,0,0,1.721,1.827,16.049,16.049,0,0,1,14.957,14.176H7.17A16.049,16.049,0,0,1,22.127,99.391a1.831,1.831,0,0,0,1.721-1.827v-.035A18.433,18.433,0,0,1,42.261,79.116c.216,0,.43,0,.646.012l.024,0h.006c.561.021,1.117.066,1.661.137a1.832,1.832,0,0,0,1.723-.745,21.274,21.274,0,0,1,34.437-.146,1.834,1.834,0,0,0,1.476.748c.094,0,.189,0,.285,0l.219,0a18.447,18.447,0,0,1,9.267,2.5,1.831,1.831,0,0,0,1.842-3.164,22.111,22.111,0,0,0-10.711-2.992,25.1,25.1,0,0,0-13.113-8.6,87.444,87.444,0,0,0-1.58-16.043,1.83,1.83,0,1,0-3.589.722,83.126,83.126,0,0,1,1.5,14.623,24.661,24.661,0,0,0-2.763-.156A25.016,25.016,0,0,0,44,75.523c-.145-.011-.291-.017-.437-.026-13.016-9.291-20.4-18.977-20.28-26.626.063-3.9,2.081-7.4,6-10.435L30.619,40.9a3.962,3.962,0,0,0,2.388,1.94,4.01,4.01,0,0,0,3.045-.312l.01-.006,5.158-2.8a4.013,4.013,0,0,0,1.6-5.436l-1.262-2.319c4.467-1.432,8.372-1.431,11.633.007,4,1.765,7.186,5.719,9.464,11.752a1.83,1.83,0,1,0,3.425-1.294c-2.639-6.986-6.478-11.631-11.412-13.807-4.273-1.885-9.275-1.853-14.885.08l-1.425-2.62a10,10,0,0,0-.813-7.639L30.394,5.266A10.09,10.09,0,0,0,12.665,14.9l7.156,13.164a10.033,10.033,0,0,0,6.008,4.85c.173.051.347.093.522.134l1.16,2.132C22.358,39,19.7,43.574,19.62,48.813c-.169,10.5,10.1,20.641,18.33,27.066a22.12,22.12,0,0,0-17.7,20.027A19.725,19.725,0,0,0,3.49,113.567H1.83a1.831,1.831,0,0,0,0,3.661H123.17a1.831,1.831,0,0,0,0-3.661ZM36.276,29.9l3.333,6.127a.352.352,0,0,1-.14.47L34.32,39.3a.364.364,0,0,1-.275.027.33.33,0,0,1-.2-.169l-3.261-5.991a10.091,10.091,0,0,0,5.7-3.263Zm-9.407-.494a6.4,6.4,0,0,1-3.831-3.089L15.883,13.156A6.453,6.453,0,0,1,18.461,4.44h0a6.355,6.355,0,0,1,3.044-.777,6.5,6.5,0,0,1,1.845.269,6.378,6.378,0,0,1,3.824,3.083l7.157,13.172a6.365,6.365,0,0,1,.508,4.883c-.05.167-.106.329-.168.49,0,.009-.009.017-.012.027-.017.045-.034.093-.052.139a6.382,6.382,0,0,1-6.725,3.9l-.079-.012c-.01,0-.022,0-.033,0a6.582,6.582,0,0,1-.9-.2Zm0,0" transform="translate(0 0)"/>
    <path id="Path_909442" data-name="Path 909442" d="M160.216,370.815c-4.163-2.349-9.508-2.213-12.71.321a6.08,6.08,0,0,0-2.174,6.646,1.757,1.757,0,0,0,.054.193A6.386,6.386,0,0,0,150.7,382.6a7.209,7.209,0,0,0,.994.068c3.479,0,7.135-2.446,9.747-6.6.017-.029.034-.056.051-.086a3.543,3.543,0,0,0-1.2-5.123c-.025-.016-.051-.031-.076-.046Zm-1.9,3.35c-2.488,3.928-5.383,5.046-7.11,4.806a2.713,2.713,0,0,1-2.315-2.063l-.014-.053a2.456,2.456,0,0,1,.905-2.848c1.76-1.393,5.447-1.781,8.594-.028a.174.174,0,0,1,.022.015,1.884,1.884,0,0,1-.083.171Zm0,0" transform="translate(-109.657 -279.019)"/>
    <path id="Path_909443" data-name="Path 909443" d="M247.524,338.022a3.549,3.549,0,0,0-3.053-4.283c-.033-.007-.067-.011-.1-.015-4.745-.578-9.633,1.59-11.621,5.154a6.078,6.078,0,0,0,.523,6.964c.034.049.071.1.11.141a6.443,6.443,0,0,0,5.032,2.479,6.623,6.623,0,0,0,1.66-.215c3.678-.956,6.529-4.837,7.438-10.133.006-.031.01-.061.013-.092Zm-3.63-.478c-.8,4.582-3.052,6.72-4.742,7.158a2.709,2.709,0,0,1-2.912-1.005c-.014-.02-.03-.04-.045-.059a2.456,2.456,0,0,1-.251-2.976c1.093-1.957,4.351-3.722,7.926-3.31l.034.007c0,.05,0,.111-.011.186Zm0,0" transform="translate(-175.279 -252.179)"/>
    <path id="Path_909444" data-name="Path 909444" d="M287.585,400.629a6.457,6.457,0,0,0,5.059,2.51,6.587,6.587,0,0,0,1.666-.217c3.678-.957,6.526-4.843,7.431-10.138,0-.03.01-.059.013-.09a3.536,3.536,0,0,0-3.054-4.278l-.092-.013c-4.746-.583-9.635,1.584-11.628,5.151a6.081,6.081,0,0,0,.541,6.992q.03.043.063.083Zm2.592-5.29c1.1-1.961,4.36-3.727,7.935-3.308l.024,0c0,.048,0,.108-.011.181-.8,4.582-3.047,6.722-4.737,7.162a2.709,2.709,0,0,1-2.9-.989c-.026-.034-.051-.068-.079-.1a2.453,2.453,0,0,1-.227-2.951Zm0,0" transform="translate(-216.27 -293.508)"/>
  </g>
</svg>
