<svg xmlns="http://www.w3.org/2000/svg" width="112" height="121.953" viewBox="0 0 112 121.953">
  <g id="brote" transform="translate(-20.895)">
    <path id="Path_909368" data-name="Path 909368" d="M123.413,56.451a4.377,4.377,0,0,1-3.453,1.358,59.071,59.071,0,0,1-22.041-6.645C87.6,45.6,75.152,34.323,74.43,12.152a4.376,4.376,0,0,1,1.278-3.236A4.64,4.64,0,0,1,79.2,7.611h0a47.888,47.888,0,0,1,22.537,6.8A44.381,44.381,0,0,1,116.1,28.186c4.494,6.833,7.346,15.158,8.477,24.744A4.375,4.375,0,0,1,123.413,56.451Z" transform="translate(-40.781 -5.798)" fill="#6dc82a"/>
    <path id="Path_909369" data-name="Path 909369" d="M223.519,94.9a50.6,50.6,0,0,0-4.492,11.5,106.945,106.945,0,0,0-3.782,15.469,55.652,55.652,0,0,0,11.991,2.444,4.376,4.376,0,0,0,4.622-4.88C230.739,109.94,227.932,101.691,223.519,94.9Z" transform="translate(-148.058 -72.294)" fill="#5eac24"/>
    <path id="Path_909370" data-name="Path 909370" d="M289.619,8.976a4.377,4.377,0,0,0-3.453-1.358,59.072,59.072,0,0,0-22.041,6.645c-8.39,4.521-18.189,12.825-21.947,27.691C240.126,48,235.6,64.39,236.662,89.07a3.975,3.975,0,0,0,3.968,3.8c.057,0,.115,0,.173,0a3.975,3.975,0,0,0,3.8-4.141,143.654,143.654,0,0,1,1.861-30.951,48.837,48.837,0,0,0,21.475-6.758A44.38,44.38,0,0,0,282.31,37.242c4.494-6.833,7.346-15.158,8.477-24.744A4.375,4.375,0,0,0,289.619,8.976Z" transform="translate(-164.253 -5.797)" fill="#91dc5a"/>
    <path id="Path_909371" data-name="Path 909371" d="M125.312,328.422a9.493,9.493,0,0,0-4.987,1.407,17.13,17.13,0,0,0-18.9-11.927,22.657,22.657,0,0,0-41.529,0A17.13,17.13,0,0,0,41,329.829a9.54,9.54,0,1,0,2.118,14.5,17.118,17.118,0,0,0,26.542,2.446,22.653,22.653,0,0,0,22,0,17.118,17.118,0,0,0,26.542-2.446,9.538,9.538,0,1,0,7.106-15.9Z" transform="translate(-4.252 -231.826)" fill="#cc7400"/>
    <g id="Group_1112468" data-name="Group 1112468" transform="translate(22.224 72.483)">
      <path id="Path_909372" data-name="Path 909372" d="M93.117,313.583a22.65,22.65,0,0,1,6.481.946A22.653,22.653,0,0,0,59.9,317.9,17.13,17.13,0,0,0,41,329.829a9.54,9.54,0,1,0,2.118,14.5,17.118,17.118,0,0,0,26.542,2.446,22.576,22.576,0,0,0,4.522,1.908,22.652,22.652,0,0,1,18.933-35.094Z" transform="translate(-26.476 -304.309)" fill="#aa6100"/>
      <circle id="Ellipse_12690" data-name="Ellipse 12690" cx="4.107" cy="4.107" r="4.107" transform="translate(59.09 22.522)" fill="#aa6100"/>
      <circle id="Ellipse_12691" data-name="Ellipse 12691" cx="4.107" cy="4.107" r="4.107" transform="translate(75.649 32.194)" fill="#aa6100"/>
      <circle id="Ellipse_12692" data-name="Ellipse 12692" cx="1.58" cy="1.58" r="1.58" transform="translate(75.65 20.667)" fill="#aa6100"/>
      <circle id="Ellipse_12693" data-name="Ellipse 12693" cx="1.58" cy="1.58" r="1.58" transform="translate(52.607 36.301)" fill="#aa6100"/>
      <circle id="Ellipse_12694" data-name="Ellipse 12694" cx="1.58" cy="1.58" r="1.58" transform="translate(57.508 14.761)" fill="#aa6100"/>
      <circle id="Ellipse_12695" data-name="Ellipse 12695" cx="1.58" cy="1.58" r="1.58" transform="translate(91.514 29.157)" fill="#aa6100"/>
    </g>
    <g id="Group_1112469" data-name="Group 1112469" transform="translate(101.982 71.017)">
      <circle id="Ellipse_12696" data-name="Ellipse 12696" cx="4.107" cy="4.107" r="4.107" fill="#cc7400"/>
      <circle id="Ellipse_12697" data-name="Ellipse 12697" cx="1.58" cy="1.58" r="1.58" transform="translate(11.756 11.71)" fill="#cc7400"/>
      <circle id="Ellipse_12698" data-name="Ellipse 12698" cx="1.58" cy="1.58" r="1.58" transform="translate(11.756 4.107)" fill="#cc7400"/>
    </g>
    <g id="Group_1112470" data-name="Group 1112470" transform="translate(34.854 69.567)">
      <circle id="Ellipse_12699" data-name="Ellipse 12699" cx="4.107" cy="4.107" r="4.107" transform="translate(4.293)" fill="#aa6100"/>
      <circle id="Ellipse_12700" data-name="Ellipse 12700" cx="1.58" cy="1.58" r="1.58" transform="translate(0 11.58)" fill="#aa6100"/>
    </g>
    <path id="Path_909373" data-name="Path 909373" d="M274.375,70.489a1.806,1.806,0,0,0,1.265-.515l8.854-8.634,13.294-.227a1.813,1.813,0,0,0-.03-3.625h-.032l-9.448.161,6.188-6.034,13.152-.225a1.813,1.813,0,0,0-.03-3.625h-.032l-9.305.159L311.59,34.917a1.812,1.812,0,0,0-2.531-2.6l-12.13,11.829,1.477-7.361a1.813,1.813,0,1,0-3.554-.713l-2.52,12.557-5.2,5.07,1.443-7.191a1.813,1.813,0,1,0-3.554-.713l-2.486,12.387-9.427,9.192a1.812,1.812,0,0,0,1.266,3.11Z" transform="translate(-191.723 -24.231)"/>
    <path id="Path_909374" data-name="Path 909374" d="M110.425,137.289a1.866,1.866,0,0,0,.162-2.558c-.58-.659-1.145-1.344-1.677-2.036a1.813,1.813,0,0,0-2.874,2.21c.581.755,1.2,1.5,1.83,2.222A1.9,1.9,0,0,0,110.425,137.289Z" transform="translate(-64.576 -100.549)"/>
    <path id="Path_909375" data-name="Path 909375" d="M273.878,391.259a5.919,5.919,0,1,0,5.919,5.919A5.926,5.926,0,0,0,273.878,391.259Zm0,8.214a2.294,2.294,0,1,1,2.294-2.294A2.3,2.3,0,0,1,273.878,399.473Z" transform="translate(-188.215 -298.065)"/>
    <path id="Path_909376" data-name="Path 909376" d="M343.4,431.864a1.813,1.813,0,0,0,0,3.625,2.295,2.295,0,1,1-2.294,2.294,1.813,1.813,0,1,0-3.625,0,5.92,5.92,0,1,0,5.92-5.92Z" transform="translate(-241.182 -328.999)"/>
    <path id="Path_909377" data-name="Path 909377" d="M354.729,296.464a5.919,5.919,0,1,0,5.919-5.92A5.926,5.926,0,0,0,354.729,296.464Zm8.214,0a2.294,2.294,0,1,1-2.294-2.295A2.3,2.3,0,0,1,362.943,296.464Z" transform="translate(-254.318 -221.34)"/>
    <path id="Path_909378" data-name="Path 909378" d="M90.926,290.375a5.926,5.926,0,0,0,5.919,5.919,1.813,1.813,0,0,0,0-3.625,2.295,2.295,0,1,1,2.294-2.294,1.813,1.813,0,0,0,3.625,0,5.92,5.92,0,1,0-11.839,0Z" transform="translate(-53.35 -216.701)"/>
    <path id="Path_909379" data-name="Path 909379" d="M121.543,94.784a11.353,11.353,0,0,0-3.98.72C112.6,83.234,99.226,84.1,98.747,84.132a24.486,24.486,0,0,0-16.17-12.789A136,136,0,0,1,84.246,53.68a50.784,50.784,0,0,0,20.857-6.9,46.182,46.182,0,0,0,14.953-14.338c4.65-7.071,7.6-15.66,8.762-25.527a6.188,6.188,0,0,0-6.536-6.9A61.158,61.158,0,0,0,99.5,6.871c-7.817,4.212-14.388,11.164-19.054,20.017a49.612,49.612,0,0,0-3.121-5.5A46.182,46.182,0,0,0,62.368,7.054,49.891,49.891,0,0,0,38.9,0a6.4,6.4,0,0,0-4.771,1.836A6.207,6.207,0,0,0,32.32,6.413a49.731,49.731,0,0,0,5.52,21.947,1.813,1.813,0,0,0,3.2-1.7,46.144,46.144,0,0,1-5.1-20.362,2.572,2.572,0,0,1,.749-1.9A2.859,2.859,0,0,1,38.9,3.625a45.9,45.9,0,0,1,21.6,6.538,42.583,42.583,0,0,1,13.789,13.22A47.129,47.129,0,0,1,78.4,31.166q-.923,2.146-1.707,4.409c-.358,1.053-.761,2.328-1.184,3.816l-5.574-5.436L67.449,21.568a1.813,1.813,0,0,0-3.554.713l1.443,7.191-5.2-5.07-2.52-12.557a1.813,1.813,0,0,0-3.554.713l1.477,7.361L43.411,8.091a1.812,1.812,0,0,0-2.531,2.6L54.22,23.694l-9.305-.159a1.813,1.813,0,0,0-.062,3.625L58,27.384l6.188,6.034-9.448-.161a1.813,1.813,0,0,0-.062,3.625l13.294.227,6.481,6.319c-.413,1.729-.824,3.644-1.213,5.748A57.706,57.706,0,0,1,58.481,43.77a46.313,46.313,0,0,1-7.6-5.1,1.812,1.812,0,0,0-2.315,2.789,49.9,49.9,0,0,0,8.2,5.5,61.427,61.427,0,0,0,15.875,5.793,148.223,148.223,0,0,0-1.65,18.64A24.487,24.487,0,0,0,55.042,84.131c-.478-.036-13.19-1.4-18.815,11.371A11.353,11.353,0,1,0,39.1,115.182a18.932,18.932,0,0,0,27.11,1.969,24.472,24.472,0,0,0,21.369,0,18.932,18.932,0,0,0,27.11-1.969,11.351,11.351,0,1,0,6.853-20.4ZM80.123,36.749C84.306,24.615,91.8,15.137,101.215,10.062A57.111,57.111,0,0,1,122.508,3.63a2.563,2.563,0,0,1,2.709,2.859c-1.1,9.3-3.853,17.364-8.191,23.96A42.583,42.583,0,0,1,103.238,43.67a47.392,47.392,0,0,1-20.646,6.5,1.813,1.813,0,0,0-1.681,1.5,138.011,138.011,0,0,0-1.94,19.094c-.686-.058-1.378-.092-2.076-.092-.761,0-1.517.039-2.265.108C75.2,53.01,78.639,41.117,80.123,36.749Zm41.42,77.113a7.738,7.738,0,0,1-5.755-2.573,1.813,1.813,0,0,0-2.858.2A15.307,15.307,0,0,1,89.2,113.681a1.813,1.813,0,0,0-2.182-.321,20.839,20.839,0,0,1-20.238,0,1.812,1.812,0,0,0-2.182.321,15.307,15.307,0,0,1-23.734-2.188,1.813,1.813,0,0,0-2.858-.2,7.725,7.725,0,1,1-1.718-11.742,1.812,1.812,0,0,0,2.682-1.014A15.229,15.229,0,0,1,53.612,87.7a15.461,15.461,0,0,1,2.254.167A1.814,1.814,0,0,0,57.792,86.8,20.844,20.844,0,0,1,96,86.8a1.813,1.813,0,0,0,1.926,1.067,15.464,15.464,0,0,1,2.254-.167,15.229,15.229,0,0,1,14.645,10.831,1.812,1.812,0,0,0,2.682,1.014,7.727,7.727,0,1,1,4.037,14.315Z" transform="translate(0 0)"/>
  </g>
</svg>
