<svg xmlns="http://www.w3.org/2000/svg" width="114.184" height="114.185" viewBox="0 0 114.184 114.185">
  <g id="XMLID_1782_" transform="translate(-0.003 0)">
    <g id="XMLID_1097_" transform="translate(43.235 20.624)">
      <path id="XMLID_2092_" d="M193.855,331.794l25.521,14.673,1.212-2.1a8.011,8.011,0,0,0-2.932-10.943l-11.618-6.708a8.011,8.011,0,0,0-10.943,2.932Z" transform="translate(-193.855 -273.644)" fill="#a0c8ff"/>
      <path id="XMLID_2387_" d="M0,0H8.921V48.757H0Z" transform="matrix(-0.866, -0.5, 0.5, -0.866, 28.769, 46.684)" fill="#ffda8f"/>
      <path id="XMLID_2386_" d="M0,0H10.7V13.827H0Z" transform="matrix(-0.866, -0.5, 0.5, -0.866, 22.628, 59.105)" fill="#9ea6bf"/>
    </g>
    <g id="Group_1112487" data-name="Group 1112487" transform="translate(2.233 21.71)">
      <path id="XMLID_991_" d="M10,391.754l9.852-11.214a10.517,10.517,0,0,1,4.96-3.156l11.134-3.242a10.516,10.516,0,0,1,10.485,2.771l6.522,6.716L77.131,391.7l7.285,10.63H10Z" transform="translate(-10.003 -312.085)" fill="#a0e5a5"/>
      <ellipse id="XMLID_1160_" cx="4.795" cy="8.304" rx="4.795" ry="8.304" transform="translate(0.47 44.094) rotate(-45)" fill="#a0e5a5"/>
      <ellipse id="XMLID_1109_" cx="8.304" cy="4.795" rx="8.304" ry="4.795" transform="translate(20.54 33.247) rotate(-45)" fill="#a0e5a5"/>
      <ellipse id="XMLID_1343_" cx="4.795" cy="8.304" rx="4.795" ry="8.304" transform="translate(0.474 6.78) rotate(-45)" fill="#a0e5a5"/>
    </g>
    <g id="XMLID_725_" transform="translate(0.003 0)">
      <path id="XMLID_798_" d="M114.11,14.7a2.23,2.23,0,0,0-1.039-1.354l-11.3-6.523L90.474.3a2.23,2.23,0,0,0-3.046.816L85.783,3.964a9.712,9.712,0,0,0,.448,10.381,5.237,5.237,0,0,1,.242,5.6L63.236,60.19a2.225,2.225,0,0,0-1.663,1.1L55.754,71.363A10.238,10.238,0,0,0,42.549,75.5l-4.5,7.665a12.71,12.71,0,0,0-10.5-1.543L16.421,84.867a12.73,12.73,0,0,0-6.012,3.825L.925,99.489A2.227,2.227,0,0,0,0,101.295v10.66a2.23,2.23,0,0,0,2.23,2.23H76.646a2.23,2.23,0,0,0,1.84-3.491L71.2,100.064a2.229,2.229,0,0,0-1.133-.855l-1.729-.577L71.9,92.465a10.253,10.253,0,0,0-3.011-13.518l5.818-10.078a2.193,2.193,0,0,0,.118-1.988l6.231-10.793a2.23,2.23,0,1,0-3.863-2.23l-6.007,10.4-3.863-2.23,20.865-36.14h0l1.282-2.221,3.863,2.23L87.227,36.477a2.23,2.23,0,1,0,3.863,2.23l6.972-12.075a5.232,5.232,0,0,1,4.967-2.588,9.712,9.712,0,0,0,9.214-4.8l1.645-2.849a2.232,2.232,0,0,0,.223-1.693Zm-64.2,60.352a5.742,5.742,0,0,1,4.387.578L65.92,82.337a5.787,5.787,0,0,1,2.116,7.9l-.131.226L46.272,77.971l.132-.225a5.743,5.743,0,0,1,3.51-2.694Zm-.576,17.236,3.2-5.547,4.635,2.676-2.657,4.6Zm-5.323-10.47,4.663,2.692L45.37,90.242,41.446,86.2Zm28.4,27.906H4.463v-7.506l9.3-10.583a8.273,8.273,0,0,1,3.908-2.486L28.8,85.907a8.267,8.267,0,0,1,8.261,2.183l6.522,6.716a2.232,2.232,0,0,0,.894.562L67.944,103.2ZM58.838,95.46l2.2-3.813,4.635,2.676L64.02,97.19Zm6.206-18.778-2.7-1.561-2.7-1.561,4.683-8.112,5.408,3.122ZM108.38,17.011a5.238,5.238,0,0,1-4.967,2.589,9.725,9.725,0,0,0-7.5,2.635l-4.551-2.628a9.717,9.717,0,0,0-1.47-7.817,5.236,5.236,0,0,1-.242-5.6l.53-.917,9.367,5.408,9.367,5.408Z" transform="translate(-0.003 0)"/>
      <path id="XMLID_807_" d="M27.727,285.289a11.79,11.79,0,0,0,3.04-.4,2.231,2.231,0,0,0,1.58-1.58,11.818,11.818,0,0,0-14.473-14.473,2.23,2.23,0,0,0-1.58,1.58,11.811,11.811,0,0,0,11.433,14.871Zm-7.352-12.369a7.35,7.35,0,0,1,7.89,7.89,7.351,7.351,0,0,1-7.89-7.89Z" transform="translate(-12.351 -208.574)"/>
      <path id="XMLID_810_" d="M27.727,117.953a11.79,11.79,0,0,0,3.04-.4,2.231,2.231,0,0,0,1.58-1.58A11.818,11.818,0,0,0,17.873,101.5a2.231,2.231,0,0,0-1.58,1.58,11.811,11.811,0,0,0,11.433,14.871Zm-7.352-12.369a7.35,7.35,0,0,1,7.89,7.89,7.351,7.351,0,0,1-7.89-7.89Z" transform="translate(-12.351 -78.556)"/>
      <path id="XMLID_813_" d="M107.873,213.989a11.818,11.818,0,0,0,14.473-14.473,2.231,2.231,0,0,0-1.58-1.58,11.818,11.818,0,0,0-14.473,14.473A2.231,2.231,0,0,0,107.873,213.989Zm4.633-9.84a7.376,7.376,0,0,1,5.758-2.131,7.351,7.351,0,0,1-7.89,7.89,7.387,7.387,0,0,1,2.132-5.759Z" transform="translate(-82.279 -153.484)"/>
      <path id="XMLID_814_" d="M369.5,197.522a2.231,2.231,0,1,0,1.577.654A2.255,2.255,0,0,0,369.5,197.522Z" transform="translate(-285.364 -153.471)"/>
    </g>
  </g>
</svg>
