<svg xmlns="http://www.w3.org/2000/svg" width="127.305" height="131.327" viewBox="0 0 127.305 131.327">
  <g id="Filled_outline" data-name="Filled outline" transform="translate(-16 -0.836)">
    <g id="Group_1112472" data-name="Group 1112472" transform="translate(16 0.836)">
      <path id="Path_909445" data-name="Path 909445" d="M72,72h8.487v4.244H72Z" transform="translate(-57.148 -53.126)" fill="#4db6e4"/>
      <path id="Path_909446" data-name="Path 909446" d="M16,72h8.487v4.244H16Z" transform="translate(-16 -53.126)" fill="#4db6e4"/>
      <path id="Path_909447" data-name="Path 909447" d="M0,0H4.244V8.487H0Z" transform="translate(15.147 10.423) rotate(-63.512)" fill="#4db6e4"/>
      <path id="Path_909448" data-name="Path 909448" d="M0,0H4.244V8.487H0Z" transform="translate(1.859 3.798) rotate(-63.512)" fill="#4db6e4"/>
      <path id="Path_909449" data-name="Path 909449" d="M0,0H8.487V4.244H0Z" transform="translate(15.147 31.381) rotate(-26.488)" fill="#4db6e4"/>
      <path id="Path_909450" data-name="Path 909450" d="M0,0H8.487V4.244H0Z" transform="translate(1.852 38.006) rotate(-26.488)" fill="#4db6e4"/>
      <path id="Path_909451" data-name="Path 909451" d="M224,136.313h61.531V102.365H264.313L255.826,96H224Z" transform="translate(-168.834 -70.761)" fill="#4db6e4"/>
    </g>
    <path id="Path_909452" data-name="Path 909452" d="M456,136h8.487v25.461H456Z" transform="translate(-323.303 -99.316)" fill="#fdc8a2"/>
    <path id="Path_909453" data-name="Path 909453" d="M204.557,246.992H166.365A6.365,6.365,0,0,1,160,240.627V221.866a82.313,82.313,0,0,1,8.689-36.81,82.3,82.3,0,0,0,6.233-16.848L176.974,160h16.974L196,168.208a82.3,82.3,0,0,0,6.233,16.847,82.314,82.314,0,0,1,8.689,36.81v18.761A6.365,6.365,0,0,1,204.557,246.992Z" transform="translate(-105.808 -116.95)" fill="#ffb431"/>
    <path id="Path_909454" data-name="Path 909454" d="M174.365,97.461H168V72l8.487,6.365Z" transform="translate(-111.687 -52.29)" fill="#df6257"/>
    <path id="Path_909455" data-name="Path 909455" d="M199.826,40H168V50.609l14.852,10.609V71.826h16.974V54.852l10.609-4.244A10.609,10.609,0,0,0,199.826,40Z" transform="translate(-111.687 -28.777)" fill="#d65246"/>
    <path id="Path_909456" data-name="Path 909456" d="M136,40h8.487V50.609H136Z" transform="translate(-88.174 -28.777)" fill="#df6257"/>
    <rect id="Rectangle_405316" data-name="Rectangle 405316" width="19.096" height="8.487" rx="4.244" transform="translate(45.705 26.076)" fill="#4db6e4"/>
    <rect id="Rectangle_405317" data-name="Rectangle 405317" width="19.096" height="8.487" rx="4.244" transform="translate(58.435 45.171)" fill="#4db6e4"/>
    <rect id="Rectangle_405318" data-name="Rectangle 405318" width="19.096" height="8.487" rx="4.244" transform="translate(58.435 53.658)" fill="#4db6e4"/>
    <rect id="Rectangle_405319" data-name="Rectangle 405319" width="19.096" height="8.487" rx="4.244" transform="translate(58.435 62.145)" fill="#4db6e4"/>
    <path id="Path_909457" data-name="Path 909457" d="M220.553,96a4.509,4.509,0,0,0-.559,8.981l13.024,1.628.3.759a15.67,15.67,0,0,0,14.549,9.85V96Z" transform="translate(-147 -69.924)" fill="#4db6e4"/>
    <path id="Path_909458" data-name="Path 909458" d="M212.731,328H229.7v8.487a12.731,12.731,0,0,1-12.731,12.731H200v-8.487A12.731,12.731,0,0,1,212.731,328Z" transform="translate(-135.2 -240.393)" fill="#ffc261"/>
    <path id="Path_909459" data-name="Path 909459" d="M456,136h4.243v25.461H456Z" transform="translate(-323.303 -99.316)" fill="#fdbf92"/>
    <path id="Path_909460" data-name="Path 909460" d="M217.6,57.461h-6.365V55.339a2.122,2.122,0,0,0-2.122-2.122H188.6l-7.921-5.941a2.122,2.122,0,0,0-1.273-.424h-3.835l.379-.152a2.122,2.122,0,0,0,1.334-1.97A12.734,12.734,0,0,0,164.557,32H149.7v4.244h14.852a8.5,8.5,0,0,1,8.374,7.1l-8.783,3.513H149.97a6.634,6.634,0,0,0-5.808,3.436l-9.309-6.649v-7.4h10.609V32H124.244a2.122,2.122,0,0,0-2.122,2.122V44.731a2.122,2.122,0,0,0,2.122,2.122h2.122a6.365,6.365,0,0,0,0,12.731h4.244V68.07a2.122,2.122,0,0,0,2.122,2.122h.365a6.35,6.35,0,0,0,1.261,6.365,6.35,6.35,0,0,0,0,8.487,6.354,6.354,0,0,0,1.01,9.4,84.725,84.725,0,0,0-3.312,9.089l4.064,1.22a80.448,80.448,0,0,1,3.345-9.1H149.7a6.361,6.361,0,0,0,4.739-10.609,6.35,6.35,0,0,0,0-8.487,6.35,6.35,0,0,0,0-8.487H162.9l1.651,6.6a84.443,84.443,0,0,0,6.393,17.281,80.188,80.188,0,0,1,8.465,35.861v18.762a4.249,4.249,0,0,1-4.244,4.244H136.974a4.249,4.249,0,0,1-4.244-4.244V127.813a80.291,80.291,0,0,1,1.79-16.848l-4.146-.906a84.6,84.6,0,0,0-1.888,17.754v18.762a8.5,8.5,0,0,0,8.487,8.487h38.192a8.5,8.5,0,0,0,8.487-8.487V127.813a84.433,84.433,0,0,0-8.913-37.759,80.19,80.19,0,0,1-6.072-16.412l-1.04-4.161a17.765,17.765,0,0,0,9.66,2.833V68.07a13.483,13.483,0,0,1-12.579-8.516l-.3-.759a2.122,2.122,0,0,0-1.707-1.317l-13.025-1.628a2.387,2.387,0,0,1,.3-4.753H178.7l7.921,5.941a2.122,2.122,0,0,0,1.273.424h19.1v29.7h-4.243V63.826h-4.244V87.166h-19.1v4.244h29.7a2.122,2.122,0,0,0,2.122-2.122V87.166H217.6a2.122,2.122,0,0,0,2.122-2.122V59.583a2.122,2.122,0,0,0-2.122-2.122ZM142.538,56.3a6.315,6.315,0,0,0,.607-1.527l.39.279a6.644,6.644,0,0,0,1.926,3.279v7.352l-.065.261h-3.93ZM126.365,36.244h4.244v6.365h-4.244Zm-2.122,16.974a2.124,2.124,0,0,1,2.122-2.122h10.609a2.122,2.122,0,1,1,0,4.244H126.365A2.124,2.124,0,0,1,124.244,53.218Zm13.668,6.3-.715,6.435h-2.345V59.583S137.606,59.559,137.912,59.513ZM149.7,70.192a2.122,2.122,0,1,1,0,4.244H139.1a2.122,2.122,0,1,1,0-4.244ZM151.826,80.8a2.124,2.124,0,0,1-2.122,2.122H139.1a2.122,2.122,0,1,1,0-4.244H149.7A2.124,2.124,0,0,1,151.826,80.8ZM149.7,91.409H139.1a2.122,2.122,0,1,1,0-4.244H149.7a2.122,2.122,0,1,1,0,4.244Zm12.414-27.583H149.7v-3.7l11.232,1.4a17.988,17.988,0,0,0,1.183,2.293Zm53.36,19.1h-4.244V61.7h4.244Z" transform="translate(-76.417 -22.899)"/>
    <path id="Path_909461" data-name="Path 909461" d="M72,72h8.487v4.244H72Z" transform="translate(-41.148 -52.29)"/>
    <path id="Path_909462" data-name="Path 909462" d="M16,72h8.487v4.244H16Z" transform="translate(0 -52.29)"/>
    <path id="Path_909463" data-name="Path 909463" d="M0,0H4.244V8.487H0Z" transform="translate(31.147 11.259) rotate(-63.512)"/>
    <path id="Path_909464" data-name="Path 909464" d="M0,0H4.244V8.487H0Z" transform="translate(17.859 4.634) rotate(-63.512)"/>
    <path id="Path_909465" data-name="Path 909465" d="M0,0H8.487V4.244H0Z" transform="translate(31.147 32.217) rotate(-26.488)"/>
    <path id="Path_909466" data-name="Path 909466" d="M0,0H8.487V4.244H0Z" transform="translate(17.852 38.842) rotate(-26.488)"/>
    <path id="Path_909467" data-name="Path 909467" d="M211.1,345.461a14.869,14.869,0,0,0,14.852-14.852v-8.487A2.122,2.122,0,0,0,223.826,320H206.852A14.869,14.869,0,0,0,192,334.852v8.487a2.122,2.122,0,0,0,2.122,2.122Zm-14.852-10.609a10.621,10.621,0,0,1,10.609-10.609H221.7v6.365A10.621,10.621,0,0,1,211.1,341.218H196.244Z" transform="translate(-129.321 -234.515)"/>
  </g>
</svg>
