<svg id="Group_1112306" data-name="Group 1112306" xmlns="http://www.w3.org/2000/svg" xmlns:xlink="http://www.w3.org/1999/xlink" width="715" height="277.176" viewBox="0 0 715 277.176">
  <defs>
    <linearGradient id="linear-gradient" x1="0.069" y1="0.135" x2="0.983" y2="0.909" gradientUnits="objectBoundingBox">
      <stop offset="0" stop-color="#166340"/>
      <stop offset="1" stop-color="#98e465"/>
    </linearGradient>
    <clipPath id="clip-path">
      <path id="Path_882370" data-name="Path 882370" d="M10.292,0H704.708A10.34,10.34,0,0,1,715,10.387v256.4a10.34,10.34,0,0,1-10.292,10.387H10.292A10.34,10.34,0,0,1,0,266.788V10.387A10.34,10.34,0,0,1,10.292,0Z" fill="url(#linear-gradient)"/>
    </clipPath>
    <linearGradient id="linear-gradient-2" x1="0.961" y1="0.073" x2="0.02" y2="0.815" gradientUnits="objectBoundingBox">
      <stop offset="0" stop-color="#f1f4fe"/>
      <stop offset="1" stop-color="#7d9ffb"/>
    </linearGradient>
    <clipPath id="clip-path-2">
      <path id="Path_909332" data-name="Path 909332" d="M0,0,103.756-10.892,94.308,69.065-9.448,79.957Z" fill="#7d9ffb"/>
    </clipPath>
    <clipPath id="clip-path-3">
      <path id="Path_909333" data-name="Path 909333" d="M.09.131l190.781,6.62,5.743,211.562L5.833,211.693Z" fill="#7d9ffb"/>
    </clipPath>
    <clipPath id="clip-path-4">
      <path id="Path_909335" data-name="Path 909335" d="M0,0,110.15-2.175,108.255,72.3-1.895,74.475Z" fill="#98e465"/>
    </clipPath>
    <clipPath id="clip-path-5">
      <path id="Path_909336" data-name="Path 909336" d="M0,0,186.579-4.747,172.4,713.128l-186.579,4.747Z" fill="#7d9ffb"/>
    </clipPath>
    <clipPath id="clip-path-6">
      <path id="Path_909334" data-name="Path 909334" d="M0,0,237.02-19.01l-16.49,171.452-237.02,19.01Z" fill="#7d9ffb"/>
    </clipPath>
  </defs>
  <path id="Path_908996" data-name="Path 908996" d="M11.532,0H703.468A11.8,11.8,0,0,1,715,12.05V265.126a11.8,11.8,0,0,1-11.532,12.049H11.532A11.8,11.8,0,0,1,0,265.126V12.05A11.8,11.8,0,0,1,11.532,0Z" transform="translate(0 0)" fill="#fff"/>
  <g id="Mask_Group_1101787" data-name="Mask Group 1101787" transform="translate(0 0)" opacity="0.2" clip-path="url(#clip-path)">
    <path id="Path_882371" data-name="Path 882371" d="M10.956,0H750.173c6.051,0,10.956,6.318,10.956,14.112V362.458c0,7.794-4.905,14.112-10.956,14.112H10.956C4.905,376.57,0,370.252,0,362.458V14.112C0,6.318,4.905,0,10.956,0Z" transform="translate(-23.065 -19.853)" fill="url(#linear-gradient-2)"/>
    <path id="Path_882376" data-name="Path 882376" d="M3535.237,1056.217a.047.047,0,0,0,.006.012l.029-.027c-.007-.014-.012-.028-.018-.041a.048.048,0,0,0-.018.056" transform="translate(-3129.368 -746.678)" fill="#040504"/>
    <path id="Path_882377" data-name="Path 882377" d="M3473.981,999.184a.09.09,0,0,0-.035-.1c-.032-.017-.068,0-.081.045s-.05.053-.088.061a2.61,2.61,0,0,0-.259.034l.034.163c.087-.03.208-.016.294-.05a.221.221,0,0,0,.135-.148" transform="translate(-3071.6 -694.294)" fill="#040504"/>
    <path id="Path_882378" data-name="Path 882378" d="M3472.76,1000.947c.009.044.044.071.079.06l-.032-.163a.089.089,0,0,0-.046.1" transform="translate(-3070.889 -695.918)" fill="#040504"/>
    <path id="Path_882379" data-name="Path 882379" d="M3536.094,1057.1h0Z" transform="translate(-3130.173 -747.538)" fill="#040504"/>
    <path id="Path_882380" data-name="Path 882380" d="M3232.078,901.026c-.008-.02-.015-.04-.025-.059l-.129.11c.005.015.012.028.018.042l.067-.048.069-.045" transform="translate(-2845.459 -604.272)" fill="#040504"/>
    <path id="Path_882381" data-name="Path 882381" d="M3231.754,900.865c0,.007,0,.014.006.021l0,.006.126-.111,0-.005-.066.043-.065.046" transform="translate(-2845.301 -604.097)" fill="#040504"/>
    <path id="Path_882382" data-name="Path 882382" d="M3279.074,1007.268c.056-.012.113-.024.17-.034,0-.005,0-.01,0-.015a.108.108,0,0,0-.034-.02.114.114,0,0,0-.137.069" transform="translate(-2889.595 -701.744)" fill="#040504"/>
    <path id="Path_909331" data-name="Path 909331" d="M166.751-12.008c92.187-6.514,161.638,81.23,155.123,195.983S235.347,397.035,143.161,403.549-18.477,322.319-11.963,207.566,74.565-5.493,166.751-12.008Z" transform="matrix(0.966, -0.259, 0.259, 0.966, 151.685, 235.332)" fill="#98e465" opacity="0.27" style="mix-blend-mode: multiply;isolation: isolate"/>
    <g id="Group_1111888" data-name="Group 1111888" transform="translate(671.769 155.616) rotate(-59)">
      <g id="Group_1111887" data-name="Group 1111887" transform="translate(0 0)" clip-path="url(#clip-path-2)">
        <path id="Path_907659" data-name="Path 907659" d="M94.545,56.9l.007,0a5.487,5.487,0,0,0-2.547-2.181A1.336,1.336,0,0,0,91,54.76a1.629,1.629,0,0,0-.333.188,53.758,53.758,0,0,1-9.924,5.231c-.805.32-1.565.589-2.246.791-5.211.826-16.516,1.212-35.917-10.354C19.689,36.969,15.47,15.031,17.214,4.038c.673-1.45.873-4.166-1.313-5.115-2.833-1.229-5.72.617-7.319,2.9-.028.015-.056.029-.083.045C-7.18,28.136-12.235,51.3,15.8,67.017c25,14.019,53.324,3.205,62.745-.976,1.013-.134,6.747-1.026,15.891-5.008a1.438,1.438,0,0,0,.851-.941,4.5,4.5,0,0,0-.741-3.19" transform="translate(0.069 0.015)" fill="#7d9ffb"/>
      </g>
    </g>
    <g id="Group_1111890" data-name="Group 1111890" transform="translate(607.326 95.018) rotate(7)">
      <g id="Group_1111889" data-name="Group 1111889" transform="translate(0 0)" clip-path="url(#clip-path-3)">
        <path id="Path_907660" data-name="Path 907660" d="M193.576,185.668l.013-.009a18.831,18.831,0,0,0-5.4-6.741,1.84,1.84,0,0,0-1.872-.234,1.939,1.939,0,0,0-.568.39c-3.4,3.334-10.85,8.081-17.022,10.623a29.868,29.868,0,0,1-3.967,1.349c-9.5.418-30.522-2.455-70.176-40.242C47.8,106.221,33.489,45.819,33.533,16.887c.834-3.663.413-10.89-3.953-14.2-5.656-4.282-10.512-.321-12.832,5.27-.047.031-.1.058-.143.091C-5.017,73.2-7.687,133.683,49.325,185.611c50.849,46.314,100.627,27.054,117.015,19.077,1.855-.01,12.313-.422,28.241-7.959A2.539,2.539,0,0,0,195.9,194.5a19.368,19.368,0,0,0-2.319-8.827" transform="translate(0.054 0.113)" fill="#7d9ffb"/>
      </g>
    </g>
    <g id="Group_1111892" data-name="Group 1111892" transform="translate(511.862 161.07) rotate(-85)">
      <g id="Group_1111891" data-name="Group 1111891" transform="translate(0 0)" clip-path="url(#clip-path-4)">
        <path id="Path_907661" data-name="Path 907661" d="M107.311,60.9l.007,0a7.4,7.4,0,0,0-2.956-2.25,1.614,1.614,0,0,0-1.077-.039,1.473,1.473,0,0,0-.338.151,49.44,49.44,0,0,1-10.1,4.144c-.83.238-1.617.432-2.326.569-5.5.37-17.582-.149-39.578-12.539C24.993,36.313,18.2,15.356,18.934,5.156A3.717,3.717,0,0,0,17,.245,6.18,6.18,0,0,0,9.451,2.4c-.028.012-.057.023-.085.035C-4.727,25.911-7.75,47.3,23.933,64.263c28.258,15.133,57.5,7.176,67.17,3.98,1.073-.047,7.128-.438,16.519-3.468a1.107,1.107,0,0,0,.815-.818,4.407,4.407,0,0,0-1.124-3.057" transform="translate(0.015 0.004)" fill="#98e465"/>
      </g>
    </g>
    <path id="Trazado_903697" data-name="Trazado 903697" d="M148.743,43.387a17.57,17.57,0,0,1,6.6,1.306,20.6,20.6,0,0,1,5.985,3.766,28.457,28.457,0,0,1,8.236,14.009l17.58,65.367a29.73,29.73,0,0,0,5.961,11.612l39.815,46.425a27.684,27.684,0,0,1,3.324,4.859,31.354,31.354,0,0,1,2.306,5.481,34.8,34.8,0,0,1,1.3,5.877,36.73,36.73,0,0,1,.292,6.046,36.327,36.327,0,0,1-.7,5.99,33.687,33.687,0,0,1-1.691,5.708,29.78,29.78,0,0,1-2.671,5.2,25.952,25.952,0,0,1-3.643,4.464L188.6,271.233a28.1,28.1,0,0,0-6.731,10.89L159.9,345.247a27.32,27.32,0,0,1-8.334,12.384,20.116,20.116,0,0,1-5.654,3.257A17.573,17.573,0,0,1,139.781,362a18.7,18.7,0,0,1-12.553-5.1L83.177,317.328a19.162,19.162,0,0,0-10.121-4.881l-53.4-7.413a18.1,18.1,0,0,1-4.907-1.415,20.142,20.142,0,0,1-4.367-2.689,23.882,23.882,0,0,1-3.729-3.774,28.3,28.3,0,0,1-3-4.671A32.283,32.283,0,0,1,1.5,287.107a34.951,34.951,0,0,1-1.236-5.9,36.056,36.056,0,0,1,.7-12.6l15.605-66.193a35.947,35.947,0,0,0,.476-13.907L6.015,120.805a36.628,36.628,0,0,1-.472-6.448,35.752,35.752,0,0,1,.636-6.181,33.87,33.87,0,0,1,1.634-5.735,30.7,30.7,0,0,1,2.523-5.113,26.568,26.568,0,0,1,3.3-4.313,22.33,22.33,0,0,1,3.972-3.337A19.037,19.037,0,0,1,22.144,87.5a17.58,17.58,0,0,1,4.984-.853l53.7-1.338A18.3,18.3,0,0,0,91.239,81.59L137.82,47.16a19.729,19.729,0,0,1,5.382-2.85A17.234,17.234,0,0,1,148.743,43.387ZM139.781,361.7c8.585,0,16.4-6.507,19.9-16.578L181.658,282a28.4,28.4,0,0,1,6.8-11.008l42.83-41.737c5.19-5.057,8.33-12.759,8.616-21.133s-2.316-16.4-7.14-22.026l-39.815-46.425a30.052,30.052,0,0,1-6.026-11.737l-17.58-65.367c-3.037-11.291-11.316-18.878-20.6-18.878a18.169,18.169,0,0,0-10.806,3.733L91.356,81.852a18.493,18.493,0,0,1-10.528,3.755l-53.7,1.338c-6.505.162-12.56,4.015-16.613,10.572a34.25,34.25,0,0,0-4.275,23.226l11.027,67.705a36.335,36.335,0,0,1-.482,14.057L1.185,268.7a34.909,34.909,0,0,0,2.673,23.62c3.589,6.991,9.358,11.516,15.827,12.414l53.4,7.413a19.368,19.368,0,0,1,10.23,4.933l44.051,39.572A18.5,18.5,0,0,0,139.781,361.7Z" transform="translate(533.445 -27.527)" fill="#fff" stroke="#fff" stroke-width="1"/>
    <g id="Group_1111894" data-name="Group 1111894" transform="matrix(-0.839, 0.545, -0.545, -0.839, 400.986, 314.38)" opacity="0.35">
      <g id="Group_1111893" data-name="Group 1111893" transform="matrix(0.883, 0.469, -0.469, 0.883, 283.694, -35.009)" opacity="0.82" clip-path="url(#clip-path-5)" style="mix-blend-mode: multiply;isolation: isolate">
        <path id="Path_907663" data-name="Path 907663" d="M94.041,708.818c.171-11.634-.353-37.459-1.121-66.657,31.607-1.029,76-51.26,75.791-137.035.65-16.511-47.949-13.373-47.949-13.373s12.246-6.4,31.862-18.114c20.138-12.024,23.448-36.746-2.368-34.911,13.228-7.427,27.66-24.02,27.66-24.02s4.605-55.918-14.884-109.88c-14.409-5.331-45.985-2.065-45.985-2.065s30.42-19.105,44.3-27.375c11.433-16.168,4.5-113.367-31-179.142C114.217,95.14,91.621,99,91.621,99s10.127-23.886,24.587-36.563C97.2,3.824,58.219-35.5,30.867,39.653S2.78,173.227,2.78,173.227s21.988,9.555,35.427,22.235c-19.155-4.6-40.419-2.021-40.419-2.021s-6.956,43.912,3.523,96.644S20.07,368.171,9.674,420.535,2.1,500.7,12.445,514.058C26.724,532.5,54.5,543.552,54.5,543.552s-23.188,3.233-42.52.453c13.582,41.2,39.646,85.7,69.646,96.2.828,44.2-.013,48.946,1.3,70.067.5,7.953,11.01,5.431,11.111-1.458" transform="translate(0.064 0.03)" fill="#7d9ffb"/>
      </g>
    </g>
    <g id="Group_1111896" data-name="Group 1111896" transform="translate(623.838 2.451) rotate(112)">
      <g id="Group_1111895" data-name="Group 1111895" transform="translate(0 0)" clip-path="url(#clip-path-6)">
        <path id="Path_907666" data-name="Path 907666" d="M220.322,126.318l.017-.009a13.264,13.264,0,0,0-5.976-4.8,3.236,3.236,0,0,0-2.307.049,3.584,3.584,0,0,0-.751.39c-4.613,3.148-14.425,7.964-22.4,10.822-1.824.653-3.548,1.2-5.1,1.605-11.886,1.555-37.764,1.9-82.959-23.778C47.528,80.3,36.446,32.97,39.735,9.417,41.184,6.329,41.468.5,36.4-1.632,29.826-4.394,23.331-.549,19.815,4.3c-.063.031-.126.06-.188.092C-14.6,60.177-24.69,109.747,40.556,144.719c58.194,31.191,122.381,9.15,143.7.562,2.313-.245,15.393-1.918,36.085-10.09a2.961,2.961,0,0,0,1.888-1.986,9.513,9.513,0,0,0-1.9-6.888" transform="translate(0.125 0.028)" fill="#7d9ffb"/>
      </g>
    </g>
  </g>
</svg>
