<svg xmlns="http://www.w3.org/2000/svg" xmlns:xlink="http://www.w3.org/1999/xlink" width="295" height="141.041" viewBox="0 0 295 141.041">
  <defs>
    <clipPath id="clip-path">
      <rect id="Rectangle_405209" data-name="Rectangle 405209" width="295" height="141.041" rx="10" transform="translate(180 11165.333)" fill="#f7fee7"/>
    </clipPath>
    <clipPath id="clip-path-2">
      <rect id="Rectangle_405208" data-name="Rectangle 405208" width="253.95" height="290.959" fill="none"/>
    </clipPath>
  </defs>
  <g id="Mask_Group_1101826" data-name="Mask Group 1101826" transform="translate(-180 -11165.333)" clip-path="url(#clip-path)">
    <rect id="Rectangle_405201" data-name="Rectangle 405201" width="414.408" height="253.333" rx="10" transform="translate(125 11123.667)" fill="#f7fee7"/>
    <g id="Group_1112131" data-name="Group 1112131" transform="translate(200.525 11129.375)">
      <g id="Group_1112130" data-name="Group 1112130" clip-path="url(#clip-path-2)">
        <path id="Path_908490" data-name="Path 908490" d="M112.98,5.147C137-2.844,164.312-1.759,186.727,10c18.7,9.814,33.114,26.283,44.664,43.967,10.352,15.85,18.864,33.255,21.963,51.931,5.954,35.874-8.42,71.663-22.5,105.193-6.931,16.5-13.96,33.184-24.554,47.614s-25.262,26.618-42.691,30.7c-17.2,4.031-35.512-.2-51.247-8.224s-29.316-19.631-42.637-31.23c-17.213-14.991-34.441-30.351-47.5-49.068s-21.77-41.352-19.863-64.1c1.468-17.512,9.114-34.053,19.227-48.425A222.862,222.862,0,0,1,43.847,62.117c5.97-6.186,10.107-12.652,15.332-19.292a116.981,116.981,0,0,1,53.8-37.678" transform="translate(-0.786 0)" fill="#e3f7b2"/>
        <path id="Path_908491" data-name="Path 908491" d="M131.631,326.377a11.452,11.452,0,0,0-1.04-7.957c-1.253-2.606-3.566-4.467-5.471-6.579-2.982-3.093-5.727-6.4-8.7-9.5a10.482,10.482,0,0,0-7.81-3.869c-2.888-5.211-6.307-10.812-11.583-13.806a15.477,15.477,0,0,0-5.533-1.036c-.639-1.487-1.281-2.972-2.05-4.4-2.089-4.21-6.564-9.192-11.6-7.072,1.976-6.144.75-11.831.075-19.328-.642-9.816,2.675-15.892,8.794-20.327-5.5-1.35-10.529-5.522-10.279-11.6.523-4.573,3.182-8.622,4.035-13.127,2.1-12.792,4.257-16.85,17.293-20.091.966-.073,16.018-4.763,15.952-3.126a4.035,4.035,0,0,0,.437-.1l.007,0c-.6.561-1.185,1.127-1.748,1.683l.061-.051c-1.25,1.254-3.149,1.32-4.7,2.011a19.858,19.858,0,0,0-5.156,3.3c-.72.722-3.033,2.384-3.2,3.7a.94.94,0,0,0-.172.9c6.427,8.646,29.849,8.558,40.18,9.379,3.075.086,6.151.041,9.226,0,4.236-.063,8.473-.125,12.71.158,2.7.015,5.386.2,8.075.39,3.246.226,6.489.453,9.744.376,3.451-.046,6.83-.832,10.255-1.16a59.991,59.991,0,0,0,13.655-2.371c3.426-1,6.977-1.775,10.092-3.58.694-.456,4.156-2.115,2.9-2.984a1.454,1.454,0,0,0-.274-1.045.766.766,0,0,0-.061-.1.661.661,0,0,0-.135-.346,104.9,104.9,0,0,0-9.063-7.637c-.665-.527-1.373-.994-2.085-1.454,4.63.322,9.324.722,13.964.693,8.08-.514,9.983,4.738,11.693,11.464.928,3.522,2.743,6.7,4.017,10.073.83,4.172.9,9.087-1.767,12.634a38.983,38.983,0,0,1-4.034,3.8c.012.091.027.179.046.262a40.939,40.939,0,0,1-1.613,13.361c-.392.894-1.2,5.02-2.08,8.115,7.9,10.461,14.9,21.788,18.234,34.593,2.032,7.2,2.517,14.7,4.615,21.842,2.288,9.545,8.563,9.874,2.758,14-8.038,4.743-17.31,6.047-26.291,7.963a371.329,371.329,0,0,1-65.9,8.494c-9.095-.849-17.7-4.08-26.469-6.551m52.21-27.362a.685.685,0,0,0,1.37.039q.018-1.4.05-2.8a64.834,64.834,0,0,0,11.5-1.633c3.434-.875,6.811-1.964,10.192-3.019,4.193-1.413,8.631-2.521,12.652-4.433q.664,1.4,1.4,2.777a.685.685,0,0,0,1.2-.657q-.72-1.353-1.386-2.729a24.961,24.961,0,0,0,2.736-1.677.686.686,0,0,0-.807-1.108q-.748.551-1.53,1.053-.485.26-.975.5c-.642-1.408-1.229-2.841-1.739-4.307-3.2-8.178-5.135-16.8-8.461-24.927q1.384-.553,2.75-1.143a.693.693,0,0,0,.391-.887c-.354-.8-1.208-.246-1.782-.035q-.942.407-1.892.794-.546-1.265-1.145-2.512c-.256-.95-1.508-1.516-1.485-.134q.728,1.557,1.382,3.144a74.288,74.288,0,0,1-16.63,4.444c-3.575.662-7.057,1.634-10.665,2.13q-.443-1.124-.94-2.228c-.968-1.434-1.678.066-1.042,1.076q.3.663.576,1.332c-.812.1-1.627.18-2.444.222a4.379,4.379,0,0,1-.81,0,2.509,2.509,0,0,0-1.3.153c-.853.452.094,1.272.735,1.208a32.348,32.348,0,0,0,4.348-.253c3.794,10.007,4.1,20.879,3.863,31.534-1.185.121-2.545-.126-3.562.488-.479.361-.019.895.416,1q1.552-.034,3.111-.107-.034,1.348-.076,2.69" transform="translate(-28.669 -69.106)" fill="#db9f56"/>
        <path id="Path_908492" data-name="Path 908492" d="M112.919,183.277a.938.938,0,0,1,.172-.9c.164-1.313,2.477-2.974,3.2-3.7a19.831,19.831,0,0,1,5.155-3.306c1.553-.69,3.452-.757,4.7-2.011l-.061.051c.563-.556,1.146-1.122,1.748-1.683,4.1-3.823,9.1-7.442,14.794-6.582,2.66-3.4,8.258-8.369,9.233-9.378,4.068-4.162,10.291-6.552,16.037-5.021,4.042,1.846,7.472,4.916,10.885,7.721,1.049.969,2.041,1.993,3.064,2.968,6.341-2.571,14.3-.486,19.292,4.177,3.3-1.179,7.283-.315,10.3,1.372a16.45,16.45,0,0,1,5.117,4.873c.518.36,1.05.7,1.58,1.044.712.461,1.42.927,2.085,1.455a104.781,104.781,0,0,1,9.063,7.637.665.665,0,0,1,.135.347.689.689,0,0,1,.061.1,1.455,1.455,0,0,1,.274,1.045c1.257.869-2.205,2.529-2.9,2.984-3.115,1.806-6.666,2.584-10.092,3.58a60.021,60.021,0,0,1-13.655,2.371c-3.426.327-6.8,1.114-10.255,1.16-3.254.076-6.5-.149-9.744-.376-2.689-.188-5.378-.376-8.075-.391-4.237-.283-8.474-.221-12.71-.157-3.076.044-6.152.091-9.226,0-10.331-.82-33.752-.732-40.18-9.379" transform="translate(-42.346 -56.376)" fill="#965029"/>
        <path id="Path_908493" data-name="Path 908493" d="M242.819,339.319q.041-1.341.076-2.69-1.557.075-3.111.107c-.435-.1-.895-.639-.416-1,1.017-.614,2.377-.367,3.562-.488.235-10.655-.069-21.527-3.863-31.534a32.449,32.449,0,0,1-4.348.254c-.642.064-1.588-.756-.735-1.208a2.509,2.509,0,0,1,1.3-.153,4.371,4.371,0,0,0,.81,0c.817-.042,1.633-.119,2.444-.222q-.277-.669-.576-1.332c-.635-1.01.074-2.509,1.042-1.076q.5,1.1.94,2.228c3.607-.5,7.09-1.468,10.665-2.129a74.253,74.253,0,0,0,16.63-4.443q-.655-1.586-1.382-3.144c-.024-1.381,1.229-.815,1.485.134q.6,1.246,1.145,2.513.95-.386,1.892-.794c.574-.211,1.428-.765,1.782.035a.694.694,0,0,1-.391.888q-1.364.59-2.749,1.142c3.326,8.124,5.26,16.748,8.461,24.926.51,1.465,1.1,2.9,1.739,4.307q.49-.243.975-.5.781-.5,1.53-1.054a.686.686,0,0,1,.807,1.108,24.968,24.968,0,0,1-2.736,1.677q.664,1.377,1.386,2.729a.685.685,0,0,1-1.2.658q-.736-1.374-1.4-2.778c-4.02,1.912-8.458,3.02-12.652,4.433-3.381,1.055-6.759,2.144-10.192,3.019a64.775,64.775,0,0,1-11.5,1.633q-.03,1.4-.05,2.8a.652.652,0,0,1-.709.645.643.643,0,0,1-.661-.684" transform="translate(-87.647 -109.41)" fill="#b5783c"/>
        <path id="Path_908494" data-name="Path 908494" d="M252.357,307.715c-.331-1.256-.615-2.521-.891-3.79a11.936,11.936,0,0,1-.457-3.021c.426-1.3,1.44-.109,1.4.745.36,1.927.794,3.841,1.283,5.739a.672.672,0,0,1-.715.833.628.628,0,0,1-.616-.506" transform="translate(-94.155 -112.663)"/>
        <path id="Path_908495" data-name="Path 908495" d="M264.182,304.131c-.174-.576-.348-1.153-.529-1.727.006.024.014.048.022.072a.012.012,0,0,1,0,.007c-.291-.909-.611-1.807-.94-2.7-.172-.787-1.233-2.086-.242-2.647,1.078.058,1.169,1.462,1.552,2.236.57,1.53,1.02,2.92,1.468,4.435a.689.689,0,0,1-.5.829.629.629,0,0,1-.179.02.713.713,0,0,1-.65-.522" transform="translate(-98.313 -111.464)"/>
        <path id="Path_908496" data-name="Path 908496" d="M264.638,305.693l0,.006,0-.006" transform="translate(-99.274 -114.676)"/>
        <path id="Path_908497" data-name="Path 908497" d="M276.7,301.97a61.665,61.665,0,0,0-2.442-6.565c-.348-.471-.554-1.837.384-1.587,1.342.745,2.49,5.5,3.152,7.1.189.484.436,1.187-.207,1.441a.693.693,0,0,1-.887-.389" transform="translate(-102.774 -110.209)"/>
        <path id="Path_908498" data-name="Path 908498" d="M238.165,323.591c-.309-1.3,2.243-1.071,3.046-1.347a42.481,42.481,0,0,0,4.751-1.163.686.686,0,0,1,.327,1.331c-1.031.253-5.213,1.556-7.167,1.5-.481-.014-.826-.109-.957-.322" transform="translate(-89.334 -120.439)"/>
        <path id="Path_908499" data-name="Path 908499" d="M241.109,331.189c.619-.359,1.4-.2,2.075-.384,1.626-.3,3.234-.7,4.826-1.145a.686.686,0,0,1,.328,1.331,31.33,31.33,0,0,1-6.754,1.343c-.6-.062-1.182-.739-.475-1.144" transform="translate(-90.326 -123.657)"/>
        <path id="Path_908500" data-name="Path 908500" d="M241.542,342.3c.571-.385,1.285-.2,1.922-.379a40.86,40.86,0,0,0,4.736-1.267c.7-.117,1.793-.972,2.246-.053.3.9-.839,1.011-1.435,1.23-2.262.663-4.55,1.543-6.928,1.59-.551-.047-1.194-.715-.541-1.121" transform="translate(-90.507 -127.614)"/>
        <path id="Path_908501" data-name="Path 908501" d="M262.025,362.87c.066-2.651.013-5.308-.044-7.96-.073-.561.543-1.47,1.067-.822.431.464.28,1.142.326,1.718q.056,2.969.052,5.941c-.052.643.211,1.8-.735,1.827a.691.691,0,0,1-.665-.7" transform="translate(-98.275 -132.746)"/>
        <path id="Path_908502" data-name="Path 908502" d="M273.652,361c-.315-2.057-.341-4.151-.513-6.225a6.633,6.633,0,0,1,.017-2.286c.512-1.062,1.372-.1,1.254.72.183,2.487.256,4.99.573,7.463a.678.678,0,0,1-.721.834.619.619,0,0,1-.611-.506" transform="translate(-102.424 -132.055)"/>
        <path id="Path_908503" data-name="Path 908503" d="M284.71,356.819c-.356-1.634-.515-3.274-.79-4.869-.057-.732-.5-1.484-.229-2.2.183-.575.829-.4,1.075.028a9.9,9.9,0,0,1,.609,2.585c.227,1.391.37,2.768.667,4.133a.676.676,0,0,1-.72.832.622.622,0,0,1-.611-.505" transform="translate(-106.389 -131.065)"/>
        <path id="Path_908504" data-name="Path 908504" d="M298.279,353.431c-.266-.134-.349-.581-.421-.8-.386-1.22-.821-2.424-1.275-3.62-.185-.988-2.04-3.706-.8-4.255,1.185.1,1.4,2.486,1.941,3.4.575,1.492,1.117,3,1.584,4.527a.7.7,0,0,1-.7.85.6.6,0,0,1-.324-.1" transform="translate(-110.799 -129.331)"/>
        <path id="Path_908505" data-name="Path 908505" d="M288.636,309.638c-.356-.018-.687-.326-.5-.692.638-1.067,2.164-1.264,3.177-1.913,1.24-.594,2.487-1.18,3.744-1.741.425-.269,1.062-.347,1.28.215.316,1.122-1.763,1.311-2.376,1.79-.964.451-1.926.9-2.883,1.37-.8.3-1.539,1-2.42.972h-.02" transform="translate(-108.068 -114.448)"/>
        <path id="Path_908506" data-name="Path 908506" d="M293.923,317.079c1.886-.634,3.7-1.471,5.526-2.249a.685.685,0,0,1,.5,1.277c-2.17.834-4.283,2.105-6.587,2.464-1.5-.336-.347-1.387.563-1.492" transform="translate(-109.777 -118.083)"/>
        <path id="Path_908507" data-name="Path 908507" d="M296.053,330.069c-.5-.092-.72-.565-.331-.946.907-.724,2.219-.81,3.277-1.28.869-.109,3.032-1.547,3.48-.477a.69.69,0,0,1-.39.888c-1.1.381-2.216.737-3.322,1.112a10.248,10.248,0,0,1-2.527.717c-.062,0-.124-.006-.187-.014" transform="translate(-110.86 -122.658)"/>
        <path id="Path_908508" data-name="Path 908508" d="M139.459,208.542a74.36,74.36,0,0,1-12.709-1.931c-6.349-1.7-17.363-3.623-15.569-12.476-.012-.675.984-1.7,1.355-.714a8.262,8.262,0,0,1-.19,2.23c-.14,5.4,5.976,7.245,10.225,8.41a72.784,72.784,0,0,0,18.1,3.158c2.665,0,5.325.122,7.985.244a115.729,115.729,0,0,0,11.917.139,90.775,90.775,0,0,1,9.492.334c2.351.164,4.7.329,7.057.359,2.38-.017,4.765.085,7.148.186a79.711,79.711,0,0,0,12.852-.142c8.81-1.228,17.734-2.839,26.064-5.98,2.179-1.092,10.571-5.15,10.3-7.481-.481-1.4-2.954-.406-2.909-1.832.349-1.274,3.089-.107,3.67.531,2.724,3.5-4.363,6.413-6.592,8.005a34.765,34.765,0,0,1-10.127,4.07,123.163,123.163,0,0,1-24.633,4.392c-2.92,0-5.838-.1-8.756-.2-3.139-.1-6.279-.207-9.419-.2-3.041-.242-6.08-.547-9.132-.614-4.415-.211-8.83.134-13.244.014-4.29-.316-8.584-.433-12.884-.509" transform="translate(-41.635 -72.204)"/>
        <path id="Path_908509" data-name="Path 908509" d="M157.232,268.4c-1.393-.077-2.789-.167-4.179-.3-.748-.071-1.494-.152-2.238-.251s-1.51-.232-2.261-.371c-1.418-.26-2.831-.554-4.246-.829-1.452-.281-2.894-.6-4.343-.892-1.425-.286-2.86-.527-4.292-.774s-2.848-.468-4.277-.655c-1.492-.2-2.988-.334-4.484-.492-.745-.078-1.491-.161-2.231-.279-.714-.112-1.425-.24-2.135-.369-1.36-.25-2.718-.509-4.078-.755-1.423-.257-2.836-.571-4.253-.857-1.322-.267-2.64-.554-3.965-.807q-2.055-.394-4.123-.711c-1.017-.158-2.039-.3-3.046-.521s-2.013-.478-3.02-.714c-.744-.169-1.49-.334-2.239-.471s-1.519-.248-2.285-.329l.062.006-.079-.008h-.006c-.445-.042-.891-.08-1.338-.1-.5-.023-1.007-.013-1.51,0-.4.018-.8.042-1.2.083-.312.032-.624.07-.936.1a3.128,3.128,0,0,1-.418.029,1.141,1.141,0,0,1-.294-.051q.875-.768,1.846-1.475l.222-.018c.637-.045,1.276-.059,1.914-.055s1.29.061,1.93.127c.693.072,1.382.166,2.068.287,1.387.246,2.756.576,4.123.908l.806.193-.089-.021c1.38.321,2.777.522,4.174.744s2.777.466,4.158.735c2.736.532,5.455,1.16,8.2,1.655,1.366.247,2.729.512,4.1.759.7.127,1.4.244,2.1.348.762.111,1.531.187,2.3.264,1.49.151,2.979.3,4.464.5,1.462.2,2.918.439,4.372.692,1.317.23,2.634.458,3.945.721.682.137,1.362.288,2.042.431s1.364.277,2.047.41c1.359.264,2.716.536,4.076.8s2.716.452,4.085.6c1.5.142,3,.243,4.5.334.749.045,1.5.072,2.247.088.785.016,1.57-.011,2.354-.037,1.461-.071,2.917-.206,4.375-.331,1.537-.131,3.071-.289,4.605-.454,1.494-.161,2.989-.314,4.481-.486s2.981-.362,4.471-.552c1.368-.176,2.729-.4,4.09-.621s2.734-.444,4.1-.68h0c2.416-.426,4.821-.925,7.255-1.247,1.235-.162,2.471-.295,3.712-.406,1.107-.1,2.207-.221,3.3-.41,1.415-.259,2.818-.573,4.215-.917,1.565-.384,3.1-.865,4.64-1.349l-.027.008.253-.08c1.023-.326,2.039-.666,3.056-1.01.985-.332,1.97-.661,2.951-1.007.945-.334,1.881-.692,2.815-1.055.992-.385,1.981-.776,2.947-1.225q1.092-.52,2.151-1.107c.774-.427,1.527-.9,2.275-1.368l0,0,.012-.007.008-.005,0,0c.326-.21.65-.421.959-.658q.376-.288.742-.591l-.011.009.019-.016.011-.009,0,0,.027-.022-.012.01c.327-.277.643-.566.967-.847s.676-.573,1.028-.841c.3-.228.605-.446.914-.66.212-.147.424-.3.641-.437.194-.126.392-.244.592-.358l0,0a2.564,2.564,0,0,0,.046.262q.037.641.049,1.282a23.832,23.832,0,0,0-2,1.461c-.4.339-.79.7-1.188,1.037a16.557,16.557,0,0,1-1.8,1.366c-1.112.717-2.242,1.4-3.412,2.018a37.33,37.33,0,0,1-3.852,1.739c-1.558.612-3.126,1.2-4.712,1.739-1.655.562-3.309,1.125-4.973,1.652-1.453.458-2.906.91-4.379,1.293-1.371.357-2.757.673-4.149.933-.674.126-1.348.243-2.028.33-.642.082-1.288.142-1.933.2-1.435.129-2.866.277-4.29.486-.644.094-1.287.2-1.929.307l.013,0c-1.453.258-2.9.534-4.357.79s-2.919.487-4.378.73-2.9.474-4.354.659c-1.488.191-2.977.379-4.467.55-1.532.176-3.066.332-4.6.5-1.5.161-3,.311-4.5.438-1.462.125-2.929.276-4.4.325-.779.026-1.558.042-2.338.039-.2,0-.4,0-.607-.01-.533-.015-1.067-.044-1.6-.074" transform="translate(-33.693 -93.164)"/>
        <path id="Path_908510" data-name="Path 908510" d="M98.93,263.831h0" transform="translate(-37.112 -98.972)"/>
        <path id="Path_908511" data-name="Path 908511" d="M310.112,255.427l0,0-.016.01.012-.008" transform="translate(-116.329 -95.818)"/>
        <line id="Line_322" data-name="Line 322" transform="translate(195.508 158.342)"/>
        <path id="Path_908512" data-name="Path 908512" d="M312.88,253.4h0" transform="translate(-117.371 -95.058)"/>
        <path id="Path_908513" data-name="Path 908513" d="M312.882,253.39l.014-.013a.147.147,0,0,1-.015.014Z" transform="translate(-117.372 -95.05)"/>
        <path id="Path_908514" data-name="Path 908514" d="M98.938,263.831h0l.019,0h-.017" transform="translate(-37.114 -98.971)"/>
        <path id="Path_908515" data-name="Path 908515" d="M98.935,263.831h0" transform="translate(-37.114 -98.972)"/>
        <path id="Path_908516" data-name="Path 908516" d="M284.554,268.454l-.023.007.023-.007" transform="translate(-106.737 -100.706)"/>
        <path id="Path_908517" data-name="Path 908517" d="M284.572,268.451l-.006,0,.006,0" transform="translate(-106.75 -100.705)"/>
        <path id="Path_908518" data-name="Path 908518" d="M284.579,268.45h0" transform="translate(-106.754 -100.704)"/>
        <path id="Path_908519" data-name="Path 908519" d="M284.581,268.449h0" transform="translate(-106.755 -100.704)"/>
        <path id="Path_908520" data-name="Path 908520" d="M284.583,268.445l.024-.008-.025.008h0" transform="translate(-106.756 -100.7)"/>
        <path id="Path_908521" data-name="Path 908521" d="M284.65,268.421c-.011,0-.019.007-.029.009.01,0,.019-.006.029-.009" transform="translate(-106.771 -100.694)"/>
        <path id="Path_908522" data-name="Path 908522" d="M283.738,266.408l-.057.018.057-.018" transform="translate(-106.418 -99.938)"/>
        <path id="Path_908523" data-name="Path 908523" d="M310.063,255.443l-.052.033.052-.033" transform="translate(-116.295 -95.825)"/>
        <path id="Path_908524" data-name="Path 908524" d="M312.853,253.421l0,0,0,0" transform="translate(-117.36 -95.067)"/>
        <path id="Path_908525" data-name="Path 908525" d="M312.859,253.41l.011-.009-.015.013,0,0" transform="translate(-117.362 -95.059)"/>
        <path id="Path_908526" data-name="Path 908526" d="M310.523,275.034a5.72,5.72,0,0,1-.522-.814c-.292-.524-.557-1.063-.816-1.605s-.545-1.095-.836-1.633c-.557-1.029-1.13-2.048-1.634-3.107a17.556,17.556,0,0,1-.76-1.836,1.709,1.709,0,0,1-.133-1.04c.061-.214.233-.547.5-.539a.762.762,0,0,1,.45.218,1.407,1.407,0,0,1,.272.341,1.7,1.7,0,0,1,.137.376,16.412,16.412,0,0,0,.684,1.717c.537,1.145,1.164,2.243,1.761,3.357q.427.8.816,1.611c.259.544.529,1.083.827,1.605l.068.115c-.139.563-.282,1.125-.429,1.667a5.159,5.159,0,0,1-.387-.432" transform="translate(-114.709 -99.207)"/>
        <path id="Path_908527" data-name="Path 908527" d="M79.056,287.051q.122-.436.262-.866a12.954,12.954,0,0,1,.849-1.954,14.959,14.959,0,0,1,1.042-1.7,25.758,25.758,0,0,1,2.484-2.693,21.252,21.252,0,0,0,1.61-1.976l.091-.127.011-.016a20.618,20.618,0,0,0,1.186-1.908A18.655,18.655,0,0,0,87.433,274a13.363,13.363,0,0,0,.427-1.41,2.475,2.475,0,0,1,.291-.966,1.164,1.164,0,0,1,.343-.331.4.4,0,0,1,.312-.058.937.937,0,0,1,.51.783,1.69,1.69,0,0,1-.059.587c-.034.181-.079.36-.122.539a11.806,11.806,0,0,1-.668,1.943,18.788,18.788,0,0,1-1.942,3.419l-.057.078a22.6,22.6,0,0,1-1.637,2.037c-.559.616-1.17,1.184-1.741,1.788a11.142,11.142,0,0,0-.747.889,13.441,13.441,0,0,0-1.612,3,19.948,19.948,0,0,0-.595,2.049h0c-.241,1.126-.419,2.262-.58,3.4-.152-1.5-.332-3.058-.5-4.7" transform="translate(-29.657 -101.745)"/>
        <path id="Path_908528" data-name="Path 908528" d="M90.913,283l.006-.008-.011.016.006-.008" transform="translate(-34.102 -106.16)"/>
        <path id="Path_908529" data-name="Path 908529" d="M90.981,282.9l-.021.029.021-.029" transform="translate(-34.122 -106.126)"/>
        <path id="Path_908530" data-name="Path 908530" d="M91,282.891l0,.006,0-.006" transform="translate(-34.134 -106.122)"/>
        <path id="Path_908531" data-name="Path 908531" d="M91,282.887l0,0,0,0" transform="translate(-34.137 -106.12)"/>
        <path id="Path_908532" data-name="Path 908532" d="M91,282.883l0,0,0,0" transform="translate(-34.138 -106.119)"/>
        <path id="Path_908533" data-name="Path 908533" d="M91.007,282.878l0,0,0,0" transform="translate(-34.139 -106.117)"/>
        <path id="Path_908534" data-name="Path 908534" d="M90.86,283.069a.233.233,0,0,1-.017.024.233.233,0,0,0,.017-.024" transform="translate(-34.078 -106.188)"/>
        <path id="Path_908535" data-name="Path 908535" d="M90.893,283.02l-.022.031.022-.031" transform="translate(-34.089 -106.17)"/>
        <path id="Path_908536" data-name="Path 908536" d="M91.029,282.834l-.019.028.019-.028" transform="translate(-34.141 -106.1)"/>
        <path id="Path_908537" data-name="Path 908537" d="M184.521,234.389a5.954,5.954,0,0,1-.65-.057,4.885,4.885,0,0,1-.627-.152c-.777-.232-1.545-.5-2.308-.778-1.656-.6-3.3-1.217-4.973-1.781-.888-.3-1.778-.59-2.668-.885s-1.787-.6-2.684-.894c-1.28-.416-2.561-.826-3.87-1.141h0a26.221,26.221,0,0,0-2.991-.532,36.339,36.339,0,0,0-4.442-.142c-1.786.076-3.569.277-5.34.511-.969.127-1.933.273-2.9.381-.927.1-1.857.171-2.788.241s-1.888.138-2.834.191-1.9.083-2.853.131c-.969.05-1.936.11-2.906.155-.928.044-1.856.059-2.784.093h.021l-.068,0h-.019c-1.905.077-3.805.2-5.711.285-.969.043-1.938.077-2.905.126-.995.052-1.988.114-2.981.167-.9.048-1.8.108-2.7.191-.964.091-1.926.186-2.89.262-.936.074-1.868.159-2.8.269-.966.114-1.932.236-2.9.345-.925.1-1.855.212-2.786.247a10.793,10.793,0,0,1-1.463-.036c-.468-.048-.931-.12-1.392-.208-.431-.082-.857-.187-1.278-.3a12.606,12.606,0,0,1-1.31-.444c-.893-.349-1.756-.779-2.635-1.162-.622-.272-1.253-.523-1.888-.765q-1.105-.412-2.22-.8c-.2-.067-.392-.135-.589-.2a1.472,1.472,0,0,1-.561-.307.974.974,0,0,1-.292-.466.464.464,0,0,1,.026-.356.567.567,0,0,1,.26-.194,1.271,1.271,0,0,1,.634-.079,3.157,3.157,0,0,1,.634.2l.581.2c.809.282,1.616.57,2.414.88s1.576.64,2.35.991c.712.322,1.422.647,2.151.929.461.165.931.294,1.4.413a16.478,16.478,0,0,0,1.871.317,11.653,11.653,0,0,0,1.3.026c1.907-.115,3.8-.379,5.7-.6.93-.11,1.864-.19,2.8-.264s1.856-.168,2.784-.252,1.867-.147,2.8-.2c.994-.053,1.987-.116,2.982-.166.941-.049,1.884-.08,2.826-.122.977-.044,1.951-.1,2.926-.15.857-.044,1.713-.091,2.57-.125.875-.035,1.751-.057,2.627-.087.975-.039,1.949-.1,2.922-.15.949-.053,1.9-.081,2.846-.131,1.91-.1,3.823-.237,5.728-.424.958-.094,1.911-.241,2.865-.369.929-.125,1.86-.239,2.792-.332.889-.089,1.779-.165,2.671-.209s1.811-.035,2.716-.009,1.828.092,2.734.208c.879.113,1.749.3,2.611.5.909.209,1.8.477,2.691.755.909.284,1.814.584,2.716.887,1.756.589,3.521,1.152,5.266,1.768,1.626.574,3.234,1.2,4.869,1.75.436.146.873.3,1.317.416.12.024.238.041.358.054.372.026.742.03,1.115.022.955-.043,1.908-.137,2.859-.239q1.565-.169,3.131-.347a.685.685,0,1,1,.147,1.362q-1.4.161-2.8.312c-.92.1-1.841.2-2.766.253-.412.024-.827.045-1.24.033-.065,0-.129,0-.194-.008" transform="translate(-36.578 -84.89)"/>
        <path id="Path_908538" data-name="Path 908538" d="M160.441,231.8h0" transform="translate(-60.184 -86.954)"/>
        <path id="Path_908539" data-name="Path 908539" d="M160.466,231.794h0" transform="translate(-60.192 -86.954)"/>
        <path id="Path_908540" data-name="Path 908540" d="M160.473,231.794h0" transform="translate(-60.199 -86.953)"/>
        <path id="Path_908541" data-name="Path 908541" d="M160.527,231.79h0" transform="translate(-60.203 -86.952)"/>
        <path id="Path_908542" data-name="Path 908542" d="M290.507,217.659c-.227-.043-.556-.177-.6-.44a.618.618,0,0,1,.1-.38,1.228,1.228,0,0,1,.462-.439,2.58,2.58,0,0,1,.481-.173c.181-.058.361-.118.542-.179.661-.223,1.315-.466,1.965-.719,1.265-.492,2.52-1,3.757-1.56.171-.077.341-.157.512-.236h0l.039-.018c.353-.166.709-.331,1.051-.52q.559-.309,1.1-.65l-.006,0a26.368,26.368,0,0,0,2.548-1.8,9.454,9.454,0,0,0,.8-.745c.2-.219.384-.447.56-.685a6.983,6.983,0,0,0,.369-.6,8.345,8.345,0,0,0,.349-.762c.063-.177.117-.356.164-.537l0-.014v0c0-.012.005-.024.008-.036a.1.1,0,0,1,0-.019h0v0l.005-.021,0,.007a7.042,7.042,0,0,0,.111-.7,9.421,9.421,0,0,0,.021-.985c0-.1-.011-.2-.019-.3a.685.685,0,1,1,1.363-.148,8.184,8.184,0,0,1-.174,2.57,7.3,7.3,0,0,1-2.106,3.514,15,15,0,0,1-1.57,1.268c-.587.414-1.184.815-1.791,1.2a18.557,18.557,0,0,1-1.791,1c-.607.294-1.222.572-1.84.841-1.262.547-2.541,1.059-3.829,1.54-.537.2-1.082.384-1.627.563a2.4,2.4,0,0,1-.807.178.983.983,0,0,1-.164-.017" transform="translate(-108.754 -76.676)"/>
        <path id="Path_908543" data-name="Path 908543" d="M313.607,208.889l0,.005,0-.005" transform="translate(-117.644 -78.361)"/>
        <path id="Path_908544" data-name="Path 908544" d="M313.625,208.812h0v0" transform="translate(-117.651 -78.332)"/>
        <path id="Path_908545" data-name="Path 908545" d="M313.63,208.789a.023.023,0,0,0,0,.01.023.023,0,0,1,0-.01" transform="translate(-117.652 -78.324)"/>
        <path id="Path_908546" data-name="Path 908546" d="M302.464,218.994l-.032.015.032-.015" transform="translate(-113.452 -82.152)"/>
        <path id="Path_908547" data-name="Path 908547" d="M313.609,208.881v0" transform="translate(-117.645 -78.358)"/>
        <path id="Path_908548" data-name="Path 908548" d="M313.626,208.8v0h0v0" transform="translate(-117.652 -78.329)"/>
        <path id="Path_908549" data-name="Path 908549" d="M315.712,209.483l0-.01,0,.018v-.008" transform="translate(-118.434 -78.58)"/>
        <path id="Path_908550" data-name="Path 908550" d="M315.734,209.36c-.005.024-.011.048-.016.072.005-.024.011-.048.016-.072" transform="translate(-118.436 -78.538)"/>
        <path id="Path_908551" data-name="Path 908551" d="M313.617,208.819a.1.1,0,0,1,0,.018.081.081,0,0,1-.005.021l.009-.039" transform="translate(-117.645 -78.335)"/>
        <path id="Path_908552" data-name="Path 908552" d="M219.409,185.471a13.425,13.425,0,0,0-3.815-6.851c-3.242-3.131-8.3-3.137-12.231-1.373A10.992,10.992,0,0,0,201,178.754c-.668.455-.976,1.388-1.784,1.607-.412.141-.657-.3-.6-.666.816-2.147,3.324-3.344,5.35-4.168,5-1.834,10.916-.709,14.108,3.775.709.7,3.774,6.45,2.171,6.67a.679.679,0,0,1-.18.02.714.714,0,0,1-.649-.522" transform="translate(-74.502 -65.531)"/>
        <path id="Path_908553" data-name="Path 908553" d="M225.762,180.95l.022.019.019.018-.041-.037" transform="translate(-84.691 -67.88)"/>
        <path id="Path_908554" data-name="Path 908554" d="M247.827,187.563a10.882,10.882,0,0,0-5.906-4.136,13.581,13.581,0,0,0-8.7,1.176c-.624.634-2.024.937-1.533-.388,1.683-1.944,4.642-2.176,7.062-2.368a11.117,11.117,0,0,1,9.511,4.1c.234.264.458.533.674.812a.694.694,0,0,1-.607,1.087.633.633,0,0,1-.5-.28" transform="translate(-86.876 -68.199)"/>
        <path id="Path_908555" data-name="Path 908555" d="M183.736,195.864c-2.174-6.93-7.94-10.953-14.84-7.147-.774.364-1.227,1.3-2.094,1.425-.649.082-.613-.759-.351-1.14,3.857-4.093,11.342-4.206,15.057.164.841.7,4.647,6.58,3.114,7.086a.664.664,0,0,1-.262.045.683.683,0,0,1-.625-.434" transform="translate(-62.375 -69.742)"/>
        <path id="Path_908556" data-name="Path 908556" d="M188.679,166.746c-1.089-.243.024-2.841.925-2.451.664.419.087,2.51-.752,2.486a.518.518,0,0,1-.174-.035" transform="translate(-70.611 -61.617)"/>
        <path id="Path_908557" data-name="Path 908557" d="M197.75,161.54a.693.693,0,0,1-.339-.907c.367-.656.611-2.063,1.615-1.817.709.7-.114,1.658-.369,2.386a.692.692,0,0,1-.649.4.664.664,0,0,1-.259-.061" transform="translate(-74.033 -59.566)"/>
        <path id="Path_908558" data-name="Path 908558" d="M194.543,170.465c-1.1-.251.046-2.834.949-2.419.637.431.052,2.478-.775,2.454a.527.527,0,0,1-.173-.035" transform="translate(-72.81 -63.023)"/>
        <path id="Path_908559" data-name="Path 908559" d="M204.854,165.1c-.937-.431.02-2.135.866-1.762.554.5.159,1.843-.6,1.821a.728.728,0,0,1-.265-.06" transform="translate(-76.703 -61.254)"/>
        <path id="Path_908560" data-name="Path 908560" d="M205.281,189.825c-1.076-.361.507-3.119,1.36-2.447.514.725-.207,1.45-.452,2.108a.7.7,0,0,1-.65.4.662.662,0,0,1-.258-.06" transform="translate(-76.872 -70.252)"/>
        <path id="Path_908561" data-name="Path 908561" d="M212.769,184.9c-.8-.581.164-1.474.425-2.1.209-.459.783-1,1.306-.707.605.87-.481,1.793-.787,2.593a.659.659,0,0,1-.6.319.685.685,0,0,1-.344-.1" transform="translate(-79.701 -68.277)"/>
        <path id="Path_908562" data-name="Path 908562" d="M210.473,200.1c-1.026-.418.317-2.66,1.178-2.283.647.457-.137,2.37-.943,2.347a.524.524,0,0,1-.235-.064" transform="translate(-78.816 -74.19)"/>
        <path id="Path_908563" data-name="Path 908563" d="M219.178,191.561a.689.689,0,0,1-.339-.908c.446-.652.712-2.086,1.743-1.858.742.725-.191,1.7-.5,2.427a.72.72,0,0,1-.651.4.654.654,0,0,1-.257-.061" transform="translate(-82.069 -70.814)"/>
        <path id="Path_908564" data-name="Path 908564" d="M230.731,202.048a.689.689,0,0,1-.34-.908c.49-.7.83-2.391,1.964-2.006.441.486.064,1.185-.217,1.638s-.517,1.357-1.127,1.34a.786.786,0,0,1-.28-.064" transform="translate(-86.402 -74.681)"/>
        <path id="Path_908565" data-name="Path 908565" d="M242.029,191.888a.69.69,0,0,1-.339-.908c.362-.611.73-1.9,1.658-1.568.627.472-.274,2.564-1.093,2.541a.472.472,0,0,1-.227-.065" transform="translate(-90.642 -71.034)"/>
        <path id="Path_908566" data-name="Path 908566" d="M247.735,196.563a.706.706,0,0,1-.184-1.01c.454-.659.708-2.143,1.761-1.895.762.819-.321,1.88-.634,2.686a.652.652,0,0,1-.6.319.684.684,0,0,1-.344-.1" transform="translate(-92.814 -72.637)"/>
        <path id="Path_908567" data-name="Path 908567" d="M238.9,206.438c-.616-.386-.178-1.061.1-1.518.207-.485.738-1.165,1.328-.868.431.465.131,1.139-.164,1.592-.18.4-.479.917-.916.9a.7.7,0,0,1-.344-.111" transform="translate(-89.503 -76.52)"/>
        <path id="Path_908568" data-name="Path 908568" d="M218.195,206.034a.691.691,0,0,1-.339-.907c.392-.657.716-2.11,1.73-1.782.65.731-.214,1.63-.483,2.35a.706.706,0,0,1-.651.4.659.659,0,0,1-.257-.06" transform="translate(-81.701 -76.264)"/>
        <path id="Path_908569" data-name="Path 908569" d="M171.382,201.118c-1.1-.284.014-2.735.927-2.364.642.429.068,2.421-.753,2.4a.543.543,0,0,1-.174-.034" transform="translate(-64.12 -74.545)"/>
        <path id="Path_908570" data-name="Path 908570" d="M178.824,196.153a.693.693,0,0,1-.339-.908c.352-.656.659-2.1,1.658-1.771.655.712-.162,1.618-.411,2.34a.688.688,0,0,1-.65.4.676.676,0,0,1-.258-.059" transform="translate(-66.933 -72.561)"/>
        <path id="Path_908571" data-name="Path 908571" d="M182.086,204.017c-.948-.346.161-2.729,1.015-2.441.74.379.086,2.534-.766,2.51a.559.559,0,0,1-.249-.069" transform="translate(-68.17 -75.609)"/>
        <path id="Path_908572" data-name="Path 908572" d="M178.6,176.481a.69.69,0,0,1-.455-.856c.34-.729.385-2.243,1.477-2.133.81.641.008,1.754-.166,2.535a.705.705,0,0,1-.679.484.655.655,0,0,1-.177-.03" transform="translate(-66.814 -65.08)"/>
        <path id="Path_908573" data-name="Path 908573" d="M152.219,188.592a.691.691,0,0,1-.339-.907c.4-.76.517-2.475,1.687-2.266.773.813-.246,1.951-.441,2.835a.666.666,0,0,1-.648.4.687.687,0,0,1-.26-.059" transform="translate(-56.953 -69.55)"/>
        <path id="Path_908574" data-name="Path 908574" d="M162.72,183.783c-1.026-.421-.085-1.584.1-2.283.176-.537.635-1.439,1.323-1.128.484.462.164,1.189-.076,1.7-.339.59-.372,1.76-1.17,1.738a.988.988,0,0,1-.181-.023" transform="translate(-60.865 -67.64)"/>
        <path id="Path_908575" data-name="Path 908575" d="M156.892,201.807a.69.69,0,0,1-.455-.856c.271-.674.474-2.158,1.488-1.844.634.64,0,1.537-.178,2.245a.7.7,0,0,1-.679.484.691.691,0,0,1-.177-.029" transform="translate(-58.673 -74.676)"/>
        <path id="Path_908576" data-name="Path 908576" d="M233.228,176.372c-1.047-.231-.074-2.956.869-2.558.652.4.175,2.621-.684,2.6a.534.534,0,0,1-.184-.039" transform="translate(-87.322 -65.188)"/>
        <path id="Path_908577" data-name="Path 908577" d="M256.425,204.694a.689.689,0,0,1-.339-.908c.416-.642.609-2.086,1.633-1.848.72.692-.092,1.7-.387,2.417a.719.719,0,0,1-.651.4.656.656,0,0,1-.257-.062" transform="translate(-96.042 -75.743)"/>
        <path id="Path_908578" data-name="Path 908578" d="M266.558,191.269c-.941-.521.636-2.782,1.462-2.166.481.512-.383,2.3-1.164,2.273a.518.518,0,0,1-.3-.107" transform="translate(-99.886 -70.899)"/>
        <path id="Path_908579" data-name="Path 908579" d="M131.961,208.215c-1.075-.649-.089-2.135.332-2.938a8.063,8.063,0,0,1,4.158-3.309,6.148,6.148,0,0,1,2.883-.367c.867.146,3.59.65,3,1.918-.287.464-.844.345-1.216.061-3-1.738-6.942.313-8.131,3.352-.161.5-.357,1.3-1.008,1.283h-.023" transform="translate(-49.321 -75.611)"/>
        <path id="Path_908580" data-name="Path 908580" d="M62.768,387.139a36.883,36.883,0,0,1-9.344-1.609c-2.165-.34-3.879-2.534-6.089-2.139-7.644,1.528-15.678,3.745-23.368,1.306-3.4-1.074-8.178-2.649-9.789-6.06C6.9,377.728-3.24,372.849,1,364.566c3.693-5.818,5.69-3.046,7.378-11.108a9.185,9.185,0,0,1,7.383-5.7h0c.436-.856.837-1.593.959-1.923,3.235-6.413,10.138-10.6,17.233-11.2.758-1.284,1.541-2.457,1.848-3.022C39.292,326.142,46,320.131,52.785,322.2a17.567,17.567,0,0,1,4.563-2.783q.3-.159.6-.284c5.035-2.121,9.51,2.863,11.6,7.073.769,1.425,1.41,2.911,2.05,4.4a15.476,15.476,0,0,1,5.533,1.036c5.276,2.994,8.694,8.6,11.582,13.806a10.482,10.482,0,0,1,7.811,3.869c2.977,3.1,5.722,6.408,8.7,9.5,1.9,2.112,4.218,3.974,5.471,6.579a11.457,11.457,0,0,1,1.04,7.958c-2.229,8.093-15.53,11.052-23.787,11.208a29.278,29.278,0,0,1-6.514-1.052c-5.578,2.171-10.471,3.878-17.464,3.682-.394-.011-.794-.028-1.2-.051" transform="translate(0 -119.528)" fill="#965029"/>
        <path id="Path_908581" data-name="Path 908581" d="M56.067,364.665c-1.361-.955,1.873-4.75,2.631-5.659,4.856-5.543,10.9-4.76,14.966,1.173a.685.685,0,0,1-1.107.807c-.216-.3-.444-.592-.677-.878-3.864-5.006-8.922-4.344-12.654.389a16.263,16.263,0,0,0-1.6,2.333c-.426.606-.574,1.865-1.482,1.84l-.073-.005" transform="translate(-20.908 -133.269)"/>
        <path id="Path_908582" data-name="Path 908582" d="M77.69,352.616c-1.132-.992,2.431-4.13,3.146-4.946,4.981-4.916,11.96-4.588,15.222,1.985a.691.691,0,0,1-.271.929c-.734.376-1.043-.5-1.352-.987-2.571-4.716-7.913-5.015-11.8-1.691a22.044,22.044,0,0,0-3.508,3.753c-.282.407-.655,1.023-1.192,1.009a.77.77,0,0,1-.246-.05" transform="translate(-29.061 -129.162)"/>
        <path id="Path_908583" data-name="Path 908583" d="M127.717,380.452c-2.192-6.657-9.215-9.613-14.823-4.837l.006-.005,0,0a18.406,18.406,0,0,0-2.683,2.819,1.253,1.253,0,0,1-.651.466c-.417.174-.734-.194-.688-.6.409-1.5,2.171-2.787,3.259-3.829a10.426,10.426,0,0,1,8.446-2.434,10.76,10.76,0,0,1,6.989,4.961,23.55,23.55,0,0,1,1.42,2.965.691.691,0,0,1-.39.888.662.662,0,0,1-.261.046.7.7,0,0,1-.627-.435" transform="translate(-40.843 -139.499)"/>
        <path id="Path_908584" data-name="Path 908584" d="M141.678,403.142c-.744-2.126-1.347-4.274-2.986-5.838a9.084,9.084,0,0,0-10.835-1.032c-.693.362-1.17,1.215-2,1.229-.818-.079-.372-1.217.1-1.5,4.9-4.519,13.908-2.464,16.028,3.96.191.827,1.664,3.138.582,3.567a.7.7,0,0,1-.887-.389" transform="translate(-47.042 -147.643)"/>
        <path id="Path_908585" data-name="Path 908585" d="M53.515,393.362c-.61-.212-.847-.88-1.267-1.319a12.806,12.806,0,0,0-2.2-2.053c-2.763-1.9-6.849-2.456-9.779-.632a9.516,9.516,0,0,0-2.949,2.916.686.686,0,0,1-1.164-.724c3.215-5.365,10.477-6.071,15.2-2.286.968.9,2.817,2.307,2.889,3.673a.467.467,0,0,1-.5.479.636.636,0,0,1-.23-.053" transform="translate(-13.521 -145.133)"/>
        <path id="Path_908586" data-name="Path 908586" d="M37.687,382.222a12.53,12.53,0,0,0-1.468-2.377c-1.851-2.343-4.98-4.068-8.006-3.286a8.629,8.629,0,0,0-2.08.935.686.686,0,0,1-.807-1.108c3.87-2.774,9.237-1.007,11.932,2.569.548.667,3.233,4.417,1.35,4.469-.548-.157-.714-.739-.92-1.2" transform="translate(-9.395 -140.684)"/>
        <path id="Path_908587" data-name="Path 908587" d="M83.917,336.2c-.949-.575.136-1.735.377-2.461.209-.521.812-1.264,1.42-.869.545.932-.674,2.052-.888,2.991a.7.7,0,0,1-.909.339" transform="translate(-31.337 -124.827)"/>
        <path id="Path_908588" data-name="Path 908588" d="M91.427,338.07a.693.693,0,0,1-.339-.908c.429-.707.682-2.391,1.8-2.053.673.816-.3,1.809-.556,2.622a.691.691,0,0,1-.65.4.662.662,0,0,1-.258-.06" transform="translate(-34.148 -125.694)"/>
        <path id="Path_908589" data-name="Path 908589" d="M94.225,326.8a.7.7,0,0,1-.339-.907c.307-.649.552-2.081,1.537-1.768.664.679-.072,1.61-.29,2.336a.669.669,0,0,1-.649.4.685.685,0,0,1-.259-.058" transform="translate(-35.199 -121.574)"/>
        <path id="Path_908590" data-name="Path 908590" d="M73.335,344.637c-.954-.417.122-2.59,1.028-2.225.61.4.031,2.321-.772,2.3a.561.561,0,0,1-.256-.073" transform="translate(-27.371 -128.434)"/>
        <path id="Path_908591" data-name="Path 908591" d="M69.271,335.268a.69.69,0,0,1-.339-.908c.509-.726.827-2.622,2.005-2.258a1.146,1.146,0,0,1-.022,1.374c-.411.55-.586,1.864-1.382,1.841a.915.915,0,0,1-.262-.049" transform="translate(-25.834 -124.565)"/>
        <path id="Path_908592" data-name="Path 908592" d="M89.652,357.149c-.959-.573.141-1.7.4-2.411.206-.492.807-1.186,1.374-.81.394.507.025,1.142-.251,1.609-.375.516-.519,1.69-1.252,1.67a.9.9,0,0,1-.277-.057" transform="translate(-33.487 -132.73)"/>
        <path id="Path_908593" data-name="Path 908593" d="M101.058,362.646c-.951-.56.132-1.656.345-2.375.186-.5.689-1.245,1.3-.948.434.422.186,1.087-.063,1.542-.379.559-.522,1.856-1.312,1.833a.882.882,0,0,1-.269-.052" transform="translate(-37.766 -134.769)"/>
        <path id="Path_908594" data-name="Path 908594" d="M90.74,368.257c-.942-.547.109-1.632.337-2.331.2-.493.717-1.232,1.325-.925.435.439.148,1.105-.111,1.56-.371.539-.519,1.772-1.278,1.751a.905.905,0,0,1-.273-.055" transform="translate(-33.895 -136.897)"/>
        <path id="Path_908595" data-name="Path 908595" d="M72.07,370.475c-.882-.457-.028-1.409.231-1.981.309-.568.739-1.643,1.553-1.3.542.573-.024,1.349-.317,1.893-.321.476-.54,1.47-1.191,1.452a.82.82,0,0,1-.275-.061" transform="translate(-26.89 -137.721)"/>
        <path id="Path_908596" data-name="Path 908596" d="M80.285,379.933a.7.7,0,0,1-.339-.908c.343-.683.576-2.234,1.626-1.917.669.74-.163,1.711-.379,2.485a.693.693,0,0,1-.907.339" transform="translate(-29.97 -141.45)"/>
        <path id="Path_908597" data-name="Path 908597" d="M60.641,375.3a.688.688,0,0,1-.339-.908c.43-.659.8-2.028,1.813-1.748.685.721-.273,1.627-.567,2.317a.7.7,0,0,1-.65.4.63.63,0,0,1-.258-.062" transform="translate(-22.596 -139.776)"/>
        <path id="Path_908598" data-name="Path 908598" d="M51.219,356.2c-.951-.56.132-1.667.333-2.394.169-.486.689-1.164,1.263-.884.432.42.186,1.086-.056,1.54-.355.555-.5,1.813-1.268,1.792a.931.931,0,0,1-.272-.054" transform="translate(-19.069 -132.368)"/>
        <path id="Path_908599" data-name="Path 908599" d="M95.523,381.253a.692.692,0,0,1-.339-.907c.371-.673.655-2.177,1.693-1.847.654.737-.2,1.67-.446,2.416a.691.691,0,0,1-.649.4.663.663,0,0,1-.259-.06" transform="translate(-35.684 -141.97)"/>
        <path id="Path_908600" data-name="Path 908600" d="M110.12,370.23c-.952-.559.126-1.657.369-2.362.227-.516.734-1.322,1.394-1.01a1.15,1.15,0,0,1-.051,1.4c-.466.58-.592,2.042-1.456,2.018a.95.95,0,0,1-.256-.046" transform="translate(-41.165 -137.594)"/>
        <path id="Path_908601" data-name="Path 908601" d="M115.389,353.278a.69.69,0,0,1-.339-.907c.553-.755.814-2.626,2.015-2.409.484.408.222,1.117-.05,1.574-.4.543-.584,1.816-1.362,1.794a.917.917,0,0,1-.263-.051" transform="translate(-43.135 -131.276)"/>
        <path id="Path_908602" data-name="Path 908602" d="M121.633,384.643c-.959-.6.169-1.806.383-2.574.175-.491.729-1.253,1.31-.891.414.459.13,1.107-.116,1.575-.4.579-.476,1.963-1.306,1.94a.962.962,0,0,1-.271-.051" transform="translate(-45.486 -142.957)"/>
        <path id="Path_908603" data-name="Path 908603" d="M112.981,392.968c-.929-.524.072-1.543.294-2.223.176-.49.716-1.18,1.292-.877.394.414.186,1.045-.062,1.482-.339.529-.521,1.694-1.251,1.675a.851.851,0,0,1-.273-.057" transform="translate(-42.237 -146.225)"/>
        <path id="Path_908604" data-name="Path 908604" d="M95.3,393.4c-.988-.611.225-1.786.435-2.56.2-.51.693-1.32,1.335-1.018.46.44.163,1.143-.1,1.609-.426.592-.557,2.038-1.415,2.014a.976.976,0,0,1-.257-.046" transform="translate(-35.608 -146.211)"/>
        <path id="Path_908605" data-name="Path 908605" d="M69.1,385.329c-.938-.563.541-2.5,1.35-1.921.444.565-.279,2.04-1.039,2.019a.612.612,0,0,1-.311-.1" transform="translate(-25.81 -143.789)"/>
        <path id="Path_908606" data-name="Path 908606" d="M50.394,400.061c-.826-.623.239-1.56.513-2.221.241-.49.822-1.229,1.422-.854.41.521.014,1.177-.294,1.64-.365.48-.62,1.557-1.283,1.539a.835.835,0,0,1-.357-.1" transform="translate(-18.789 -148.884)"/>
        <path id="Path_908607" data-name="Path 908607" d="M76.212,398c-.842-.664.313-1.7.534-2.443.224-.533.775-1.287,1.428-.945.62.844-.723,2.3-1.019,3.168a.658.658,0,0,1-.6.32.684.684,0,0,1-.342-.1" transform="translate(-28.476 -147.999)"/>
        <path id="Path_908608" data-name="Path 908608" d="M37.8,366.106a.69.69,0,0,1-.339-.907c.454-.722.8-2.411,1.935-2.028.383.4.159,1.028-.1,1.433-.342.5-.525,1.581-1.216,1.562a.825.825,0,0,1-.277-.059" transform="translate(-14.031 -136.216)"/>
        <path id="Path_908609" data-name="Path 908609" d="M27.264,387.725a.689.689,0,0,1-.1-.964c.5-.577,1.033-1.926,1.978-1.453.542.852-.524,1.633-.917,2.32a.637.637,0,0,1-.541.248.712.712,0,0,1-.423-.151" transform="translate(-10.134 -144.505)"/>
        <path id="Path_908610" data-name="Path 908610" d="M101.686,402.823c-.935-.542.1-1.615.264-2.343.159-.495.456-1.224,1.086-1.16.655.318.407,1.2.165,1.72-.321.577-.46,1.858-1.242,1.836a.928.928,0,0,1-.272-.053" transform="translate(-38.001 -149.797)"/>
        <path id="Path_908611" data-name="Path 908611" d="M130.7,365.386c-.918-.49.539-2.643,1.33-2.088.534.517-.237,2.216-1.022,2.195a.567.567,0,0,1-.309-.106" transform="translate(-48.919 -136.251)"/>
        <path id="Path_908612" data-name="Path 908612" d="M150.034,386.863c-.847-.641.273-1.564.571-2.221.255-.479.84-1.185,1.43-.807.392.487.022,1.139-.288,1.568-.4.472-.683,1.58-1.36,1.561a.825.825,0,0,1-.352-.1" transform="translate(-56.166 -143.949)"/>
        <path id="Path_908613" data-name="Path 908613" d="M131.079,406.982a.775.775,0,0,1-.172-1.222c.377-.587.57-1.447,1.316-1.662,1.05-.162.587,1.282.195,1.751-.287.466-.494,1.213-1.055,1.2a.84.84,0,0,1-.284-.064" transform="translate(-49.026 -151.585)"/>
        <path id="Path_908614" data-name="Path 908614" d="M178.709,412.006c2.928,2.984-3.625,6.123-6.614,5.9-7.54-.373-7.154-7.724.019-8.252,1.2-.085,5.548-.072,5.665,1.486a1.342,1.342,0,0,1,.714.392.682.682,0,0,1,.217.469" transform="translate(-62.492 -153.666)" fill="#965029"/>
        <path id="Path_908615" data-name="Path 908615" d="M149.014,435.453c3.154,6.679-9.694,8.137-13.854,6.648-4.89-1.441-3.466-6.657.553-8.18,3.654-1.531,10.55-1.762,13.3,1.532" transform="translate(-49.538 -162.374)" fill="#965029"/>
        <path id="Path_908616" data-name="Path 908616" d="M54.821,443.47c5.723-.348,5.2,5.053-.089,4.809-1.916-.076-5.865-2.1-3.392-4.145.937-.6,2.43-1.178,3.481-.664" transform="translate(-18.963 -166.286)" fill="#965029"/>
        <path id="Path_908617" data-name="Path 908617" d="M176.941,444.761c.952.439,2.177,2.749.431,2.791-.893,1.775-3.3,2.125-5.1,2.059-9.985-1.22.079-8.363,4.67-4.85" transform="translate(-63.024 -166.483)" fill="#965029"/>
        <path id="Path_908618" data-name="Path 908618" d="M178.622,450.554c-1.238-.7.434-1.367,1.049-1.667.87-.321.652-1.888,1.744-1.667,1.8.942-1.452,4.019-2.793,3.334" transform="translate(-66.84 -167.759)" fill="#965029"/>
        <path id="Path_908619" data-name="Path 908619" d="M176.574,141.125c-.811-.284-.913-2.328-.822-4.444h0c-.144-1.835,0-3.839-.121-4.981q-.186-6.847.281-13.671c0-.021,0-.042,0-.062l.013-.188c0-.032,0-.064.007-.1l.017-.24.013-.177.009-.129.013-.173c0-.036.006-.072.009-.109.007-.094.014-.187.022-.281v0a39.783,39.783,0,0,0-.545-5.33,22.518,22.518,0,0,0-.965-3.548,26.241,26.241,0,0,0-1.733-2.587c-.58.467-1.168.923-1.778,1.35a20.861,20.861,0,0,1-7.418,3.852l-.127.039-.079.024-.1.032-.1.032-.157.049a23.082,23.082,0,0,1-6.6,1.347h-.069c-.343,0-.688-.016-1.034-.049l-.057-.006-.1-.011-.061-.007-.151-.02c-.059-.007-.117-.016-.174-.025l-.016,0h0l-.015,0q-.181-.026-.359-.057l-.217-.039-.159-.029-.024,0-.159-.032-.052-.01-.009,0-.056-.013-.15-.032c-.035-.007-.069-.014-.1-.023q-.832-.187-1.64-.452l-.013,0-.052-.017-.029-.009-.034-.011-.044-.015-.017-.006-.054-.019-.006,0q-.919-.314-1.8-.718l-.039-.018-.016-.007-.056-.026-.009,0q-.419-.194-.83-.406l-.009-.006c-.1-.049-.191-.1-.286-.149l-.293-.159-.009-.005-.138-.077-.023-.013-.032-.018-.028-.016-.061-.034-.066-.038-.016-.009-.022-.013-.051-.029-.133-.079a27.534,27.534,0,0,1-3.448-2.421h0l-.056-.046-.011-.009-.049-.04-.014-.011-.042-.035-.019-.016-.041-.034-.019-.016-.032-.027-.191-.161,0,0-.052-.045,0,0-.107-.092h0a37.981,37.981,0,0,1-3.341-3.277l0,0-.044-.049,0,0-.039-.044-.015-.016-.034-.038-.012-.014-.034-.037-.02-.022-.03-.034-.046-.052q-.439-.521-.869-1.05-.29-.354-.576-.71l-.634-.786q-.41-.51-.822-1.016l-.026-.032-.045-.056-.069-.085-.012-.014-.088-.108-.008-.01a41.893,41.893,0,0,0-3.945-4.293v0l-.223-.2-.008-.007-.22-.195-.014-.012-.219-.189-.014-.013c-.073-.062-.146-.124-.221-.186l-.017-.015c-.073-.06-.145-.12-.218-.179l-.023-.019-.219-.174-.024-.019-.219-.17-.027-.021-.11-.084a8.31,8.31,0,0,1-1.029-.986c-.043-.051-.084-.1-.122-.152-.054-.071-.1-.14-.145-.209l-.025-.042-.006-.009c-.008-.013-.016-.027-.023-.041a.077.077,0,0,1-.006-.012.388.388,0,0,1-.023-.042.344.344,0,0,1-.019-.037l-.027-.056a1.2,1.2,0,0,1-.052-.137c-.007-.021-.013-.041-.018-.061a.281.281,0,0,1-.009-.034.332.332,0,0,1-.009-.043l0-.011c0-.017-.006-.032-.008-.049a.481.481,0,0,1,0-.052c0-.02,0-.04,0-.061a.738.738,0,0,1,0-.074.354.354,0,0,1,0-.036.545.545,0,0,1,.009-.054c0-.007,0-.015,0-.022a.772.772,0,0,1,.025-.082l0-.008a.4.4,0,0,1,.016-.038c0-.009.008-.018.012-.026l0-.009q.02-.038.043-.077h0a1.18,1.18,0,0,1,.262-.287l0,0,.013-.011.007-.006.013-.01.012-.009,0,0a4.126,4.126,0,0,1,1.395-.587q2.946-1.085,5.9-2.153l.236-.089.047-.017.219-.083.012,0q2.675-1.006,5.392-1.9l.011,0,.5-.163.049-.016.179-.058.083-.027.144-.047.216-.069.061-.02.171-.054.021-.007q.725-.231,1.453-.454l.107-.032.153-.047.156-.047.309-.093.032-.01q.612-.185,1.226-.364l.142-.041.064-.019.894-.257.22-.062.17-.049a24.668,24.668,0,0,1,6.712-1.072h.067q.561,0,1.124.037l.172.013h.032l.176.014.117.008.046,0,.089.006.084.006.031,0q.344.026.691.06h.014l.128.013.054.006.055.006.116.013h0q.431.048.865.109h0q.257.036.514.077l.062.01.051.008.194.032.05.009.149.026h.008l.153.028.151.027.115.021h0a26.708,26.708,0,0,1,5.962,1.851l.011,0,.058.026.023.011.051.023.027.012.048.023.072.034.026.013.052.025.031.014.049.023.027.014.052.025.029.014.064.031.011.006.163.081.006,0,.074.037.009,0a15.119,15.119,0,0,1,7.242,7.117c.05.112.1.226.146.339v0l.034.082v0l.034.083v0q.051.128.1.259l0,.007.028.076.005.015.027.074,0,.01c.03.086.06.173.089.261l0,.014.024.072.006.018c.007.022.014.045.021.068l.007.021c.007.024.015.049.023.074l0,.011c.017.058.035.117.052.176a.2.2,0,0,0,.006.021c.006.021.012.043.018.064s0,.019.008.029l.016.058c0,.01.005.02.008.031l.016.059.008.027.022.087a11.253,11.253,0,0,1,.254,2.471,24.99,24.99,0,0,1-.306,3.512,17.947,17.947,0,0,0-.264,1.845l.077.082.041.045.034.037.1.106.012.014.051.056.029.033.047.052.066.073.044.05.033.037.046.053.017.019q.215.245.424.492.162.19.321.381l.011.013.1.122q.311-.363.637-.71l.019-.02.039-.041h0c.3-.316.611-.62.933-.91l.012-.011.051-.045.053-.048.03-.026.063-.055.017-.014q.338-.293.694-.566l.009-.006.087-.066a4.735,4.735,0,0,1-.163-1.248c0-2.406,1.658-4.883,3.019-6.724l.058-.074.019-.024.042-.051.021-.026.056-.068.019-.023.041-.05.026-.031.036-.042.025-.029.056-.065.026-.029.034-.039.029-.034.032-.036.031-.034.052-.059.033-.037.028-.03.034-.037.028-.031c.016-.017.033-.036.05-.053l.037-.039.034-.036.027-.029.035-.036.028-.029.063-.064L184,92.1l.037-.037.026-.026.037-.037.023-.022.071-.068.024-.023.038-.037.026-.024.038-.036.026-.025.066-.061.028-.026.037-.034.029-.027.037-.033.035-.031.058-.052.031-.027.036-.032.032-.027.036-.031.059-.05.035-.03.034-.028.035-.029.036-.03.032-.026.063-.051.031-.025.039-.031.032-.026.046-.036.025-.02.065-.051.027-.021.046-.036.026-.02.061-.046.015-.011.066-.049.024-.017.052-.039.021-.016.074-.053,0,0,.072-.051.016-.012.065-.046.012-.009.157-.108.011-.007q.121-.082.245-.163h0a24.859,24.859,0,0,1,7.968-3.088l.161-.038.327-.075.024,0,.3-.067.024-.006.236-.051.039-.008.054-.012.2-.042.049-.011.046-.009c.607-.128,1.214-.25,1.817-.368.8-.157,1.586-.309,2.361-.466l.079-.016.047-.009.1-.021.025-.006.117-.024.014,0,.126-.026q1.817-.373,3.625-.795l.141-.033.437-.1.207-.049.338-.082.3-.073c2.493-.614,4.965-1.307,7.4-2.1l.043-.014.157-.052.206-.068a4.944,4.944,0,0,1,2.035-.559h.021a1.125,1.125,0,0,1,.3.059l.016.006a.868.868,0,0,1,.092.041l.005,0h0l.029.016h0l.016.009h0l.012.007.006,0,.006,0c.017.011.034.024.051.037l0,0h0l.025.021,0,0,.017.016.012.012.007.007a.8.8,0,0,1,.067.078l0,.006.006.008c.011.014.021.03.031.046l.006.009c.014.022.027.046.039.071s.015.03.022.046v0l.007.015h0a2.231,2.231,0,0,1,.124.96v0l0,.028v.034a7.825,7.825,0,0,1-.163,1.123c-.219,1.24-.424,2.486-.668,3.724l0,.013c-.007.033-.014.067-.02.1l-.021.1,0,.025-.017.084,0,.021c-.154.754-.325,1.5-.525,2.246-.035.13-.07.259-.108.387-.017.06-.034.121-.051.181v0l-.018.061c-.011.037-.022.073-.033.109l-.058.19-.018.059-.037.12-.027.084-.022.067-.036.111q-.055.168-.114.335l0,.011c-.013.039-.027.077-.041.116-1.425,4.232-3.622,8.333-7.126,11.2l-.037.03h0l-.037.029q-.236.189-.478.376l-.014.011-.027.021a30.965,30.965,0,0,1-3.987,2.613l-.019.011-.042.023-.061.033-.023.012-.054.029-.017.009-.074.039,0,0-.077.041h0q-.6.319-1.224.606l-.043.021-.213.1-.077.034-.335.146-.131.056c-.134.056-.268.112-.4.166l-.144.057a20.249,20.249,0,0,1-4.971,1.283h-.006l-.1.012h-.008l-.1.011H194.4l-.212.021h-.008l-.1.009h-.014l-.1.008-.018,0-.1.007h-.012l-.1.007h-.007l-.1.006h-.015l-.093,0H193.5l-.089.005h-.024l-.091,0h-.021l-.09,0h-.016l-.089,0h-.024l-.09,0h-.024l-.091,0h-.224q-.582,0-1.168-.041a19.92,19.92,0,0,1-9.249-4.01l-.047.1,0,.005-.045.1h0a23.114,23.114,0,0,0-1.018,2.843l0,.007q-.065.225-.125.449c-.017.084-.033.167-.049.251-.009.044-.017.087-.025.131,0,.012,0,.025-.007.038l0,.016-.007.04q-.053.287-.1.575c-.016.094-.031.189-.046.283-.007.042-.013.083-.02.125l-.037.245c0,.019-.006.039-.009.059s-.006.041-.009.062v.007c0,.007,0,.015,0,.022q-.033.221-.062.443v.007c-.006.044-.012.089-.018.134v.011l-.017.129,0,.016-.017.134v.006q-.027.214-.051.427c0,.012,0,.022,0,.034l-.011.1-.006.054c0,.027-.006.054-.009.081l-.008.067c0,.023,0,.045-.007.067l-.007.073c0,.02,0,.041-.006.061s-.006.053-.008.079,0,.036-.005.053-.006.057-.008.085,0,.029,0,.044l-.009.1v.012a99.513,99.513,0,0,0,.073,14.02l0,.069c0,.036,0,.071,0,.106,0,.007,0,.015,0,.022,0,.094.009.189.014.284.019.531.055,1.065.1,1.6v0c0,.016,0,.031,0,.046.111,1.256.277,2.525.4,3.792q.094.632.176,1.275c.221,1.48.934,4.046,0,5.236a13.2,13.2,0,0,0-3.663.882c-.294.13-.6.269-.909.417l-.017-.011" transform="translate(-48.586 -30.742)" fill="#98ab24"/>
        <path id="Path_908620" data-name="Path 908620" d="M202.6,168.725a33.516,33.516,0,0,1-.322-5.438,74.789,74.789,0,0,1-.146-8.633.657.657,0,0,1,1.314,0c-.06,1.753-.125,3.564-.057,5.31a41.544,41.544,0,0,1,.213,4.87c-.079,1.3.379,2.641.1,3.909-.269.636-.832.6-1.1-.019" transform="translate(-75.794 -57.775)"/>
        <path id="Path_908621" data-name="Path 908621" d="M211.794,169.9c-.4-.605-.157-1.588-.289-2.287-.129-2.066-.466-4.128-.623-6.182.145-.865.887-.929,1.219-.123.4,2.06.513,4.189.717,6.282.04.615.065,1.231.1,1.846a.662.662,0,0,1-1.122.464" transform="translate(-79.109 -60.298)"/>
        <path id="Path_908622" data-name="Path 908622" d="M211.881,103.339a.9.9,0,0,1-.064-.944,1.945,1.945,0,0,1,.306-.439c.112-.139.231-.274.351-.406a17.727,17.727,0,0,1,1.463-1.412,16.34,16.34,0,0,1,3.351-2.205c1.245-.636,2.522-1.2,3.809-1.746s2.553-1.057,3.834-1.577,2.553-1.04,3.806-1.612,2.494-1.2,3.742-1.791c1.143-.546,2.294-1.08,3.428-1.647,1.027-.52,2-1.122,2.98-1.73.953-.595,1.922-1.167,2.861-1.784.4-.272.79-.555,1.164-.863.392-.323.775-.658,1.157-.993l-.042.037c.807-.717,1.612-1.439,2.359-2.218l.03.008h0l.041.013.026.01a.835.835,0,0,1,.087.038l0,0h0l.028.016,0,0,.03.018c.023.015.044.031.065.047l0,0h0l.027.023v0l.017.015a.81.81,0,0,1,.089.1l0,0,0,0a1.359,1.359,0,0,1,.224.684c0,.018,0,.036.005.055v.033a.193.193,0,0,1,0,.019v.017c0,.017,0,.037,0,.056a.26.26,0,0,0-.027.026c-.476.482-.975.944-1.48,1.4q-.8.719-1.615,1.418a17.441,17.441,0,0,1-1.706,1.264c-.547.362-1.115.7-1.674,1.04-1.124.694-2.229,1.427-3.394,2.05-1.193.638-2.428,1.2-3.648,1.782s-2.444,1.183-3.67,1.765c-1.25.592-2.531,1.119-3.809,1.646s-2.556,1.031-3.825,1.565c-1.391.585-2.777,1.18-4.128,1.854l.076-.038a21.659,21.659,0,0,0-2.175,1.248,17.715,17.715,0,0,0-1.419,1.114c-.427.386-.837.785-1.223,1.21l.014-.016c-.086.1-.172.2-.256.3a1.933,1.933,0,0,1-.4.417,1.2,1.2,0,0,1-.478.2.635.635,0,0,1-.106.009.358.358,0,0,1-.262-.091" transform="translate(-79.421 -30.765)"/>
        <path id="Path_908623" data-name="Path 908623" d="M209.127,123.644c-.255-.619-.527-1.23-.787-1.847-.278-.659-.56-1.313-.868-1.96-.251-.526-.511-1.049-.77-1.57-.252-.489-.522-.969-.784-1.454-.061-.114-.123-.227-.186-.34a1.276,1.276,0,0,1-.156-.564c0-.019,0-.038,0-.057q.219.259.434.516c.207-.242.419-.479.637-.71l.033-.036.024-.026a.35.35,0,0,1,.026.028,2.254,2.254,0,0,1,.281.445c.082.149.161.3.242.447.316.579.624,1.157.914,1.75.307.626.62,1.25.9,1.888.193.438.378.88.564,1.32v.008c-.043.15-.084.3-.125.449l-.016.081c0,.021-.008.041-.013.062l-.007.037q-.095.49-.176.983l-.011.068c-.018.107-.034.215-.051.323l-.006.036c0,.023-.007.046-.011.069v.006l-.028.187c-.019-.047-.038-.095-.058-.142" transform="translate(-77.118 -43.364)"/>
        <path id="Path_908624" data-name="Path 908624" d="M208.635,117.243a.8.8,0,0,1-.119-.73,2.092,2.092,0,0,1,.478-.763c.225-.279.454-.554.677-.834.287-.361.574-.722.865-1.08.234-.286.477-.563.722-.84.157-.181.3-.376.452-.559a.657.657,0,0,1,1.04.8c-.1.117-.186.244-.282.362-.149.181-.307.353-.462.529-.341.389-.665.792-.985,1.2-.417.53-.851,1.048-1.268,1.578a1.158,1.158,0,0,1-.631.4,1.044,1.044,0,0,1-.216.026.364.364,0,0,1-.271-.093" transform="translate(-78.208 -42.083)"/>
        <path id="Path_908625" data-name="Path 908625" d="M209.1,118.165a.661.661,0,0,1-.562-.741,4.25,4.25,0,0,1,.135-.5.687.687,0,0,1,.046-.131,9.758,9.758,0,0,1,.474-1.05,10.182,10.182,0,0,1,1.277-1.908q.385-.46.8-.9a1.126,1.126,0,0,1,.742-.329.51.51,0,0,1,.385.109.8.8,0,0,1,.023.82,1.833,1.833,0,0,1-.379.5c-.1.11-.2.222-.3.334l.014-.014a12.049,12.049,0,0,0-.9,1.134,8.95,8.95,0,0,0-.539.936l0-.006c-.086.174-.17.35-.248.527-.049.111-.091.236-.144.352-.011.033-.021.067-.031.1-.028.092-.052.185-.072.278.005-.023.009-.047.014-.071a.69.69,0,0,1-.248.429.667.667,0,0,1-.4.136.674.674,0,0,1-.087-.006" transform="translate(-78.227 -42.243)"/>
        <path id="Path_908626" data-name="Path 908626" d="M173.579,107.634a1.147,1.147,0,0,1-.566-.178,2.625,2.625,0,0,1-.406-.358c-.136-.13-.272-.26-.409-.389-.469-.444-.938-.885-1.422-1.313a23.268,23.268,0,0,0-1.94-1.495,23.8,23.8,0,0,0-2.423-1.391l.009,0c-.433-.215-.869-.422-1.313-.612-.486-.207-.98-.392-1.478-.568s-1-.33-1.509-.473-1.039-.261-1.562-.372q-.962-.189-1.931-.326c-.694-.1-1.392-.165-2.088-.244-1.382-.157-2.763-.33-4.141-.508-2.691-.347-5.39-.612-8.084-.935-1.109-.133-2.218-.268-3.327-.4s-2.186-.264-3.286-.342h-.017q-.938-.056-1.878-.084c-.642-.018-1.283-.029-1.924-.064-.7-.04-1.4-.092-2.1-.195a17.366,17.366,0,0,1-1.769-.362c-.044-.052-.085-.1-.123-.153l-.02-.026-.052-.072,0,0-.032-.047,0,0-.007-.01c-.019-.03-.038-.059-.056-.089l-.016-.026-.006-.009-.014-.026c-.008-.014-.015-.028-.022-.042a.341.341,0,0,1-.019-.037l-.027-.056a1.342,1.342,0,0,1-.053-.137c-.007-.021-.012-.041-.017-.061a.27.27,0,0,1-.009-.034.378.378,0,0,1-.009-.043l0-.011a.445.445,0,0,1-.008-.049.466.466,0,0,1,0-.051c0-.021,0-.04,0-.061a.74.74,0,0,1,0-.074c0-.012,0-.024,0-.036s.005-.036.009-.054.006-.027.009-.041a.354.354,0,0,1,.011-.036.219.219,0,0,1,.013-.036.279.279,0,0,1,.016-.038.166.166,0,0,1,.012-.026.333.333,0,0,1,.024-.047c.007-.013.015-.026.023-.039.47.137.945.264,1.425.374.364.073.729.141,1.1.188.421.053.844.094,1.266.126,1.263.082,2.529.08,3.793.151.718.04,1.435.092,2.15.171s1.4.164,2.1.246c2.718.321,5.434.648,8.154.944,1.327.144,2.65.321,3.974.485q2.075.258,4.151.493c.7.079,1.392.172,2.085.286.667.111,1.328.252,1.987.407s1.3.353,1.936.566q.994.33,1.957.74c.613.262,1.21.564,1.8.869s1.167.635,1.725,1a23.213,23.213,0,0,1,3.172,2.514q.574.531,1.137,1.074a3.376,3.376,0,0,1,.292.3,1.108,1.108,0,0,1,.206.432c.047.211.056.516-.147.653a.543.543,0,0,1-.293.068Z" transform="translate(-48.585 -35.846)"/>
        <path id="Path_908627" data-name="Path 908627" d="M142.6,99.043h0" transform="translate(-53.494 -37.154)"/>
        <path id="Path_908628" data-name="Path 908628" d="M169.165,120.575l-.049-.008h0c-.117-.018-.232-.036-.348-.055l-.039-.006-.016,0-.158-.027-.043-.008-.023,0q-.158-.029-.317-.061h0l-.243-.052-.023,0h-.009l-.1-.022q.783-.922,1.548-1.86c.893-1.1,1.765-2.215,2.649-3.322.867-1.085,1.71-2.191,2.591-3.266s1.813-2.144,2.746-3.194l.311-.35q.72-.821,1.4-1.672c.1-.131.208-.264.311-.395a3.063,3.063,0,0,1,.421-.477,1.039,1.039,0,0,1,.542-.225.479.479,0,0,1,.433.124.769.769,0,0,1,.094.577,1.221,1.221,0,0,1-.192.472c-.066.1-.144.188-.218.281-.3.381-.6.76-.909,1.134-.644.783-1.33,1.531-2,2.288.019-.02.038-.042.056-.062-.934,1.072-1.851,2.157-2.736,3.272s-1.76,2.233-2.646,3.344-1.75,2.206-2.647,3.29l-.257.31-.125-.018" transform="translate(-62.945 -39.597)"/>
        <path id="Path_908629" data-name="Path 908629" d="M159.664,117.381l0,0-.052-.027-.209-.11-.025-.013-.06-.032q-.411-.221-.812-.458c.719-.887,1.428-1.78,2.15-2.665.888-1.09,1.809-2.155,2.724-3.223s1.823-2.112,2.762-3.142q1.443-1.582,2.953-3.1c.489-.492.983-.977,1.488-1.453.124-.117.251-.232.377-.346a2.7,2.7,0,0,1,.44-.361,1.191,1.191,0,0,1,.552-.15.617.617,0,0,1,.392.108.327.327,0,0,1,.072.081.718.718,0,0,1,.027.5,1.181,1.181,0,0,1-.4.607l-.048.042.018-.016-.019.016c-1.01.9-1.964,1.872-2.9,2.847-.98,1.017-1.943,2.049-2.877,3.108l-.407.461c-.934,1.063-1.853,2.138-2.768,3.217s-1.786,2.146-2.661,3.236q-.352.439-.707.876l-.006,0" transform="translate(-59.459 -38.375)"/>
        <path id="Path_908630" data-name="Path 908630" d="M180.151,104.373l.006-.006-.036.032.03-.027" transform="translate(-67.569 -39.152)"/>
        <path id="Path_908631" data-name="Path 908631" d="M182.63,96.185a1.075,1.075,0,0,1-.5-.431,2.608,2.608,0,0,1-.212-.486c-.072-.191-.139-.385-.206-.579-.233-.675-.408-1.372-.584-2.063s-.331-1.361-.5-2.042-.344-1.354-.526-2.029c-.37-1.37-.789-2.727-1.195-4.085q-.227-.759-.465-1.514h0l.214.032c.121.017.242.036.363.056.1.014.2.031.295.049s.207.035.311.055c.064.011.129.023.193.035l.073.014h0q.4,1.282.775,2.569c.417,1.4.816,2.813,1.173,4.235.332,1.329.607,2.681,1.024,3.988.065.2.131.4.2.6a2.812,2.812,0,0,1,.283.962c0,.226-.067.595-.323.674a.384.384,0,0,1-.122.018.756.756,0,0,1-.269-.058" transform="translate(-66.939 -31.118)"/>
        <path id="Path_908632" data-name="Path 908632" d="M162.008,95.006a1.173,1.173,0,0,1-.5-.229,2.36,2.36,0,0,1-.394-.446l-.3-.379q-.636-.795-1.268-1.594c-.857-1.089-1.645-2.228-2.419-3.377l.009.015q-.775-1.15-1.521-2.32-.262-.41-.52-.819l.623-.192.027-.008.027-.008.464-.141.127-.038.006,0,.026-.008.292.457q.751,1.171,1.523,2.328l0,0,.023.034c.008.012.016.024.024.036l-.009-.016c.086.126.171.253.256.381q1.087,1.607,2.285,3.134c.391.5.787.989,1.181,1.482.1.132.21.262.315.394a1.563,1.563,0,0,1,.274.478c.081.239.093.684-.179.816a.477.477,0,0,1-.206.041.913.913,0,0,1-.163-.016" transform="translate(-58.181 -32.058)"/>
        <path id="Path_908633" data-name="Path 908633" d="M160.079,89.916a.05.05,0,0,1,.008.011l-.008-.011" transform="translate(-60.051 -33.73)"/>
        <path id="Path_908634" data-name="Path 908634" d="M158.4,91.177l.013.02-.013-.02" transform="translate(-59.421 -34.204)"/>
        <path id="Path_908635" data-name="Path 908635" d="M158.36,91.119l.024.036-.024-.036" transform="translate(-59.406 -34.182)"/>
        <path id="Path_908636" data-name="Path 908636" d="M160.106,89.955l-.014-.021.027.041-.014-.021" transform="translate(-60.056 -33.737)"/>
        <path id="Path_908637" data-name="Path 908637" d="M142.837,106.519q.529-.488,1.067-.968c.118-.106.236-.211.356-.316l-.022.019q.843-.744,1.7-1.473c.514-.437,1.039-.863,1.556-1.3,1.066-.895,2.123-1.8,3.227-2.646a2.145,2.145,0,0,1,.924-.528c.231-.035.6-.013.717.234a.58.58,0,0,1,.011.36,1.121,1.121,0,0,1-.289.534,3.508,3.508,0,0,1-.424.337c-.132.1-.261.2-.391.3-.54.422-1.071.855-1.6,1.293s-1.044.88-1.569,1.318c-.562.469-1.126.935-1.685,1.409-.241.206-.482.413-.721.622l-.6.526c.022-.017.042-.037.064-.056q-.755.675-1.5,1.359-.414-.512-.828-1.027" transform="translate(-53.583 -37.249)"/>
        <path id="Path_908638" data-name="Path 908638" d="M232.549,116.46c-1.129-.888-2.267-1.763-3.391-2.656-1.084-.859-2.155-1.736-3.251-2.581-.743-.572-1.493-1.135-2.226-1.721-.339-.272-.674-.549-1-.835a1.233,1.233,0,0,1-.419-.715.545.545,0,0,1,.131-.512.706.706,0,0,1,.469-.087,1.182,1.182,0,0,1,.686.329l-.064-.056c1.054.918,2.178,1.748,3.285,2.6,1.127.869,2.228,1.771,3.343,2.656,1.085.86,2.191,1.695,3.271,2.56.541.433,1.082.866,1.61,1.315.248.211.494.424.741.639l-.26.118-.074.033-.336.146-.072.031-.009,0-.006,0q-.294.125-.591.241c-.6-.515-1.212-1.022-1.836-1.512" transform="translate(-83.372 -40.27)"/>
        <path id="Path_908639" data-name="Path 908639" d="M242.8,111.644a78.879,78.879,0,0,1-6.851-4.975c-.671-.53-1.335-1.064-1.969-1.637-.124-.111-.246-.227-.365-.346a2.832,2.832,0,0,1-.432-.476,1.067,1.067,0,0,1-.167-.615.486.486,0,0,1,.179-.4.75.75,0,0,1,.531-.03,1.212,1.212,0,0,1,.6.369c.267.274.547.533.832.789,1.055.9,2.158,1.756,3.262,2.6,1.167.891,2.343,1.767,3.551,2.6.017.012.034.023.051.036q.9.6,1.81,1.176c.6.378,1.212.742,1.818,1.111l.228.139q-.548.437-1.12.857c-.653-.4-1.306-.795-1.953-1.2" transform="translate(-87.412 -38.688)"/>
        <path id="Path_908640" data-name="Path 908640" d="M226.928,99.49a.887.887,0,0,1-.357-.934,2.447,2.447,0,0,1,.191-.551c.067-.166.141-.329.212-.492.267-.612.572-1.208.865-1.808q.978-2,1.979-3.99.423-.836.851-1.67h0l.271-.064.035-.008.057-.013.149-.033.3-.067c.1-.023.2-.044.3-.065s.2-.044.3-.064l.161-.034.088-.019c-.582,1.147-1.17,2.29-1.75,3.436l-.049.1c-.507,1.014-1.005,2.032-1.5,3.051-.232.476-.468.949-.689,1.429-.116.251-.236.5-.339.757-.05.123-.1.246-.149.37a1.154,1.154,0,0,1-.33.467l.03-.027-.033.03-.013.011,0,0,0,0-.009.008.005,0a.807.807,0,0,1-.451.214.282.282,0,0,1-.122-.027" transform="translate(-84.99 -33.642)"/>
        <path id="Path_908641" data-name="Path 908641" d="M228.087,105.06l-.01.008.01-.008" transform="translate(-85.559 -39.411)"/>
        <path id="Path_908642" data-name="Path 908642" d="M245.311,93.456a.63.63,0,0,1-.29-.351,1.155,1.155,0,0,1-.032-.707,3.714,3.714,0,0,1,.159-.446c.059-.161.117-.321.179-.481.269-.709.555-1.41.85-2.108.374-.88.767-1.752,1.165-2.623q.612-.143,1.225-.292l.152-.037.247-.061c-.223.487-.447.974-.665,1.462-.6,1.323-1.182,2.648-1.7,4-.128.337-.248.677-.374,1.014a1.148,1.148,0,0,1-.49.554.637.637,0,0,1-.308.1.279.279,0,0,1-.118-.024" transform="translate(-91.888 -32.392)"/>
        <path id="Path_908643" data-name="Path 908643" d="M258.668,96.223c-1.4-.339-2.794-.682-4.2-.979-.635-.121-1.269-.235-1.907-.326-.156-.022-.311-.042-.468-.062a1.837,1.837,0,0,1-.52-.112,1.046,1.046,0,0,1-.419-.316.455.455,0,0,1-.121-.374.906.906,0,0,1,.774-.522,2.553,2.553,0,0,1,.631.044c.187.023.376.051.563.078.71.1,1.415.241,2.117.386,1.411.291,2.807.652,4.207.99l1.074.261c-.033.122-.066.243-.1.364,0,.008,0,.016-.007.023s-.006.021-.009.032q-.122.424-.257.844-.679-.166-1.356-.331" transform="translate(-94.166 -35.084)"/>
      </g>
    </g>
  </g>
</svg>
