<svg id="fecha-de-caducidad" xmlns="http://www.w3.org/2000/svg" width="63.5" height="63.5" viewBox="0 0 63.5 63.5">
  <g id="Group_1112386" data-name="Group 1112386" transform="translate(0 0)">
    <g id="Group_1112383" data-name="Group 1112383" transform="translate(0 0)">
      <path id="Trazado_909235" data-name="Trazado 909235" d="M77.333,8.374a.93.93,0,0,1-.93-.93V4.651A2.794,2.794,0,0,0,73.612,1.86H51.541A2.794,2.794,0,0,0,48.75,4.651V7.444a.93.93,0,1,1-1.86,0V4.651A4.656,4.656,0,0,1,51.541,0H73.612a4.656,4.656,0,0,1,4.651,4.651V7.444A.93.93,0,0,1,77.333,8.374Z" transform="translate(-41.075 0)" fill="#7d9ffb"/>
      <path id="Trazado_909236" data-name="Trazado 909236" d="M211.032,73.786a.93.93,0,0,1-.93-.93V68.549L204.581,54.38H193.81a.93.93,0,0,1,0-1.86h11.406a.93.93,0,0,1,.867.592L211.9,68.036a.93.93,0,0,1,.063.338v4.482A.93.93,0,0,1,211.032,73.786Z" transform="translate(-168.958 -46.006)" fill="#7d9ffb"/>
      <path id="Trazado_909237" data-name="Trazado 909237" d="M38.353,109.506H4.651A4.656,4.656,0,0,1,0,104.855V68.374a.93.93,0,0,1,.063-.338L5.879,53.112a.93.93,0,0,1,.867-.592H20.511a.93.93,0,0,1,0,1.86H7.381L1.86,68.549v36.307a2.794,2.794,0,0,0,2.791,2.791h33.7a2.794,2.794,0,0,0,2.791-2.791v-.995a.93.93,0,0,1,1.86,0v.995A4.656,4.656,0,0,1,38.353,109.506Z" transform="translate(0 -46.006)" fill="#7d9ffb"/>
      <g id="Group_1112382" data-name="Group 1112382" transform="translate(6.201 50.478)">
        <path id="Línea_324" data-name="Línea 324" d="M2.112-5.64H-6.57a.93.93,0,0,1-.93-.93.93.93,0,0,1,.93-.93H2.112a.93.93,0,0,1,.93.93A.93.93,0,0,1,2.112-5.64Z" transform="translate(7.5 7.5)" fill="#7d9ffb"/>
        <path id="Línea_325" data-name="Línea 325" d="M7.073-5.64H-6.57a.93.93,0,0,1-.93-.93.93.93,0,0,1,.93-.93H7.073A.93.93,0,0,1,8-6.57.93.93,0,0,1,7.073-5.64Z" transform="translate(7.5 12.461)" fill="#7d9ffb"/>
      </g>
      <path id="Línea_326" data-name="Línea 326" d="M-2.849-5.64H-6.57a.93.93,0,0,1-.93-.93.93.93,0,0,1,.93-.93h3.721a.93.93,0,0,1,.93.93A.93.93,0,0,1-2.849-5.64Z" transform="translate(13.701 35.133)" fill="#7d9ffb"/>
      <path id="Trazado_909241" data-name="Trazado 909241" d="M109.862,230.794c-4.958,0-8.992-5.146-8.992-11.472s4.034-11.472,8.992-11.472c4.255,0,7.96,3.85,8.809,9.155a.93.93,0,1,1-1.837.294c-.7-4.4-3.636-7.588-6.972-7.588-3.932,0-7.131,4.312-7.131,9.612s3.2,9.612,7.131,9.612c3.336,0,6.268-3.191,6.972-7.588a.93.93,0,0,1,1.837.294C117.822,226.944,114.117,230.794,109.862,230.794Z" transform="translate(-88.36 -182.072)" fill="#7d9ffb"/>
      <path id="Línea_327" data-name="Línea 327" d="M34.574-5.64H-6.57a.93.93,0,0,1-.93-.93.93.93,0,0,1,.93-.93H34.574a.93.93,0,0,1,.93.93A.93.93,0,0,1,34.574-5.64Z" transform="translate(7.5 28.937)" fill="#7d9ffb"/>
    </g>
    <g id="Group_1112384" data-name="Group 1112384" transform="translate(33.114 29.639)">
      <path id="Trazado_909242" data-name="Trazado 909242" d="M292.735,268.125H271.651A4.656,4.656,0,0,1,267,263.475V243.631a4.656,4.656,0,0,1,4.651-4.651h2.48a.93.93,0,0,1,0,1.86h-2.48a2.794,2.794,0,0,0-2.791,2.791v19.844a2.794,2.794,0,0,0,2.791,2.791h21.084a2.794,2.794,0,0,0,2.791-2.791V243.631a2.794,2.794,0,0,0-2.791-2.791h-2.48a.93.93,0,0,1,0-1.86h2.48a4.656,4.656,0,0,1,4.651,4.651v19.844A4.656,4.656,0,0,1,292.735,268.125Z" transform="translate(-267 -238.98)" fill="#7d9ffb"/>
      <path id="Línea_328" data-name="Línea 328" d="M2.112-5.64H-6.57a.93.93,0,0,1-.93-.93.93.93,0,0,1,.93-.93H2.112a.93.93,0,0,1,.93.93A.93.93,0,0,1,2.112-5.64Z" transform="translate(17.422 7.5)" fill="#7d9ffb"/>
    </g>
    <g id="Group_1112385" data-name="Group 1112385" transform="translate(33.114 37.081)">
      <path id="Línea_329" data-name="Línea 329" d="M4.06-5.64H-6.57a.93.93,0,0,1-.93-.93.93.93,0,0,1,.93-.93H4.06a.93.93,0,0,1,.93.93A.93.93,0,0,1,4.06-5.64Z" transform="translate(7.5 7.5)" fill="#7d9ffb"/>
      <path id="Línea_330" data-name="Línea 330" d="M6.985-5.64H-6.57a.93.93,0,0,1-.93-.93.93.93,0,0,1,.93-.93H6.985a.93.93,0,0,1,.93.93A.93.93,0,0,1,6.985-5.64Z" transform="translate(22.471 7.5)" fill="#7d9ffb"/>
    </g>
    <path id="Trazado_909243" data-name="Trazado 909243" d="M337.548,331.428a3.08,3.08,0,0,1,2.192.908l1.535,1.535,1.535-1.535a3.1,3.1,0,0,1,4.385,4.385l-1.535,1.535,1.535,1.535a3.1,3.1,0,0,1-4.385,4.385l-1.535-1.535-1.535,1.535a3.1,3.1,0,0,1-4.385-4.385l1.535-1.535-1.535-1.535a3.1,3.1,0,0,1,2.192-5.293Zm3.727,4.689a.927.927,0,0,1-.658-.272l-2.192-2.192a1.24,1.24,0,0,0-1.754,1.754l2.193,2.192a.93.93,0,0,1,0,1.315l-2.193,2.193a1.24,1.24,0,0,0,1.754,1.754l2.192-2.192a.93.93,0,0,1,1.315,0l2.192,2.192a1.24,1.24,0,1,0,1.754-1.754l-2.193-2.193a.93.93,0,0,1,0-1.315l2.193-2.192a1.24,1.24,0,0,0-1.754-1.754l-2.192,2.192A.927.927,0,0,1,341.275,336.117Z" transform="translate(-292.968 -290.324)" fill="#7d9ffb"/>
    <path id="Trazado_909244" data-name="Trazado 909244" d="M419.791,218.283A2.794,2.794,0,0,1,417,215.492v-3.721a2.791,2.791,0,0,1,5.581,0v3.721A2.794,2.794,0,0,1,419.791,218.283Zm0-7.441a.931.931,0,0,0-.93.93v3.721a.93.93,0,1,0,1.86,0v-3.721A.931.931,0,0,0,419.791,210.841Z" transform="translate(-365.282 -183.062)" fill="#7d9ffb"/>
    <path id="Trazado_909245" data-name="Trazado 909245" d="M319.791,218.283A2.794,2.794,0,0,1,317,215.492v-3.721a2.791,2.791,0,0,1,5.581,0v3.721A2.794,2.794,0,0,1,319.791,218.283Zm0-7.441a.931.931,0,0,0-.93.93v3.721a.93.93,0,1,0,1.86,0v-3.721A.931.931,0,0,0,319.791,210.841Z" transform="translate(-277.685 -183.062)" fill="#7d9ffb"/>
  </g>
</svg>
