<svg xmlns="http://www.w3.org/2000/svg" xmlns:xlink="http://www.w3.org/1999/xlink" width="136" height="136" viewBox="0 0 136 136">
  <defs>
    <filter id="Ellipse_12673" x="0" y="0" width="136" height="136" filterUnits="userSpaceOnUse">
      <feOffset dy="3" input="SourceAlpha"/>
      <feGaussianBlur stdDeviation="3" result="blur"/>
      <feFlood flood-opacity="0.161"/>
      <feComposite operator="in" in2="blur"/>
      <feComposite in="SourceGraphic"/>
    </filter>
  </defs>
  <g id="Group_1113117" data-name="Group 1113117" transform="translate(-2726.926 8151.636)">
    <g transform="matrix(1, 0, 0, 1, 2726.93, -8151.64)" filter="url(#Ellipse_12673)">
      <circle id="Ellipse_12673-2" data-name="Ellipse 12673" cx="59" cy="59" r="59" transform="translate(9 6)" fill="#fff"/>
    </g>
    <g id="limpieza-interna" transform="translate(2769.668 -8120.365)">
      <g id="Group_1112080" data-name="Group 1112080" transform="translate(0.925 0.925)">
        <path id="Path_908191" data-name="Path 908191" d="M88.763,316.86l-.831.646-16.813-.218a1.234,1.234,0,0,1-1.23-1.142L67.75,292.912,81.06,291l9.638,1.912Z" transform="translate(-63.679 -256.025)" fill="#ffe07d"/>
        <path id="Path_908192" data-name="Path 908192" d="M88.011,329.2l-.756,1.878-.043.219H70.745a1.234,1.234,0,0,1-1.23-1.142L67.75,306.5h2.1l1.566,20.987a1.851,1.851,0,0,0,1.845,1.713Z" transform="translate(-63.679 -269.613)" fill="#ffd064"/>
        <g id="Group_1112069" data-name="Group 1112069" transform="translate(26 10.116)">
          <path id="Path_908193" data-name="Path 908193" d="M251.99,92.276a2.778,2.778,0,0,0-3.73-2.607s-.455.309-.687.494a2.623,2.623,0,0,0-1,2.114,2.54,2.54,0,0,0,2.644,2.624,2.6,2.6,0,0,0,2.442-1.411,2.667,2.667,0,0,1,.166-.258A2.775,2.775,0,0,0,251.99,92.276Z" transform="translate(-246.438 -89.5)" fill="#bde4ff"/>
          <path id="Path_908194" data-name="Path 908194" d="M250.883,94.427a2.776,2.776,0,1,1-3.562-3.562,2.779,2.779,0,0,0,3.562,3.562Z" transform="translate(-245.5 -90.697)" fill="#99dbff"/>
        </g>
        <path id="Path_908195" data-name="Path 908195" d="M72.581,256.373l-35.624.159a.617.617,0,0,1-.617-.617l0-4.534a1.637,1.637,0,0,1,.724-1.354,6.415,6.415,0,0,1,.927-.526H71.55A1.851,1.851,0,0,1,73.4,251.35v4.811C73.4,256.5,72.922,256.373,72.581,256.373Z" transform="translate(-36.144 -219.645)" fill="#ffd064"/>
        <path id="Path_908196" data-name="Path 908196" d="M72.007,254.928v1.234a.617.617,0,0,1-.617.617H35.367a.617.617,0,0,1-.617-.617v-4.811A1.851,1.851,0,0,1,36.6,249.5v4.195a1.234,1.234,0,0,0,1.234,1.234Z" transform="translate(-34.75 -219.645)" fill="#edc258"/>
        <path id="Path_908197" data-name="Path 908197" d="M324.83,7.974l.368,33.206h3.755V7.87a.37.37,0,0,0-.37-.37h-1.974l-1.409.1A.37.37,0,0,0,324.83,7.974Z" transform="translate(-289.044 -7.5)" fill="#d19a6e"/>
        <path id="Path_908198" data-name="Path 908198" d="M325.224,7.5V41.179H323.25V7.87a.37.37,0,0,1,.37-.37Z" transform="translate(-287.658 -7.5)" fill="#c38c66"/>
        <g id="Group_1112077" data-name="Group 1112077" transform="translate(25.722 43.223)">
          <g id="Group_1112070" data-name="Group 1112070">
            <path id="Path_908199" data-name="Path 908199" d="M245.1,358.785v17.165H243.25V358.785a.925.925,0,0,1,1.851,0Z" transform="translate(-243.25 -357.86)" fill="#e8e8e8"/>
          </g>
          <g id="Group_1112071" data-name="Group 1112071" transform="translate(3.701)">
            <path id="Path_908200" data-name="Path 908200" d="M275.1,358.785v17.165H273.25V358.785a.925.925,0,0,1,1.851,0Z" transform="translate(-273.25 -357.86)" fill="#e8e8e8"/>
          </g>
          <g id="Group_1112072" data-name="Group 1112072" transform="translate(7.402)">
            <path id="Path_908201" data-name="Path 908201" d="M305.1,358.785v17.165H303.25V358.785a.925.925,0,0,1,1.851,0Z" transform="translate(-303.25 -357.86)" fill="#e8e8e8"/>
          </g>
          <g id="Group_1112073" data-name="Group 1112073" transform="translate(11.103)">
            <path id="Path_908202" data-name="Path 908202" d="M335.1,358.785v17.165H333.25V358.785a.925.925,0,0,1,1.851,0Z" transform="translate(-333.25 -357.86)" fill="#e8e8e8"/>
          </g>
          <g id="Group_1112074" data-name="Group 1112074" transform="translate(14.804)">
            <path id="Path_908203" data-name="Path 908203" d="M365.1,358.785v17.165h-1.85V358.785a.925.925,0,0,1,1.85,0Z" transform="translate(-363.25 -357.86)" fill="#e8e8e8"/>
          </g>
          <g id="Group_1112075" data-name="Group 1112075" transform="translate(18.505)">
            <path id="Path_908204" data-name="Path 908204" d="M395.1,358.785v17.165H393.25V358.785a.925.925,0,0,1,1.851,0Z" transform="translate(-393.25 -357.86)" fill="#e8e8e8"/>
          </g>
          <g id="Group_1112076" data-name="Group 1112076" transform="translate(22.206)">
            <path id="Path_908205" data-name="Path 908205" d="M425.1,358.785v17.165H423.25V358.785a.925.925,0,0,1,1.851,0Z" transform="translate(-423.25 -357.86)" fill="#e8e8e8"/>
          </g>
        </g>
        <path id="Path_908206" data-name="Path 908206" d="M252.7,382.474v13.077a.617.617,0,0,1-.617.617h-2.19l-.925-1.189-.925,1.189H246.19l-.925-1.189-.925,1.189h-1.851l-.925-1.189-.925,1.189h-1.851l-.925-1.189-.925,1.189h-1.851l-.925-1.189-.925,1.189h-1.851l-.925-1.189-.925,1.189h-1.851l-.925-1.189-.925,1.189h-1.079l-1.371-.182L223.5,380.5h28.658Z" transform="translate(-200.112 -334.484)" fill="#f8f7f7"/>
        <path id="Path_908207" data-name="Path 908207" d="M250.17,371.5v1.974H223.584a1.357,1.357,0,0,0-1.357,1.357v12.337h-1.11a.617.617,0,0,1-.617-.617V371.5l14.835-1.266Z" transform="translate(-197.584 -325.484)" fill="#e8e8e8"/>
        <path id="Path_908208" data-name="Path 908208" d="M76.789,233.5H72.841l-.985.256-.866-.256H67.043a1.875,1.875,0,0,0-.247.016s-.25.124-.393.182a1.778,1.778,0,0,0-1.148,1.661l.223,18.256a.617.617,0,0,0,.617.617l8.037.045a.617.617,0,0,0,.617-.617l.193-.791v-2.1l.925-.245.925.245h1.23a.617.617,0,0,0,.617-.617v-14.8A1.851,1.851,0,0,0,76.789,233.5Z" transform="translate(-61.492 -205.619)" fill="#ff8086"/>
        <path id="Path_908209" data-name="Path 908209" d="M74.5,252.984v.987a.617.617,0,0,1-.617.617H65.367a.617.617,0,0,1-.617-.617V235.466a1.851,1.851,0,0,1,1.6-1.834V251.5a1.48,1.48,0,0,0,1.48,1.48Z" transform="translate(-61.049 -205.735)" fill="#e5646e"/>
        <path id="Path_908210" data-name="Path 908210" d="M317.427,230.532H310.02l.029-6.29a.617.617,0,0,1,.617-.617l1.171-.125h5.428a.617.617,0,0,1,.617.617v4.441Z" transform="translate(-276.061 -196.853)" fill="#f8f7f7"/>
        <path id="Path_908211" data-name="Path 908211" d="M315.892,228.558v1.974l-4.14.671-4-.671v-6.415a.617.617,0,0,1,.617-.617h1.48v3.7a1.357,1.357,0,0,0,1.357,1.357Z" transform="translate(-274.071 -196.853)" fill="#e8e8e8"/>
        <path id="Path_908212" data-name="Path 908212" d="M200.233,165.454a3.456,3.456,0,0,0-5.034-3.073,5.543,5.543,0,0,1-.535.62,3.276,3.276,0,0,0,2.114,5.772,3.268,3.268,0,0,0,2.8-1.455c.122-.181.38-.517.38-.517A3.441,3.441,0,0,0,200.233,165.454Z" transform="translate(-173.925 -142.94)" fill="#bde4ff"/>
        <path id="Path_908213" data-name="Path 908213" d="M198.637,169.51a3.455,3.455,0,1,1-4.762-4.418,3.455,3.455,0,0,0,4.762,4.418Z" transform="translate(-172.6 -145.65)" fill="#99dbff"/>
        <g id="Group_1112078" data-name="Group 1112078" transform="translate(7.988 16.531)">
          <path id="Path_908214" data-name="Path 908214" d="M106.277,144.4a2.9,2.9,0,0,0-3.9-2.723s-.475.323-.717.516a2.739,2.739,0,0,0-1.047,2.208,2.652,2.652,0,0,0,2.761,2.74,2.716,2.716,0,0,0,2.55-1.474,2.78,2.78,0,0,1,.173-.27A2.893,2.893,0,0,0,106.277,144.4Z" transform="translate(-100.479 -141.5)" fill="#bde4ff"/>
          <path id="Path_908215" data-name="Path 908215" d="M105.122,146.646a2.9,2.9,0,1,1-3.72-3.72,2.9,2.9,0,0,0,3.72,3.72Z" transform="translate(-99.5 -142.75)" fill="#99dbff"/>
        </g>
        <g id="Group_1112079" data-name="Group 1112079" transform="translate(12.491 1.48)">
          <ellipse id="Ellipse_12641" data-name="Ellipse 12641" cx="1.727" cy="1.727" rx="1.727" ry="1.727" transform="translate(9.117 2.735)" fill="#bde4ff"/>
          <ellipse id="Ellipse_12642" data-name="Ellipse 12642" cx="2.159" cy="2.159" rx="2.159" ry="2.159" transform="translate(3.979 9.387)" fill="#bde4ff"/>
          <ellipse id="Ellipse_12643" data-name="Ellipse 12643" cx="1.727" cy="1.727" rx="1.727" ry="1.727" fill="#bde4ff"/>
        </g>
        <path id="Path_908216" data-name="Path 908216" d="M238.073,292.667l-30.86-.077a1.234,1.234,0,0,1-1.234-1.234l.184-3.1a6.168,6.168,0,0,1,2.146-4.676l2.206-2.043a3.77,3.77,0,0,1,2.459-.912l.993-.121H232.31a3.771,3.771,0,0,1,2.459.912l2.531,2.177a6.168,6.168,0,0,1,2.146,4.676v2.721l-.138.448A1.233,1.233,0,0,1,238.073,292.667Z" transform="translate(-184.855 -246.821)" fill="#ff8086"/>
        <path id="Path_908217" data-name="Path 908217" d="M237.929,290.986v.617a1.234,1.234,0,0,1-1.234,1.234H205.484a1.234,1.234,0,0,1-1.234-1.234v-3.338a6.169,6.169,0,0,1,2.145-4.676l2.531-2.177a3.767,3.767,0,0,1,2.459-.912h1.066l-4.848,4.492a4.314,4.314,0,0,0-1.5,3.273v1.488a1.234,1.234,0,0,0,1.234,1.234Z" transform="translate(-183.339 -246.821)" fill="#e5646e"/>
      </g>
      <g id="Group_1112081" data-name="Group 1112081" transform="translate(0)">
        <path id="Path_908218" data-name="Path 908218" d="M81.223,36.992l-2.53-2.177a4.7,4.7,0,0,0-3.062-1.136H70.922v-5.49a1.544,1.544,0,0,0-1.542-1.542h-.37V11a.925.925,0,1,0-1.851,0v15.65H64.692V.925a.925.925,0,1,0-1.851,0V26.647h-.37a1.544,1.544,0,0,0-1.542,1.542v1.665H56.3a.925.925,0,1,0,0,1.851h4.629v1.974H56.221a4.7,4.7,0,0,0-3.062,1.136l-1.978,1.7H46.249V31.705h5.733a.925.925,0,1,0,0-1.851H46.13a2.78,2.78,0,0,0-2.657-1.974H33.727a2.78,2.78,0,0,0-2.657,1.974H30.026a2.779,2.779,0,0,0-2.776,2.776v4.194a1.544,1.544,0,0,0,1.542,1.542h2.159V49.162a1.544,1.544,0,0,0,1.357,1.53l.781,10.474a2.168,2.168,0,0,0,2.153,2h4.217a.925.925,0,0,0,0-1.851H35.242a.31.31,0,0,1-.307-.285L34.165,50.7h6.841a1.544,1.544,0,0,0,1.542-1.542V47h2.159a1.544,1.544,0,0,0,1.542-1.542V38.367H49.4a7.085,7.085,0,0,0-1.238,4v3.338a2.16,2.16,0,0,0,2,2.151V61.314H43.777a.925.925,0,0,0,0,1.851H80.761a.925.925,0,0,0,.925-.925V47.859a2.16,2.16,0,0,0,2-2.151V42.37a7.086,7.086,0,0,0-2.468-5.378ZM29.1,36.517V32.631a.926.926,0,0,1,.925-.925h.925v4.811Zm15.3,8.636H42.548V40.3a.925.925,0,1,0-1.851,0v8.549H32.8v-18.2a.926.926,0,0,1,.925-.925h3.948V32.74a.925.925,0,1,0,1.851,0V29.732h3.948a.926.926,0,0,1,.925.925ZM62.78,28.5h6.292v5.181H62.78ZM52.016,47.867H53.9V61.314H52.016Zm6.508,4.093a.925.925,0,0,0,.925-.925V47.867H61.3V61.314H59.449V55.353a.925.925,0,1,0-1.851,0v5.961H55.748V47.867H57.6v3.168A.925.925,0,0,0,58.524,51.96ZM76.1,47.867V61.314H74.253V47.867ZM72.4,61.314H70.552V47.867H72.4Zm-3.7,0H66.851V47.867H68.7Zm-3.7,0H63.15V47.867H65Zm14.835,0H77.954V47.867h1.881Zm2-15.606a.309.309,0,0,1-.308.308H50.32a.309.309,0,0,1-.308-.308V42.37a5.238,5.238,0,0,1,1.824-3.975l2.531-2.177a2.846,2.846,0,0,1,1.855-.688H75.63a2.846,2.846,0,0,1,1.856.688l2.531,2.177A5.238,5.238,0,0,1,81.84,42.37Z" transform="translate(-27.25)"/>
        <path id="Path_908219" data-name="Path 908219" d="M351.675,7.6a.925.925,0,0,0,.925-.925V.925a.925.925,0,0,0-1.851,0V6.68A.925.925,0,0,0,351.675,7.6Z" transform="translate(-310.841)"/>
        <path id="Path_908220" data-name="Path 908220" d="M188.88,154.5a4.38,4.38,0,1,0,4.38,4.38A4.384,4.384,0,0,0,188.88,154.5Zm0,6.909a2.529,2.529,0,1,1,2.529-2.529A2.532,2.532,0,0,1,188.88,161.409Z" transform="translate(-165.1 -135.44)"/>
        <path id="Path_908221" data-name="Path 908221" d="M95.824,141.649A3.824,3.824,0,1,0,92,137.824,3.829,3.829,0,0,0,95.824,141.649Zm0-5.8a1.974,1.974,0,1,1-1.974,1.974A1.976,1.976,0,0,1,95.824,135.851Z" transform="translate(-84.012 -117.469)"/>
        <path id="Path_908222" data-name="Path 908222" d="M241.7,89.4a3.7,3.7,0,1,0-3.7-3.7A3.705,3.705,0,0,0,241.7,89.4Zm0-5.552a1.851,1.851,0,1,1-1.851,1.851A1.853,1.853,0,0,1,241.7,83.851Z" transform="translate(-212 -71.884)"/>
        <path id="Path_908223" data-name="Path 908223" d="M205.056,39.475a2.652,2.652,0,1,0-2.652-2.652A2.655,2.655,0,0,0,205.056,39.475Zm0-3.454a.8.8,0,1,1-.8.8A.8.8,0,0,1,205.056,36.021Z" transform="translate(-180.796 -29.955)"/>
        <path id="Path_908224" data-name="Path 908224" d="M160.75,91.17a3.084,3.084,0,1,0,3.084-3.084A3.088,3.088,0,0,0,160.75,91.17Zm3.084-1.234A1.234,1.234,0,1,1,162.6,91.17,1.235,1.235,0,0,1,163.834,89.937Z" transform="translate(-144.28 -77.219)"/>
        <path id="Path_908225" data-name="Path 908225" d="M131.152,17.3a2.652,2.652,0,1,0-2.652-2.652A2.655,2.655,0,0,0,131.152,17.3Zm0-3.454a.8.8,0,1,1-.8.8A.8.8,0,0,1,131.152,13.851Z" transform="translate(-116.009 -10.52)"/>
      </g>
    </g>
  </g>
</svg>
