<svg xmlns="http://www.w3.org/2000/svg" width="50" height="62" viewBox="0 0 50 62">
  <g id="quimico_1_" data-name="quimico (1)" transform="translate(-7 -1)">
    <g id="Group_1112401" data-name="Group 1112401">
      <path id="Path_909268" data-name="Path 909268" d="M50,11V5H44v6H40V5H34v6H26V7h2V1H12V7h2v4a7.008,7.008,0,0,0-7,7V48.333l.2.266A20.678,20.678,0,0,0,9.435,51.12L11.133,63h5.734l.989-6.924A20.843,20.843,0,0,0,23.971,57h4.305l.857,6h5.734l.857-6h4.305a20.843,20.843,0,0,0,6.115-.924L47.133,63h5.734l1.7-11.88A20.829,20.829,0,0,0,56.8,48.6l.2-.266V18a7.008,7.008,0,0,0-7-7ZM9,47V19H55V47ZM46,7h2v4H46ZM36,7h2v4H36ZM14,3H26V5H14Zm2,4h8v4H16Zm-2,6H50a5.009,5.009,0,0,1,4.9,4H9.1A5.009,5.009,0,0,1,14,13Zm1.133,48H12.867l-1.139-7.969a21.127,21.127,0,0,0,4.207,2.348Zm8.838-6a19.038,19.038,0,0,1-13.82-6H27.132l.857,6Zm6.9,6L29.153,49h5.694L33.133,61Zm5.143-6,.857-6H53.848a19.036,19.036,0,0,1-13.82,6Zm15.123,6H48.867l-.8-5.621a21.127,21.127,0,0,0,4.207-2.348Z" fill="#7d9ffb"/>
      <path id="Path_909269" data-name="Path 909269" d="M48,21A19.083,19.083,0,0,0,30.386,32.9,10.973,10.973,0,0,0,22,29H11v1A11.013,11.013,0,0,0,22,41h9v4h2V41h1A19.021,19.021,0,0,0,53,22V21ZM13.055,31H22a9.008,9.008,0,0,1,8.85,7.406L16.4,32.084l-.8,1.832L27.22,39H22a9.013,9.013,0,0,1-8.945-8ZM34,39h-.806c.6-1.7,2.565-3.763,5.084-5.812l4.35,1.741.743-1.857-3.261-1.3c1.271-.942,2.619-1.86,3.96-2.719l3.686.922.485-1.939-1.793-.448c1.057-.627,2.079-1.2,3.018-1.7l-.936-1.768a85.58,85.58,0,0,0-7.857,4.769l1.219-2.438-1.789-.9-2.991,5.983a24.77,24.77,0,0,0-4.742,4.836,10.954,10.954,0,0,0-.6-1.406A17.067,17.067,0,0,1,48,23h2.971A17.023,17.023,0,0,1,34,39Z" fill="#7d9ffb"/>
    </g>
  </g>
</svg>
