<svg xmlns="http://www.w3.org/2000/svg" xmlns:xlink="http://www.w3.org/1999/xlink" width="351.573" height="53.015" viewBox="0 0 351.573 53.015">
  <defs>
    <clipPath id="clip-path">
      <path id="Path_903782" data-name="Path 903782" d="M0,0H323.69c13.068,0,23.662,11.193,23.662,25S336.757,50,323.69,50H0Z" transform="translate(-10423.333 -9120.269)" fill="#f59f7c"/>
    </clipPath>
    <linearGradient id="linear-gradient" x1="-0.432" y1="0.5" x2="0.683" y2="0.5" gradientUnits="objectBoundingBox">
      <stop offset="0" stop-color="#cef0b6"/>
      <stop offset="1" stop-color="#fff"/>
    </linearGradient>
    <clipPath id="clip-path-2">
      <rect id="Rectangle_405018" data-name="Rectangle 405018" width="45.77" height="137.384" fill="#98e465"/>
    </clipPath>
    <clipPath id="clip-path-3">
      <rect id="Rectangle_405042" data-name="Rectangle 405042" width="40.01" height="34.707" fill="#166340"/>
    </clipPath>
  </defs>
  <g id="Group_1113122" data-name="Group 1113122" transform="translate(10427.555 9123.283)">
    <g id="Mask_Group_1101769" data-name="Mask Group 1101769" clip-path="url(#clip-path)">
      <path id="Path_880766" data-name="Path 880766" d="M0,0H325.035c13.122,0,23.76,11.193,23.76,25s-10.638,25-23.76,25H0Z" transform="translate(-10424.777 -9120.269)" fill="url(#linear-gradient)"/>
      <path id="Path_903778" data-name="Path 903778" d="M274.269,7.684,289.041,0c6.744,12.969,8.609,25.073,5.54,35.98C290,52.269,275.408,62.355,260.113,68.966c14.55-2.7,32.556-8.887,41.3-23,2.848-4.6,4.379-9.59,5.731-13.995,2.1-6.862,4.72-15.4,13.635-16.295,9.506-.957,15.374,8.268,17.3,11.3,3.347,5.264,6.5,12.188,9.551,18.882,2.568,5.641,5.223,11.472,7.84,15.963a26.487,26.487,0,0,0,4.467,6.131c1.919-1.981,7.38-9.868,13.736-39.081l16.269,3.54c-3.861,17.751-7.883,30.446-12.3,38.813-1.75,3.322-7.078,13.423-17.055,13.824-13.171.527-20.428-15.413-28.114-32.288-2.439-5.356-4.744-10.414-7.037-14.481-.707-1.255-1.33-2.264-1.872-3.075-.178.568-.351,1.131-.51,1.647-1.563,5.105-3.512,11.459-7.5,17.888-9.138,14.745-26.232,25.122-49.435,30.012-18.051,3.8-36.522,3.531-46.82,1.576-3.4-.645-11.348-2.154-12.622-9.183a9.378,9.378,0,0,1,4.491-9.609,20.576,20.576,0,0,1,4.354-2c2.585-.9,6.08-1.82,10.123-2.885,16.655-4.379,47.651-12.534,52.894-31.172,1.884-6.7.443-14.7-4.283-23.786" transform="translate(-10423.605 -9150.604) rotate(-4)" fill="#f59f7c" opacity="0.12"/>
      <g id="Group_1111662" data-name="Group 1111662" transform="translate(-10440.604 -9129.812)">
        <path id="Path_903774" data-name="Path 903774" d="M38.737,108.5c-.078-.07-.154-.143-.226-.219a7.411,7.411,0,0,1-1.717-4.032c-.285-1.8-.172-3.892,1.2-5.091a2.2,2.2,0,0,1,1.94-.571,2.266,2.266,0,0,1,1.418,1.386,8.538,8.538,0,0,1,.439,2c.227,1.48,1.314,3.375,1.26,4.805a2.838,2.838,0,0,1-2.757,2.449,2.66,2.66,0,0,1-1.556-.729" transform="translate(-6.847 -54.112)" fill="#d4f989"/>
        <path id="Path_903776" data-name="Path 903776" d="M180.707,133.866a3.047,3.047,0,0,1-.21,1.35,9.233,9.233,0,0,1-1.748,2.719,4.947,4.947,0,0,1-1.717,1.274,2.588,2.588,0,0,1-2.092-.005,1.77,1.77,0,0,1-1-1.75,2.362,2.362,0,0,1,1.046-1.478,16.145,16.145,0,0,0,1.519-1.07,11.234,11.234,0,0,0,1.085-1.331,2.9,2.9,0,0,1,1.332-1.045c1.2-.375,1.721.415,1.789,1.335" transform="translate(-118.167 -87.363)" fill="#d4f989"/>
        <path id="Path_903777" data-name="Path 903777" d="M194.255,59.293c.066,1.868-.412,3.934-2.114,4.974a4.154,4.154,0,0,1-3.656.3c-3.981-1.6-7.816-9.208-7.918-13.358-.207-8.46,11.342,1.8,12.771,4.452a8.5,8.5,0,0,1,.917,3.626" transform="translate(-148.592 -36.716)" fill="#d4f989"/>
      </g>
      <g id="Group_1111666" data-name="Group 1111666" transform="translate(-10423.65 -9171.967) rotate(4)">
        <g id="Group_1111573" data-name="Group 1111573" clip-path="url(#clip-path-2)">
          <path id="Path_903702" data-name="Path 903702" d="M26.51,136.19c-.014-2.227-.266-7.175-.594-12.77,7.761-.046,18.429-9.453,17.967-25.879.081-3.159-11.845-2.79-11.845-2.79s2.978-1.167,7.742-3.317c4.891-2.206,5.586-6.925-.749-6.7a29.568,29.568,0,0,0,6.682-4.467,45.491,45.491,0,0,0-4.182-21.113c-3.566-1.09-11.309-.615-11.309-.615s7.383-3.513,10.754-5.03c2.732-3.041.563-21.688-8.473-34.453A63.166,63.166,0,0,0,23,19.4s2.374-4.526,5.866-6.884C23.918,1.2,14.151-6.513,7.79,7.747S1.527,33.191,1.527,33.191a40.908,40.908,0,0,1,8.811,4.427A41.609,41.609,0,0,0,.4,37.038,45.911,45.911,0,0,0,1.725,55.562C4.552,65.71,6.707,70.6,4.4,80.582S2.926,95.9,5.531,98.5c3.6,3.6,10.475,5.849,10.475,5.849a56.31,56.31,0,0,1-10.445-.116c3.534,7.954,10.151,16.6,17.572,18.755.415,8.468.231,9.373.655,13.424.16,1.525,2.731,1.093,2.723-.226" transform="translate(0 0)" fill="#98e465"/>
        </g>
      </g>
      <path id="Path_903783" data-name="Path 903783" d="M5.306,4.688q0,.084,0,.168A2.352,2.352,0,0,1,3.922,7.021C1.876,7.779.717,5.326.3,3.8a5.678,5.678,0,0,1-.271-2.21C.442-1.605,3.495.749,4.466,2.3a4.867,4.867,0,0,1,.84,2.387" transform="translate(-10413.654 -9107.23) rotate(-79)" fill="#d4f989"/>
    </g>
    <g id="Group_1111667" data-name="Group 1111667" transform="translate(-10427.555 -9085.021) rotate(-73)">
      <g id="Group_1111658" data-name="Group 1111658" clip-path="url(#clip-path-3)">
        <path id="Path_903772" data-name="Path 903772" d="M39.57,29.382l0,0a3.083,3.083,0,0,0-1.1-1.076.47.47,0,0,0-.392-.028.46.46,0,0,0-.121.067,15.208,15.208,0,0,1-3.634,1.841,7.9,7.9,0,0,1-.841.244c-2,.123-6.393-.229-14.5-6.208C9.421,17.167,6.762,7.33,6.936,2.578A2.031,2.031,0,0,0,6.187.27a1.927,1.927,0,0,0-2.724.939l-.03.016c-4.91,10.821-5.815,20.768,5.857,28.97C19.7,37.51,30.258,34.063,33.744,32.66a19.083,19.083,0,0,0,5.974-1.468.451.451,0,0,0,.289-.374,2.52,2.52,0,0,0-.437-1.436" transform="translate(0 0.001)" fill="#166340"/>
      </g>
    </g>
  </g>
</svg>
