<svg xmlns="http://www.w3.org/2000/svg" xmlns:xlink="http://www.w3.org/1999/xlink" width="190" height="249" viewBox="0 0 190 249">
  <defs>
    <clipPath id="clip-path">
      <rect id="Rectangle_405217" data-name="Rectangle 405217" width="190" height="249" transform="translate(180.074 2630)" fill="#fff" stroke="#707070" stroke-width="1"/>
    </clipPath>
    <clipPath id="clip-path-2">
      <rect id="Rectangle_405216" data-name="Rectangle 405216" width="179.665" height="259.928" fill="none"/>
    </clipPath>
  </defs>
  <g id="Mask_Group_1101806" data-name="Mask Group 1101806" transform="translate(-180.074 -2630)" clip-path="url(#clip-path)">
    <g id="Group_1112158" data-name="Group 1112158" transform="translate(192.409 2642.877)">
      <g id="Group_1112157" data-name="Group 1112157" transform="translate(0 -0.001)" clip-path="url(#clip-path-2)">
        <path id="Path_908679" data-name="Path 908679" d="M101.257,82.277c8.71,5.462,12.208,12.253,12.208,31.8s-1.646,29.224-1.646,29.224l-29.635-8.438Z" transform="translate(0.96 0.962)"/>
        <path id="Path_908680" data-name="Path 908680" d="M53.6,44.227c1.655,6.328,2.858,14.509,21.964,20.683s3.911-45.534,3.911-45.534" transform="translate(0.626 0.227)"/>
        <path id="Path_908681" data-name="Path 908681" d="M102.146,146.5a.9.9,0,0,0-.111.185c-.1.6-.212,1.181-.259,1.7-.1,1.1-.139,2.22-.21,3.326-.2,3.022-.345,6.05-.281,9.079.1,4.434.328,11.288,4.208,14.353a1.657,1.657,0,0,0,.239-.012c13.913-6.444,40.589-57.34,40.589-57.34l-8.812-6.068S111.1,137.75,102.146,146.5" transform="translate(1.183 1.306)" fill="#6b3a36"/>
        <path id="Path_908682" data-name="Path 908682" d="M116.94,258.22H78.457s-53.035.3-54.307.6c-.7-.2-4.242-35.791,1.821-64.686,3.359-15.991,9.656-29.932,21-34.7l42.441,3.7,7.18.63,10.576.92a16.73,16.73,0,0,1,1.161,2.087c2.76,5.822,4.637,16.4,5.908,28.345.259,2.364.488,4.778.7,7.223,2.241,26.344,2.006,55.881,2.006,55.881" transform="translate(0.263 1.863)" fill="#516f85"/>
        <path id="Path_908683" data-name="Path 908683" d="M55.658,162.181s-10.188,20.374-10.5,41.984,1.852,54.023,1.852,54.023" transform="translate(0.527 1.895)" fill="none" stroke="#000" stroke-linecap="round" stroke-linejoin="round" stroke-width="1"/>
        <path id="Path_908684" data-name="Path 908684" d="M56.295,197.145l24.7,15.435s-14.818,10.088-21.2,11.323-8.847-2.679-8.847-2.679l1.234-7.41L45.354,208.7,25.931,194.133c3.359-15.991,9.655-29.932,21-34.7l42.44,3.7,7.181.629,10.576.921a16.585,16.585,0,0,1,1.16,2.086c-9.655,1.408-37.581,5.347-49.731,5.681a30.1,30.1,0,0,0-7.261,1.056c-9.348,2.6-12.9,9.032-12.9,9.032l8.57,6.989Z" transform="translate(0.303 1.863)"/>
        <path id="Path_908685" data-name="Path 908685" d="M67.336,78.66A27.465,27.465,0,0,0,78.3,81.975a20.627,20.627,0,0,0,10.011-1.752,21.145,21.145,0,0,0,1.886-.972,9.93,9.93,0,0,1-3.274-5.72,7.833,7.833,0,0,1-.173-1.188V53.4L64.59,47.937v22.8l-4.514,2.088a28.8,28.8,0,0,0,7.26,5.834" transform="translate(0.702 0.561)" fill="#6b3a36"/>
        <path id="Path_908686" data-name="Path 908686" d="M113.734,138.457a21.289,21.289,0,0,0,.593,10.286c2.111,6.341-.012,11.527-3.84,14.793a15.732,15.732,0,0,1-3.365,2.186l-.617.105s.154.086.432.247c-4.131.957-8.779.679-12.83.247a87.918,87.918,0,0,0-13.842-.754c-4.847.247-9.663.945-14.5,1.327-7.9.63-17.306.569-23.61-5.013a13.955,13.955,0,0,1-4.785-11.551c.086-1.217.29-2.451.494-3.7a7.174,7.174,0,0,1-.092-1.592c.388-8.088-5.076-13.9-9.33-32.142-.191-.791-.37-1.6-.549-2.433-4.322-20.171.821-25.931,7.082-28.851,3.118-1.272,6.606-2.42,9.675-3.341l20.338-7.8,5.168,5.551c20.034,10.737,16.99-3.946,16.99-3.946L101.91,82.415s13.423,28.851,14.824,39.261a8.714,8.714,0,0,1,.062,2.37c-.821,5.248-2.364,9.9-3.062,14.41" transform="translate(0.307 0.824)" fill="#027d47"/>
        <path id="Path_908687" data-name="Path 908687" d="M50.834,160.421c-4.459-6.421-5.013-14.135-5.191-21.709-.225-9.506.066-18.887-2-28.154a57.5,57.5,0,0,1-2.841,5.038,111.951,111.951,0,0,1-8.168,11.136c2.906,7.935,5.319,12.37,5.056,17.839a7.171,7.171,0,0,0,.093,1.592c-.2,1.247-.408,2.483-.495,3.7a13.958,13.958,0,0,0,4.785,11.551c4.035,3.572,9.339,4.878,14.706,5.194a28.684,28.684,0,0,1-5.95-6.186" transform="translate(0.381 1.292)"/>
        <path id="Path_908688" data-name="Path 908688" d="M62.951,37.659c-.12,1.725-.963,29.221,17.983,28.9S96.348,52.11,96.026,40.55,91.21,20.64,80.934,20.64,63.915,23.851,62.951,37.659" transform="translate(0.735 0.242)" fill="#6b3a36"/>
        <path id="Path_908689" data-name="Path 908689" d="M69.21,58.829a5.836,5.836,0,0,1-.539-.925c.18.315.353.623.539.925" transform="translate(0.802 0.677)"/>
        <path id="Path_908690" data-name="Path 908690" d="M86.814,73.4A35.726,35.726,0,0,1,69.2,58.824c1.477,2.223,6.326,7.662,17.437,6.506v6.885a7.833,7.833,0,0,0,.173,1.188" transform="translate(0.808 0.688)"/>
        <path id="Path_908691" data-name="Path 908691" d="M88.809,44.216s2.14,2.085,6.008-.94A3.177,3.177,0,0,0,93.1,41.953a3.354,3.354,0,0,0-1.523-.138,3.117,3.117,0,0,0-1.413.515,3.456,3.456,0,0,0-1.358,1.886" transform="translate(1.037 0.489)" fill="#fff"/>
        <path id="Path_908692" data-name="Path 908692" d="M73.955,44.054a13.17,13.17,0,0,0,9.6.514,4.439,4.439,0,0,0-2.551-2.029,6.556,6.556,0,0,0-1.968-.37,7.641,7.641,0,0,0-1.584.082,5.712,5.712,0,0,0-3.5,1.8" transform="translate(0.864 0.493)" fill="#fff"/>
        <path id="Path_908693" data-name="Path 908693" d="M90.151,42.33V42.5a2.4,2.4,0,0,0,.487,1.679,1.3,1.3,0,0,0,1.606.145,2.406,2.406,0,0,0,.775-1.715c.027-.212.055-.439.069-.659a3.358,3.358,0,0,0-1.523-.137,3.1,3.1,0,0,0-1.413.514" transform="translate(1.053 0.489)"/>
        <path id="Path_908694" data-name="Path 908694" d="M77.4,43.163a1.969,1.969,0,0,0,1.091,1.6,2.5,2.5,0,0,0,1.125.1,1.074,1.074,0,0,0,.652-.212,1.037,1.037,0,0,0,.24-.425,9.573,9.573,0,0,0,.459-1.687A6.556,6.556,0,0,0,79,42.168a7.783,7.783,0,0,0-1.584.082,3.669,3.669,0,0,0-.014.913" transform="translate(0.904 0.493)"/>
        <path id="Path_908695" data-name="Path 908695" d="M90.395,51.581s-3.063-5.35-1.407-9.266c.783-1.553,1.265-2.356,1.265-2.356l-.989-.83a12.057,12.057,0,0,0-1.182,4.289c-.49,3.5,1.685,7.44,1.685,7.44l-4.458,1.291Z" transform="translate(0.996 0.458)"/>
        <path id="Path_908696" data-name="Path 908696" d="M84.527,40.107a5.985,5.985,0,0,1-2.84,0,20.523,20.523,0,0,0-7.947-.306.817.817,0,0,1-.673-1.459c2.8-1.97,9.476-2.324,11.99.244a.921.921,0,0,1-.531,1.517" transform="translate(0.849 0.43)"/>
        <path id="Path_908697" data-name="Path 908697" d="M94.816,43.277a3.59,3.59,0,0,0-3.062-1.447c-2.058.085-2.946,2.387-2.946,2.387" transform="translate(1.037 0.49)" fill="none" stroke="#000" stroke-linecap="round" stroke-linejoin="round" stroke-width="1"/>
        <path id="Path_908698" data-name="Path 908698" d="M83.557,44.569a5.224,5.224,0,0,0-4.1-2.4,7.806,7.806,0,0,0-5.5,1.887" transform="translate(0.864 0.493)" fill="none" stroke="#000" stroke-linecap="round" stroke-linejoin="round" stroke-width="1"/>
        <path id="Path_908699" data-name="Path 908699" d="M88.959,38.088a5.694,5.694,0,0,1,6.7.12.514.514,0,0,1,.09.72.527.527,0,0,1-.626.153,3.786,3.786,0,0,0-4.173,1.3,1.584,1.584,0,0,1-2.173.548,1.617,1.617,0,0,1,.183-2.84" transform="translate(1.028 0.434)"/>
        <path id="Path_908700" data-name="Path 908700" d="M84.743,55.23l6.195.224a9.079,9.079,0,0,1-6.195-.224" transform="translate(0.99 0.646)"/>
        <path id="Path_908701" data-name="Path 908701" d="M86.145,58.172a39.155,39.155,0,0,1,3.956-.15,2.891,2.891,0,0,1-3.956.15" transform="translate(1.006 0.679)"/>
        <path id="Path_908702" data-name="Path 908702" d="M131.78,117.886q-.786-8.035-1.677-16.06c3.806-1.3,7.571-3.622,9.127-7.331a6.51,6.51,0,0,1,1.484,6.553,8.922,8.922,0,0,1-4.619,5.111,1.121,1.121,0,0,0-.5.379,1.086,1.086,0,0,0,.045.884,42.112,42.112,0,0,1,1.946,8.294l.109-.7" transform="translate(1.52 1.105)" fill="#6b3a36"/>
        <path id="Path_908703" data-name="Path 908703" d="M91.747,80.915a4.15,4.15,0,0,0,1.336-3.461" transform="translate(1.072 0.906)" fill="none" stroke="#000" stroke-linecap="round" stroke-linejoin="round" stroke-width="1"/>
        <path id="Path_908704" data-name="Path 908704" d="M60.723,76.03C66.646,81,74.788,84.618,82.609,84.083a19,19,0,0,0,7.9-1.969" transform="translate(0.709 0.889)" fill="none" stroke="#000" stroke-linecap="round" stroke-linejoin="round" stroke-width="1"/>
        <path id="Path_908705" data-name="Path 908705" d="M66.4,239.53a8.438,8.438,0,1,1,10.488-5.692A8.438,8.438,0,0,1,66.4,239.53" transform="translate(0.705 2.606)" fill="#ff5541"/>
        <path id="Path_908706" data-name="Path 908706" d="M73.559,230.091a9.725,9.725,0,0,0,6.607-6.792,1.012,1.012,0,1,0-1.951-.538,9.5,9.5,0,0,1-.329,1.011c-.085.223.056-.112-.036.085-.037.08-.074.161-.112.24q-.117.238-.249.469a9.2,9.2,0,0,1-.581.89c-.173.235.126-.15-.06.075-.057.069-.112.138-.17.2-.115.135-.236.266-.359.394-.248.255-.513.488-.785.717-.163.139.115-.078-.075.06-.072.052-.143.1-.215.156-.146.1-.293.2-.445.29a8.2,8.2,0,0,1-.9.477q-.061.029-.121.055c.092-.038.1-.044.037-.016-.083.03-.165.065-.248.1-.181.066-.363.124-.548.178a1.012,1.012,0,0,0,.538,1.952" transform="translate(0.844 2.594)" fill="#53ad5e"/>
        <path id="Path_908707" data-name="Path 908707" d="M74.1,228.541c-.087.2.311.287.407.094s-.021-.419-.131-.6a11.035,11.035,0,0,1-1.313-7.523,6.492,6.492,0,0,0-1.588,7.469,25.923,25.923,0,0,1-7.695-.191,5.561,5.561,0,0,0,3.4,1.955,14.99,14.99,0,0,0,3.994.1,6.06,6.06,0,0,0-1.23,6.82,16.008,16.008,0,0,1,3.615-5.292,4.459,4.459,0,0,0,2.87,1.485,13.2,13.2,0,0,0,3.3-.075,10.493,10.493,0,0,1-4.856-5.185" transform="translate(0.745 2.577)" fill="#53ad5e"/>
        <path id="Path_908708" data-name="Path 908708" d="M45.3,247.962a8.438,8.438,0,1,1-2.478-11.673A8.439,8.439,0,0,1,45.3,247.962" transform="translate(0.348 2.745)"/>
        <path id="Path_908709" data-name="Path 908709" d="M39.063,237.039a9.244,9.244,0,0,1,2.267-7.468,1.033,1.033,0,0,0,0-1.431,1.023,1.023,0,0,0-1.431,0,11.179,11.179,0,0,0-2.86,8.9,1.046,1.046,0,0,0,1.012,1.012c.491,0,1.085-.466,1.012-1.012" transform="translate(0.432 2.662)" fill="#53ad5e"/>
        <path id="Path_908710" data-name="Path 908710" d="M37.9,235.714a5.234,5.234,0,0,1-3.339-1.475,15.584,15.584,0,0,1-2.326-2.906,5.629,5.629,0,0,0,5.2,5.855" transform="translate(0.376 2.703)" fill="#53ad5e"/>
        <path id="Path_908711" data-name="Path 908711" d="M37.673,237.447a4.764,4.764,0,0,0,5.4,5.61,5.34,5.34,0,0,1-2.392-2.946q-1.082-2.317-2.163-4.635" transform="translate(0.439 2.751)" fill="#53ad5e"/>
        <path id="Path_908712" data-name="Path 908712" d="M38.12,235.176c.567.682,1.649.486,2.482.18a22.819,22.819,0,0,0,3.069-1.393c.776-.425,1.609-1.018,1.7-1.9A4.793,4.793,0,0,1,38.7,237.13" transform="translate(0.445 2.712)" fill="#53ad5e"/>
        <path id="Path_908713" data-name="Path 908713" d="M62.24,246.293a8.438,8.438,0,1,1-8.437-8.437,8.437,8.437,0,0,1,8.437,8.437" transform="translate(0.53 2.779)" fill="#ff5541"/>
        <path id="Path_908714" data-name="Path 908714" d="M74.038,239.783a8.438,8.438,0,1,1-8.437-8.437,8.437,8.437,0,0,1,8.437,8.437" transform="translate(0.668 2.703)"/>
        <path id="Path_908715" data-name="Path 908715" d="M96.184,237.37a8.438,8.438,0,1,1-11.535,3.055,8.437,8.437,0,0,1,11.535-3.055" transform="translate(0.975 2.76)" fill="#ff5541"/>
        <path id="Path_908716" data-name="Path 908716" d="M59.829,237.141A9.013,9.013,0,0,0,54.764,234a1.012,1.012,0,0,0-.537,1.952,9.732,9.732,0,0,1,1.29.395c.133.049-.226-.1-.006,0l.134.06c.1.046.2.094.3.144.206.105.408.22.6.341s.365.243.543.37c.117.084-.016.016-.03-.025.01.028.114.091.143.114.084.07.168.141.25.213a8.219,8.219,0,0,1,.95,1.009,1.013,1.013,0,0,0,1.431,0,1.041,1.041,0,0,0,0-1.431" transform="translate(0.625 2.734)" fill="#53ad5e"/>
        <path id="Path_908717" data-name="Path 908717" d="M83.941,247.3a8.438,8.438,0,1,1-2.477-11.673A8.438,8.438,0,0,1,83.941,247.3" transform="translate(0.799 2.737)" fill="#ff5541"/>
        <path id="Path_908718" data-name="Path 908718" d="M82.52,238.4a7.523,7.523,0,0,1,8.895.2,1.041,1.041,0,0,0,1.431,0,1.02,1.02,0,0,0,0-1.431A9.549,9.549,0,0,0,81.5,236.65a1.039,1.039,0,0,0-.363,1.384,1.02,1.02,0,0,0,1.384.363" transform="translate(0.946 2.746)" fill="#53ad5e"/>
        <path id="Path_908719" data-name="Path 908719" d="M81.726,237.876a6.617,6.617,0,0,1-2.193-5.869c.146-1,.792-2.14,1.8-2.066a13.389,13.389,0,0,0,.628,7.912" transform="translate(0.928 2.687)" fill="#53ad5e"/>
        <path id="Path_908720" data-name="Path 908720" d="M81.7,237.54A8.1,8.1,0,0,1,77,237a4.316,4.316,0,0,1-2.525-3.779c1.853,1.729,3.924,3.556,6.455,3.706" transform="translate(0.87 2.725)" fill="#53ad5e"/>
        <path id="Path_908721" data-name="Path 908721" d="M80.709,237.707a3.729,3.729,0,0,0,5.118,4.562,6.71,6.71,0,0,1-4.252-5.321" transform="translate(0.941 2.769)" fill="#53ad5e"/>
        <path id="Path_908722" data-name="Path 908722" d="M109.52,246.837a8.438,8.438,0,1,1-2.477-11.673,8.438,8.438,0,0,1,2.477,11.673" transform="translate(1.098 2.732)" fill="#ff5541"/>
        <path id="Path_908723" data-name="Path 908723" d="M102.507,237.191a9.74,9.74,0,0,0-4.66-8.26,1.012,1.012,0,0,0-1.022,1.747,7.7,7.7,0,0,1,3.658,6.513,1.012,1.012,0,0,0,2.023,0" transform="translate(1.125 2.673)" fill="#53ad5e"/>
        <path id="Path_908724" data-name="Path 908724" d="M101.167,236.3c.163.14.362-.215.2-.363s-.407-.1-.617-.047a11.034,11.034,0,0,1-7.586-.879,6.491,6.491,0,0,0,6.71,3.645,25.9,25.9,0,0,1-2.37,7.324,5.559,5.559,0,0,0,2.84-2.7,14.969,14.969,0,0,0,1.228-3.8,6.057,6.057,0,0,0,6.188,3.118,16.022,16.022,0,0,1-4.046-4.969,4.465,4.465,0,0,0,2.24-2.33,13.29,13.29,0,0,0,.865-3.183,10.5,10.5,0,0,1-6.351,3.182" transform="translate(1.088 2.712)" fill="#53ad5e"/>
        <path id="Path_908725" data-name="Path 908725" d="M28.683,245.178h83.349l-7.662,48.856a23.285,23.285,0,0,1-23,19.676H60.745a23.285,23.285,0,0,1-22.894-19.043Z" transform="translate(0.335 2.865)" fill="#9c5851"/>
        <path id="Path_908726" data-name="Path 908726" d="M81.777,209.68c6.667,0,6.357,35.977,6.357,35.977h5.249s-1.544-24.7-3.088-29.944-5.248-12.657-19.756-11.422,10.187,6.482,10.187,6.482" transform="translate(0.771 2.386)" fill="#9c5851"/>
        <path id="Path_908727" data-name="Path 908727" d="M57.439,209.68c-6.667,0-6.357,35.977-6.357,35.977H45.833s1.544-24.7,3.088-29.944,5.248-12.657,19.757-11.422-10.188,6.482-10.188,6.482" transform="translate(0.535 2.386)" fill="#9c5851"/>
        <path id="Path_908728" data-name="Path 908728" d="M54.508,213.139s-1.852,2.316-2.316,11.113S50.958,252.5,50.958,252.5" transform="translate(0.595 2.491)" fill="none" stroke="#000" stroke-linecap="round" stroke-linejoin="round" stroke-width="1"/>
        <path id="Path_908729" data-name="Path 908729" d="M45.836,245.178c-.063.463-.218,7.255-.218,7.255" transform="translate(0.533 2.865)" fill="none" stroke="#000" stroke-linecap="round" stroke-linejoin="round" stroke-width="1"/>
        <path id="Path_908730" data-name="Path 908730" d="M48.952,193.311l1.7,12.892c.251.483,6.692,12.839,9.019,13.913a4.02,4.02,0,0,0,4.256-.77A14.251,14.251,0,0,0,68.9,218.2c1.817-.985,1.2-2.44,1.2-2.44s3.289.208,4.623-.534a1.986,1.986,0,0,0,1.2-1.837s3.289.215,4.623-.527,1.433-3.054,1.433-3.054-5.485-.806-7.086-2.252l-.042-.041a13.588,13.588,0,0,1-2.171-2.375,38.817,38.817,0,0,0,3.884,1.531c6.474,1.454,6.731-2.56,5.6-4.349-2.818-.228-6.714-.831-8.555-2.422-3.072-2.654-11.262-6.6-14.066-6.934s-10.587.343-10.587.343" transform="translate(0.572 2.254)" fill="#6b3a36"/>
        <path id="Path_908731" data-name="Path 908731" d="M16.865,111.179S.224,168.1,20.089,173.262c10.043-.515,11.214-13.007,11.214-13.007l9.963-45.892-21.5-11.112Z" transform="translate(0.121 1.207)" fill="#6b3a36"/>
        <path id="Path_908732" data-name="Path 908732" d="M39.041,82.291c-5.649-2.43-16.046,4.568-21.746,23.556s-7.18,40.742-7.18,40.742l24.434,4.88s8-26.621,9.948-33.817S49.9,86.964,39.041,82.291" transform="translate(0.118 0.957)" fill="#027d47"/>
        <path id="Path_908733" data-name="Path 908733" d="M57.822,44.162q-1.323,6.324-2.186,12.73c-.538,3.994-.939,8.077-.166,12.033,1.156,5.91,4.817,11.007,6.8,16.695,1.571,4.514,2.058,9.323,2.533,14.079a12.117,12.117,0,0,1,10.493-6.36C73.446,76.919,57.7,73.009,59.568,44.028" transform="translate(0.643 0.515)"/>
        <path id="Path_908734" data-name="Path 908734" d="M57.922,46.351A40.291,40.291,0,0,1,51.981,62.07c-2.094,3.252-4.647,6.185-6.77,9.418a42.97,42.97,0,0,0-6.394,16.168,6.659,6.659,0,0,1,3.664.8A71.784,71.784,0,0,1,50.1,92.377c-1.359-4.582.277-9.462,1.946-13.941,2.348-6.3,4.813-12.614,5.862-19.251a46.747,46.747,0,0,0,.275-12.52" transform="translate(0.453 0.542)" fill="#ffd336"/>
        <path id="Path_908735" data-name="Path 908735" d="M54.295,48.916S35.961,19.105,67.789,9.939C90.341,3.445,96.052,33.426,96.052,33.426S80.028,26.718,59.906,44.6c-3.524,2.676-5.612,4.311-5.612,4.311" transform="translate(0.573 0.106)" fill="#ffd336"/>
        <path id="Path_908736" data-name="Path 908736" d="M68.462,54.237s-9.3,1.514-11.556-6.662,5.356-10.9,9.584-3.331,1.973,9.993,1.973,9.993" transform="translate(0.66 0.466)" fill="#6b3a36"/>
        <path id="Path_908737" data-name="Path 908737" d="M64.994,39.032c0-.463,11.113-10.959,24.541-10.959" transform="translate(0.759 0.329)" fill="none" stroke="#000" stroke-linecap="round" stroke-linejoin="round" stroke-width="1"/>
        <path id="Path_908738" data-name="Path 908738" d="M65.956,23.152a19.487,19.487,0,0,1,7.672-4.844" transform="translate(0.77 0.215)" fill="none" stroke="#000" stroke-linecap="round" stroke-linejoin="round" stroke-width="1"/>
        <path id="Path_908739" data-name="Path 908739" d="M60.112,37.995a22.73,22.73,0,0,1,4.82-13.67" transform="translate(0.702 0.285)" fill="none" stroke="#000" stroke-linecap="round" stroke-linejoin="round" stroke-width="1"/>
        <path id="Path_908740" data-name="Path 908740" d="M144.238,195.829,126.8,28.027a3.864,3.864,0,0,1,7.687-.8c0,.015,0,.05.006.064l14.664,168.066a2.47,2.47,0,0,1-4.917.47" transform="translate(1.481 0.279)" fill="#bc7e6d"/>
        <path id="Path_908741" data-name="Path 908741" d="M99.582,32.1s2.319.684,7.755-1.465,14.041-5.81,18.932-3.741-1.557-6.412-1.557-6.412A54.906,54.906,0,0,0,99.582,32.1" transform="translate(1.163 0.24)"/>
        <path id="Path_908742" data-name="Path 908742" d="M133.139,23.171a59.571,59.571,0,0,1,15.736-.453c7.07.854,13.484,2.25,13.484,2.25-.181-1.979,1.456-4.036,3.216-6.1,0,0-18.778-3.077-31.969.538" transform="translate(1.555 0.207)"/>
        <path id="Path_908743" data-name="Path 908743" d="M126.135,30.754l-3.685-11.7a28.465,28.465,0,0,1,13.863-2.091L135.088,29.4a35.273,35.273,0,0,0-8.953,1.351" transform="translate(1.43 0.197)"/>
        <path id="Path_908744" data-name="Path 908744" d="M145.924,100.021c-2.24.916-4.685,1.245-6.922,2.166s-4.38,2.674-4.734,5.068a2.193,2.193,0,0,0,.194,1.443,1.916,1.916,0,0,0,1.563.829,5.664,5.664,0,0,0,1.809-.3l7.5-2.105c1.712-.481,3.654-1.162,4.28-2.828a2.953,2.953,0,0,0-1.547-3.618,4.82,4.82,0,0,0-2.407-.218,15.152,15.152,0,0,0-3.2.7" transform="translate(1.568 1.169)" fill="#6b3a36"/>
        <path id="Path_908745" data-name="Path 908745" d="M150,105.4a52.52,52.52,0,0,0-11.478,3.369,7.422,7.422,0,0,0-3.151,2.085,2.805,2.805,0,0,0-.087,3.513c.852.9,2.278.858,3.507.693a41.912,41.912,0,0,0,10.15-2.686,4.262,4.262,0,0,0,2.089-1.419,4.39,4.39,0,0,0,.508-2.282,4.089,4.089,0,0,0-.239-1.889,2.734,2.734,0,0,0-2.636-1.377,6.251,6.251,0,0,0-2.916,1.113" transform="translate(1.573 1.232)" fill="#6b3a36"/>
        <path id="Path_908746" data-name="Path 908746" d="M149.385,112.2a28.974,28.974,0,0,0-12.407,3.925,4.593,4.593,0,0,0-1.413,1.136,1.744,1.744,0,0,0-.28,1.717,2.443,2.443,0,0,0,2.267,1.044c3.533.118,6.963-1.119,10.219-2.5a8.568,8.568,0,0,0,2.58-1.481,3.068,3.068,0,0,0,1.061-2.666,2.274,2.274,0,0,0-3.73-1.325" transform="translate(1.579 1.303)" fill="#6b3a36"/>
        <path id="Path_908747" data-name="Path 908747" d="M138.194,120.235l5.5-2.163a14.11,14.11,0,0,1,3.928-1.121,4.77,4.77,0,0,1,3.79,1.185,1.116,1.116,0,0,1,.32.489,1.056,1.056,0,0,1-.078.64,4.782,4.782,0,0,1-2.595,2.232,55.6,55.6,0,0,1-5.906,2.464,4.691,4.691,0,0,1-3.095.311,4.45,4.45,0,0,1-2.155-2.3,1.543,1.543,0,0,1-.212-.6c-.039-.577.525-.993,1.031-1.274a24.681,24.681,0,0,1,6.782-2.531" transform="translate(1.608 1.367)" fill="#6b3a36"/>
        <path id="Path_908748" data-name="Path 908748" d="M58.957,208.063c-2.015.08-40.988-30.775-44.79-39.706l.292.322s-2.021-26.1,18.044-13.07l31,42.45Z" transform="translate(0.165 1.776)" fill="#6b3a36"/>
        <path id="Path_908749" data-name="Path 908749" d="M34.938,82.845c3.859.309,10.341,5.711,11.113,16.516" transform="translate(0.408 0.969)" fill="none" stroke="#000" stroke-linecap="round" stroke-linejoin="round" stroke-width="1"/>
        <line id="Line_323" data-name="Line 323" x2="79.799" transform="translate(30.87 255.452)" fill="none" stroke="#000" stroke-linecap="round" stroke-linejoin="round" stroke-width="1"/>
        <path id="Path_908750" data-name="Path 908750" d="M82.387,79.743s15.641,28.4,15.435,40.131-2.058,15.847-2.264,22.227,2.058,24.079-7.615,23.461" transform="translate(0.962 0.932)" fill="none" stroke="#000" stroke-linecap="round" stroke-linejoin="round" stroke-width="1"/>
      </g>
    </g>
  </g>
</svg>
