<svg xmlns="http://www.w3.org/2000/svg" width="70.333" height="70.333" viewBox="0 0 70.333 70.333">
  <g id="quimico_2_" data-name="quimico (2)" transform="translate(0 0)">
    <path id="Path_909282" data-name="Path 909282" d="M167.941,200.957h9.075a3.408,3.408,0,0,0,3.4-3.4v-2.836l.454-.34A10.21,10.21,0,0,0,174.747,176H170.21a10.21,10.21,0,0,0-6.126,18.378l.454.34v2.836a3.408,3.408,0,0,0,3.4,3.4Zm-5.672-14.747a7.95,7.95,0,0,1,7.941-7.941h4.538a7.941,7.941,0,0,1,4.765,14.294l-1.362,1.021v3.97a1.137,1.137,0,0,1-1.134,1.134h-1.134v-3.4h-2.269v3.4h-2.269v-3.4h-2.269v3.4h-1.134a1.137,1.137,0,0,1-1.134-1.134v-3.97l-1.362-1.021a7.981,7.981,0,0,1-3.176-6.353Zm0,0" transform="translate(-137.312 -151.043)" fill="#7d9ffb"/>
    <path id="Path_909283" data-name="Path 909283" d="M258.131,222a2.739,2.739,0,0,0,4.675-1.936v-1.329A2.742,2.742,0,0,0,260.068,216h-1.329a2.739,2.739,0,0,0-1.936,4.675Zm.607-3.736h1.329a.471.471,0,0,1,.47.47v1.329a.488.488,0,0,1-.8.332l-1.329-1.329a.47.47,0,0,1,.332-.8Zm0,0" transform="translate(-219.699 -185.371)" fill="#7d9ffb"/>
    <path id="Path_909284" data-name="Path 909284" d="M194.739,222.806a2.72,2.72,0,0,0,1.936-.8L198,220.675A2.739,2.739,0,0,0,196.068,216h-1.329A2.742,2.742,0,0,0,192,218.738v1.329a2.742,2.742,0,0,0,2.739,2.739Zm-.47-4.068a.471.471,0,0,1,.47-.47h1.329a.47.47,0,0,1,.332.8l-1.329,1.329a.488.488,0,0,1-.8-.332Zm0,0" transform="translate(-164.775 -185.371)" fill="#7d9ffb"/>
    <path id="Path_909285" data-name="Path 909285" d="M272,480h2.269v2.269H272Zm0,0" transform="translate(-233.43 -411.936)" fill="#7d9ffb"/>
    <path id="Path_909286" data-name="Path 909286" d="M66.93,51.048H58.989V21.21L54.37,14.282,52.579,7.116a3.4,3.4,0,0,0-3.3-2.578H34.669a3.4,3.4,0,0,0-3.3,2.577l-1.624,6.5H24.957V11.344a2.271,2.271,0,0,0,2.269-2.269V6.806a2.271,2.271,0,0,0-2.269-2.269V3.4a3.408,3.408,0,0,0-3.4-3.4H14.747a3.408,3.408,0,0,0-3.4,3.4V4.537A2.271,2.271,0,0,0,9.075,6.806V9.075a2.271,2.271,0,0,0,2.269,2.269v36.3h2.269V22.688H56.72V53.042a11.112,11.112,0,0,1-9.878,5.947H23.491a11.112,11.112,0,0,1-9.878-5.947V49.914H3.4a3.4,3.4,0,1,0,0,6.806h3.4a1.134,1.134,0,1,1,0,2.269H5.672a3.4,3.4,0,1,0,0,6.806h7.941a5.274,5.274,0,0,1,3.2.972,7.481,7.481,0,0,0,4.364,1.3,7.482,7.482,0,0,0,4.365-1.3,5.747,5.747,0,0,1,6.4,0,7.489,7.489,0,0,0,4.366,1.3V65.8a5.281,5.281,0,0,1-3.2-.972,7.489,7.489,0,0,0-4.366-1.3,7.489,7.489,0,0,0-4.366,1.3,5.281,5.281,0,0,1-3.2.972,5.276,5.276,0,0,1-3.2-.972,7.481,7.481,0,0,0-4.364-1.3H5.672a1.134,1.134,0,0,1,0-2.269H6.806a3.4,3.4,0,0,0,0-6.806H3.4a1.134,1.134,0,0,1,0-2.269h7.941v1.4l.119.239a13.375,13.375,0,0,0,12.028,7.434H46.842A13.375,13.375,0,0,0,58.87,53.824l.119-.239v-.268H66.93a1.134,1.134,0,1,1,0,2.269h-3.4a3.4,3.4,0,1,0,0,6.806h1.134a1.134,1.134,0,1,1,0,2.269h-5.1A9.7,9.7,0,0,0,53.77,66.59a7.423,7.423,0,0,1-4.424,1.475H43.107v2.269h6.239A9.7,9.7,0,0,0,55.132,68.4a7.423,7.423,0,0,1,4.424-1.475h5.1a3.4,3.4,0,1,0,0-6.806H63.527a1.134,1.134,0,1,1,0-2.269h3.4a3.4,3.4,0,1,0,0-6.806ZM24.136,15.881H52.71l3.025,4.538H16.574Zm12.623-2.269.567-2.269H46.62l.567,2.269ZM33.568,7.666a1.135,1.135,0,0,1,1.1-.86H49.277a1.133,1.133,0,0,1,1.1.86l1.486,5.947H49.526L48.392,9.075H35.554L34.42,13.613H32.082ZM13.613,3.4a1.137,1.137,0,0,1,1.134-1.134h6.806A1.137,1.137,0,0,1,22.688,3.4V4.537H13.613Zm-2.269,3.4H24.957V9.075H11.344Zm2.269,4.538h9.075v2.761L13.613,19.55Zm0,0" fill="#7d9ffb"/>
    <path id="Path_909287" data-name="Path 909287" d="M3.4,278.806A3.4,3.4,0,1,0,0,275.4,3.408,3.408,0,0,0,3.4,278.806Zm0-4.538A1.134,1.134,0,1,1,2.269,275.4,1.137,1.137,0,0,1,3.4,274.269Zm0,0" transform="translate(0 -233.43)" fill="#7d9ffb"/>
    <path id="Path_909288" data-name="Path 909288" d="M451.4,222.806a3.4,3.4,0,1,0-3.4-3.4A3.408,3.408,0,0,0,451.4,222.806Zm0-4.538a1.134,1.134,0,1,1-1.134,1.134A1.137,1.137,0,0,1,451.4,218.269Zm0,0" transform="translate(-384.473 -185.371)" fill="#7d9ffb"/>
    <path id="Path_909289" data-name="Path 909289" d="M451.4,296a3.4,3.4,0,1,0,3.4,3.4A3.408,3.408,0,0,0,451.4,296Zm0,4.538a1.134,1.134,0,1,1,1.134-1.134A1.137,1.137,0,0,1,451.4,300.538Zm0,0" transform="translate(-384.473 -254.027)" fill="#7d9ffb"/>
    <path id="Path_909290" data-name="Path 909290" d="M19.4,206.806a3.4,3.4,0,1,0-3.4-3.4A3.408,3.408,0,0,0,19.4,206.806Zm0-4.538a1.134,1.134,0,1,1-1.134,1.134A1.137,1.137,0,0,1,19.4,202.269Zm0,0" transform="translate(-13.732 -171.64)" fill="#7d9ffb"/>
  </g>
</svg>
