<svg xmlns="http://www.w3.org/2000/svg" xmlns:xlink="http://www.w3.org/1999/xlink" width="186.907" height="193.641" viewBox="0 0 186.907 193.641">
  <defs>
    <clipPath id="clip-path">
      <rect id="Rectangle_405021" data-name="Rectangle 405021" width="148.504" height="128.821" fill="#98e465"/>
    </clipPath>
  </defs>
  <g id="Group_1113115" data-name="Group 1113115" transform="translate(-50.555 267.885) rotate(-59)">
    <g id="Group_1111584" data-name="Group 1111584" transform="translate(146.549 -29.077)" clip-path="url(#clip-path)">
      <path id="Path_903705" data-name="Path 903705" d="M146.868,109.056l.01-.006a11.442,11.442,0,0,0-4.064-3.995,1.743,1.743,0,0,0-1.454-.1,1.708,1.708,0,0,0-.451.25,56.446,56.446,0,0,1-13.487,6.834,29.325,29.325,0,0,1-3.12.906c-7.41.456-23.729-.851-53.826-23.042C34.967,63.718,25.1,27.206,25.742,9.572c.727-2.25.552-6.646-2.779-8.569-4.316-2.49-8.183.027-10.109,3.483-.038.02-.076.038-.113.058C-5.485,44.707-8.844,81.629,34.478,112.072c38.639,27.152,77.829,14.361,90.767,9.152,1.446-.045,9.6-.518,22.172-5.448a1.674,1.674,0,0,0,1.072-1.389,9.355,9.355,0,0,0-1.62-5.331" transform="translate(0 0)" fill="#98e465"/>
    </g>
  </g>
</svg>
