<svg xmlns="http://www.w3.org/2000/svg" xmlns:xlink="http://www.w3.org/1999/xlink" width="1050" height="255.697" viewBox="0 0 1050 255.697">
  <defs>
    <clipPath id="clip-path">
      <path id="Rectangle_401268" data-name="Rectangle 401268" d="M30,0H1050a0,0,0,0,1,0,0V225.7a30,30,0,0,1-30,30H0a0,0,0,0,1,0,0V30A30,30,0,0,1,30,0Z" fill="#567d56" stroke="#707070" stroke-width="1"/>
    </clipPath>
    <clipPath id="clip-path-2">
      <path id="Path_908989" data-name="Path 908989" d="M0,0,325.845-3.115l-9.351,976.756L-9.351,976.756Z" fill="#98e465"/>
    </clipPath>
    <clipPath id="clip-path-3">
      <path id="Path_907678" data-name="Path 907678" d="M.505.593,269.115-1.6l-1.861,230.7L-1.355,231.289Z" fill="#bef17c"/>
    </clipPath>
  </defs>
  <g id="Mask_Group_1098728" data-name="Mask Group 1098728" clip-path="url(#clip-path)">
    <path id="Recurso_1" data-name="Recurso 1" d="M0,0H1066.433V411.907H0Z" transform="translate(1066.433 318.292) rotate(180)" fill="#d4f989"/>
    <g id="Group_1111914" data-name="Group 1111914" transform="translate(528.69 703.363) rotate(-165)" opacity="0.35">
      <g id="Group_1111836" data-name="Group 1111836" transform="matrix(0.883, 0.469, -0.469, 0.883, 462.678, -2.2)" clip-path="url(#clip-path-2)">
        <path id="Path_904341" data-name="Path 904341" d="M179.466,966.465c.055-15.833-1.4-50.993-3.36-90.749,55.257-.854,131.841-68.461,129.676-185.216.79-22.463-84.139-19.03-84.139-19.03s21.284-8.5,55.344-24.106c34.968-16.018,40.237-49.612-4.875-47.559,22.979-9.881,47.871-32.217,47.871-32.217s6.88-76.032-28.337-149.819c-25.312-7.5-80.468-3.6-80.468-3.6s52.8-25.48,76.9-36.5c19.655-21.809,5.482-154.23-57.976-244.372-28.231-1.782-67.669,3.08-67.669,3.08s17.209-32.337,42.232-49.343C170.2,6.924,101.189-47.267,54.93,54.548S8.613,235.876,8.613,235.876,47.27,249.262,71.04,266.752C37.443,260.166.307,263.3.307,263.3S-10.937,322.953,8.5,394.91,42.944,501.52,25.862,572.616,14.3,681.6,32.672,699.961c25.36,25.343,74.173,40.872,74.173,40.872s-40.486,4-74.356-.117c24.618,56.313,71.137,117.329,123.825,132.148,2.377,60.174,1,66.622,3.751,95.393,1.035,10.834,19.37,7.583,19.4-1.792" transform="translate(-0.001 0)" fill="#98e465"/>
      </g>
    </g>
    <g id="Group_1111915" data-name="Group 1111915" transform="translate(590 140.975) rotate(71)">
      <g id="Group_1111911" data-name="Group 1111911" transform="translate(0 0)" clip-path="url(#clip-path-3)">
        <path id="Path_907677" data-name="Path 907677" d="M264.284,193.209l.018-.01a20.114,20.114,0,0,0-7.294-7.093,3.215,3.215,0,0,0-3.447.29c-4.953,3.808-15.674,9.358-24.494,12.438a54.154,54.154,0,0,1-5.656,1.669c-13.41.926-42.908-1.174-97.025-40.47C62.537,113.669,45.21,48.429,46.633,16.839c1.348-4.04,1.1-11.91-4.9-15.3-7.77-4.4-14.8.169-18.336,6.388-.068.036-.138.068-.206.106C-10.356,80.222-16.966,146.392,60.953,200.27c69.5,48.054,140.568,24.568,164.043,15.05,2.616-.1,17.376-1.069,40.182-10.085a3.067,3.067,0,0,0,1.958-2.5c.256-2.76-.841-6.3-2.854-9.523" transform="translate(0.295 0.515)" fill="#bef17c"/>
      </g>
    </g>
    <g id="Group_1111916" data-name="Group 1111916" transform="translate(65 12.975) rotate(71)">
      <g id="Group_1111911-2" data-name="Group 1111911" transform="translate(0 0)" clip-path="url(#clip-path-3)">
        <path id="Path_907677-2" data-name="Path 907677" d="M264.284,193.209l.018-.01a20.114,20.114,0,0,0-7.294-7.093,3.215,3.215,0,0,0-3.447.29c-4.953,3.808-15.674,9.358-24.494,12.438a54.154,54.154,0,0,1-5.656,1.669c-13.41.926-42.908-1.174-97.025-40.47C62.537,113.669,45.21,48.429,46.633,16.839c1.348-4.04,1.1-11.91-4.9-15.3-7.77-4.4-14.8.169-18.336,6.388-.068.036-.138.068-.206.106C-10.356,80.222-16.966,146.392,60.953,200.27c69.5,48.054,140.568,24.568,164.043,15.05,2.616-.1,17.376-1.069,40.182-10.085a3.067,3.067,0,0,0,1.958-2.5c.256-2.76-.841-6.3-2.854-9.523" transform="translate(0.295 0.515)" fill="#bef17c"/>
      </g>
    </g>
  </g>
</svg>
