<svg xmlns="http://www.w3.org/2000/svg" width="190" height="93" viewBox="0 0 190 93">
  <g id="Group_1113116" data-name="Group 1113116" transform="translate(-180 -412)">
    <rect id="Rectangle_405035" data-name="Rectangle 405035" width="190" height="93" transform="translate(180 412)" fill="#e6f8db"/>
    <g id="banana_1_" data-name="banana (1)" transform="translate(237.669 423.375)">
      <g id="Group_1111638" data-name="Group 1111638" transform="translate(1.258 1.073)">
        <g id="Group_1111637" data-name="Group 1111637" transform="translate(0 0)">
          <g id="Group_1111616" data-name="Group 1111616" transform="translate(30.979 41.94)">
            <path id="Path_903739" data-name="Path 903739" d="M229.936,310.091H222.4l-1.333,12.38,11.52,12.506Z" transform="translate(-221.066 -310.091)" fill="#965859"/>
          </g>
          <g id="Group_1111617" data-name="Group 1111617" transform="translate(30.979 41.94)">
            <path id="Path_903740" data-name="Path 903740" d="M224.386,321.277l1.2-11.186H222.4l-1.333,12.38,11.52,12.506-.578-5.425Z" transform="translate(-221.066 -310.091)" fill="#6b3f40"/>
          </g>
          <g id="Group_1111618" data-name="Group 1111618" transform="translate(29.511 54.32)">
            <path id="Path_903741" data-name="Path 903741" d="M223.988,407.495l-11.52-12.506L211,408.62h13.124Z" transform="translate(-211 -394.989)" fill="#965859"/>
          </g>
          <g id="Group_1111619" data-name="Group 1111619" transform="translate(29.511 54.32)">
            <path id="Path_903742" data-name="Path 903742" d="M221.777,405.1h-7.252l.759-7.049-2.816-3.057L211,408.62h13.124l-.136-1.126Z" transform="translate(-211 -394.989)" fill="#6b3f40"/>
          </g>
          <g id="Group_1111620" data-name="Group 1111620" transform="translate(25.137 12.122)">
            <path id="Path_903743" data-name="Path 903743" d="M181,110.614V111.9a4.542,4.542,0,0,0,4.542,4.542V105.616Z" transform="translate(-181 -105.616)" fill="#f8e868"/>
          </g>
          <g id="Group_1111621" data-name="Group 1111621" transform="translate(20.829 17.195)">
            <path id="Path_903744" data-name="Path 903744" d="M160.16,150.531h-1.91a6.86,6.86,0,0,1-6.792-5.9l4.351-4.233v1.436a4.443,4.443,0,0,0,3.556,4.354l.776.158,1.827,2Z" transform="translate(-151.459 -140.4)" fill="#faef93"/>
          </g>
          <g id="Group_1111622" data-name="Group 1111622" transform="translate(20.829 17.195)">
            <path id="Path_903745" data-name="Path 903745" d="M160.413,148.367a6.847,6.847,0,0,1-5.586-2.883l1.538-1.5a4.43,4.43,0,0,1-.556-2.151V140.4l-4.351,4.233a6.864,6.864,0,0,0,6.791,5.9h1.91l1.79-2.164Z" transform="translate(-151.457 -140.4)" fill="#f8e868"/>
          </g>
          <g id="Group_1111623" data-name="Group 1111623" transform="translate(42.585 12.122)">
            <path id="Path_903746" data-name="Path 903746" d="M305.2,110.614V111.9a4.542,4.542,0,0,1-4.542,4.542V105.616Z" transform="translate(-300.655 -105.616)" fill="#faef93"/>
          </g>
          <g id="Group_1111624" data-name="Group 1111624" transform="translate(42.585 16.624)">
            <path id="Path_903747" data-name="Path 903747" d="M300.655,139.052v3.76a4.542,4.542,0,0,0,4.542-4.542v-1.287l-.452-.5A4.542,4.542,0,0,1,300.655,139.052Z" transform="translate(-300.655 -136.486)" fill="#f8e868"/>
          </g>
          <g id="Group_1111625" data-name="Group 1111625" transform="translate(42.734 17.195)">
            <path id="Path_903748" data-name="Path 903748" d="M301.676,150.531h1.91a6.86,6.86,0,0,0,6.792-5.9l-4.351-4.233v1.436a4.443,4.443,0,0,1-3.556,4.354l-.776.158Z" transform="translate(-301.676 -140.4)" fill="#faef93"/>
          </g>
          <g id="Group_1111627" data-name="Group 1111627" transform="translate(42.734 21.97)">
            <g id="Group_1111626" data-name="Group 1111626">
              <path id="Path_903749" data-name="Path 903749" d="M306.414,175.22H304.5l.009-2.074a4.432,4.432,0,0,1-2.044,1.015l-.776.158-.019,4.182h1.91a6.859,6.859,0,0,0,6.343-4.249A6.824,6.824,0,0,1,306.414,175.22Z" transform="translate(-301.675 -173.146)" fill="#f8e868"/>
            </g>
          </g>
          <g id="Group_1111628" data-name="Group 1111628" transform="translate(29.511 1.077)">
            <path id="Path_903750" data-name="Path 903750" d="M222.278,61.569l1.846-1.846V45.606a22.347,22.347,0,0,0-6.444-15.7l-.034-.035A22.347,22.347,0,0,0,211,45.773V52.1l1.827,1.827L211,55.76V59.9a22.348,22.348,0,0,0,6.646,15.9l.034-.035A22.348,22.348,0,0,0,223.9,63.194Z" transform="translate(-211 -29.871)" fill="#8edf78"/>
          </g>
          <g id="Group_1111629" data-name="Group 1111629" transform="translate(29.511 1.077)">
            <path id="Path_903751" data-name="Path 903751" d="M214.263,58.811v-4.77l1.827-1.827-1.827-1.827V44.68a22.346,22.346,0,0,1,4.559-13.525q-.546-.643-1.142-1.249l-.034-.035A22.346,22.346,0,0,0,211,45.774v6.332l1.827,1.827L211,55.76V59.9a22.348,22.348,0,0,0,6.646,15.9l.034-.035a22.33,22.33,0,0,0,2.02-2.353A22.347,22.347,0,0,1,214.263,58.811Z" transform="translate(-211 -29.872)" fill="#39c17b"/>
          </g>
          <g id="Group_1111630" data-name="Group 1111630" transform="translate(39.578 0)">
            <path id="Path_903752" data-name="Path 903752" d="M312.8,55.262v-.049a22.548,22.548,0,0,0-6.6-15.8l-8.2-8.2h-2.8v-2.77a22.539,22.539,0,0,0-3.366-2.56l-2.187-1.2a22.536,22.536,0,0,0-9.571-2.2h-.049a22.549,22.549,0,0,0,6.6,16.087l10.082,10.082c.051.051.1.1.154.15h2.562v2.164A22.55,22.55,0,0,0,312.8,55.262Z" transform="translate(-280.029 -22.488)" fill="#8edf78"/>
          </g>
          <g id="Group_1111631" data-name="Group 1111631" transform="translate(39.578 0)">
            <path id="Path_903753" data-name="Path 903753" d="M312.5,51.7a22.55,22.55,0,0,1-11.9-4.25V45.285h-2.562L287.8,35.053a22.548,22.548,0,0,1-6.34-12.511c-.459-.031-.92-.05-1.383-.053h-.049a22.549,22.549,0,0,0,6.6,16.087s10.185,10.182,10.236,10.233h2.562v2.164A22.549,22.549,0,0,0,312.8,55.263v-.049A22.546,22.546,0,0,0,312.5,51.7Z" transform="translate(-280.03 -22.489)" fill="#39c17b"/>
          </g>
          <g id="Group_1111632" data-name="Group 1111632" transform="translate(0)">
            <path id="Path_903754" data-name="Path 903754" d="M41.35,22.487a22.548,22.548,0,0,0-15.124,5.958v2.769h-2.8l-8.2,8.2a22.549,22.549,0,0,0-6.6,15.8v.049A22.549,22.549,0,0,0,22,50.971V48.807h2.562c.051-.05,10.236-10.233,10.236-10.233a22.549,22.549,0,0,0,6.6-16.087Z" transform="translate(-8.625 -22.487)" fill="#8edf78"/>
          </g>
          <g id="Group_1111633" data-name="Group 1111633" transform="translate(0 0)">
            <path id="Path_903755" data-name="Path 903755" d="M18.481,40.516l8.2-8.2h2.8V29.549a22.552,22.552,0,0,1,11.886-5.7c.024-.451.037-.9.034-1.359h-.049a22.548,22.548,0,0,0-15.124,5.958v2.769h-2.8l-8.2,8.2a22.549,22.549,0,0,0-6.6,15.8v.049a22.534,22.534,0,0,0,3.3-.223A22.55,22.55,0,0,1,18.481,40.516Z" transform="translate(-8.624 -22.488)" fill="#39c17b"/>
          </g>
          <g id="Group_1111634" data-name="Group 1111634" transform="translate(34.966 36.075)">
            <path id="Path_903756" data-name="Path 903756" d="M248.4,269.871h2.19v2.187H248.4Z" transform="translate(-248.403 -269.871)" fill="#fff"/>
          </g>
          <g id="Group_1111635" data-name="Group 1111635" transform="translate(6.084 23.592)">
            <path id="Path_903757" data-name="Path 903757" d="M0,0H2.187V2.187H0Z" transform="translate(0 1.546) rotate(-45)" fill="#fff"/>
          </g>
          <g id="Group_1111636" data-name="Group 1111636" transform="translate(63.158 23.592)">
            <path id="Path_903758" data-name="Path 903758" d="M0,0H2.187V2.187H0Z" transform="translate(0 1.546) rotate(-45)" fill="#fff"/>
          </g>
        </g>
      </g>
      <g id="Group_1111639" data-name="Group 1111639">
        <path id="Path_903759" data-name="Path 903759" d="M0,0H2.19V2.2H0Z" transform="translate(41.154 54.862) rotate(-6.144)"/>
        <path id="Path_903760" data-name="Path 903760" d="M74.656,49a23.534,23.534,0,0,0-6.933-16.588l-8.529-8.529H57.033V21.728a24.351,24.351,0,0,0-3.888-3.013l-1.156,1.86A21.548,21.548,0,0,1,54.843,22.7v3.381h3.444l7.887,7.887a21.343,21.343,0,0,1,6.259,13.978A21.311,21.311,0,0,1,61.267,44.2V41.5H58.057l-9.925-9.925a21.639,21.639,0,0,1-6.121-12.519L62.743,39.791l1.549-1.549-20.7-20.7a21.611,21.611,0,0,1,6.31,1.89l.944-1.976a24.421,24.421,0,0,0-11.193-2.317v3.244a23.663,23.663,0,0,0-2.328-2.613,22.777,22.777,0,0,0-2.3,2.527l-.007-3.157a23.918,23.918,0,0,0-17.377,6.587v2.158H15.481L11.79,27.578l1.549,1.549,3.05-3.05h3.444V22.7a21.431,21.431,0,0,1,11.253-5.157l-20.7,20.7,1.549,1.549L32.664,19.058a21.64,21.64,0,0,1-6.121,12.519L16.618,41.5H13.408V44.2A21.309,21.309,0,0,1,2.242,47.943,21.341,21.341,0,0,1,8.5,33.964l3.225-3.225-1.549-1.549L6.952,32.416A23.782,23.782,0,0,0,.012,50.148,23.928,23.928,0,0,0,15.6,45.323V43.692h1.917l3.906-3.9a8,8,0,0,0,7.349,4.9h.8v2.694a23.578,23.578,0,0,0,2.776,11.048l-2.9,26.937h15.58L43.816,74.15l-2.178.234.609,5.656-8.972-9.781.952-8.839a26.88,26.88,0,0,0,3.1,3.445,27.7,27.7,0,0,0,2.93-3.3l.673,6.246,2.178-.234-.969-8.995A23.77,23.77,0,0,0,44.745,50.3l-1.24-1.24L44.9,47.665V44.7h.916a8,8,0,0,0,7.375-4.964l3.967,3.958h1.918v1.631a23.926,23.926,0,0,0,15.586,4.824ZM42.163,83.188H31.883l1.08-10.03Zm5.045-49.437v.924A3.459,3.459,0,0,1,44.9,37.932V33.076c0-.647-.028-1.289-.079-1.927C45.37,31.838,47.208,33.752,47.208,33.752Zm-17.565-2.34q-.073.912-.074,1.832v4.645a3.458,3.458,0,0,1-2.19-3.213v-.836A29.823,29.823,0,0,0,29.643,31.412Zm.207,11.1H28.77a5.8,5.8,0,0,1-5.618-4.443L25.323,35.9a5.659,5.659,0,0,0,4.421,4.317l1.2,1.2Zm12.86,4.249-2.3,2.3,2.01,2.009A21.453,21.453,0,0,1,37.31,61.726a21.43,21.43,0,0,1-5.551-14.333V43.7l2.283-2.283L31.759,39.13V33.243A21.436,21.436,0,0,1,36.223,20.21V50.175h2.19V20.25a21.136,21.136,0,0,1,4.3,12.826Zm3.106-4.249H44.9V40.2a5.661,5.661,0,0,0,4.38-4.377l2.17,2.17A5.8,5.8,0,0,1,45.817,42.509Z" transform="translate(0 -15.129)"/>
      </g>
    </g>
  </g>
</svg>
