<svg xmlns="http://www.w3.org/2000/svg" width="72.997" height="73.003" viewBox="0 0 72.997 73.003">
  <g id="prevencion" transform="translate(0 0.002)">
    <path id="Path_908847" data-name="Path 908847" d="M11.2,42.776l11.6,6.958a1.141,1.141,0,0,0,1.174,0l11.6-6.958a14.9,14.9,0,0,0,7.2-12.714V10.74A1.142,1.142,0,0,0,41.7,9.6,42.406,42.406,0,0,1,23.938,4.8a1.142,1.142,0,0,0-1.094,0A42.414,42.414,0,0,1,5.078,9.6,1.14,1.14,0,0,0,4,10.74V30.062A14.9,14.9,0,0,0,11.2,42.776ZM6.281,11.807A44.522,44.522,0,0,0,23.391,7.1,44.522,44.522,0,0,0,40.5,11.807V30.062A12.611,12.611,0,0,1,34.4,40.82L23.391,47.426,12.378,40.82a12.611,12.611,0,0,1-6.1-10.758Z" transform="translate(0.562 0.656)" fill="#93ad5f"/>
    <path id="Path_908848" data-name="Path 908848" d="M9.416,47.344l13.95,8.372a1.141,1.141,0,0,0,1.174,0l13.95-8.372a19.508,19.508,0,0,0,9.417-16.627V6.833A1.181,1.181,0,0,0,46.663,5.7c-.121.011-12.284,1.013-22.077-5.516a1.186,1.186,0,0,0-1.265,0C13.527,6.709,1.365,5.709,1.243,5.7A1.174,1.174,0,0,0,0,6.833V30.717A19.483,19.483,0,0,0,9.416,47.344ZM2.281,8.035A39.567,39.567,0,0,0,23.953,2.474,39.567,39.567,0,0,0,45.625,8.035V30.717a17.218,17.218,0,0,1-8.309,14.671L23.953,53.409,10.59,45.388A17.192,17.192,0,0,1,2.281,30.717Z" transform="translate(0 0)" fill="#93ad5f"/>
    <path id="Path_908849" data-name="Path 908849" d="M13.141,28.687h5.7v5.7a1.14,1.14,0,0,0,1.141,1.141h4.562a1.14,1.14,0,0,0,1.141-1.141v-5.7h5.7a1.14,1.14,0,0,0,1.141-1.141V22.984a1.14,1.14,0,0,0-1.141-1.141h-5.7v-5.7A1.14,1.14,0,0,0,24.547,15H19.984a1.14,1.14,0,0,0-1.141,1.141v5.7h-5.7A1.14,1.14,0,0,0,12,22.984v4.562A1.14,1.14,0,0,0,13.141,28.687Zm1.141-4.562h5.7a1.14,1.14,0,0,0,1.141-1.141v-5.7h2.281v5.7a1.14,1.14,0,0,0,1.141,1.141h5.7v2.281h-5.7a1.14,1.14,0,0,0-1.141,1.141v5.7H21.125v-5.7a1.14,1.14,0,0,0-1.141-1.141h-5.7Z" transform="translate(1.687 2.11)" fill="#93ad5f"/>
    <path id="Path_908850" data-name="Path 908850" d="M46.056,31.236a11.285,11.285,0,0,1,4.588,1.785l-.122.122a1.14,1.14,0,0,0,1.613,1.613l1.121-1.121s.008,0,.011-.009l0-.006L57.287,29.6a1.206,1.206,0,0,0,.261-1.2,2.851,2.851,0,1,1,1.737,1.738,1.184,1.184,0,0,0-1.239.317L53.9,34.615a1.215,1.215,0,0,0-.132,1.453,11.386,11.386,0,0,1-.016,12.882,1.345,1.345,0,0,0-.184.739,1.3,1.3,0,0,0,.316.711l3.936,3.936a1.261,1.261,0,0,0,1.2.263,2.854,2.854,0,1,1-1.737,1.739,1.23,1.23,0,0,0-.265-1.2l-5.154-5.154A1.14,1.14,0,0,0,50.244,51.6l.376.376a11.006,11.006,0,0,1-4.158,1.68,1.22,1.22,0,0,0-.947,1.122v5.429a1.278,1.278,0,0,0,.575.989,3.442,3.442,0,0,1,1.6,3.84,3.387,3.387,0,0,1-2.457,2.438,3.423,3.423,0,0,1-2.57-6.277,1.3,1.3,0,0,0,.569-.989V54.78a1.241,1.241,0,0,0-.927-1.122,11.428,11.428,0,0,1-5.183-2.43,1.14,1.14,0,0,0-1.446,1.763,13.762,13.762,0,0,0,5.275,2.674V59.6a5.712,5.712,0,1,0,6.843.008v-3.94A13.318,13.318,0,0,0,52.248,53.6l2.68,2.68a5.132,5.132,0,1,0,4.03-4.032L56.14,49.435a13.585,13.585,0,0,0,1.838-5.786h1.1A4.555,4.555,0,1,0,66.7,39.281a4.671,4.671,0,0,0-6.451,0,4.512,4.512,0,0,0-1.175,2.086h-1.1a13.6,13.6,0,0,0-1.827-5.786l3.1-3.1a5.059,5.059,0,0,0,.985.106A5.135,5.135,0,1,0,55.2,28.46L52.27,31.391a13.544,13.544,0,0,0-5.88-2.412,1.141,1.141,0,0,0-.334,2.257Zm17.425,8.991a2.281,2.281,0,1,1-2.28,2.288s0,0,0-.008,0,0,0-.008A2.278,2.278,0,0,1,63.481,40.228Z" transform="translate(4.956 3.141)" fill="#93ad5f"/>
    <path id="Path_908851" data-name="Path 908851" d="M36.92,45.843a9.655,9.655,0,0,1-.682-1.121,1.14,1.14,0,0,0-2.02,1.058c.1.2.213.387.322.57l-6.627,6.627a5.127,5.127,0,1,0,4.029,4.034l4.41-4.41a1.14,1.14,0,0,0-1.613-1.613L29.9,55.829a1.214,1.214,0,0,0-.3,1.228,2.823,2.823,0,0,1-.668,2.958,2.852,2.852,0,1,1-1.069-4.693,1.255,1.255,0,0,0,1.2-.267l7.724-7.724a1.232,1.232,0,0,0,.137-1.489Z" transform="translate(3.063 6.202)" fill="#93ad5f"/>
    <path id="Path_908852" data-name="Path 908852" d="M45.146,34.026a1.146,1.146,0,1,0,1.146,1.146A1.15,1.15,0,0,0,45.146,34.026Z" transform="translate(6.187 4.785)" fill="#93ad5f"/>
    <path id="Path_908853" data-name="Path 908853" d="M38.464,45.459a3.422,3.422,0,1,0,3.422-3.422A3.426,3.426,0,0,0,38.464,45.459Zm4.562,0a1.141,1.141,0,1,1-1.141-1.141A1.142,1.142,0,0,1,43.026,45.459Z" transform="translate(5.409 5.912)" fill="#93ad5f"/>
    <path id="Path_908854" data-name="Path 908854" d="M47.852,43.74A2.852,2.852,0,1,0,45,40.889,2.855,2.855,0,0,0,47.852,43.74Zm0-3.422a.57.57,0,1,1-.57.57A.571.571,0,0,1,47.852,40.318Z" transform="translate(6.328 5.349)" fill="#93ad5f"/>
  </g>
</svg>
