<svg xmlns="http://www.w3.org/2000/svg" width="75.811" height="84.307" viewBox="0 0 75.811 84.307">
  <path id="protocolo" d="M61.887,22.917a1.171,1.171,0,0,1,1.171-1.171H83.073a1.171,1.171,0,1,1,0,2.342H63.058a1.171,1.171,0,0,1-1.171-1.171ZM82.941,56.08H63.058a1.171,1.171,0,0,0,0,2.342H82.941a1.171,1.171,0,1,0,0-2.342ZM57.61,22.072l-4.219,4.219-1-1.737a1.171,1.171,0,0,0-2.028,1.171l1.766,3.058a1.171,1.171,0,0,0,.861.575,1.149,1.149,0,0,0,.153.01,1.171,1.171,0,0,0,.828-.343l5.3-5.3a1.171,1.171,0,1,0-1.656-1.656Zm0,14.535-4.219,4.219-1-1.737a1.171,1.171,0,0,0-2.028,1.171l1.766,3.058a1.171,1.171,0,0,0,.861.575,1.148,1.148,0,0,0,.153.01,1.171,1.171,0,0,0,.828-.343l5.3-5.3a1.171,1.171,0,0,0-1.656-1.656Zm0,14.535-4.219,4.219-1-1.737A1.171,1.171,0,0,0,50.361,54.8l1.766,3.058a1.171,1.171,0,0,0,.861.575,1.149,1.149,0,0,0,.153.01,1.171,1.171,0,0,0,.828-.343l5.3-5.3a1.171,1.171,0,1,0-1.656-1.656Zm34.034,6.227v5.713h.018a7.011,7.011,0,0,1,4.4,12.468,13.444,13.444,0,0,1,8.981,11.479,1.171,1.171,0,0,1-1.166,1.276H30.567A1.171,1.171,0,0,1,29.4,87.03,13.444,13.444,0,0,1,38.381,75.55a7.011,7.011,0,0,1,4.4-12.468H42.8V16.247a4.69,4.69,0,0,1,4.684-4.684h7.444v-.116a3.311,3.311,0,0,1,3.881-3.261l2.972.519a5.5,5.5,0,0,1,10.879,0l2.971-.519a3.311,3.311,0,0,1,3.881,3.261v.116H86.96a4.69,4.69,0,0,1,4.685,4.684v7.283l1.5.938a29.576,29.576,0,0,0,8.259,3.269l2.919.745a1.171,1.171,0,0,1,.882,1.135v12.51a11.258,11.258,0,0,1-1.59,5.828c-2.09,3.519-5.945,5.812-9.347,7.834-.4.239-.8.474-1.184.708l-1.441.871Zm.263-30.913-1.434-.9-1.434.9a31.856,31.856,0,0,1-8.92,3.552l-2.038.52v11.6a8.947,8.947,0,0,0,1.262,4.632c1.786,3.007,5.369,5.137,8.53,7.017.407.242.808.48,1.2.717l1.4.847,1.4-.847c.391-.236.792-.475,1.2-.717,3.161-1.88,6.745-4.01,8.53-7.017a8.948,8.948,0,0,0,1.262-4.632v-11.6l-2.038-.52a31.856,31.856,0,0,1-8.92-3.552ZM57.274,14.931h19.9V11.447a.969.969,0,0,0-1.136-.954l-4.287.749a1.171,1.171,0,0,1-1.372-1.154V9.495a3.154,3.154,0,0,0-6.308,0v.594A1.171,1.171,0,0,1,62.7,11.242l-4.288-.749a.969.969,0,0,0-1.136.954V14.93ZM38.113,70.1a4.673,4.673,0,1,0,4.673-4.673A4.678,4.678,0,0,0,38.113,70.1Zm11.687,0a7,7,0,0,1-2.61,5.454A13.444,13.444,0,0,1,55,82.651a13.444,13.444,0,0,1,7.815-7.1,7,7,0,0,1-2.572-6.184H49.762a7.073,7.073,0,0,1,.038.73Zm24.438,0a7,7,0,0,1-2.61,5.454,13.443,13.443,0,0,1,7.814,7.1,13.444,13.444,0,0,1,7.815-7.1,7,7,0,0,1-2.572-6.184H74.2A7.073,7.073,0,0,1,74.239,70.1Zm-2.342,0a4.673,4.673,0,1,0-4.673,4.673A4.678,4.678,0,0,0,71.9,70.1ZM53.651,85.964a11.1,11.1,0,0,0-21.729,0Zm24.438,0a11.1,11.1,0,0,0-21.729,0ZM91.662,77.15A11.031,11.031,0,0,0,80.8,85.964h21.729A11.031,11.031,0,0,0,91.662,77.15Zm0-11.727A4.673,4.673,0,1,0,96.335,70.1,4.678,4.678,0,0,0,91.662,65.424ZM89.3,63.491V57.369L87.861,56.5c-.386-.234-.782-.469-1.184-.708-1.367-.813-2.808-1.67-4.178-2.632H63.058a1.171,1.171,0,1,1,0-2.342h16.57a13.955,13.955,0,0,1-2.3-2.86,11.2,11.2,0,0,1-1.458-4.069H63.058a1.171,1.171,0,1,1,0-2.342H75.74V38.623H63.058a1.171,1.171,0,1,1,0-2.342H75.74V29.618a1.161,1.161,0,0,1,.034-.266H63.058a1.171,1.171,0,1,1,0-2.342h19.02A25.755,25.755,0,0,0,87.8,24.469l1.5-.938V16.248a2.345,2.345,0,0,0-2.343-2.343H79.516v2.2a1.171,1.171,0,0,1-1.171,1.171H56.1A1.171,1.171,0,0,1,54.932,16.1v-2.2H47.488a2.345,2.345,0,0,0-2.343,2.343V63.491a7.053,7.053,0,0,1,3.944,3.533H60.92a7.012,7.012,0,0,1,12.609,0H85.358A7.053,7.053,0,0,1,89.3,63.492Zm1.791-35.733a34.57,34.57,0,0,0,9.353,3.737,1.171,1.171,0,0,1,.882,1.135v9.5a7.332,7.332,0,0,1-1.046,3.847c-1.6,2.687-5.023,4.72-8.047,6.514-.4.235-.784.465-1.156.69a1.17,1.17,0,0,1-1.211,0c-.372-.225-.759-.454-1.155-.689-3.024-1.794-6.452-3.827-8.048-6.514a7.332,7.332,0,0,1-1.046-3.847v-9.5A1.171,1.171,0,0,1,80.5,31.5a34.575,34.575,0,0,0,9.354-3.737,1.171,1.171,0,0,1,1.24,0Zm-.62,2.36a36.9,36.9,0,0,1-8.513,3.413v8.6a4.986,4.986,0,0,0,.718,2.652c1.291,2.174,4.446,4.045,7.229,5.7l.566.336.567-.337c2.783-1.651,5.938-3.522,7.229-5.7a4.986,4.986,0,0,0,.718-2.652v-8.6a36.91,36.91,0,0,1-8.513-3.413Zm-3.492,9.238a1.171,1.171,0,0,0-2.028,1.171l2.253,3.9a1.171,1.171,0,0,0,.861.575,1.148,1.148,0,0,0,.153.01,1.171,1.171,0,0,0,.828-.343l6.76-6.76a1.171,1.171,0,1,0-1.656-1.656l-5.681,5.681-1.49-2.581Z" transform="translate(-29.396 -3.999)" fill="#93ad5f"/>
</svg>
